<?xml version="1.0" encoding="utf-8"?>
<!-- Generator: Adobe Illustrator 16.0.0, SVG Export Plug-In . SVG Version: 6.00 Build 0)  -->
<!DOCTYPE svg PUBLIC "-//W3C//DTD SVG 1.1//EN" "http://www.w3.org/Graphics/SVG/1.1/DTD/svg11.dtd">
<svg version="1.1" id="Layer_1" xmlns="http://www.w3.org/2000/svg" xmlns:xlink="http://www.w3.org/1999/xlink" x="0px" y="0px"
	 width="512px" height="512px" viewBox="0 0 512 512" enable-background="new 0 0 512 512" xml:space="preserve">
<g>
	<g>
		<linearGradient id="SVGID_1_" gradientUnits="userSpaceOnUse" x1="101.0835" y1="100.5112" x2="417.1566" y2="416.5844">
			<stop  offset="0" style="stop-color:#0091FF"/>
			<stop  offset="0.505" style="stop-color:#0087FF"/>
			<stop  offset="1" style="stop-color:#4501EE"/>
		</linearGradient>
		<path fill="url(#SVGID_1_)" d="M481.719,256.147c0,124.261-100.733,225-225,225s-225-100.739-225-225
			c0-124.264,100.733-225,225-225S481.719,131.884,481.719,256.147z"/>
		<linearGradient id="SVGID_2_" gradientUnits="userSpaceOnUse" x1="150.7715" y1="72.6436" x2="362.667" y2="439.6573">
			<stop  offset="0" style="stop-color:#0023FF"/>
			<stop  offset="1" style="stop-color:#007AFF"/>
		</linearGradient>
		<path fill="url(#SVGID_2_)" d="M468.577,256.147c0,117.011-94.854,211.864-211.858,211.864S44.86,373.158,44.86,256.147
			c0-117.005,94.854-211.858,211.858-211.858S468.577,139.143,468.577,256.147z"/>
	</g>
</g>
<g>
	<path fill-rule="evenodd" clip-rule="evenodd" fill="#FFFFFF" d="M333.785,278.104c-9.34,10.758-17.959,20.685-28.362,32.671
		c-7.787-9.792-14.572-18.301-21.712-27.268c-17.677,20.947-37.713,28.552-61.295,24.358c-18.203-3.233-31.65-13.271-36.027-32.421
		c-4.743-20.685,0.11-38.71,16.846-52.271c18.032-14.603,40-18.365,62.274-20.721c2.738-0.291,5.488-0.4,8.729-0.633
		c0-6.623,0.563-12.873-0.122-18.979c-1.455-13.038-10.734-18.625-23.57-14.967c-10.061,2.873-16.748,9.563-20.978,18.732
		c-1.993,4.328-4.193,5.862-9.206,5.144c-10.453-1.498-21.039-2.075-31.98-3.065c-0.22-14.994,6.528-25.877,16.553-34.948
		c22.86-20.703,64.767-25.309,91.528-9.826c14.156,8.203,22.592,20.251,22.348,37.476c-0.257,18.793,0.599,37.622-0.245,56.385
		C317.819,254.402,320.704,268.959,333.785,278.104z M275.166,227.743c-0.868-1.137-1.724-2.271-2.592-3.405
		c-10.721,3.533-21.992,5.948-32.005,10.93c-9.486,4.728-12.567,16.953-9.254,27.023c2.824,8.557,11.308,13.973,21.21,13.532
		c10.489-0.464,18.387-6.956,20.294-18.496C274.42,247.603,274.445,237.614,275.166,227.743z"/>
	<path fill-rule="evenodd" clip-rule="evenodd" fill="#FFFFFF" d="M143.736,306.331c64.817,45,132.677,51.394,203.851,15.715
		c0.563,1.553,1.124,3.105,1.687,4.664c-4.07,4.053-7.628,8.82-12.286,12.035c-38.838,26.858-81.075,33.233-125.953,18.777
		c-24.181-7.787-44.976-21.687-63.02-39.584c-2.286-2.262-4.071-5.019-6.076-7.549C142.538,309.039,143.137,307.682,143.736,306.331
		z"/>
	<path fill-rule="evenodd" clip-rule="evenodd" fill="#FFFFFF" d="M327.354,313.58c12.249-7.916,25.636-9.792,39.756-5.825
		c1.956,0.55,4.584,4.047,4.4,5.941c-1.296,13.894-5.306,26.638-19.254,34.377c2.054-6.138,4.267-12.226,6.149-18.417
		c3.643-11.986,1.662-14.768-10.624-14.658c-6.662,0.056-13.325,0.66-19.987,1.021C327.647,315.206,327.501,314.394,327.354,313.58z
		"/>
</g>
</svg>
