<?xml version="1.0" encoding="utf-8"?>
<!-- Generator: Adobe Illustrator 16.0.0, SVG Export Plug-In . SVG Version: 6.00 Build 0)  -->
<!DOCTYPE svg PUBLIC "-//W3C//DTD SVG 1.1//EN" "http://www.w3.org/Graphics/SVG/1.1/DTD/svg11.dtd">
<svg version="1.1" id="Layer_1" xmlns="http://www.w3.org/2000/svg" xmlns:xlink="http://www.w3.org/1999/xlink" x="0px" y="0px"
	 width="512px" height="512px" viewBox="0 0 512 512" enable-background="new 0 0 512 512" xml:space="preserve">
<g>
	<g>
		<linearGradient id="SVGID_1_" gradientUnits="userSpaceOnUse" x1="101.2383" y1="100.5117" x2="417.3108" y2="416.5842">
			<stop  offset="0" style="stop-color:#0091FF"/>
			<stop  offset="0.505" style="stop-color:#0087FF"/>
			<stop  offset="1" style="stop-color:#4501EE"/>
		</linearGradient>
		<path fill="url(#SVGID_1_)" d="M481.873,256.147c0,124.261-100.733,225-225,225s-225-100.739-225-225
			c0-124.264,100.733-225,225-225S481.873,131.884,481.873,256.147z"/>
		<linearGradient id="SVGID_2_" gradientUnits="userSpaceOnUse" x1="150.9258" y1="72.6431" x2="362.8213" y2="439.6569">
			<stop  offset="0" style="stop-color:#0023FF"/>
			<stop  offset="1" style="stop-color:#007AFF"/>
		</linearGradient>
		<path fill="url(#SVGID_2_)" d="M468.731,256.147c0,117.011-94.854,211.864-211.858,211.864S45.015,373.158,45.015,256.147
			c0-117.005,94.854-211.858,211.858-211.858S468.731,139.143,468.731,256.147z"/>
	</g>
</g>
<g>
	<path fill-rule="evenodd" clip-rule="evenodd" d="M149.062,247.477c14.78,3.493,29.56,4.392,44.389,2.65
		c20.195-2.378,39.291-8.365,57.005-18.503c21.148-12.09,38.496-28.157,51.577-48.744c4.241-6.684,4.144-6.65,12.017-5.183
		c4.512,0.84,9.083,1.366,13.631,2.038c0.306-0.391,0.611-0.779,0.917-1.164c-1.063-3.225-1.919-6.534-3.215-9.661
		c-7.103-17.258-17.567-33.025-22.8-51.253c-18.826,15.624-36.479,32.677-58.643,44.389c5.905,1.461,11.443,2.827,17.616,4.349
		C236.775,211.927,199.477,238.736,149.062,247.477z M335.406,350.114c0.073-1.124,0.171-1.846,0.171-2.573
		c0-37.023,0.024-74.034-0.013-111.051c-0.012-7.252-5.146-12.353-12.457-12.454c-7.322-0.107-14.657-0.037-21.98-0.031
		c-9.926,0.009-14.755,4.813-14.768,14.826c-0.024,35.771-0.012,71.54,0,107.322c0,1.296,0.135,2.598,0.221,3.961
		C303.047,350.114,319.037,350.114,335.406,350.114z M270.296,350.047c0.122-0.813,0.269-1.289,0.269-1.766
		c0.013-25.6,0.11-51.192-0.036-76.785c-0.062-7.977-5.574-12.998-13.606-13.072c-7.335-0.066-14.67-0.058-22.005-0.023
		c-8.57,0.039-13.655,5.125-13.655,13.646c-0.012,24.731-0.012,49.462,0,74.188c0,1.204,0.11,2.414,0.184,3.813
		C237.777,350.047,253.878,350.047,270.296,350.047z M204.88,350.114c0.061-1.497,0.159-2.592,0.159-3.691
		c0-16.394,0.024-32.8-0.012-49.193c0-7.714-5.037-12.763-12.763-12.8c-7.09-0.043-14.168-0.012-21.247-0.012
		c-10.513,0-15.208,4.639-15.22,15.109c-0.012,15.52,0,31.052,0.012,46.584c0,1.308,0.134,2.615,0.22,4.003
		C172.484,350.114,188.487,350.114,204.88,350.114z M145.333,374.534c67.298,0,134.218,0,201.125,0c0-4.518,0-8.692,0-13.026
		c-67.139,0-134.059,0-201.125,0C145.333,365.934,145.333,370.114,145.333,374.534z"/>
	<path fill-rule="evenodd" clip-rule="evenodd" fill="#FFFFFF" d="M149.062,247.477c50.416-8.741,87.714-35.55,112.493-81.082
		c-6.173-1.522-11.711-2.888-17.616-4.349c22.164-11.711,39.817-28.765,58.643-44.389c5.232,18.228,15.697,33.995,22.8,51.253
		c1.296,3.127,2.151,6.437,3.215,9.661c-0.306,0.385-0.611,0.773-0.917,1.164c-4.548-0.672-9.119-1.198-13.631-2.038
		c-7.873-1.467-7.775-1.501-12.017,5.183c-13.081,20.587-30.429,36.653-51.577,48.744c-17.714,10.138-36.81,16.125-57.005,18.503
		C178.621,251.869,163.841,250.97,149.062,247.477z"/>
	<path fill-rule="evenodd" clip-rule="evenodd" fill="#FFFFFF" d="M335.406,350.114c-16.369,0-32.359,0-48.826,0
		c-0.086-1.363-0.221-2.665-0.221-3.961c-0.012-35.782-0.024-71.552,0-107.322c0.013-10.013,4.842-14.817,14.768-14.826
		c7.323-0.006,14.658-0.076,21.98,0.031c7.311,0.101,12.445,5.202,12.457,12.454c0.037,37.017,0.013,74.028,0.013,111.051
		C335.577,348.269,335.479,348.99,335.406,350.114z"/>
	<path fill-rule="evenodd" clip-rule="evenodd" fill="#FFFFFF" d="M270.296,350.047c-16.418,0-32.519,0-48.851,0
		c-0.073-1.399-0.184-2.609-0.184-3.813c-0.012-24.726-0.012-49.456,0-74.188c0-8.521,5.085-13.606,13.655-13.646
		c7.335-0.034,14.67-0.043,22.005,0.023c8.032,0.074,13.545,5.096,13.606,13.072c0.146,25.593,0.049,51.186,0.036,76.785
		C270.564,348.758,270.418,349.234,270.296,350.047z"/>
	<path fill-rule="evenodd" clip-rule="evenodd" fill="#FFFFFF" d="M204.88,350.114c-16.394,0-32.396,0-48.851,0
		c-0.085-1.388-0.22-2.695-0.22-4.003c-0.012-15.532-0.024-31.064-0.012-46.584c0.012-10.471,4.707-15.109,15.22-15.109
		c7.079,0,14.157-0.031,21.247,0.012c7.726,0.037,12.763,5.086,12.763,12.8c0.037,16.394,0.012,32.8,0.012,49.193
		C205.039,347.522,204.941,348.617,204.88,350.114z"/>
	<path fill-rule="evenodd" clip-rule="evenodd" fill="#FFFFFF" d="M145.333,374.534c0-4.42,0-8.601,0-13.026
		c67.066,0,133.986,0,201.125,0c0,4.334,0,8.509,0,13.026C279.551,374.534,212.631,374.534,145.333,374.534z"/>
</g>
</svg>
