<?xml version="1.0" encoding="utf-8"?>
<!-- Generator: Adobe Illustrator 16.0.0, SVG Export Plug-In . SVG Version: 6.00 Build 0)  -->
<!DOCTYPE svg PUBLIC "-//W3C//DTD SVG 1.1//EN" "http://www.w3.org/Graphics/SVG/1.1/DTD/svg11.dtd">
<svg version="1.1" id="Layer_1" xmlns="http://www.w3.org/2000/svg" xmlns:xlink="http://www.w3.org/1999/xlink" x="0px" y="0px"
	 width="2000px" height="1128px" viewBox="0 0 2000 1128" enable-background="new 0 0 2000 1128" xml:space="preserve">
<g>
	<g opacity="0.8">
		<path fill="#A7C913" d="M1123.413,136.117c-0.557-0.395-1.109-0.792-1.67-1.184c-2.296-1.611-4.842-2.608-7.604-3.044
			c-2.528-0.402-5.021-0.202-7.481,0.491c-1.961,0.552-3.961,0.854-5.997,0.936c-2.444,0.098-4.852-0.142-7.197-0.859
			c-0.06-0.017-0.112-0.037-0.212-0.069c3.627-3.011,7.788-4.509,12.436-4.682c-6.515-0.82-14.104,2.495-18.011,8.501
			c-4.148,6.375-4.343,13.064-1.117,19.911c-0.272-0.374-0.539-0.755-0.822-1.122c-1.288-1.672-1.946-3.608-2.358-5.641
			c-0.944-4.651-0.401-9.132,1.695-13.385c2.609-5.286,6.767-8.816,12.363-10.644c1.858-0.606,3.76-1.004,5.712-1.128
			c0.036-0.001,0.076,0.003,0.091-0.042c0.863,0,1.728,0,2.59,0c0.168,0.089,0.354,0.061,0.531,0.077
			c2.409,0.22,4.696,0.874,6.874,1.91c1.882,0.894,3.632,2.001,5.208,3.365c1.02,0.88,1.823,1.956,2.62,3.03
			c0.823,1.11,1.589,2.26,2.313,3.44c0.022,0.038,0.039,0.079,0.061,0.119C1123.428,136.102,1123.421,136.109,1123.413,136.117z"/>
		<path fill="#A7C913" d="M1116.81,144.845c2.868-1.344,5.702-2.672,8.555-4.008c0,3.038,0,6.046,0,9.059
			c-0.1,0.014-0.146-0.063-0.209-0.109c-0.527-0.384-1.056-0.771-1.579-1.164c-0.121-0.091-0.185-0.121-0.276,0.047
			c-1.051,1.889-2.354,3.587-3.872,5.127c-3.642,3.689-7.963,6.133-13.054,7.189c-1.886,0.391-3.783,0.64-5.708,0.608
			c-2.827-0.046-5.543-0.583-8-2.051c-3.564-2.129-5.733-5.254-6.479-9.341c-0.429-2.356-0.234-4.674,0.604-6.963
			c0.061,0.236,0.021,0.446,0.041,0.651c0.02,0.214,0.018,0.43,0.021,0.646c0.021,1.175,0.018,2.36,0.371,3.49
			c1.424,4.544,4.163,7.807,8.938,9.045c1.658,0.429,3.354,0.572,5.063,0.442c5.143-0.395,9.785-2.113,13.858-5.3
			c1.923-1.504,3.554-3.29,4.95-5.291c0.184-0.261,0.182-0.264-0.103-0.413c-0.978-0.518-1.952-1.036-2.931-1.556
			C1116.948,144.927,1116.899,144.897,1116.81,144.845z"/>
		<path fill="#033171" d="M1109.265,153.623c0-0.107,0-0.181,0-0.256c0-6.309,0.002-12.616-0.006-18.924
			c0-0.221,0.06-0.26,0.268-0.259c2,0.009,4.001,0.007,6.001,0.001c0.178-0.001,0.237,0.03,0.237,0.224
			c-0.007,4.857-0.005,9.715-0.004,14.572c0,0.124-0.02,0.222-0.116,0.316c-1.844,1.793-3.938,3.222-6.278,4.285
			C1109.342,153.595,1109.317,153.604,1109.265,153.623z"/>
		<path fill="#033171" d="M1100.405,148.104c0-2.454,0.003-4.908-0.004-7.362c-0.001-0.188,0.035-0.251,0.241-0.25
			c2.016,0.009,4.03,0.008,6.046,0c0.18,0,0.217,0.05,0.217,0.221c-0.006,4.545-0.006,9.089,0,13.633
			c0,0.155-0.045,0.213-0.188,0.26c-1.978,0.624-3.987,1.052-6.066,1.115c-0.185,0.005-0.251-0.02-0.249-0.232
			C1100.406,153.029,1100.405,150.567,1100.405,148.104z"/>
		<path fill="#033171" d="M1090.293,161.031c6.109,2.723,12.396,3.413,18.884,1.626c6.48-1.786,11.58-5.518,15.436-11.068
			c0.016,0.373-0.063,0.671-0.152,0.965c-0.459,1.498-1.166,2.884-1.955,4.228c-2.504,4.261-6.213,7.034-10.804,8.697
			c-2.065,0.749-4.209,1.137-6.407,1.192c-5.259,0.128-9.965-1.383-14.052-4.736c-0.332-0.271-0.646-0.562-0.971-0.843
			C1090.281,161.072,1090.283,161.051,1090.293,161.031z"/>
		<path fill="#033171" d="M1098.037,150.238c0,1.711-0.005,3.422,0.006,5.132c0,0.187-0.046,0.211-0.224,0.184
			c-1.618-0.248-3.14-0.76-4.503-1.685c-0.618-0.42-1.175-0.909-1.678-1.46c-0.069-0.075-0.102-0.152-0.102-0.257
			c0.004-2.365,0.006-4.731-0.002-7.096c-0.001-0.171,0.063-0.186,0.205-0.186c2.03,0.004,4.063,0.005,6.096-0.001
			c0.178,0,0.203,0.057,0.202,0.215C1098.035,146.801,1098.037,148.52,1098.037,150.238z"/>
		<path fill="#65A501" d="M1123.434,136.093c0.006,0.015,0.019,0.042,0.016,0.044c-0.021,0.017-0.029-0.003-0.035-0.021
			C1123.421,136.109,1123.428,136.102,1123.434,136.093z"/>
	</g>
	<g>
		<g>
			<path fill="#444444" d="M1141.434,145.966l2.597,0.823c-0.396,1.448-1.06,2.524-1.983,3.227
				c-0.929,0.702-2.103,1.054-3.524,1.054c-1.761,0-3.21-0.602-4.345-1.805c-1.137-1.204-1.701-2.849-1.701-4.937
				c0-2.208,0.571-3.923,1.71-5.145c1.141-1.222,2.64-1.832,4.498-1.832c1.623,0,2.938,0.479,3.955,1.438
				c0.603,0.568,1.055,1.382,1.356,2.442l-2.65,0.635c-0.156-0.688-0.484-1.231-0.981-1.63c-0.498-0.398-1.104-0.597-1.813-0.597
				c-0.982,0-1.78,0.353-2.396,1.059c-0.61,0.706-0.919,1.849-0.919,3.431c0,1.677,0.303,2.872,0.905,3.583s1.387,1.068,2.353,1.068
				c0.713,0,1.323-0.226,1.838-0.679C1140.843,147.648,1141.209,146.937,1141.434,145.966z"/>
			<path fill="#444444" d="M1151.479,150.843v-13.267h4.298c1.629,0,2.69,0.066,3.188,0.199c0.758,0.199,1.395,0.632,1.905,1.298
				c0.515,0.667,0.771,1.528,0.771,2.583c0,0.815-0.148,1.5-0.444,2.054c-0.296,0.556-0.672,0.991-1.126,1.308
				c-0.456,0.316-0.92,0.527-1.39,0.629c-0.639,0.127-1.565,0.19-2.778,0.19h-1.746v5.004L1151.479,150.843L1151.479,150.843z
				 M1154.156,139.821v3.764h1.466c1.056,0,1.763-0.069,2.116-0.208c0.356-0.139,0.635-0.355,0.838-0.651
				c0.202-0.296,0.305-0.64,0.305-1.032c0-0.482-0.143-0.881-0.427-1.194c-0.282-0.314-0.643-0.51-1.078-0.589
				c-0.317-0.06-0.962-0.09-1.927-0.09H1154.156z"/>
			<path fill="#444444" d="M1179.93,150.843h-2.914l-1.158-3.013h-5.303l-1.095,3.013h-2.841l5.166-13.267h2.834L1179.93,150.843z
				 M1174.998,145.595l-1.828-4.923l-1.792,4.923H1174.998z"/>
			<path fill="#444444" d="M1190.969,137.577h5.304c1.048,0,1.832,0.044,2.348,0.132c0.518,0.087,0.979,0.27,1.387,0.547
				c0.405,0.278,0.745,0.647,1.019,1.109c0.271,0.461,0.406,0.979,0.406,1.551c0,0.621-0.166,1.191-0.503,1.711
				c-0.334,0.519-0.789,0.908-1.362,1.167c0.809,0.235,1.431,0.637,1.864,1.204c0.434,0.566,0.648,1.233,0.648,2
				c0,0.604-0.14,1.19-0.421,1.76c-0.281,0.571-0.664,1.026-1.147,1.367c-0.485,0.34-1.084,0.55-1.797,0.628
				c-0.445,0.049-1.521,0.078-3.23,0.091h-4.515V137.577L1190.969,137.577z M1193.649,139.785v3.068h1.755
				c1.044,0,1.691-0.015,1.946-0.045c0.458-0.054,0.819-0.212,1.081-0.475s0.394-0.608,0.394-1.037c0-0.41-0.11-0.743-0.339-1
				c-0.227-0.257-0.563-0.413-1.01-0.466c-0.265-0.03-1.028-0.046-2.289-0.046L1193.649,139.785L1193.649,139.785z
				 M1193.649,145.061v3.547h2.48c0.965,0,1.576-0.027,1.836-0.081c0.397-0.073,0.723-0.25,0.972-0.53
				c0.25-0.28,0.377-0.656,0.377-1.126c0-0.398-0.098-0.737-0.289-1.014c-0.19-0.278-0.474-0.479-0.838-0.605
				c-0.365-0.127-1.157-0.191-2.375-0.191H1193.649L1193.649,145.061z"/>
			<path fill="#444444" d="M1208.949,144.292c0-1.352,0.202-2.486,0.606-3.403c0.302-0.675,0.713-1.282,1.233-1.818
				c0.521-0.536,1.095-0.937,1.715-1.195c0.826-0.35,1.779-0.524,2.859-0.524c1.954,0,3.521,0.605,4.692,1.818
				c1.172,1.212,1.758,2.898,1.758,5.059c0,2.141-0.58,3.817-1.746,5.027c-1.165,1.21-2.72,1.815-4.669,1.815
				c-1.974,0-3.542-0.602-4.706-1.805C1209.532,148.06,1208.949,146.404,1208.949,144.292z M1211.712,144.201
				c0,1.503,0.346,2.641,1.041,3.416c0.692,0.776,1.572,1.163,2.642,1.163s1.943-0.384,2.63-1.153s1.025-1.923,1.025-3.461
				c0-1.52-0.333-2.654-0.998-3.402c-0.667-0.748-1.554-1.122-2.658-1.122s-1.994,0.379-2.668,1.136
				C1212.049,141.534,1211.712,142.675,1211.712,144.201z"/>
			<path fill="#444444" d="M1228.516,144.292c0-1.352,0.202-2.486,0.604-3.403c0.303-0.675,0.714-1.282,1.234-1.818
				c0.521-0.536,1.093-0.937,1.716-1.195c0.825-0.35,1.779-0.524,2.858-0.524c1.955,0,3.52,0.605,4.69,1.818
				c1.174,1.212,1.761,2.898,1.761,5.059c0,2.141-0.581,3.817-1.746,5.027s-2.722,1.815-4.669,1.815
				c-1.976,0-3.543-0.602-4.707-1.805C1229.099,148.06,1228.516,146.404,1228.516,144.292z M1231.275,144.201
				c0,1.503,0.349,2.641,1.042,3.416c0.693,0.776,1.575,1.163,2.643,1.163c1.068,0,1.943-0.384,2.631-1.153
				c0.684-0.769,1.024-1.923,1.024-3.461c0-1.52-0.333-2.654-0.999-3.402c-0.666-0.748-1.553-1.122-2.656-1.122
				s-1.993,0.379-2.67,1.136C1231.614,141.534,1231.275,142.675,1231.275,144.201z"/>
			<path fill="#444444" d="M1248.658,150.843v-13.267h2.679v5.891l5.413-5.891h3.602l-4.995,5.167l5.267,8.099h-3.467l-3.646-6.226
				l-2.173,2.217v4.009L1248.658,150.843L1248.658,150.843z"/>
			<path fill="#444444" d="M1266.478,146.527l2.606-0.253c0.155,0.875,0.476,1.518,0.952,1.928c0.479,0.411,1.127,0.615,1.941,0.615
				c0.863,0,1.513-0.183,1.951-0.547c0.437-0.365,0.655-0.792,0.655-1.281c0-0.314-0.094-0.581-0.276-0.801
				s-0.506-0.412-0.963-0.575c-0.314-0.109-1.028-0.301-2.146-0.579c-1.435-0.355-2.439-0.793-3.021-1.313
				c-0.813-0.729-1.223-1.621-1.223-2.669c0-0.676,0.191-1.308,0.575-1.896c0.384-0.588,0.938-1.036,1.656-1.343
				c0.724-0.308,1.592-0.461,2.611-0.461c1.665,0,2.919,0.365,3.761,1.095c0.841,0.729,1.284,1.705,1.326,2.922l-2.679,0.118
				c-0.114-0.681-0.36-1.172-0.737-1.471c-0.379-0.299-0.943-0.448-1.697-0.448c-0.777,0-1.388,0.16-1.829,0.479
				c-0.282,0.205-0.426,0.48-0.426,0.823c0,0.314,0.133,0.583,0.397,0.805c0.339,0.283,1.157,0.579,2.464,0.886
				c1.302,0.309,2.267,0.626,2.891,0.955c0.623,0.329,1.113,0.778,1.466,1.349c0.354,0.569,0.527,1.274,0.527,2.113
				c0,0.761-0.21,1.472-0.635,2.136c-0.423,0.664-1.02,1.157-1.791,1.479c-0.771,0.323-1.732,0.484-2.887,0.484
				c-1.678,0-2.966-0.387-3.863-1.163C1267.189,149.14,1266.653,148.011,1266.478,146.527z"/>
		</g>
	</g>
</g>
</svg>
