<?xml version="1.0" encoding="utf-8"?>
<!-- Generator: Adobe Illustrator 16.0.0, SVG Export Plug-In . SVG Version: 6.00 Build 0)  -->
<!DOCTYPE svg PUBLIC "-//W3C//DTD SVG 1.1//EN" "http://www.w3.org/Graphics/SVG/1.1/DTD/svg11.dtd">
<svg version="1.1" id="Layer_1" xmlns="http://www.w3.org/2000/svg" xmlns:xlink="http://www.w3.org/1999/xlink" x="0px" y="0px"
	 width="512px" height="512px" viewBox="0 0 512 512" enable-background="new 0 0 512 512" xml:space="preserve">
<g>
	<g>
		
			<linearGradient id="SVGID_1_" gradientUnits="userSpaceOnUse" x1="75.2576" y1="404.0798" x2="391.3315" y2="88.006" gradientTransform="matrix(1 0 0 -1 24.9448 503.3589)">
			<stop  offset="0" style="stop-color:#00B5A4"/>
			<stop  offset="1" style="stop-color:#007D7D"/>
		</linearGradient>
		<path fill="url(#SVGID_1_)" d="M480.839,254.916c0,124.262-100.733,225-225,225c-124.268,0-225-100.738-225-225
			c0-124.267,100.732-225,225-225C380.106,29.916,480.839,130.649,480.839,254.916z"/>
		
			<linearGradient id="SVGID_2_" gradientUnits="userSpaceOnUse" x1="124.947" y1="431.948" x2="336.8405" y2="64.9378" gradientTransform="matrix(1 0 0 -1 24.9448 503.3589)">
			<stop  offset="0.1823" style="stop-color:#007D7D"/>
			<stop  offset="1" style="stop-color:#00B5A4"/>
		</linearGradient>
		<circle fill="url(#SVGID_2_)" cx="255.839" cy="254.916" r="211.858"/>
	</g>
</g>
<g opacity="0.4">
	<path d="M134.451,353.571c4.314-14.7,8.667-29.383,12.922-44.096c2.193-7.573,4.004-15.27,6.461-22.744
		c0.636-1.938,2.817-4.212,4.725-4.737c7.952-2.194,16.069-3.79,25.055-5.807c0,14.063,0,27.708,0,41.675c5.288,0,9.707,0,14.561,0
		c0-14.921,0-29.493,0-42.427c7.146-5.086,13.215-9.407,19.774-14.071c3.478,3.741,7.512,8.051,11.51,12.378
		c5.299,5.746,14.779,5.746,20.037,0.02c3.984-4.341,8.038-8.632,11.547-12.396c6.355,4.548,12.272,8.778,19.621,14.034
		c0,12.543,0,27.299,0,42.434c4.993,0,9.431,0,14.553,0c0-13.668,0-27.219,0-41.613c9.951,2.199,19.236,3.753,28.154,6.51
		c2.916,0.897,4.915,4.878,7.25,7.519c2.72,3.087,5.342,6.259,8.611,10.104c0.313-1.699,0.604-2.556,0.611-3.404
		c0.055-18.387,0.183-36.771-0.019-55.159c-0.03-2.212-1.346-4.914-2.935-6.534c-8.436-8.605-17.146-16.932-25.96-25.544
		c7.39-12.793,14.358-25.141,21.729-37.23c0.96-1.583,4.016-1.876,7.315-3.289c0,12.065,0,22.604,0,33.423
		c11.009,0,21.217,0,32.274,0c0-10.482,0-21.008,0-31.253c4.56-2.066,6.9-0.794,8.912,2.72
		c6.638,11.645,13.509,23.154,20.292,34.712c0,0.397,0,0.795,0,1.187c-9.554,9.376-19.198,18.655-28.558,28.221
		c-1.259,1.284-1.516,3.949-1.534,5.984c-0.237,29.656-0.438,59.32-0.372,88.979c0.013,2.83,1.411,6.032,3.094,8.404
		c3.202,4.519,7.07,8.551,11.589,13.875c-4.01,0-6.345,0-8.68,0c-78.296,0-156.596-0.012-234.896,0.02
		c-2.555,0-5.098,0.312-7.647,0.482C134.451,355.154,134.451,354.359,134.451,353.571z"/>
	<path d="M173.785,187.972c0-2.635,0-4.78,0-7.593c3.697,0,7.335,0,11.131,0c1.479-9.314,2.408-18.124,4.333-26.717
		c5.22-23.252,18.992-37.316,39.896-39.651c32.983-3.687,55.208,7.86,61.907,46.021c1.125,6.399,1.705,12.903,2.604,19.798
		c3.49,0.227,6.933,0.446,10.601,0.678c0,2.587,0,4.854,0,7.464C260.766,187.972,217.587,187.972,173.785,187.972z"/>
	<path d="M191.615,199.348c31.906,0,63.611,0,96.058,0c-4.75,22.146-12.391,42.268-30.954,56.247
		c-11.063,8.33-24.468,7.854-35.599-0.888c-16.192-12.694-23.71-30.531-28.521-49.822
		C192.178,203.18,191.976,201.414,191.615,199.348z"/>
</g>
<g>
	<path fill="#FFFFFF" d="M144.451,343.571c4.314-14.7,8.667-29.383,12.922-44.096c2.193-7.573,4.004-15.27,6.461-22.744
		c0.636-1.938,2.817-4.212,4.725-4.737c7.952-2.194,16.069-3.79,25.055-5.807c0,14.063,0,27.708,0,41.675c5.288,0,9.707,0,14.561,0
		c0-14.921,0-29.493,0-42.427c7.146-5.086,13.215-9.407,19.774-14.071c3.478,3.741,7.512,8.051,11.51,12.378
		c5.299,5.746,14.779,5.746,20.037,0.02c3.984-4.341,8.038-8.632,11.547-12.396c6.355,4.548,12.272,8.778,19.621,14.034
		c0,12.543,0,27.299,0,42.434c4.993,0,9.431,0,14.553,0c0-13.668,0-27.219,0-41.613c9.951,2.199,19.236,3.753,28.154,6.51
		c2.916,0.897,4.915,4.878,7.25,7.519c2.72,3.087,5.342,6.259,8.611,10.104c0.313-1.699,0.604-2.556,0.611-3.404
		c0.055-18.387,0.183-36.771-0.019-55.159c-0.03-2.212-1.346-4.914-2.935-6.534c-8.436-8.605-17.146-16.932-25.96-25.544
		c7.39-12.793,14.358-25.141,21.729-37.23c0.96-1.583,4.016-1.876,7.315-3.289c0,12.065,0,22.604,0,33.423
		c11.009,0,21.217,0,32.274,0c0-10.482,0-21.008,0-31.253c4.56-2.066,6.9-0.794,8.912,2.72
		c6.638,11.645,13.509,23.154,20.292,34.712c0,0.397,0,0.795,0,1.187c-9.554,9.376-19.198,18.655-28.558,28.221
		c-1.259,1.284-1.516,3.949-1.534,5.984c-0.237,29.656-0.438,59.32-0.372,88.979c0.013,2.83,1.411,6.032,3.094,8.404
		c3.202,4.519,7.07,8.551,11.589,13.875c-4.01,0-6.345,0-8.68,0c-78.296,0-156.596-0.012-234.896,0.02
		c-2.555,0-5.098,0.312-7.647,0.482C144.451,345.154,144.451,344.359,144.451,343.571z"/>
	<path fill="#FFFFFF" d="M183.785,177.972c0-2.635,0-4.78,0-7.593c3.697,0,7.335,0,11.131,0c1.479-9.314,2.408-18.124,4.333-26.717
		c5.22-23.252,18.992-37.316,39.896-39.651c32.983-3.687,55.208,7.86,61.907,46.021c1.125,6.399,1.705,12.903,2.604,19.798
		c3.49,0.227,6.933,0.446,10.601,0.678c0,2.587,0,4.854,0,7.464C270.766,177.972,227.587,177.972,183.785,177.972z"/>
	<path fill="#FFFFFF" d="M201.615,189.348c31.906,0,63.611,0,96.058,0c-4.75,22.146-12.391,42.268-30.954,56.247
		c-11.063,8.33-24.468,7.854-35.599-0.888c-16.192-12.694-23.71-30.531-28.521-49.822
		C202.178,193.18,201.976,191.414,201.615,189.348z"/>
</g>
</svg>
