<?xml version="1.0" encoding="utf-8"?>
<!-- Generator: Adobe Illustrator 16.0.0, SVG Export Plug-In . SVG Version: 6.00 Build 0)  -->
<!DOCTYPE svg PUBLIC "-//W3C//DTD SVG 1.1//EN" "http://www.w3.org/Graphics/SVG/1.1/DTD/svg11.dtd">
<svg version="1.1" id="Layer_1" xmlns="http://www.w3.org/2000/svg" xmlns:xlink="http://www.w3.org/1999/xlink" x="0px" y="0px"
	 width="512px" height="512px" viewBox="0 0 512 512" enable-background="new 0 0 512 512" xml:space="preserve">
<g>
	<g>
		
			<linearGradient id="SVGID_1_" gradientUnits="userSpaceOnUse" x1="75.3816" y1="402.6648" x2="391.4553" y2="86.5909" gradientTransform="matrix(1 0 0 -1 24.9448 503.3589)">
			<stop  offset="0" style="stop-color:#FFA300"/>
			<stop  offset="1" style="stop-color:#FF6400"/>
		</linearGradient>
		<path fill="url(#SVGID_1_)" d="M480.962,256.33c0,124.262-100.733,225-225,225c-124.268,0-225-100.738-225-225
			c0-124.267,100.732-225,225-225C380.229,31.33,480.962,132.063,480.962,256.33z"/>
		
			<linearGradient id="SVGID_2_" gradientUnits="userSpaceOnUse" x1="125.0701" y1="430.5339" x2="336.9634" y2="63.524" gradientTransform="matrix(1 0 0 -1 24.9448 503.3589)">
			<stop  offset="0" style="stop-color:#FF6400"/>
			<stop  offset="1" style="stop-color:#FFA300"/>
		</linearGradient>
		<circle fill="url(#SVGID_2_)" cx="255.962" cy="256.33" r="211.858"/>
	</g>
</g>
<g opacity="0.6">
	<path d="M173.963,165.132c0.465-0.946,0.764-1.595,1.094-2.225c4.419-8.46,11.345-13.104,20.948-13.118
		c45.312-0.061,90.63-0.049,135.94-0.012c13.398,0.006,23.394,10.086,23.417,23.605c0.056,29.651,0.019,59.304,0.019,88.955
		c0,7.029-0.006,14.064-0.006,21.101c0,0.855,0,1.712,0,2.837c1.606,0,2.939,0,4.285,0c8.563,0.03,13.403,4.815,13.409,13.343
		c0.025,16.864,0.008,33.729,0.008,50.587c0,5.917,0.023,11.834,0,17.745c-0.043,7.958-5.116,12.982-13.111,12.964
		c-54.426-0.121-108.852-0.243-163.271-0.402c-11.962-0.036-20.886-6.992-23.232-18.117c-0.446-2.091-0.515-4.285-0.515-6.438
		c-0.023-52.506-0.029-105.012,0.024-157.518c0-2.226-0.586-3.918-2.011-5.624c-6.144-7.359-12.151-14.835-18.246-22.231
		c-1.742-2.121-2.763-4.456-2.727-7.23c0.062-4.347,2.445-7.91,6.271-9.311c4.095-1.504,8.496-0.402,11.29,2.965
		C169.697,159.582,171.708,162.259,173.963,165.132z M347.704,286.275c0-1.102,0-1.883,0-2.665c0-36.516,0-73.038-0.007-109.554
		c-0.007-10.728-6.277-17.018-16.949-17.023c-26.768-0.006-53.533,0-80.307,0c-18.142,0-36.276-0.031-54.413,0.018
		c-8.281,0.024-15.066,5.96-15.604,13.595c-0.073,1.002,0.214,2.279,0.819,3.044c4.053,5.146,8.228,10.202,12.401,15.25
		c0.421,0.507,1.101,1.143,1.662,1.148c7.201,0.042,12.036,4.003,16.094,9.413c1.088,1.449,2.244,3.032,3.729,3.979
		c13.313,8.49,27.537,14.468,43.558,15.22c1.9,0.092,3.539,0.886,3.862,2.598c0.251,1.346-0.195,3.271-1.069,4.315
		c-17.035,20.397-37.127,37.109-60.679,49.517c-1.381,0.733-3.6,0.666-5.134,0.122c-1.847-0.652-1.491-2.731-1.333-4.438
		c0.324-3.41,0.764-6.827,0.874-10.244c0.373-11.198-2.457-21.797-6.008-32.305c-1.749-5.171-5.825-8.545-8.79-13.552
		c-0.074,1.363-0.142,1.98-0.142,2.604c-0.006,46.589-0.023,93.166,0.012,139.756c0.007,9.835,6.425,16.138,16.267,16.155
		c15.263,0.024,30.52,0.012,45.782,0c0.752,0,1.49-0.092,2.242-0.135c-0.177-1.528-0.445-2.794-0.451-4.06
		c-0.024-23.648-0.05-47.305,0.006-70.96c0.013-6.467,5.019-11.479,11.492-11.76c1.399-0.067,2.812-0.013,4.229-0.013
		c0.062-0.862,0.104-1.34,0.109-1.811c0.135-8.318,4.878-12.995,13.196-13.014c5.759-0.013,11.505-0.024,17.263,0.007
		c7.896,0.03,12.701,4.663,12.849,12.579c0.036,1.857,0.647,2.256,2.371,2.243c10.227-0.067,20.459-0.036,30.685-0.036
		C339.99,286.275,343.651,286.275,347.704,286.275z M257.643,312.791c0.057-0.936,0.08-1.57,0.123-2.207
		c0.379-5.445,3.905-8.808,9.363-8.808c27.886-0.013,55.759-0.013,83.644,0.006c5,0,8.595,3.447,8.912,8.454
		c0.049,0.837,0.006,1.682,0.006,2.549c2.184,0,3.985,0,6.069,0c0-4.192,0.007-8.252,0-12.305c-0.012-5.501-1.411-6.901-6.98-6.901
		c-18.209,0-36.424,0-54.639,0c-1.675,0-3.362,0.073-5.031-0.036c-2.377-0.159-3.624-1.474-3.71-3.839
		c-0.066-1.919,0.024-3.839-0.043-5.752c-0.108-3.146-1.662-4.768-4.749-4.798c-6.148-0.056-12.299-0.056-18.453-0.006
		c-3.367,0.03-4.878,1.648-4.927,5.098c-0.023,1.675,0.006,3.351-0.007,5.03c-0.03,3.354-1.229,4.548-4.645,4.607
		c-2.237,0.043-4.476-0.023-6.706,0.099c-2.158,0.116-3.869,1.271-3.961,3.44c-0.202,5.074-0.062,10.173-0.062,15.367
		C253.859,312.791,255.656,312.791,257.643,312.791z M236.952,240.199c-6.132-2.243-11.21-5.184-15.508-9.37
		c-2.133-2.084-2.298-4.035-0.563-5.807c1.571-1.607,3.502-1.302,5.581,0.74c4.31,4.235,9.487,6.949,15.306,8.483
		c0.526,0.142,1.388,0.128,1.699-0.188c2.861-2.964,5.636-6.016,8.827-9.469c-14.578-1.767-27.104-7.12-38.857-14.456
		c-5.231,4.255-10.269,8.437-15.428,12.458c-1.516,1.174-1.797,2.151-1.131,3.968c4.059,11.105,6.479,22.519,6.015,34.432
		c-0.049,1.143-0.006,2.292-0.006,3.729c3.435-2.171,6.608-4.279,9.896-6.205c1.394-0.813,1.767-1.791,1.626-3.301
		c-0.563-5.832-2.408-11.186-5.617-16.094c-1.253-1.925-0.782-4.267,0.85-5.324c1.754-1.137,4.254-0.587,5.25,1.603
		c2.115,4.615,3.949,9.357,5.851,14.063c0.365,0.899,0.494,1.896,0.837,3.259C226.812,248.451,231.732,244.447,236.952,240.199z"/>
	<path d="M297.459,215.303c0-8.057-0.013-16.119,0.007-24.182c0.006-3.661,1.24-4.884,4.89-4.896c2.477-0.013,4.945-0.013,7.421,0
		c3.582,0.023,4.799,1.265,4.805,4.994c0.013,11.81,0.007,23.625,0.007,35.435c0,4.309,0.019,8.618-0.013,12.934
		c-0.013,3.563-1.211,4.769-4.714,4.806c-2.476,0.029-4.95,0.018-7.426,0c-4.041-0.02-4.97-0.941-4.977-4.902
		C297.453,231.428,297.459,223.365,297.459,215.303z"/>
	<path d="M290.308,226.25c0.007,4.555,0.024,9.103,0,13.649c-0.023,3.258-1.222,4.456-4.479,4.493
		c-2.793,0.029-5.594,0.049-8.381-0.014c-2.549-0.049-4.059-1.436-4.07-3.997c-0.062-9.499-0.049-18.998,0.007-28.496
		c0.012-2.207,1.405-3.533,3.655-3.595c3.189-0.079,6.388-0.085,9.57,0c2.402,0.067,3.662,1.492,3.688,4.077
		C290.339,216.996,290.308,221.624,290.308,226.25z"/>
	<path d="M340.553,229.692c0,3.435,0.03,6.871-0.013,10.306c-0.03,3.075-1.29,4.34-4.376,4.39c-2.801,0.049-5.595,0.049-8.388,0
		c-2.892-0.056-4.229-1.217-4.261-4.011c-0.073-7.103-0.066-14.211,0.007-21.319c0.03-2.537,1.369-3.857,3.875-3.949
		c3.025-0.11,6.069-0.104,9.103-0.006c2.701,0.079,4.01,1.51,4.04,4.291C340.589,222.828,340.553,226.263,340.553,229.692z"/>
	<path d="M214.299,356.71c-4.547,0-9.095,0.029-13.649-0.007c-3.038-0.03-4.591-1.339-4.528-3.704
		c0.055-2.299,1.552-3.563,4.442-3.569c9.182-0.03,18.362-0.03,27.537,0c2.75,0.007,4.456,1.437,4.48,3.601
		c0.023,2.183-1.657,3.644-4.396,3.668C223.56,356.739,218.927,356.703,214.299,356.71z"/>
	<path d="M214.214,311.258c-4.236,0.006-8.472,0.006-12.708,0c-0.556,0-1.119,0.029-1.675-0.024
		c-2.194-0.231-3.687-1.718-3.71-3.668c-0.024-2.054,1.325-3.563,3.673-3.582c9.59-0.079,19.181-0.079,28.771-0.019
		c2.316,0.019,3.991,1.705,4.017,3.644c0.023,2.048-1.7,3.606-4.225,3.631C223.646,311.301,218.927,311.258,214.214,311.258z"/>
	<path d="M214.189,326.697c4.621,0,9.242-0.019,13.863,0c2.616,0.019,4.462,1.51,4.53,3.601c0.061,2.164-1.657,3.644-4.383,3.648
		c-9.242,0.024-18.49,0.024-27.732,0c-2.653-0.006-4.364-1.516-4.346-3.704c0.012-2.213,1.638-3.526,4.438-3.545
		C205.1,326.679,209.642,326.697,214.189,326.697z"/>
	<path d="M250.932,193.103c-0.062,3.446-3.014,6.191-6.589,6.143c-3.613-0.055-6.479-3.02-6.4-6.62
		c0.073-3.558,3.166-6.516,6.663-6.388C247.961,186.367,250.993,189.661,250.932,193.103z"/>
	<path d="M228.242,270.725c3.446,0.227,5.965,2.971,5.787,6.333c-0.171,3.331-3.318,6.216-6.527,5.989
		c-3.197-0.227-5.979-3.295-5.825-6.448C221.842,273.2,224.855,270.505,228.242,270.725z"/>
	<path d="M254.513,250.499c2.531-0.037,4.707,2.14,4.719,4.706c0.019,2.557-2.177,4.78-4.683,4.756
		c-2.359-0.019-4.633-2.407-4.658-4.884C249.874,252.736,252.099,250.535,254.513,250.499z"/>
	<path d="M227.869,176.367c0.055,2.023-1.485,3.655-3.502,3.723c-2.036,0.067-3.667-1.454-3.729-3.478
		c-0.055-1.993,1.51-3.662,3.515-3.747C226.182,172.779,227.814,174.319,227.869,176.367z"/>
	<path d="M195.32,288.53c0.037,1.84-1.547,3.472-3.453,3.558c-1.907,0.093-3.698-1.602-3.766-3.539
		c-0.074-1.949,1.595-3.66,3.582-3.674C193.578,284.857,195.277,286.557,195.32,288.53z"/>
</g>
<g>
	<path fill="#FFFFFF" d="M181.963,157.132c0.465-0.946,0.764-1.595,1.094-2.225c4.419-8.46,11.345-13.104,20.948-13.118
		c45.312-0.061,90.63-0.049,135.94-0.012c13.398,0.006,23.394,10.086,23.417,23.605c0.056,29.651,0.019,59.304,0.019,88.955
		c0,7.029-0.006,14.064-0.006,21.101c0,0.855,0,1.712,0,2.837c1.606,0,2.939,0,4.285,0c8.563,0.03,13.403,4.815,13.409,13.343
		c0.025,16.864,0.008,33.729,0.008,50.587c0,5.917,0.023,11.834,0,17.745c-0.043,7.958-5.116,12.982-13.111,12.964
		c-54.426-0.121-108.852-0.243-163.271-0.402c-11.962-0.036-20.886-6.992-23.232-18.117c-0.446-2.091-0.515-4.285-0.515-6.438
		c-0.023-52.506-0.029-105.012,0.024-157.518c0-2.226-0.586-3.918-2.011-5.624c-6.144-7.359-12.151-14.835-18.246-22.231
		c-1.742-2.121-2.763-4.456-2.727-7.23c0.062-4.347,2.445-7.91,6.271-9.311c4.095-1.504,8.496-0.402,11.29,2.965
		C177.697,151.582,179.708,154.259,181.963,157.132z M355.704,278.275c0-1.102,0-1.883,0-2.665c0-36.516,0-73.038-0.007-109.554
		c-0.007-10.728-6.277-17.018-16.949-17.023c-26.768-0.006-53.533,0-80.307,0c-18.142,0-36.276-0.031-54.413,0.018
		c-8.281,0.024-15.066,5.96-15.604,13.595c-0.073,1.002,0.214,2.279,0.819,3.044c4.053,5.146,8.228,10.202,12.401,15.25
		c0.421,0.507,1.101,1.143,1.662,1.148c7.201,0.042,12.036,4.003,16.094,9.413c1.088,1.449,2.244,3.032,3.729,3.979
		c13.313,8.49,27.537,14.468,43.558,15.22c1.9,0.092,3.539,0.886,3.862,2.598c0.251,1.346-0.195,3.271-1.069,4.315
		c-17.035,20.397-37.127,37.109-60.679,49.517c-1.381,0.733-3.6,0.666-5.134,0.122c-1.847-0.652-1.491-2.731-1.333-4.438
		c0.324-3.41,0.764-6.827,0.874-10.244c0.373-11.198-2.457-21.797-6.008-32.305c-1.749-5.171-5.825-8.545-8.79-13.552
		c-0.074,1.363-0.142,1.98-0.142,2.604c-0.006,46.589-0.023,93.166,0.012,139.756c0.007,9.835,6.425,16.138,16.267,16.155
		c15.263,0.024,30.52,0.012,45.782,0c0.752,0,1.49-0.092,2.242-0.135c-0.177-1.528-0.445-2.794-0.451-4.06
		c-0.024-23.648-0.05-47.305,0.006-70.96c0.013-6.467,5.019-11.479,11.492-11.76c1.399-0.067,2.812-0.013,4.229-0.013
		c0.062-0.862,0.104-1.34,0.109-1.811c0.135-8.318,4.878-12.995,13.196-13.014c5.759-0.013,11.505-0.024,17.263,0.007
		c7.896,0.03,12.701,4.663,12.849,12.579c0.036,1.857,0.647,2.256,2.371,2.243c10.227-0.067,20.459-0.036,30.685-0.036
		C347.99,278.275,351.651,278.275,355.704,278.275z M265.643,304.791c0.057-0.936,0.08-1.57,0.123-2.207
		c0.379-5.445,3.905-8.808,9.363-8.808c27.886-0.013,55.759-0.013,83.644,0.006c5,0,8.595,3.447,8.912,8.454
		c0.049,0.837,0.006,1.682,0.006,2.549c2.184,0,3.985,0,6.069,0c0-4.192,0.007-8.252,0-12.305c-0.012-5.501-1.411-6.901-6.98-6.901
		c-18.209,0-36.424,0-54.639,0c-1.675,0-3.362,0.073-5.031-0.036c-2.377-0.159-3.624-1.474-3.71-3.839
		c-0.066-1.919,0.024-3.839-0.043-5.752c-0.108-3.146-1.662-4.768-4.749-4.798c-6.148-0.056-12.299-0.056-18.453-0.006
		c-3.367,0.03-4.878,1.648-4.927,5.098c-0.023,1.675,0.006,3.351-0.007,5.03c-0.03,3.354-1.229,4.548-4.645,4.607
		c-2.237,0.043-4.476-0.023-6.706,0.099c-2.158,0.116-3.869,1.271-3.961,3.44c-0.202,5.074-0.062,10.173-0.062,15.367
		C261.859,304.791,263.656,304.791,265.643,304.791z M244.952,232.199c-6.132-2.243-11.21-5.184-15.508-9.37
		c-2.133-2.084-2.298-4.035-0.563-5.807c1.571-1.607,3.502-1.302,5.581,0.74c4.31,4.235,9.487,6.949,15.306,8.483
		c0.526,0.142,1.388,0.128,1.699-0.188c2.861-2.964,5.636-6.016,8.827-9.469c-14.578-1.767-27.104-7.12-38.857-14.456
		c-5.231,4.255-10.269,8.437-15.428,12.458c-1.516,1.174-1.797,2.151-1.131,3.968c4.059,11.105,6.479,22.519,6.015,34.432
		c-0.049,1.143-0.006,2.292-0.006,3.729c3.435-2.171,6.608-4.279,9.896-6.205c1.394-0.813,1.767-1.791,1.626-3.301
		c-0.563-5.832-2.408-11.186-5.617-16.094c-1.253-1.925-0.782-4.267,0.85-5.324c1.754-1.137,4.254-0.587,5.25,1.603
		c2.115,4.615,3.949,9.357,5.851,14.063c0.365,0.899,0.494,1.896,0.837,3.259C234.812,240.451,239.732,236.447,244.952,232.199z"/>
	<path fill="#FFFFFF" d="M305.459,207.303c0-8.057-0.013-16.119,0.007-24.182c0.006-3.661,1.24-4.884,4.89-4.896
		c2.477-0.013,4.945-0.013,7.421,0c3.582,0.023,4.799,1.265,4.805,4.994c0.013,11.81,0.007,23.625,0.007,35.435
		c0,4.309,0.019,8.618-0.013,12.934c-0.013,3.563-1.211,4.769-4.714,4.806c-2.476,0.029-4.95,0.018-7.426,0
		c-4.041-0.02-4.97-0.941-4.977-4.902C305.453,223.428,305.459,215.365,305.459,207.303z"/>
	<path fill="#FFFFFF" d="M298.308,218.25c0.007,4.555,0.024,9.103,0,13.649c-0.023,3.258-1.222,4.456-4.479,4.493
		c-2.793,0.029-5.594,0.049-8.381-0.014c-2.549-0.049-4.059-1.436-4.07-3.997c-0.062-9.499-0.049-18.998,0.007-28.496
		c0.012-2.207,1.405-3.533,3.655-3.595c3.189-0.079,6.388-0.085,9.57,0c2.402,0.067,3.662,1.492,3.688,4.077
		C298.339,208.996,298.308,213.624,298.308,218.25z"/>
	<path fill="#FFFFFF" d="M348.553,221.692c0,3.435,0.03,6.871-0.013,10.306c-0.03,3.075-1.29,4.34-4.376,4.39
		c-2.801,0.049-5.595,0.049-8.388,0c-2.892-0.056-4.229-1.217-4.261-4.011c-0.073-7.103-0.066-14.211,0.007-21.319
		c0.03-2.537,1.369-3.857,3.875-3.949c3.025-0.11,6.069-0.104,9.103-0.006c2.701,0.079,4.01,1.51,4.04,4.291
		C348.589,214.828,348.553,218.263,348.553,221.692z"/>
	<path fill="#FFFFFF" d="M222.299,348.71c-4.547,0-9.095,0.029-13.649-0.007c-3.038-0.03-4.591-1.339-4.528-3.704
		c0.055-2.299,1.552-3.563,4.442-3.569c9.182-0.03,18.362-0.03,27.537,0c2.75,0.007,4.456,1.437,4.48,3.601
		c0.023,2.183-1.657,3.644-4.396,3.668C231.56,348.739,226.927,348.703,222.299,348.71z"/>
	<path fill="#FFFFFF" d="M222.214,303.258c-4.236,0.006-8.472,0.006-12.708,0c-0.556,0-1.119,0.029-1.675-0.024
		c-2.194-0.231-3.687-1.718-3.71-3.668c-0.024-2.054,1.325-3.563,3.673-3.582c9.59-0.079,19.181-0.079,28.771-0.019
		c2.316,0.019,3.991,1.705,4.017,3.644c0.023,2.048-1.7,3.606-4.225,3.631C231.646,303.301,226.927,303.258,222.214,303.258z"/>
	<path fill="#FFFFFF" d="M222.189,318.697c4.621,0,9.242-0.019,13.863,0c2.616,0.019,4.462,1.51,4.53,3.601
		c0.061,2.164-1.657,3.644-4.383,3.648c-9.242,0.024-18.49,0.024-27.732,0c-2.653-0.006-4.364-1.516-4.346-3.704
		c0.012-2.213,1.638-3.526,4.438-3.545C213.1,318.679,217.642,318.697,222.189,318.697z"/>
	<path fill="#FFFFFF" d="M258.932,185.103c-0.062,3.446-3.014,6.191-6.589,6.143c-3.613-0.055-6.479-3.02-6.4-6.62
		c0.073-3.558,3.166-6.516,6.663-6.388C255.961,178.367,258.993,181.661,258.932,185.103z"/>
	<path fill="#FFFFFF" d="M236.242,262.725c3.446,0.227,5.965,2.971,5.787,6.333c-0.171,3.331-3.318,6.216-6.527,5.989
		c-3.197-0.227-5.979-3.295-5.825-6.448C229.842,265.2,232.855,262.505,236.242,262.725z"/>
	<path fill="#FFFFFF" d="M262.513,242.499c2.531-0.037,4.707,2.14,4.719,4.706c0.019,2.557-2.177,4.78-4.683,4.756
		c-2.359-0.019-4.633-2.407-4.658-4.884C257.874,244.736,260.099,242.535,262.513,242.499z"/>
	<path fill="#FFFFFF" d="M235.869,168.367c0.055,2.023-1.485,3.655-3.502,3.723c-2.036,0.067-3.667-1.454-3.729-3.478
		c-0.055-1.993,1.51-3.662,3.515-3.747C234.182,164.779,235.814,166.319,235.869,168.367z"/>
	<path fill="#FFFFFF" d="M203.32,280.53c0.037,1.84-1.547,3.472-3.453,3.558c-1.907,0.093-3.698-1.602-3.766-3.539
		c-0.074-1.949,1.595-3.66,3.582-3.674C201.578,276.857,203.277,278.557,203.32,280.53z"/>
</g>
</svg>
