<?xml version="1.0" encoding="utf-8"?>
<!-- Generator: Adobe Illustrator 16.0.0, SVG Export Plug-In . SVG Version: 6.00 Build 0)  -->
<!DOCTYPE svg PUBLIC "-//W3C//DTD SVG 1.1//EN" "http://www.w3.org/Graphics/SVG/1.1/DTD/svg11.dtd">
<svg version="1.1" id="Layer_1" xmlns="http://www.w3.org/2000/svg" xmlns:xlink="http://www.w3.org/1999/xlink" x="0px" y="0px"
	 width="512px" height="512px" viewBox="0 0 512 512" enable-background="new 0 0 512 512" xml:space="preserve">
<g>
	<g>
		
			<linearGradient id="SVGID_1_" gradientUnits="userSpaceOnUse" x1="75.1228" y1="403.5388" x2="391.1957" y2="87.4658" gradientTransform="matrix(1 0 0 -1 24.9448 503.3589)">
			<stop  offset="0" style="stop-color:#00C9FF"/>
			<stop  offset="1" style="stop-color:#0091FF"/>
		</linearGradient>
		<path fill="url(#SVGID_1_)" d="M480.701,255.455c0,124.262-100.732,225-224.999,225c-124.268,0-225-100.738-225-225
			c0-124.267,100.732-225,225-225C379.969,30.455,480.701,131.188,480.701,255.455z"/>
		
			<linearGradient id="SVGID_2_" gradientUnits="userSpaceOnUse" x1="124.8098" y1="431.4099" x2="336.7031" y2="64.3997" gradientTransform="matrix(1 0 0 -1 24.9448 503.3589)">
			<stop  offset="0" style="stop-color:#0091FF"/>
			<stop  offset="0.4483" style="stop-color:#0093FF"/>
			<stop  offset="1" style="stop-color:#00C9FF"/>
		</linearGradient>
		<circle fill="url(#SVGID_2_)" cx="255.702" cy="255.455" r="211.858"/>
	</g>
</g>
<g opacity="0.6">
	<path d="M264.144,312.619c-2.457-0.477-4.915-1.382-7.358-1.369c-11.614,0.05-23.131,0.013-34.279-4.218
		c-30.177-11.455-50.721-44.083-48.362-77.745c2.262-32.188,16.663-56.571,47.029-69.621c6.857-2.945,14.78-4.547,22.262-4.712
		c25.35-0.581,50.733-0.795,76.088-0.098c31.87,0.868,58.411,23.973,66.811,56.852c9.046,35.422-5.208,72.391-35.222,90.067
		c-5.989,3.521-12.842,5.795-19.547,7.813c-3.361,1.015-4.414,2.226-4.315,5.531c0.208,6.485,0.653,13.057-0.184,19.433
		c-0.452,3.416-2.652,8.02-5.392,9.333c-3.001,1.449-8.264,0.966-11.259-0.825c-12.457-7.438-24.427-15.69-37.317-24.132
		c0.264,1.857,0.459,3.008,0.594,4.163c0.733,6.265-3.46,12.304-9.548,11.412c-13.215-1.921-22.867,4.442-32.774,11.394
		c-9.64,6.76-19.737,12.866-29.535,19.4c-4.254,2.837-8.417,5.188-13.625,2.556c-5.605-2.837-5.605-7.971-5.532-13.203
		c0.067-5.502,0.293-11.027-0.159-16.504c-0.146-1.645-2.072-4.12-3.625-4.523c-33.576-8.875-56.19-37.103-57.377-71.998
		c-1.063-31.596,10.605-56.613,38.021-73.466c1.662-1.015,3.435-1.907,5.237-2.659c6.01-2.5,12.036-0.324,14.396,5.104
		c2.298,5.293,0.22,10.917-5.587,13.668c-32.818,15.524-40.794,59.145-21.138,87.518c9.657,13.919,22.873,21.762,40.013,22.58
		c7.028,0.33,10.61,4.119,10.781,11.277c0.099,4.285,0.013,8.563,0.013,14.028c7.628-4.964,14.815-8.938,21.191-13.938
		c11.657-9.145,24.188-14.353,39.493-10.61C264.003,314.287,264.07,313.45,264.144,312.619z M306.564,316.104
		c0-5.159-0.024-8.876,0.006-12.58c0.093-9.499,2.599-12.396,11.926-13.117c9.218-0.703,17.665-3.35,25.317-8.605
		c25.366-17.422,32.2-55.93,14.499-82.665c-9.73-14.707-23.265-23.368-41.138-23.625c-23.777-0.337-47.573-0.178-71.356-0.031
		c-10.525,0.061-20.092,3.447-28.387,9.97c-17.604,13.838-24.193,32.438-22.298,54.181c2.262,25.888,22.433,51.314,53.496,50.851
		c3.937-0.063,7.952-0.525,11.771,0.122c4.476,0.771,9.255,1.748,13.068,4.034C284.363,301.177,294.84,308.421,306.564,316.104z"/>
	<path d="M243.214,245.296c-8.136,0.063-14.23-5.854-14.303-13.898c-0.085-8.191,6.405-14.816,14.352-14.67
		c7.689,0.146,14.23,6.771,14.23,14.413C257.48,238.927,251.112,245.247,243.214,245.296z"/>
	<path d="M334.271,230.944c0.092,8.081-5.85,14.229-13.898,14.376c-8.1,0.146-14.358-5.733-14.566-13.71
		c-0.22-8.124,6.204-14.859,14.188-14.884C327.719,216.702,334.187,223.145,334.271,230.944z"/>
	<path d="M295.745,231.201c-0.024,7.989-6.149,14.12-14.12,14.132c-7.946,0.013-14.254-6.125-14.4-13.992
		c-0.146-7.879,6.711-14.773,14.535-14.614C289.541,216.873,295.77,223.328,295.745,231.201z"/>
</g>
<g>
	<path fill="#FFFFFF" d="M274.144,302.619c-2.457-0.477-4.915-1.382-7.358-1.369c-11.614,0.05-23.131,0.013-34.279-4.218
		c-30.177-11.455-50.721-44.083-48.362-77.745c2.262-32.188,16.663-56.571,47.029-69.621c6.857-2.945,14.78-4.547,22.262-4.712
		c25.35-0.581,50.733-0.795,76.088-0.098c31.87,0.868,58.411,23.973,66.811,56.852c9.046,35.422-5.208,72.391-35.222,90.067
		c-5.989,3.521-12.842,5.795-19.547,7.813c-3.361,1.015-4.414,2.226-4.315,5.531c0.208,6.485,0.653,13.057-0.184,19.433
		c-0.452,3.416-2.652,8.02-5.392,9.333c-3.001,1.449-8.264,0.966-11.259-0.825c-12.457-7.438-24.427-15.69-37.317-24.132
		c0.264,1.857,0.459,3.008,0.594,4.163c0.733,6.265-3.46,12.304-9.548,11.412c-13.215-1.921-22.867,4.442-32.774,11.394
		c-9.64,6.76-19.737,12.866-29.535,19.4c-4.254,2.837-8.417,5.188-13.625,2.556c-5.605-2.837-5.605-7.971-5.532-13.203
		c0.067-5.502,0.293-11.027-0.159-16.504c-0.146-1.645-2.072-4.12-3.625-4.523c-33.576-8.875-56.19-37.103-57.377-71.998
		c-1.063-31.596,10.605-56.613,38.021-73.466c1.662-1.015,3.435-1.907,5.237-2.659c6.01-2.5,12.036-0.324,14.396,5.104
		c2.298,5.293,0.22,10.917-5.587,13.668c-32.818,15.524-40.794,59.145-21.138,87.518c9.657,13.919,22.873,21.762,40.013,22.58
		c7.028,0.33,10.61,4.119,10.781,11.277c0.099,4.285,0.013,8.563,0.013,14.028c7.628-4.964,14.815-8.938,21.191-13.938
		c11.657-9.145,24.188-14.353,39.493-10.61C274.003,304.287,274.07,303.45,274.144,302.619z M316.564,306.104
		c0-5.159-0.024-8.876,0.006-12.58c0.093-9.499,2.599-12.396,11.926-13.117c9.218-0.703,17.665-3.35,25.317-8.605
		c25.366-17.422,32.2-55.93,14.499-82.665c-9.73-14.707-23.265-23.368-41.138-23.625c-23.777-0.337-47.573-0.178-71.356-0.031
		c-10.525,0.061-20.092,3.447-28.387,9.97c-17.604,13.838-24.193,32.438-22.298,54.181c2.262,25.888,22.433,51.314,53.496,50.851
		c3.937-0.063,7.952-0.525,11.771,0.122c4.476,0.771,9.255,1.748,13.068,4.034C294.363,291.177,304.84,298.421,316.564,306.104z"/>
	<path fill="#FFFFFF" d="M253.214,235.296c-8.136,0.063-14.23-5.854-14.303-13.898c-0.085-8.191,6.405-14.816,14.352-14.67
		c7.689,0.146,14.23,6.771,14.23,14.413C267.48,228.927,261.112,235.247,253.214,235.296z"/>
	<path fill="#FFFFFF" d="M344.271,220.944c0.092,8.081-5.85,14.229-13.898,14.376c-8.1,0.146-14.358-5.733-14.566-13.71
		c-0.22-8.124,6.204-14.859,14.188-14.884C337.719,206.702,344.187,213.145,344.271,220.944z"/>
	<path fill="#FFFFFF" d="M305.745,221.201c-0.024,7.989-6.149,14.12-14.12,14.132c-7.946,0.013-14.254-6.125-14.4-13.992
		c-0.146-7.879,6.711-14.773,14.535-14.614C299.541,206.873,305.77,213.328,305.745,221.201z"/>
</g>
</svg>
