<?xml version="1.0" encoding="utf-8"?>
<!-- Generator: Adobe Illustrator 16.0.0, SVG Export Plug-In . SVG Version: 6.00 Build 0)  -->
<!DOCTYPE svg PUBLIC "-//W3C//DTD SVG 1.1//EN" "http://www.w3.org/Graphics/SVG/1.1/DTD/svg11.dtd">
<svg version="1.1" id="Layer_1" xmlns="http://www.w3.org/2000/svg" xmlns:xlink="http://www.w3.org/1999/xlink" x="0px" y="0px"
	 width="512px" height="512px" viewBox="0 0 512 512" enable-background="new 0 0 512 512" xml:space="preserve">
<g>
	<g>
		
			<linearGradient id="SVGID_1_" gradientUnits="userSpaceOnUse" x1="76.3264" y1="402.8464" x2="392.3991" y2="86.7738" gradientTransform="matrix(1 0 0 -1 24.9448 503.3589)">
			<stop  offset="0" style="stop-color:#0091FF"/>
			<stop  offset="0.505" style="stop-color:#0087FF"/>
			<stop  offset="1" style="stop-color:#4501EE"/>
		</linearGradient>
		<path fill="url(#SVGID_1_)" d="M481.906,256.147c0,124.261-100.732,225-225,225c-124.267,0-225-100.739-225-225
			c0-124.265,100.733-225,225-225C381.173,31.147,481.906,131.884,481.906,256.147z"/>
		
			<linearGradient id="SVGID_2_" gradientUnits="userSpaceOnUse" x1="126.0139" y1="430.7166" x2="337.9099" y2="63.7019" gradientTransform="matrix(1 0 0 -1 24.9448 503.3589)">
			<stop  offset="0" style="stop-color:#0023FF"/>
			<stop  offset="1" style="stop-color:#007AFF"/>
		</linearGradient>
		<path fill="url(#SVGID_2_)" d="M468.765,256.147c0,117.011-94.854,211.864-211.857,211.864
			c-117.005,0-211.859-94.854-211.859-211.864c0-117.005,94.854-211.858,211.857-211.858
			C373.91,44.289,468.765,139.143,468.765,256.147z"/>
	</g>
</g>
<g opacity="0.6">
	<g>
		<path d="M348.288,248.874c0,31.187-0.11,62.372,0.098,93.552c0.024,4.927-5.245,10.141-9.768,10.402
			c-0.575,0.037-1.162,0.05-1.749,0.05c-49.561,0-99.119,0-148.691,0c-5.184,0-9.548-2.886-11.137-7.738
			c-0.587-1.821-0.478-3.905-0.55-5.874c-0.013-0.227,0.807-0.69,1.246-0.703c3.252-0.061,6.505,0.043,9.744-0.055
			c5.429-0.165,9.902-2.263,12.372-7.28c2.604-5.287,2.42-10.66-0.917-15.629c-2.812-4.175-7.09-5.691-11.956-5.758
			c-3.104-0.043-6.197-0.043-9.303,0.006c-0.929,0.012-1.284-0.257-1.284-1.234c0.037-6.357,0.037-12.702,0-19.06
			c-0.012-1.075,0.453-1.283,1.395-1.271c3.386,0.03,6.784,0.079,10.183-0.019c6.125-0.179,10.966-3.724,12.787-9.262
			c1.993-5.989,0.245-12.658-4.315-16.282c-2.555-2.046-5.524-2.995-8.776-3.038c-3.203-0.043-6.395-0.089-9.598,0.019
			c-1.418,0.049-1.687-0.465-1.675-1.745c0.049-6.061,0.049-12.125-0.012-18.188c0-1.241,0.293-1.696,1.613-1.663
			c3.301,0.089,6.613,0.152,9.901-0.017c5.99-0.312,10.429-3.056,12.689-8.805c2.115-5.385,0.746-12.143-3.203-15.947
			c-2.897-2.777-6.442-3.859-10.354-3.902c-3.056-0.031-6.111-0.059-9.168,0.018c-1.174,0.027-1.479-0.376-1.467-1.498
			c0.037-6.207,0.037-12.415,0-18.625c-0.012-1.066,0.318-1.437,1.418-1.415c3.337,0.052,6.688,0.122,10.024-0.026
			c5.892-0.264,10.439-2.853,12.58-8.5c2.114-5.591,1.552-11.019-2.52-15.676c-2.714-3.096-6.333-4.367-10.391-4.429
			c-3.252-0.046-6.504-0.046-9.755,0.003c-0.99,0.02-1.296-0.281-1.369-1.302c-0.343-5.086,1.577-8.97,5.917-11.647
			c1.736-1.078,3.655-1.408,5.697-1.408c40.257,0.019,80.514,0.013,120.758,0.013c9.512,0,19.021-0.003,28.521,0.003
			c4.72,0.003,9.021,2.937,10.66,7.378c0.317,0.831,0.33,1.803,0.33,2.711C348.288,186.315,348.288,217.594,348.288,248.874z
			 M302.432,300.127c0.894-0.237,2.702-0.477,4.291-1.223c6.442-3.014,10.832-8.16,14.279-14.23
			c2.041-3.604,1.956-7.212,0.012-10.817c-0.257-0.495-0.563-1.052-1.015-1.357c-3.814-2.665-7.628-5.33-11.504-7.896
			c-2.909-1.914-5.794-3.922-8.899-5.45c-3.068-1.51-6.394-0.474-8.729,2.018c-0.855,0.92-1.785,1.782-2.738,2.602
			c-1.491,1.284-3.276,1.675-5,0.752c-1.418-0.752-2.813-1.768-3.839-2.982c-4.205-4.958-8.337-9.976-12.348-15.08
			c-4.4-5.604-8.668-11.316-12.935-17.022c-1.821-2.437-1.724-4.479,0.342-6.681c1.149-1.223,2.604-2.154,3.875-3.279
			c0.917-0.822,1.98-1.617,2.579-2.653c1.577-2.734,1.59-5.647,0.306-8.53c-2.565-5.804-5.194-11.586-7.737-17.407
			c-1.858-4.23-4.634-5.834-9.205-5.383c-5.771,0.578-10.44,3.305-14.633,7.112c-4.523,4.103-6.455,9.175-6.027,15.232
			c0.33,4.746,1.614,9.251,3.313,13.651c3.289,8.496,7.727,16.395,12.616,24.046c7.054,11.049,14.499,21.807,23.802,31.135
			c7.983,8.013,16.677,15.098,26.933,20.061C293.765,298.477,297.456,299.943,302.432,300.127z"/>
		<path d="M176.295,180.774c-3.484,0-6.968,0.028-10.464-0.006c-4.523-0.046-7.312-2.745-7.335-7.029
			c-0.013-4.028,3.251-7.277,7.444-7.295c7.177-0.027,14.34-0.046,21.504,0.028c3.509,0.035,6.149,2.433,6.772,5.846
			c0.611,3.337-1.027,6.641-4.071,7.867c-0.99,0.402-2.164,0.41-3.252,0.587c-0.085,0.019-0.183,0.003-0.281,0.003
			C183.166,180.774,179.73,180.774,176.295,180.774z"/>
		<path d="M176.295,281.142c-3.496,0-6.968,0.023-10.464-0.014c-4.523-0.036-7.323-2.731-7.335-7.017
			c-0.013-4.034,3.264-7.286,7.457-7.299c7.114-0.024,14.229-0.036,21.345,0.013c3.497,0.024,6.076,2.2,6.857,5.587
			c0.733,3.229-0.721,6.626-3.618,7.946c-1.102,0.513-2.42,0.537-3.644,0.782c-0.085,0.019-0.196,0-0.281,0
			C183.166,281.142,179.73,281.142,176.295,281.142z"/>
		<path d="M176.344,230.894c-3.777,0.003-7.567,0.141-11.345-0.036c-4.217-0.199-6.785-3.313-6.491-7.513
			c0.244-3.539,3.289-6.676,6.858-6.718c7.42-0.095,14.841-0.106,22.261,0.003c3.813,0.062,6.638,3.219,6.699,7.069
			c0.049,3.985-2.507,6.965-6.491,7.152C184.021,231.034,180.183,230.891,176.344,230.894z"/>
		<path d="M176.283,331.324c-3.398,0-6.785,0.025-10.184-0.006c-4.792-0.036-7.628-2.684-7.604-7.072
			c0.012-4.125,3.361-7.262,7.812-7.268c6.933-0.006,13.863-0.03,20.794,0.013c3.325,0.02,5.856,1.876,6.858,4.878
			c0.966,2.903,0.023,6.204-2.286,8.025c-1.442,1.137-3.142,1.43-4.927,1.43C183.263,331.324,179.767,331.324,176.283,331.324z"/>
	</g>
</g>
<g>
	<g>
		<path fill="#FFFFFF" d="M358.288,238.874c0,31.187-0.11,62.372,0.098,93.552c0.024,4.927-5.245,10.141-9.768,10.402
			c-0.575,0.037-1.162,0.05-1.749,0.05c-49.561,0-99.119,0-148.691,0c-5.184,0-9.548-2.886-11.137-7.738
			c-0.587-1.821-0.478-3.905-0.55-5.874c-0.013-0.227,0.807-0.69,1.246-0.703c3.252-0.061,6.505,0.043,9.744-0.055
			c5.429-0.165,9.902-2.263,12.372-7.28c2.604-5.287,2.42-10.66-0.917-15.629c-2.812-4.175-7.09-5.691-11.956-5.758
			c-3.104-0.043-6.197-0.043-9.303,0.006c-0.929,0.012-1.284-0.257-1.284-1.234c0.037-6.357,0.037-12.702,0-19.06
			c-0.012-1.075,0.453-1.283,1.395-1.271c3.386,0.03,6.784,0.079,10.183-0.019c6.125-0.179,10.966-3.724,12.787-9.262
			c1.993-5.989,0.245-12.658-4.315-16.282c-2.555-2.046-5.524-2.995-8.776-3.038c-3.203-0.043-6.395-0.089-9.598,0.019
			c-1.418,0.049-1.687-0.465-1.675-1.745c0.049-6.061,0.049-12.125-0.012-18.188c0-1.241,0.293-1.696,1.613-1.663
			c3.301,0.089,6.613,0.152,9.901-0.017c5.99-0.312,10.429-3.056,12.689-8.805c2.115-5.385,0.746-12.143-3.203-15.947
			c-2.897-2.777-6.442-3.859-10.354-3.902c-3.056-0.031-6.111-0.059-9.168,0.018c-1.174,0.027-1.479-0.376-1.467-1.498
			c0.037-6.207,0.037-12.415,0-18.625c-0.012-1.066,0.318-1.437,1.418-1.415c3.337,0.052,6.688,0.122,10.024-0.026
			c5.892-0.264,10.439-2.853,12.58-8.5c2.114-5.591,1.552-11.019-2.52-15.676c-2.714-3.096-6.333-4.367-10.391-4.429
			c-3.252-0.046-6.504-0.046-9.755,0.003c-0.99,0.02-1.296-0.281-1.369-1.302c-0.343-5.086,1.577-8.97,5.917-11.647
			c1.736-1.078,3.655-1.408,5.697-1.408c40.257,0.019,80.514,0.013,120.758,0.013c9.512,0,19.021-0.003,28.521,0.003
			c4.72,0.003,9.021,2.937,10.66,7.378c0.317,0.831,0.33,1.803,0.33,2.711C358.288,176.315,358.288,207.594,358.288,238.874z
			 M312.432,290.127c0.894-0.237,2.702-0.477,4.291-1.223c6.442-3.014,10.832-8.16,14.279-14.23
			c2.041-3.604,1.956-7.212,0.012-10.817c-0.257-0.495-0.563-1.052-1.015-1.357c-3.814-2.665-7.628-5.33-11.504-7.896
			c-2.909-1.914-5.794-3.922-8.899-5.45c-3.068-1.51-6.394-0.474-8.729,2.018c-0.855,0.92-1.785,1.782-2.738,2.602
			c-1.491,1.284-3.276,1.675-5,0.752c-1.418-0.752-2.813-1.768-3.839-2.982c-4.205-4.958-8.337-9.976-12.348-15.08
			c-4.4-5.604-8.668-11.316-12.935-17.022c-1.821-2.437-1.724-4.479,0.342-6.681c1.149-1.223,2.604-2.154,3.875-3.279
			c0.917-0.822,1.98-1.617,2.579-2.653c1.577-2.734,1.59-5.647,0.306-8.53c-2.565-5.804-5.194-11.586-7.737-17.407
			c-1.858-4.23-4.634-5.834-9.205-5.383c-5.771,0.578-10.44,3.305-14.633,7.112c-4.523,4.103-6.455,9.175-6.027,15.232
			c0.33,4.746,1.614,9.251,3.313,13.651c3.289,8.496,7.727,16.395,12.616,24.046c7.054,11.049,14.499,21.807,23.802,31.135
			c7.983,8.013,16.677,15.098,26.933,20.061C303.765,288.477,307.456,289.943,312.432,290.127z"/>
		<path fill="#FFFFFF" d="M186.295,170.774c-3.484,0-6.968,0.028-10.464-0.006c-4.523-0.046-7.312-2.745-7.335-7.029
			c-0.013-4.028,3.251-7.277,7.444-7.295c7.177-0.027,14.34-0.046,21.504,0.028c3.509,0.035,6.149,2.433,6.772,5.846
			c0.611,3.337-1.027,6.641-4.071,7.867c-0.99,0.402-2.164,0.41-3.252,0.587c-0.085,0.019-0.183,0.003-0.281,0.003
			C193.166,170.774,189.73,170.774,186.295,170.774z"/>
		<path fill="#FFFFFF" d="M186.295,271.142c-3.496,0-6.968,0.023-10.464-0.014c-4.523-0.036-7.323-2.731-7.335-7.017
			c-0.013-4.034,3.264-7.286,7.457-7.299c7.114-0.024,14.229-0.036,21.345,0.013c3.497,0.024,6.076,2.2,6.857,5.587
			c0.733,3.229-0.721,6.626-3.618,7.946c-1.102,0.513-2.42,0.537-3.644,0.782c-0.085,0.019-0.196,0-0.281,0
			C193.166,271.142,189.73,271.142,186.295,271.142z"/>
		<path fill="#FFFFFF" d="M186.344,220.894c-3.777,0.003-7.567,0.141-11.345-0.036c-4.217-0.199-6.785-3.313-6.491-7.513
			c0.244-3.539,3.289-6.676,6.858-6.718c7.42-0.095,14.841-0.106,22.261,0.003c3.813,0.062,6.638,3.219,6.699,7.069
			c0.049,3.985-2.507,6.965-6.491,7.152C194.021,221.034,190.183,220.891,186.344,220.894z"/>
		<path fill="#FFFFFF" d="M186.283,321.324c-3.398,0-6.785,0.025-10.184-0.006c-4.792-0.036-7.628-2.684-7.604-7.072
			c0.012-4.125,3.361-7.262,7.812-7.268c6.933-0.006,13.863-0.03,20.794,0.013c3.325,0.02,5.856,1.876,6.858,4.878
			c0.966,2.903,0.023,6.204-2.286,8.025c-1.442,1.137-3.142,1.43-4.927,1.43C193.263,321.324,189.767,321.324,186.283,321.324z"/>
	</g>
</g>
</svg>
