<?xml version="1.0" encoding="utf-8"?>
<!-- Generator: Adobe Illustrator 16.0.0, SVG Export Plug-In . SVG Version: 6.00 Build 0)  -->
<!DOCTYPE svg PUBLIC "-//W3C//DTD SVG 1.1//EN" "http://www.w3.org/Graphics/SVG/1.1/DTD/svg11.dtd">
<svg version="1.1" id="Layer_1" xmlns="http://www.w3.org/2000/svg" xmlns:xlink="http://www.w3.org/1999/xlink" x="0px" y="0px"
	 width="512px" height="512px" viewBox="0 0 512 512" enable-background="new 0 0 512 512" xml:space="preserve">
<g>
	<g>
		
			<linearGradient id="SVGID_1_" gradientUnits="userSpaceOnUse" x1="75.1897" y1="403.5408" x2="391.2628" y2="87.4676" gradientTransform="matrix(1 0 0 -1 24.9448 503.3589)">
			<stop  offset="0" style="stop-color:#00C9FF"/>
			<stop  offset="1" style="stop-color:#0091FF"/>
		</linearGradient>
		<path fill="url(#SVGID_1_)" d="M480.771,255.455c0,124.262-100.732,225-225,225c-124.267,0-225-100.738-225-225
			c0-124.267,100.733-225,225-225C380.038,30.455,480.771,131.188,480.771,255.455z"/>
		
			<linearGradient id="SVGID_2_" gradientUnits="userSpaceOnUse" x1="124.8792" y1="431.4089" x2="336.7723" y2="64.3991" gradientTransform="matrix(1 0 0 -1 24.9448 503.3589)">
			<stop  offset="0" style="stop-color:#0091FF"/>
			<stop  offset="0.4483" style="stop-color:#0093FF"/>
			<stop  offset="1" style="stop-color:#00C9FF"/>
		</linearGradient>
		<circle fill="url(#SVGID_2_)" cx="255.771" cy="255.455" r="211.858"/>
	</g>
</g>
<g opacity="0.6">
	<path d="M375.294,196.506c5.696-2.817,11.24-3.93,17.084-2.372c15.165,4.065,22.022,20.581,14.155,34.407
		c-8.69,15.257-17.4,30.521-26.41,45.587c-3.351,5.6-5.074,11.112-4.964,17.787c0.372,23.051,0.128,46.118,0.121,69.169
		c-0.006,9.364-5.689,14.993-15.128,14.993c-70.043,0.007-140.079,0.014-210.123,0.014c-8.716,0-14.608-5.888-14.608-14.651
		c-0.012-70.336-0.019-140.66-0.012-210.99c0-8.16,6.015-14.242,14.162-14.242c70.526-0.006,141.046-0.006,211.564,0.013
		c8.191,0.006,14.145,6.026,14.15,14.241C375.313,165.639,375.294,180.815,375.294,196.506z M144.664,182.613
		c0,1.253,0,2.207,0,3.16c-0.013,58.044-0.013,116.088-0.024,174.125c0,5.667,1.265,6.95,6.932,6.95
		c69.384,0.013,138.76,0,208.137,0c4.847,0,6.339-1.504,6.351-6.382c0.006-19.7,0-39.4-0.012-59.096c0-0.52-0.056-1.033-0.122-2.193
		c-0.777,1.19-1.205,1.791-1.571,2.427c-4.762,8.221-9.419,16.516-14.328,24.646c-1.074,1.76-2.865,3.287-4.663,4.369
		c-3.202,1.913-6.705,3.319-9.987,5.116c-1.101,0.605-2.146,1.596-2.824,2.665c-1.955,3.068-3.624,6.326-5.586,9.401
		c-3.101,4.865-8.827,7.278-14.176,6.153c-5.831-1.229-10.152-5.652-11.124-11.453c-0.171-1.021-0.208-2.061-0.33-3.319
		c-1.229,0-2.359,0-3.496,0c-15.185,0-30.367,0.006-45.551-0.012c-4.731-0.008-6.149-1.449-6.155-6.224
		c-0.024-17.293-0.024-34.591-0.024-51.889c0-5.08,1.438-6.485,6.511-6.485c23.918,0.006,47.854-0.013,71.771,0.036
		c1.62,0.006,2.574-0.403,3.417-1.87c12.372-21.564,24.805-43.099,37.213-64.64c0.422-0.733,0.954-1.56,0.973-2.341
		c0.066-7.665,0.043-15.324,0.043-23.148C292.164,182.613,218.606,182.613,144.664,182.613z M144.67,172.979
		c74.003,0,147.604,0,221.387,0c0-6.772,0-13.294,0-19.812c0-6.698-1.021-7.731-7.592-7.731c-60.128,0-120.263,0-180.391,0
		c-9.315,0-18.638-0.013-27.946,0.03c-3.448,0.019-5.379,1.56-5.422,4.615C144.591,157.655,144.67,165.229,144.67,172.979z
		 M321.192,284.031c-22.199,0-43.948,0-65.69,0c0,15.342,0,30.482,0,45.904c1.082,0,2.017,0,2.945,0
		c13.547,0.006,27.098-0.244,40.638,0.152c4.908,0.146,8.001-1.187,9.528-5.813c0.386-1.143,0.818-2.365,0.775-3.533
		c-0.122-3.739-0.647-7.476-0.635-11.204c0.006-2.011,0.379-4.242,1.313-5.978C313.558,297.068,317.335,290.742,321.192,284.031z
		 M384.957,247.454c-8.143-4.701-15.94-9.206-23.954-13.833c-13.063,22.635-26.082,45.178-39.193,67.886
		c2.817,1.602,5.281,3.014,7.978,4.548c11.59-20.05,23.044-39.877,34.597-59.859c2.744,1.595,5.27,3.062,7.977,4.633
		c-11.589,20.092-23.037,39.92-34.578,59.914c2.715,1.547,5.258,2.995,7.989,4.555C358.863,292.631,371.81,270.217,384.957,247.454z
		 M396.357,227.368c3.973-5.507,6.051-11.148,2.5-17.494c-2.794-4.976-7.23-7.42-12.885-7.054
		c-6.357,0.41-11.089,4.56-13.045,11.052C380.685,218.34,388.479,222.833,396.357,227.368z M318.258,310.18
		c-0.403,10.287-0.403,10.287,7.721,15.066c1.075,0.637,2.133,1.284,3.258,1.821c0.558,0.257,1.363,0.557,1.827,0.343
		c3.008-1.382,5.948-2.908,9.212-4.542C332.781,318.549,325.685,314.46,318.258,310.18z M391.871,235.474
		c-8.13-4.694-15.954-9.206-23.961-13.82c-0.832,1.479-1.511,2.671-2.25,3.979c8.136,4.683,15.96,9.206,23.911,13.797
		C390.373,238.053,391.033,236.91,391.871,235.474z M323.894,334.733c-2.763-1.583-5.226-2.988-7.952-4.554
		c-1.546,2.672-3.02,5.109-4.389,7.609c-1.437,2.646-0.85,5.153,1.424,6.517c2.293,1.376,4.787,0.722,6.4-1.84
		C320.911,340.033,322.286,337.51,323.894,334.733z"/>
	<path d="M195.673,200.797c8.734,0,17.48-0.006,26.21,0c4.175,0.007,5.783,1.577,5.789,5.703c0.012,14.59,0.019,29.182,0.012,43.784
		c-0.006,4.26-1.626,5.868-5.954,5.874c-17.572,0.018-35.14,0.018-52.714-0.006c-4.333,0-5.935-1.603-5.935-5.886
		c-0.006-14.591,0-29.182,0.012-43.784c0.006-4.114,1.62-5.686,5.794-5.686C177.812,200.791,186.742,200.791,195.673,200.797z
		 M218.234,246.831c0-12.366,0-24.505,0-36.645c-15.36,0-30.495,0-45.703,0c0,12.292,0,24.432,0,36.645
		C187.818,246.831,202.892,246.831,218.234,246.831z"/>
	<path d="M246.278,219.367c33.723,0,67.311,0,101.119,0c0,2.916,0,5.831,0,8.938c-33.637,0-67.292,0-101.119,0
		C246.278,225.394,246.278,222.545,246.278,219.367z"/>
	<path d="M347.488,200.969c0,3.067,0,5.91,0,8.905c-24.505,0-48.875,0-73.466,0c0-2.867,0-5.783,0-8.905
		C298.387,200.969,322.824,200.969,347.488,200.969z"/>
	<path d="M227.555,274.733c0,2.995,0,5.844,0,8.899c-21.394,0-42.745,0-64.291,0c0-2.916,0-5.824,0-8.899
		C184.634,274.733,205.93,274.733,227.555,274.733z"/>
	<path d="M227.562,293.248c0,3.038,0,5.887,0,8.889c-21.492,0-42.849,0-64.34,0c0-2.989,0-5.825,0-8.889
		C184.597,293.248,205.941,293.248,227.562,293.248z"/>
	<path d="M227.567,311.702c0,3.007,0,5.861,0,8.875c-21.479,0-42.842,0-64.346,0c0-2.964,0-5.807,0-8.875
		C184.572,311.702,205.936,311.702,227.567,311.702z"/>
	<path d="M227.555,330.144c0,3.044,0,5.886,0,8.894c-21.485,0-42.842,0-64.333,0c0-2.982,0-5.831,0-8.894
		C184.597,330.144,205.941,330.144,227.555,330.144z"/>
	<path d="M292.134,237.888c0,3.057,0,5.904,0,8.899c-15.271,0-30.41,0-45.789,0c0-2.848,0-5.758,0-8.899
		C261.474,237.888,276.682,237.888,292.134,237.888z"/>
	<path d="M301.633,237.827c9.101,0,18.093,0,27.311,0c0,2.903,0,5.813,0,8.924c-9.01,0-18.068,0-27.311,0
		C301.633,243.799,301.633,240.889,301.633,237.827z"/>
	<path d="M264.469,200.926c0,3.015,0,5.855,0,8.906c-6.039,0-12.029,0-18.191,0c0-2.921,0-5.831,0-8.906
		C252.305,200.926,258.222,200.926,264.469,200.926z"/>
	<path d="M172.195,154.807c0,3.001,0,5.843,0,8.894c-2.945,0-5.844,0-8.937,0c0-2.916,0-5.825,0-8.894
		C166.168,154.807,169.01,154.807,172.195,154.807z"/>
	<path d="M190.6,163.762c-3.099,0-5.948,0-8.931,0c0-2.989,0-5.838,0-8.899c2.922,0,5.832,0,8.931,0
		C190.6,157.76,190.6,160.669,190.6,163.762z"/>
	<path d="M200.19,154.776c3.032,0,5.868,0,8.881,0c0,2.965,0,5.813,0,8.894c-2.842,0-5.758,0-8.881,0
		C200.19,160.853,200.19,157.931,200.19,154.776z"/>
</g>
<g>
	<path fill="#FFFFFF" d="M383.294,189.506c5.696-2.817,11.24-3.93,17.084-2.372c15.165,4.065,22.022,20.581,14.155,34.407
		c-8.69,15.257-17.4,30.521-26.41,45.587c-3.351,5.6-5.074,11.112-4.964,17.787c0.372,23.051,0.128,46.118,0.121,69.169
		c-0.006,9.364-5.689,14.993-15.128,14.993c-70.043,0.007-140.079,0.014-210.123,0.014c-8.716,0-14.608-5.888-14.608-14.651
		c-0.012-70.336-0.019-140.66-0.012-210.99c0-8.16,6.015-14.242,14.162-14.242c70.526-0.006,141.046-0.006,211.564,0.013
		c8.191,0.006,14.145,6.026,14.15,14.241C383.313,158.639,383.294,173.815,383.294,189.506z M152.664,175.613
		c0,1.253,0,2.207,0,3.16c-0.013,58.044-0.013,116.088-0.024,174.125c0,5.667,1.265,6.95,6.932,6.95
		c69.384,0.013,138.76,0,208.137,0c4.847,0,6.339-1.504,6.351-6.382c0.006-19.7,0-39.4-0.012-59.096c0-0.52-0.056-1.033-0.122-2.193
		c-0.777,1.19-1.205,1.791-1.571,2.427c-4.762,8.221-9.419,16.516-14.328,24.646c-1.074,1.76-2.865,3.287-4.663,4.369
		c-3.202,1.913-6.705,3.319-9.987,5.116c-1.101,0.605-2.146,1.596-2.824,2.665c-1.955,3.068-3.624,6.326-5.586,9.401
		c-3.101,4.865-8.827,7.278-14.176,6.153c-5.831-1.229-10.152-5.652-11.124-11.453c-0.171-1.021-0.208-2.061-0.33-3.319
		c-1.229,0-2.359,0-3.496,0c-15.185,0-30.367,0.006-45.551-0.012c-4.731-0.008-6.149-1.449-6.155-6.224
		c-0.024-17.293-0.024-34.591-0.024-51.889c0-5.08,1.438-6.485,6.511-6.485c23.918,0.006,47.854-0.013,71.771,0.036
		c1.62,0.006,2.574-0.403,3.417-1.87c12.372-21.564,24.805-43.099,37.213-64.64c0.422-0.733,0.954-1.56,0.973-2.341
		c0.066-7.665,0.043-15.324,0.043-23.148C300.164,175.613,226.606,175.613,152.664,175.613z M152.67,165.979
		c74.003,0,147.604,0,221.387,0c0-6.772,0-13.294,0-19.812c0-6.698-1.021-7.731-7.592-7.731c-60.128,0-120.263,0-180.391,0
		c-9.315,0-18.638-0.013-27.946,0.03c-3.448,0.019-5.379,1.56-5.422,4.615C152.591,150.655,152.67,158.229,152.67,165.979z
		 M329.192,277.031c-22.199,0-43.948,0-65.69,0c0,15.342,0,30.482,0,45.904c1.082,0,2.017,0,2.945,0
		c13.547,0.006,27.098-0.244,40.638,0.152c4.908,0.146,8.001-1.187,9.528-5.813c0.386-1.143,0.818-2.365,0.775-3.533
		c-0.122-3.739-0.647-7.476-0.635-11.204c0.006-2.011,0.379-4.242,1.313-5.978C321.558,290.068,325.335,283.742,329.192,277.031z
		 M392.957,240.454c-8.143-4.701-15.94-9.206-23.954-13.833c-13.063,22.635-26.082,45.178-39.193,67.886
		c2.817,1.602,5.281,3.014,7.978,4.548c11.59-20.05,23.044-39.877,34.597-59.859c2.744,1.595,5.27,3.062,7.977,4.633
		c-11.589,20.092-23.037,39.92-34.578,59.914c2.715,1.547,5.258,2.995,7.989,4.555C366.863,285.631,379.81,263.217,392.957,240.454z
		 M404.357,220.368c3.973-5.507,6.051-11.148,2.5-17.494c-2.794-4.976-7.23-7.42-12.885-7.054
		c-6.357,0.41-11.089,4.56-13.045,11.052C388.685,211.34,396.479,215.833,404.357,220.368z M326.258,303.18
		c-0.403,10.287-0.403,10.287,7.721,15.066c1.075,0.637,2.133,1.284,3.258,1.821c0.558,0.257,1.363,0.557,1.827,0.343
		c3.008-1.382,5.948-2.908,9.212-4.542C340.781,311.549,333.685,307.46,326.258,303.18z M399.871,228.474
		c-8.13-4.694-15.954-9.206-23.961-13.82c-0.832,1.479-1.511,2.671-2.25,3.979c8.136,4.683,15.96,9.206,23.911,13.797
		C398.373,231.053,399.033,229.91,399.871,228.474z M331.894,327.733c-2.763-1.583-5.226-2.988-7.952-4.554
		c-1.546,2.672-3.02,5.109-4.389,7.609c-1.437,2.646-0.85,5.153,1.424,6.517c2.293,1.376,4.787,0.722,6.4-1.84
		C328.911,333.033,330.286,330.51,331.894,327.733z"/>
	<path fill="#FFFFFF" d="M203.673,193.797c8.734,0,17.48-0.006,26.21,0c4.175,0.007,5.783,1.577,5.789,5.703
		c0.012,14.59,0.019,29.182,0.012,43.784c-0.006,4.26-1.626,5.868-5.954,5.874c-17.572,0.018-35.14,0.018-52.714-0.006
		c-4.333,0-5.935-1.603-5.935-5.886c-0.006-14.591,0-29.182,0.012-43.784c0.006-4.114,1.62-5.686,5.794-5.686
		C185.812,193.791,194.742,193.791,203.673,193.797z M226.234,239.831c0-12.366,0-24.505,0-36.645c-15.36,0-30.495,0-45.703,0
		c0,12.292,0,24.432,0,36.645C195.818,239.831,210.892,239.831,226.234,239.831z"/>
	<path fill="#FFFFFF" d="M254.278,212.367c33.723,0,67.311,0,101.119,0c0,2.916,0,5.831,0,8.938c-33.637,0-67.292,0-101.119,0
		C254.278,218.394,254.278,215.545,254.278,212.367z"/>
	<path fill="#FFFFFF" d="M355.488,193.969c0,3.067,0,5.91,0,8.905c-24.505,0-48.875,0-73.466,0c0-2.867,0-5.783,0-8.905
		C306.387,193.969,330.824,193.969,355.488,193.969z"/>
	<path fill="#FFFFFF" d="M235.555,267.733c0,2.995,0,5.844,0,8.899c-21.394,0-42.745,0-64.291,0c0-2.916,0-5.824,0-8.899
		C192.634,267.733,213.93,267.733,235.555,267.733z"/>
	<path fill="#FFFFFF" d="M235.562,286.248c0,3.038,0,5.887,0,8.889c-21.492,0-42.849,0-64.34,0c0-2.989,0-5.825,0-8.889
		C192.597,286.248,213.941,286.248,235.562,286.248z"/>
	<path fill="#FFFFFF" d="M235.567,304.702c0,3.007,0,5.861,0,8.875c-21.479,0-42.842,0-64.346,0c0-2.964,0-5.807,0-8.875
		C192.572,304.702,213.936,304.702,235.567,304.702z"/>
	<path fill="#FFFFFF" d="M235.555,323.144c0,3.044,0,5.886,0,8.894c-21.485,0-42.842,0-64.333,0c0-2.982,0-5.831,0-8.894
		C192.597,323.144,213.941,323.144,235.555,323.144z"/>
	<path fill="#FFFFFF" d="M300.134,230.888c0,3.057,0,5.904,0,8.899c-15.271,0-30.41,0-45.789,0c0-2.848,0-5.758,0-8.899
		C269.474,230.888,284.682,230.888,300.134,230.888z"/>
	<path fill="#FFFFFF" d="M309.633,230.827c9.101,0,18.093,0,27.311,0c0,2.903,0,5.813,0,8.924c-9.01,0-18.068,0-27.311,0
		C309.633,236.799,309.633,233.889,309.633,230.827z"/>
	<path fill="#FFFFFF" d="M272.469,193.926c0,3.015,0,5.855,0,8.906c-6.039,0-12.029,0-18.191,0c0-2.921,0-5.831,0-8.906
		C260.305,193.926,266.222,193.926,272.469,193.926z"/>
	<path fill="#FFFFFF" d="M180.195,147.807c0,3.001,0,5.843,0,8.894c-2.945,0-5.844,0-8.937,0c0-2.916,0-5.825,0-8.894
		C174.168,147.807,177.01,147.807,180.195,147.807z"/>
	<path fill="#FFFFFF" d="M198.6,156.762c-3.099,0-5.948,0-8.931,0c0-2.989,0-5.838,0-8.899c2.922,0,5.832,0,8.931,0
		C198.6,150.76,198.6,153.669,198.6,156.762z"/>
	<path fill="#FFFFFF" d="M208.19,147.776c3.032,0,5.868,0,8.881,0c0,2.965,0,5.813,0,8.894c-2.842,0-5.758,0-8.881,0
		C208.19,153.853,208.19,150.931,208.19,147.776z"/>
</g>
</svg>
