<?xml version="1.0" encoding="utf-8"?>
<!-- Generator: Adobe Illustrator 16.0.0, SVG Export Plug-In . SVG Version: 6.00 Build 0)  -->
<!DOCTYPE svg PUBLIC "-//W3C//DTD SVG 1.1//EN" "http://www.w3.org/Graphics/SVG/1.1/DTD/svg11.dtd">
<svg version="1.1" id="Layer_1" xmlns="http://www.w3.org/2000/svg" xmlns:xlink="http://www.w3.org/1999/xlink" x="0px" y="0px"
	 width="512px" height="512px" viewBox="0 0 512 512" enable-background="new 0 0 512 512" xml:space="preserve">
<g>
	<g>
		
			<linearGradient id="SVGID_1_" gradientUnits="userSpaceOnUse" x1="76.2278" y1="402.6658" x2="392.3015" y2="86.5921" gradientTransform="matrix(1 0 0 -1 24.9448 503.3589)">
			<stop  offset="0" style="stop-color:#DC00FF"/>
			<stop  offset="1" style="stop-color:#9A00FF"/>
		</linearGradient>
		<path fill="url(#SVGID_1_)" d="M481.809,256.33c0,124.262-100.732,225-225,225c-124.267,0-225-100.738-225-225
			c0-124.267,100.733-225,225-225C381.076,31.33,481.809,132.063,481.809,256.33z"/>
		
			<linearGradient id="SVGID_2_" gradientUnits="userSpaceOnUse" x1="125.9172" y1="430.5339" x2="337.8102" y2="63.5246" gradientTransform="matrix(1 0 0 -1 24.9448 503.3589)">
			<stop  offset="0" style="stop-color:#9A00FF"/>
			<stop  offset="1" style="stop-color:#DC00FF"/>
		</linearGradient>
		<circle fill="url(#SVGID_2_)" cx="256.809" cy="256.33" r="211.858"/>
	</g>
</g>
<g opacity="0.3">
	<path d="M128.553,173.203c1.729-11.327,3.38-22.665,5.281-33.967c0.263-1.559,1.772-2.91,2.695-4.353
		c1.198,1.438,3.191,2.75,3.459,4.347c1.798,10.972,3.24,22.005,6.162,33.104c1.059-7.219,2.115-14.432,3.154-21.649
		c0.599-4.205,0.954-8.459,1.864-12.599c0.281-1.29,2.011-2.262,3.075-3.38c1.021,1.198,2.873,2.366,2.916,3.594
		c0.61,17.214,6.094,33.282,10.617,49.671c3.533,12.799-1.283,24.224-12.042,31.949c-5.293,3.803-6.692,7.696-6.186,13.76
		c2.958,35.385,5.672,70.787,8.319,106.204c0.36,4.815,0.824,9.938-0.36,14.505c-2.646,10.208-13.582,16.382-23.906,14.432
		c-10.202-1.926-17.696-11.002-17.022-21.521c1.607-25.464,3.502-50.918,5.336-76.362c0.996-13.784,2.279-27.557,3.001-41.346
		c0.109-2.09-1.54-5.134-3.319-6.333c-15.043-10.141-20.165-23.605-14.102-40.813c4.779-13.551,7.848-27.304,8.723-41.632
		c0.11-1.864,1.979-3.625,3.038-5.428c1.204,1.692,3.179,3.258,3.49,5.092c1.828,10.85,3.264,21.754,4.835,32.646
		C127.905,173.148,128.229,173.172,128.553,173.203z M154.879,168.27c-0.385,0-0.776-0.006-1.161-0.006
		c-1.37,7.934-2.574,15.897-4.242,23.771c-0.354,1.669-2.408,2.978-3.673,4.456c-1.424-1.345-3.228-2.469-4.163-4.095
		c-0.904-1.571-1.008-3.644-1.302-5.526c-1.021-6.441-1.968-12.896-2.946-19.352c-2.347,7.756-3.246,15.52-4.853,23.142
		c-0.458,2.188-2.953,3.955-4.512,5.917c-1.424-1.883-3.643-3.588-4.113-5.685c-1.656-7.402-2.721-14.945-4.321-24.311
		c-2.519,7.482-4.456,13.246-6.388,19.01c-4.769,14.182,0.214,26.583,13.71,32.807c3.723,1.718,5.049,3.68,4.73,7.677
		c-1.167,14.401-2.065,28.833-3.087,43.246c-1.833,25.868-3.765,51.729-5.482,77.604c-0.611,9.155,5.52,15.807,14.192,15.989
		c8.784,0.189,14.719-5.875,14.45-15.488c-0.269-9.769-1.008-19.529-1.748-29.272c-2.28-30.098-4.529-60.196-7.097-90.263
		c-0.478-5.648,0.904-8.753,6.308-11.284c9.866-4.621,15.22-16.21,12.665-26.668C160.051,182.585,157.245,175.489,154.879,168.27z"
		/>
	<path d="M259.898,340.244c-48.337,0.318-88.001-39.578-88.46-88.44c-0.47-51.167,43.729-88.576,87.219-89.17
		c51.633-0.702,90.604,43.833,90.36,87.317C348.73,300.581,310.46,339.914,259.898,340.244z M342.703,251.589
		c0.231-45.807-36.718-83.575-83.216-82.708c-48.833,0.911-81.082,38.18-81.724,81.596c-0.672,45.972,36.192,83.381,81.614,83.723
		C305.625,334.535,342.465,298.014,342.703,251.589z"/>
	<path d="M416.615,188.301c-0.538,16.907-5.079,27.035-15.646,33.124c-4.77,2.745-4.994,5.538-4.585,10.135
		c3.447,38.526,6.772,77.065,9.848,115.63c0.813,10.189-4.145,17.029-13.569,20.623c-8.589,3.276-17.678,1.217-23.19-6.821
		c-2.769-4.047-4.657-9.841-4.364-14.682c1.97-32.458,4.634-64.878,7.072-97.312c0.208-2.75,0.135-5.581,0.728-8.246
		c2.226-9.933,0.967-17.316-8.882-23.833c-9.334-6.167-11.876-17.616-10.115-28.68c1.932-12.097,4.327-24.249,8.014-35.905
		c3.931-12.42,12.219-17.354,24.578-17.14c10.092,0.171,18.697,6.455,22.022,18.069
		C412.251,166.253,414.658,179.627,416.615,188.301z M371.561,340.146c0.043,0.006,0.079,0.013,0.116,0.013
		c-0.159,1.907-0.337,3.813-0.471,5.722c-0.697,10.27,4.986,16.913,14.419,16.889c9.64-0.024,15.194-6.32,14.34-16.827
		c-1.992-24.572-4.224-49.126-6.309-73.687c-1.276-15.03-2.586-30.066-3.588-45.123c-0.231-3.496-1.24-7.378,4.04-9.389
		c10.69-4.064,16.705-12.616,15.44-23.827c-1.534-13.6-4.598-27.09-7.959-40.385c-1.943-7.688-8.196-11.632-16.253-12.042
		c-8.074-0.421-13.1,3.808-16.352,10.819c-6.187,13.35-8.605,27.463-8.747,42.071c-0.092,10.165,4.492,18.014,13.417,22.121
		c6.167,2.836,7.022,6.455,6.54,12.396C377.153,265.966,374.402,303.063,371.561,340.146z"/>
	<path d="M186.236,251.785c-0.006-40.446,33.473-74.896,73.345-74.511c41.985,0.403,74.98,31.595,74.778,74.156
		c-0.2,43.19-31.777,74.157-74.498,74.249C217.618,325.776,186.432,292.041,186.236,251.785z M227.227,289.383
		c-4.126,4.506-8.05,8.783-11.968,13.068c12.244,10.507,29.682,17.226,41.852,16.063c0-4.354-0.269-8.809,0.153-13.209
		c0.135-1.432,2.042-2.695,3.142-4.04c0.967,1.394,2.642,2.726,2.758,4.191c0.373,4.396,0.135,8.846,0.135,13.895
		c16.454-1.43,30.287-6.797,42.53-17.226c-3.417-3.637-6.633-6.742-9.427-10.201c-0.903-1.118-0.702-3.147-1.009-4.762
		c1.791,0.146,4.077-0.354,5.275,0.563c3.611,2.769,6.81,6.1,10.269,9.303c10.44-12.312,15.479-26.125,17.274-42.237
		c-3.81,0-7.005,0.393-10.063-0.116c-2.773-0.451-5.385-1.889-8.063-2.891c2.781-1.173,5.471-2.824,8.361-3.392
		c2.995-0.594,6.191-0.128,9.737-0.128c-1.669-16.303-6.785-29.971-17.029-41.853c-4.683,4.315-8.868,8.172-12.951,11.938
		c-4.384-1.705-4.536-3.9-1.785-6.797c3.203-3.362,6.339-6.798,9.713-10.435c-12.506-10.428-26.229-16.43-42.818-17.311
		c0,5.293,0.214,9.75-0.115,14.168c-0.116,1.553-1.583,3.001-2.428,4.499c-1.233-1.418-3.307-2.708-3.533-4.268
		c-0.653-4.571-0.567-9.248-0.77-13.826c-30.507-2.513-66.363,33.655-63.007,63.991c3.894,0,7.934-0.379,11.857,0.153
		c2.042,0.274,3.857,2.152,5.776,3.301c-1.852,0.972-3.643,2.573-5.581,2.775c-4.138,0.428-8.35,0.128-13.013,0.128
		c1.19,16.785,6.968,30.507,17.426,42.689c2.849-2.702,5.306-5.36,8.111-7.58C220.576,287.842,223.046,282.592,227.227,289.383z"/>
	<path d="M287.538,228.405c-6.181,6.399-12.065,13.117-18.644,19.083c-4.346,3.949-5.966,8.118-5.617,13.875
		c0.435,7.194,0.178,14.438-0.158,21.65c-0.079,1.748-1.65,3.429-2.53,5.141c-1.156-1.706-3.209-3.356-3.313-5.123
		c-0.464-7.83-0.685-15.721-0.354-23.551c0.214-4.92-1.474-8.282-4.927-11.62c-9.773-9.443-19.225-19.217-28.777-28.887
		c-1.491-1.511-3.129-2.983-4.181-4.78c-0.845-1.431-0.905-3.332-1.314-5.02c1.822,0.41,4.211,0.227,5.379,1.333
		c10.937,10.367,21.663,20.959,32.463,31.479c1.479,1.443,3.001,2.849,6.131,5.813c6.437-7.15,12.55-14.204,19.04-20.886
		c1.187-1.216,3.932-0.911,5.96-1.308C286.97,226.534,287.257,227.469,287.538,228.405z"/>
</g>
<g>
	<path fill="#FFFFFF" d="M134.553,164.203c1.729-11.327,3.38-22.665,5.281-33.967c0.263-1.559,1.772-2.91,2.695-4.353
		c1.198,1.438,3.191,2.75,3.459,4.347c1.798,10.972,3.24,22.005,6.162,33.104c1.059-7.219,2.115-14.432,3.154-21.649
		c0.599-4.205,0.954-8.459,1.864-12.599c0.281-1.29,2.011-2.262,3.075-3.38c1.021,1.198,2.873,2.366,2.916,3.594
		c0.61,17.214,6.094,33.282,10.617,49.671c3.533,12.799-1.283,24.224-12.042,31.949c-5.293,3.803-6.692,7.696-6.186,13.76
		c2.958,35.385,5.672,70.787,8.319,106.204c0.36,4.815,0.824,9.938-0.36,14.505c-2.646,10.208-13.582,16.382-23.906,14.432
		c-10.202-1.926-17.696-11.002-17.022-21.521c1.607-25.464,3.502-50.918,5.336-76.362c0.996-13.784,2.279-27.557,3.001-41.346
		c0.109-2.09-1.54-5.134-3.319-6.333c-15.043-10.141-20.165-23.605-14.102-40.813c4.779-13.551,7.848-27.304,8.723-41.632
		c0.11-1.864,1.979-3.625,3.038-5.428c1.204,1.692,3.179,3.258,3.49,5.092c1.828,10.85,3.264,21.754,4.835,32.646
		C133.905,164.148,134.229,164.172,134.553,164.203z M160.879,159.27c-0.385,0-0.776-0.006-1.161-0.006
		c-1.37,7.934-2.574,15.897-4.242,23.771c-0.354,1.669-2.408,2.978-3.673,4.456c-1.424-1.345-3.228-2.469-4.163-4.095
		c-0.904-1.571-1.008-3.644-1.302-5.526c-1.021-6.441-1.968-12.896-2.946-19.352c-2.347,7.756-3.246,15.52-4.853,23.142
		c-0.458,2.188-2.953,3.955-4.512,5.917c-1.424-1.883-3.643-3.588-4.113-5.685c-1.656-7.402-2.721-14.945-4.321-24.311
		c-2.519,7.482-4.456,13.246-6.388,19.01c-4.769,14.182,0.214,26.583,13.71,32.807c3.723,1.718,5.049,3.68,4.73,7.677
		c-1.167,14.401-2.065,28.833-3.087,43.246c-1.833,25.868-3.765,51.729-5.482,77.604c-0.611,9.155,5.52,15.807,14.192,15.989
		c8.784,0.189,14.719-5.875,14.45-15.488c-0.269-9.769-1.008-19.529-1.748-29.272c-2.28-30.098-4.529-60.196-7.097-90.263
		c-0.478-5.648,0.904-8.753,6.308-11.284c9.866-4.621,15.22-16.21,12.665-26.668C166.051,173.585,163.245,166.489,160.879,159.27z"
		/>
	<path fill="#FFFFFF" d="M265.898,331.244c-48.337,0.318-88.001-39.578-88.46-88.44c-0.47-51.167,43.729-88.576,87.219-89.17
		c51.633-0.702,90.604,43.833,90.36,87.317C354.73,291.581,316.46,330.914,265.898,331.244z M348.703,242.589
		c0.231-45.807-36.718-83.575-83.216-82.708c-48.833,0.911-81.082,38.18-81.724,81.596c-0.672,45.972,36.192,83.381,81.614,83.723
		C311.625,325.535,348.465,289.014,348.703,242.589z"/>
	<path fill="#FFFFFF" d="M422.615,179.301c-0.538,16.907-5.079,27.035-15.646,33.124c-4.77,2.745-4.994,5.538-4.585,10.135
		c3.447,38.526,6.772,77.065,9.848,115.63c0.813,10.189-4.145,17.029-13.569,20.623c-8.589,3.276-17.678,1.217-23.19-6.821
		c-2.769-4.047-4.657-9.841-4.364-14.682c1.97-32.458,4.634-64.878,7.072-97.312c0.208-2.75,0.135-5.581,0.728-8.246
		c2.226-9.933,0.967-17.316-8.882-23.833c-9.334-6.167-11.876-17.616-10.115-28.68c1.932-12.097,4.327-24.249,8.014-35.905
		c3.931-12.42,12.219-17.354,24.578-17.14c10.092,0.171,18.697,6.455,22.022,18.069
		C418.251,157.253,420.658,170.627,422.615,179.301z M377.561,331.146c0.043,0.006,0.079,0.013,0.116,0.013
		c-0.159,1.907-0.337,3.813-0.471,5.722c-0.697,10.27,4.986,16.913,14.419,16.889c9.64-0.024,15.194-6.32,14.34-16.827
		c-1.992-24.572-4.224-49.126-6.309-73.687c-1.276-15.03-2.586-30.066-3.588-45.123c-0.231-3.496-1.24-7.378,4.04-9.389
		c10.69-4.064,16.705-12.616,15.44-23.827c-1.534-13.6-4.598-27.09-7.959-40.385c-1.943-7.688-8.196-11.632-16.253-12.042
		c-8.074-0.421-13.1,3.808-16.352,10.819c-6.187,13.35-8.605,27.463-8.747,42.071c-0.092,10.165,4.492,18.014,13.417,22.121
		c6.167,2.836,7.022,6.455,6.54,12.396C383.153,256.966,380.402,294.063,377.561,331.146z"/>
	<path fill="#FFFFFF" d="M192.236,242.785c-0.006-40.446,33.473-74.896,73.345-74.511c41.985,0.403,74.98,31.595,74.778,74.156
		c-0.2,43.19-31.777,74.157-74.498,74.249C223.618,316.776,192.432,283.041,192.236,242.785z M233.227,280.383
		c-4.126,4.506-8.05,8.783-11.968,13.068c12.244,10.507,29.682,17.226,41.852,16.063c0-4.354-0.269-8.809,0.153-13.209
		c0.135-1.432,2.042-2.695,3.142-4.04c0.967,1.394,2.642,2.726,2.758,4.191c0.373,4.396,0.135,8.846,0.135,13.895
		c16.454-1.43,30.287-6.797,42.53-17.226c-3.417-3.637-6.633-6.742-9.427-10.201c-0.903-1.118-0.702-3.147-1.009-4.762
		c1.791,0.146,4.077-0.354,5.275,0.563c3.611,2.769,6.81,6.1,10.269,9.303c10.44-12.312,15.479-26.125,17.274-42.237
		c-3.81,0-7.005,0.393-10.063-0.116c-2.773-0.451-5.385-1.889-8.063-2.891c2.781-1.173,5.471-2.824,8.361-3.392
		c2.995-0.594,6.191-0.128,9.737-0.128c-1.669-16.303-6.785-29.971-17.029-41.853c-4.683,4.315-8.868,8.172-12.951,11.938
		c-4.384-1.705-4.536-3.9-1.785-6.797c3.203-3.362,6.339-6.798,9.713-10.435c-12.506-10.428-26.229-16.43-42.818-17.311
		c0,5.293,0.214,9.75-0.115,14.168c-0.116,1.553-1.583,3.001-2.428,4.499c-1.233-1.418-3.307-2.708-3.533-4.268
		c-0.653-4.571-0.567-9.248-0.77-13.826c-30.507-2.513-66.363,33.655-63.007,63.991c3.894,0,7.934-0.379,11.857,0.153
		c2.042,0.274,3.857,2.152,5.776,3.301c-1.852,0.972-3.643,2.573-5.581,2.775c-4.138,0.428-8.35,0.128-13.013,0.128
		c1.19,16.785,6.968,30.507,17.426,42.689c2.849-2.702,5.306-5.36,8.111-7.58C226.576,278.842,229.046,273.592,233.227,280.383z"/>
	<path fill="#FFFFFF" d="M293.538,219.405c-6.181,6.399-12.065,13.117-18.644,19.083c-4.346,3.949-5.966,8.118-5.617,13.875
		c0.435,7.194,0.178,14.438-0.158,21.65c-0.079,1.748-1.65,3.429-2.53,5.141c-1.156-1.706-3.209-3.356-3.313-5.123
		c-0.464-7.83-0.685-15.721-0.354-23.551c0.214-4.92-1.474-8.282-4.927-11.62c-9.773-9.443-19.225-19.217-28.777-28.887
		c-1.491-1.511-3.129-2.983-4.181-4.78c-0.845-1.431-0.905-3.332-1.314-5.02c1.822,0.41,4.211,0.227,5.379,1.333
		c10.937,10.367,21.663,20.959,32.463,31.479c1.479,1.443,3.001,2.849,6.131,5.813c6.437-7.15,12.55-14.204,19.04-20.886
		c1.187-1.216,3.932-0.911,5.96-1.308C292.97,217.534,293.257,218.469,293.538,219.405z"/>
</g>
</svg>
