<?xml version="1.0" encoding="utf-8"?>
<!-- Generator: Adobe Illustrator 16.0.0, SVG Export Plug-In . SVG Version: 6.00 Build 0)  -->
<!DOCTYPE svg PUBLIC "-//W3C//DTD SVG 1.1//EN" "http://www.w3.org/Graphics/SVG/1.1/DTD/svg11.dtd">
<svg version="1.1" id="Layer_1" xmlns="http://www.w3.org/2000/svg" xmlns:xlink="http://www.w3.org/1999/xlink" x="0px" y="0px"
	 width="512px" height="512px" viewBox="0 0 512 512" enable-background="new 0 0 512 512" xml:space="preserve">
<g>
	<g>
		
			<linearGradient id="SVGID_1_" gradientUnits="userSpaceOnUse" x1="75.155" y1="403.5408" x2="391.2284" y2="87.4673" gradientTransform="matrix(1 0 0 -1 24.9448 503.3589)">
			<stop  offset="0" style="stop-color:#00C9FF"/>
			<stop  offset="1" style="stop-color:#0091FF"/>
		</linearGradient>
		<path fill="url(#SVGID_1_)" d="M480.736,255.455c0,124.262-100.732,225-225,225c-124.267,0-225-100.738-225-225
			c0-124.267,100.733-225,225-225C380.003,30.455,480.736,131.188,480.736,255.455z"/>
		
			<linearGradient id="SVGID_2_" gradientUnits="userSpaceOnUse" x1="124.845" y1="431.4099" x2="336.7382" y2="64.4001" gradientTransform="matrix(1 0 0 -1 24.9448 503.3589)">
			<stop  offset="0" style="stop-color:#0091FF"/>
			<stop  offset="0.4483" style="stop-color:#0093FF"/>
			<stop  offset="1" style="stop-color:#00C9FF"/>
		</linearGradient>
		<circle fill="url(#SVGID_2_)" cx="255.736" cy="255.455" r="211.858"/>
	</g>
</g>
<g opacity="0.3">
	<path d="M132.79,209.923c2.995-19.577,12.659-35.299,27.867-47.72c14.963-12.225,32.25-18.973,51.339-21.32
		c2.133-0.269,4.254-0.622,6.381-0.946c4.211,0,8.429,0,12.646,0c2.428,0.33,4.859,0.696,7.298,0.989
		c12.989,1.547,25.282,5.33,36.711,11.699c18.394,10.232,32.072,24.627,39.133,44.816c0.313,0.893,1.547,1.761,2.53,2.079
		c18.288,5.818,33.899,15.488,44.928,31.527c10.544,15.354,13.746,32.184,8.624,50.232c-4.272,15.049-13.612,26.613-25.973,35.88
		c-1.204,0.898-1.569,1.748-1.467,3.167c0.672,9.683,3.985,18.344,10.122,25.818c2.854,3.466,6.18,6.553,9.321,9.786
		c2.444,2.531,2.384,3.057-0.813,4.565c-4.578,2.171-9.407,2.464-14.334,1.719c-8.014-1.211-15.293-4.47-22.213-8.454
		c-8.533-4.908-16.864-10.171-25.293-15.264c-3.918-2.364-8.025-3.723-12.763-3.79c-5.228-0.085-10.515-0.672-15.66-1.649
		c-20.862-3.954-38.655-13.38-52.042-30.244c-1.173-1.467-2.108-1.528-3.588-0.709c-7.098,3.931-14.206,7.854-21.357,11.693
		c-7.561,4.059-15.336,7.657-23.753,9.597c-7.696,1.784-15.336,2.114-22.671-1.603c-5.146-2.609-6.999-9.113-3.839-13.979
		c1.302-2.005,2.879-3.852,4.469-5.643c5.855-6.602,10.746-13.68,12.978-22.421c0.781-3.063,0.624-5.312-2.286-7.035
		c-1.009-0.593-1.81-1.57-2.671-2.407c-10.208-9.806-18.032-21.138-21.858-34.921c0,0-2.48-6.901-2.787-12.47
		C131.47,217.35,132.79,209.923,132.79,209.923z M170.517,303.347c0.116,0.151,0.232,0.293,0.349,0.438
		c1.87-0.696,3.851-1.216,5.616-2.127c10.544-5.44,21.101-10.854,31.535-16.51c5.874-3.19,11.693-5.99,18.644-5.898
		c7.316,0.099,14.554-0.923,21.607-2.922c18.289-5.159,33.521-14.688,43.625-31.247c7.078-11.606,9.45-24.175,6.137-37.451
		c-4.584-18.459-16.626-30.983-32.981-39.664c-15.159-8.044-31.467-10.807-48.472-9.162c-20.673,1.992-38.563,9.841-52.593,25.61
		c-17.512,19.7-17.75,48.015-0.593,68.001c4.847,5.648,10.478,10.324,16.498,14.627c0.825,0.593,1.711,1.871,1.675,2.8
		c-0.373,9.75-2.5,19.054-7.494,27.55C172.9,299.392,171.696,301.366,170.517,303.347z"/>
</g>
<g>
	<path fill="#FFFFFF" d="M142.79,199.923c2.995-19.577,12.659-35.299,27.867-47.72c14.963-12.225,32.25-18.973,51.339-21.32
		c2.133-0.269,4.254-0.622,6.381-0.946c4.211,0,8.429,0,12.646,0c2.428,0.33,4.859,0.696,7.298,0.989
		c12.989,1.547,25.282,5.33,36.711,11.699c18.394,10.232,32.072,24.627,39.133,44.816c0.313,0.893,1.547,1.761,2.53,2.079
		c18.288,5.818,33.899,15.488,44.928,31.527c10.544,15.354,13.746,32.184,8.624,50.232c-4.272,15.049-13.612,26.613-25.973,35.88
		c-1.204,0.898-1.569,1.748-1.467,3.167c0.672,9.683,3.985,18.344,10.122,25.818c2.854,3.466,6.18,6.553,9.321,9.786
		c2.444,2.531,2.384,3.057-0.813,4.565c-4.578,2.171-9.407,2.464-14.334,1.719c-8.014-1.211-15.293-4.47-22.213-8.454
		c-8.533-4.908-16.864-10.171-25.293-15.264c-3.918-2.364-8.025-3.723-12.763-3.79c-5.228-0.085-10.515-0.672-15.66-1.649
		c-20.862-3.954-38.655-13.38-52.042-30.244c-1.173-1.467-2.108-1.528-3.588-0.709c-7.098,3.931-14.206,7.854-21.357,11.693
		c-7.561,4.059-15.336,7.657-23.753,9.597c-7.696,1.784-15.336,2.114-22.671-1.603c-5.146-2.609-6.999-9.113-3.839-13.979
		c1.302-2.005,2.879-3.852,4.469-5.643c5.855-6.602,10.746-13.68,12.978-22.421c0.781-3.063,0.624-5.312-2.286-7.035
		c-1.009-0.593-1.81-1.57-2.671-2.407c-10.208-9.806-18.032-21.138-21.858-34.921c0,0-2.48-6.901-2.787-12.47
		C141.47,207.35,142.79,199.923,142.79,199.923z M180.517,293.347c0.116,0.151,0.232,0.293,0.349,0.438
		c1.87-0.696,3.851-1.216,5.616-2.127c10.544-5.44,21.101-10.854,31.535-16.51c5.874-3.19,11.693-5.99,18.644-5.898
		c7.316,0.099,14.554-0.923,21.607-2.922c18.289-5.159,33.521-14.688,43.625-31.247c7.078-11.606,9.45-24.175,6.137-37.451
		c-4.584-18.459-16.626-30.983-32.981-39.664c-15.159-8.044-31.467-10.807-48.472-9.162c-20.673,1.992-38.563,9.841-52.593,25.61
		c-17.512,19.7-17.75,48.015-0.593,68.001c4.847,5.648,10.478,10.324,16.498,14.627c0.825,0.593,1.711,1.871,1.675,2.8
		c-0.373,9.75-2.5,19.054-7.494,27.55C182.9,289.392,181.696,291.366,180.517,293.347z"/>
</g>
</svg>
