<?xml version="1.0" encoding="utf-8"?>
<!-- Generator: Adobe Illustrator 16.0.0, SVG Export Plug-In . SVG Version: 6.00 Build 0)  -->
<!DOCTYPE svg PUBLIC "-//W3C//DTD SVG 1.1//EN" "http://www.w3.org/Graphics/SVG/1.1/DTD/svg11.dtd">
<svg version="1.1" id="Layer_1" xmlns="http://www.w3.org/2000/svg" xmlns:xlink="http://www.w3.org/1999/xlink" x="0px" y="0px"
	 width="512px" height="512px" viewBox="0 0 512 512" enable-background="new 0 0 512 512" xml:space="preserve">
<g>
	<g>
		
			<linearGradient id="SVGID_1_" gradientUnits="userSpaceOnUse" x1="76.1243" y1="402.6648" x2="392.1982" y2="86.591" gradientTransform="matrix(1 0 0 -1 24.9448 503.3589)">
			<stop  offset="0" style="stop-color:#DC00FF"/>
			<stop  offset="1" style="stop-color:#9A00FF"/>
		</linearGradient>
		<path fill="url(#SVGID_1_)" d="M481.705,256.33c0,124.262-100.732,225-224.999,225c-124.268,0-225-100.738-225-225
			c0-124.267,100.732-225,225-225C380.973,31.33,481.705,132.063,481.705,256.33z"/>
		
			<linearGradient id="SVGID_2_" gradientUnits="userSpaceOnUse" x1="125.8152" y1="430.5349" x2="337.7085" y2="63.5249" gradientTransform="matrix(1 0 0 -1 24.9448 503.3589)">
			<stop  offset="0" style="stop-color:#9A00FF"/>
			<stop  offset="1" style="stop-color:#DC00FF"/>
		</linearGradient>
		<circle fill="url(#SVGID_2_)" cx="256.706" cy="256.33" r="211.858"/>
	</g>
</g>
<g opacity="0.6">
	<path d="M130.429,276.898c-3.124-0.465-5.776-0.654-8.307-1.296c-3.985-1.016-5.287-3.417-5.715-9.083
		c-0.275-3.698,1.59-5.795,4.725-7.146c5.226-2.243,17.922-1.223,23.02,2.104c0.478-1.442,0.979-2.75,1.363-4.103
		c2.219-7.714,4.676-15.373,6.528-23.178c1.362-5.758,4.854-9.297,10.202-10.422c7.708-1.614,15.562-2.727,23.403-3.49
		c21.352-2.072,42.659-0.88,63.924,1.381c2.837,0.3,5.667,0.874,8.448,1.565c6.718,1.681,11.326,5.245,12.885,12.616
		c1.603,7.615,4.133,15.023,6.284,22.523c0.299,1.064,0.745,2.085,1.191,3.356c6.688-5.153,14.102-2.893,21.131-2.604
		c4.248,0.172,6.54,3.411,6.589,7.085c0.08,5.917-1.656,8.704-6.467,9.829c-2.322,0.537-4.743,0.611-7.091,0.898
		c6.442,12.371,3.912,25.794,4.133,38.905c0.122,7.464-0.141,14.933-0.221,22.396c-0.05,4.272-1.399,5.894-5.722,5.972
		c-7.8,0.152-15.6,0.13-23.397,0.037c-3.869-0.049-5.489-1.712-6.039-5.624c-0.172-1.223-0.404-2.45-0.667-3.984
		c-1.345,0-2.481,0.006-3.612,0c-30.556-0.073-61.105-0.109-91.662-0.275c-2.83-0.018-4.157,0.502-4.149,3.692
		c0.006,3.856-2.226,5.936-6.064,5.983c-7.702,0.099-15.396,0.135-23.093-0.013c-4.505-0.085-5.874-1.675-5.911-6.167
		c-0.122-14.811-0.263-29.615-0.3-44.426C125.82,287.65,126.425,281.966,130.429,276.898z M264.084,268.684
		c-2.764-9.513-5.354-18.16-7.738-26.871c-0.642-2.329-1.858-3.021-4.114-3.136c-6.29-0.307-12.572-0.881-18.869-1.254
		c-8.116-0.488-16.259-1.437-24.363-1.204c-13.063,0.366-26.082,1.602-39.132,2.328c-2.188,0.122-3.203,0.789-3.803,2.94
		c-2.157,7.842-4.522,15.623-6.785,23.435c-0.269,0.917-0.396,1.871-0.721,3.447C193.791,263.757,228.527,263.892,264.084,268.684z
		 M211.578,304.172c-8.038,0-16.07-0.042-24.107,0.014c-3.692,0.029-5.275,1.626-5.434,5.171c-0.264,5.563,1.253,7.17,6.992,7.146
		c15.386-0.067,30.759-0.184,46.138-0.313c4.106-0.03,5.567-1.662,5.53-6.052c-0.029-4.272-1.57-5.94-5.702-5.967
		C227.195,304.142,219.383,304.166,211.578,304.172z M142.525,294.252c0.062,6.191,5.386,11.375,11.517,11.217
		c6.069-0.158,11.045-5.258,11.051-11.326c0.006-6.266-5.08-11.363-11.333-11.339C147.543,282.821,142.458,288.005,142.525,294.252z
		 M268.613,305.7c6.283,0.031,11.375-5.036,11.375-11.308c-0.006-6.155-5.316-11.449-11.424-11.363
		c-5.983,0.073-11.18,5.269-11.241,11.241C257.256,300.486,262.379,305.676,268.613,305.7z"/>
	<path d="M417.83,267.369c0,2.011,0,3.704,0,5.746c2.642,0.122,5.215,0.232,8.074,0.366c0,6.131,0.228,12.085-0.079,18.008
		c-0.195,3.74-3.147,6.852-6.564,6.943c-7.988,0.227-16.002,0.072-24.291,0.072c0.257-0.775,0.257-1.174,0.44-1.319
		c7.255-5.643,10.231-13.057,9.188-22.108c-0.532-4.651-0.917-9.364-1.926-13.931c-1.218-5.525-4.664-9.45-9.773-12.188
		c-14.304-7.646-28.032-16.21-39.976-27.323c-2.421-2.256-4.884-4.633-6.693-7.378c-7.2-10.91-17.616-15.373-30.214-15.385
		c-60.99-0.055-121.975-0.013-182.965-0.062c-4.664-0.006-7.885,2.566-11.504,6.015c1.302-10.88,2.427-21.051,6.883-30.501
		c1.938-4.102,4.811-6.076,9.707-6.112c29.841-0.257,59.688-0.917,89.53-1.253c23.417-0.256,46.846-0.28,70.263-0.312
		c5.507-0.006,11.009,0.452,16.516,0.544c8.148,0.146,15.501,2.793,22.488,6.771c18.337,10.422,31.479,25.722,41.527,43.985
		c1.119,2.036,2.702,4.169,4.621,5.349c8.489,5.215,17.041,10.367,25.844,15.013c9.957,5.257,14.693,13.281,15.146,24.37
		c0.142,3.44-0.587,5.007-4.191,4.443C419.347,267.045,418.766,267.247,417.83,267.369z"/>
	<path d="M362.36,320.682c-14.406-0.055-25.94-11.76-25.824-26.203c0.104-14.206,11.718-25.766,25.946-25.819
		c14.193-0.062,26.167,11.925,26.088,26.112C388.479,309.148,376.755,320.749,362.36,320.682z M362.049,309.393
		c8.037,0.269,14.901-6.119,15.188-14.14c0.281-7.987-6.125-14.933-14.096-15.263c-8.142-0.336-15.08,6.145-15.367,14.347
		C347.494,302.283,353.979,309.123,362.049,309.393z"/>
	<path d="M345.221,237.504c-17.115,0-32.903,0-48.698,0c0-8.489,0-16.541,0-25.508c8.345,0.55,16.181,0.997,24.004,1.657
		c1.132,0.092,2.378,0.99,3.233,1.852C330.753,222.577,337.659,229.729,345.221,237.504z"/>
</g>
<g>
	<path fill="#FFFFFF" d="M140.429,266.898c-3.124-0.465-5.776-0.654-8.307-1.296c-3.985-1.016-5.287-3.417-5.715-9.083
		c-0.275-3.698,1.59-5.795,4.725-7.146c5.226-2.243,17.922-1.223,23.02,2.104c0.478-1.442,0.979-2.75,1.363-4.103
		c2.219-7.714,4.676-15.373,6.528-23.178c1.362-5.758,4.854-9.297,10.202-10.422c7.708-1.614,15.562-2.727,23.403-3.49
		c21.352-2.072,42.659-0.88,63.924,1.381c2.837,0.3,5.667,0.874,8.448,1.565c6.718,1.681,11.326,5.245,12.885,12.616
		c1.603,7.615,4.133,15.023,6.284,22.523c0.299,1.064,0.745,2.085,1.191,3.356c6.688-5.153,14.102-2.893,21.131-2.604
		c4.248,0.172,6.54,3.411,6.589,7.085c0.08,5.917-1.656,8.704-6.467,9.829c-2.322,0.537-4.743,0.611-7.091,0.898
		c6.442,12.371,3.912,25.794,4.133,38.905c0.122,7.464-0.141,14.933-0.221,22.396c-0.05,4.272-1.399,5.894-5.722,5.972
		c-7.8,0.152-15.6,0.13-23.397,0.037c-3.869-0.049-5.489-1.712-6.039-5.624c-0.172-1.223-0.404-2.45-0.667-3.984
		c-1.345,0-2.481,0.006-3.612,0c-30.556-0.073-61.105-0.109-91.662-0.275c-2.83-0.018-4.157,0.502-4.149,3.692
		c0.006,3.856-2.226,5.936-6.064,5.983c-7.702,0.099-15.396,0.135-23.093-0.013c-4.505-0.085-5.874-1.675-5.911-6.167
		c-0.122-14.811-0.263-29.615-0.3-44.426C135.82,277.65,136.425,271.966,140.429,266.898z M274.084,258.684
		c-2.764-9.513-5.354-18.16-7.738-26.871c-0.642-2.329-1.858-3.021-4.114-3.136c-6.29-0.307-12.572-0.881-18.869-1.254
		c-8.116-0.488-16.259-1.437-24.363-1.204c-13.063,0.366-26.082,1.602-39.132,2.328c-2.188,0.122-3.203,0.789-3.803,2.94
		c-2.157,7.842-4.522,15.623-6.785,23.435c-0.269,0.917-0.396,1.871-0.721,3.447C203.791,253.757,238.527,253.892,274.084,258.684z
		 M221.578,294.172c-8.038,0-16.07-0.042-24.107,0.014c-3.692,0.029-5.275,1.626-5.434,5.171c-0.264,5.563,1.253,7.17,6.992,7.146
		c15.386-0.067,30.759-0.184,46.138-0.313c4.106-0.03,5.567-1.662,5.53-6.052c-0.029-4.272-1.57-5.94-5.702-5.967
		C237.195,294.142,229.383,294.166,221.578,294.172z M152.525,284.252c0.062,6.191,5.386,11.375,11.517,11.217
		c6.069-0.158,11.045-5.258,11.051-11.326c0.006-6.266-5.08-11.363-11.333-11.339C157.543,272.821,152.458,278.005,152.525,284.252z
		 M278.613,295.7c6.283,0.031,11.375-5.036,11.375-11.308c-0.006-6.155-5.316-11.449-11.424-11.363
		c-5.983,0.073-11.18,5.269-11.241,11.241C267.256,290.486,272.379,295.676,278.613,295.7z"/>
	<path fill="#FFFFFF" d="M427.83,257.369c0,2.011,0,3.704,0,5.746c2.642,0.122,5.215,0.232,8.074,0.366
		c0,6.131,0.228,12.085-0.079,18.008c-0.195,3.74-3.147,6.852-6.564,6.943c-7.988,0.227-16.002,0.072-24.291,0.072
		c0.257-0.775,0.257-1.174,0.44-1.319c7.255-5.643,10.231-13.057,9.188-22.108c-0.532-4.651-0.917-9.364-1.926-13.931
		c-1.218-5.525-4.664-9.45-9.773-12.188c-14.304-7.646-28.032-16.21-39.976-27.323c-2.421-2.256-4.884-4.633-6.693-7.378
		c-7.2-10.91-17.616-15.373-30.214-15.385c-60.99-0.055-121.975-0.013-182.965-0.062c-4.664-0.006-7.885,2.566-11.504,6.015
		c1.302-10.88,2.427-21.051,6.883-30.501c1.938-4.102,4.811-6.076,9.707-6.112c29.841-0.257,59.688-0.917,89.53-1.253
		c23.417-0.256,46.846-0.28,70.263-0.312c5.507-0.006,11.009,0.452,16.516,0.544c8.148,0.146,15.501,2.793,22.488,6.771
		c18.337,10.422,31.479,25.722,41.527,43.985c1.119,2.036,2.702,4.169,4.621,5.349c8.489,5.215,17.041,10.367,25.844,15.013
		c9.957,5.257,14.693,13.281,15.146,24.37c0.142,3.44-0.587,5.007-4.191,4.443C429.347,257.045,428.766,257.247,427.83,257.369z"/>
	<path fill="#FFFFFF" d="M372.36,310.682c-14.406-0.055-25.94-11.76-25.824-26.203c0.104-14.206,11.718-25.766,25.946-25.819
		c14.193-0.062,26.167,11.925,26.088,26.112C398.479,299.148,386.755,310.749,372.36,310.682z M372.049,299.393
		c8.037,0.269,14.901-6.119,15.188-14.14c0.281-7.987-6.125-14.933-14.096-15.263c-8.142-0.336-15.08,6.145-15.367,14.347
		C357.494,292.283,363.979,299.123,372.049,299.393z"/>
	<path fill="#FFFFFF" d="M355.221,227.504c-17.115,0-32.903,0-48.698,0c0-8.489,0-16.541,0-25.508
		c8.345,0.55,16.181,0.997,24.004,1.657c1.132,0.092,2.378,0.99,3.233,1.852C340.753,212.577,347.659,219.729,355.221,227.504z"/>
</g>
</svg>
