<?xml version="1.0" encoding="utf-8"?>
<!-- Generator: Adobe Illustrator 16.0.0, SVG Export Plug-In . SVG Version: 6.00 Build 0)  -->
<!DOCTYPE svg PUBLIC "-//W3C//DTD SVG 1.1//EN" "http://www.w3.org/Graphics/SVG/1.1/DTD/svg11.dtd">
<svg version="1.1" id="Layer_1" xmlns="http://www.w3.org/2000/svg" xmlns:xlink="http://www.w3.org/1999/xlink" x="0px" y="0px"
	 width="512px" height="512px" viewBox="0 0 512 512" enable-background="new 0 0 512 512" xml:space="preserve">
<g>
	<g>
		<linearGradient id="SVGID_1_" gradientUnits="userSpaceOnUse" x1="99.4692" y1="99.9448" x2="415.5424" y2="416.018">
			<stop  offset="0" style="stop-color:#FF7601"/>
			<stop  offset="1" style="stop-color:#FF0000"/>
		</linearGradient>
		<path fill="url(#SVGID_1_)" d="M480.104,255.581c0,124.261-100.733,225-225,225s-225-100.739-225-225
			c0-124.264,100.733-225,225-225S480.104,131.317,480.104,255.581z"/>
		<linearGradient id="SVGID_2_" gradientUnits="userSpaceOnUse" x1="149.1572" y1="72.0767" x2="361.0527" y2="439.0905">
			<stop  offset="0" style="stop-color:#FF0000"/>
			<stop  offset="1" style="stop-color:#FF6301"/>
		</linearGradient>
		<path fill="url(#SVGID_2_)" d="M466.963,255.581c0,117.011-94.854,211.864-211.858,211.864S43.246,372.592,43.246,255.581
			c0-117.005,94.854-211.858,211.858-211.858S466.963,138.576,466.963,255.581z"/>
	</g>
</g>
<g>
	<path fill-rule="evenodd" clip-rule="evenodd" fill="#FFFFFF" d="M252.623,153.05c-36.382,0-72.549,0-109.089,0
		c-0.214,1.852-0.544,3.478-0.55,5.123c-0.03,19.297,0.116,38.606-0.104,57.891c-0.061,4.743,1.418,6.216,6.167,6.161
		c19.511-0.226,39.028-0.33,58.527,0.128c3.747,0.086,8.606,1.938,10.88,4.676c5.061,6.106-0.006,14.75-8.576,14.988
		c-12.286,0.324-24.59,0.128-36.895,0.134c-12.72,0.006-25.458,0.092-38.166-0.037c-8.411-0.098-11.98-3.643-12.011-12.127
		c-0.098-28.423-0.098-56.846,0-85.266c0.031-8.386,3.71-12.234,11.999-12.25c42.201-0.095,84.407-0.095,126.602,0.009
		c7.738,0.024,11.32,3.594,11.779,11.201c0.244,4.224,0.25,8.5-0.086,12.711c-0.557,6.62-4.242,10.196-9.951,10.196
		c-5.409,0-9.034-3.405-10.043-9.493C252.904,155.887,252.806,154.64,252.623,153.05z"/>
	<path fill-rule="evenodd" clip-rule="evenodd" fill="#FFFFFF" d="M169.279,197.054c2.738,1.259,4.768,2.512,6.968,3.129
		c3.411,0.96,6.938,1.926,10.428,1.975c1.534,0.012,3.105-2.237,4.664-3.448c-1.192-1.503-2.079-3.63-3.619-4.352
		c-3.619-1.699-7.586-2.659-11.345-4.04c-5.819-2.133-9.859-5.789-10.031-12.463c-0.171-6.418,2.94-10.648,8.558-13.637
		c1.828-0.978,2.714-3.618,4.193-5.36c1.143-1.351,2.409-3.319,3.827-3.521c1.375-0.208,4.303,1.412,4.364,2.384
		c0.348,5.599,5.018,5.868,8.417,8.038c2.06,1.345,3.068,4.315,4.554,6.552c-2.372,1.009-4.804,2.928-7.109,2.788
		c-3.472-0.238-6.797-2.433-10.281-2.732c-1.742-0.159-3.686,2.036-5.525,3.154c1.253,1.663,2.151,4.028,3.826,4.847
		c3.576,1.748,7.567,2.641,11.351,3.998c5.947,2.121,9.725,6.173,9.737,12.671c0.019,6.559-3.301,11.021-9.358,13.814
		c-2.054,0.954-3.301,3.527-5.037,5.214c-1.4,1.363-3.038,3.527-4.499,3.472c-1.485-0.073-4.016-2.329-4.107-3.759
		c-0.238-3.838-2.543-4.7-5.434-5.825c-2.714-1.039-5.464-2.463-7.567-4.389c-1.058-0.959-1.382-3.649-0.838-5.128
		C165.936,198.992,167.971,198.111,169.279,197.054z"/>
</g>
<g>
	<path fill-rule="evenodd" clip-rule="evenodd" fill="#FFFFFF" d="M314.114,297.806c-22.151,0-44.297,0.153-66.461-0.055
		c-13.704-0.122-22.451-9.364-22.451-23.057c0-28.337,0.465-56.668-0.257-84.975c-0.244-9.407,10.868-21.131,19.64-21.21
		c9.083-0.073,18.154-0.538,27.231-0.556c32.139-0.08,64.284-0.073,96.418-0.024c4.713,0,9.443,0.214,14.132,0.654
		c12.83,1.186,20.807,10.178,20.807,23.215c0,27.788,0,55.568,0,83.337c0,12.714-9.205,22.438-22.06,22.562
		c-22.329,0.238-44.664,0.073-66.999,0.073C314.114,297.775,314.114,297.794,314.114,297.806z M391.107,215.948
		c-2.427,0-4.206,0-5.979,0c-37.414,0-74.841,0-112.249,0.024c-9.811,0.006-19.621,0.134-29.432,0.171
		c-2.818,0.006-4.854,0.416-4.811,4.132c0.263,17.977,0.171,35.959,0.532,53.931c0.134,7.097,3.166,9.56,10.312,9.578
		c21.987,0.012,43.967,0.042,65.941-0.019c22.164-0.049,44.315-0.165,66.485-0.336c5.538-0.043,9.114-2.959,9.15-7.818
		C391.192,256.015,391.107,236.394,391.107,215.948z M390.899,193.863c0.177-8.02-2.012-10.617-9.059-11.21
		c-2.177-0.178-4.358-0.257-6.528-0.257c-42.14-0.061-84.272-0.116-126.4-0.141c-7.042,0-10.458,4.175-9.652,11.607
		C289.701,193.863,340.147,193.863,390.899,193.863z"/>
	<path fill-rule="evenodd" clip-rule="evenodd" fill="#FFFFFF" d="M274.188,269.646c-8.093,6.198-16.589,6.088-22.207-0.049
		c-4.908-5.354-5.122-14.064-0.489-19.413c5.984-6.876,13.814-7.182,22.75-0.886c10.025-6.027,17.989-5.715,23.197,0.886
		c4.64,5.917,4.377,14.071-0.642,19.37C290.813,275.868,283.301,275.96,274.188,269.646z"/>
</g>
<g>
	<path fill="#FFFFFF" d="M172.965,339.383v10.471c-5.232-3.441-10.079-5.159-14.541-5.159c-3.295,0-4.945,1.204-4.945,3.619
		c0,0.63,0.349,1.253,1.045,1.864c0.69,0.611,3.35,1.907,7.964,3.881c4.615,1.98,7.873,4.261,9.78,6.84
		c1.907,2.586,2.866,5.416,2.866,8.497c0,4.871-1.54,8.631-4.621,11.283c-3.075,2.646-7.463,3.974-13.154,3.974
		c-5.85,0-11.051-1.144-15.605-3.424v-10.372c5.599,2.646,10.293,3.967,14.083,3.967c4.432,0,6.645-1.155,6.645-3.466
		c0-0.893-0.41-1.73-1.229-2.524c-0.819-0.789-3.57-2.17-8.24-4.139c-4.676-1.968-7.873-4.126-9.597-6.479
		c-1.724-2.348-2.585-4.97-2.585-7.849c0-4.272,1.656-7.751,4.963-10.434c3.307-2.684,7.671-4.028,13.087-4.028
		C164.083,335.905,168.778,337.066,172.965,339.383z"/>
	<path fill="#FFFFFF" d="M214.652,336.901v10.073h-15.88v19.31c0,2.316,0.587,4.144,1.772,5.489c1.186,1.338,2.824,2.011,4.92,2.011
		c2.83,0,5.893-0.911,9.188-2.732v10.672c-4.371,1.956-8.606,2.929-12.696,2.929c-5.354,0-9.511-1.485-12.469-4.469
		c-2.953-2.977-4.432-7.347-4.432-13.105v-20.104h-6.229v-2.879l18.233-21.938h1.711v14.743H214.652z"/>
	<path fill="#FFFFFF" d="M235.795,336.901V350.3h0.184c3.967-9.597,8.6-14.395,13.894-14.395c2.524,0,5.557,1.424,9.096,4.272
		l-3.784,13.056c-3.386-2.316-6.094-3.478-8.13-3.478c-3.166,0-5.837,2.115-8.007,6.339s-3.252,6.687-3.252,7.384v20.281h-13.716
		v-46.858H235.795z"/>
	<path fill="#FFFFFF" d="M263.625,321.663c0-2.256,0.74-4.175,2.219-5.758c1.479-1.59,3.246-2.384,5.313-2.384
		c2.09,0,3.875,0.794,5.354,2.384c1.473,1.583,2.212,3.502,2.212,5.758c0,2.213-0.739,4.126-2.212,5.733
		c-1.479,1.602-3.265,2.402-5.354,2.402c-2.066,0-3.833-0.801-5.313-2.402C264.365,325.789,263.625,323.876,263.625,321.663z
		 M278.075,336.901v46.858h-13.71v-46.858H278.075z"/>
	<path fill="#FFFFFF" d="M303.148,336.901v4.071c3.661-3.381,7.818-5.067,12.463-5.067c5.66,0,10.446,2.304,14.358,6.907
		c3.906,4.608,5.862,10.256,5.862,16.943c0,7.524-1.962,13.551-5.887,18.087c-3.924,4.541-9.119,6.81-15.58,6.81
		c-4.004,0-7.738-1.076-11.217-3.228v25.715h-13.71v-70.238H303.148z M303.148,350.153v21.546c2.586,2.048,5.232,3.075,7.94,3.075
		c3.325,0,5.959-1.284,7.915-3.845c1.956-2.567,2.935-6.033,2.935-10.403c0-4.469-0.905-7.94-2.702-10.422
		c-1.803-2.481-4.334-3.723-7.598-3.723C308.9,346.382,306.07,347.641,303.148,350.153z"/>
	<path fill="#FFFFFF" d="M387.354,369.218v9.279c-5.232,4.107-11.711,6.155-19.438,6.155c-7.658,0-13.783-2.207-18.374-6.633
		c-4.584-4.425-6.876-10.274-6.876-17.566c0-7.152,2.151-13.032,6.461-17.641c4.309-4.604,9.804-6.907,16.484-6.907
		c6.706,0,12.207,2.427,16.504,7.273c4.291,4.848,6.302,11.345,6.021,19.486h-31.296c0.274,4.249,1.675,7.524,4.199,9.811
		c2.524,2.292,5.91,3.441,10.152,3.441C376.333,375.917,381.718,373.68,387.354,369.218z M357.115,354.921h18.931
		c-0.739-6.821-3.894-10.227-9.469-10.227C360.948,344.694,357.794,348.1,357.115,354.921z"/>
</g>
</svg>
