<?xml version="1.0" encoding="utf-8"?>
<!-- Generator: Adobe Illustrator 16.0.0, SVG Export Plug-In . SVG Version: 6.00 Build 0)  -->
<!DOCTYPE svg PUBLIC "-//W3C//DTD SVG 1.1//EN" "http://www.w3.org/Graphics/SVG/1.1/DTD/svg11.dtd">
<svg version="1.1" id="Layer_1" xmlns="http://www.w3.org/2000/svg" xmlns:xlink="http://www.w3.org/1999/xlink" x="0px" y="0px"
	 width="512px" height="512px" viewBox="0 0 512 512" enable-background="new 0 0 512 512" xml:space="preserve">
<linearGradient id="SVGID_1_" gradientUnits="userSpaceOnUse" x1="100.1826" y1="99.2773" x2="416.2565" y2="415.3512">
	<stop  offset="0" style="stop-color:#E20001"/>
	<stop  offset="1" style="stop-color:#8C0000"/>
</linearGradient>
<path fill="url(#SVGID_1_)" d="M480.818,254.914c0,124.261-100.733,225-225,225s-225-100.739-225-225c0-124.267,100.733-225,225-225
	S480.818,130.647,480.818,254.914z"/>
<linearGradient id="SVGID_2_" gradientUnits="userSpaceOnUse" x1="149.8711" y1="71.4097" x2="361.7666" y2="438.4235">
	<stop  offset="0" style="stop-color:#8C0000"/>
	<stop  offset="1" style="stop-color:#E20001"/>
</linearGradient>
<path fill="url(#SVGID_2_)" d="M467.677,254.914c0,117.011-94.854,211.864-211.858,211.864S43.96,371.925,43.96,254.914
	c0-117.005,94.854-211.858,211.858-211.858S467.677,137.909,467.677,254.914z"/>
<g>
	<path fill-rule="evenodd" clip-rule="evenodd" fill="#FFFFFF" d="M361.564,220.703c0,18.9,0.281,37.812-0.074,56.706
		c-0.513,28.252-11.649,51.338-36.625,65.409c-20.049,11.277-41.26,20.495-62.066,30.409c-1.748,0.832-4.603,0.71-6.394-0.134
		c-19.511-9.169-39.328-17.824-58.264-28.093c-27.146-14.713-39.939-38.515-39.945-69.267c-0.006-38.026,0.116-76.045-0.147-114.059
		c-0.042-5.306,1.889-7.812,6.351-9.951c21.253-10.214,43.808-15.734,67.084-17.91c36.063-3.35,71.73-1.296,106.253,10.807
		c6.314,2.201,12.311,5.288,18.558,7.72c4.047,1.577,5.452,4.004,5.386,8.49C361.405,180.794,361.564,200.739,361.564,220.703z
		 M350.164,159.914c-2.188-0.446-3.594-0.886-5.036-0.996c-24.964-2.005-49.921-2.555-74.799,1.161
		c-36.521,5.446-69.56,18.741-97.176,43.851c-2.017,1.833-3.643,5.25-3.68,7.952c-0.306,20.807-0.232,41.607-0.141,62.415
		c0.116,27.842,11.81,49.059,36.791,61.986c16.369,8.472,33.087,16.283,49.805,24.09c2.103,0.996,5.482,1.026,7.573,0.055
		c17.635-8.325,35.409-16.406,52.524-25.715c23.361-12.666,34.095-33.265,34.169-59.591c0.073-22.268-0.013-44.554-0.031-66.822
		C350.164,192.329,350.164,176.375,350.164,159.914z"/>
	<path fill-rule="evenodd" clip-rule="evenodd" fill="#FFFFFF" d="M257.487,298.02c0,11.986,0,23.68,0,35.696
		c-7.25,0-13.894,0-21.119,0c-0.135-1.81-0.397-3.612-0.404-5.415c-0.085-35.924-0.085-71.84-0.317-107.751
		c-0.024-4.163,1.247-6.455,5.012-8.258c17.317-8.301,37.299-5.184,47.207,7.653c12.628,16.351,11.84,51.822-1.522,67.622
		C279.993,295.085,274.248,297.243,257.487,298.02z M257.542,252.799c0,6.724-0.122,13.447,0.073,20.177
		c0.062,2.115,0.581,5.819,1.51,6.027c2.427,0.537,5.722,0.317,7.665-1.046c2.391-1.662,4.651-4.56,5.41-7.329
		c3.288-11.906,4.059-24.132,0.231-35.984c-1.075-3.331-5-6.436-8.38-8.148c-3.753-1.907-6.784-0.416-6.577,4.884
		C257.762,238.515,257.542,245.666,257.542,252.799z"/>
	<path fill-rule="evenodd" clip-rule="evenodd" fill="#FFFFFF" d="M195.935,210.489c0,11.345-0.019,22.433,0,33.515
		c0.019,8.606,0.037,17.207,0.171,25.819c0.031,1.656,0.343,3.374,0.929,4.908c1.577,4.102,4.915,4.548,8.802,4.188
		c4.376-0.428,3.991-3.417,3.991-6.406c-0.019-17.867-0.006-35.733-0.006-53.594c0-2.684,0-5.385,0-8.545c7.219,0,13.82,0,21.131,0
		c0.085,2.09,0.256,4.102,0.256,6.125c0.019,22.708-0.128,45.403,0.135,68.093c0.042,4.493-1.443,6.986-5.355,8.729
		c-10.324,4.578-21.088,5.832-32.023,3.533c-11.149-2.335-18.105-10.012-18.662-23.117c-0.886-20.935-0.232-41.925-0.232-63.246
		C182.078,210.489,188.667,210.489,195.935,210.489z"/>
	<path fill-rule="evenodd" clip-rule="evenodd" fill="#FFFFFF" d="M343.924,234.395c-4.872-2.824-8.979-5.679-13.473-7.665
		c-4.352-1.919-9.107-1.553-11.405,3.258c-2.2,4.646,0.758,7.965,4.548,10.458c4.021,2.653,8.282,4.994,12.078,7.94
		c11.161,8.601,14.352,23.1,8.093,35.538c-5.795,11.522-18.271,16.357-32.274,12.5c-13.074-3.601-13.074-3.601-13.074-16.895
		c0-2.653,0-5.313,0-7.935c5.446,2.684,10.27,5.502,15.403,7.445c4.236,1.607,8.601,0.752,10.93-3.631
		c2.463-4.633,0.513-8.655-3.35-11.564c-3.839-2.91-8.118-5.208-11.98-8.105c-12.47-9.297-15.648-25.905-7.256-37.072
		c8.631-11.479,27.164-14.126,39.107-5.428c1.284,0.936,2.439,2.91,2.524,4.462C344.101,223.294,343.924,228.912,343.924,234.395z"
		/>
</g>
</svg>
