<?xml version="1.0" encoding="utf-8"?>
<!-- Generator: Adobe Illustrator 24.3.0, SVG Export Plug-In . SVG Version: 6.00 Build 0)  -->
<svg version="1.1" id="Layer_1" xmlns="http://www.w3.org/2000/svg" xmlns:xlink="http://www.w3.org/1999/xlink" x="0px" y="0px"
	 viewBox="0 0 512 512" style="enable-background:new 0 0 512 512;" xml:space="preserve">
<style type="text/css">
	.st0{fill:url(#SVGID_1_);}
	.st1{fill:url(#SVGID_2_);}
	.st2{fill:#F6F6FB;}
	.st3{fill-rule:evenodd;clip-rule:evenodd;fill:#F6F6FB;}
</style>
<g>
	<g>
		
			<linearGradient id="SVGID_1_" gradientUnits="userSpaceOnUse" x1="76.2918" y1="438.475" x2="392.3651" y2="754.5483" gradientTransform="matrix(1 0 0 1 24.9448 -338.5309)">
			<stop  offset="0" style="stop-color:#FF5901"/>
			<stop  offset="1" style="stop-color:#CE0000"/>
		</linearGradient>
		<path class="st0" d="M481.9,255.6c0,124.3-100.7,225-225,225c-124.3,0-225-100.7-225-225c0-124.3,100.7-225,225-225
			C381.1,30.6,481.9,131.3,481.9,255.6z"/>
		
			<linearGradient id="SVGID_2_" gradientUnits="userSpaceOnUse" x1="125.9818" y1="410.6084" x2="337.8768" y2="777.6215" gradientTransform="matrix(1 0 0 1 24.9448 -338.5309)">
			<stop  offset="0" style="stop-color:#C30000"/>
			<stop  offset="1" style="stop-color:#FF6401"/>
		</linearGradient>
		<path class="st1" d="M468.7,255.6c0,117-94.9,211.9-211.9,211.9S45,372.6,45,255.6c0-117,94.9-211.9,211.9-211.9
			S468.7,138.6,468.7,255.6z"/>
	</g>
</g>
<g>
	<path class="st2" d="M349.7,279.6l-6.1-5.2l9.6-8c0.9-0.7,1.4-1.8,1.4-3v-18.6c0-1.1-0.5-2.2-1.4-3l-27.3-23.1
		c-1-0.8-2.3-1.3-3.6-1.3h-54.2c-1.3,0-2.6,0.4-3.5,1.3l-27.3,23.1c-1,0.8-1.5,1.9-1.5,3v18.6c0,1.1,0.6,2.2,1.5,3l9.5,8l-6.1,5.2
		l-9.5-8c-2.6-2.2-4-5.1-4-8.1v-18.6c0-3,1.4-5.9,4-8.1l27.3-23.1c2.6-2.2,6-3.4,9.6-3.4h54.2c3.6,0,7.2,1.2,9.7,3.4l27.3,23.1
		c2.6,2.2,4,5,4,8.1v18.6c0,3-1.4,6-4,8.1L349.7,279.6z"/>
	<rect x="230.2" y="159.8" class="st2" width="129.8" height="7.3"/>
	<rect x="271.2" y="163.5" class="st3" width="47.8" height="50.4"/>
</g>
<g>
	<path class="st3" d="M212.4,299.2h-33.3c-2.4,0-4.3-1.8-4.3-4V264c0-2.2,1.9-4,4.3-4h33.3c2.4,0,4.3,1.8,4.3,4v31.3
		C216.7,297.5,214.8,299.2,212.4,299.2z"/>
	<path class="st3" d="M307.7,299.2h-33.3c-2.4,0-4.3-1.8-4.3-4V264c0-2.2,1.9-4,4.3-4h33.3c2.4,0,4.3,1.8,4.3,4v31.3
		C312,297.5,310,299.2,307.7,299.2z"/>
</g>
<path class="st3" d="M290.5,319.7H187.2c-4.8,0-9.1,2.6-12.3,7c-3.2,4.3-5.1,10.3-5.1,16.8c0,13.1,7.8,23.7,17.4,23.7h103.3
	c4.8,0,9.2-2.7,12.3-7c3.1-4.3,5.1-10.2,5.1-16.7C307.9,330.3,300.1,319.7,290.5,319.7z M186.4,347.9c-2.5,0-4.5-2.8-4.5-6.2
	s2-6.2,4.5-6.2c2.4,0,4.5,2.8,4.5,6.2S188.9,347.9,186.4,347.9z M203.7,347.9c-2.5,0-4.5-2.8-4.5-6.2s2-6.2,4.5-6.2
	c2.5,0,4.5,2.8,4.5,6.2S206.2,347.9,203.7,347.9z M220.9,347.9c-2.5,0-4.5-2.8-4.5-6.2s2-6.2,4.5-6.2c2.4,0,4.5,2.8,4.5,6.2
	C225.4,345.1,223.4,347.9,220.9,347.9z M238.2,347.9c-2.4,0-4.5-2.8-4.5-6.2s2-6.2,4.5-6.2c2.5,0,4.5,2.8,4.5,6.2
	S240.6,347.9,238.2,347.9z M255.4,347.9c-2.5,0-4.5-2.8-4.5-6.2s2-6.2,4.5-6.2c2.5,0,4.5,2.8,4.5,6.2
	C259.9,345.1,257.9,347.9,255.4,347.9z M272.6,347.9c-2.4,0-4.5-2.8-4.5-6.2s2-6.2,4.5-6.2c2.5,0,4.5,2.8,4.5,6.2
	C277.2,345.1,275.1,347.9,272.6,347.9z M289.9,347.9c-2.5,0-4.5-2.8-4.5-6.2s2-6.2,4.5-6.2c2.5,0,4.5,2.8,4.5,6.2
	S292.4,347.9,289.9,347.9z"/>
</svg>
