<?xml version="1.0" encoding="utf-8"?>
<!-- Generator: Adobe Illustrator 16.0.0, SVG Export Plug-In . SVG Version: 6.00 Build 0)  -->
<!DOCTYPE svg PUBLIC "-//W3C//DTD SVG 1.1//EN" "http://www.w3.org/Graphics/SVG/1.1/DTD/svg11.dtd">
<svg version="1.1" id="Layer_1" xmlns="http://www.w3.org/2000/svg" xmlns:xlink="http://www.w3.org/1999/xlink" x="0px" y="0px"
	 width="512px" height="512px" viewBox="0 0 512 512" enable-background="new 0 0 512 512" xml:space="preserve">
<g>
	<g>
		<linearGradient id="SVGID_1_" gradientUnits="userSpaceOnUse" x1="99.3115" y1="99.8184" x2="415.3854" y2="415.8922">
			<stop  offset="0" style="stop-color:#00C9FF"/>
			<stop  offset="1" style="stop-color:#0091FF"/>
		</linearGradient>
		<path fill="url(#SVGID_1_)" d="M479.947,255.455c0,124.261-100.733,225-225,225s-225-100.739-225-225
			c0-124.267,100.733-225,225-225S479.947,131.188,479.947,255.455z"/>
		<linearGradient id="SVGID_2_" gradientUnits="userSpaceOnUse" x1="149.001" y1="71.9507" x2="360.894" y2="438.9603">
			<stop  offset="0" style="stop-color:#0091FF"/>
			<stop  offset="0.4483" style="stop-color:#0093FF"/>
			<stop  offset="1" style="stop-color:#00C9FF"/>
		</linearGradient>
		<circle fill="url(#SVGID_2_)" cx="254.947" cy="255.455" r="211.858"/>
	</g>
</g>
<g>
	<path fill-rule="evenodd" clip-rule="evenodd" fill="#FFFFFF" d="M211.549,295.431c-2.818-2.487-5.557-4.908-8.998-7.946
		c6.644-4.848,12.861-9.511,19.23-13.955c2.824-1.968,6.106-5,8.93-4.749c2.702,0.232,5.122,4.071,7.591,6.399
		c25.037,23.552,63.283,22.904,87.861-1.51c5.727-5.69,5.727-5.69,12.542-1.662c33.466,19.762,50.429,49.419,52.567,87.885
		c0.306,5.563-0.122,11.155,0.062,16.73c0.104,3.301-1.241,4.021-4.34,4.016c-36.718-0.098-73.43-0.062-110.141-0.055
		c-13.729,0-27.458-0.08-41.174,0.072c-3.197,0.037-4.542-0.556-4.401-4.187c0.293-7.616,0.073-7.628,7.848-7.628
		c45.189,0,90.386,0,135.581,0c5.208,0,5.257-0.007,5.061-5.337c-1.21-33.264-14.224-60.134-42.585-78.765
		c-2.5-1.645-3.937-1.59-6.204,0.458c-28.233,25.403-70.941,25.312-99.212-0.195c-2.066-1.858-3.459-2.146-5.636-0.459
		C221.207,288.364,216.157,292.008,211.549,295.431z"/>
	<path fill-rule="evenodd" clip-rule="evenodd" fill="#FFFFFF" d="M281.586,141.836c36.895-0.159,67.97,30.514,68.147,67.262
		c0.195,38.497-30.116,69.077-68.552,69.163c-36.803,0.079-67.763-30.452-67.995-67.036
		C212.942,172.766,243.26,142.008,281.586,141.836z M337.93,210.058c-0.024-31.186-25.214-56.345-56.484-56.418
		c-31.046-0.073-56.437,25.287-56.535,56.467c-0.104,30.88,25.507,56.437,56.583,56.455
		C312.575,266.586,337.948,241.176,337.93,210.058z"/>
	<path fill-rule="evenodd" clip-rule="evenodd" fill="#FFFFFF" d="M162.129,260.797c5.25,4.977,10.428,9.854,15.575,14.769
		c9.841,9.395,19.639,18.838,29.548,28.153c1.607,1.517,1.668,2.751,0.923,4.658c-2.885,7.39-2.824,7.42-10.74,7.445
		c-3.013,0.006-6.027,0.042-9.034-0.031c-1.919-0.055-2.469,0.697-2.335,2.61c1.442,20.574,9.413,37.677,26.485,49.914
		c1.693,1.217,2.017,2.219,1.137,4.102c-4.523,9.658-1.541,8.704-12.047,6.027c-18.68-4.774-35.08-13.57-47.488-28.809
		c-7.17-8.796-12.035-18.765-14.554-29.779c-0.764-3.35-2.249-4.291-5.434-4.108c-4.114,0.238-8.252-0.012-12.378,0.11
		c-2.054,0.056-3.179-0.599-4.004-2.604c-3.056-7.427-3.154-7.415,2.671-12.978c13.148-12.561,26.308-25.098,39.474-37.634
		C160.564,262.038,161.273,261.519,162.129,260.797z M188.071,361.134c-0.342-0.96-0.403-1.388-0.624-1.712
		c-10.495-15.501-13.447-32.971-13.551-51.234c-0.012-3.179,0.819-4.371,4.077-4.156c3.796,0.25,7.61,0.066,11.424,0.066
		c0.067-0.305,0.141-0.599,0.22-0.904c-9.15-8.717-18.289-17.433-27.598-26.308c-9.444,9.01-18.552,17.708-27.659,26.399
		c0.135,0.275,0.275,0.557,0.403,0.825c3.643,0,7.292,0.104,10.936-0.03c2.225-0.086,3.038,0.678,3.331,2.964
		c1.669,13.191,6.063,25.318,14.627,35.691C170.204,350.656,178.248,356.58,188.071,361.134z"/>
	<path fill-rule="evenodd" clip-rule="evenodd" fill="#FFFFFF" d="M247.869,136.922c-3.222,1.608-6.461,3.233-9.829,4.921
		c-1.901-2.727-3.508-5.385-5.446-7.775c-12.891-15.898-34.505-20.837-52.561-12.09c-18.105,8.765-27.916,28.851-23.57,48.252
		c4.407,19.701,21.559,33.686,41.944,33.881c3.35,0.037,4.267,1.167,4.175,4.193c-0.074,2.322,0.208,4.651,0.33,6.931
		c-19.304,6.284-48.454-13.16-56.62-37.585c-9.475-28.35,6.504-59.499,35.758-69.004
		C211.867,98.958,239.208,116.659,247.869,136.922z"/>
	<path fill-rule="evenodd" clip-rule="evenodd" fill="#FFFFFF" d="M157.453,206.555c13.222,15.807,30.062,22.219,50.911,18.032
		c0.959,3.692,1.864,7.201,2.928,11.29c-21.43,4.603-39.97-0.171-56.235-14.688c-7.488,4.529-13.729,10.33-18.998,17.188
		c-8.472,11.021-13.569,23.521-15.85,37.17c-0.409,2.463-1.186,3.288-3.655,2.708c-2.592-0.611-5.257-0.93-8.417-1.455
		c1.62-12.06,5.227-23.258,10.96-33.802C127.826,226.959,143.12,212.344,157.453,206.555z"/>
</g>
</svg>
