<?xml version="1.0" encoding="utf-8"?>
<!-- Generator: Adobe Illustrator 16.0.0, SVG Export Plug-In . SVG Version: 6.00 Build 0)  -->
<!DOCTYPE svg PUBLIC "-//W3C//DTD SVG 1.1//EN" "http://www.w3.org/Graphics/SVG/1.1/DTD/svg11.dtd">
<svg version="1.1" id="Layer_1" xmlns="http://www.w3.org/2000/svg" xmlns:xlink="http://www.w3.org/1999/xlink" x="0px" y="0px"
	 width="512px" height="512px" viewBox="0 0 512 512" enable-background="new 0 0 512 512" xml:space="preserve">
<g>
	<g>
		<linearGradient id="SVGID_1_" gradientUnits="userSpaceOnUse" x1="104.2036" y1="103.8188" x2="420.2768" y2="419.892">
			<stop  offset="0" style="stop-color:#FF00FF"/>
			<stop  offset="1" style="stop-color:#FF006F"/>
		</linearGradient>
		<path fill="url(#SVGID_1_)" d="M484.839,259.455c0,124.261-100.733,225-225,225s-225-100.739-225-225
			c0-124.267,100.733-225,225-225S484.839,135.188,484.839,259.455z"/>
		<linearGradient id="SVGID_2_" gradientUnits="userSpaceOnUse" x1="153.8926" y1="75.9502" x2="365.7856" y2="442.9598">
			<stop  offset="0" style="stop-color:#FF006F"/>
			<stop  offset="0.6601" style="stop-color:#FF007F"/>
			<stop  offset="1" style="stop-color:#FF00FF"/>
		</linearGradient>
		<circle fill="url(#SVGID_2_)" cx="259.839" cy="259.455" r="211.858"/>
	</g>
</g>
<g>
	<path fill-rule="evenodd" clip-rule="evenodd" fill="#FFFFFF" d="M185.053,143.771c4.022-4.272,8.167-12.237,12.06-12.115
		c10.11,0.312,6.479,9.909,6.907,16.192c0.379,5.458,0.483,11.045-0.25,16.442c-0.93,6.821-8.02,9.064-13.069,4.584
		c-6.797-6.045-25.477-10.288-29.976-4.597c-4.554,5.746-4.896,14.835-7.457,23.777c62.922,0,122.518,0,182.066,0
		c5.36-19.456,2.348-23.918-18.233-26.473c0-4.224,0-8.521,0-12.799c22.8-5.141,35.801,4.603,36.015,27.329
		c0.244,24.676,0.055,49.358,0.055,75.514c-5.587-1.131-10.122-2.042-15.947-3.215c0-15.122,0-30.354,0-46.149
		c-60.893,0-120.471,0-180.966,0c-0.287,2.964-0.801,5.893-0.807,8.82c-0.055,34.333-0.073,68.667-0.019,103.001
		c0.019,12.952,1.779,14.651,15.043,14.67c29.156,0.043,58.325,0.013,88.123,0.013c1.602,5.024,3.1,9.743,4.915,15.439
		c-2.678,0.257-4.572,0.593-6.474,0.593c-29.865,0.031-59.737,0.159-89.608-0.018c-19.383-0.123-28.215-9.133-28.246-28.588
		c-0.085-46.693-0.073-93.387-0.006-140.08c0.031-20.189,8.631-28.649,28.937-28.808c6.137-0.049,12.28-0.013,18.417-0.013
		C186.037,146.118,185.542,144.944,185.053,143.771z"/>
	<path fill-rule="evenodd" clip-rule="evenodd" fill="#FFFFFF" d="M385.872,298.855c9.077,33.668-4.255,63.203-33.588,76.095
		c-27.323,12.017-59.542,2.084-75.752-23.355c-15.947-25.043-10.936-58.79,11.656-78.563c21.791-19.078,54.56-20.288,75.739-2.531
		c-2.72,2.158-5.366,4.267-8.459,6.73c-18.344-10.067-36.871-11.082-54.939,0.965c-19.547,13.026-27.133,38.979-17.738,60.019
		c10.202,22.843,33.686,34.561,57.513,28.68c22.738-5.599,38.869-26.907,36.718-50.458
		C376.27,308.214,379.24,303.703,385.872,298.855z"/>
	<path fill-rule="evenodd" clip-rule="evenodd" fill="#FFFFFF" d="M391.758,271.766c-2.219,3.643-3.942,7.738-6.748,10.855
		c-15.587,17.268-31.283,34.438-47.262,51.339c-8.392,8.863-15.825,8.05-22.506-2.305c-6.919-10.715-14.805-21.161-16.021-35.904
		c13.698-0.544,19.156,11.265,28.808,15.458c20.313-14.059,37.738-32.689,60.941-42.512
		C389.906,269.724,390.835,270.745,391.758,271.766z"/>
	<path fill-rule="evenodd" clip-rule="evenodd" fill="#FFFFFF" d="M218.072,162.462c0-5.373,0-9.407,0-14.719
		c22.854,0,45.617,0,67.549,0c1.192-1.797,1.797-2.317,1.864-2.891c0.66-5.978-0.403-13.894,8.417-13.759
		c9.34,0.134,8.381,8.136,8.436,14.639c0.036,5.477,0.678,11.088-0.294,16.4c-0.58,3.136-3.282,7.396-5.929,8.203
		c-2.524,0.764-6.217-2.28-9.377-3.704c-3.025-1.357-6.015-3.93-9.053-3.985C259.521,162.285,239.35,162.462,218.072,162.462z"/>
	<path fill-rule="evenodd" clip-rule="evenodd" fill="#FFFFFF" d="M191.196,308.643c-1.027,0-2.054,0-3.075,0
		c-13.521-0.013-20.917-12.494-14.303-24.438c0.85-1.528,3.056-3.172,4.694-3.239c8.521-0.342,17.09-0.568,25.568,0.073
		c2.054,0.153,3.863,3.734,5.746,5.776c0.183,0.195,0.049,0.66,0.092,0.996C212.357,306.906,210.805,308.63,191.196,308.643z"/>
	<path fill-rule="evenodd" clip-rule="evenodd" fill="#FFFFFF" d="M190.799,259.718c-2.727,0-5.477-0.184-8.185,0.03
		c-7.018,0.557-10.159-2.542-9.695-9.572c0.202-3.063,0.135-6.143,0.006-9.211c-0.257-6.345,2.329-9.658,9.046-9.199
		c3.398,0.226,6.822,0.024,10.238,0.024c17.953,0,21.394,4.04,17.42,21.736c-0.55,2.408-4.003,5.19-6.62,5.862
		c-3.833,1.003-8.117,0.263-12.212,0.263C190.799,259.675,190.799,259.693,190.799,259.718z"/>
	<path fill-rule="evenodd" clip-rule="evenodd" fill="#FFFFFF" d="M246.275,231.827c1.027,0,2.048-0.006,3.074,0
		c14.413,0.067,20.776,9.364,14.872,23.038c-1.112,2.567-6.565,4.762-9.878,4.572c-8.716-0.471-18.264-0.642-25.574-4.523
		c-2.806-1.492-0.74-12.745-0.171-19.48c0.11-1.333,3.405-3.148,5.416-3.417c4.022-0.538,8.172-0.159,12.262-0.159
		C246.275,231.845,246.275,231.839,246.275,231.827z"/>
	<path fill-rule="evenodd" clip-rule="evenodd" fill="#FFFFFF" d="M258.451,308.643c-4.211,0-8.294,0-12.384,0
		c-19.095-0.013-21.155-2.231-17.971-21.297c0.41-2.493,3.741-6.143,6.021-6.381c7.793-0.813,15.733-0.593,23.6-0.281
		c6.394,0.263,8.111,4.377,6.491,10.006C262.516,296.558,260.493,302.334,258.451,308.643z"/>
	<path fill-rule="evenodd" clip-rule="evenodd" fill="#FFFFFF" d="M318.348,247.584c-8.942,3.698-17.188,6.968-25.312,10.532
		c-6.938,3.038-10.587,1.155-10.832-6.546c-0.098-3.093,0.202-6.204-0.079-9.266c-0.752-8.111,2.824-11.375,10.844-10.575
		c3.74,0.379,7.543,0.067,11.32,0.085C319.729,231.863,319.741,231.875,318.348,247.584z"/>
</g>
</svg>
