<?xml version="1.0" encoding="utf-8"?>
<!-- Generator: Adobe Illustrator 16.0.0, SVG Export Plug-In . SVG Version: 6.00 Build 0)  -->
<!DOCTYPE svg PUBLIC "-//W3C//DTD SVG 1.1//EN" "http://www.w3.org/Graphics/SVG/1.1/DTD/svg11.dtd">
<svg version="1.1" id="Layer_1" xmlns="http://www.w3.org/2000/svg" xmlns:xlink="http://www.w3.org/1999/xlink" x="0px" y="0px"
	 width="512px" height="512px" viewBox="0 0 512 512" enable-background="new 0 0 512 512" xml:space="preserve">
<g>
	<g>
		<linearGradient id="SVGID_1_" gradientUnits="userSpaceOnUse" x1="101.0762" y1="99.9453" x2="417.1487" y2="416.0178">
			<stop  offset="0" style="stop-color:#FF7601"/>
			<stop  offset="1" style="stop-color:#FF0000"/>
		</linearGradient>
		<path fill="url(#SVGID_1_)" d="M481.711,255.581c0,124.261-100.733,225-225,225s-225-100.739-225-225
			c0-124.264,100.733-225,225-225S481.711,131.317,481.711,255.581z"/>
		<linearGradient id="SVGID_2_" gradientUnits="userSpaceOnUse" x1="150.7637" y1="72.0776" x2="362.6592" y2="439.0914">
			<stop  offset="0" style="stop-color:#FF0000"/>
			<stop  offset="1" style="stop-color:#FF6301"/>
		</linearGradient>
		<path fill="url(#SVGID_2_)" d="M468.569,255.581c0,117.011-94.854,211.864-211.858,211.864S44.853,372.592,44.853,255.581
			c0-117.005,94.854-211.858,211.858-211.858S468.569,138.576,468.569,255.581z"/>
	</g>
</g>
<g>
	<path fill-rule="evenodd" clip-rule="evenodd" fill="#FFFFFF" d="M261.032,153.05c-36.381,0-72.549,0-109.089,0
		c-0.214,1.852-0.544,3.478-0.55,5.123c-0.031,19.297,0.116,38.606-0.104,57.891c-0.061,4.743,1.418,6.216,6.167,6.161
		c19.511-0.226,39.028-0.33,58.527,0.128c3.747,0.086,8.606,1.938,10.88,4.676c5.061,6.106-0.006,14.75-8.576,14.988
		c-12.286,0.324-24.591,0.128-36.895,0.134c-12.72,0.006-25.458,0.092-38.166-0.037c-8.411-0.098-11.98-3.643-12.011-12.127
		c-0.098-28.423-0.098-56.846,0-85.266c0.031-8.386,3.71-12.234,11.999-12.25c42.2-0.095,84.407-0.095,126.602,0.009
		c7.738,0.024,11.32,3.594,11.778,11.201c0.245,4.224,0.251,8.5-0.085,12.711c-0.557,6.62-4.242,10.196-9.951,10.196
		c-5.41,0-9.035-3.405-10.043-9.493C261.313,155.887,261.216,154.64,261.032,153.05z"/>
	<path fill-rule="evenodd" clip-rule="evenodd" fill="#FFFFFF" d="M177.689,197.054c2.738,1.259,4.768,2.512,6.968,3.129
		c3.411,0.96,6.938,1.926,10.428,1.975c1.534,0.012,3.105-2.237,4.664-3.448c-1.192-1.503-2.078-3.63-3.619-4.352
		c-3.619-1.699-7.585-2.659-11.345-4.04c-5.819-2.133-9.859-5.789-10.031-12.463c-0.171-6.418,2.94-10.648,8.558-13.637
		c1.828-0.978,2.714-3.618,4.193-5.36c1.143-1.351,2.408-3.319,3.826-3.521c1.375-0.208,4.303,1.412,4.364,2.384
		c0.349,5.599,5.019,5.868,8.417,8.038c2.06,1.345,3.068,4.315,4.554,6.552c-2.372,1.009-4.805,2.928-7.109,2.788
		c-3.472-0.238-6.797-2.433-10.281-2.732c-1.742-0.159-3.686,2.036-5.525,3.154c1.253,1.663,2.151,4.028,3.826,4.847
		c3.576,1.748,7.567,2.641,11.351,3.998c5.947,2.121,9.725,6.173,9.737,12.671c0.018,6.559-3.301,11.021-9.358,13.814
		c-2.054,0.954-3.301,3.527-5.037,5.214c-1.4,1.363-3.038,3.527-4.499,3.472c-1.485-0.073-4.016-2.329-4.107-3.759
		c-0.238-3.838-2.543-4.7-5.434-5.825c-2.714-1.039-5.464-2.463-7.567-4.389c-1.057-0.959-1.381-3.649-0.837-5.128
		C174.346,198.992,176.381,198.111,177.689,197.054z"/>
</g>
<g>
	<path fill-rule="evenodd" clip-rule="evenodd" fill="#FFFFFF" d="M322.523,297.806c-22.151,0-44.297,0.153-66.46-0.055
		c-13.704-0.122-22.451-9.364-22.451-23.057c0-28.337,0.465-56.668-0.256-84.975c-0.245-9.407,10.868-21.131,19.639-21.21
		c9.083-0.073,18.154-0.538,27.231-0.556c32.14-0.08,64.285-0.073,96.418-0.024c4.713,0,9.444,0.214,14.132,0.654
		c12.83,1.186,20.808,10.178,20.808,23.215c0,27.788,0,55.568,0,83.337c0,12.714-9.206,22.438-22.061,22.562
		c-22.329,0.238-44.663,0.073-66.999,0.073C322.523,297.775,322.523,297.794,322.523,297.806z M399.517,215.948
		c-2.427,0-4.205,0-5.978,0c-37.415,0-74.842,0-112.25,0.024c-9.811,0.006-19.621,0.134-29.432,0.171
		c-2.817,0.006-4.853,0.416-4.811,4.132c0.263,17.977,0.171,35.959,0.532,53.931c0.134,7.097,3.166,9.56,10.312,9.578
		c21.986,0.012,43.967,0.042,65.941-0.019c22.164-0.049,44.315-0.165,66.485-0.336c5.538-0.043,9.113-2.959,9.15-7.818
		C399.603,256.015,399.517,236.394,399.517,215.948z M399.309,193.863c0.178-8.02-2.011-10.617-9.059-11.21
		c-2.176-0.178-4.358-0.257-6.528-0.257c-42.139-0.061-84.272-0.116-126.399-0.141c-7.042,0-10.458,4.175-9.651,11.607
		C298.11,193.863,348.557,193.863,399.309,193.863z"/>
	<path fill-rule="evenodd" clip-rule="evenodd" fill="#FFFFFF" d="M282.598,269.646c-8.094,6.198-16.59,6.088-22.207-0.049
		c-4.908-5.354-5.122-14.064-0.489-19.413c5.984-6.876,13.814-7.182,22.751-0.886c10.024-6.027,17.989-5.715,23.197,0.886
		c4.639,5.917,4.376,14.071-0.643,19.37C299.224,275.868,291.711,275.96,282.598,269.646z"/>
</g>
<g>
	<g>
		<path fill-rule="evenodd" clip-rule="evenodd" fill="#FFFFFF" d="M115.403,353.43c1.394-6.553,2.653-12.623,3.967-18.68
			c5.733-26.266,11.485-52.524,17.207-78.796c0.342-1.577,0.428-3.008,2.702-2.995c16.247,0.122,32.53-0.501,48.729,0.366
			c18.894,1.009,29.01,15.379,24.933,33.771c-4.407,19.902-19.15,32.28-39.554,33.026c-6.253,0.226-12.519,0.146-18.777,0.049
			c-2.262-0.031-3.325,0.445-3.808,3.001c-1.663,8.845-3.747,17.61-5.538,26.431c-0.538,2.652-1.314,4.052-4.572,3.93
			C132.432,353.222,124.15,353.43,115.403,353.43z M185.03,280.294c-1.498-4.396-4.322-6.522-8.68-6.632
			c-3.967-0.099-7.946,0.104-11.907-0.086c-2.188-0.104-2.928,0.819-3.313,2.757c-0.941,4.713-2.036,9.383-3.081,14.07
			c-0.764,3.441-1.547,6.883-2.348,10.435c3.399,0,6.223,0,9.249,0c1.265-5.648,2.671-11.112,3.655-16.65
			c0.538-3.044,1.73-4.23,4.926-3.974C177.298,280.526,181.106,280.294,185.03,280.294z M173.062,286.131
			c-1.088,4.872-2.14,9.597-3.215,14.42c8.148-0.404,15.214-7.115,15.544-14.42C181.332,286.131,177.279,286.131,173.062,286.131z"
			/>
		<path fill-rule="evenodd" clip-rule="evenodd" fill="#FFFFFF" d="M162.812,332.598c-2.225,10.281-4.475,20.221-6.467,30.202
			c-0.464,2.329-1.235,3.197-3.686,3.154c-8.515-0.147-17.035-0.056-25.574-0.056c0.312-5.647,0.312-5.647,5.146-5.647
			c6.596,0,13.197,0,19.908,0c2.384-11.137,4.694-21.919,7.097-33.179c6.051,0,12.176,0.324,18.252-0.098
			c5.709-0.397,11.632-0.776,17.005-2.561c19.486-6.486,30.446-26.877,25.789-46.932c-0.074-0.313-0.11-0.63-0.299-1.699
			c5.324,7.322,5.941,14.89,4.382,22.604c-4.322,21.369-19.707,33.918-41.571,34.199
			C176.197,332.672,169.596,332.598,162.812,332.598z"/>
	</g>
	<g>
		<path fill-rule="evenodd" clip-rule="evenodd" fill="#FFFFFF" d="M247.126,346.584c-1.149,0-2.298-0.019-3.447,0
			c-1.565,0.023-2.25,0.525-2.518,2.06c-0.538,3.117-1.04,6.247-1.492,9.376c-0.299,2.023-0.972,2.678-3.05,2.678
			c-1.962,0-3.918,0.012-5.88,0c-1.375-0.013-1.907-0.593-1.699-1.943c0.758-4.909,1.552-9.817,2.322-14.726
			c0.709-4.548,1.412-9.089,2.121-13.637c0.52-3.313,1.033-6.626,1.577-9.927c0.184-1.155,1.015-1.889,2.25-1.883
			c6.027,0.043,12.054,0.006,18.075,0.263c1.803,0.08,3.686,0.776,5.33,1.602c3.087,1.553,4.584,4.321,4.694,7.738
			c0.165,4.854-0.893,9.383-4.047,13.228c-2.365,2.879-5.556,4.315-9.162,4.859c-1.675,0.251-3.38,0.275-5.074,0.397
			C247.126,346.639,247.126,346.614,247.126,346.584z M242.812,337.995c2.047,0,4.028,0.073,5.996-0.036
			c0.85-0.049,1.754-0.349,2.5-0.776c2.402-1.363,2.787-3.735,2.806-6.198c0.012-1.87-0.99-3.228-2.842-3.551
			c-1.834-0.324-3.729-0.392-5.599-0.404c-0.434,0-1.18,0.654-1.259,1.101C243.801,331.406,243.325,334.707,242.812,337.995z"/>
		<path fill-rule="evenodd" clip-rule="evenodd" fill="#FFFFFF" d="M353.826,318.79c2.885,0,5.782-0.159,8.655,0.036
			c3.845,0.27,7.365,1.431,9.419,5.067c1.424,2.524,1.449,5.288,1.009,8.081c-0.575,3.668-1.688,7.091-4.297,9.878
			c-2.464,2.634-5.563,4.01-9.065,4.383c-2.561,0.274-5.165,0.214-7.75,0.257c-2.091,0.042-2.781,0.604-3.1,2.646
			c-0.52,3.307-1.057,6.619-1.559,9.933c-0.135,0.917-0.574,1.461-1.479,1.473c-2.519,0.037-5.037,0.056-7.55,0.007
			c-1.021-0.019-1.442-0.643-1.283-1.633c1.069-6.735,2.157-13.465,3.215-20.195c0.911-5.752,1.81-11.504,2.689-17.262
			c0.367-2.414,0.703-2.738,3.1-2.738c2.665-0.006,5.33,0,7.995,0C353.826,318.747,353.826,318.766,353.826,318.79z
			 M353.043,338.424c1.461-0.172,2.94-0.257,4.377-0.538c2.25-0.435,3.644-1.877,4.163-4.077c0.214-0.881,0.263-1.822,0.269-2.738
			c0.03-2.14-1.168-3.588-3.301-3.857c-1.602-0.201-3.228-0.189-4.848-0.269c-1.088-0.056-1.583,0.477-1.729,1.553
			c-0.323,2.401-0.721,4.798-1.101,7.194C350.452,338.338,350.452,338.338,353.043,338.424z"/>
		<path fill-rule="evenodd" clip-rule="evenodd" fill="#FFFFFF" d="M285.134,357.359c-1.932,1.699-3.924,2.959-6.277,3.473
			c-4.071,0.88-8.014,0.739-11.461-1.975c-2.616-2.072-3.899-4.97-4.102-8.179c-0.428-6.895,2.085-12.543,7.983-16.351
			c4.205-2.714,8.845-3.203,13.575-1.59c1.369,0.465,2.53,1.517,3.82,2.317c0.049-0.239,0.189-0.74,0.263-1.247
			c0.123-0.85,0.636-1.235,1.437-1.241c2.292-0.024,4.591-0.036,6.883,0c1.039,0.019,1.534,0.685,1.382,1.675
			c-0.93,5.855-1.847,11.718-2.775,17.573c-0.36,2.292-0.733,4.585-1.106,6.871c-0.201,1.229-0.898,1.943-2.151,1.986
			c-2.072,0.061-4.145,0.049-6.217,0.006c-0.941-0.019-1.527-0.501-1.424-1.553C285.012,358.613,285.061,358.1,285.134,357.359z
			 M273.123,347.77c-0.067,2.806,1.388,4.933,3.931,5.563c4.571,1.143,9.224-1.395,10.195-6.303
			c0.703-3.545-0.807-6.289-4.022-7.176C278.196,338.46,273.258,342.329,273.123,347.77z"/>
		<path fill-rule="evenodd" clip-rule="evenodd" fill="#FFFFFF" d="M392.921,357.573c-1.711,0.948-3.318,2.128-5.116,2.764
			c-4.016,1.411-8.074,1.394-11.814-0.954c-2.861-1.81-4.377-4.633-4.769-7.897c-0.801-6.797,1.479-12.469,7.023-16.552
			c4.278-3.154,9.12-3.723,14.205-2.231c1.602,0.471,2.861,1.448,3.882,2.977c0.146-0.587,0.257-0.96,0.33-1.345
			c0.293-1.521,0.416-1.638,1.926-1.645c2.065-0.012,4.138-0.024,6.21,0.007c1.271,0.012,1.645,0.464,1.448,1.724
			c-0.807,5.128-1.626,10.257-2.433,15.385c-0.458,2.903-0.898,5.819-1.363,8.729c-0.226,1.418-0.855,1.986-2.298,2.011
			c-1.962,0.031-3.918,0.031-5.88,0c-1.278-0.018-1.706-0.574-1.498-1.846C392.842,358.276,392.885,357.861,392.921,357.573z
			 M388.991,339.518c-0.581,0.073-1.18,0.086-1.748,0.226c-3.979,0.984-6.431,4.065-6.498,8.124
			c-0.049,2.616,1.32,4.621,3.717,5.422c4.028,1.356,8.667-0.819,10.189-4.774C396.521,343.649,393.93,339.554,388.991,339.518z"/>
		<path fill-rule="evenodd" clip-rule="evenodd" fill="#FFFFFF" d="M316.962,348.191c1.699-2.494,3.301-4.829,4.89-7.17
			c1.613-2.378,3.228-4.762,4.829-7.158c0.604-0.904,1.388-1.339,2.5-1.32c2.072,0.049,4.144-0.03,6.216,0.049
			c0.557,0.019,1.357,0.27,1.584,0.679c0.22,0.392,0.018,1.234-0.288,1.681c-7.817,11.375-15.679,22.721-23.515,34.083
			c-0.69,1.003-1.521,1.504-2.763,1.468c-2.035-0.056-4.071,0.036-6.101-0.049c-0.544-0.025-1.32-0.33-1.534-0.746
			c-0.214-0.385,0.019-1.198,0.318-1.639c2.188-3.196,4.425-6.362,6.687-9.505c0.397-0.55,0.471-1.002,0.257-1.613
			c-2.469-7.2-4.927-14.401-7.384-21.607c-0.116-0.349-0.263-0.69-0.33-1.052c-0.189-1.015,0.3-1.699,1.326-1.718
			c2.329-0.042,4.658-0.055,6.987,0.007c1.106,0.024,1.784,0.672,2.108,1.784c1.309,4.438,2.653,8.869,3.985,13.301
			C316.766,347.77,316.821,347.861,316.962,348.191z"/>
		<path fill-rule="evenodd" clip-rule="evenodd" fill="#FFFFFF" d="M411.857,360.6c-0.782,0-1.559,0.006-2.328-0.006
			c-1.773-0.019-2.17-0.483-1.896-2.244c0.367-2.322,0.758-4.646,1.125-6.974c1.026-6.474,2.035-12.952,3.056-19.432
			c0.611-3.888,1.217-7.781,1.834-11.669c0.221-1.363,0.495-1.596,1.901-1.613c1.919-0.025,3.845-0.031,5.771,0
			c1.595,0.03,1.913,0.513,1.656,2.09c-0.862,5.343-1.693,10.697-2.543,16.039c-1.015,6.406-2.035,12.806-3.051,19.206
			c-0.122,0.764-0.22,1.527-0.317,2.298c-0.202,1.596-0.825,2.207-2.438,2.286c-0.924,0.049-1.847,0.006-2.77,0.006
			C411.857,360.594,411.857,360.594,411.857,360.6z"/>
	</g>
</g>
</svg>
