<?xml version="1.0" encoding="utf-8"?>
<!-- Generator: Adobe Illustrator 16.0.0, SVG Export Plug-In . SVG Version: 6.00 Build 0)  -->
<!DOCTYPE svg PUBLIC "-//W3C//DTD SVG 1.1//EN" "http://www.w3.org/Graphics/SVG/1.1/DTD/svg11.dtd">
<svg version="1.1" id="Layer_1" xmlns="http://www.w3.org/2000/svg" xmlns:xlink="http://www.w3.org/1999/xlink" x="0px" y="0px"
	 width="512px" height="512px" viewBox="0 0 512 512" enable-background="new 0 0 512 512" xml:space="preserve">
<linearGradient id="SVGID_1_" gradientUnits="userSpaceOnUse" x1="75.1189" y1="404.0818" x2="391.1927" y2="88.008" gradientTransform="matrix(1 0 0 -1 24.9448 503.3589)">
	<stop  offset="0" style="stop-color:#E20001"/>
	<stop  offset="1" style="stop-color:#8C0000"/>
</linearGradient>
<path fill="url(#SVGID_1_)" d="M480.699,254.914c0,124.262-100.732,225-224.999,225c-124.268,0-225-100.738-225-225
	c0-124.267,100.732-225,225-225C379.967,29.914,480.699,130.647,480.699,254.914z"/>
<linearGradient id="SVGID_2_" gradientUnits="userSpaceOnUse" x1="124.8083" y1="431.95" x2="336.704" y2="64.9359" gradientTransform="matrix(1 0 0 -1 24.9448 503.3589)">
	<stop  offset="0" style="stop-color:#8C0000"/>
	<stop  offset="1" style="stop-color:#E20001"/>
</linearGradient>
<path fill="url(#SVGID_2_)" d="M467.559,254.914c0,117.012-94.854,211.864-211.857,211.864
	c-117.005,0-211.859-94.853-211.859-211.864c0-117.005,94.854-211.857,211.858-211.857
	C372.704,43.056,467.559,137.909,467.559,254.914z"/>
<g opacity="0.6">
	<path d="M285.004,241.491c-10.703,6.993-22.494,4.077-33.645,3.197c-23.611-1.876-46.441-7.807-68.753-15.837
		c-7.708-2.775-12.604-7.879-14.479-15.526c-2.689-10.972-5.116-22.029-7.005-33.16c-1.725-10.171,1.767-15.88,11.57-19.584
		c28.613-10.8,57.255-21.534,85.997-31.985c17.023-6.192,34.646-4.572,52.17-2.744c12.428,1.295,24.816,2.902,37.243,4.192
		c12.897,1.346,18.209,7.14,18.223,20.281c0.006,5.862-0.208,11.736,0.055,17.591c0.373,8.209-1.211,15.569-5.666,22.807
		c-5.587,9.076-6.706,19.725-5.147,30.066c2.916,19.242,6.241,38.454,10.318,57.477c4.407,20.573,8.111,41.027,2.836,61.938
		c-1.143,4.493-2.72,8.961-4.706,13.148c-4.383,9.235-11.205,14.535-22.195,13.826c-8.947-0.574-17.987-0.482-26.954-0.02
		c-8.596,0.452-15.648-2.476-21.927-7.922c-1.92-1.669-3.851-3.325-5.642-5.122c-13.949-13.941-13.753-24.786,0.642-38.354
		c4.103-3.863,5.874-14.054,2.916-18.559c-0.667-1.015-2.604-1.516-4.017-1.656c-6.32-0.636-9.218-3.918-11.718-10.019
		c-4.353-10.605-3.632-18.767,5.818-25.813C287.314,254.963,287.992,248.618,285.004,241.491z M280.438,230.929
		c1.229-0.563,1.95-0.776,2.543-1.181c23.057-15.703,46.161-31.326,69.021-47.304c2.071-1.443,3.446-5.128,3.595-7.861
		c0.464-8.374-0.153-16.803,0.281-25.177c0.316-6.162-2.427-8.252-8.081-8.827c-16.102-1.638-32.151-3.869-48.264-5.336
		c-14.664-1.333-29.097-0.464-43.18,4.977c-23.777,9.206-47.793,17.774-71.706,26.638c-1.448,0.544-2.799,1.381-5.599,2.787
		c30.3,5.239,58.875,10.367,87.53,14.987c5.844,0.941,7.77,3.57,8.436,9.005C276.525,205.972,278.561,218.239,280.438,230.929z
		 M302.197,298.466c0,1.992-0.379,3.813,0.067,5.403c2.391,8.545-0.904,14.756-7.542,19.865c-1.828,1.406-3.717,3.136-4.701,5.135
		c-1.216,2.481-2.523,5.6-2.047,8.1c1.638,8.509,16.045,19.505,24.761,19.528c9.371,0.02,18.804-0.616,28.105,0.189
		c8.001,0.697,11.993-3.093,14.7-9.578c0.973-2.335,1.804-4.737,2.507-7.164c4.847-16.619,3.189-33.153-0.489-49.73
		c-6.606-29.73-15.825-59.145-11.351-91.101c-16.858,11.498-33.13,22.549-49.311,33.723c-0.861,0.605-1.474,2.269-1.412,3.387
		c0.221,3.497,0.429,7.084,1.438,10.396c0.507,1.681,2.555,3.747,4.224,4.083c9.162,1.828,18.398,3.398,27.671,4.604
		c4.512,0.581,6.235,2.774,5.819,6.949c-0.66,6.577-0.825,13.302-2.402,19.67c-3.337,13.49-12.83,19.285-26.441,17.062
		C304.68,298.808,303.555,298.661,302.197,298.466z M171.171,178.716c2.457,11.522,4.713,21.98,6.9,32.451
		c0.899,4.334,3.692,6.65,7.75,7.83c13.271,3.852,26.357,8.588,39.842,11.369c14.4,2.965,29.168,4.103,45.061,6.198
		c-2.194-15.067-4.126-28.258-6.045-41.449C233.537,189.657,202.895,184.278,171.171,178.716z M322.809,274.059
		c-1.394,1.18-2.236,1.692-2.812,2.414c-4.957,6.229-11.016,7.572-18.632,5.294c-5.306-1.597-11.002-1.92-16.521-2.813
		c-0.343,0.679-0.69,1.363-1.033,2.042c2.359,1.589,4.518,3.888,7.115,4.627c5.03,1.438,10.317,1.976,15.482,2.922
		C316.947,290.477,322.369,286.026,322.809,274.059z M288.103,268.074c16.768,6.314,21.761,5.63,28.814-4.297
		c-5.179-0.789-10.337-0.904-15.031-2.445C294.661,258.961,291.109,262.566,288.103,268.074z"/>
	<path d="M154.973,282.988c0,20.936,0,41.547,0,62.557c-4.89,0-9.651,0-14.89,0c0-20.674,0-41.413,0-62.557
		C144.765,282.988,149.551,282.988,154.973,282.988z"/>
	<path d="M201.99,345.759c-5.08,0-9.707,0-14.731,0c0-20.898,0-41.65,0-62.781c4.75,0,9.517,0,14.731,0
		C201.99,303.723,201.99,324.463,201.99,345.759z"/>
	<path d="M175.896,345.69c-3.435,0-6.492,0-9.847,0c0-21.021,0-41.791,0-62.824c3.331,0,6.387,0,9.847,0
		C175.896,303.655,175.896,324.426,175.896,345.69z"/>
	<path d="M223.329,282.891c0,21.069,0,41.682,0,62.665c-3.179,0-6.167,0-9.493,0c0-20.91,0-41.645,0-62.665
		C216.984,282.891,219.832,282.891,223.329,282.891z"/>
</g>
<g>
	<path fill="#FFFFFF" d="M292.004,231.491c-10.703,6.993-22.494,4.077-33.645,3.197c-23.611-1.876-46.441-7.807-68.753-15.837
		c-7.708-2.775-12.604-7.879-14.479-15.526c-2.689-10.972-5.116-22.029-7.005-33.16c-1.725-10.171,1.767-15.88,11.57-19.584
		c28.613-10.8,57.255-21.534,85.997-31.985c17.023-6.192,34.646-4.572,52.17-2.744c12.428,1.295,24.816,2.902,37.243,4.192
		c12.897,1.346,18.209,7.14,18.223,20.281c0.006,5.862-0.208,11.736,0.055,17.591c0.373,8.209-1.211,15.569-5.666,22.807
		c-5.587,9.076-6.706,19.725-5.147,30.066c2.916,19.242,6.241,38.454,10.318,57.477c4.407,20.573,8.111,41.027,2.836,61.938
		c-1.143,4.493-2.72,8.961-4.706,13.148c-4.383,9.235-11.205,14.535-22.195,13.826c-8.947-0.574-17.987-0.482-26.954-0.02
		c-8.596,0.452-15.648-2.476-21.927-7.922c-1.92-1.669-3.851-3.325-5.642-5.122c-13.949-13.941-13.753-24.786,0.642-38.354
		c4.103-3.863,5.874-14.054,2.916-18.559c-0.667-1.015-2.604-1.516-4.017-1.656c-6.32-0.636-9.218-3.918-11.718-10.019
		c-4.353-10.605-3.632-18.767,5.818-25.813C294.314,244.963,294.992,238.618,292.004,231.491z M287.438,220.929
		c1.229-0.563,1.95-0.776,2.543-1.181c23.057-15.703,46.161-31.326,69.021-47.304c2.071-1.443,3.446-5.128,3.595-7.861
		c0.464-8.374-0.153-16.803,0.281-25.177c0.316-6.162-2.427-8.252-8.081-8.827c-16.102-1.638-32.151-3.869-48.264-5.336
		c-14.664-1.333-29.097-0.464-43.18,4.977c-23.777,9.206-47.793,17.774-71.706,26.638c-1.448,0.544-2.799,1.381-5.599,2.787
		c30.3,5.239,58.875,10.367,87.53,14.987c5.844,0.941,7.77,3.57,8.436,9.005C283.525,195.972,285.561,208.239,287.438,220.929z
		 M309.197,288.466c0,1.992-0.379,3.813,0.067,5.403c2.391,8.545-0.904,14.756-7.542,19.865c-1.828,1.406-3.717,3.136-4.701,5.135
		c-1.216,2.481-2.523,5.6-2.047,8.1c1.638,8.509,16.045,19.505,24.761,19.528c9.371,0.02,18.804-0.616,28.105,0.189
		c8.001,0.697,11.993-3.093,14.7-9.578c0.973-2.335,1.804-4.737,2.507-7.164c4.847-16.619,3.189-33.153-0.489-49.73
		c-6.606-29.73-15.825-59.145-11.351-91.101c-16.858,11.498-33.13,22.549-49.311,33.723c-0.861,0.605-1.474,2.269-1.412,3.387
		c0.221,3.497,0.429,7.084,1.438,10.396c0.507,1.681,2.555,3.747,4.224,4.083c9.162,1.828,18.398,3.398,27.671,4.604
		c4.512,0.581,6.235,2.774,5.819,6.949c-0.66,6.577-0.825,13.302-2.402,19.67c-3.337,13.49-12.83,19.285-26.441,17.062
		C311.68,288.808,310.555,288.661,309.197,288.466z M178.171,168.716c2.457,11.522,4.713,21.98,6.9,32.451
		c0.899,4.334,3.692,6.65,7.75,7.83c13.271,3.852,26.357,8.588,39.842,11.369c14.4,2.965,29.168,4.103,45.061,6.198
		c-2.194-15.067-4.126-28.258-6.045-41.449C240.537,179.657,209.895,174.278,178.171,168.716z M329.809,264.059
		c-1.394,1.18-2.236,1.692-2.812,2.414c-4.957,6.229-11.016,7.572-18.632,5.294c-5.306-1.597-11.002-1.92-16.521-2.813
		c-0.343,0.679-0.69,1.363-1.033,2.042c2.359,1.589,4.518,3.888,7.115,4.627c5.03,1.438,10.317,1.976,15.482,2.922
		C323.947,280.477,329.369,276.026,329.809,264.059z M295.103,258.074c16.768,6.314,21.761,5.63,28.814-4.297
		c-5.179-0.789-10.337-0.904-15.031-2.445C301.661,248.961,298.109,252.566,295.103,258.074z"/>
	<path fill="#FFFFFF" d="M161.973,272.988c0,20.936,0,41.547,0,62.557c-4.89,0-9.651,0-14.89,0c0-20.674,0-41.413,0-62.557
		C151.765,272.988,156.551,272.988,161.973,272.988z"/>
	<path fill="#FFFFFF" d="M208.99,335.759c-5.08,0-9.707,0-14.731,0c0-20.898,0-41.65,0-62.781c4.75,0,9.517,0,14.731,0
		C208.99,293.723,208.99,314.463,208.99,335.759z"/>
	<path fill="#FFFFFF" d="M182.896,335.69c-3.435,0-6.492,0-9.847,0c0-21.021,0-41.791,0-62.824c3.331,0,6.387,0,9.847,0
		C182.896,293.655,182.896,314.426,182.896,335.69z"/>
	<path fill="#FFFFFF" d="M230.329,272.891c0,21.069,0,41.682,0,62.665c-3.179,0-6.167,0-9.493,0c0-20.91,0-41.645,0-62.665
		C223.984,272.891,226.832,272.891,230.329,272.891z"/>
</g>
</svg>
