<?xml version="1.0" encoding="utf-8"?>
<!-- Generator: Adobe Illustrator 16.0.0, SVG Export Plug-In . SVG Version: 6.00 Build 0)  -->
<!DOCTYPE svg PUBLIC "-//W3C//DTD SVG 1.1//EN" "http://www.w3.org/Graphics/SVG/1.1/DTD/svg11.dtd">
<svg version="1.1" id="Layer_1" xmlns="http://www.w3.org/2000/svg" xmlns:xlink="http://www.w3.org/1999/xlink" x="0px" y="0px"
	 width="512px" height="512px" viewBox="0 0 512 512" enable-background="new 0 0 512 512" xml:space="preserve">
<g>
	<g>
		<linearGradient id="SVGID_1_" gradientUnits="userSpaceOnUse" x1="99.3706" y1="99.8188" x2="415.4445" y2="415.8927">
			<stop  offset="0" style="stop-color:#00C9FF"/>
			<stop  offset="1" style="stop-color:#0091FF"/>
		</linearGradient>
		<path fill="url(#SVGID_1_)" d="M480.006,255.455c0,124.261-100.733,225-225,225s-225-100.739-225-225
			c0-124.267,100.733-225,225-225S480.006,131.188,480.006,255.455z"/>
		<linearGradient id="SVGID_2_" gradientUnits="userSpaceOnUse" x1="149.0596" y1="71.9507" x2="360.9526" y2="438.9603">
			<stop  offset="0" style="stop-color:#0091FF"/>
			<stop  offset="0.4483" style="stop-color:#0093FF"/>
			<stop  offset="1" style="stop-color:#00C9FF"/>
		</linearGradient>
		<circle fill="url(#SVGID_2_)" cx="255.006" cy="255.455" r="211.858"/>
	</g>
</g>
<g>
	<path fill-rule="evenodd" clip-rule="evenodd" fill="#FFFFFF" d="M337.536,229.954c5.153-5.251,10.159-10.648,15.471-15.728
		c10.435-9.988,22.427-10.605,30.85-1.81c8.276,8.649,7.616,20.043-2.243,30.184c-12.457,12.787-24.859,25.673-37.952,37.787
		c-6.528,6.027-8.875,12.415-8.515,21.076c0.599,13.954,0.281,27.964,0.129,41.95c-0.196,18.056-7.599,25.354-25.654,25.379
		c-41.076,0.036-82.14,0.036-123.203,0c-18.087-0.025-25.471-7.409-25.483-25.478c-0.037-59.224-0.037-118.441,0-177.665
		c0.006-18.099,7.408-25.556,25.379-25.581c34.811-0.049,69.633,0.135,104.45-0.116c9.242-0.067,16.101,3.526,23.24,9.193
		c16.864,13.386,24.321,29.762,21.51,51.345c-1.217,9.322-0.202,18.943-0.202,28.423
		C336.058,229.263,336.803,229.605,337.536,229.954z M281.351,154.55c-2.494-0.36-3.905-0.74-5.317-0.74
		c-30.636-0.042-61.278,0.074-91.907-0.116c-8.429-0.049-9.572,4.798-9.56,11.577c0.085,59.487,0.153,118.979-0.061,178.466
		c-0.031,8.484,3.111,11.62,11.552,11.491c22.311-0.348,44.615-0.115,66.932-0.115c19.328,0,38.667-0.05,57.996,0.012
		c6.002,0.019,10.702-1.143,10.647-8.631c-0.092-13.937-0.024-27.873-0.024-42.47c-10.251,3.362-19.731,6.699-29.353,9.561
		c-8.563,2.536-12.328-1.51-10.042-10.257c4.321-16.583,10.128-32.213,24.608-43.1c4.242-3.178,7.732-7.396,11.388-11.295
		c1.356-1.455,3.154-3.35,3.185-5.061c0.238-16.522,0.141-33.05,0.141-50.055c-10.354,0-19.566-0.385-28.729,0.104
		c-8.704,0.477-11.767-3.441-11.522-11.638C281.57,173.163,281.351,164.025,281.351,154.55z M324.578,278.236
		c11.277-10.844,21.669-20.85,32.322-31.094c-2.683-2.995-5.342-5.966-6.809-7.592c-11.284,11.015-21.736,21.216-31.736,30.984
		C320.348,272.998,322.738,275.95,324.578,278.236z M295.348,179.275c9.133,0,17.409,0,25.679,0
		c0.392-0.703,0.771-1.406,1.168-2.103c-8.233-8.044-16.474-16.088-24.7-24.132c-0.716,0.642-1.431,1.284-2.146,1.932
		C295.348,162.87,295.348,170.755,295.348,179.275z M368.136,240.235c3.179-7.06,5.477-11.412,6.87-16.045
		c0.214-0.703-4.486-4.279-5.63-3.753c-4.034,1.871-7.512,4.945-9.749,6.534C362.592,231.592,364.517,234.593,368.136,240.235z
		 M305.837,278.065c-2.799,7.335-4.755,12.463-7.5,19.676c7.372-3.025,12.348-5.062,18.258-7.476
		C312.646,285.785,309.981,282.766,305.837,278.065z"/>
	<path fill-rule="evenodd" clip-rule="evenodd" fill="#FFFFFF" d="M241.406,220.59c-14.548,0-29.12,0.409-43.643-0.294
		c-3.386-0.165-8.863-3.588-9.426-6.32c-1.149-5.611,4.089-7.005,8.918-7.017c29.395-0.037,58.796-0.043,88.191,0
		c4.779,0.012,10.092,1.302,8.967,6.962c-0.55,2.738-5.996,6.21-9.364,6.369C270.525,220.999,255.953,220.59,241.406,220.59z"/>
	<path fill-rule="evenodd" clip-rule="evenodd" fill="#FFFFFF" d="M227.555,247.375c-10.085,0-20.183-0.049-30.269,0.024
		c-4.982,0.037-9.848-1.357-8.955-6.932c0.416-2.628,5.458-6.351,8.49-6.437c20.758-0.562,41.541-0.562,62.298,0
		c3.045,0.085,8.087,3.784,8.521,6.412c0.923,5.587-3.955,6.987-8.931,6.95C248.331,247.332,237.946,247.375,227.555,247.375z"/>
	<path fill-rule="evenodd" clip-rule="evenodd" fill="#FFFFFF" d="M227.555,274.159c-10.085,0-20.177-0.049-30.263,0.024
		c-4.981,0.03-9.847-1.351-8.961-6.926c0.41-2.634,5.452-6.362,8.49-6.442c20.752-0.562,41.534-0.562,62.298-0.006
		c3.038,0.086,8.081,3.777,8.521,6.406c0.923,5.593-3.949,6.992-8.918,6.968C248.331,274.116,237.946,274.159,227.555,274.159z"/>
	<path fill-rule="evenodd" clip-rule="evenodd" fill="#FFFFFF" d="M227.537,300.944c-10.085,0-20.177-0.049-30.263,0.019
		c-4.987,0.036-9.841-1.369-8.942-6.944c0.422-2.628,5.465-6.339,8.509-6.418c20.758-0.568,41.54-0.568,62.298,0
		c3.038,0.079,8.081,3.796,8.503,6.418c0.904,5.593-3.967,6.98-8.942,6.944C248.313,300.901,237.921,300.944,227.537,300.944z"/>
	<path fill-rule="evenodd" clip-rule="evenodd" fill="#FFFFFF" d="M267.622,341.983c-6.223,0-12.573,0.715-18.612-0.324
		c-2.824-0.482-5.055-4.383-7.549-6.735c2.408-2.146,4.743-6.027,7.249-6.144c13.008-0.617,26.076-0.611,39.083,0.03
		c2.457,0.129,4.719,4.102,7.072,6.303c-2.561,2.285-4.878,6.112-7.727,6.564C280.776,342.668,274.138,341.983,267.622,341.983z"/>
</g>
</svg>
