<?xml version="1.0" encoding="utf-8"?>
<!-- Generator: Adobe Illustrator 16.0.0, SVG Export Plug-In . SVG Version: 6.00 Build 0)  -->
<!DOCTYPE svg PUBLIC "-//W3C//DTD SVG 1.1//EN" "http://www.w3.org/Graphics/SVG/1.1/DTD/svg11.dtd">
<svg version="1.1" id="Layer_1" xmlns="http://www.w3.org/2000/svg" xmlns:xlink="http://www.w3.org/1999/xlink" x="0px" y="0px"
	 width="512px" height="512px" viewBox="0 0 512 512" enable-background="new 0 0 512 512" xml:space="preserve">
<g>
	<g>
		<linearGradient id="SVGID_1_" gradientUnits="userSpaceOnUse" x1="99.645" y1="99.8188" x2="415.7182" y2="415.892">
			<stop  offset="0" style="stop-color:#00C9FF"/>
			<stop  offset="1" style="stop-color:#0091FF"/>
		</linearGradient>
		<path fill="url(#SVGID_1_)" d="M480.28,255.455c0,124.261-100.733,225-225,225s-225-100.739-225-225
			c0-124.267,100.733-225,225-225S480.28,131.188,480.28,255.455z"/>
		<linearGradient id="SVGID_2_" gradientUnits="userSpaceOnUse" x1="149.334" y1="71.9512" x2="361.2271" y2="438.9608">
			<stop  offset="0" style="stop-color:#0091FF"/>
			<stop  offset="0.4483" style="stop-color:#0093FF"/>
			<stop  offset="1" style="stop-color:#00C9FF"/>
		</linearGradient>
		<circle fill="url(#SVGID_2_)" cx="255.28" cy="255.455" r="211.858"/>
	</g>
</g>
<g>
	<path fill-rule="evenodd" clip-rule="evenodd" fill="#FFFFFF" d="M380.213,330.266c-2.536,5.764-4.162,12.194-7.793,17.158
		c-8.222,11.271-20.08,15.274-33.521,12.011c-12.891-3.13-21.394-11.632-24.468-24.75c-3.209-13.655,1.424-24.792,11.889-33.74
		c0.984-0.844,2.134-1.485,3.142-2.177c-4.407-26.24-37.707-53.912-65.642-54.37c0,16.693,0,33.38,0,50.062
		c19.927,8.881,28.558,23.147,24.419,40.336c-3.661,15.251-18.313,26.431-33.667,25.679c-16.088-0.782-29.67-13.105-31.681-28.723
		c-2.194-17.06,7.347-30.898,25.825-37.078c0-16.577,0-33.271,0-50.526c-13.649,1.302-25.727,5.893-36.724,13.497
		c-12.922,8.924-22.121,20.819-28.362,35.171c-1.632,3.741-1.412,5.996,2.078,8.924c11.229,9.426,14.713,24.902,9.291,37.953
		c-5.318,12.806-18.185,21.289-31.522,20.782c-14.646-0.557-27.304-10.146-31.668-23.998c-6.247-19.829,8.258-40.776,29.639-42.279
		c3.771-0.27,4.847-1.767,6.1-4.842c14.254-34.944,40.147-54.987,77.573-60.073c0.55-0.073,1.094-0.244,2.084-0.477
		c0-7.347,0-14.774,0-22.561c-12.83-2.812-23.6-9.12-31.265-20.214c-10.782-15.611-11.143-37.292-0.837-53.319
		c10.568-16.418,30.018-24.609,49.56-20.868c18.423,3.521,33.368,18.606,37.146,37.512c5.043,25.256-10.343,49.114-35.557,55.458
		c-1.455,0.367-3.472,2.359-3.551,3.692c-0.373,6.357-0.165,12.756-0.165,19.493c14.517,1.717,28.001,5.611,40.183,13.068
		c18.796,11.498,32.072,27.665,40.288,48.117c0.702,1.748,3.05,3.729,4.871,3.991c18.271,2.629,27.421,10.972,31.699,29.401
		c0.073,0.33,0.416,0.599,0.636,0.898C380.213,325.742,380.213,328.004,380.213,330.266z"/>
</g>
</svg>
