<?xml version="1.0" encoding="utf-8"?>
<!-- Generator: Adobe Illustrator 16.0.0, SVG Export Plug-In . SVG Version: 6.00 Build 0)  -->
<!DOCTYPE svg PUBLIC "-//W3C//DTD SVG 1.1//EN" "http://www.w3.org/Graphics/SVG/1.1/DTD/svg11.dtd">
<svg version="1.1" id="Layer_1" xmlns="http://www.w3.org/2000/svg" xmlns:xlink="http://www.w3.org/1999/xlink" x="0px" y="0px"
	 width="512px" height="512px" viewBox="0 0 512 512" enable-background="new 0 0 512 512" xml:space="preserve">
<g>
	<g>
		
			<linearGradient id="SVGID_1_" gradientUnits="userSpaceOnUse" x1="76.1384" y1="402.8474" x2="392.2112" y2="86.7745" gradientTransform="matrix(1 0 0 -1 24.9448 503.3589)">
			<stop  offset="0" style="stop-color:#0091FF"/>
			<stop  offset="0.505" style="stop-color:#0087FF"/>
			<stop  offset="1" style="stop-color:#4501EE"/>
		</linearGradient>
		<path fill="url(#SVGID_1_)" d="M481.719,256.147c0,124.261-100.733,225-225,225s-225-100.739-225-225
			c0-124.265,100.733-225,225-225S481.719,131.884,481.719,256.147z"/>
		
			<linearGradient id="SVGID_2_" gradientUnits="userSpaceOnUse" x1="125.824" y1="430.7166" x2="337.7196" y2="63.7026" gradientTransform="matrix(1 0 0 -1 24.9448 503.3589)">
			<stop  offset="0" style="stop-color:#0023FF"/>
			<stop  offset="1" style="stop-color:#007AFF"/>
		</linearGradient>
		<path fill="url(#SVGID_2_)" d="M468.576,256.147c0,117.011-94.854,211.864-211.857,211.864S44.86,373.158,44.86,256.147
			c0-117.005,94.854-211.858,211.858-211.858S468.576,139.143,468.576,256.147z"/>
	</g>
</g>
<g opacity="0.6">
	<path d="M333.785,278.104c-9.341,10.758-17.959,20.685-28.362,32.671c-7.787-9.792-14.572-18.301-21.712-27.269
		c-17.677,20.947-37.713,28.553-61.295,24.358c-18.203-3.233-31.65-13.271-36.027-32.421c-4.743-20.686,0.11-38.71,16.846-52.271
		c18.032-14.603,40-18.364,62.274-20.721c2.738-0.291,5.488-0.399,8.729-0.633c0-6.623,0.563-12.873-0.121-18.979
		c-1.455-13.037-10.734-18.625-23.57-14.967c-10.062,2.873-16.748,9.563-20.979,18.732c-1.992,4.328-4.192,5.861-9.206,5.144
		c-10.452-1.498-21.039-2.075-31.979-3.064c-0.22-14.994,6.528-25.877,16.553-34.948c22.86-20.703,64.768-25.309,91.528-9.826
		c14.156,8.203,22.592,20.251,22.348,37.477c-0.257,18.793,0.6,37.621-0.245,56.385
		C317.819,254.402,320.704,268.959,333.785,278.104z M275.166,227.743c-0.868-1.137-1.725-2.271-2.593-3.405
		c-10.721,3.533-21.991,5.948-32.005,10.931c-9.485,4.728-12.566,16.953-9.254,27.022c2.824,8.558,11.309,13.974,21.21,13.532
		c10.489-0.464,18.388-6.956,20.294-18.496C274.42,247.603,274.445,237.614,275.166,227.743z"/>
	<path d="M143.736,306.331c64.817,45,132.678,51.395,203.852,15.716c0.563,1.553,1.124,3.104,1.687,4.664
		c-4.069,4.053-7.628,8.819-12.286,12.034c-38.838,26.858-81.074,33.233-125.952,18.777c-24.182-7.787-44.977-21.687-63.021-39.584
		c-2.286-2.262-4.071-5.019-6.076-7.549C142.538,309.039,143.137,307.682,143.736,306.331z"/>
	<path d="M327.354,313.58c12.249-7.916,25.636-9.792,39.756-5.824c1.956,0.55,4.584,4.047,4.4,5.94
		c-1.296,13.895-5.306,26.638-19.254,34.377c2.054-6.138,4.267-12.226,6.148-18.417c3.644-11.985,1.662-14.768-10.624-14.658
		c-6.661,0.057-13.324,0.66-19.986,1.021C327.647,315.206,327.501,314.394,327.354,313.58z"/>
</g>
<g>
	<path fill="#FFFFFF" d="M343.785,268.104c-9.341,10.758-17.959,20.685-28.362,32.671c-7.787-9.792-14.572-18.301-21.712-27.269
		c-17.677,20.947-37.713,28.553-61.295,24.358c-18.203-3.233-31.65-13.271-36.027-32.421c-4.743-20.686,0.11-38.71,16.846-52.271
		c18.032-14.603,40-18.364,62.274-20.721c2.738-0.291,5.488-0.399,8.729-0.633c0-6.623,0.563-12.873-0.121-18.979
		c-1.455-13.037-10.734-18.625-23.57-14.967c-10.062,2.873-16.748,9.563-20.979,18.732c-1.992,4.328-4.192,5.861-9.206,5.144
		c-10.452-1.498-21.039-2.075-31.979-3.064c-0.22-14.994,6.528-25.877,16.553-34.948c22.86-20.703,64.768-25.309,91.528-9.826
		c14.156,8.203,22.592,20.251,22.348,37.477c-0.257,18.793,0.6,37.621-0.245,56.385
		C327.819,244.402,330.704,258.959,343.785,268.104z M285.166,217.743c-0.868-1.137-1.725-2.271-2.593-3.405
		c-10.721,3.533-21.991,5.948-32.005,10.931c-9.485,4.728-12.566,16.953-9.254,27.022c2.824,8.558,11.309,13.974,21.21,13.532
		c10.489-0.464,18.388-6.956,20.294-18.496C284.42,237.603,284.445,227.614,285.166,217.743z"/>
	<path fill="#FFFFFF" d="M153.736,296.331c64.817,45,132.678,51.395,203.852,15.716c0.563,1.553,1.124,3.104,1.687,4.664
		c-4.069,4.053-7.628,8.819-12.286,12.034c-38.838,26.858-81.074,33.233-125.952,18.777c-24.182-7.787-44.977-21.687-63.021-39.584
		c-2.286-2.262-4.071-5.019-6.076-7.549C152.538,299.039,153.137,297.682,153.736,296.331z"/>
	<path fill="#FFFFFF" d="M337.354,303.58c12.249-7.916,25.636-9.792,39.756-5.824c1.956,0.55,4.584,4.047,4.4,5.94
		c-1.296,13.895-5.306,26.638-19.254,34.377c2.054-6.138,4.267-12.226,6.148-18.417c3.644-11.985,1.662-14.768-10.624-14.658
		c-6.661,0.057-13.324,0.66-19.986,1.021C337.647,305.206,337.501,304.394,337.354,303.58z"/>
</g>
</svg>
