<?xml version="1.0" encoding="utf-8"?>
<!-- Generator: Adobe Illustrator 16.0.0, SVG Export Plug-In . SVG Version: 6.00 Build 0)  -->
<!DOCTYPE svg PUBLIC "-//W3C//DTD SVG 1.1//EN" "http://www.w3.org/Graphics/SVG/1.1/DTD/svg11.dtd">
<svg version="1.1" id="Layer_1" xmlns="http://www.w3.org/2000/svg" xmlns:xlink="http://www.w3.org/1999/xlink" x="0px" y="0px"
	 width="512px" height="512px" viewBox="0 0 512 512" enable-background="new 0 0 512 512" xml:space="preserve">
<g>
	<g>
		<linearGradient id="SVGID_1_" gradientUnits="userSpaceOnUse" x1="100.1147" y1="99.8188" x2="416.1879" y2="415.892">
			<stop  offset="0" style="stop-color:#00C9FF"/>
			<stop  offset="1" style="stop-color:#0091FF"/>
		</linearGradient>
		<path fill="url(#SVGID_1_)" d="M480.75,255.455c0,124.261-100.733,225-225,225s-225-100.739-225-225
			c0-124.267,100.733-225,225-225S480.75,131.188,480.75,255.455z"/>
		<linearGradient id="SVGID_2_" gradientUnits="userSpaceOnUse" x1="149.8037" y1="71.9507" x2="361.6973" y2="438.9611">
			<stop  offset="0" style="stop-color:#0091FF"/>
			<stop  offset="0.4483" style="stop-color:#0093FF"/>
			<stop  offset="1" style="stop-color:#00C9FF"/>
		</linearGradient>
		<circle fill="url(#SVGID_2_)" cx="255.75" cy="255.455" r="211.858"/>
	</g>
</g>
<g>
	<g>
		<path fill-rule="evenodd" clip-rule="evenodd" fill="#FFFFFF" d="M363.513,202.307c17.635,0.685,30.874,8.594,38.081,24.872
			c7.182,16.204,5.024,31.883-6.962,44.927c-13.16,14.315-27.061,27.995-41.247,41.296c-15.495,14.535-40.941,14.071-56.033-0.214
			c-5.923-5.611-6.846-12.348-2.433-17.812c4.614-5.728,11.724-6.162,18.361-1.125c9.634,7.316,17.488,6.846,26.125-1.724
			c11.589-11.491,23.154-23.02,34.646-34.609c7.879-7.952,8.361-18.648,1.332-25.647c-7.182-7.151-17.493-6.65-25.629,1.333
			c-6.271,6.155-12.531,12.329-18.612,18.667c-2.599,2.702-4.878,3.521-8.771,2.274c-5.099-1.638-10.636-1.822-15.93-2.916
			c-1.613-0.33-3.624-1.247-4.364-2.531c-0.525-0.917,0.324-3.313,1.309-4.309c11.033-11.155,21.895-22.519,33.466-33.105
			C344.137,205.021,353.396,202.075,363.513,202.307z"/>
		<path fill-rule="evenodd" clip-rule="evenodd" fill="#FFFFFF" d="M226.49,339.073c-0.055-11.259,3.802-21.008,11.583-28.967
			c12.867-13.172,25.8-26.277,39.046-39.064c15.88-15.33,41.186-15.611,56.993-1.052c6.253,5.765,7.219,12.623,2.566,18.276
			c-4.468,5.435-11.9,5.703-18.459,0.66c-9.01-6.919-17.151-6.516-25.171,1.418c-11.89,11.772-23.754,23.589-35.538,35.471
			c-8.093,8.167-8.448,18.381-1.082,25.563c7.097,6.913,17.365,6.534,25.171-1.088c6.589-6.431,12.854-13.203,19.67-19.37
			c1.736-1.565,5.098-2.115,7.598-1.883c5.568,0.52,11.082,1.76,16.59,2.873c1.503,0.306,3.875,0.966,4.102,1.889
			c0.36,1.479-0.232,3.82-1.314,4.914c-11.015,11.168-21.62,22.854-33.527,33.008c-13.044,11.118-28.563,12.671-44.077,5.348
			C234.864,369.63,227.009,356.507,226.49,339.073z"/>
	</g>
	<g>
		<path fill-rule="evenodd" clip-rule="evenodd" fill="#FFFFFF" d="M301.948,277.228c-6.039,6.461-12.433,13.301-18.998,20.33
			c-0.874-0.715-2.048-1.559-3.099-2.536c-20.471-19.107-14.379-13.133-35.082-32.479c4.89-5.465,2.341-2.61,6.735-7.531
			c-6.864-6.265,6.897,7.289,0.113,1.085c-36.155,31.926-82.311,20.716-104.97-5.33c-24.859-28.576-24.333-70.776,1.4-98.294
			c25.728-27.524,67.775-30.856,97.983-7.964c27.5,20.843,41.772,66.283,11.962,104.841c6.583,6.112-7.344-7.484-0.431-1.066
			c4.786-4.578,1.699-1.626,6.559-6.283C285.796,262.311,280.72,257.338,301.948,277.228z M199.576,141.091
			c-33.991,1.045-60.599,29.383-59.431,63.289c1.18,34.077,29.37,60.397,63.435,59.23c33.771-1.155,59.938-29.016,59.096-62.922
			C261.832,166.781,233.531,140.052,199.576,141.091z"/>
		<path fill-rule="evenodd" clip-rule="evenodd" fill="#FFFFFF" d="M193.66,207.246c7.09,0.184,14.187,0.514,21.277,0.477
			c3.515-0.018,4.597,1.314,4.835,4.75c0.917,13.276,1.033,13.246-12.304,14.419c-6.027,0.532-12.036,1.345-18.075,1.705
			c-8.056,0.489-10.611-2.151-10.856-10.642c-0.226-7.928,2.25-10.568,10.11-10.789c1.668-0.049,3.337-0.11,5.006-0.165
			C193.66,207.087,193.66,207.167,193.66,207.246z"/>
		<path fill-rule="evenodd" clip-rule="evenodd" fill="#FFFFFF" d="M203.079,195.278c-11.088,0.941-21.81,2.109-32.562,2.653
			c-5.397,0.269-8.227-3.007-8.545-8.588c-0.453-7.916,1.296-12.305,6.907-12.506c11.143-0.403,22.329,0.239,33.606,0.458
			C202.7,183.683,202.877,189.196,203.079,195.278z"/>
		<path fill-rule="evenodd" clip-rule="evenodd" fill="#FFFFFF" d="M211.3,193.56c-0.165-5.08-0.318-9.59-0.489-14.847
			c5.037-0.893,10.263-1.999,14.126,2.537c1.406,1.656,2.036,5.421,1.125,7.322C223.213,194.532,217.382,193.817,211.3,193.56z"/>
		<path fill-rule="evenodd" clip-rule="evenodd" fill="#FFFFFF" d="M227.522,207.209c5.446,1.828,10.22,2.763,14.15,5.116
			c1.29,0.77,1.498,6.821,0.275,7.665c-3.771,2.61-8.472,3.863-13.808,6.051C227.908,219.062,227.749,214.196,227.522,207.209z"/>
	</g>
</g>
</svg>
