<?xml version="1.0" encoding="utf-8"?>
<!-- Generator: Adobe Illustrator 16.0.0, SVG Export Plug-In . SVG Version: 6.00 Build 0)  -->
<!DOCTYPE svg PUBLIC "-//W3C//DTD SVG 1.1//EN" "http://www.w3.org/Graphics/SVG/1.1/DTD/svg11.dtd">
<svg version="1.1" id="Layer_1" xmlns="http://www.w3.org/2000/svg" xmlns:xlink="http://www.w3.org/1999/xlink" x="0px" y="0px"
	 width="512px" height="512px" viewBox="0 0 512 512" enable-background="new 0 0 512 512" xml:space="preserve">
<g>
	<g>
		<linearGradient id="SVGID_1_" gradientUnits="userSpaceOnUse" x1="100.1538" y1="99.6938" x2="416.227" y2="415.767">
			<stop  offset="0" style="stop-color:#0000FF"/>
			<stop  offset="1" style="stop-color:#000083"/>
		</linearGradient>
		<path fill="url(#SVGID_1_)" d="M480.789,255.33c0,124.261-100.733,225-225,225s-225-100.739-225-225
			c0-124.267,100.733-225,225-225S480.789,131.063,480.789,255.33z"/>
		<linearGradient id="SVGID_2_" gradientUnits="userSpaceOnUse" x1="149.8428" y1="71.8257" x2="361.7358" y2="438.8353">
			<stop  offset="0" style="stop-color:#000083"/>
			<stop  offset="1" style="stop-color:#0000FF"/>
		</linearGradient>
		<circle fill="url(#SVGID_2_)" cx="255.789" cy="255.33" r="211.858"/>
	</g>
</g>
<g>
	<path fill-rule="evenodd" clip-rule="evenodd" fill="#FFFFFF" d="M294.255,301.076c-2.194,0-3.899,0-5.788,0
		c0-3.484,0-6.901,0-10.44c-24.114,0-48.057,0-72.152,0c0,36.65,0,73.337,0,110.141c23.961,0,47.903,0,72.023,0
		c0-12.794,0-25.575,0-38.509c1.969,0,3.766,0,5.66,0c0.03,0.557,0.073,1.076,0.073,1.596c0.007,14.419,0.019,28.838-0.019,43.264
		c-0.006,1.767-0.128,3.57-0.501,5.294c-1.283,6.008-5.568,9.816-11.901,10.116c-6.576,0.312-13.172,0.226-19.755,0.244
		c-11.449,0.037-22.903,0.03-34.358-0.006c-1.882-0.013-3.814-0.086-5.66-0.44c-6.602-1.277-10.489-5.55-10.746-12.274
		c-0.281-7.114-0.196-14.241-0.202-21.362c-0.012-35.428-0.012-70.85,0.019-106.271c0-1.95,0.091-3.931,0.446-5.844
		c1.223-6.431,5.416-10.293,11.975-10.636c6.033-0.324,12.096-0.244,18.142-0.257c11.993-0.036,23.979-0.036,35.966,0.013
		c2.06,0.006,4.168,0.141,6.18,0.544c5.599,1.118,9.492,4.743,9.933,10.415C294.218,284.737,294.071,292.854,294.255,301.076z
		 M252.586,281.271c4.45,0,8.894,0.012,13.344,0c2.402-0.013,3.888-1.247,3.869-3.185c-0.019-1.926-1.51-3.166-3.937-3.166
		c-8.948-0.019-17.903-0.019-26.858,0.006c-2.354,0.006-3.71,1.186-3.729,3.13c-0.024,2.047,1.333,3.215,3.796,3.215
		C243.583,281.283,248.081,281.271,252.586,281.271z"/>
	<path fill-rule="evenodd" clip-rule="evenodd" fill="#FFFFFF" d="M285.918,306.388c9.553,0,19.107,0,28.661,0.006
		c5.36,0,8.466,3.105,8.472,8.521c0.024,10.917,0.024,21.84,0.012,32.757c-0.012,5.367-3.153,8.509-8.526,8.509
		c-12.164,0.024-24.328,0.067-36.485-0.049c-2.225-0.024-3.588,0.593-4.731,2.487c-1.503,2.476-3.307,4.78-4.993,7.14
		c-1.26,1.767-2.164,1.772-3.411,0.03c-1.999-2.793-3.931-5.647-6.003-8.392c-0.445-0.594-1.369-1.113-2.108-1.168
		c-5.189-0.367-8.068-3.295-8.081-8.453c-0.024-10.856-0.024-21.712-0.012-32.574c0.012-5.88,2.971-8.795,8.912-8.808
		C267.061,306.381,276.486,306.388,285.918,306.388z M279.939,332.494c0.135-0.019,0.257-0.024,0.385-0.037
		c0.563,2.225,1.119,4.45,1.699,6.669c0.416,1.638,1.082,3.044,3.124,3.05c2.048,0.006,2.695-1.405,3.123-3.044
		c0.551-2.097,1.07-4.193,1.596-6.29c0.146,0.019,0.293,0.025,0.44,0.037c0,2.146-0.049,4.297,0.018,6.449
		c0.056,1.889,0.96,2.866,2.47,2.842c1.534-0.012,2.421-0.953,2.445-2.86c0.042-5.214,0.036-10.435-0.024-15.654
		c-0.007-0.654-0.251-1.474-0.691-1.919c-1.852-1.907-6.253-0.808-6.974,1.699c-0.636,2.225-1.192,4.468-1.798,6.692
		c-0.134,0.514-0.336,1.015-0.678,1.987c-0.771-2.886-1.4-5.227-2.029-7.562c-0.941-3.509-1.461-3.888-5.092-3.625
		c-2.127,0.159-2.916,0.893-2.935,2.983c-0.042,5.104-0.042,10.208,0,15.306c0.024,2.023,0.936,2.989,2.537,2.946
		c1.528-0.043,2.335-0.984,2.378-2.928C279.977,336.986,279.939,334.743,279.939,332.494z M262.904,342.194
		c0.312-0.024,0.904-0.024,1.491-0.092c3.826-0.403,6.363-2.726,6.761-6.174c0.366-3.245-1.363-5.477-5.288-6.729
		c-1.521-0.482-3.123-0.771-4.597-1.357c-0.653-0.263-1.1-1.045-1.644-1.589c0.611-0.495,1.161-1.204,1.858-1.418
		c1.803-0.557,2.903,0.067,4.144,2.108c0.752,1.247,1.675,2.029,3.209,1.345c1.266-0.556,2.005-2.078,1.211-3.44
		c-0.752-1.314-1.913-2.586-3.203-3.356c-2.176-1.283-4.7-1.106-7.108-0.563c-3.148,0.709-5,2.806-5.147,5.575
		c-0.128,2.695,1.431,4.816,4.505,5.886c1.614,0.563,3.355,0.813,4.921,1.479c0.776,0.336,1.283,1.309,1.913,1.986
		c-0.733,0.66-1.363,1.682-2.219,1.932c-2.329,0.685-3.436-0.019-4.609-2.408c-0.85-1.729-1.955-2.329-3.343-1.815
		c-1.363,0.508-1.877,1.993-1.217,3.759c0.245,0.654,0.581,1.314,0.997,1.871C257.317,341.54,259.836,342.194,262.904,342.194z
		 M307.813,342.2c0.587-0.03,1.186-0.024,1.772-0.104c2.249-0.318,4.229-1.174,5.556-3.117c2.244-3.252,1.149-7.513-2.493-9.09
		c-2.042-0.886-4.291-1.296-6.399-2.078c-0.605-0.226-1.021-0.99-1.517-1.504c0.593-0.495,1.101-1.234,1.779-1.454
		c1.815-0.605,2.995,0.036,4.168,2.035c0.733,1.247,1.626,2.072,3.173,1.424c1.369-0.58,2.09-2.121,1.216-3.551
		c-0.818-1.333-2.029-2.702-3.398-3.362c-2.787-1.345-5.801-1.143-8.612,0.147c-2.316,1.063-3.466,2.958-3.331,5.568
		c0.122,2.493,1.516,4.102,3.716,4.951c1.98,0.764,4.096,1.167,6.076,1.938c0.623,0.25,1.382,1.155,1.382,1.76
		c-0.013,0.624-0.728,1.485-1.357,1.822c-2.023,1.069-4.181,0.256-5.195-1.798c-0.238-0.47-0.373-1.161-0.758-1.369
		c-0.825-0.421-1.871-0.966-2.641-0.764c-0.66,0.177-1.59,1.424-1.479,2.017c0.263,1.449,0.825,2.983,1.729,4.108
		C302.831,341.81,305.288,342.237,307.813,342.2z"/>
</g>
<g>
	<path fill-rule="evenodd" clip-rule="evenodd" fill="#FFFFFF" d="M147.048,143.117c19.126,0,37.542,0,56.534,0
		c0,13.301,0.11,26.339-0.184,39.364c-0.03,1.18-2.622,3.283-4.04,3.307c-16.058,0.232-32.109,0.245-48.16-0.043
		c-1.406-0.031-3.937-2.549-3.967-3.961C146.92,169.083,147.048,156.363,147.048,143.117z M165.257,169.902v0.024
		c3.313,0,6.644,0.177,9.927-0.11c0.984-0.085,1.852-1.473,2.769-2.262c-0.905-0.8-1.785-2.273-2.714-2.298
		c-6.266-0.202-12.543-0.189-18.814,0.024c-0.85,0.03-1.645,1.626-2.457,2.488c0.807,0.715,1.552,1.962,2.408,2.035
		C159.322,170.061,162.299,169.902,165.257,169.902z M165.783,161.76c3.307,0,6.613,0.141,9.902-0.104
		c0.789-0.061,2.06-1.399,2.066-2.157c0-0.752-1.302-2.14-2.06-2.164c-6.431-0.177-12.854-0.177-19.279-0.024
		c-0.837,0.019-1.638,1.241-2.451,1.907c0.813,0.85,1.571,2.353,2.458,2.438C159.512,161.962,162.66,161.767,165.783,161.76z
		 M166.29,173.166c0,0.013,0,0.024,0,0.031c-3.3,0-6.613-0.183-9.877,0.116c-0.88,0.085-1.632,1.626-2.445,2.488
		c0.825,0.654,1.638,1.846,2.481,1.87c6.247,0.165,12.494,0.196,18.729,0.006c0.936-0.037,1.822-1.442,2.727-2.207
		c-0.923-0.764-1.785-2.097-2.775-2.194C172.207,172.977,169.236,173.166,166.29,173.166z"/>
	<path fill-rule="evenodd" clip-rule="evenodd" fill="#FFFFFF" d="M280.019,143.136c0,13.166-0.018,25.874,0.019,38.594
		c0.006,3.185-1.662,4.23-4.615,4.224c-15.886-0.043-31.766,0.067-47.64-0.171c-1.449-0.018-4.083-2.084-4.107-3.239
		c-0.293-13.038-0.184-26.076-0.184-39.407C242.427,143.136,260.838,143.136,280.019,143.136z M242.28,169.902
		c3.136,0,6.284,0.152,9.401-0.098c0.862-0.061,1.644-1.295,2.457-1.986c-0.807-0.893-1.595-2.506-2.427-2.537
		c-6.265-0.22-12.549-0.232-18.808-0.031c-0.948,0.031-1.84,1.473-2.763,2.262c0.917,0.801,1.76,2.201,2.738,2.292
		C235.997,170.11,239.145,169.92,242.28,169.902z M241.914,161.785c3.129,0,6.271,0.177,9.376-0.098
		c1.003-0.085,1.895-1.351,2.836-2.078c-0.856-0.801-1.699-2.255-2.585-2.286c-6.247-0.202-12.506-0.208-18.759-0.006
		c-0.893,0.024-1.748,1.498-2.61,2.311c0.959,0.722,1.864,1.962,2.891,2.066C235.991,161.974,238.961,161.791,241.914,161.785z
		 M242.048,177.769c3.124,0,6.265,0.171,9.364-0.104c0.959-0.085,1.809-1.4,2.714-2.151c-0.911-0.776-1.791-2.201-2.72-2.231
		c-6.241-0.195-12.494-0.195-18.741,0.019c-0.856,0.037-1.656,1.602-2.481,2.463c0.825,0.666,1.62,1.84,2.494,1.907
		C235.789,177.903,238.919,177.763,242.048,177.769z"/>
	<path fill-rule="evenodd" clip-rule="evenodd" fill="#FFFFFF" d="M299.934,143.117c18.979,0,37.42,0,56.442,0
		c0,13.301,0.116,26.357-0.184,39.413c-0.03,1.162-2.738,3.234-4.212,3.252c-15.91,0.232-31.821,0.232-47.726,0
		c-1.455-0.018-4.114-2.09-4.132-3.258C299.817,169.48,299.934,156.437,299.934,143.117z M318.717,169.933c0,0.012,0,0.037,0,0.055
		c2.971,0,5.96,0.189,8.906-0.092c1.039-0.11,1.98-1.351,2.958-2.072c-1.009-0.887-1.98-2.488-3.025-2.525
		c-6.106-0.25-12.225-0.232-18.338-0.03c-0.929,0.037-1.815,1.491-2.72,2.292c0.923,0.789,1.797,2.164,2.793,2.262
		C312.409,170.116,315.569,169.933,318.717,169.933z M318.308,161.772c3.142,0,6.302,0.177,9.419-0.092
		c1.009-0.091,1.913-1.351,2.867-2.072c-0.868-0.813-1.706-2.298-2.592-2.329c-6.284-0.183-12.573-0.177-18.852,0.043
		c-0.904,0.031-1.766,1.492-2.64,2.292c0.959,0.721,1.882,1.968,2.903,2.066C312.354,161.962,315.337,161.785,318.308,161.772z
		 M318.222,177.769c3.142,0,6.296,0.171,9.413-0.098c1.015-0.085,1.938-1.326,2.897-2.035c-0.868-0.832-1.718-2.354-2.616-2.384
		c-6.271-0.208-12.555-0.214-18.826-0.006c-0.898,0.024-1.754,1.541-2.629,2.366c0.954,0.721,1.858,1.98,2.873,2.072
		C312.28,177.971,315.258,177.781,318.222,177.769z"/>
	<path fill-rule="evenodd" clip-rule="evenodd" fill="#FFFFFF" d="M280.007,137.225c-19.132,0-37.433,0-56.479,0
		c0-7.756-0.165-15.366,0.184-22.958c0.049-1.058,2.555-2.861,3.955-2.879c16.058-0.196,32.127-0.232,48.185,0.055
		c1.411,0.024,3.888,2.519,3.973,3.979C280.239,122.519,280.007,129.651,280.007,137.225z M250.422,130.184
		c0.752,0.049,1.503,0.098,2.25,0.152c1.424-2.005,3.979-4.046,3.924-6.015c-0.049-1.729-2.769-4.376-4.737-4.841
		c-3.136-0.74-5.581,1.742-5.165,4.902C246.963,126.449,249.114,128.264,250.422,130.184z M273.895,125.452
		c0.018-0.776,0.03-1.559,0.055-2.329c-2.06-1.296-4.205-3.704-6.155-3.558c-1.767,0.134-4.364,2.867-4.731,4.804
		c-0.562,3.081,1.896,5.52,5.123,4.921C270.251,128.912,271.999,126.791,273.895,125.452z M233.919,130.238
		c0.776,0.012,1.552,0.031,2.329,0.037c1.424-1.828,3.637-3.478,4.083-5.52c0.697-3.172-1.595-5.751-4.737-5.281
		c-1.969,0.306-4.835,2.757-5.037,4.505C230.325,125.911,232.696,128.142,233.919,130.238z"/>
	<path fill-rule="evenodd" clip-rule="evenodd" fill="#FFFFFF" d="M203.527,137.231c-19.132,0-37.42,0-56.406,0
		c0-7.763-0.159-15.373,0.183-22.964c0.049-1.058,2.592-2.861,3.998-2.879c15.874-0.214,31.76-0.245,47.628,0.006
		c1.553,0.031,4.31,2.237,4.389,3.558C203.748,122.207,203.527,129.511,203.527,137.231z M176.73,118.405
		c-0.795-0.012-1.596-0.031-2.396-0.037c-1.406,1.999-4.089,4.168-3.857,5.959c0.244,1.901,3.111,4.499,5.116,4.78
		c1.43,0.202,4.572-2.818,4.7-4.572C180.435,122.592,178.032,120.458,176.73,118.405z M192.696,118.368
		c-0.764,0.042-1.522,0.079-2.286,0.116c-1.308,1.919-3.942,4.125-3.606,5.69c0.446,2.029,3.075,4.59,5.085,4.915
		c1.375,0.226,4.59-2.934,4.652-4.67C196.614,122.451,194.096,120.391,192.696,118.368z M165.007,125.709
		c0.006-0.758,0.012-1.528,0.012-2.286c-1.871-1.381-3.588-3.551-5.654-3.967c-3.166-0.648-5.74,1.626-5.202,4.786
		c0.336,1.943,2.849,4.737,4.578,4.89C160.716,129.303,162.91,126.962,165.007,125.709z"/>
	<path fill-rule="evenodd" clip-rule="evenodd" fill="#FFFFFF" d="M356.406,137.225c-19.089,0-37.39,0-56.54,0
		c0-7.738-0.165-15.33,0.184-22.903c0.049-1.082,2.536-2.916,3.905-2.934c16.063-0.202,32.127-0.238,48.185,0.055
		c1.449,0.024,3.985,2.476,4.077,3.912C356.639,122.457,356.406,129.597,356.406,137.225z M343.186,130.312
		c0.758-0.03,1.516-0.061,2.273-0.085c1.351-1.901,3.545-3.673,3.875-5.727c0.502-3.173-1.906-5.697-5.049-5.043
		c-1.98,0.416-4.768,3.007-4.865,4.749C339.31,126.167,341.822,128.27,343.186,130.312z M317.696,125.312c0-0.752,0-1.497,0-2.249
		c-2.108-1.266-4.31-3.643-6.29-3.472c-1.772,0.153-4.383,2.958-4.676,4.89c-0.465,3.068,2.066,5.477,5.281,4.804
		C314.096,128.857,315.813,126.693,317.696,125.312z M326.553,130.245c0.776,0.006,1.559,0.024,2.342,0.03
		c1.418-1.828,3.624-3.496,4.053-5.532c0.66-3.142-1.547-5.789-4.731-5.287c-1.956,0.312-4.762,2.775-4.964,4.523
		C323.032,125.917,325.343,128.142,326.553,130.245z"/>
	<path fill-rule="evenodd" clip-rule="evenodd" fill="#FFFFFF" d="M199.554,224.792c12.922,0.019,25.832,0.006,38.747,0.006
		c2.054,0,4.114,0,6.167,0c0.44,0.471,0.88,0.941,1.308,1.412c-1.223,2.005-2.029,4.523-3.759,5.911
		c-5.214,4.175-7.488,10.055-5.611,16.223c1.846,6.088,6.895,9.859,13.283,9.914c6.308,0.062,11.779-3.753,13.637-9.517
		c1.998-6.173-0.159-12.072-5.361-16.296c-1.797-1.46-2.799-3.887-4.168-5.874c0.52-0.624,1.039-1.241,1.553-1.864
		c2.585,0,5.165-0.006,7.762,0c9.353,0.018,18.705,0.055,28.057,0.067l16.913-0.006c1.449-0.006,2.897-0.006,4.347-0.012
		c9.254-0.042,16.546-5.031,17.83-13.148c0.923-5.88,0.177-12.035,0.177-18.099c-3.057,0-5.776,0-8.979,0
		c0,4.462,0.11,8.625-0.03,12.787c-0.184,5.776-3.093,8.875-8.753,8.912c-18.362,0.11-36.73,0.067-55.098,0.049
		c-0.813,0-1.626-0.312-2.995-0.587c0-7.072,0-13.991,0-21.1c-3.466,0-6.296,0-9.652,0c0,7.28,0,14.199,0,21.399
		c-1.84,0.116-3.203,0.263-4.566,0.269c-13.515,0.012-27.029,0.024-40.538,0.006c0.012-0.214,0.031-0.434,0.043-0.66
		c-0.275,0.226-0.55,0.446-0.832,0.66c-4.413,0-8.826,0-13.246-0.012c-6.999-0.013-9.737-2.806-9.878-9.915
		c-0.073-3.924-0.018-7.867-0.018-11.803c-3.686,0-6.394,0-9.572,0c0,3.942-0.012,7.58,0,11.223
		c0.031,13.264,6.73,20.012,20.024,20.042c0.299,0,0.599,0,0.899,0L199.554,224.792z"/>
</g>
</svg>
