<?xml version="1.0" encoding="utf-8"?>
<!-- Generator: Adobe Illustrator 16.0.0, SVG Export Plug-In . SVG Version: 6.00 Build 0)  -->
<!DOCTYPE svg PUBLIC "-//W3C//DTD SVG 1.1//EN" "http://www.w3.org/Graphics/SVG/1.1/DTD/svg11.dtd">
<svg version="1.1" id="Layer_1" xmlns="http://www.w3.org/2000/svg" xmlns:xlink="http://www.w3.org/1999/xlink" x="0px" y="0px"
	 width="512px" height="512px" viewBox="0 0 512 512" enable-background="new 0 0 512 512" xml:space="preserve">
<g>
	<g>
		<linearGradient id="SVGID_1_" gradientUnits="userSpaceOnUse" x1="100.6792" y1="100.8657" x2="416.7517" y2="416.9382">
			<stop  offset="0" style="stop-color:#00B100"/>
			<stop  offset="1" style="stop-color:#006700"/>
		</linearGradient>
		<path fill="url(#SVGID_1_)" d="M481.314,256.501c0,124.261-100.733,225-225,225s-225-100.739-225-225
			c0-124.264,100.733-225,225-225S481.314,132.237,481.314,256.501z"/>
		<linearGradient id="SVGID_2_" gradientUnits="userSpaceOnUse" x1="150.3677" y1="72.9976" x2="362.2632" y2="440.0114">
			<stop  offset="0" style="stop-color:#006700"/>
			<stop  offset="1" style="stop-color:#00B100"/>
		</linearGradient>
		<path fill="url(#SVGID_2_)" d="M468.173,256.501c0,117.011-94.854,211.864-211.858,211.864S44.456,373.512,44.456,256.501
			c0-117.005,94.854-211.858,211.858-211.858S468.173,139.496,468.173,256.501z"/>
	</g>
</g>
<g>
	<path fill-rule="evenodd" clip-rule="evenodd" fill="#FFFFFF" d="M312.457,187.989c3.503,0.177,6.828,0.257,10.141,0.532
		c5.538,0.458,9.658,3.494,12.83,7.778c2.408,3.264,4.279,6.925,6.639,10.235c3.111,4.376,4.01,9.27,4.004,14.453
		c-0.025,15.651-0.074,31.296-0.074,46.944c0.007,19.651,0.056,39.303,0.067,58.954c0.007,10.33-0.024,20.667-0.079,31.003
		c-0.03,6.008-1.699,11.534-5.532,16.204c-5.238,6.381-12.054,9.627-20.36,9.627c-12.592-0.006-25.184-0.013-37.775-0.006
		c-11.932,0.012-23.869,0.067-35.807,0.067c-21.399,0.012-42.793,0.006-64.187-0.007c-14.737-0.006-26.467-12.83-25.587-27.579
		c0.373-6.234,0.067-12.506,0.073-18.766c0.006-6.906,0.037-13.813,0.024-20.727c-0.012-6.474-0.085-12.946-0.092-19.42
		c-0.006-6.473,0.043-12.952,0.055-19.419c0.006-6.406-0.019-12.806-0.012-19.212c0.012-6.833,0.043-13.673,0.043-20.507
		c0.006-6.183,0.128-12.372-0.062-18.551c-0.165-5.043,1.467-9.395,4.193-13.478c2.06-3.083,3.998-6.25,6.106-9.297
		c3.924-5.669,9.456-8.497,16.277-8.625c6.553-0.123,13.099,0,19.651,0.006c3.173,0.006,3.185,0.006,3.723-3.087
		c1.345-7.723,2.635-15.455,4.028-23.172c2.665-14.789,5.403-29.569,8.081-44.355c1.002-5.501,1.932-11.012,2.885-16.513
		c0.629-3.604,3.887-5.339,7.427-4.478c4.719,1.152,9.535,1.892,14.321,2.772c6.137,1.125,12.286,2.194,18.423,3.332
		c11.198,2.069,22.39,4.171,33.588,6.253c0.428,0.079,0.868,0.098,1.309,0.116c3.013,0.122,5.061,1.332,6.815,4.077
		c4.046,6.37,8.618,12.402,12.952,18.597c1.455,2.082,2.915,4.181,4.15,6.394c0.439,0.783,0.471,1.959,0.299,2.885
		c-1.864,10.217-3.808,20.419-5.727,30.626c-0.887,4.71-1.785,9.419-2.647,14.132C312.494,186.467,312.513,187.183,312.457,187.989z
		 M252.231,233.011c-34.224-0.517-63.167,27.653-63.405,62.359c-0.245,35.11,27.494,63.979,63.557,63.839
		c34.396-0.141,61.32-27.506,62.738-60.502C316.699,261.678,285.941,232.442,252.231,233.011z M212.958,219.676
		c4.847,0,9.211,0,13.57,0c13.24,0,26.479,0,39.713,0c8.582-0.003,17.164-0.042,25.745,0.021c1.486,0.009,1.98-0.489,2.226-1.925
		c2.213-12.949,4.505-25.887,6.772-38.827c2.06-11.733,4.175-23.457,6.118-35.208c0.221-1.357-0.091-3.127-0.831-4.261
		c-3.771-5.776-7.744-11.427-11.718-17.066c-0.501-0.697-1.388-1.381-2.206-1.546c-5.697-1.14-11.418-2.124-17.121-3.19
		c-10.483-1.959-20.954-3.952-31.437-5.905c-3.533-0.657-7.078-1.238-10.795-1.886C226.29,146.608,219.646,183.001,212.958,219.676z
		 M202.604,207.033c-3.197,0-6.1-0.211-8.96,0.055c-3.454,0.317-5.557,3.166-5.397,6.748c0.159,3.481,2.212,5.636,5.758,5.862
		c1.742,0.11,3.49,0.043,5.232-0.064c0.464-0.031,1.253-0.428,1.314-0.768C201.278,215.043,201.901,211.195,202.604,207.033z
		 M306.352,219.447c3.05,0.565,5.385,0.076,7.054-2.311c1.351-1.922,1.424-5.556,0.085-7.448c-1.125-1.61-2.561-2.726-4.779-2.277
		C307.928,211.416,307.164,215.315,306.352,219.447z"/>
	<path fill-rule="evenodd" clip-rule="evenodd" fill="#FFFFFF" d="M245.709,289.856c0-6.277,0-12.237,0-18.196
		c0-4.591-0.049-9.175,0.013-13.763c0.049-3.634,2.695-6.072,6.363-6.027c3.527,0.046,6.198,2.732,6.205,6.25
		c0.012,12.151,0.012,24.303,0.018,36.454c0,5.6-2.524,7.806-8.056,7.665c-6.541-0.158-13.093,0.098-19.633,0.086
		c-7.861-0.013-15.721-0.037-23.57-0.22c-3.533-0.08-5.495-2.421-5.483-6.003c0-3.545,2.201-6.106,5.648-6.149
		c8.007-0.122,16.015-0.079,24.022-0.098C235.948,289.851,240.667,289.856,245.709,289.856z"/>
	<path fill-rule="evenodd" clip-rule="evenodd" fill="#FFFFFF" d="M295.043,168.411c-21.094-3.799-41.907-7.552-63.007-11.354
		c0.721-4.135,1.418-8.096,2.164-12.323c21.07,3.799,41.932,7.558,62.977,11.351C296.455,160.257,295.765,164.23,295.043,168.411z"
		/>
	<path fill-rule="evenodd" clip-rule="evenodd" fill="#FFFFFF" d="M227.005,182.32c0.74-4.19,1.424-8.111,2.158-12.329
		c20.917,3.765,41.784,7.527,63.025,11.357c-0.728,3.979-1.455,7.983-2.231,12.268C268.967,189.851,248.075,186.104,227.005,182.32z
		"/>
	<path fill-rule="evenodd" clip-rule="evenodd" fill="#FFFFFF" d="M238.252,131.834c0.807-4.159,1.577-8.185,2.378-12.332
		c16.778,3.157,33.502,6.302,50.392,9.48c-0.776,4.104-1.547,8.133-2.336,12.247C271.761,138.075,255.098,134.973,238.252,131.834z"
		/>
</g>
</svg>
