<?xml version="1.0" encoding="utf-8"?>
<!-- Generator: Adobe Illustrator 16.0.0, SVG Export Plug-In . SVG Version: 6.00 Build 0)  -->
<!DOCTYPE svg PUBLIC "-//W3C//DTD SVG 1.1//EN" "http://www.w3.org/Graphics/SVG/1.1/DTD/svg11.dtd">
<svg version="1.1" id="Layer_1" xmlns="http://www.w3.org/2000/svg" xmlns:xlink="http://www.w3.org/1999/xlink" x="0px" y="0px"
	 width="512px" height="512px" viewBox="0 0 512 512" enable-background="new 0 0 512 512" xml:space="preserve">
<g>
	<g>
		<linearGradient id="SVGID_1_" gradientUnits="userSpaceOnUse" x1="100.5239" y1="100.6938" x2="416.5971" y2="416.767">
			<stop  offset="0" style="stop-color:#FFA300"/>
			<stop  offset="1" style="stop-color:#FF6400"/>
		</linearGradient>
		<path fill="url(#SVGID_1_)" d="M481.159,256.33c0,124.261-100.733,225-225,225s-225-100.739-225-225
			c0-124.267,100.733-225,225-225S481.159,132.063,481.159,256.33z"/>
		<linearGradient id="SVGID_2_" gradientUnits="userSpaceOnUse" x1="150.2124" y1="72.8247" x2="362.106" y2="439.8351">
			<stop  offset="0" style="stop-color:#FF6400"/>
			<stop  offset="1" style="stop-color:#FFA300"/>
		</linearGradient>
		<circle fill="url(#SVGID_2_)" cx="256.159" cy="256.33" r="211.858"/>
	</g>
</g>
<g>
	<path fill-rule="evenodd" clip-rule="evenodd" fill="#FFFFFF" d="M329.57,314.081c1.772-0.147,3.545-0.41,5.323-0.416
		c15.808-0.043,31.62,0.019,47.427-0.067c19.156-0.098,36.039-15.098,36.467-36.155c0.538-26.956-25.801-43.246-47.029-36.442
		c-9.565,3.063-10.403,2.243-8.948-7.622c3.912-26.437-16.571-50.086-42.885-48.539c-6.834,0.397-13.49,3.899-20.196,6.063
		c-1.197,0.385-2.236,1.241-3.386,1.803c-3.827,1.883-5.086,1.333-5.667-3.02c-1.105-8.325-3.875-15.978-8.404-23.038
		c-11.613-18.068-35.275-27.916-56.54-21.864c-18.423,5.238-30.379,16.931-36.351,34.578c-2.084,6.167-1.962,13.154-2.384,19.798
		c-0.336,5.397-0.733,6.021-5.923,5.134c-25.404-4.34-45.935,3.356-60.043,25.306c-15.336,23.875-8.985,59.517,18.167,75.783
		c9.927,5.947,20.532,8.674,32.108,8.35c10.392-0.294,20.795-0.086,31.192-0.049c1.406,0.006,3.374-0.238,4.12,0.544
		c4.315,4.554,8.343,9.376,13.258,15.019c-2.665,0.391-3.851,0.721-5.037,0.715c-16.95-0.006-33.973,0.941-50.837-0.318
		c-28.539-2.133-49.218-16.65-61.327-42.909c-5.861-12.726-7.164-26.106-5.024-39.676c3.332-21.082,14.328-37.519,32.311-49.022
		c11.241-7.2,23.601-11.173,37.084-11.112c2.867,0.012,4.23-1.143,4.841-4.126c5.489-26.711,21.437-44.749,47.115-53.038
		c31.571-10.189,65.312,5.134,80.055,33.698c3.991,7.732,3.942,7.757,12.53,6.113c27.427-5.257,55.739,11.271,64.511,37.75
		c1.155,3.49,2.188,7.09,2.641,10.721c0.453,3.68,2.042,5.049,5.697,5.367c17.592,1.534,31.602,9.297,41.681,24.071
		c15.3,22.42,9.835,55.287-12.17,71.491c-9.908,7.298-21.002,11.106-33.398,10.996c-8.686-0.079-17.378,0.171-26.063-0.116
		c-2.494-0.079-5.232-1.069-7.359-2.427c-6.063-3.851-11.864-8.111-17.77-12.206C329.43,314.839,329.496,314.46,329.57,314.081z"/>
	<path fill-rule="evenodd" clip-rule="evenodd" fill="#FFFFFF" d="M343.348,351.936c-1.956,7.219-3.503,14.584-5.984,21.619
		c-2.115,6.003-4.682,6.944-11.002,5.624c-15.281-3.19-29.713-8.698-43.143-16.62c-26.345-15.544-48.154-36.143-66.216-60.69
		c-13.387-18.19-23.02-38.179-27.341-60.526c-0.874-4.523,0.348-7.524,4.927-9.694c8.82-4.168,18.325-5.153,27.897-4.835
		c2.219,0.073,4.909,1.84,6.449,3.631c9.218,10.746,15.618,23.062,18.649,36.907c0.471,2.17-1.137,5.049-2.39,7.256
		c-1.094,1.919-3.099,3.301-4.621,4.987c-4.022,4.444-4.456,8.203-0.837,13.008c10.581,14.059,23.026,26.32,37.017,36.968
		c4.743,3.606,8.57,3.533,12.421-1.161c6.229-7.586,13.147-8.691,21.43-4.267c8.35,4.462,16.755,8.839,24.958,13.552
		c5.25,3.014,8.063,7.585,6.552,14.053C342.528,351.807,342.938,351.868,343.348,351.936z"/>
</g>
</svg>
