<?xml version="1.0" encoding="utf-8"?>
<!-- Generator: Adobe Illustrator 16.0.0, SVG Export Plug-In . SVG Version: 6.00 Build 0)  -->
<!DOCTYPE svg PUBLIC "-//W3C//DTD SVG 1.1//EN" "http://www.w3.org/Graphics/SVG/1.1/DTD/svg11.dtd">
<svg version="1.1" id="Layer_1" xmlns="http://www.w3.org/2000/svg" xmlns:xlink="http://www.w3.org/1999/xlink" x="0px" y="0px"
	 width="512px" height="512px" viewBox="0 0 512 512" enable-background="new 0 0 512 512" xml:space="preserve">
<g>
	<g>
		
			<linearGradient id="SVGID_1_" gradientUnits="userSpaceOnUse" x1="76.2913" y1="402.6648" x2="392.3645" y2="86.5916" gradientTransform="matrix(1 0 0 -1 24.9448 503.3589)">
			<stop  offset="0" style="stop-color:#FF68FF"/>
			<stop  offset="1" style="stop-color:#FF00FF"/>
		</linearGradient>
		<path fill="url(#SVGID_1_)" d="M481.872,256.33c0,124.262-100.732,225-224.999,225c-124.268,0-225-100.738-225-225
			c0-124.267,100.732-225,225-225C381.14,31.33,481.872,132.063,481.872,256.33z"/>
		
			<linearGradient id="SVGID_2_" gradientUnits="userSpaceOnUse" x1="125.9817" y1="430.5349" x2="337.8748" y2="63.5251" gradientTransform="matrix(1 0 0 -1 24.9448 503.3589)">
			<stop  offset="0" style="stop-color:#FF00FF"/>
			<stop  offset="1" style="stop-color:#FF68FF"/>
		</linearGradient>
		<circle fill="url(#SVGID_2_)" cx="256.873" cy="256.33" r="211.858"/>
	</g>
</g>
<g opacity="0.4">
	<path d="M346.323,316.929c-14.548,14.829-28.625,29.188-42.714,43.533c-0.043,0.043-0.152,0.023-0.379,0.056
		c-6.59-9.291-9.522-19.664-8.691-31.058c0.115-1.64-0.294-2.689-1.418-3.797c-5.973-5.854-11.884-11.778-17.563-17.433
		c13.704-13.704,27.274-27.28,41.039-41.046c0.228,0.208,0.856,0.775,1.461,1.382c5.465,5.458,10.894,10.966,16.431,16.345
		c0.733,0.709,2.104,1.21,3.117,1.118c29.67-2.433,54.12,22.94,50.624,52.563c-0.653,5.477-2.177,10.653-4.683,15.604
		C371.311,341.947,359.165,329.783,346.323,316.929z"/>
	<path d="M146.433,158.585c12.256,12.263,24.371,24.384,36.51,36.528c14.438-14.432,28.705-28.704,43.148-43.16
		c3.246,3.942,5.22,8.105,6.742,12.481c2.193,6.308,2.958,12.812,2.494,19.493c-0.067,1.002,0.524,2.322,1.253,3.067
		c5.917,6.027,11.932,11.956,17.683,17.685c-13.722,13.729-27.298,27.305-41.021,41.026c-0.301-0.274-0.947-0.843-1.554-1.449
		c-5.416-5.402-10.788-10.85-16.271-16.186c-0.746-0.722-2.072-1.32-3.074-1.247c-24.652,1.852-46.412-14.59-50.281-38.985
		C140.504,177.999,140.919,167.87,146.433,158.585z"/>
	<path d="M182.502,327.969c-4.872-4.865-9.92-9.92-14.872-14.871c45.128-45.104,90.379-90.35,135.489-135.44
		c4.914,4.921,9.95,9.982,14.821,14.866C272.918,237.559,227.619,282.852,182.502,327.969z"/>
	<path d="M208.004,353.616c-4.812-4.829-9.854-9.89-14.786-14.835c45.134-45.141,90.366-90.397,135.428-135.471
		c4.945,4.933,9.988,9.969,14.849,14.815C298.486,263.14,253.193,308.427,208.004,353.616z"/>
	<path d="M374.984,187.076c-13.582-13.582-27.164-27.158-40.887-40.874c4.799-4.462,8.771-10.171,15.605-12.28
		c8.123-2.506,15.471-0.978,21.741,4.731c3.918,3.57,7.75,7.292,11.247,11.271c7.982,9.06,7.897,20.66-0.104,29.713
		C380.198,182.339,377.436,184.698,374.984,187.076z"/>
	<path d="M197.038,364.68c-17.978,4.98-36.455,10.098-54.928,15.214c-0.237-0.171-0.471-0.343-0.702-0.507
		c5.115-18.517,10.238-37.023,15.238-55.1C170.039,337.676,183.529,351.165,197.038,364.68z"/>
	<path d="M364.165,197.76c-3.13,3.117-6.418,6.405-9.443,9.425c-13.454-13.453-27.066-27.066-40.489-40.489
		c2.966-2.964,6.296-6.302,9.433-9.444C337.105,170.694,350.688,184.276,364.165,197.76z"/>
	<path d="M215.693,141.629c-7.512,7.525-14.938,14.963-22.17,22.22c-8.582-8.582-17.322-17.306-26.002-25.979
		C179.837,130.713,200.437,130.328,215.693,141.629z"/>
	<path d="M314.08,371.227c7.512-7.543,14.933-14.988,22.163-22.237c8.618,8.606,17.354,17.322,26.052,26.002
		C351.885,381.673,328.163,382.473,314.08,371.227z"/>
</g>
<g>
	<path fill="#FFFFFF" d="M346.323,306.929c-14.548,14.829-28.625,29.188-42.714,43.533c-0.043,0.043-0.152,0.023-0.379,0.056
		c-6.59-9.291-9.522-19.664-8.691-31.058c0.115-1.64-0.294-2.689-1.418-3.797c-5.973-5.854-11.884-11.778-17.563-17.433
		c13.704-13.704,27.274-27.28,41.039-41.046c0.228,0.208,0.856,0.775,1.461,1.382c5.465,5.458,10.894,10.966,16.431,16.345
		c0.733,0.709,2.104,1.21,3.117,1.118c29.67-2.433,54.12,22.94,50.624,52.563c-0.653,5.477-2.177,10.653-4.683,15.604
		C371.311,331.947,359.165,319.783,346.323,306.929z"/>
	<path fill="#FFFFFF" d="M146.433,148.585c12.256,12.263,24.371,24.384,36.51,36.528c14.438-14.432,28.705-28.704,43.148-43.16
		c3.246,3.942,5.22,8.105,6.742,12.481c2.193,6.308,2.958,12.812,2.494,19.493c-0.067,1.002,0.524,2.322,1.253,3.067
		c5.917,6.027,11.932,11.956,17.683,17.685c-13.722,13.729-27.298,27.305-41.021,41.026c-0.301-0.274-0.947-0.843-1.554-1.449
		c-5.416-5.402-10.788-10.85-16.271-16.186c-0.746-0.722-2.072-1.32-3.074-1.247c-24.652,1.852-46.412-14.59-50.281-38.985
		C140.504,167.999,140.919,157.87,146.433,148.585z"/>
	<path fill="#FFFFFF" d="M182.502,317.969c-4.872-4.865-9.92-9.92-14.872-14.871c45.128-45.104,90.379-90.35,135.489-135.44
		c4.914,4.921,9.95,9.982,14.821,14.866C272.918,227.559,227.619,272.852,182.502,317.969z"/>
	<path fill="#FFFFFF" d="M208.004,343.616c-4.812-4.829-9.854-9.89-14.786-14.835c45.134-45.141,90.366-90.397,135.428-135.471
		c4.945,4.933,9.988,9.969,14.849,14.815C298.486,253.14,253.193,298.427,208.004,343.616z"/>
	<path fill="#FFFFFF" d="M374.984,177.076c-13.582-13.582-27.164-27.158-40.887-40.874c4.799-4.462,8.771-10.171,15.605-12.28
		c8.123-2.506,15.471-0.978,21.741,4.731c3.918,3.57,7.75,7.292,11.247,11.271c7.982,9.06,7.897,20.66-0.104,29.713
		C380.198,172.339,377.436,174.698,374.984,177.076z"/>
	<path fill="#FFFFFF" d="M197.038,354.68c-17.978,4.98-36.455,10.098-54.928,15.214c-0.237-0.171-0.471-0.343-0.702-0.507
		c5.115-18.517,10.238-37.023,15.238-55.1C170.039,327.676,183.529,341.165,197.038,354.68z"/>
	<path fill="#FFFFFF" d="M364.165,187.76c-3.13,3.117-6.418,6.405-9.443,9.425c-13.454-13.453-27.066-27.066-40.489-40.489
		c2.966-2.964,6.296-6.302,9.433-9.444C337.105,160.694,350.688,174.276,364.165,187.76z"/>
	<path fill="#FFFFFF" d="M215.693,131.629c-7.512,7.525-14.938,14.963-22.17,22.22c-8.582-8.582-17.322-17.306-26.002-25.979
		C179.837,120.713,200.437,120.328,215.693,131.629z"/>
	<path fill="#FFFFFF" d="M314.08,361.227c7.512-7.543,14.933-14.988,22.163-22.237c8.618,8.606,17.354,17.322,26.052,26.002
		C351.885,371.673,328.163,372.473,314.08,361.227z"/>
</g>
</svg>
