<?xml version="1.0" encoding="utf-8"?>
<!-- Generator: Adobe Illustrator 16.0.0, SVG Export Plug-In . SVG Version: 6.00 Build 0)  -->
<!DOCTYPE svg PUBLIC "-//W3C//DTD SVG 1.1//EN" "http://www.w3.org/Graphics/SVG/1.1/DTD/svg11.dtd">
<svg version="1.1" id="Layer_1" xmlns="http://www.w3.org/2000/svg" xmlns:xlink="http://www.w3.org/1999/xlink" x="0px" y="0px"
	 width="512px" height="512px" viewBox="0 0 512 512" enable-background="new 0 0 512 512" xml:space="preserve">
<g>
	<g>
		<linearGradient id="SVGID_1_" gradientUnits="userSpaceOnUse" x1="101.2339" y1="100.5112" x2="417.307" y2="416.5844">
			<stop  offset="0" style="stop-color:#0091FF"/>
			<stop  offset="0.505" style="stop-color:#0087FF"/>
			<stop  offset="1" style="stop-color:#4501EE"/>
		</linearGradient>
		<path fill="url(#SVGID_1_)" d="M481.869,256.147c0,124.261-100.733,225-225,225s-225-100.739-225-225
			c0-124.264,100.733-225,225-225S481.869,131.884,481.869,256.147z"/>
		<linearGradient id="SVGID_2_" gradientUnits="userSpaceOnUse" x1="150.9219" y1="72.6436" x2="362.8174" y2="439.6573">
			<stop  offset="0" style="stop-color:#0023FF"/>
			<stop  offset="1" style="stop-color:#007AFF"/>
		</linearGradient>
		<path fill="url(#SVGID_2_)" d="M468.728,256.147c0,117.011-94.854,211.864-211.858,211.864S45.011,373.158,45.011,256.147
			c0-117.005,94.854-211.858,211.858-211.858S468.728,139.143,468.728,256.147z"/>
	</g>
</g>
<path fill-rule="evenodd" clip-rule="evenodd" fill="#FFFFFF" d="M175.219,284.191c0-18.857,0.073-37.72-0.012-56.58
	c-0.073-15.098,5.978-26.782,18.276-35.675c16.039-11.589,31.736-23.622,47.542-35.523c9.181-6.916,16.027-6.931,25.281,0.049
	c13.252,10.003,11.369,10.162,22.959-1.495c10.342-10.4,20.488-21.015,31.32-30.896c2.799-2.555,8.007-4.19,11.724-3.634
	c6.968,1.039,8.435,10.327,2.75,16.109c-11.259,11.461-22.75,22.689-34.144,34.019c-5.966,5.944-6.26,7.848,1.1,12.115
	c23.496,13.619,32.433,33.169,30.758,60.474c-1.955,32.008-0.428,64.233-0.464,96.36c-0.049,27.176-15.66,42.75-42.959,42.836
	c-23.973,0.062-47.958,0.086-71.943-0.012c-26.443-0.11-42.127-15.881-42.176-42.274
	C175.194,321.441,175.219,302.816,175.219,284.191z M257.713,299.148c-3.961,0-6.516,0.611-8.558-0.158
	c-2.519-0.966-6.223-2.83-6.516-4.744c-0.526-3.508,0.232-10.024,1.931-10.55c5.514-1.712,11.797-2.029,17.58-1.296
	c2.066,0.27,4.059,4.896,5.195,7.873c2.029,5.293,5.452,8.252,11.063,7.445c5.538-0.783,8.46-4.358,8.546-10.129
	c0.146-9.749-6.504-19.7-16.517-23.82c-3.35-1.381-5.403-2.738-6.931-6.567c-1.235-3.072-5.881-6.354-9.182-6.541
	c-2.897-0.159-7.726,3.286-8.667,6.14c-1.406,4.254-3.851,5.623-7.335,7.163c-13.167,5.752-18.766,18.521-15.465,34.523
	c2.47,11.932,13.313,20.196,26.614,20.257c3.496,0.019,7.274-0.813,10.391,0.269c2.763,0.967,6.418,3.852,6.724,6.26
	c0.416,3.313-0.88,8.417-3.313,10.232c-7.152,5.306-19.083,0.488-21.858-8.014c-1.761-5.434-5.403-8.185-11.076-7.243
	c-5.342,0.893-7.824,4.523-7.982,9.896c-0.293,10.227,6.088,20.166,16.063,23.998c3.692,1.412,6.015,2.818,7.212,7.121
	c0.746,2.622,4.609,5.599,7.445,6.051c2.836,0.453,8.399-1.521,8.838-3.361c1.785-7.579,8.032-9.053,13.338-12.299
	c3.044-1.87,5.758-4.877,7.615-7.964c5.99-9.933,6.101-20.501,0.783-30.617C277.908,302.168,268.055,298.293,257.713,299.148z
	 M264.583,179.008c-11.956-6.47-27.323-1.574-35.33,10.052c-8.631,12.518-6.198,28.747,5.832,38.851
	c11.479,9.651,28.753,8.551,39.877-2.543c8.619-8.6,10.807-23.738,4.083-32.026c-1.883,1.623-3.838,3.148-5.611,4.866
	c-4.511,4.37-8.765,9.01-13.447,13.188c-3.997,3.576-8.569,3.582-12.579-0.101c-3.717-3.401-4.242-7.711-1.688-12.02
	c1.271-2.161,3.215-3.952,4.964-5.807C255.109,188.81,259.571,184.213,264.583,179.008z"/>
</svg>
