<?xml version="1.0" encoding="utf-8"?>
<!-- Generator: Adobe Illustrator 16.0.0, SVG Export Plug-In . SVG Version: 6.00 Build 0)  -->
<!DOCTYPE svg PUBLIC "-//W3C//DTD SVG 1.1//EN" "http://www.w3.org/Graphics/SVG/1.1/DTD/svg11.dtd">
<svg version="1.1" id="Layer_1" xmlns="http://www.w3.org/2000/svg" xmlns:xlink="http://www.w3.org/1999/xlink" x="0px" y="0px"
	 width="512px" height="512px" viewBox="0 0 512 512" enable-background="new 0 0 512 512" xml:space="preserve">
<g>
	
		<linearGradient id="SVGID_1_" gradientUnits="userSpaceOnUse" x1="74.9812" y1="404.0818" x2="391.0555" y2="88.0073" gradientTransform="matrix(1 0 0 -1 24.9448 503.3589)">
		<stop  offset="0" style="stop-color:#E20001"/>
		<stop  offset="1" style="stop-color:#8C0000"/>
	</linearGradient>
	<path fill="url(#SVGID_1_)" d="M480.563,254.914c0,124.262-100.732,225-225,225c-124.267,0-225-100.738-225-225
		c0-124.267,100.733-225,225-225C379.83,29.914,480.563,130.647,480.563,254.914z"/>
	
		<linearGradient id="SVGID_2_" gradientUnits="userSpaceOnUse" x1="124.6707" y1="431.949" x2="336.5658" y2="64.9358" gradientTransform="matrix(1 0 0 -1 24.9448 503.3589)">
		<stop  offset="0" style="stop-color:#8C0000"/>
		<stop  offset="1" style="stop-color:#E20001"/>
	</linearGradient>
	<path fill="url(#SVGID_2_)" d="M467.421,254.914c0,117.012-94.854,211.864-211.858,211.864S43.704,371.926,43.704,254.914
		c0-117.005,94.854-211.857,211.857-211.857S467.421,137.909,467.421,254.914z"/>
</g>
<path opacity="0.6" d="M357.952,133.863c-13.729,29.003-31.326,54.676-51.857,78.386c-27.659,31.926-58.827,59.72-96.107,80.086
	c-19.406,10.594-39.693,18.895-62.236,19.145c-25.68,0.281-41.785-15.758-42.642-41.603c-0.746-22.315,6.181-42.793,14.914-62.842
	c0.515-1.174,1.626-2.561,2.751-2.922c6.425-2.072,12.94-3.857,19.046-5.636c-2.799,10.837-6.131,21.356-8.063,32.115
	c-1.033,5.758-0.568,12.163,0.789,17.908c3.447,14.609,17.402,21.993,34.26,19.114c20.397-3.49,37.91-13.276,54.175-25.361
	c31.682-23.551,57.22-52.47,75.159-87.86c0.984-1.938,2.94-4.096,4.902-4.713c17.438-5.501,34.976-10.672,52.494-15.917
	C356.07,133.606,356.705,133.802,357.952,133.863z"/>
<path opacity="0.6" d="M233.209,171.002c-9.432,18.778-22.072,33.325-37.892,45.202c-8.435,6.326-17.364,11.725-28.062,13.331
	c-12.323,1.853-19.438-5.043-17.958-17.415c0.188-1.601,0.36-3.209,0.654-4.798c1.473-8.147,4.64-13.631,14.089-15.996
	c20.843-5.231,41.265-12.146,61.863-18.35C227.953,172.365,230.031,171.852,233.209,171.002z"/>
<g opacity="0.6">
	<path d="M282.268,263.68h6.106v18.202c2.635-1.926,5.445-2.886,8.446-2.886c3.906,0,7.104,1.475,9.585,4.426
		c2.481,2.952,3.724,6.742,3.724,11.363c0,4.963-1.485,8.911-4.438,11.853c-2.965,2.939-6.926,4.407-11.89,4.407
		c-1.992,0-4.083-0.208-6.283-0.637c-2.2-0.422-3.955-0.96-5.251-1.606L282.268,263.68L282.268,263.68z M288.374,287.714v16.699
		c2.078,0.623,4.212,0.936,6.399,0.936c2.701,0,4.908-0.959,6.619-2.879c1.712-1.926,2.567-4.396,2.567-7.414
		c0-3.058-0.801-5.551-2.402-7.477c-1.595-1.919-3.674-2.879-6.253-2.879C293.032,284.7,290.715,285.703,288.374,287.714z"/>
	<path d="M316.467,326.234V279.67h10.679c5.472,0,9.731,1.363,12.775,4.089c3.05,2.728,4.572,6.534,4.572,11.432
		c0,4.633-1.432,8.429-4.305,11.398c-2.866,2.972-6.521,4.457-10.959,4.457c-1.969,0-4.139-0.429-6.527-1.303v16.491H316.467
		L316.467,326.234z M327.018,285.373h-4.314v18.974c1.869,0.96,3.832,1.437,5.886,1.437c2.854,0,5.188-0.99,7.012-2.983
		c1.814-1.985,2.727-4.547,2.727-7.677c0-2.011-0.435-3.79-1.297-5.33c-0.85-1.54-2.022-2.665-3.508-3.368
		C332.042,285.721,329.872,285.373,327.018,285.373z"/>
	<path d="M365.947,279.603c4.694,0,8.596,1.516,11.706,4.541c3.104,3.031,4.657,6.834,4.657,11.419
		c0,4.442-1.577,8.135-4.729,11.075c-3.148,2.939-7.115,4.407-11.901,4.407c-4.627,0-8.49-1.491-11.596-4.476
		c-3.111-2.982-4.663-6.705-4.663-11.18c0-4.518,1.569-8.276,4.712-11.283C357.274,281.106,361.211,279.603,365.947,279.603z
		 M365.611,285.098c-2.928,0-5.33,0.966-7.207,2.885c-1.876,1.92-2.816,4.371-2.816,7.348c0,2.946,0.96,5.354,2.885,7.226
		c1.92,1.857,4.39,2.793,7.409,2.793c2.994,0,5.452-0.947,7.359-2.83c1.912-1.896,2.865-4.31,2.865-7.262
		c0-2.929-0.996-5.354-2.981-7.273C371.131,286.063,368.631,285.098,365.611,285.098z"/>
	<path d="M387.573,308.302v-6.571c1.719,1.204,3.479,2.183,5.275,2.934c1.803,0.746,3.313,1.119,4.548,1.119
		c1.271,0,2.365-0.312,3.282-0.936c0.923-0.623,1.375-1.375,1.375-2.243c0-0.898-0.293-1.639-0.886-2.237
		c-0.595-0.587-1.878-1.442-3.846-2.561c-3.925-2.188-6.504-4.065-7.721-5.618c-1.222-1.553-1.827-3.245-1.827-5.073
		c0-2.371,0.923-4.309,2.764-5.807c1.846-1.491,4.218-2.237,7.126-2.237c3.015,0,6.112,0.844,9.285,2.543v6.033
		c-3.625-2.188-6.583-3.282-8.888-3.282c-1.18,0-2.133,0.25-2.867,0.752c-0.721,0.507-1.088,1.173-1.088,1.998
		c0,0.716,0.33,1.4,0.99,2.048c0.66,0.648,1.81,1.431,3.466,2.348l2.183,1.24c5.142,2.903,7.715,6.119,7.715,9.652
		c0,2.523-0.99,4.596-2.972,6.216c-1.98,1.62-4.522,2.428-7.628,2.428c-1.834,0-3.46-0.189-4.891-0.581
		C391.541,310.066,389.743,309.352,387.573,308.302z"/>
	<path d="M411.174,284.565l11.467-11.271v6.376h9.756v5.495h-9.756v15.099c0,3.521,1.461,5.286,4.389,5.286
		c2.188,0,4.505-0.728,6.944-2.176v5.696c-2.348,1.32-4.915,1.976-7.678,1.976c-2.801,0-5.122-0.813-6.976-2.445
		c-0.58-0.488-1.063-1.045-1.448-1.656c-0.372-0.617-0.696-1.418-0.952-2.414c-0.258-0.996-0.387-2.892-0.387-5.685v-13.681h-5.359
		V284.565L411.174,284.565z"/>
</g>
<g>
	<path fill="#FFFFFF" d="M364.952,125.863c-13.729,29.003-31.326,54.676-51.857,78.386c-27.659,31.926-58.827,59.72-96.107,80.086
		c-19.406,10.594-39.693,18.895-62.236,19.145c-25.68,0.281-41.785-15.758-42.642-41.603c-0.746-22.315,6.181-42.793,14.914-62.842
		c0.515-1.174,1.626-2.561,2.751-2.922c6.425-2.072,12.94-3.857,19.046-5.636c-2.799,10.837-6.131,21.356-8.063,32.115
		c-1.033,5.758-0.568,12.163,0.789,17.908c3.447,14.609,17.402,21.993,34.26,19.114c20.397-3.49,37.91-13.276,54.175-25.361
		c31.682-23.551,57.22-52.47,75.159-87.86c0.984-1.938,2.94-4.096,4.902-4.713c17.438-5.501,34.976-10.672,52.494-15.917
		C363.07,125.606,363.705,125.802,364.952,125.863z"/>
	<path fill="#FFFFFF" d="M240.209,163.002c-9.432,18.778-22.072,33.325-37.892,45.202c-8.435,6.326-17.364,11.725-28.062,13.331
		c-12.323,1.853-19.438-5.043-17.958-17.415c0.188-1.601,0.36-3.209,0.654-4.798c1.473-8.147,4.64-13.631,14.089-15.996
		c20.843-5.231,41.265-12.146,61.863-18.35C234.953,164.365,237.031,163.852,240.209,163.002z"/>
	<g>
		<path fill="#FFFFFF" d="M289.268,255.68h6.106v18.202c2.635-1.926,5.445-2.886,8.446-2.886c3.906,0,7.104,1.475,9.585,4.426
			c2.481,2.952,3.724,6.742,3.724,11.363c0,4.963-1.485,8.911-4.438,11.853c-2.965,2.939-6.926,4.407-11.89,4.407
			c-1.992,0-4.083-0.208-6.283-0.637c-2.2-0.422-3.955-0.96-5.251-1.606L289.268,255.68L289.268,255.68z M295.374,279.714v16.699
			c2.078,0.623,4.212,0.936,6.399,0.936c2.701,0,4.908-0.959,6.619-2.879c1.712-1.926,2.567-4.396,2.567-7.414
			c0-3.058-0.801-5.551-2.402-7.477c-1.595-1.919-3.674-2.879-6.253-2.879C300.032,276.7,297.715,277.703,295.374,279.714z"/>
		<path fill="#FFFFFF" d="M323.467,318.234V271.67h10.679c5.472,0,9.731,1.363,12.775,4.089c3.05,2.728,4.572,6.534,4.572,11.432
			c0,4.633-1.432,8.429-4.305,11.398c-2.866,2.972-6.521,4.457-10.959,4.457c-1.969,0-4.139-0.429-6.527-1.303v16.491H323.467
			L323.467,318.234z M334.018,277.373h-4.314v18.974c1.869,0.96,3.832,1.437,5.886,1.437c2.854,0,5.188-0.99,7.012-2.983
			c1.814-1.985,2.727-4.547,2.727-7.677c0-2.011-0.435-3.79-1.297-5.33c-0.85-1.54-2.022-2.665-3.508-3.368
			C339.042,277.721,336.872,277.373,334.018,277.373z"/>
		<path fill="#FFFFFF" d="M372.947,271.603c4.694,0,8.596,1.516,11.706,4.541c3.104,3.031,4.657,6.834,4.657,11.419
			c0,4.442-1.577,8.135-4.729,11.075c-3.148,2.939-7.115,4.407-11.901,4.407c-4.627,0-8.49-1.491-11.596-4.476
			c-3.111-2.982-4.663-6.705-4.663-11.18c0-4.518,1.569-8.276,4.712-11.283C364.274,273.106,368.211,271.603,372.947,271.603z
			 M372.611,277.098c-2.928,0-5.33,0.966-7.207,2.885c-1.876,1.92-2.816,4.371-2.816,7.348c0,2.946,0.96,5.354,2.885,7.226
			c1.92,1.857,4.39,2.793,7.409,2.793c2.994,0,5.452-0.947,7.359-2.83c1.912-1.896,2.865-4.31,2.865-7.262
			c0-2.929-0.996-5.354-2.981-7.273C378.131,278.063,375.631,277.098,372.611,277.098z"/>
		<path fill="#FFFFFF" d="M394.573,300.302v-6.571c1.719,1.204,3.479,2.183,5.275,2.934c1.803,0.746,3.313,1.119,4.548,1.119
			c1.271,0,2.365-0.312,3.282-0.936c0.923-0.623,1.375-1.375,1.375-2.243c0-0.898-0.293-1.639-0.886-2.237
			c-0.595-0.587-1.878-1.442-3.846-2.561c-3.925-2.188-6.504-4.065-7.721-5.618c-1.222-1.553-1.827-3.245-1.827-5.073
			c0-2.371,0.923-4.309,2.764-5.807c1.846-1.491,4.218-2.237,7.126-2.237c3.015,0,6.112,0.844,9.285,2.543v6.033
			c-3.625-2.188-6.583-3.282-8.888-3.282c-1.18,0-2.133,0.25-2.867,0.752c-0.721,0.507-1.088,1.173-1.088,1.998
			c0,0.716,0.33,1.4,0.99,2.048c0.66,0.648,1.81,1.431,3.466,2.348l2.183,1.24c5.142,2.903,7.715,6.119,7.715,9.652
			c0,2.523-0.99,4.596-2.972,6.216c-1.98,1.62-4.522,2.428-7.628,2.428c-1.834,0-3.46-0.189-4.891-0.581
			C398.541,302.066,396.743,301.352,394.573,300.302z"/>
		<path fill="#FFFFFF" d="M418.174,276.565l11.467-11.271v6.376h9.756v5.495h-9.756v15.099c0,3.521,1.461,5.286,4.389,5.286
			c2.188,0,4.505-0.728,6.944-2.176v5.696c-2.348,1.32-4.915,1.976-7.678,1.976c-2.801,0-5.122-0.813-6.976-2.445
			c-0.58-0.488-1.063-1.045-1.448-1.656c-0.372-0.617-0.696-1.418-0.952-2.414c-0.258-0.996-0.387-2.892-0.387-5.685v-13.681h-5.359
			V276.565L418.174,276.565z"/>
	</g>
</g>
</svg>
