<?xml version="1.0" encoding="utf-8"?>
<!-- Generator: Adobe Illustrator 16.0.0, SVG Export Plug-In . SVG Version: 6.00 Build 0)  -->
<!DOCTYPE svg PUBLIC "-//W3C//DTD SVG 1.1//EN" "http://www.w3.org/Graphics/SVG/1.1/DTD/svg11.dtd">
<svg version="1.1" id="Layer_1" xmlns="http://www.w3.org/2000/svg" xmlns:xlink="http://www.w3.org/1999/xlink" x="0px" y="0px"
	 width="512px" height="512px" viewBox="0 0 512 512" enable-background="new 0 0 512 512" xml:space="preserve">
<g>
	<g>
		
			<linearGradient id="SVGID_1_" gradientUnits="userSpaceOnUse" x1="75.7019" y1="402.6648" x2="391.7748" y2="86.5918" gradientTransform="matrix(1 0 0 -1 24.9448 503.3589)">
			<stop  offset="0" style="stop-color:#DC00FF"/>
			<stop  offset="1" style="stop-color:#9A00FF"/>
		</linearGradient>
		<path fill="url(#SVGID_1_)" d="M481.281,256.33c0,124.262-100.732,225-224.999,225c-124.268,0-225-100.738-225-225
			c0-124.267,100.732-225,225-225C380.549,31.33,481.281,132.063,481.281,256.33z"/>
		
			<linearGradient id="SVGID_2_" gradientUnits="userSpaceOnUse" x1="125.3909" y1="430.5349" x2="337.2841" y2="63.5251" gradientTransform="matrix(1 0 0 -1 24.9448 503.3589)">
			<stop  offset="0" style="stop-color:#9A00FF"/>
			<stop  offset="1" style="stop-color:#DC00FF"/>
		</linearGradient>
		<circle fill="url(#SVGID_2_)" cx="256.282" cy="256.33" r="211.858"/>
	</g>
</g>
<g opacity="0.6">
	<path d="M176.337,146.324c0.153-2.896,0.434-4.658,0.299-6.4c-0.397-5.537,2.029-7.8,7.604-7.8
		c48.147,0.104,96.265,0.159,144.395-0.012c10.587-0.042,6.424,8.093,8.368,14.193c4.933,0,10.177,0.165,15.396-0.043
		c5.489-0.208,7.488,2.164,7.965,7.641c3.625,41.589-12.671,71.956-49.705,91.657c-7.916,4.211-13.582,12.891-21.634,16.527
		c-9.798,4.413-11.767,10.931-10.036,19.743c1.933,9.884,3.754,20.007,7.481,29.285c3.961,9.854,11.913,14.859,23.606,14.401
		c18.423-0.734,17.506-2.17,17.457,16.925c-0.044,12.995-0.195,25.984,0.055,38.967c0.129,6.192-2.176,8.596-8.49,8.559
		c-41.784-0.171-83.551-0.171-125.323,0c-6.333,0.037-8.588-2.402-8.489-8.569c0.22-15.795,0.243-31.583-0.02-47.366
		c-0.104-6.691,2.671-9.395,9.163-8.739c1.247,0.135,2.524,0.019,3.814,0.019c19.528,0,27.133-5.013,32.285-24.022
		c2.556-9.419,2.715-19.548,3.313-29.407c0.123-1.932-2.323-4.548-4.217-6.031c-7.188-5.605-14.633-10.888-21.999-16.253
		c-2.83-2.066-5.6-4.341-8.674-6.04c-35.03-19.396-51.406-51.583-46.346-91.187c0.558-4.468,2.867-6.137,7.109-6.082
		C165.023,146.379,170.329,146.324,176.337,146.324z M186.582,142.424c0,9.469-0.3,18.117,0.061,26.718
		c0.984,23.912,7.09,46.271,21.602,65.728c26.906,36.063,69.34,36.155,96.283,0.135c20.617-27.573,23.404-59.31,21.395-92.58
		C279.479,142.424,233.513,142.424,186.582,142.424z M195.689,379.606c40.941,0,81.002,0,121.363,0c0-14.762,0-29.071,0-43.552
		c-40.685,0-80.911,0-121.363,0C195.689,350.799,195.689,364.937,195.689,379.606z M283.227,324.875
		c-12.28-16.223-15.043-34.291-14.646-53.185c-8.38,0-16.106,0-24.347,0c0.551,19.132-2.486,37.115-14.491,53.185
		C247.927,324.875,265.035,324.875,283.227,324.875z M324.118,223.561c21.639-17.366,29.027-39.891,25.237-66.626
		c-4.62,0-8.716,0-13.228,0C337.102,180.475,333.195,202.467,324.118,223.561z M188.623,224.24
		c-3.337-11.424-7.322-22.115-9.438-33.16c-2.115-11.1-2.341-22.549-3.447-34.352c-3.93,0-8.08,0-12.268,0
		C159.876,183.922,167.168,206.464,188.623,224.24z"/>
</g>
<g>
	<path fill="#FFFFFF" d="M185.337,140.324c0.153-2.896,0.434-4.658,0.299-6.4c-0.397-5.537,2.029-7.8,7.604-7.8
		c48.147,0.104,96.265,0.159,144.395-0.012c10.587-0.042,6.424,8.093,8.368,14.193c4.933,0,10.177,0.165,15.396-0.043
		c5.489-0.208,7.488,2.164,7.965,7.641c3.625,41.589-12.671,71.956-49.705,91.657c-7.916,4.211-13.582,12.891-21.634,16.527
		c-9.798,4.413-11.767,10.931-10.036,19.743c1.933,9.884,3.754,20.007,7.481,29.285c3.961,9.854,11.913,14.859,23.606,14.401
		c18.423-0.734,17.506-2.17,17.457,16.925c-0.044,12.995-0.195,25.984,0.055,38.967c0.129,6.192-2.176,8.596-8.49,8.559
		c-41.784-0.171-83.551-0.171-125.323,0c-6.333,0.037-8.588-2.402-8.489-8.569c0.22-15.795,0.243-31.583-0.02-47.366
		c-0.104-6.691,2.671-9.395,9.163-8.739c1.247,0.135,2.524,0.019,3.814,0.019c19.528,0,27.133-5.013,32.285-24.022
		c2.556-9.419,2.715-19.548,3.313-29.407c0.123-1.932-2.323-4.548-4.217-6.031c-7.188-5.605-14.633-10.888-21.999-16.253
		c-2.83-2.066-5.6-4.341-8.674-6.04c-35.03-19.396-51.406-51.583-46.346-91.187c0.558-4.468,2.867-6.137,7.109-6.082
		C174.023,140.379,179.329,140.324,185.337,140.324z M195.582,136.424c0,9.469-0.3,18.117,0.061,26.718
		c0.984,23.912,7.09,46.271,21.602,65.728c26.906,36.063,69.34,36.155,96.283,0.135c20.617-27.573,23.404-59.31,21.395-92.58
		C288.479,136.424,242.513,136.424,195.582,136.424z M204.689,373.606c40.941,0,81.002,0,121.363,0c0-14.762,0-29.071,0-43.552
		c-40.685,0-80.911,0-121.363,0C204.689,344.799,204.689,358.937,204.689,373.606z M292.227,318.875
		c-12.28-16.223-15.043-34.291-14.646-53.185c-8.38,0-16.106,0-24.347,0c0.551,19.132-2.486,37.115-14.491,53.185
		C256.927,318.875,274.035,318.875,292.227,318.875z M333.118,217.561c21.639-17.366,29.027-39.891,25.237-66.626
		c-4.62,0-8.716,0-13.228,0C346.102,174.475,342.195,196.467,333.118,217.561z M197.623,218.24
		c-3.337-11.424-7.322-22.115-9.438-33.16c-2.115-11.1-2.341-22.549-3.447-34.352c-3.93,0-8.08,0-12.268,0
		C168.876,177.922,176.168,200.464,197.623,218.24z"/>
</g>
</svg>
