<?xml version="1.0" encoding="utf-8"?>
<!-- Generator: Adobe Illustrator 16.0.0, SVG Export Plug-In . SVG Version: 6.00 Build 0)  -->
<!DOCTYPE svg PUBLIC "-//W3C//DTD SVG 1.1//EN" "http://www.w3.org/Graphics/SVG/1.1/DTD/svg11.dtd">
<svg version="1.1" id="Layer_1" xmlns="http://www.w3.org/2000/svg" xmlns:xlink="http://www.w3.org/1999/xlink" x="0px" y="0px"
	 width="512px" height="512px" viewBox="0 0 512 512" enable-background="new 0 0 512 512" xml:space="preserve">
<g>
	<g>
		
			<linearGradient id="SVGID_1_" gradientUnits="userSpaceOnUse" x1="75.5457" y1="402.8464" x2="391.618" y2="86.7741" gradientTransform="matrix(1 0 0 -1 24.9448 503.3589)">
			<stop  offset="0" style="stop-color:#0091FF"/>
			<stop  offset="0.505" style="stop-color:#0087FF"/>
			<stop  offset="1" style="stop-color:#4501EE"/>
		</linearGradient>
		<path fill="url(#SVGID_1_)" d="M481.125,256.147c0,124.261-100.733,225-225,225c-124.268,0-225-100.739-225-225
			c0-124.265,100.732-225,225-225C380.392,31.147,481.125,131.884,481.125,256.147z"/>
		
			<linearGradient id="SVGID_2_" gradientUnits="userSpaceOnUse" x1="125.2327" y1="430.7166" x2="337.1278" y2="63.7034" gradientTransform="matrix(1 0 0 -1 24.9448 503.3589)">
			<stop  offset="0" style="stop-color:#0023FF"/>
			<stop  offset="1" style="stop-color:#007AFF"/>
		</linearGradient>
		<path fill="url(#SVGID_2_)" d="M467.983,256.147c0,117.011-94.854,211.864-211.857,211.864S44.267,373.158,44.267,256.147
			c0-117.005,94.854-211.858,211.858-211.858S467.983,139.143,467.983,256.147z"/>
	</g>
</g>
<g opacity="0.6">
	<path d="M296.027,385.622c-0.903,0-1.576,0-2.262,0c-26.027,0-52.054,0.142-78.068-0.072c-9.438-0.08-17.347-3.932-21.454-12.854
		c-3.839-8.338-3.239-16.932,1.259-24.945c3.361-5.983,9.145-8.637,15.709-9.016c6.467-0.379,12.995-0.013,19.486,0.006
		c10.172,0.024,20.354,0.202,30.515-0.019c6.76-0.146,13.496-0.795,20.231-1.369c2.556-0.22,5.073-0.795,7.592-1.32
		c8.546-1.771,13.888-11.259,13.093-19.069c-0.831-8.131-5.366-13.741-12.444-15.367c-5.22-1.204-10.22-0.185-15.023,1.919
		c-6.748,2.951-13.645,5.379-20.93,6.614c-9.963,1.687-19.854,1.741-29.413-2.062c-8.973-3.563-15.109-9.676-16.711-19.584
		c-0.171-1.118-0.208-2.273-0.33-3.625c-2.678,0-5.28,0-7.885,0c-2.896-0.012-4.12-1.18-4.12-4.107
		c-0.023-8.453-0.023-16.899,0-25.352c0.013-2.836,1.247-4.028,4.034-4.028c8.557-0.003,17.115-0.006,25.66,0
		c2.714,0,3.924,1.21,3.924,3.939c0.024,8.557,0.024,17.108,0,25.661c0,2.651-1.222,3.875-3.826,3.875
		c-3.605,0.012-7.225,0.012-10.966,0.012c0.024,5.807,2.274,10.306,6.748,13.668c5.55,4.169,11.993,5.563,18.766,5.844
		c11.247,0.464,21.785-2.348,31.98-6.847c6.418-2.842,13.068-4.119,20.061-2.359c8.876,2.237,15.733,10,16.921,19.083
		c1.319,10.05-1.97,18.229-9.829,24.598c-3.131,2.537-6.919,3.436-10.733,4.199c-9.279,1.87-18.717,2.358-28.154,2.5
		c-9.693,0.135-19.4,0.036-29.106-0.036c-5.293-0.05-10.575-0.33-15.88-0.367c-1.919-0.012-3.875,0.231-5.759,0.636
		c-5.098,1.088-8.264,4.279-9.584,9.304c-0.989,3.753-1.233,7.566-0.402,11.369c1.418,6.504,6.455,10.966,13.667,12.164
		c1.284,0.213,2.604,0.33,3.912,0.33c25.758,0.012,51.527,0.012,77.298,0.012c0.61,0,1.233,0,2.028,0c0-3.008,0-5.88,0-8.753
		c0-3.338,0.722-4.192,4.048-4.854c10.586-2.127,21.173-4.242,31.76-6.363c2.763-0.556,4.486,0.838,4.499,3.661
		c0.012,3.143,0,6.271,0,9.634c2.396,0,4.633-0.049,6.87,0.013c1.626,0.036,2.86,1.124,3.153,2.566
		c0.307,1.541-0.354,3.075-1.735,3.692c-0.6,0.273-1.309,0.365-1.968,0.392c-2.042,0.042-4.071,0.012-6.224,0.012
		c0,2.243,0,4.364,0,6.699c2.141,0,4.218-0.03,6.296,0c2.055,0.037,3.388,1.088,3.655,2.787c0.343,2.237-1.112,3.888-3.569,3.961
		c-1.979,0.063-3.984,0.037-5.979,0.049c-0.099,0-0.195,0.067-0.501,0.185c0,2.836,0,5.758,0,8.68
		c-0.014,0.63,0.036,1.271-0.073,1.883c-0.367,1.968-2.152,2.922-4.548,2.457c-3.595-0.709-7.188-1.441-10.782-2.164
		c-7.188-1.441-14.377-2.891-21.564-4.34c-2.359-0.488-3.301-1.583-3.325-4.021C295.99,392.034,296.027,388.941,296.027,385.622z
		 M302.91,393.024c8.937,1.784,17.763,3.551,26.626,5.317c0-10.733,0-21.346,0-32.066c-8.961,1.798-17.775,3.57-26.626,5.337
		C302.91,378.788,302.91,385.812,302.91,393.024z M222.115,278.109c0-6.748,0-13.368,0-20.003c-6.699,0-13.276,0-19.951,0
		c0,6.702,0,13.315,0,20.003C208.827,278.109,215.416,278.109,222.115,278.109z"/>
	<g>
		<path d="M219.193,214.885c-25.917,0-51.663,0-77.347,0c-1.882,9.462,2.359,16.521,10.941,18.654
			c12.665,3.148,21.883-0.868,25.098-11.036c13.423,0,26.882,0,40.782,0c-0.136,5.587-2.91,9.618-7.188,11.972
			c-5.794,3.179-11.857,6.541-18.203,7.87c-23.104,4.832-46.332,4.963-69.511-0.059c-26.125-5.66-26.785-29.218-21.247-45.231
			c2.458-7.094,8.509-11.274,15.416-13.06c9.046-2.335,18.313-4.27,27.604-5.052c16.675-1.403,33.361-0.859,49.756,3.038
			c3.081,0.727,6.125,1.748,9.034,3.01C216.541,190.313,221.858,200.79,219.193,214.885z M178.375,204.592
			c0.624-7.414-1.235-11.371-6.688-13.27c-7.506-2.613-15.208-2.781-22.751-0.153c-5.929,2.066-8.374,6.979-7.065,13.423
			C153.912,204.592,166.003,204.592,178.375,204.592z"/>
		<path d="M339.438,185.588c7.177-13.933,13.998-26.931,20.526-40.085c1.516-3.064,3.301-4.101,6.626-4.01
			c8.02,0.22,16.051,0.074,25.012,0.074c-1.088,2.042-1.771,3.44-2.543,4.786c-11.479,19.969-23.031,39.896-34.376,59.938
			c-1.345,2.369-2.065,5.357-2.164,8.087c-0.269,8.796-0.098,17.599-0.098,26.395c0,1.638,0,3.275,0,5.208c-10,0-19.476,0-29.426,0
			c0-10.63,0.158-21.059-0.099-31.478c-0.061-2.888-0.771-6.032-2.113-8.565c-10.489-19.816-21.224-39.508-31.858-59.245
			c-0.782-1.435-1.468-2.916-2.52-5.055c10.538,0,20.478-0.104,30.416,0.158c1.075,0.027,2.408,2.026,3.08,3.381
			c5.673,11.721,11.224,23.512,16.822,35.271C337.421,181.902,338.24,183.308,339.438,185.588z"/>
		<path d="M313.717,226.172c-6.063,0-12.678,0-19.731,0c-0.428-2.961-0.854-5.893-1.368-9.446c-1.297,1.424-2.263,2.49-3.216,3.548
			c-6.063,6.66-17.566,9.334-26.441,6.146c-7.813-2.812-12.421-10.08-12.8-20.158c-0.637-17.006,7.103-25.453,24.815-26.835
			c4.523-0.354,9.097-0.336,13.645-0.317c2.298,0.012,3.386-0.782,3.203-3.172c-0.136-1.81,0-3.644-0.196-5.449
			c-0.647-5.914-3.044-8.16-8.691-8.355c-5.439-0.187-7.886,2.045-8.851,8.108c-0.172,1.021-0.33,2.039-0.526,3.229
			c-7.078,0-14.021,0-20.929,0c-1.517-6.327,1.148-13.131,6.577-17.069c8.337-6.051,17.909-5.804,27.493-5.235
			c0.989,0.059,2.236,1.385,2.813,2.427c7.836,14.35,15.599,28.75,23.35,43.146c0.354,0.657,0.818,1.381,0.818,2.081
			C313.729,207.85,313.717,216.893,313.717,226.172z M292.299,190.209c-3.704,0.278-6.102,0.4-8.496,0.648
			c-9.34,0.969-12.323,4.532-11.847,14.024c0.294,6.019,2.774,9.453,7.25,9.979c5.758,0.678,10.28-2.017,11.467-7.879
			C291.736,201.75,291.761,196.297,292.299,190.209z"/>
		<path d="M202.836,149.408c7.604,0,14.548,0,22.176,0c0,12.549,0,24.997,0,38.723c9.45-10.092,19.572-9.881,31.234-5.815
			c-8.203,7.803-9.891,17.087-8.545,27.044c1.405,10.526,6.698,18.068,17.457,20.541c0.904,10.672-4.219,20.929-11.993,24.38
			c-9.597,4.251-20.733,1.65-28.9-7.222c-0.195,2.619-0.342,4.736-0.513,7.233c-6.81,0-13.533,0-20.894,0
			c0-3.478-0.183-7.063,0.123-10.607c0.085-0.93,1.603-1.867,2.616-2.553c3.374-2.271,7.176-4.053,10.159-6.749
			c2.237-2.034,3.998-5,5.061-7.885c1.944-5.336,0.637-6.846-4.976-6.932c-4.083-0.064-8.154-0.159-12.249-0.278
			c-0.184-0.009-0.354-0.388-1.516-1.708c4.816,0,8.691,0,12.58,0c7.799,0,8.007-0.281,7.945-8.197
			c-0.123-12.566-5.231-21.857-17.115-26.977c-1.125-0.477-2.506-2.002-2.529-3.069
			C202.763,169.512,202.836,159.684,202.836,149.408z M224.707,216.841c0.573,6.372,0.94,12.712,1.797,18.982
			c0.575,4.175,2.653,7.442,7.566,7.57c4.45,0.123,7.972-2.055,8.265-7.252c0.685-12.17,0.746-24.396,0.367-36.574
			c-0.159-4.878-3.852-7.365-8.276-7.387c-4.193-0.021-7.25,2.249-8.032,7.1C225.453,205.068,225.245,210.979,224.707,216.841z"/>
	</g>
</g>
<g>
	<path fill="#FFFFFF" d="M305.027,378.622c-0.903,0-1.576,0-2.262,0c-26.027,0-52.054,0.142-78.068-0.072
		c-9.438-0.08-17.347-3.932-21.454-12.854c-3.839-8.338-3.239-16.932,1.259-24.945c3.361-5.983,9.145-8.637,15.709-9.016
		c6.467-0.379,12.995-0.013,19.486,0.006c10.172,0.024,20.354,0.202,30.515-0.019c6.76-0.146,13.496-0.795,20.231-1.369
		c2.556-0.22,5.073-0.795,7.592-1.32c8.546-1.771,13.888-11.259,13.093-19.069c-0.831-8.131-5.366-13.741-12.444-15.367
		c-5.22-1.204-10.22-0.185-15.023,1.919c-6.748,2.951-13.645,5.379-20.93,6.614c-9.963,1.687-19.854,1.741-29.413-2.062
		c-8.973-3.563-15.109-9.676-16.711-19.584c-0.171-1.118-0.208-2.273-0.33-3.625c-2.678,0-5.28,0-7.885,0
		c-2.896-0.012-4.12-1.18-4.12-4.107c-0.023-8.453-0.023-16.899,0-25.352c0.013-2.836,1.247-4.028,4.034-4.028
		c8.557-0.003,17.115-0.006,25.66,0c2.714,0,3.924,1.21,3.924,3.939c0.024,8.557,0.024,17.108,0,25.661
		c0,2.651-1.222,3.875-3.826,3.875c-3.605,0.012-7.225,0.012-10.966,0.012c0.024,5.807,2.274,10.306,6.748,13.668
		c5.55,4.169,11.993,5.563,18.766,5.844c11.247,0.464,21.785-2.348,31.98-6.847c6.418-2.842,13.068-4.119,20.061-2.359
		c8.876,2.237,15.733,10,16.921,19.083c1.319,10.05-1.97,18.229-9.829,24.598c-3.131,2.537-6.919,3.436-10.733,4.199
		c-9.279,1.87-18.717,2.358-28.154,2.5c-9.693,0.135-19.4,0.036-29.106-0.036c-5.293-0.05-10.575-0.33-15.88-0.367
		c-1.919-0.012-3.875,0.231-5.759,0.636c-5.098,1.088-8.264,4.279-9.584,9.304c-0.989,3.753-1.233,7.566-0.402,11.369
		c1.418,6.504,6.455,10.966,13.667,12.164c1.284,0.213,2.604,0.33,3.912,0.33c25.758,0.012,51.527,0.012,77.298,0.012
		c0.61,0,1.233,0,2.028,0c0-3.008,0-5.88,0-8.753c0-3.338,0.722-4.192,4.048-4.854c10.586-2.127,21.173-4.242,31.76-6.363
		c2.763-0.556,4.486,0.838,4.499,3.661c0.012,3.143,0,6.271,0,9.634c2.396,0,4.633-0.049,6.87,0.013
		c1.626,0.036,2.86,1.124,3.153,2.566c0.307,1.541-0.354,3.075-1.735,3.692c-0.6,0.273-1.309,0.365-1.968,0.392
		c-2.042,0.042-4.071,0.012-6.224,0.012c0,2.243,0,4.364,0,6.699c2.141,0,4.218-0.03,6.296,0c2.055,0.037,3.388,1.088,3.655,2.787
		c0.343,2.237-1.112,3.888-3.569,3.961c-1.979,0.063-3.984,0.037-5.979,0.049c-0.099,0-0.195,0.067-0.501,0.185
		c0,2.836,0,5.758,0,8.68c-0.014,0.63,0.036,1.271-0.073,1.883c-0.367,1.968-2.152,2.922-4.548,2.457
		c-3.595-0.709-7.188-1.441-10.782-2.164c-7.188-1.441-14.377-2.891-21.564-4.34c-2.359-0.488-3.301-1.583-3.325-4.021
		C304.99,385.034,305.027,381.941,305.027,378.622z M311.91,386.024c8.937,1.784,17.763,3.551,26.626,5.317
		c0-10.733,0-21.346,0-32.066c-8.961,1.798-17.775,3.57-26.626,5.337C311.91,371.788,311.91,378.812,311.91,386.024z
		 M231.115,271.109c0-6.748,0-13.368,0-20.003c-6.699,0-13.276,0-19.951,0c0,6.702,0,13.315,0,20.003
		C217.827,271.109,224.416,271.109,231.115,271.109z"/>
	<g>
		<path fill="#FFFFFF" d="M228.193,207.885c-25.917,0-51.663,0-77.347,0c-1.882,9.462,2.359,16.521,10.941,18.654
			c12.665,3.148,21.883-0.868,25.098-11.036c13.423,0,26.882,0,40.782,0c-0.136,5.587-2.91,9.618-7.188,11.972
			c-5.794,3.179-11.857,6.541-18.203,7.87c-23.104,4.832-46.332,4.963-69.511-0.059c-26.125-5.66-26.785-29.218-21.247-45.231
			c2.458-7.094,8.509-11.274,15.416-13.06c9.046-2.335,18.313-4.27,27.604-5.052c16.675-1.403,33.361-0.859,49.756,3.038
			c3.081,0.727,6.125,1.748,9.034,3.01C225.541,183.313,230.858,193.79,228.193,207.885z M187.375,197.592
			c0.624-7.414-1.235-11.371-6.688-13.27c-7.506-2.613-15.208-2.781-22.751-0.153c-5.929,2.066-8.374,6.979-7.065,13.423
			C162.912,197.592,175.003,197.592,187.375,197.592z"/>
		<path fill="#FFFFFF" d="M348.438,178.588c7.177-13.933,13.998-26.931,20.526-40.085c1.516-3.064,3.301-4.101,6.626-4.01
			c8.02,0.22,16.051,0.074,25.012,0.074c-1.088,2.042-1.771,3.44-2.543,4.786c-11.479,19.969-23.031,39.896-34.376,59.938
			c-1.345,2.369-2.065,5.357-2.164,8.087c-0.269,8.796-0.098,17.599-0.098,26.395c0,1.638,0,3.275,0,5.208c-10,0-19.476,0-29.426,0
			c0-10.63,0.158-21.059-0.099-31.478c-0.061-2.888-0.771-6.032-2.113-8.565c-10.489-19.816-21.224-39.508-31.858-59.245
			c-0.782-1.435-1.468-2.916-2.52-5.055c10.538,0,20.478-0.104,30.416,0.158c1.075,0.027,2.408,2.026,3.08,3.381
			c5.673,11.721,11.224,23.512,16.822,35.271C346.421,174.902,347.24,176.308,348.438,178.588z"/>
		<path fill="#FFFFFF" d="M322.717,219.172c-6.063,0-12.678,0-19.731,0c-0.428-2.961-0.854-5.893-1.368-9.446
			c-1.297,1.424-2.263,2.49-3.216,3.548c-6.063,6.66-17.566,9.334-26.441,6.146c-7.813-2.812-12.421-10.08-12.8-20.158
			c-0.637-17.006,7.103-25.453,24.815-26.835c4.523-0.354,9.097-0.336,13.645-0.317c2.298,0.012,3.386-0.782,3.203-3.172
			c-0.136-1.81,0-3.644-0.196-5.449c-0.647-5.914-3.044-8.16-8.691-8.355c-5.439-0.187-7.886,2.045-8.851,8.108
			c-0.172,1.021-0.33,2.039-0.526,3.229c-7.078,0-14.021,0-20.929,0c-1.517-6.327,1.148-13.131,6.577-17.069
			c8.337-6.051,17.909-5.804,27.493-5.235c0.989,0.059,2.236,1.385,2.813,2.427c7.836,14.35,15.599,28.75,23.35,43.146
			c0.354,0.657,0.818,1.381,0.818,2.081C322.729,200.85,322.717,209.893,322.717,219.172z M301.299,183.209
			c-3.704,0.278-6.102,0.4-8.496,0.648c-9.34,0.969-12.323,4.532-11.847,14.024c0.294,6.019,2.774,9.453,7.25,9.979
			c5.758,0.678,10.28-2.017,11.467-7.879C300.736,194.75,300.761,189.297,301.299,183.209z"/>
		<path fill="#FFFFFF" d="M211.836,142.408c7.604,0,14.548,0,22.176,0c0,12.549,0,24.997,0,38.723
			c9.45-10.092,19.572-9.881,31.234-5.815c-8.203,7.803-9.891,17.087-8.545,27.044c1.405,10.526,6.698,18.068,17.457,20.541
			c0.904,10.672-4.219,20.929-11.993,24.38c-9.597,4.251-20.733,1.65-28.9-7.222c-0.195,2.619-0.342,4.736-0.513,7.233
			c-6.81,0-13.533,0-20.894,0c0-3.478-0.183-7.063,0.123-10.607c0.085-0.93,1.603-1.867,2.616-2.553
			c3.374-2.271,7.176-4.053,10.159-6.749c2.237-2.034,3.998-5,5.061-7.885c1.944-5.336,0.637-6.846-4.976-6.932
			c-4.083-0.064-8.154-0.159-12.249-0.278c-0.184-0.009-0.354-0.388-1.516-1.708c4.816,0,8.691,0,12.58,0
			c7.799,0,8.007-0.281,7.945-8.197c-0.123-12.566-5.231-21.857-17.115-26.977c-1.125-0.477-2.506-2.002-2.529-3.069
			C211.763,162.512,211.836,152.684,211.836,142.408z M233.707,209.841c0.573,6.372,0.94,12.712,1.797,18.982
			c0.575,4.175,2.653,7.442,7.566,7.57c4.45,0.123,7.972-2.055,8.265-7.252c0.685-12.17,0.746-24.396,0.367-36.574
			c-0.159-4.878-3.852-7.365-8.276-7.387c-4.193-0.021-7.25,2.249-8.032,7.1C234.453,198.068,234.245,203.979,233.707,209.841z"/>
	</g>
</g>
</svg>
