<?xml version="1.0" encoding="utf-8"?>
<!-- Generator: Adobe Illustrator 16.0.0, SVG Export Plug-In . SVG Version: 6.00 Build 0)  -->
<!DOCTYPE svg PUBLIC "-//W3C//DTD SVG 1.1//EN" "http://www.w3.org/Graphics/SVG/1.1/DTD/svg11.dtd">
<svg version="1.1" id="Layer_1" xmlns="http://www.w3.org/2000/svg" xmlns:xlink="http://www.w3.org/1999/xlink" x="0px" y="0px"
	 width="512px" height="512px" viewBox="0 0 512 512" enable-background="new 0 0 512 512" xml:space="preserve">
<linearGradient id="SVGID_1_" gradientUnits="userSpaceOnUse" x1="99.3481" y1="99.2778" x2="415.422" y2="415.3517">
	<stop  offset="0" style="stop-color:#E20001"/>
	<stop  offset="1" style="stop-color:#8C0000"/>
</linearGradient>
<path fill="url(#SVGID_1_)" d="M479.983,254.914c0,124.261-100.733,225-225,225s-225-100.739-225-225c0-124.267,100.733-225,225-225
	S479.983,130.647,479.983,254.914z"/>
<linearGradient id="SVGID_2_" gradientUnits="userSpaceOnUse" x1="149.0361" y1="71.4097" x2="360.9316" y2="438.4235">
	<stop  offset="0" style="stop-color:#8C0000"/>
	<stop  offset="1" style="stop-color:#E20001"/>
</linearGradient>
<path fill="url(#SVGID_2_)" d="M466.842,254.914c0,117.011-94.854,211.864-211.858,211.864S43.125,371.925,43.125,254.914
	c0-117.005,94.854-211.858,211.858-211.858S466.842,137.909,466.842,254.914z"/>
<g>
	<path fill-rule="evenodd" clip-rule="evenodd" fill="#FFFFFF" d="M199.58,206.345c-10.648,0-19.958,0-29.976,0
		c2.359,8.838,4.584,17.2,6.809,25.55c3.845,14.425,7.818,28.82,11.443,43.301c0.782,3.136,2.096,4.021,5.122,4.01
		c43.179-0.062,86.357-0.006,129.535-0.184c1.65-0.006,4.407-1.791,4.78-3.228c5.929-22.885,11.553-45.837,17.433-69.499
		c-9.73,0-18.937,0-28.166,0c2.873-5.379,5.324-10.318,8.179-15.024c0.678-1.112,2.695-1.968,4.119-1.993
		c8.362-0.183,16.724-0.244,25.086-0.037c7.873,0.196,11.161,4.12,9.31,11.736c-7.146,29.401-14.566,58.729-21.822,88.105
		c-1.473,5.941-5.69,7.237-11.008,7.237c-27.813-0.037-55.624-0.019-83.436-0.019c-17.494,0-34.981,0-52.476,0
		c0.293,14.651,8.49,23.282,22.494,23.337c36.559,0.135,73.129,0.031,109.694,0.092c2.476,0.006,5.098,0.184,7.402,0.99
		c3.997,1.394,6.173,4.988,4.804,8.729c-1.002,2.764-4.291,4.731-6.681,6.914c-0.458,0.415-1.504,0.231-2.28,0.226
		c-38.502-0.11-77.004-0.146-115.513-0.392c-17.518-0.104-29.175-8.984-34.114-25.525c-6.43-21.546-12.035-43.337-17.867-65.049
		c-5.232-19.474-10.269-38.998-15.428-58.496c-3.032-11.473-8.032-15.33-19.945-15.501c-4.279-0.061-8.576,0.135-12.83-0.165
		c-4.915-0.342-7.311-3.686-7.402-8.203c-0.092-4.609,2.463-8.05,7.28-8.215c7.176-0.238,14.48-0.556,21.528,0.495
		c15.782,2.359,24.413,12.665,27.518,27.738c0.99,4.804,2.946,6.785,7.727,5.929c0.758-0.141,1.559,0.037,2.335-0.03
		c9.633-0.85,18.899-1.186,21.907,11.204C195.583,202.212,197.538,203.686,199.58,206.345z"/>
	<path fill-rule="evenodd" clip-rule="evenodd" fill="#FFFFFF" d="M247.563,189.229c0-19.376,0.061-37.408-0.049-55.428
		c-0.024-4.517,1.498-8.02,5.465-10.135c6.968-3.722,14.419,1.369,14.486,10.013c0.116,15.929,0.037,31.87,0.037,47.799
		c0,2.115,0,4.23,0,7.585c2.341-1.797,3.954-2.971,5.501-4.236c4.511-3.686,8.888-7.543,13.509-11.088
		c4.828-3.691,10.617-3.105,14.046,1.088c3.398,4.15,2.995,10.428-1.394,14.095c-11.613,9.719-23.35,19.291-35.146,28.802
		c-4.364,3.521-8.961,3.252-13.289-0.269c-11.589-9.45-23.197-18.875-34.676-28.454c-4.431-3.698-4.957-9.847-1.632-14.065
		c3.325-4.224,9.272-4.951,14.034-1.284C234.586,178.374,240.473,183.423,247.563,189.229z"/>
	<path fill-rule="evenodd" clip-rule="evenodd" fill="#FFFFFF" d="M213.504,387.396c-12.408,0-20.721-7.934-20.758-19.804
		c-0.037-11.162,9.499-20.771,20.721-20.893c11.333-0.123,21.229,9.773,21.149,21.148
		C234.531,379.438,225.937,387.396,213.504,387.396z"/>
	<path fill-rule="evenodd" clip-rule="evenodd" fill="#FFFFFF" d="M305.186,387.396c-12.427,0-20.532-7.958-20.446-20.079
		c0.085-11.461,9.522-20.752,20.94-20.605c11.419,0.146,20.453,9.486,20.416,21.106C326.06,379.798,317.941,387.396,305.186,387.396
		z"/>
	<path fill-rule="evenodd" clip-rule="evenodd" fill="#FFFFFF" d="M259.897,253.655c-0.428,2.433-0.171,5.391-1.497,7.152
		c-1.07,1.406-4.181,2.09-6.143,1.748c-1.602-0.281-3.582-2.371-4.046-4.04c-0.722-2.525-0.269-5.385-0.318-8.105
		c-0.074-4.114,1.479-6.815,6.033-6.779c4.707,0.049,5.813,3.032,5.6,7.042c-0.056,0.972-0.007,1.944-0.007,2.916
		C259.641,253.606,259.764,253.63,259.897,253.655z"/>
	<path fill-rule="evenodd" clip-rule="evenodd" fill="#FFFFFF" d="M283.626,253.276c0-7.799,1.571-10.141,6.474-9.621
		c4.272,0.44,5.58,3.325,5.152,6.999c-0.507,4.371,2.586,10.403-4.572,12.109C285.497,263.991,283.626,261.296,283.626,253.276z"/>
	<path fill-rule="evenodd" clip-rule="evenodd" fill="#FFFFFF" d="M212.575,253.185c-0.049-7.781,1.913-10.593,6.956-9.346
		c1.724,0.428,4.12,2.274,4.364,3.777c0.617,3.741,0.837,7.83-0.123,11.418c-0.458,1.718-3.967,3.582-6.094,3.582
		c-1.705-0.007-3.832-2.458-4.957-4.322C211.952,257.029,212.575,254.914,212.575,253.185z"/>
</g>
</svg>
