<?xml version="1.0" encoding="utf-8"?>
<!-- Generator: Adobe Illustrator 16.0.0, SVG Export Plug-In . SVG Version: 6.00 Build 0)  -->
<!DOCTYPE svg PUBLIC "-//W3C//DTD SVG 1.1//EN" "http://www.w3.org/Graphics/SVG/1.1/DTD/svg11.dtd">
<svg version="1.1" id="Layer_1" xmlns="http://www.w3.org/2000/svg" xmlns:xlink="http://www.w3.org/1999/xlink" x="0px" y="0px"
	 width="512px" height="512px" viewBox="0 0 512 512" enable-background="new 0 0 512 512" xml:space="preserve">
<g>
	<g>
		<linearGradient id="SVGID_1_" gradientUnits="userSpaceOnUse" x1="99.4673" y1="99.6938" x2="415.5411" y2="415.7677">
			<stop  offset="0" style="stop-color:#0000FF"/>
			<stop  offset="1" style="stop-color:#000083"/>
		</linearGradient>
		<path fill="url(#SVGID_1_)" d="M480.103,255.33c0,124.261-100.733,225-225,225s-225-100.739-225-225
			c0-124.267,100.733-225,225-225S480.103,131.063,480.103,255.33z"/>
		<linearGradient id="SVGID_2_" gradientUnits="userSpaceOnUse" x1="149.1567" y1="71.8262" x2="361.0493" y2="438.8349">
			<stop  offset="0" style="stop-color:#000083"/>
			<stop  offset="1" style="stop-color:#0000FF"/>
		</linearGradient>
		<circle fill="url(#SVGID_2_)" cx="255.103" cy="255.33" r="211.858"/>
	</g>
</g>
<g>
	<path fill-rule="evenodd" clip-rule="evenodd" fill="#FFFFFF" d="M257.242,170.434c2.922-0.012,5.837,0.104,8.746-0.037
		c2.94-0.153,4.811,1.1,6.32,3.569c6.254,10.208,12.788,20.238,18.833,30.55c2.555,4.346,6.375,4.517,9.016,0.031
		c6.003-10.227,12.5-20.153,18.661-30.288c1.645-2.695,3.711-3.93,6.853-3.863c5.611,0.11,11.234-0.165,16.827,0.128
		c1.914,0.104,4.652,0.936,5.397,2.323c0.759,1.375,0.08,4.229-0.94,5.801c-11.095,16.956-22.396,33.795-33.631,50.66
		c-3.1,4.664-3.1,4.92-0.062,9.487c11.412,17.139,22.824,34.272,34.242,51.412c0.593,0.898,1.229,1.767,1.772,2.701
		c2.072,3.57,0.477,6.98-3.619,7.097c-6.681,0.208-13.392,0.294-20.061-0.104c-1.742-0.104-3.912-1.84-4.951-3.43
		c-6.956-10.775-13.655-21.711-20.452-32.598c-3.154-5.043-5.868-5.079-9.004-0.073c-6.693,10.69-13.447,21.345-19.994,32.127
		c-1.864,3.063-4.205,4.291-7.677,4.206c-5.611-0.153-11.223,0.122-16.822-0.153c-1.706-0.085-4.224-1.009-4.804-2.268
		c-0.672-1.467-0.208-4.102,0.764-5.568c11.522-17.592,23.222-35.062,34.878-52.561c3.668-5.495,3.668-5.495-0.092-11.125
		c-10.818-16.241-21.638-32.481-32.451-48.722c-0.482-0.722-0.984-1.418-1.424-2.158c-2.14-3.68-0.349-6.98,3.973-7.127
		C250.769,170.342,254.015,170.434,257.242,170.434z"/>
	<path fill-rule="evenodd" clip-rule="evenodd" fill="#FFFFFF" d="M177.608,234.792c0-11.858,0.013-23.722-0.018-35.593
		c0-5.03-0.85-5.855-5.783-5.862c-3.343-0.006-6.687,0.049-10.036-0.012c-3.974-0.073-5.281-1.345-5.318-5.22
		c-0.067-4.523-0.079-9.059,0-13.594c0.055-3.355,1.394-4.688,4.731-4.761c3.667-0.08,7.335-0.006,11.002-0.031
		c4.609-0.006,5.385-0.752,5.403-5.489c0.049-8.404,0.018-16.821,0.018-25.238c0.006-1.18-0.018-2.372,0.049-3.557
		c0.245-4.206,1.327-5.22,5.593-5.239c5.507-0.012,11.008-0.036,16.516,0.019c3.618,0.037,5.061,1.498,5.079,5.128
		c0.024,9.389,0,18.771,0.006,28.148c0,5.428,0.782,6.229,6.063,6.241c2.91,0.006,5.819-0.049,8.735,0.012
		c3.502,0.073,5.049,1.442,5.141,4.823c0.122,4.536,0.116,9.065,0.006,13.594c-0.092,3.393-1.901,5.08-5.324,5.153
		c-3.02,0.073-6.039-0.006-9.052,0.031c-3.276,0.055-5.538,2.127-5.544,5.379c-0.037,21.571-0.031,43.147,0.024,64.719
		c0.006,1.589,0.33,3.221,0.751,4.773c1.192,4.413,3.931,6.693,8.735,6.583c9.884-0.207,8.869,1.742,8.881,9.512
		c0.006,3.441,0.006,6.895-0.122,10.349c-0.104,2.591-1.51,4.56-4.175,4.443c-6.846-0.312-13.912-0.049-20.477-1.688
		c-12.286-3.074-20.324-14.003-20.569-26.705c-0.232-11.968-0.042-23.942-0.042-35.917
		C177.786,234.792,177.694,234.792,177.608,234.792z"/>
</g>
<g>
	<path fill="#FFFFFF" d="M160.604,325.63v7.622h5.936v6.094h-5.936v9.64c0,3.209,0.764,4.683,3.271,4.683
		c1.033,0,1.852-0.11,2.445-0.221l0.055,6.26c-1.088,0.439-3.044,0.709-5.385,0.709c-2.671,0-4.902-0.924-6.21-2.286
		c-1.522-1.577-2.286-4.139-2.286-7.892v-10.893h-3.539v-6.094h3.539v-5.771L160.604,325.63z"/>
	<path fill="#FFFFFF" d="M171.331,342.018c0-3.925-0.11-6.479-0.214-8.766h7.127l0.275,4.896h0.22
		c1.357-3.862,4.627-5.495,7.182-5.495c0.764,0,1.143,0,1.742,0.11v7.781c-0.599-0.11-1.308-0.214-2.231-0.214
		c-3.05,0-5.116,1.632-5.66,4.188c-0.11,0.543-0.165,1.197-0.165,1.852v13.502h-8.276V342.018z"/>
	<path fill="#FFFFFF" d="M206.557,359.871l-0.489-2.664h-0.165c-1.742,2.121-4.462,3.264-7.622,3.264
		c-5.385,0-8.601-3.918-8.601-8.166c0-6.914,6.21-10.232,15.624-10.178v-0.385c0-1.412-0.758-3.43-4.841-3.43
		c-2.726,0-5.611,0.93-7.353,2.018l-1.522-5.336c1.852-1.033,5.501-2.342,10.342-2.342c8.875,0,11.706,5.227,11.706,11.485v9.255
		c0,2.561,0.11,5.012,0.379,6.479H206.557z M205.579,347.298c-4.358-0.055-7.732,0.979-7.732,4.188c0,2.127,1.418,3.16,3.27,3.16
		c2.066,0,3.753-1.363,4.297-3.05c0.11-0.435,0.165-0.924,0.165-1.412V347.298z"/>
	<path fill="#FFFFFF" d="M220.176,341.742c0-3.319-0.11-6.149-0.214-8.49h7.182l0.385,3.649h0.159
		c1.088-1.693,3.814-4.249,8.221-4.249c5.446,0,9.529,3.595,9.529,11.431v15.788h-8.276v-14.755c0-3.429-1.198-5.771-4.193-5.771
		c-2.286,0-3.643,1.583-4.193,3.105c-0.214,0.489-0.324,1.308-0.324,2.066v15.354h-8.276V341.742z"/>
	<path fill="#FFFFFF" d="M252.028,352.628c1.528,0.93,4.682,2.018,7.133,2.018c2.506,0,3.539-0.868,3.539-2.231
		s-0.819-2.017-3.918-3.05c-5.501-1.853-7.622-4.847-7.567-8.001c0-4.957,4.242-8.711,10.831-8.711c3.105,0,5.881,0.709,7.513,1.522
		l-1.467,5.715c-1.198-0.647-3.484-1.521-5.771-1.521c-2.017,0-3.16,0.819-3.16,2.176c0,1.253,1.033,1.907,4.304,3.05
		c5.061,1.742,7.182,4.304,7.236,8.222c0,4.951-3.918,8.601-11.54,8.601c-3.484,0-6.589-0.765-8.6-1.853L252.028,352.628z"/>
	<path fill="#FFFFFF" d="M284.266,325.85c0,2.286-1.742,4.132-4.469,4.132c-2.61,0-4.352-1.846-4.297-4.132
		c-0.055-2.396,1.687-4.193,4.352-4.193C282.523,321.656,284.21,323.453,284.266,325.85z M275.714,359.871v-26.619h8.276v26.619
		H275.714z"/>
	<path fill="#FFFFFF" d="M291.563,359.871v-20.525h-3.484v-6.094h3.484v-1.033c0-3.215,0.978-6.754,3.374-8.931
		c2.066-1.962,4.951-2.665,7.348-2.665c1.852,0,3.27,0.215,4.413,0.545l-0.33,6.369c-0.71-0.221-1.577-0.386-2.665-0.386
		c-2.727,0-3.869,2.127-3.869,4.737v1.363h5.336v6.094h-5.281v20.525H291.563z"/>
	<path fill="#FFFFFF" d="M315.023,349.199c0.274,3.429,3.648,5.067,7.512,5.067c2.83,0,5.122-0.386,7.354-1.088l1.088,5.604
		c-2.72,1.088-6.045,1.633-9.64,1.633c-9.034,0-14.205-5.227-14.205-13.558c0-6.748,4.193-14.206,13.447-14.206
		c8.601,0,11.864,6.693,11.864,13.283c0,1.418-0.158,2.665-0.269,3.264H315.023z M324.772,343.539c0-2.011-0.874-5.392-4.683-5.392
		c-3.483,0-4.901,3.16-5.122,5.392H324.772z"/>
	<path fill="#FFFFFF" d="M343.067,333.252l2.616,4.407c0.764,1.362,1.467,2.726,2.176,3.973h0.109
		c0.709-1.412,1.363-2.774,2.066-4.083l2.341-4.297h8.985l-8.765,12.684l8.875,13.936h-9.364l-2.671-4.792
		c-0.759-1.302-1.412-2.665-2.066-4.028h-0.165c-0.654,1.419-1.356,2.727-2.011,4.028l-2.506,4.792h-9.09l9.034-13.557l-8.82-13.063
		H343.067z"/>
</g>
</svg>
