<?xml version="1.0" encoding="utf-8"?>
<!-- Generator: Adobe Illustrator 16.0.0, SVG Export Plug-In . SVG Version: 6.00 Build 0)  -->
<!DOCTYPE svg PUBLIC "-//W3C//DTD SVG 1.1//EN" "http://www.w3.org/Graphics/SVG/1.1/DTD/svg11.dtd">
<svg version="1.1" id="Layer_1" xmlns="http://www.w3.org/2000/svg" xmlns:xlink="http://www.w3.org/1999/xlink" x="0px" y="0px"
	 width="512px" height="512px" viewBox="0 0 512 512" enable-background="new 0 0 512 512" xml:space="preserve">
<g>
	<g>
		
			<linearGradient id="SVGID_1_" gradientUnits="userSpaceOnUse" x1="76.1765" y1="402.4929" x2="392.2491" y2="86.4203" gradientTransform="matrix(1 0 0 -1 24.9448 503.3589)">
			<stop  offset="0" style="stop-color:#00B100"/>
			<stop  offset="1" style="stop-color:#006700"/>
		</linearGradient>
		<path fill="url(#SVGID_1_)" d="M481.756,256.501c0,124.262-100.733,225.001-225,225.001c-124.268,0-225-100.739-225-225.001
			c0-124.264,100.732-225,225-225C381.023,31.501,481.756,132.237,481.756,256.501z"/>
		
			<linearGradient id="SVGID_2_" gradientUnits="userSpaceOnUse" x1="125.864" y1="430.363" x2="337.759" y2="63.3501" gradientTransform="matrix(1 0 0 -1 24.9448 503.3589)">
			<stop  offset="0" style="stop-color:#006700"/>
			<stop  offset="1" style="stop-color:#00B100"/>
		</linearGradient>
		<path fill="url(#SVGID_2_)" d="M468.614,256.501c0,117.012-94.854,211.864-211.857,211.864S44.897,373.512,44.897,256.501
			c0-117.005,94.854-211.857,211.858-211.857S468.614,139.496,468.614,256.501z"/>
	</g>
</g>
<g opacity="0.6">
	<path d="M298.076,266.274c10.824,1.461,21.388,2.366,31.729,4.4c14.077,2.764,23.325,11.613,27.879,25.152
		c5.716,16.976,7.012,34.523,4.945,52.164c-1.65,14.041-10.142,22.22-24.719,25.68c-10.195,2.421-20.594,2.592-30.979,2.592
		c-38.998-0.037-78.002,0.019-116.993-0.33c-7.236-0.067-14.603-1.271-21.675-2.965c-12.781-3.057-20.96-11.369-22.506-24.548
		c-2.201-18.648-0.979-37.194,5.764-54.944c4.609-12.141,13.509-20.05,26.271-22.58c10.617-2.104,21.455-3.136,32.292-4.657
		c1.607,10.439,8.483,15.525,16.692,18.875c18.216,7.457,36.656,7.445,54.854-0.086c3.93-1.619,7.476-4.413,10.831-7.114
		C295.796,275.235,297.477,271.366,298.076,266.274z"/>
	<path d="M274.329,270.07c-7.365,4.479-15.238,7.018-24.034,5.936c-9.829-1.21-18.124-5.795-24.981-12.615
		c-20.098-20-31.204-44.179-31.105-72.678c0.098-27.916,22.372-52.744,50-56.992c32.806-5.05,62.433,15.514,69.004,48.056
		c2.756,13.597,0.273,26.772-4.133,39.646c-1.662,4.848-3.777,9.555-5.959,14.193c-0.563,1.204-2.042,2.258-3.345,2.772
		c-1.999,0.789-4.188,1.305-6.332,1.444c-1.639,0.11-3.361-0.421-4.987-0.886c-1.98-0.562-3.869-1.874-5.831-1.953
		c-5.813-0.235-11.706-0.553-17.445,0.134c-7.892,0.944-13.655,8.628-13.258,16.5c0.416,8.223,6.754,14.945,14.792,15.544
		c2.506,0.185,5.031,0.024,7.555,0.024C274.286,269.49,274.311,269.783,274.329,270.07z"/>
	<path d="M156.163,216.119c0-4.652,0-9.304,0-13.955c0.012-5.642,2.255-10.061,6.919-13.377c0.972-0.697,1.638-2.381,1.742-3.665
		c1.399-17.43,7.108-33.332,17.988-46.962c23.527-29.478,54.382-41.434,91.075-33.151c36.058,8.136,58.516,31.761,67.635,67.695
		c1.07,4.188,1.21,8.606,2.023,12.87c0.244,1.259,1.076,2.698,2.084,3.462c4.064,3.083,6.394,7.063,6.461,12.115
		c0.129,9.997,0.221,19.997-0.006,29.988c-0.251,10.993-11.32,17.763-21.491,13.264c-1.602-0.709-2.604-0.571-3.985,0.352
		c-10.52,7.006-22.279,10.483-34.719,11.904c-2.207,0.25-3.937,0.794-5.685,2.477c-1.561,1.503-4.09,2.443-6.296,2.7
		c-3.718,0.429-7.514,0.208-11.271,0.104c-5.495-0.165-9.31-4.041-9.199-9.19c0.109-4.997,3.979-8.565,9.4-8.615
		c3.662-0.034,7.354-0.306,10.966,0.104c2.219,0.248,4.304,1.602,6.461,2.411c1.18,0.443,2.445,1.22,3.595,1.11
		c10.861-1.059,21.105-4.09,30.514-9.771c1.645-0.993,2.311-1.892,1.761-4.013c-0.568-2.146-0.354-4.515-0.36-6.785
		c-0.036-8.212,0.067-16.43-0.043-24.639c-0.079-5.805,2.042-10.327,6.804-13.72c0.722-0.514,1.18-1.95,1.125-2.919
		c-1.999-32.06-26.352-60.293-58.259-67.644c-43.862-10.104-86.761,19.707-92.555,64.306c-0.416,3.212-0.446,5.828,2.885,8.063
		c3.496,2.341,4.812,6.394,4.816,10.685c0.006,9.899,0.098,19.795-0.03,29.691c-0.104,8.572-6.761,14.887-15.293,14.792
		c-8.355-0.093-14.841-6.431-15.031-14.842c-0.109-4.944-0.018-9.898-0.018-14.847C156.169,216.119,156.169,216.119,156.163,216.119
		z"/>
</g>
<g>
	<path fill="#FFFFFF" d="M308.076,256.274c10.824,1.461,21.388,2.366,31.729,4.4c14.077,2.764,23.325,11.613,27.879,25.152
		c5.716,16.976,7.012,34.523,4.945,52.164c-1.65,14.041-10.142,22.22-24.719,25.68c-10.195,2.421-20.594,2.592-30.979,2.592
		c-38.998-0.037-78.002,0.019-116.993-0.33c-7.236-0.067-14.603-1.271-21.675-2.965c-12.781-3.057-20.96-11.369-22.506-24.548
		c-2.201-18.648-0.979-37.194,5.764-54.944c4.609-12.141,13.509-20.05,26.271-22.58c10.617-2.104,21.455-3.136,32.292-4.657
		c1.607,10.439,8.483,15.525,16.692,18.875c18.216,7.457,36.656,7.445,54.854-0.086c3.93-1.619,7.476-4.413,10.831-7.114
		C305.796,265.235,307.477,261.366,308.076,256.274z"/>
	<path fill="#FFFFFF" d="M284.329,260.07c-7.365,4.479-15.238,7.018-24.034,5.936c-9.829-1.21-18.124-5.795-24.981-12.615
		c-20.098-20-31.204-44.179-31.105-72.678c0.098-27.916,22.372-52.744,50-56.992c32.806-5.05,62.433,15.514,69.004,48.056
		c2.756,13.597,0.273,26.772-4.133,39.646c-1.662,4.848-3.777,9.555-5.959,14.193c-0.563,1.204-2.042,2.258-3.345,2.772
		c-1.999,0.789-4.188,1.305-6.332,1.444c-1.639,0.11-3.361-0.421-4.987-0.886c-1.98-0.562-3.869-1.874-5.831-1.953
		c-5.813-0.235-11.706-0.553-17.445,0.134c-7.892,0.944-13.655,8.628-13.258,16.5c0.416,8.223,6.754,14.945,14.792,15.544
		c2.506,0.185,5.031,0.024,7.555,0.024C284.286,259.49,284.311,259.783,284.329,260.07z"/>
	<path fill="#FFFFFF" d="M166.163,206.119c0-4.652,0-9.304,0-13.955c0.012-5.642,2.255-10.061,6.919-13.377
		c0.972-0.697,1.638-2.381,1.742-3.665c1.399-17.43,7.108-33.332,17.988-46.962c23.527-29.478,54.382-41.434,91.075-33.151
		c36.058,8.136,58.516,31.761,67.635,67.695c1.07,4.188,1.21,8.606,2.023,12.87c0.244,1.259,1.076,2.698,2.084,3.462
		c4.064,3.083,6.394,7.063,6.461,12.115c0.129,9.997,0.221,19.997-0.006,29.988c-0.251,10.993-11.32,17.763-21.491,13.264
		c-1.602-0.709-2.604-0.571-3.985,0.352c-10.52,7.006-22.279,10.483-34.719,11.904c-2.207,0.25-3.937,0.794-5.685,2.477
		c-1.561,1.503-4.09,2.443-6.296,2.7c-3.718,0.429-7.514,0.208-11.271,0.104c-5.495-0.165-9.31-4.041-9.199-9.19
		c0.109-4.997,3.979-8.565,9.4-8.615c3.662-0.034,7.354-0.306,10.966,0.104c2.219,0.248,4.304,1.602,6.461,2.411
		c1.18,0.443,2.445,1.22,3.595,1.11c10.861-1.059,21.105-4.09,30.514-9.771c1.645-0.993,2.311-1.892,1.761-4.013
		c-0.568-2.146-0.354-4.515-0.36-6.785c-0.036-8.212,0.067-16.43-0.043-24.639c-0.079-5.805,2.042-10.327,6.804-13.72
		c0.722-0.514,1.18-1.95,1.125-2.919c-1.999-32.06-26.352-60.293-58.259-67.644c-43.862-10.104-86.761,19.707-92.555,64.306
		c-0.416,3.212-0.446,5.828,2.885,8.063c3.496,2.341,4.812,6.394,4.816,10.685c0.006,9.899,0.098,19.795-0.03,29.691
		c-0.104,8.572-6.761,14.887-15.293,14.792c-8.355-0.093-14.841-6.431-15.031-14.842c-0.109-4.944-0.018-9.898-0.018-14.847
		C166.169,206.119,166.169,206.119,166.163,206.119z"/>
</g>
</svg>
