<?xml version="1.0" encoding="utf-8"?>
<!-- Generator: Adobe Illustrator 16.0.0, SVG Export Plug-In . SVG Version: 6.00 Build 0)  -->
<!DOCTYPE svg PUBLIC "-//W3C//DTD SVG 1.1//EN" "http://www.w3.org/Graphics/SVG/1.1/DTD/svg11.dtd">
<svg version="1.1" id="Layer_1" xmlns="http://www.w3.org/2000/svg" xmlns:xlink="http://www.w3.org/1999/xlink" x="0px" y="0px"
	 width="512px" height="512px" viewBox="0 0 512 512" enable-background="new 0 0 512 512" xml:space="preserve">
<g>
	<g>
		
			<linearGradient id="SVGID_1_" gradientUnits="userSpaceOnUse" x1="76.2615" y1="402.6648" x2="392.3347" y2="86.5916" gradientTransform="matrix(1 0 0 -1 24.9448 503.3589)">
			<stop  offset="0" style="stop-color:#DC00FF"/>
			<stop  offset="1" style="stop-color:#9A00FF"/>
		</linearGradient>
		<path fill="url(#SVGID_1_)" d="M481.842,256.33c0,124.262-100.733,225-225,225s-225-100.738-225-225
			c0-124.267,100.733-225,225-225S481.842,132.063,481.842,256.33z"/>
		
			<linearGradient id="SVGID_2_" gradientUnits="userSpaceOnUse" x1="125.95" y1="430.5349" x2="337.8431" y2="63.5251" gradientTransform="matrix(1 0 0 -1 24.9448 503.3589)">
			<stop  offset="0" style="stop-color:#9A00FF"/>
			<stop  offset="1" style="stop-color:#DC00FF"/>
		</linearGradient>
		<circle fill="url(#SVGID_2_)" cx="256.842" cy="256.33" r="211.858"/>
	</g>
</g>
<g opacity="0.6">
	<path d="M341.744,118.084c0,5.171,0.188,9.902-0.08,14.609c-0.146,2.708,0.93,3.551,3.344,4.132
		c17.293,4.175,34.554,8.484,51.828,12.757c0.952,0.238,1.889,0.563,2.977,0.894c-3.148,12.763-6.247,25.342-9.364,37.921
		c-9.627,38.833-19.271,77.659-28.813,116.516c-0.354,1.455-0.079,3.355,0.568,4.73c3.142,6.584,2.879,12.849-1.346,18.82
		c-1.662,2.365-3.551,4.571-5.477,7.028c5.722,4.598,11.247,9.108,16.895,13.466c0.717,0.545,2.092,0.503,3.101,0.35
		c11.154-1.662,20.886,5.893,22.311,17.365c1.234,9.993-6.883,20-17.022,20.973c-11.303,1.088-20.782-6.854-21.62-17.916
		c-0.099-1.296-0.898-2.83-1.876-3.71c-2.728-2.47-5.709-4.658-9.14-7.384c-2.011,11.602-6.876,21.979-6.338,33.696
		c-64.585,0-129.047,0-193.691,0c0-91.344,0-182.604,0-274.248c2.995,0,5.893,0.153,8.765-0.08c1.04-0.085,2.445-0.837,2.94-1.711
		c4.522-8.031,11.233-12.665,20.494-12.652c9.12,0.012,15.795,4.534,20.33,12.427c0.551,0.959,2.055,1.901,3.131,1.932
		c6.846,0.171,13.697,0.019,20.544,0.128c1.9,0.037,2.658-0.604,2.988-2.438c0.44-2.451,1.187-4.849,1.901-7.642
		c5.188,1.247,10.231,2.445,15.269,3.687c7.61,1.889,15.195,3.863,22.817,5.703c1.742,0.416,3.57,0.617,5.361,0.624
		c21.852,0.042,43.696,0.023,65.544,0.023C339.177,118.084,340.259,118.084,341.744,118.084z M181.206,168.378
		c0-1.547,0.006-2.836,0-4.126c-0.013-5.739,0.023-11.473-0.11-17.213c-0.019-0.789-0.898-1.559-1.381-2.341
		c-0.532,0.746-1.51,1.497-1.516,2.249c-0.099,9.065-0.215,18.124,0.049,27.176c0.109,3.918,3.648,7.061,7.262,7.372
		c3.209,0.275,6.889-2.402,7.861-5.917c0.336-1.233,0.359-2.592,0.359-3.888c0.024-13.588,0.02-27.183,0.013-40.776
		c0-0.96-0.11-1.932-0.159-2.879c-12.115,0-23.938,0-35.771,0c0,85.006,0,169.812,0,254.542c58.186,0,116.112,0,174.053,0
		c0-6.441,0-12.629,0-18.869c-8.063,2.787-11.991,3.483-16.345,0.838c-5.94-3.612-11.375-8.063-17.146-12.243
		c10.946-13.681,21.479-26.772,31.877-39.971c1.015-1.276,1.681-3.215,1.687-4.841c0.086-58.796,0.073-117.598,0.073-176.399
		c0-1.045,0-2.097,0-3.099c-43.062,0-85.617,0-128.515,0c0,1.333,0,2.512,0,3.698c-0.006,13.894,0.073,27.788-0.05,41.681
		c-0.078,9.652-7.701,17.562-16.938,17.903c-9.089,0.336-17.598-7.255-18.014-16.821c-0.416-9.542-0.281-19.126-0.042-28.686
		c0.152-5.941,5.177-10.733,10.843-11.069c5.098-0.3,10.954,4.034,11.29,9.401c0.495,7.995,0.128,16.045,0.128,24.278
		C187.704,168.378,184.727,168.378,181.206,168.378z M345.075,294.233c2.47,1.956,4.854,3.839,7.549,5.972
		c11.87-47.836,23.611-95.165,35.422-142.75c-15.593-3.863-30.831-7.64-46.033-11.406c0,50.605,0,100.894,0,151.571
		C343.199,296.306,344.066,295.346,345.075,294.233z M346.261,308.097c-11.247,14.034-22.536,28.142-33.96,42.401
		c1.405,1.138,2.634,2.157,3.899,3.143c5.28,4.132,9.192,3.661,13.403-1.613c6.65-8.332,13.295-16.676,19.957-25
		c7.104-8.895,6.688-12.079-2.512-18.68C346.903,308.243,346.689,308.231,346.261,308.097z M347.429,345.572
		c6.161,4.938,12.121,9.848,18.245,14.555c2.47,1.9,3.778,3.961,3.289,7.163c-0.202,1.326,0.006,2.837,0.422,4.133
		c1.632,5.012,6.876,7.658,11.803,6.105c5.049-1.577,7.738-6.553,6.333-11.699c-1.362-4.993-6.706-8.13-11.883-6.437
		c-3.319,1.088-5.673,0.446-8.233-1.705c-5.91-4.951-12.022-9.67-18.202-14.609C348.547,344.002,348.046,344.704,347.429,345.572z
		 M170.729,117.834c6.491,0,12.592,0,18.918,0C184.33,111.85,176.053,111.837,170.729,117.834z"/>
	<path d="M306.555,151.88c3.698-3.258,7.298-6.436,11.1-9.792c2.188,2.471,4.236,4.769,6.449,7.257
		c-3.941,3.515-7.72,6.968-11.602,10.293c-1.302,1.125-1.583,2.133-1.253,3.882c2.628,13.887-1.375,25.66-12.537,34.32
		c-11.253,8.735-23.895,9.921-36.583,3.467c-12.817-6.522-19.052-17.567-18.814-31.927c0.245-14.333,10.056-26.869,24.096-31.441
		c13.313-4.328,28.344,0.281,37.157,11.399C305.18,150.114,305.784,150.89,306.555,151.88z M280.681,174.912
		c6.223-5.538,12.206-10.855,18.136-16.125c-5.08-10.646-18.894-15.52-30.396-10.917c-11.956,4.792-18.203,18.258-14.182,30.581
		c4.011,12.255,17.023,19.353,29.579,16.131c11.405-2.928,20.067-14.835,18.08-25.416c-1.025,0.88-1.919,1.632-2.787,2.402
		c-5.115,4.542-10.194,9.126-15.349,13.625c-2.872,2.5-5.544,2.523-7.622-0.142c-4.633-5.94-9.083-12.022-13.753-18.239
		c2.671-1.999,5.184-3.889,7.794-5.845C273.779,165.75,277.147,170.224,280.681,174.912z"/>
	<path d="M167.429,238.763c0-3.148,0-6.112,0-9.328c51.43,0,102.769,0,154.346,0c0,3.05,0,6.088,0,9.328
		C270.32,238.763,218.963,238.763,167.429,238.763z"/>
	<path d="M167.404,258.121c0-3.246,0-6.216,0-9.389c51.504,0,102.85,0,154.4,0c0,3.136,0,6.18,0,9.389
		C270.32,258.121,219.042,258.121,167.404,258.121z"/>
	<path d="M285.748,310.822c2.944-1.82,5.66-3.502,8.759-5.415c1.699,2.677,3.38,5.33,5.214,8.215
		c-3.509,2.177-6.705,4.456-10.165,6.235c-5.165,2.652-11.302-0.104-13.063-5.734c-0.686-2.176-0.917-4.498-1.517-7.615
		c-1.302,4.31-2.225,7.88-3.472,11.333c-1.18,3.281-3.655,5.402-7.201,5.544c-3.392,0.128-6.104-1.546-7.433-4.7
		c-0.831-1.993-1.174-4.23-1.511-6.388c-0.348-2.28-0.416-4.604-0.659-6.901c-0.08-0.686-0.136-1.521-0.532-1.998
		c-0.856-1.009-2.011-2.604-2.904-2.52c-1.155,0.116-2.775,1.442-3.129,2.579c-0.526,1.693-0.55,3.82-0.012,5.515
		c0.807,2.537,2.292,4.854,3.673,7.628c-2.269,1.724-4.7,3.576-7.426,5.647c-4.701-6.479-8.191-12.945-5.948-21.058
		c1.724-6.267,6.871-10.281,12.934-10.257c5.703,0.023,10.794,4.271,12.47,10.435c0.313,1.137,0.544,2.304,0.897,3.826
		c1.192-2.048,2.134-3.888,3.276-5.587c2.268-3.368,5.544-4.604,9.443-3.82c3.691,0.745,6.009,3.179,6.857,6.815
		C284.916,305.199,285.24,307.864,285.748,310.822z"/>
	<path d="M167.404,219.411c0-3.19,0-6.155,0-9.34c30.275,0,60.397,0,90.746,0c0,3.014,0,6.07,0,9.34
		C228.016,219.411,197.893,219.411,167.404,219.411z"/>
	<path d="M234.745,277.467c-22.513,0-44.786,0-67.286,0c0-3.195,0-6.239,0-9.448c22.458,0,44.744,0,67.286,0
		C234.745,271.079,234.745,274.123,234.745,277.467z"/>
	<path d="M239.079,339.723c0-3.173,0-6.155,0-9.334c20.854,0,41.606,0,62.572,0c0,3.024,0,6.076,0,9.334
		C280.913,339.723,260.161,339.723,239.079,339.723z"/>
</g>
<g>
	<path fill="#FFFFFF" d="M351.744,108.084c0,5.171,0.188,9.902-0.08,14.609c-0.146,2.708,0.93,3.551,3.344,4.132
		c17.293,4.175,34.554,8.484,51.828,12.757c0.952,0.238,1.889,0.563,2.977,0.894c-3.148,12.763-6.247,25.342-9.364,37.921
		c-9.627,38.833-19.271,77.659-28.813,116.516c-0.354,1.455-0.079,3.355,0.568,4.73c3.142,6.584,2.879,12.849-1.346,18.82
		c-1.662,2.365-3.551,4.571-5.477,7.028c5.722,4.598,11.247,9.108,16.895,13.466c0.717,0.545,2.092,0.503,3.101,0.35
		c11.154-1.662,20.886,5.893,22.311,17.365c1.234,9.993-6.883,20-17.022,20.973c-11.303,1.088-20.782-6.854-21.62-17.916
		c-0.099-1.296-0.898-2.83-1.876-3.71c-2.728-2.47-5.709-4.658-9.14-7.384c-2.011,11.602-6.876,21.979-6.338,33.696
		c-64.585,0-129.047,0-193.691,0c0-91.344,0-182.604,0-274.248c2.995,0,5.893,0.153,8.765-0.08c1.04-0.085,2.445-0.837,2.94-1.711
		c4.522-8.031,11.233-12.665,20.494-12.652c9.12,0.012,15.795,4.534,20.33,12.427c0.551,0.959,2.055,1.901,3.131,1.932
		c6.846,0.171,13.697,0.019,20.544,0.128c1.9,0.037,2.658-0.604,2.988-2.438c0.44-2.451,1.187-4.849,1.901-7.642
		c5.188,1.247,10.231,2.445,15.269,3.687c7.61,1.889,15.195,3.863,22.817,5.703c1.742,0.416,3.57,0.617,5.361,0.624
		c21.852,0.042,43.696,0.023,65.544,0.023C349.177,108.084,350.259,108.084,351.744,108.084z M191.206,158.378
		c0-1.547,0.006-2.836,0-4.126c-0.013-5.739,0.023-11.473-0.11-17.213c-0.019-0.789-0.898-1.559-1.381-2.341
		c-0.532,0.746-1.51,1.497-1.516,2.249c-0.099,9.065-0.215,18.124,0.049,27.176c0.109,3.918,3.648,7.061,7.262,7.372
		c3.209,0.275,6.889-2.402,7.861-5.917c0.336-1.233,0.359-2.592,0.359-3.888c0.024-13.588,0.02-27.183,0.013-40.776
		c0-0.96-0.11-1.932-0.159-2.879c-12.115,0-23.938,0-35.771,0c0,85.006,0,169.812,0,254.542c58.186,0,116.112,0,174.053,0
		c0-6.441,0-12.629,0-18.869c-8.063,2.787-11.991,3.483-16.345,0.838c-5.94-3.612-11.375-8.063-17.146-12.243
		c10.946-13.681,21.479-26.772,31.877-39.971c1.015-1.276,1.681-3.215,1.687-4.841c0.086-58.796,0.073-117.598,0.073-176.399
		c0-1.045,0-2.097,0-3.099c-43.062,0-85.617,0-128.515,0c0,1.333,0,2.512,0,3.698c-0.006,13.894,0.073,27.788-0.05,41.681
		c-0.078,9.652-7.701,17.562-16.938,17.903c-9.089,0.336-17.598-7.255-18.014-16.821c-0.416-9.542-0.281-19.126-0.042-28.686
		c0.152-5.941,5.177-10.733,10.843-11.069c5.098-0.3,10.954,4.034,11.29,9.401c0.495,7.995,0.128,16.045,0.128,24.278
		C197.704,158.378,194.727,158.378,191.206,158.378z M355.075,284.233c2.47,1.956,4.854,3.839,7.549,5.972
		c11.87-47.836,23.611-95.165,35.422-142.75c-15.593-3.863-30.831-7.64-46.033-11.406c0,50.605,0,100.894,0,151.571
		C353.199,286.306,354.066,285.346,355.075,284.233z M356.261,298.097c-11.247,14.034-22.536,28.142-33.96,42.401
		c1.405,1.138,2.634,2.157,3.899,3.143c5.28,4.132,9.192,3.661,13.403-1.613c6.65-8.332,13.295-16.676,19.957-25
		c7.104-8.895,6.688-12.079-2.512-18.68C356.903,298.243,356.689,298.231,356.261,298.097z M357.429,335.572
		c6.161,4.938,12.121,9.848,18.245,14.555c2.47,1.9,3.778,3.961,3.289,7.163c-0.202,1.326,0.006,2.837,0.422,4.133
		c1.632,5.012,6.876,7.658,11.803,6.105c5.049-1.577,7.738-6.553,6.333-11.699c-1.362-4.993-6.706-8.13-11.883-6.437
		c-3.319,1.088-5.673,0.446-8.233-1.705c-5.91-4.951-12.022-9.67-18.202-14.609C358.547,334.002,358.046,334.704,357.429,335.572z
		 M180.729,107.834c6.491,0,12.592,0,18.918,0C194.33,101.85,186.053,101.837,180.729,107.834z"/>
	<path fill="#FFFFFF" d="M316.555,141.88c3.698-3.258,7.298-6.436,11.1-9.792c2.188,2.471,4.236,4.769,6.449,7.257
		c-3.941,3.515-7.72,6.968-11.602,10.293c-1.302,1.125-1.583,2.133-1.253,3.882c2.628,13.887-1.375,25.66-12.537,34.32
		c-11.253,8.735-23.895,9.921-36.583,3.467c-12.817-6.522-19.052-17.567-18.814-31.927c0.245-14.333,10.056-26.869,24.096-31.441
		c13.313-4.328,28.344,0.281,37.157,11.399C315.18,140.114,315.784,140.89,316.555,141.88z M290.681,164.912
		c6.223-5.538,12.206-10.855,18.136-16.125c-5.08-10.646-18.894-15.52-30.396-10.917c-11.956,4.792-18.203,18.258-14.182,30.581
		c4.011,12.255,17.023,19.353,29.579,16.131c11.405-2.928,20.067-14.835,18.08-25.416c-1.025,0.88-1.919,1.632-2.787,2.402
		c-5.115,4.542-10.194,9.126-15.349,13.625c-2.872,2.5-5.544,2.523-7.622-0.142c-4.633-5.94-9.083-12.022-13.753-18.239
		c2.671-1.999,5.184-3.889,7.794-5.845C283.779,155.75,287.147,160.224,290.681,164.912z"/>
	<path fill="#FFFFFF" d="M177.429,228.763c0-3.148,0-6.112,0-9.328c51.43,0,102.769,0,154.346,0c0,3.05,0,6.088,0,9.328
		C280.32,228.763,228.963,228.763,177.429,228.763z"/>
	<path fill="#FFFFFF" d="M177.404,248.121c0-3.246,0-6.216,0-9.389c51.504,0,102.85,0,154.4,0c0,3.136,0,6.18,0,9.389
		C280.32,248.121,229.042,248.121,177.404,248.121z"/>
	<path fill="#FFFFFF" d="M295.748,300.822c2.944-1.82,5.66-3.502,8.759-5.415c1.699,2.677,3.38,5.33,5.214,8.215
		c-3.509,2.177-6.705,4.456-10.165,6.235c-5.165,2.652-11.302-0.104-13.063-5.734c-0.686-2.176-0.917-4.498-1.517-7.615
		c-1.302,4.31-2.225,7.88-3.472,11.333c-1.18,3.281-3.655,5.402-7.201,5.544c-3.392,0.128-6.104-1.546-7.433-4.7
		c-0.831-1.993-1.174-4.23-1.511-6.388c-0.348-2.28-0.416-4.604-0.659-6.901c-0.08-0.686-0.136-1.521-0.532-1.998
		c-0.856-1.009-2.011-2.604-2.904-2.52c-1.155,0.116-2.775,1.442-3.129,2.579c-0.526,1.693-0.55,3.82-0.012,5.515
		c0.807,2.537,2.292,4.854,3.673,7.628c-2.269,1.724-4.7,3.576-7.426,5.647c-4.701-6.479-8.191-12.945-5.948-21.058
		c1.724-6.267,6.871-10.281,12.934-10.257c5.703,0.023,10.794,4.271,12.47,10.435c0.313,1.137,0.544,2.304,0.897,3.826
		c1.192-2.048,2.134-3.888,3.276-5.587c2.268-3.368,5.544-4.604,9.443-3.82c3.691,0.745,6.009,3.179,6.857,6.815
		C294.916,295.199,295.24,297.864,295.748,300.822z"/>
	<path fill="#FFFFFF" d="M177.404,209.411c0-3.19,0-6.155,0-9.34c30.275,0,60.397,0,90.746,0c0,3.014,0,6.07,0,9.34
		C238.016,209.411,207.893,209.411,177.404,209.411z"/>
	<path fill="#FFFFFF" d="M244.745,267.467c-22.513,0-44.786,0-67.286,0c0-3.195,0-6.239,0-9.448c22.458,0,44.744,0,67.286,0
		C244.745,261.079,244.745,264.123,244.745,267.467z"/>
	<path fill="#FFFFFF" d="M249.079,329.723c0-3.173,0-6.155,0-9.334c20.854,0,41.606,0,62.572,0c0,3.024,0,6.076,0,9.334
		C290.913,329.723,270.161,329.723,249.079,329.723z"/>
</g>
</svg>
