<?xml version="1.0" encoding="utf-8"?>
<!-- Generator: Adobe Illustrator 24.3.0, SVG Export Plug-In . SVG Version: 6.00 Build 0)  -->
<svg version="1.1" id="Layer_1" xmlns="http://www.w3.org/2000/svg" xmlns:xlink="http://www.w3.org/1999/xlink" x="0px" y="0px"
	 viewBox="0 0 472 461" style="enable-background:new 0 0 472 461;" xml:space="preserve">
<style type="text/css">
	.st0{fill:url(#SVGID_1_);}
	.st1{fill:url(#SVGID_2_);}
	.st2{fill:#FFFFFF;}
	.st3{fill:#EDEDED;}
	.st4{fill:#EC1D24;}
</style>
<g>
	<g>
		
			<linearGradient id="SVGID_1_" gradientUnits="userSpaceOnUse" x1="379.4662" y1="140.3666" x2="692.012" y2="-172.179" gradientTransform="matrix(1 0 0 -1 -290.0552 215.9691)">
			<stop  offset="0" style="stop-color:#E01E26"/>
			<stop  offset="1" style="stop-color:#8C181B"/>
		</linearGradient>
		<path class="st0" d="M465.8,229.5c0,122.9-99.6,222.5-222.5,222.5S20.8,352.4,20.8,229.5S120.4,7,243.3,7
			C366.2,7,465.8,106.6,465.8,229.5z"/>
		
			<linearGradient id="SVGID_2_" gradientUnits="userSpaceOnUse" x1="428.5953" y1="172.2098" x2="638.1321" y2="-190.7186" gradientTransform="matrix(1 0 0 -1 -290.0552 215.9691)">
			<stop  offset="0" style="stop-color:#8C181B"/>
			<stop  offset="1" style="stop-color:#E01E26"/>
		</linearGradient>
		<path class="st1" d="M452.8,225.2c0,115.7-93.8,209.5-209.5,209.5S33.8,340.9,33.8,225.2S127.6,15.7,243.3,15.7
			S452.8,109.5,452.8,225.2z"/>
	</g>
	<g>
		<polygon class="st2" points="231.2,88.5 231.2,428.2 242.3,428.2 242.3,93.4 		"/>
		<polygon class="st3" points="173.6,70.6 130.1,93.1 173.6,117.8 343.4,117.8 343.4,70.6 		"/>
		<polygon class="st3" points="173.6,192.6 130.1,215.1 173.6,239.7 343.4,239.7 343.4,192.6 		"/>
		<polygon class="st3" points="323.1,131.6 366.6,154.1 323.1,178.8 153.3,178.8 153.3,131.6 		"/>
		<polygon class="st3" points="323.1,258.4 366.6,280.9 323.1,305.5 153.3,305.5 153.3,258.4 		"/>
		<g>
			<g>
				<path class="st4" d="M200.6,78.9h4.6v24.2h-4.6V78.9z M202.7,89.3h7.7c0.5,0,1-0.1,1.5-0.4c0.4-0.2,0.7-0.6,1-1.1
					c0.2-0.5,0.3-1,0.3-1.6s-0.1-1.1-0.3-1.6c-0.2-0.5-0.5-0.8-1-1.1s-0.9-0.4-1.5-0.4h-7.7v-4.4h7.6c1.5,0,2.9,0.3,4,0.9
					c1.2,0.6,2,1.5,2.7,2.6c0.6,1.1,1,2.4,1,3.9c0,1.5-0.3,2.8-1,3.9s-1.5,2-2.7,2.6c-1.2,0.6-2.5,0.9-4,0.9h-7.6L202.7,89.3
					L202.7,89.3z"/>
				<path class="st4" d="M226,97.4c0,0.4,0.1,0.7,0.4,1c0.2,0.2,0.6,0.3,1,0.3h0.8v4.4h-2.3c-1.4,0-2.5-0.4-3.2-1.2
					c-0.8-0.8-1.2-1.9-1.2-3.4V78.9h4.6L226,97.4L226,97.4z"/>
				<path class="st4" d="M231.9,102.1c-0.9-0.9-1.4-2.2-1.4-4c0-1.7,0.5-3,1.5-3.9s2.6-1.3,4.6-1.3h4.3l0.2,3.5h-4.5
					c-0.7,0-1.2,0.1-1.5,0.4c-0.3,0.3-0.5,0.7-0.5,1.2c0,0.6,0.2,1,0.6,1.3c0.4,0.3,1.1,0.4,2,0.4c1.2,0,2.1-0.1,2.7-0.4
					c0.6-0.3,0.9-0.7,0.9-1.3l0.3,2.5c-0.1,0.6-0.3,1.2-0.9,1.6c-0.5,0.4-1.1,0.8-1.9,1s-1.6,0.3-2.4,0.3
					C234.2,103.4,232.8,103,231.9,102.1z M240.9,92.2c0-0.8-0.3-1.4-0.8-1.8c-0.5-0.4-1.3-0.6-2.3-0.6c-0.6,0-1.3,0.1-1.9,0.3
					c-0.6,0.2-1.2,0.5-1.7,0.9l-2.8-2.8c0.7-0.8,1.6-1.4,2.7-1.8c1.1-0.4,2.4-0.7,3.8-0.7c1.5,0,2.8,0.2,3.9,0.8
					c1.1,0.5,1.9,1.2,2.4,2.2c0.6,1,0.8,2.1,0.8,3.5v11.1h-4.2L240.9,92.2L240.9,92.2z"/>
				<path class="st4" d="M249.5,85.8h4.6v17.3h-4.6V85.8z M259.5,92.7c0-0.8-0.2-1.5-0.7-2c-0.5-0.5-1.2-0.7-2.1-0.7
					c-0.8,0-1.5,0.2-2,0.7c-0.5,0.5-0.7,1.1-0.7,2l-0.3-3.8c0.5-1.1,1.2-1.9,1.9-2.5c0.7-0.5,1.6-0.8,2.7-0.8c1.8,0,3.2,0.6,4.2,1.8
					c1,1.2,1.5,3,1.5,5.2v10.5h-4.6L259.5,92.7L259.5,92.7z"/>
				<path class="st4" d="M285,78.9h2.9l9.3,24.2h-4.9l-5.8-16.5l-5.8,16.5h-4.9L285,78.9z M280.2,94.9h12.7v4.4h-12.7V94.9z"/>
			</g>
		</g>
		<g>
			<g>
				<g>
					<path class="st4" d="M200.6,140h4.6v24.2h-4.6V140z M202.7,150.5h7.7c0.5,0,1-0.1,1.5-0.4s0.7-0.6,1-1.1c0.2-0.5,0.3-1,0.3-1.6
						c0-0.6-0.1-1.1-0.3-1.6c-0.2-0.5-0.5-0.8-1-1.1s-0.9-0.4-1.5-0.4h-7.7v-4.4h7.6c1.5,0,2.9,0.3,4,0.9c1.2,0.6,2,1.5,2.7,2.6
						c0.6,1.1,1,2.4,1,3.9c0,1.5-0.3,2.8-1,3.9c-0.6,1.1-1.5,2-2.7,2.6c-1.2,0.6-2.5,0.9-4,0.9h-7.6L202.7,150.5L202.7,150.5z"/>
					<path class="st4" d="M226,158.5c0,0.4,0.1,0.7,0.4,1c0.2,0.2,0.6,0.3,1,0.3h0.8v4.4h-2.3c-1.4,0-2.5-0.4-3.2-1.2
						c-0.8-0.8-1.2-1.9-1.2-3.4V140h4.6L226,158.5L226,158.5z"/>
					<path class="st4" d="M231.9,163.2c-0.9-0.9-1.4-2.2-1.4-4c0-1.7,0.5-3,1.5-3.9c1-0.9,2.6-1.3,4.6-1.3h4.3l0.2,3.5h-4.5
						c-0.7,0-1.2,0.1-1.5,0.4c-0.3,0.3-0.5,0.7-0.5,1.2c0,0.6,0.2,1,0.6,1.3c0.4,0.3,1.1,0.4,2,0.4c1.2,0,2.1-0.1,2.7-0.4
						c0.6-0.3,0.9-0.7,0.9-1.3l0.3,2.5c-0.1,0.6-0.3,1.2-0.9,1.6c-0.5,0.4-1.1,0.8-1.9,1c-0.8,0.2-1.6,0.3-2.4,0.3
						C234.2,164.5,232.8,164.1,231.9,163.2z M240.9,153.3c0-0.8-0.3-1.4-0.8-1.8c-0.5-0.4-1.3-0.6-2.3-0.6c-0.6,0-1.3,0.1-1.9,0.3
						c-0.6,0.2-1.2,0.5-1.7,0.9l-2.8-2.8c0.7-0.8,1.6-1.4,2.7-1.8c1.1-0.4,2.4-0.7,3.8-0.7c1.5,0,2.8,0.2,3.9,0.8
						c1.1,0.5,1.9,1.2,2.4,2.2c0.6,1,0.8,2.1,0.8,3.5v11.1h-4.2L240.9,153.3L240.9,153.3z"/>
					<path class="st4" d="M249.5,147h4.6v17.3h-4.6V147z M259.5,153.8c0-0.8-0.2-1.5-0.7-2c-0.5-0.5-1.2-0.7-2.1-0.7
						c-0.8,0-1.5,0.2-2,0.7s-0.7,1.1-0.7,2l-0.3-3.8c0.5-1.1,1.2-1.9,1.9-2.5c0.7-0.5,1.6-0.8,2.7-0.8c1.8,0,3.2,0.6,4.2,1.8
						c1,1.2,1.5,3,1.5,5.2v10.5h-4.6L259.5,153.8L259.5,153.8z"/>
					<path class="st4" d="M278.1,140h4.6v24.2h-4.6V140z M280.1,159.9h7.7c1,0,1.8-0.2,2.4-0.8c0.6-0.5,0.9-1.2,0.9-2.1v0
						c0-0.6-0.1-1.1-0.4-1.6c-0.3-0.4-0.6-0.8-1.1-1c-0.5-0.2-1.1-0.3-1.8-0.3h-7.7v-4.4h7.7c0.9,0,1.7-0.2,2.2-0.7
						c0.5-0.5,0.8-1.2,0.8-2c0-0.8-0.2-1.4-0.8-1.8c-0.5-0.4-1.3-0.6-2.2-0.6h-7.7v-4.4h7.9c1.6,0,2.9,0.2,4,0.8
						c1.1,0.5,1.9,1.3,2.5,2.3s0.9,2.2,0.9,3.5c0,0.9-0.2,1.8-0.6,2.5c-0.4,0.7-0.9,1.3-1.6,1.8c-0.7,0.5-1.6,0.8-2.6,1
						c1.1,0.1,2,0.5,2.7,1c0.8,0.5,1.3,1.2,1.7,2c0.4,0.8,0.6,1.7,0.6,2.8v0c0,1.4-0.3,2.6-0.9,3.6c-0.6,1-1.4,1.7-2.6,2.3
						c-1.1,0.5-2.5,0.8-4,0.8H280L280.1,159.9L280.1,159.9z"/>
				</g>
			</g>
		</g>
		<g>
			<g>
				<g>
					<path class="st4" d="M200.6,202.6h4.6v24.2h-4.6V202.6z M202.7,213.1h7.7c0.5,0,1-0.1,1.5-0.4c0.4-0.2,0.7-0.6,1-1.1
						c0.2-0.5,0.3-1,0.3-1.6c0-0.6-0.1-1.1-0.3-1.6c-0.2-0.5-0.5-0.8-1-1.1c-0.4-0.2-0.9-0.4-1.5-0.4h-7.7v-4.4h7.6
						c1.5,0,2.9,0.3,4,0.9c1.2,0.6,2,1.5,2.7,2.6c0.6,1.1,1,2.4,1,3.9c0,1.5-0.3,2.8-1,3.9c-0.6,1.1-1.5,2-2.7,2.6
						c-1.2,0.6-2.5,0.9-4,0.9h-7.6V213.1z"/>
					<path class="st4" d="M226,221.1c0,0.4,0.1,0.7,0.4,1c0.2,0.2,0.6,0.3,1,0.3h0.8v4.4h-2.3c-1.4,0-2.5-0.4-3.2-1.2
						c-0.8-0.8-1.2-1.9-1.2-3.4v-19.6h4.6L226,221.1L226,221.1z"/>
					<path class="st4" d="M231.9,225.8c-0.9-0.9-1.4-2.2-1.4-4c0-1.7,0.5-3,1.5-3.9c1-0.9,2.6-1.3,4.6-1.3h4.3l0.2,3.5h-4.5
						c-0.7,0-1.2,0.1-1.5,0.4c-0.3,0.3-0.5,0.7-0.5,1.2c0,0.6,0.2,1,0.6,1.3c0.4,0.3,1.1,0.4,2,0.4c1.2,0,2.1-0.1,2.7-0.4
						c0.6-0.3,0.9-0.7,0.9-1.3l0.3,2.5c-0.1,0.6-0.3,1.2-0.9,1.6c-0.5,0.4-1.1,0.8-1.9,1c-0.8,0.2-1.6,0.3-2.4,0.3
						C234.2,227.1,232.8,226.7,231.9,225.8z M240.9,215.9c0-0.8-0.3-1.4-0.8-1.8c-0.5-0.4-1.3-0.6-2.3-0.6c-0.6,0-1.3,0.1-1.9,0.3
						c-0.6,0.2-1.2,0.5-1.7,0.9l-2.8-2.8c0.7-0.8,1.6-1.4,2.7-1.8c1.1-0.4,2.4-0.7,3.8-0.7c1.5,0,2.8,0.2,3.9,0.8
						c1.1,0.5,1.9,1.2,2.4,2.2c0.6,1,0.8,2.1,0.8,3.5v11.1h-4.2L240.9,215.9L240.9,215.9z"/>
					<path class="st4" d="M249.5,209.6h4.6v17.3h-4.6V209.6z M259.5,216.4c0-0.8-0.2-1.5-0.7-2c-0.5-0.5-1.2-0.7-2.1-0.7
						c-0.8,0-1.5,0.2-2,0.7s-0.7,1.1-0.7,2l-0.3-3.8c0.5-1.1,1.2-1.9,1.9-2.5c0.7-0.5,1.6-0.8,2.7-0.8c1.8,0,3.2,0.6,4.2,1.8
						c1,1.2,1.5,3,1.5,5.2v10.5h-4.6L259.5,216.4L259.5,216.4z"/>
					<path class="st4" d="M281.6,226.1c-1.3-0.7-2.3-1.7-3-3.1c-0.7-1.4-1-3-1-4.9v-6.6c0-1.9,0.3-3.5,1-4.9s1.7-2.4,3-3.1
						c1.3-0.7,2.9-1.1,4.7-1.1c1.5,0,2.9,0.3,4.1,1c1.2,0.7,2.2,1.6,3,2.9c0.8,1.3,1.3,2.8,1.6,4.5h-4.7c-0.2-0.8-0.4-1.5-0.8-2
						c-0.4-0.6-0.8-1-1.4-1.3c-0.5-0.3-1.1-0.4-1.8-0.4c-0.9,0-1.6,0.2-2.2,0.5c-0.6,0.3-1.1,0.9-1.4,1.5c-0.3,0.7-0.5,1.5-0.5,2.4
						v6.6c0,0.9,0.1,1.7,0.5,2.4c0.3,0.7,0.8,1.2,1.4,1.5c0.6,0.3,1.3,0.5,2.2,0.5c0.7,0,1.3-0.1,1.8-0.4s1-0.7,1.4-1.3
						c0.4-0.6,0.6-1.3,0.8-2.1h4.7c-0.3,1.8-0.9,3.3-1.6,4.5c-0.8,1.3-1.8,2.2-3,2.9c-1.2,0.7-2.6,1-4.1,1
						C284.5,227.1,282.9,226.8,281.6,226.1z"/>
				</g>
			</g>
		</g>
		<g>
			<g>
				<g>
					<path class="st4" d="M200.6,269.2h4.6v24.2h-4.6V269.2z M202.7,279.6h7.7c0.5,0,1-0.1,1.5-0.4c0.4-0.2,0.7-0.6,1-1.1
						c0.2-0.5,0.3-1,0.3-1.6c0-0.6-0.1-1.1-0.3-1.6c-0.2-0.5-0.5-0.8-1-1.1c-0.4-0.2-0.9-0.4-1.5-0.4h-7.7v-4.4h7.6
						c1.5,0,2.9,0.3,4,0.9c1.2,0.6,2,1.5,2.7,2.6c0.6,1.1,1,2.4,1,3.9c0,1.5-0.3,2.8-1,3.9s-1.5,2-2.7,2.6c-1.2,0.6-2.5,0.9-4,0.9
						h-7.6L202.7,279.6L202.7,279.6z"/>
					<path class="st4" d="M226,287.7c0,0.4,0.1,0.7,0.4,1c0.2,0.2,0.6,0.3,1,0.3h0.8v4.4h-2.3c-1.4,0-2.5-0.4-3.2-1.2
						c-0.8-0.8-1.2-1.9-1.2-3.4v-19.6h4.6L226,287.7L226,287.7z"/>
					<path class="st4" d="M231.9,292.3c-0.9-0.9-1.4-2.2-1.4-4c0-1.7,0.5-3,1.5-3.9s2.6-1.3,4.6-1.3h4.3l0.2,3.5h-4.5
						c-0.7,0-1.2,0.1-1.5,0.4s-0.5,0.7-0.5,1.2c0,0.6,0.2,1,0.6,1.3s1.1,0.4,2,0.4c1.2,0,2.1-0.1,2.7-0.4s0.9-0.7,0.9-1.3l0.3,2.5
						c-0.1,0.6-0.3,1.2-0.9,1.6s-1.1,0.8-1.9,1s-1.6,0.3-2.4,0.3C234.2,293.7,232.8,293.2,231.9,292.3z M240.9,282.4
						c0-0.8-0.3-1.4-0.8-1.8c-0.5-0.4-1.3-0.6-2.3-0.6c-0.6,0-1.3,0.1-1.9,0.3c-0.6,0.2-1.2,0.5-1.7,0.9l-2.8-2.8
						c0.7-0.8,1.6-1.4,2.7-1.8c1.1-0.4,2.4-0.7,3.8-0.7c1.5,0,2.8,0.2,3.9,0.8c1.1,0.5,1.9,1.2,2.4,2.2c0.6,1,0.8,2.1,0.8,3.5v11.1
						h-4.2L240.9,282.4L240.9,282.4z"/>
					<path class="st4" d="M249.5,276.1h4.6v17.3h-4.6V276.1z M259.5,282.9c0-0.8-0.2-1.5-0.7-2c-0.5-0.5-1.2-0.7-2.1-0.7
						c-0.8,0-1.5,0.2-2,0.7s-0.7,1.1-0.7,2l-0.3-3.8c0.5-1.1,1.2-1.9,1.9-2.5c0.7-0.5,1.6-0.8,2.7-0.8c1.8,0,3.2,0.6,4.2,1.8
						c1,1.2,1.5,3,1.5,5.2v10.5h-4.6L259.5,282.9L259.5,282.9z"/>
					<path class="st4" d="M278.1,269.2h4.6v24.2h-4.6V269.2z M280.3,289h5.8c1.5,0,2.7-0.4,3.5-1.1c0.8-0.7,1.2-1.7,1.2-3.1v-7.1
						c0-1.3-0.4-2.3-1.2-3.1c-0.8-0.7-2-1.1-3.5-1.1h-5.8v-4.4h5.7c2,0,3.7,0.3,5.2,1c1.4,0.7,2.5,1.7,3.2,3
						c0.7,1.3,1.1,2.9,1.1,4.7v6.9c0,1.7-0.4,3.3-1.1,4.6c-0.7,1.3-1.8,2.3-3.2,3c-1.4,0.7-3.2,1.1-5.3,1.1h-5.7L280.3,289
						L280.3,289z"/>
				</g>
			</g>
		</g>
	</g>
</g>
</svg>
