<?xml version="1.0" encoding="utf-8"?>
<!-- Generator: Adobe Illustrator 16.0.0, SVG Export Plug-In . SVG Version: 6.00 Build 0)  -->
<!DOCTYPE svg PUBLIC "-//W3C//DTD SVG 1.1//EN" "http://www.w3.org/Graphics/SVG/1.1/DTD/svg11.dtd">
<svg version="1.1" id="Layer_1" xmlns="http://www.w3.org/2000/svg" xmlns:xlink="http://www.w3.org/1999/xlink" x="0px" y="0px"
	 width="512px" height="512px" viewBox="0 0 512 512" enable-background="new 0 0 512 512" xml:space="preserve">
<g>
	<g>
		
			<linearGradient id="SVGID_1_" gradientUnits="userSpaceOnUse" x1="76.2512" y1="403.4138" x2="392.3243" y2="87.3406" gradientTransform="matrix(1 0 0 -1 24.9448 503.3589)">
			<stop  offset="0" style="stop-color:#FF7601"/>
			<stop  offset="1" style="stop-color:#FF0000"/>
		</linearGradient>
		<path fill="url(#SVGID_1_)" d="M481.831,255.581c0,124.262-100.732,225-224.999,225c-124.268,0-225-100.738-225-225
			c0-124.264,100.732-225,225-225C381.099,30.581,481.831,131.317,481.831,255.581z"/>
		
			<linearGradient id="SVGID_2_" gradientUnits="userSpaceOnUse" x1="125.9397" y1="431.282" x2="337.8346" y2="64.2692" gradientTransform="matrix(1 0 0 -1 24.9448 503.3589)">
			<stop  offset="0" style="stop-color:#FF0000"/>
			<stop  offset="1" style="stop-color:#FF6301"/>
		</linearGradient>
		<path fill="url(#SVGID_2_)" d="M468.69,255.581c0,117.012-94.854,211.864-211.857,211.864S44.974,372.593,44.974,255.581
			c0-117.005,94.854-211.857,211.858-211.857S468.69,138.576,468.69,255.581z"/>
	</g>
</g>
<g opacity="0.5">
	<g>
		<path d="M246.502,153.05c-36.381,0-72.549,0-109.089,0c-0.214,1.853-0.544,3.479-0.551,5.123
			c-0.03,19.298,0.116,38.606-0.104,57.892c-0.062,4.743,1.418,6.216,6.167,6.161c19.511-0.227,39.028-0.33,58.527,0.128
			c3.747,0.086,8.605,1.938,10.88,4.676c5.061,6.106-0.006,14.75-8.576,14.988c-12.286,0.323-24.591,0.128-36.896,0.134
			c-12.72,0.006-25.458,0.092-38.167-0.037c-8.41-0.098-11.979-3.643-12.011-12.127c-0.098-28.423-0.098-56.846,0-85.266
			c0.03-8.387,3.71-12.234,11.999-12.25c42.201-0.096,84.407-0.096,126.603,0.009c7.738,0.023,11.319,3.594,11.778,11.201
			c0.244,4.224,0.25,8.5-0.086,12.711c-0.556,6.62-4.242,10.195-9.951,10.195c-5.408,0-9.033-3.404-10.042-9.492
			C246.783,155.887,246.686,154.64,246.502,153.05z"/>
		<path d="M163.158,197.054c2.738,1.259,4.768,2.512,6.969,3.129c3.411,0.96,6.938,1.926,10.428,1.975
			c1.534,0.012,3.105-2.237,4.664-3.448c-1.192-1.503-2.078-3.63-3.619-4.352c-3.618-1.699-7.585-2.659-11.345-4.04
			c-5.819-2.133-9.859-5.789-10.03-12.463c-0.171-6.418,2.94-10.648,8.559-13.637c1.826-0.979,2.714-3.618,4.192-5.36
			c1.144-1.352,2.408-3.319,3.827-3.521c1.375-0.208,4.303,1.412,4.364,2.385c0.348,5.599,5.018,5.867,8.417,8.038
			c2.06,1.345,3.067,4.314,4.554,6.552c-2.372,1.009-4.805,2.928-7.109,2.788c-3.472-0.238-6.797-2.434-10.28-2.732
			c-1.742-0.159-3.687,2.036-5.526,3.154c1.253,1.663,2.152,4.027,3.827,4.847c3.576,1.748,7.567,2.642,11.351,3.998
			c5.948,2.121,9.726,6.173,9.737,12.671c0.018,6.56-3.301,11.021-9.358,13.814c-2.054,0.954-3.301,3.526-5.036,5.214
			c-1.399,1.363-3.038,3.527-4.499,3.472c-1.485-0.073-4.017-2.329-4.108-3.759c-0.238-3.838-2.542-4.7-5.434-5.825
			c-2.715-1.039-5.466-2.463-7.567-4.389c-1.058-0.959-1.381-3.649-0.837-5.128C159.815,198.992,161.851,198.111,163.158,197.054z"
			/>
	</g>
	<g>
		<path d="M307.993,297.806c-22.151,0-44.298,0.152-66.46-0.056c-13.705-0.122-22.451-9.363-22.451-23.057
			c0-28.337,0.464-56.668-0.257-84.975c-0.245-9.407,10.867-21.132,19.639-21.211c9.083-0.072,18.154-0.537,27.23-0.556
			c32.141-0.08,64.285-0.073,96.418-0.023c4.714,0,9.443,0.214,14.133,0.653c12.83,1.187,20.807,10.179,20.807,23.215
			c0,27.788,0,55.568,0,83.338c0,12.714-9.205,22.438-22.06,22.562c-22.329,0.238-44.664,0.073-66.999,0.073
			C307.993,297.775,307.993,297.794,307.993,297.806z M384.986,215.948c-2.427,0-4.205,0-5.979,0c-37.414,0-74.841,0-112.249,0.024
			c-9.812,0.006-19.621,0.134-29.432,0.171c-2.818,0.006-4.854,0.416-4.812,4.132c0.263,17.977,0.171,35.959,0.532,53.931
			c0.135,7.098,3.167,9.561,10.312,9.578c21.986,0.012,43.968,0.042,65.941-0.019c22.163-0.05,44.314-0.165,66.485-0.336
			c5.536-0.043,9.112-2.959,9.149-7.818C385.071,256.015,384.986,236.394,384.986,215.948z M384.778,193.863
			c0.178-8.02-2.011-10.617-9.059-11.21c-2.176-0.178-4.358-0.257-6.528-0.257c-42.14-0.062-84.271-0.116-126.398-0.142
			c-7.042,0-10.458,4.176-9.652,11.607C283.58,193.863,334.026,193.863,384.778,193.863z"/>
		<path d="M268.066,269.646c-8.093,6.198-16.589,6.088-22.206-0.049c-4.907-5.354-5.123-14.064-0.488-19.413
			c5.983-6.876,13.813-7.183,22.751-0.887c10.023-6.026,17.988-5.715,23.195,0.887c4.641,5.917,4.377,14.07-0.642,19.37
			C284.692,275.868,277.181,275.96,268.066,269.646z"/>
	</g>
	<g>
		<path d="M340.879,315.887c0,8.007-0.116,15.086,0.128,22.146c0.043,1.021,1.755,2.091,2.854,2.909
			c0.611,0.452,1.571,0.446,2.359,0.644c-0.024,0.22-0.061,0.434-0.092,0.646c-4.303,0-8.612,0-12.958,0
			c0.055-0.306,0.055-0.599,0.116-0.611c3.851-0.807,4.425-3.654,4.432-6.938c0.012-6.491,0.092-12.989,0.098-19.48
			c0.006-4.284-0.604-5.062-4.683-6.425c-0.36-0.122-0.66-0.396-1.082-0.66c2.978-1.803,9.249-0.982,11.26,1.333
			c5.733,6.639,11.467,13.288,17.2,19.928c0.666,0.77,1.394,1.497,2.237,2.401c0-6.804,0.066-13.325-0.037-19.842
			c-0.03-1.852-1.503-2.622-3.178-2.994c-0.809-0.178-1.583-0.489-2.372-0.746c0.062-0.227,0.122-0.459,0.184-0.685
			c4.389,0,8.777,0,13.814,0c-0.766,0.617-1.139,1.174-1.608,1.265c-2.714,0.551-3.41,2.451-3.447,4.859
			c-0.128,8.601-0.257,17.195-0.385,25.795c-0.013,1.039,0,2.091,0,3.173c-1.962,0.758-3.166,0.287-4.401-1.247
			c-6.381-7.928-12.873-15.764-19.314-23.644C341.673,317.311,341.447,316.822,340.879,315.887z"/>
		<path d="M211.734,342.3c-4.106,0-8.215,0-12.028,0c4.597-5.373,2.242-11.646,1.962-17.55c-0.099-2.104-2.634-3.252-4.945-2.731
			c-2.079,0.465-3.741,1.296-3.563,4.01c0.195,3.063-0.007,6.149,0.062,9.211c0.049,2.514-0.978,5.465,3.129,6.504
			c-0.22,0.179-0.452,0.35-0.672,0.521c-4.224,0-8.441,0-12.726,0c0.079-0.354,0.079-0.501,0.109-0.507
			c4.322-0.813,3.869-4.065,3.833-7.243c-0.073-7.464-0.061-14.935,0-22.396c0.02-2.615,0.25-5.201-3.991-4.938
			c0.122-0.318,0.238-0.648,0.354-0.967c3.178-0.659,6.351-1.309,9.915-2.042c0,5.796,0,11.346,0,17.408
			c1.326-0.818,2.17-1.355,3.032-1.876c2.842-1.688,5.818-1.986,8.765-0.459c2.849,1.485,3.496,4.205,3.502,7.158
			c0.006,2.549-0.042,5.092,0.012,7.641C208.556,337.104,207.4,340.697,211.734,342.3z"/>
		<path d="M103.452,341.565c5.52-0.881,5.86-5.642,7.414-9.358c3.179-7.592,6.045-15.323,9.169-22.951
			c0.422-1.027,1.576-1.742,2.799-3.032c2.769,7.609,5.214,14.357,7.684,21.094c1.112,3.045,1.986,6.217,3.484,9.071
			c1.155,2.193,3.104,3.979,4.65,5.887c-4.234,0-9.016,0-13.813,0c0.031-0.373-0.012-0.647,0.073-0.697
			c3.337-1.767,3.337-1.767,1.846-5.477c-2.14-5.36-2.14-5.36-7.916-5.36c-4.438,0-4.444,0-5.703,4.242
			c-0.208,0.666-0.342,1.356-0.587,2.018c-0.855,2.249-0.819,3.99,2.219,4.204c0.324,0.031,0.611,0.44,1.448,1.082
			c-4.547,0-8.441,0-12.335,0C103.739,342.049,103.599,341.81,103.452,341.565z M123.813,328.168
			c-1.394-3.9-2.665-7.451-3.93-10.997c-0.232,0.007-0.464,0.013-0.697,0.019c-1.241,3.552-2.481,7.108-3.839,10.979
			C118.323,328.168,120.823,328.168,123.813,328.168z"/>
		<path d="M152.303,319.529c2.995-0.299,5.99-0.604,9.401-0.953c0,3.82,0,7.385,0,10.947c0,1.846-0.013,3.692,0,5.525
			c0.023,2.523-0.458,5.386,3.948,5.086c-0.098,0.317-0.194,0.636-0.299,0.953c-3.147,0.709-6.308,1.411-9.658,2.157
			c-0.171-1.223-0.312-2.225-0.494-3.563c-1.357,0.813-2.5,1.553-3.692,2.206c-5.954,3.246-11.04,0.403-11.235-6.338
			c-0.092-3.16-0.019-6.32-0.019-9.48c0-4.096,0-4.096-3.221-6.474c3.068-0.35,6.143-0.69,9.67-1.095c0,2.494-0.013,4.726,0,6.963
			c0.019,3.417-0.05,6.846,0.098,10.263c0.104,2.457,1.601,3.747,3.881,3.692c2.763-0.067,4.726-1.73,4.743-4.091
			c0.024-2.634,0.061-5.269-0.006-7.896c-0.079-2.867,1.217-6.357-3.722-7.158C151.905,320.031,152.107,319.78,152.303,319.529z"/>
		<path d="M213.25,331.106c0.104-7.567,5.508-12.879,13.038-12.787c6.949,0.079,11.968,5.142,11.895,12.011
			c-0.08,7.854-5.231,13.015-12.842,12.85C218.109,343.032,213.158,338.088,213.25,331.106z M219.956,330.165
			c0.832,2.689,1.388,6.033,2.879,8.889c1.718,3.318,5.61,3.13,6.913-0.189c2.146-5.458,1.926-11.021-0.789-16.239
			c-0.593-1.139-2.477-2.27-3.723-2.214c-1.234,0.05-2.934,1.346-3.497,2.536C220.805,324.939,220.616,327.286,219.956,330.165z"/>
		<path d="M305.555,329.427c-0.795,7.945,4.805,10.929,14.047,7.451c-0.251,0.732-0.313,1.296-0.594,1.698
			c-2.732,3.826-7.727,5.495-12.133,4.107c-4.688-1.485-7.506-5.228-7.659-10.177c-0.208-6.956,3.856-12.673,9.951-13.969
			c5.202-1.104,9.707,1.706,10.758,6.706c0.526,2.562-0.085,3.337-2.689,3.483C313.396,328.949,309.552,329.193,305.555,329.427z
			 M305.011,327.243c2.273,0,3.832,0.093,5.379-0.036c1.149-0.092,3.222-0.402,3.239-0.728c0.092-1.363-0.122-2.946-0.794-4.12
			c-1.504-2.604-3.985-2.665-5.636-0.171C306.301,323.547,305.86,325.227,305.011,327.243z"/>
		<path d="M388.409,336.748c-0.967,3.711-5.489,6.608-9.486,6.432c-5.313-0.227-9.321-3.398-10.526-8.325
			c-1.398-5.782,1.241-12.09,6.261-14.951c4.682-2.659,9.713-1.999,12.561,1.768c0.667,0.887,1.198,1.975,1.437,3.05
			c0.723,3.228,0.147,3.869-3.116,4.027c-3.16,0.159-6.314,0.436-9.462,0.501c-1.854,0.05-2.2,0.809-1.854,2.494
			c1.188,5.862,6.253,8.559,11.724,6.145C386.654,337.567,387.346,337.237,388.409,336.748z M374.362,327.194
			c2.58,0,4.835,0.135,7.055-0.085c0.563-0.056,1.504-1.303,1.425-1.896c-0.271-2.12-1.088-4.278-3.466-4.688
			c-2.428-0.429-3.466,1.583-4.272,3.453C374.717,324.891,374.638,325.93,374.362,327.194z"/>
		<path d="M297.34,319.438c-4.108,6.865-8.222,13.723-12.354,20.636c5.403,1.485,8.49,0.532,11.646-3.392
			c0.316-0.397,0.935-0.545,1.424-0.801c0.135,0.524,0.495,1.117,0.367,1.569c-0.38,1.353-0.881,2.672-1.475,3.938
			c-0.227,0.465-0.83,1.063-1.276,1.068c-6.277,0.067-12.567,0.043-19.519,0.043c4.578-7.401,8.833-14.277,13.131-21.229
			c-5.435-1.32-7.396-0.568-10.185,3.588c-0.257,0.379-0.88,0.521-1.32,0.771c-0.157-0.508-0.537-1.063-0.434-1.511
			c0.482-2.103,1.106-4.175,1.521-5.695c6.18,0,12.061,0,17.945,0C296.984,318.76,297.162,319.102,297.34,319.438z"/>
		<path d="M406.301,340.624c-2.378,0.851-4.695,2.121-7.141,2.451c-3.185,0.435-5.293-1.345-5.58-4.565
			c-0.366-4.083-0.264-8.209-0.343-12.322c-0.03-1.479-0.007-2.959-0.007-4.621c-1.253-0.135-2.335-0.263-4.333-0.483
			c1.619-1.216,2.658-1.991,4.103-3.073c-0.33-3.839,3.538-4.615,6.668-7.158c0,3.063,0,5.367,0,8.014
			c1.705,0,3.087-0.098,4.443,0.056c0.501,0.049,0.941,0.696,1.412,1.075c-0.446,0.44-0.85,1.198-1.352,1.267
			c-1.352,0.177-2.744,0.055-4.315,0.055c0,5.263-0.183,10.244,0.074,15.195c0.14,2.751,1.979,3.654,4.853,3.032
			c0.379-0.073,0.789-0.007,1.181-0.007C406.086,339.896,406.19,340.258,406.301,340.624z"/>
		<path d="M175.316,311.462c0,1.755,0.104,3.252-0.023,4.719c-0.171,2.018,0.471,3.002,2.634,2.696
			c0.935-0.122,1.901-0.02,2.818-0.02c0.237,1.821,0.237,1.821-5.27,2.806c0,4.848-0.226,9.749,0.085,14.621
			c0.185,2.989,1.956,3.862,4.977,3.259c0.354-0.063,0.746,0.049,1.247,0.085c-1.913,2.672-6.254,4.162-9.114,3.275
			c-2.445-0.745-3.594-2.787-3.606-6.589c-0.023-4.902-0.006-9.798-0.006-14.811c-1.345-0.11-2.372-0.189-3.405-0.27
			c-0.141-0.184-0.28-0.367-0.422-0.551c1.063-0.807,2.127-1.607,3.595-2.708C169.583,314.902,171.331,312.923,175.316,311.462z"/>
		<path d="M254.925,342.274c-5.367,0-10.067,0-14.78,0c0.019-0.324,0-0.63,0.037-0.636c3.533-0.715,3.662-3.289,3.545-6.155
			c-0.123-2.892-0.012-5.789-0.031-8.687c-0.018-2.615,0.558-5.6-4.033-5.537c0.146-0.294,0.306-0.601,0.465-0.894
			c3.209-0.666,6.424-1.333,9.908-2.061c0,1.669,0,3.13,0,4.585c0.183,0.098,0.366,0.195,0.55,0.287
			c0.647-0.808,1.154-1.827,1.975-2.402c1.363-0.966,2.867-2.021,4.443-2.279c0.825-0.135,2.438,1.197,2.738,2.157
			c0.313,1.016-0.201,2.689-0.967,3.496c-0.58,0.605-2.278,0.709-3.203,0.343c-3.465-1.356-5.451-0.214-5.513,3.521
			c-0.049,2.892,0.079,5.795-0.031,8.686c-0.091,2.507,0.38,4.39,3.387,4.505C253.733,341.218,254.033,341.634,254.925,342.274z"/>
		<path d="M260.555,341.26c4.829,0.188,4.396-2.83,4.377-5.624c-0.024-2.982,0-5.966-0.013-8.948c0-2.659,0.458-5.6-4.163-5.471
			c0.178-0.275,0.349-0.558,0.526-0.838c3.215-0.647,6.43-1.289,9.913-1.992c0,5.385,0,10.55,0,15.709c0,4.921,0,4.921,3.852,8.13
			c-4.816,0-9.37,0-13.918,0C260.934,341.907,260.744,341.585,260.555,341.26z"/>
		<path d="M326.135,343.154c-2.316-0.012-3.869-1.62-3.869-4.01c0-2.408,1.522-3.985,3.853-3.998c2.42-0.012,4.145,1.73,4.083,4.127
			C330.145,341.505,328.403,343.168,326.135,343.154z"/>
		<path d="M267.492,313.068c-2.177-0.018-3.625-1.441-3.661-3.575c-0.03-2.207,1.577-3.833,3.771-3.809
			c2.151,0.023,3.74,1.724,3.661,3.906C271.178,311.706,269.675,313.094,267.492,313.068z"/>
	</g>
</g>
<g>
	<g>
		<path fill="#FFFFFF" d="M253.502,147.05c-36.381,0-72.549,0-109.089,0c-0.214,1.853-0.544,3.479-0.551,5.123
			c-0.03,19.298,0.116,38.606-0.104,57.892c-0.062,4.743,1.418,6.216,6.167,6.161c19.511-0.227,39.028-0.33,58.527,0.128
			c3.747,0.086,8.605,1.938,10.88,4.676c5.061,6.106-0.006,14.75-8.576,14.988c-12.286,0.323-24.591,0.128-36.896,0.134
			c-12.72,0.006-25.458,0.092-38.167-0.037c-8.41-0.098-11.979-3.643-12.011-12.127c-0.098-28.423-0.098-56.846,0-85.266
			c0.03-8.387,3.71-12.234,11.999-12.25c42.201-0.096,84.407-0.096,126.603,0.009c7.738,0.023,11.319,3.594,11.778,11.201
			c0.244,4.224,0.25,8.5-0.086,12.711c-0.556,6.62-4.242,10.195-9.951,10.195c-5.408,0-9.033-3.404-10.042-9.492
			C253.783,149.887,253.686,148.64,253.502,147.05z"/>
		<path fill="#FFFFFF" d="M170.158,191.054c2.738,1.259,4.768,2.512,6.969,3.129c3.411,0.96,6.938,1.926,10.428,1.975
			c1.534,0.012,3.105-2.237,4.664-3.448c-1.192-1.503-2.078-3.63-3.619-4.352c-3.618-1.699-7.585-2.659-11.345-4.04
			c-5.819-2.133-9.859-5.789-10.03-12.463c-0.171-6.418,2.94-10.648,8.559-13.637c1.826-0.979,2.714-3.618,4.192-5.36
			c1.144-1.352,2.408-3.319,3.827-3.521c1.375-0.208,4.303,1.412,4.364,2.385c0.348,5.599,5.018,5.867,8.417,8.038
			c2.06,1.345,3.067,4.314,4.554,6.552c-2.372,1.009-4.805,2.928-7.109,2.788c-3.472-0.238-6.797-2.434-10.28-2.732
			c-1.742-0.159-3.687,2.036-5.526,3.154c1.253,1.663,2.152,4.027,3.827,4.847c3.576,1.748,7.567,2.642,11.351,3.998
			c5.948,2.121,9.726,6.173,9.737,12.671c0.018,6.56-3.301,11.021-9.358,13.814c-2.054,0.954-3.301,3.526-5.036,5.214
			c-1.399,1.363-3.038,3.527-4.499,3.472c-1.485-0.073-4.017-2.329-4.108-3.759c-0.238-3.838-2.542-4.7-5.434-5.825
			c-2.715-1.039-5.466-2.463-7.567-4.389c-1.058-0.959-1.381-3.649-0.837-5.128C166.815,192.992,168.851,192.111,170.158,191.054z"
			/>
	</g>
	<g>
		<path fill="#FFFFFF" d="M314.993,291.806c-22.151,0-44.298,0.152-66.46-0.056c-13.705-0.122-22.451-9.363-22.451-23.057
			c0-28.337,0.464-56.668-0.257-84.975c-0.245-9.407,10.867-21.132,19.639-21.211c9.083-0.072,18.154-0.537,27.23-0.556
			c32.141-0.08,64.285-0.073,96.418-0.023c4.714,0,9.443,0.214,14.133,0.653c12.83,1.187,20.807,10.179,20.807,23.215
			c0,27.788,0,55.568,0,83.338c0,12.714-9.205,22.438-22.06,22.562c-22.329,0.238-44.664,0.073-66.999,0.073
			C314.993,291.775,314.993,291.794,314.993,291.806z M391.986,209.948c-2.427,0-4.205,0-5.979,0c-37.414,0-74.841,0-112.249,0.024
			c-9.812,0.006-19.621,0.134-29.432,0.171c-2.818,0.006-4.854,0.416-4.812,4.132c0.263,17.977,0.171,35.959,0.532,53.931
			c0.135,7.098,3.167,9.561,10.312,9.578c21.986,0.012,43.968,0.042,65.941-0.019c22.163-0.05,44.314-0.165,66.485-0.336
			c5.536-0.043,9.112-2.959,9.149-7.818C392.071,250.015,391.986,230.394,391.986,209.948z M391.778,187.863
			c0.178-8.02-2.011-10.617-9.059-11.21c-2.176-0.178-4.358-0.257-6.528-0.257c-42.14-0.062-84.271-0.116-126.398-0.142
			c-7.042,0-10.458,4.176-9.652,11.607C290.58,187.863,341.026,187.863,391.778,187.863z"/>
		<path fill="#FFFFFF" d="M275.066,263.646c-8.093,6.198-16.589,6.088-22.206-0.049c-4.907-5.354-5.123-14.064-0.488-19.413
			c5.983-6.876,13.813-7.183,22.751-0.887c10.023-6.026,17.988-5.715,23.195,0.887c4.641,5.917,4.377,14.07-0.642,19.37
			C291.692,269.868,284.181,269.96,275.066,263.646z"/>
	</g>
	<g>
		<path fill="#FFFFFF" d="M347.879,309.887c0,8.007-0.116,15.086,0.128,22.146c0.043,1.021,1.755,2.091,2.854,2.909
			c0.611,0.452,1.571,0.446,2.359,0.644c-0.024,0.22-0.061,0.434-0.092,0.646c-4.303,0-8.612,0-12.958,0
			c0.055-0.306,0.055-0.599,0.116-0.611c3.851-0.807,4.425-3.654,4.432-6.938c0.012-6.491,0.092-12.989,0.098-19.48
			c0.006-4.284-0.604-5.062-4.683-6.425c-0.36-0.122-0.66-0.396-1.082-0.66c2.978-1.803,9.249-0.982,11.26,1.333
			c5.733,6.639,11.467,13.288,17.2,19.928c0.666,0.77,1.394,1.497,2.237,2.401c0-6.804,0.066-13.325-0.037-19.842
			c-0.03-1.852-1.503-2.622-3.178-2.994c-0.809-0.178-1.583-0.489-2.372-0.746c0.062-0.227,0.122-0.459,0.184-0.685
			c4.389,0,8.777,0,13.814,0c-0.766,0.617-1.139,1.174-1.608,1.265c-2.714,0.551-3.41,2.451-3.447,4.859
			c-0.128,8.601-0.257,17.195-0.385,25.795c-0.013,1.039,0,2.091,0,3.173c-1.962,0.758-3.166,0.287-4.401-1.247
			c-6.381-7.928-12.873-15.764-19.314-23.644C348.673,311.311,348.447,310.822,347.879,309.887z"/>
		<path fill="#FFFFFF" d="M218.734,336.3c-4.106,0-8.215,0-12.028,0c4.597-5.373,2.242-11.646,1.962-17.55
			c-0.099-2.104-2.634-3.252-4.945-2.731c-2.079,0.465-3.741,1.296-3.563,4.01c0.195,3.063-0.007,6.149,0.062,9.211
			c0.049,2.514-0.978,5.465,3.129,6.504c-0.22,0.179-0.452,0.35-0.672,0.521c-4.224,0-8.441,0-12.726,0
			c0.079-0.354,0.079-0.501,0.109-0.507c4.322-0.813,3.869-4.065,3.833-7.243c-0.073-7.464-0.061-14.935,0-22.396
			c0.02-2.615,0.25-5.201-3.991-4.938c0.122-0.318,0.238-0.648,0.354-0.967c3.178-0.659,6.351-1.309,9.915-2.042
			c0,5.796,0,11.346,0,17.408c1.326-0.818,2.17-1.355,3.032-1.876c2.842-1.688,5.818-1.986,8.765-0.459
			c2.849,1.485,3.496,4.205,3.502,7.158c0.006,2.549-0.042,5.092,0.012,7.641C215.556,331.104,214.4,334.697,218.734,336.3z"/>
		<path fill="#FFFFFF" d="M110.452,335.565c5.52-0.881,5.86-5.642,7.414-9.358c3.179-7.592,6.045-15.323,9.169-22.951
			c0.422-1.027,1.576-1.742,2.799-3.032c2.769,7.609,5.214,14.357,7.684,21.094c1.112,3.045,1.986,6.217,3.484,9.071
			c1.155,2.193,3.104,3.979,4.65,5.887c-4.234,0-9.016,0-13.813,0c0.031-0.373-0.012-0.647,0.073-0.697
			c3.337-1.767,3.337-1.767,1.846-5.477c-2.14-5.36-2.14-5.36-7.916-5.36c-4.438,0-4.444,0-5.703,4.242
			c-0.208,0.666-0.342,1.356-0.587,2.018c-0.855,2.249-0.819,3.99,2.219,4.204c0.324,0.031,0.611,0.44,1.448,1.082
			c-4.547,0-8.441,0-12.335,0C110.739,336.049,110.599,335.81,110.452,335.565z M130.813,322.168
			c-1.394-3.9-2.665-7.451-3.93-10.997c-0.232,0.007-0.464,0.013-0.697,0.019c-1.241,3.552-2.481,7.108-3.839,10.979
			C125.323,322.168,127.823,322.168,130.813,322.168z"/>
		<path fill="#FFFFFF" d="M159.303,313.529c2.995-0.299,5.99-0.604,9.401-0.953c0,3.82,0,7.385,0,10.947
			c0,1.846-0.013,3.692,0,5.525c0.023,2.523-0.458,5.386,3.948,5.086c-0.098,0.317-0.194,0.636-0.299,0.953
			c-3.147,0.709-6.308,1.411-9.658,2.157c-0.171-1.223-0.312-2.225-0.494-3.563c-1.357,0.813-2.5,1.553-3.692,2.206
			c-5.954,3.246-11.04,0.403-11.235-6.338c-0.092-3.16-0.019-6.32-0.019-9.48c0-4.096,0-4.096-3.221-6.474
			c3.068-0.35,6.143-0.69,9.67-1.095c0,2.494-0.013,4.726,0,6.963c0.019,3.417-0.05,6.846,0.098,10.263
			c0.104,2.457,1.601,3.747,3.881,3.692c2.763-0.067,4.726-1.73,4.743-4.091c0.024-2.634,0.061-5.269-0.006-7.896
			c-0.079-2.867,1.217-6.357-3.722-7.158C158.905,314.031,159.107,313.78,159.303,313.529z"/>
		<path fill="#FFFFFF" d="M220.25,325.106c0.104-7.567,5.508-12.879,13.038-12.787c6.949,0.079,11.968,5.142,11.895,12.011
			c-0.08,7.854-5.231,13.015-12.842,12.85C225.109,337.032,220.158,332.088,220.25,325.106z M226.956,324.165
			c0.832,2.689,1.388,6.033,2.879,8.889c1.718,3.318,5.61,3.13,6.913-0.189c2.146-5.458,1.926-11.021-0.789-16.239
			c-0.593-1.139-2.477-2.27-3.723-2.214c-1.234,0.05-2.934,1.346-3.497,2.536C227.805,318.939,227.616,321.286,226.956,324.165z"/>
		<path fill="#FFFFFF" d="M312.555,323.427c-0.795,7.945,4.805,10.929,14.047,7.451c-0.251,0.732-0.313,1.296-0.594,1.698
			c-2.732,3.826-7.727,5.495-12.133,4.107c-4.688-1.485-7.506-5.228-7.659-10.177c-0.208-6.956,3.856-12.673,9.951-13.969
			c5.202-1.104,9.707,1.706,10.758,6.706c0.526,2.562-0.085,3.337-2.689,3.483C320.396,322.949,316.552,323.193,312.555,323.427z
			 M312.011,321.243c2.273,0,3.832,0.093,5.379-0.036c1.149-0.092,3.222-0.402,3.239-0.728c0.092-1.363-0.122-2.946-0.794-4.12
			c-1.504-2.604-3.985-2.665-5.636-0.171C313.301,317.547,312.86,319.227,312.011,321.243z"/>
		<path fill="#FFFFFF" d="M395.409,330.748c-0.967,3.711-5.489,6.608-9.486,6.432c-5.313-0.227-9.321-3.398-10.526-8.325
			c-1.398-5.782,1.241-12.09,6.261-14.951c4.682-2.659,9.713-1.999,12.561,1.768c0.667,0.887,1.198,1.975,1.437,3.05
			c0.723,3.228,0.147,3.869-3.116,4.027c-3.16,0.159-6.314,0.436-9.462,0.501c-1.854,0.05-2.2,0.809-1.854,2.494
			c1.188,5.862,6.253,8.559,11.724,6.145C393.654,331.567,394.346,331.237,395.409,330.748z M381.362,321.194
			c2.58,0,4.835,0.135,7.055-0.085c0.563-0.056,1.504-1.303,1.425-1.896c-0.271-2.12-1.088-4.278-3.466-4.688
			c-2.428-0.429-3.466,1.583-4.272,3.453C381.717,318.891,381.638,319.93,381.362,321.194z"/>
		<path fill="#FFFFFF" d="M304.34,313.438c-4.108,6.865-8.222,13.723-12.354,20.636c5.403,1.485,8.49,0.532,11.646-3.392
			c0.316-0.397,0.935-0.545,1.424-0.801c0.135,0.524,0.495,1.117,0.367,1.569c-0.38,1.353-0.881,2.672-1.475,3.938
			c-0.227,0.465-0.83,1.063-1.276,1.068c-6.277,0.067-12.567,0.043-19.519,0.043c4.578-7.401,8.833-14.277,13.131-21.229
			c-5.435-1.32-7.396-0.568-10.185,3.588c-0.257,0.379-0.88,0.521-1.32,0.771c-0.157-0.508-0.537-1.063-0.434-1.511
			c0.482-2.103,1.106-4.175,1.521-5.695c6.18,0,12.061,0,17.945,0C303.984,312.76,304.162,313.102,304.34,313.438z"/>
		<path fill="#FFFFFF" d="M413.301,334.624c-2.378,0.851-4.695,2.121-7.141,2.451c-3.185,0.435-5.293-1.345-5.58-4.565
			c-0.366-4.083-0.264-8.209-0.343-12.322c-0.03-1.479-0.007-2.959-0.007-4.621c-1.253-0.135-2.335-0.263-4.333-0.483
			c1.619-1.216,2.658-1.991,4.103-3.073c-0.33-3.839,3.538-4.615,6.668-7.158c0,3.063,0,5.367,0,8.014
			c1.705,0,3.087-0.098,4.443,0.056c0.501,0.049,0.941,0.696,1.412,1.075c-0.446,0.44-0.85,1.198-1.352,1.267
			c-1.352,0.177-2.744,0.055-4.315,0.055c0,5.263-0.183,10.244,0.074,15.195c0.14,2.751,1.979,3.654,4.853,3.032
			c0.379-0.073,0.789-0.007,1.181-0.007C413.086,333.896,413.19,334.258,413.301,334.624z"/>
		<path fill="#FFFFFF" d="M182.316,305.462c0,1.755,0.104,3.252-0.023,4.719c-0.171,2.018,0.471,3.002,2.634,2.696
			c0.935-0.122,1.901-0.02,2.818-0.02c0.237,1.821,0.237,1.821-5.27,2.806c0,4.848-0.226,9.749,0.085,14.621
			c0.185,2.989,1.956,3.862,4.977,3.259c0.354-0.063,0.746,0.049,1.247,0.085c-1.913,2.672-6.254,4.162-9.114,3.275
			c-2.445-0.745-3.594-2.787-3.606-6.589c-0.023-4.902-0.006-9.798-0.006-14.811c-1.345-0.11-2.372-0.189-3.405-0.27
			c-0.141-0.184-0.28-0.367-0.422-0.551c1.063-0.807,2.127-1.607,3.595-2.708C176.583,308.902,178.331,306.923,182.316,305.462z"/>
		<path fill="#FFFFFF" d="M261.925,336.274c-5.367,0-10.067,0-14.78,0c0.019-0.324,0-0.63,0.037-0.636
			c3.533-0.715,3.662-3.289,3.545-6.155c-0.123-2.892-0.012-5.789-0.031-8.687c-0.018-2.615,0.558-5.6-4.033-5.537
			c0.146-0.294,0.306-0.601,0.465-0.894c3.209-0.666,6.424-1.333,9.908-2.061c0,1.669,0,3.13,0,4.585
			c0.183,0.098,0.366,0.195,0.55,0.287c0.647-0.808,1.154-1.827,1.975-2.402c1.363-0.966,2.867-2.021,4.443-2.279
			c0.825-0.135,2.438,1.197,2.738,2.157c0.313,1.016-0.201,2.689-0.967,3.496c-0.58,0.605-2.278,0.709-3.203,0.343
			c-3.465-1.356-5.451-0.214-5.513,3.521c-0.049,2.892,0.079,5.795-0.031,8.686c-0.091,2.507,0.38,4.39,3.387,4.505
			C260.733,335.218,261.033,335.634,261.925,336.274z"/>
		<path fill="#FFFFFF" d="M267.555,335.26c4.829,0.188,4.396-2.83,4.377-5.624c-0.024-2.982,0-5.966-0.013-8.948
			c0-2.659,0.458-5.6-4.163-5.471c0.178-0.275,0.349-0.558,0.526-0.838c3.215-0.647,6.43-1.289,9.913-1.992
			c0,5.385,0,10.55,0,15.709c0,4.921,0,4.921,3.852,8.13c-4.816,0-9.37,0-13.918,0C267.934,335.907,267.744,335.585,267.555,335.26z
			"/>
		<path fill="#FFFFFF" d="M333.135,337.154c-2.316-0.012-3.869-1.62-3.869-4.01c0-2.408,1.522-3.985,3.853-3.998
			c2.42-0.012,4.145,1.73,4.083,4.127C337.145,335.505,335.403,337.168,333.135,337.154z"/>
		<path fill="#FFFFFF" d="M274.492,307.068c-2.177-0.018-3.625-1.441-3.661-3.575c-0.03-2.207,1.577-3.833,3.771-3.809
			c2.151,0.023,3.74,1.724,3.661,3.906C278.178,305.706,276.675,307.094,274.492,307.068z"/>
	</g>
</g>
</svg>
