<?xml version="1.0" encoding="utf-8"?>
<!-- Generator: Adobe Illustrator 16.0.0, SVG Export Plug-In . SVG Version: 6.00 Build 0)  -->
<!DOCTYPE svg PUBLIC "-//W3C//DTD SVG 1.1//EN" "http://www.w3.org/Graphics/SVG/1.1/DTD/svg11.dtd">
<svg version="1.1" id="Layer_1" xmlns="http://www.w3.org/2000/svg" xmlns:xlink="http://www.w3.org/1999/xlink" x="0px" y="0px"
	 width="512px" height="512px" viewBox="0 0 512 512" enable-background="new 0 0 512 512" xml:space="preserve">
<g>
	<g>
		<linearGradient id="SVGID_1_" gradientUnits="userSpaceOnUse" x1="99.9067" y1="99.6938" x2="415.9799" y2="415.767">
			<stop  offset="0" style="stop-color:#0000FF"/>
			<stop  offset="1" style="stop-color:#000083"/>
		</linearGradient>
		<path fill="url(#SVGID_1_)" d="M480.542,255.33c0,124.261-100.733,225-225,225s-225-100.739-225-225
			c0-124.267,100.733-225,225-225S480.542,131.063,480.542,255.33z"/>
		<linearGradient id="SVGID_2_" gradientUnits="userSpaceOnUse" x1="149.5957" y1="71.8252" x2="361.4888" y2="438.8348">
			<stop  offset="0" style="stop-color:#000083"/>
			<stop  offset="1" style="stop-color:#0000FF"/>
		</linearGradient>
		<circle fill="url(#SVGID_2_)" cx="255.542" cy="255.33" r="211.858"/>
	</g>
</g>
<g>
	<path fill-rule="evenodd" clip-rule="evenodd" fill="#FFFFFF" d="M346.453,332.164c3.734,0.189,6.827,0.342,10.323,0.514
		c0,4.48,0,8.765,0,13.68c-1.552,0.115-3.228,0.342-4.896,0.348c-14.028,0.031-28.057-0.146-42.078,0.11
		c-4.475,0.086-5.545-1.425-5.538-5.715c0.122-66.095,0.085-132.188,0.085-198.283c0-1.73,0-3.459,0-5.88
		c-1.814,0.593-3.099,0.874-4.254,1.412c-21.919,10.208-43.802,20.495-65.764,30.605c-2.799,1.29-3.985,2.83-3.826,5.935
		c0.232,4.67,0.061,9.365,0.061,14.848c9.272-3.222,17.72-6.002,26.052-9.126c3.288-1.235,5.85-0.954,8.783,1.015
		c5.96,4.003,12.054,7.848,18.337,11.32c3.852,2.127,5.202,4.719,5.189,9.168c-0.171,41.021-0.085,82.047-0.073,123.075
		c0,2.06,0,4.126,0,6.596c3.79,0.207,7.012,0.391,10.538,0.593c0,4.59,0,8.863,0,13.441c-17.396,0-34.511,0-52.372,0
		c0-48.68,0-97.286,0-146.645c-2.518,0.74-4.168,1.155-5.77,1.711c-21.186,7.341-42.329,14.798-63.576,21.962
		c-3.674,1.247-4.67,3.031-4.664,6.736c0.135,37.347,0.085,74.688,0.085,112.036c0,1.705,0,3.41,0,5.446c-6.381,0-12.243,0-18.783,0
		c0-3.833-0.024-7.458,0.03-11.076c0.012-0.66,0.245-1.828,0.55-1.895c6.241-1.284,3.716-6.235,3.729-9.646
		c0.171-34.884,0.165-69.774,0.031-104.664c-0.019-3.741,1.045-5.575,4.7-6.791c15.789-5.269,31.406-11.021,47.225-16.204
		c4.468-1.461,5.941-3.625,5.697-8.233c-0.397-7.524,0.031-15.08-0.153-22.61c-0.08-3.074,1.021-4.694,3.814-5.99
		c31.791-14.749,63.503-29.658,95.324-44.34c1.681-0.776,4.566-0.617,6.137,0.336c7.47,4.566,14.578,9.731,22.036,14.328
		c3.251,2.005,3.001,4.755,3.001,7.726c0,62.42,0.012,124.829,0.019,187.25C346.453,327.348,346.453,329.438,346.453,332.164z"/>
	<path fill-rule="evenodd" clip-rule="evenodd" fill="#FFFFFF" d="M236.067,320.904c0,8.674,0,16.345,0,24.475
		c-18.056,0-35.947,0-54.278,0c0-6.785,0-13.496,0-20.874C199.747,323.313,217.626,322.133,236.067,320.904z"/>
	<path fill-rule="evenodd" clip-rule="evenodd" fill="#FFFFFF" d="M181.453,313.881c0-5.996-0.11-12.084,0.116-18.153
		c0.031-0.917,1.528-2.39,2.524-2.562c17.078-2.903,34.181-5.636,52.115-8.545c0,7.873,0.116,15.171-0.128,22.457
		c-0.037,0.984-1.779,2.646-2.849,2.751c-16.565,1.656-33.142,3.117-49.731,4.59C183.036,314.456,182.535,314.175,181.453,313.881z"
		/>
	<path fill-rule="evenodd" clip-rule="evenodd" fill="#FFFFFF" d="M236.19,249.016c0,7.824,0.134,14.829-0.123,21.81
		c-0.049,1.241-1.571,3.282-2.695,3.509c-16.98,3.367-34.01,6.497-51.889,9.847c0-6.913-0.11-13.301,0.134-19.67
		c0.037-0.837,1.773-2.029,2.91-2.322C201.453,257.793,218.415,253.521,236.19,249.016z"/>
	<path fill-rule="evenodd" clip-rule="evenodd" fill="#FFFFFF" d="M235.823,238.533c-17.775,5.018-35.557,10.03-54.364,15.336
		c0-7.042-0.062-13.386,0.079-19.731c0.019-0.746,1.045-1.864,1.846-2.146c17.25-6.082,34.542-12.078,52.439-18.301
		C235.823,222.213,235.823,229.951,235.823,238.533z"/>
</g>
</svg>
