<?xml version="1.0" encoding="utf-8"?>
<!-- Generator: Adobe Illustrator 16.0.0, SVG Export Plug-In . SVG Version: 6.00 Build 0)  -->
<!DOCTYPE svg PUBLIC "-//W3C//DTD SVG 1.1//EN" "http://www.w3.org/Graphics/SVG/1.1/DTD/svg11.dtd">
<svg version="1.1" id="Layer_1" xmlns="http://www.w3.org/2000/svg" xmlns:xlink="http://www.w3.org/1999/xlink" x="0px" y="0px"
	 width="512px" height="512px" viewBox="0 0 512 512" enable-background="new 0 0 512 512" xml:space="preserve">
<g>
	<g>
		
			<linearGradient id="SVGID_1_" gradientUnits="userSpaceOnUse" x1="74.6707" y1="403.4148" x2="390.7438" y2="87.3416" gradientTransform="matrix(1 0 0 -1 24.9448 503.3589)">
			<stop  offset="0" style="stop-color:#FF7601"/>
			<stop  offset="1" style="stop-color:#FF0000"/>
		</linearGradient>
		<path fill="url(#SVGID_1_)" d="M480.25,255.581c0,124.262-100.733,225-225,225c-124.268,0-225-100.738-225-225
			c0-124.264,100.732-225,225-225C379.517,30.581,480.25,131.317,480.25,255.581z"/>
		
			<linearGradient id="SVGID_2_" gradientUnits="userSpaceOnUse" x1="124.3577" y1="431.282" x2="336.2526" y2="64.2692" gradientTransform="matrix(1 0 0 -1 24.9448 503.3589)">
			<stop  offset="0" style="stop-color:#FF0000"/>
			<stop  offset="1" style="stop-color:#FF6301"/>
		</linearGradient>
		<path fill="url(#SVGID_2_)" d="M467.108,255.581c0,117.012-94.854,211.864-211.857,211.864S43.392,372.593,43.392,255.581
			c0-117.005,94.854-211.857,211.858-211.857S467.108,138.576,467.108,255.581z"/>
	</g>
</g>
<g opacity="0.6">
	<path d="M164.981,351.101c11.204-7.849,14.92-19.872,18.233-32.017c1.729-6.357,2.793-12.897,4.224-19.658
		c-12.115,0-23.813,0-35.636,0c0-34.641,0-69.054,0-103.704c12.714,0,25.428,0,38.313,0c0-8.729,0-17.207,0-25.832
		c43.271,0,86.376,0,129.646,0c0,8.509,0,16.986,0,25.709c13.02,0,25.874,0,38.839,0c0,30.188,0,60.128,0,90.422
		c-1.356-1.547-2.494-2.904-3.69-4.212c-11.261-12.213-25.087-19.561-41.688-20.874c-8.924-0.709-17.94-0.44-26.92-0.452
		c-27.017-0.043-54.021-0.007-81.039-0.007c-0.66,0-1.32,0-2.139,0c-0.416,5.221-0.759,10.257-1.229,15.288
		c-1.033,11.082-1.803,22.193-3.3,33.221c-1.309,9.628-3.918,19.01-7.623,28.044c-0.153,0.354-0.22,0.746-0.367,1.296
		c17.616,0,35.085,0,52.477,0c1.362,4.328,2.677,8.49,4.027,12.775C219.804,351.101,192.475,351.101,164.981,351.101z
		 M203.202,195.526c34.64,0,69.102,0,103.515,0c0-4.358,0-8.57,0-12.745c-34.584,0-69.003,0-103.515,0
		C203.202,187.06,203.202,191.223,203.202,195.526z M319.693,234.493c0-4.419,0-8.625,0-12.824c-4.34,0-8.496,0-12.714,0
		c0,4.315,0,8.527,0,12.824C311.277,234.493,315.434,234.493,319.693,234.493z M332.934,221.663c0,4.364,0,8.576,0,12.75
		c4.37,0,8.575,0,12.744,0c0-4.328,0-8.49,0-12.75C341.399,221.663,337.242,221.663,332.934,221.663z M181.136,234.493
		c0-4.419,0-8.625,0-12.824c-4.333,0-8.497,0-12.714,0c0,4.315,0,8.527,0,12.824C172.719,234.493,176.882,234.493,181.136,234.493z
		 M194.376,221.663c0,4.364,0,8.576,0,12.75c4.37,0,8.576,0,12.744,0c0-4.328,0-8.49,0-12.75
		C202.842,221.663,198.685,221.663,194.376,221.663z"/>
	<path d="M306.778,376.767c-24.126,1.663-51.639-19.511-51.749-51.29c-0.091-28.803,23.203-52.041,52.023-51.998
		c28.539,0.049,51.761,23.368,51.65,51.968C358.575,357.391,330.91,378.558,306.778,376.767z M306.876,364.236
		c21.233,0.049,38.839-17.378,38.898-38.515c0.067-21.693-17.229-39.262-38.716-39.311c-21.521-0.049-39.034,17.292-39.102,38.718
		C267.885,346.706,285.274,364.188,306.876,364.236z"/>
	<path d="M288.875,320.495c0.935,0.587,1.863,0.99,2.561,1.65c2.392,2.28,4.688,4.658,7.042,6.975
		c2.176,2.141,3.704,2.115,5.874-0.055c6.345-6.339,12.671-12.702,19.028-19.028c2.566-2.555,3.898-2.519,6.454,0.013
		c0.868,0.85,1.724,1.712,2.58,2.566c2.665,2.671,2.688,3.979,0.079,6.597c-5.05,5.066-10.116,10.115-15.172,15.171
		c-4.29,4.291-8.569,8.594-12.885,12.873c-2.348,2.321-3.827,2.305-6.174-0.037c-5.251-5.244-10.489-10.488-15.728-15.752
		c-2.115-2.12-2.141-3.588-0.093-5.702c1.271-1.31,2.52-2.642,3.883-3.845C286.998,321.334,287.902,321.027,288.875,320.495z"/>
</g>
<g>
	<path fill="#FFFFFF" d="M174.981,341.101c11.204-7.849,14.92-19.872,18.233-32.017c1.729-6.357,2.793-12.897,4.224-19.658
		c-12.115,0-23.813,0-35.636,0c0-34.641,0-69.054,0-103.704c12.714,0,25.428,0,38.313,0c0-8.729,0-17.207,0-25.832
		c43.271,0,86.376,0,129.646,0c0,8.509,0,16.986,0,25.709c13.02,0,25.874,0,38.839,0c0,30.188,0,60.128,0,90.422
		c-1.356-1.547-2.494-2.904-3.69-4.212c-11.261-12.213-25.087-19.561-41.688-20.874c-8.924-0.709-17.94-0.44-26.92-0.452
		c-27.017-0.043-54.021-0.007-81.039-0.007c-0.66,0-1.32,0-2.139,0c-0.416,5.221-0.759,10.257-1.229,15.288
		c-1.033,11.082-1.803,22.193-3.3,33.221c-1.309,9.628-3.918,19.01-7.623,28.044c-0.153,0.354-0.22,0.746-0.367,1.296
		c17.616,0,35.085,0,52.477,0c1.362,4.328,2.677,8.49,4.027,12.775C229.804,341.101,202.475,341.101,174.981,341.101z
		 M213.202,185.526c34.64,0,69.102,0,103.515,0c0-4.358,0-8.57,0-12.745c-34.584,0-69.003,0-103.515,0
		C213.202,177.06,213.202,181.223,213.202,185.526z M329.693,224.493c0-4.419,0-8.625,0-12.824c-4.34,0-8.496,0-12.714,0
		c0,4.315,0,8.527,0,12.824C321.277,224.493,325.434,224.493,329.693,224.493z M342.934,211.663c0,4.364,0,8.576,0,12.75
		c4.37,0,8.575,0,12.744,0c0-4.328,0-8.49,0-12.75C351.399,211.663,347.242,211.663,342.934,211.663z M191.136,224.493
		c0-4.419,0-8.625,0-12.824c-4.333,0-8.497,0-12.714,0c0,4.315,0,8.527,0,12.824C182.719,224.493,186.882,224.493,191.136,224.493z
		 M204.376,211.663c0,4.364,0,8.576,0,12.75c4.37,0,8.576,0,12.744,0c0-4.328,0-8.49,0-12.75
		C212.842,211.663,208.685,211.663,204.376,211.663z"/>
	<path fill="#FFFFFF" d="M316.778,366.767c-24.126,1.663-51.639-19.511-51.749-51.29c-0.091-28.803,23.203-52.041,52.023-51.998
		c28.539,0.049,51.761,23.368,51.65,51.968C368.575,347.391,340.91,368.558,316.778,366.767z M316.876,354.236
		c21.233,0.049,38.839-17.378,38.898-38.515c0.067-21.693-17.229-39.262-38.716-39.311c-21.521-0.049-39.034,17.292-39.102,38.718
		C277.885,336.706,295.274,354.188,316.876,354.236z"/>
	<path fill="#FFFFFF" d="M298.875,310.495c0.935,0.587,1.863,0.99,2.561,1.65c2.392,2.28,4.688,4.658,7.042,6.975
		c2.176,2.141,3.704,2.115,5.874-0.055c6.345-6.339,12.671-12.702,19.028-19.028c2.566-2.555,3.898-2.519,6.454,0.013
		c0.868,0.85,1.724,1.712,2.58,2.566c2.665,2.671,2.688,3.979,0.079,6.597c-5.05,5.066-10.116,10.115-15.172,15.171
		c-4.29,4.291-8.569,8.594-12.885,12.873c-2.348,2.321-3.827,2.305-6.174-0.037c-5.251-5.244-10.489-10.488-15.728-15.752
		c-2.115-2.12-2.141-3.588-0.093-5.702c1.271-1.31,2.52-2.642,3.883-3.845C296.998,311.334,297.902,311.027,298.875,310.495z"/>
</g>
</svg>
