<?xml version="1.0" encoding="utf-8"?>
<!-- Generator: Adobe Illustrator 16.0.0, SVG Export Plug-In . SVG Version: 6.00 Build 0)  -->
<!DOCTYPE svg PUBLIC "-//W3C//DTD SVG 1.1//EN" "http://www.w3.org/Graphics/SVG/1.1/DTD/svg11.dtd">
<svg version="1.1" id="Layer_1" xmlns="http://www.w3.org/2000/svg" xmlns:xlink="http://www.w3.org/1999/xlink" x="0px" y="0px"
	 width="512px" height="512px" viewBox="0 0 512 512" enable-background="new 0 0 512 512" xml:space="preserve">
<g>
	<g>
		
			<linearGradient id="SVGID_1_" gradientUnits="userSpaceOnUse" x1="76.1243" y1="402.6648" x2="392.1982" y2="86.5908" gradientTransform="matrix(1 0 0 -1 24.9448 503.3589)">
			<stop  offset="0" style="stop-color:#DC00FF"/>
			<stop  offset="1" style="stop-color:#9A00FF"/>
		</linearGradient>
		<path fill="url(#SVGID_1_)" d="M481.704,256.33c0,124.262-100.732,225-224.999,225c-124.268,0-225-100.738-225-225
			c0-124.267,100.732-225,225-225C380.972,31.33,481.704,132.063,481.704,256.33z"/>
		
			<linearGradient id="SVGID_2_" gradientUnits="userSpaceOnUse" x1="125.8132" y1="430.5339" x2="337.7064" y2="63.5241" gradientTransform="matrix(1 0 0 -1 24.9448 503.3589)">
			<stop  offset="0" style="stop-color:#9A00FF"/>
			<stop  offset="1" style="stop-color:#DC00FF"/>
		</linearGradient>
		<circle fill="url(#SVGID_2_)" cx="256.705" cy="256.33" r="211.858"/>
	</g>
</g>
<g opacity="0.3">
	<path d="M142.005,395.413c-1.65-1.767-2.17-3.825-2.164-6.265c0.037-86.353,0.03-172.685,0.049-259.041
		c0-1.216,0.104-2.477,0.422-3.644c0.489-1.784,1.65-2.671,3.698-2.671c64.321,0.037,128.674,0.031,193.007,0.037
		c2.8,0,4.139,1.455,4.146,4.584c0.023,7.549,0.006,15.085,0.006,22.628c0,21.118,0,42.231,0,63.203
		c3.912,1.603,7.688,3.172,11.491,4.707c0.386,0.147,0.875,0.189,1.283,0.11c7.964-1.424,13.729,2.084,18.074,8.337
		c3.723,5.373,4.848,11.649,5.354,18.032c0.813,10.128-0.238,20.141-1.998,30.115c-0.153,0.868,0.273,2.104,0.867,2.807
		c7.456,8.961,3.605,21.589-7.609,25.018c-0.924,0.281-2.019,1.224-2.317,2.104c-1.833,5.434-4.547,10.336-8.367,14.608
		c-0.953,1.063-0.93,1.943-0.617,3.275c1.368,5.825,6.003,6.009,10.604,6.583c6.485,0.801,12.989,1.571,19.383,2.818
		c12.305,2.408,20.861,13.245,20.941,26.186c0.061,12.157,0.012,24.311,0.012,36.467c-3.02,0-6.039,0-9.053,0
		c-0.049-1.058-0.128-2.12-0.135-3.179c-0.007-10.904,0.036-21.809-0.019-32.72c-0.037-9.205-5.422-16.375-13.582-17.787
		c-7.188-1.241-14.442-2.127-21.698-3.16c-0.429,0.788-0.825,1.467-1.161,2.176c-7.952,16.614-15.917,33.223-23.81,49.865
		c-1.068,2.274-2.438,3.882-5.066,3.961c-2.671,0.08-4.107-1.602-5.257-3.771c-5.813-10.996-11.675-21.962-17.507-32.935
		c-3.429-6.441-6.852-12.885-10.257-19.271c-6.436,0.874-12.634,1.675-18.82,2.573c-11.282,1.632-16.698,8.073-16.681,19.406
		c0.02,11.613-0.134,23.229-0.208,34.842C224.016,395.413,183.007,395.413,142.005,395.413z M149.254,132.455
		c0,84.86,0,169.475,0,254.243c35.63,0,71.063,0,106.521,0c0-8.882,0-17.599,0-26.425c-2.065,0-3.924,0-5.781,0
		c-26.271,0-52.543-0.023-78.803,0.006c-7.995,0.007-13.575-6.338-13.301-13.136c0.27-6.552,0.067-13.142,0.049-19.7
		c-0.012-3.189,1.253-5.794,3.344-8.117c2.988-3.313,6.84-4.063,11.063-4.059c28.845,0.043,57.678,0.043,86.528,0.062
		c2.922,0,5.854-0.062,8.759,0.189c5.435,0.458,9.915,4.755,10.703,10.141c0.324,2.17,0.409,4.376,0.624,6.784
		c6.619-0.99,13.11-2.219,19.676-2.854c4.021-0.386,6.81-1.607,8.038-5.739c0.396-1.382,0.323-2.146-0.587-3.276
		c-3.625-4.499-6.4-9.479-8.179-15.024c-0.287-0.887-1.333-1.877-2.237-2.163c-10.397-3.239-14.518-13.539-8.809-22.989
		c1.474-2.457,1.547-4.651,1.309-7.255c-0.563-6.253-1.363-12.55-1.223-18.81c0.415-18.282,13.888-34.938,31.619-39.357
		c4.334-1.082,8.846-1.406,13.374-2.104c0-26.638,0-53.478,0-80.416C271.015,132.455,210.263,132.455,149.254,132.455z
		 M305.794,272.363c-0.257,1.021-0.617,1.778-0.629,2.536c-0.073,4.835-2.141,7.445-7.312,7.721
		c-2.788,0.158-4.848,3.606-4.542,6.302c0.373,3.19,2.978,5.643,6.217,5.845c4.09,0.25,5.227,1.436,6.497,5.237
		c1.34,3.979,2.659,8.111,4.859,11.627c7.946,12.671,22.897,15.996,34.358,7.885c7.091-5.013,11.26-12.011,13.38-20.336
		c0.954-3.753,1.804-4.354,5.459-4.413c3.765-0.067,6.606-2.537,6.883-5.99c0.263-3.222-2.28-6.021-5.984-6.596
		c-4.277-0.686-5.171-1.517-5.673-5.838c-0.183-1.57-0.635-2.299-2.396-2.401c-3.546-0.202-6.742-1.528-9.126-4.236
		c-1.73-1.968-3.186-4.181-4.892-6.441C331.553,269.845,318.967,271.96,305.794,272.363z M296.369,267.968
		c0.323-0.018,0.646-0.049,0.972-0.065c1.431-4.413,2.487-5.037,7.091-4.935c3.361,0.08,6.76,0.031,10.098-0.348
		c9.657-1.089,18.789-3.809,27.012-9.236c2.793-1.852,6.398-0.94,8.16,1.791c0.702,1.095,1.117,2.385,1.612,3.606
		c1.688,4.169,4.334,6.834,9.255,6.191c2.689-0.349,4.934,0.567,6.827,2.86c0.521-7.17,1.052-14.254,0.813-21.313
		c-0.185-5.264-1.088-10.605-4.555-14.963c-1.877-2.348-4.31-4.225-7.464-3.552c-2.971,0.643-5.501,0.287-8.146-1.075
		c-8.852-4.536-18.186-5.624-27.738-2.935c-13.136,3.692-22.586,14.78-23.857,28.117
		C295.947,257.351,296.369,262.675,296.369,267.968z M218.154,324.552c-15.624,0-31.234-0.006-46.852,0.007
		c-3.252,0-4.254,1.045-4.261,4.303c-0.019,5.766-0.006,11.528-0.006,17.305c0.006,3.717,1.167,4.938,4.878,4.964
		c5.231,0.03,10.471-0.019,15.703-0.019c22.358,0.012,44.719-0.007,67.078,0.073c1.815,0.006,2.652-0.525,3.239-2.25
		c1.467-4.383,4.06-8.252,7.873-10.745c3.038-2.005,4.15-4.23,3.606-7.61c-0.057-0.342,0-0.715-0.008-1.068
		c-0.022-4.255-0.721-4.951-4.943-4.958C249.028,324.552,233.594,324.552,218.154,324.552z M333.618,349.637
		c-3.203,3.899-6.149,7.421-9.017,11.009c-0.409,0.525-0.85,1.528-0.624,1.98c3.032,5.903,6.188,11.734,9.469,17.914
		c3.094-6.49,6.016-12.585,8.882-18.702c0.215-0.459,0.27-1.298-0.007-1.64C339.517,356.703,336.626,353.268,333.618,349.637z
		 M311.668,333.88c-0.537,0.434-1.277,1.032-2.146,1.741c3.123,5.851,6.173,11.56,9.37,17.562c2.592-3.19,4.871-6.032,6.968-8.612
		C320.972,340.879,316.399,337.437,311.668,333.88z M352.806,333.94c-3.919,3.41-7.8,6.815-11.771,10.28
		c1.997,2.415,4.01,4.842,6.196,7.494c2.227-4.664,4.188-9.09,6.455-13.345C354.762,336.318,354.663,334.942,352.806,333.94z
		 M343.734,330.549c-7.329,0.336-13.813,0.642-20.972,0.978c3.526,2.042,6.662,3.906,9.859,5.654
		c0.445,0.244,1.296,0.178,1.724-0.104C337.371,335.053,340.323,332.932,343.734,330.549z"/>
	<path d="M218.276,221.452c15.25,0,30.508,0,45.765,0.006c9.607,0,14.676,5.11,14.688,14.792c0.019,12.599,0.019,25.184,0,37.781
		c-0.013,9.591-5.194,14.793-14.75,14.793c-30.599,0.018-61.204,0.018-91.797,0c-7.219,0-12.146-3.393-13.863-9.585
		c-0.36-1.247-0.366-2.616-0.373-3.93c-0.023-13.223,0.264-26.443-0.128-39.646c-0.244-8.197,5.74-14.407,14.427-14.272
		C187.585,221.636,202.934,221.458,218.276,221.452z M218.258,230.731c-14.725,0-29.444,0-44.169,0
		c-6.938,0-7.054,0.116-7.054,6.914c0,12.243,0,24.485,0,36.724c0,4.229,0.867,5.159,5.121,5.159
		c30.686,0.012,61.369,0.012,92.055,0.006c4.42-0.006,5.184-0.819,5.194-5.361c0.008-12.683,0.008-25.359,0-38.043
		c-0.012-4.7-0.684-5.391-5.391-5.391C248.765,230.725,233.515,230.731,218.258,230.731z"/>
	<path d="M235.036,147.027c2.268,2.317,4.304,4.383,6.448,6.577c-4.132,4.095-8.324,8.294-12.591,12.42
		c-0.966,0.935-1.137,1.669-0.624,2.952c2.408,6.052,1.027,12.823-3.558,17.036c-4.927,4.522-10.686,5.752-16.907,3.221
		c-6.259-2.543-9.707-7.592-9.761-14.199c-0.116-12.323,12.029-18.704,20.703-15.061c1.962,0.813,3.142,0.409,4.548-1.082
		C227.06,154.894,231.008,151.073,235.036,147.027z M213.539,168.946c-4.169-0.031-6.528,2.628-6.303,6.131
		c0.245,3.557,3.186,6.314,6.663,6.259c3.351-0.055,6.07-2.763,5.74-6.601c-1.564,1.87-3.124,3.741-4.303,5.159
		c-2.488-2.263-4.633-4.205-7.17-6.511C210.006,171.862,211.766,170.407,213.539,168.946z"/>
	<path d="M229.242,203.885c0,2.994,0,5.801,0,8.734c-23.698,0-47.263,0-71.052,0c0-2.805,0-5.678,0-8.734
		C181.76,203.885,205.397,203.885,229.242,203.885z"/>
	<path d="M238.355,174.741c0-8.802,6.993-15.807,15.758-15.764c8.447,0.03,15.709,7.311,15.686,15.732
		c-0.012,8.662-7.157,15.68-15.941,15.68C245.189,190.383,238.355,183.494,238.355,174.741z M247.451,174.704
		c-0.013,3.545,3.007,6.626,6.504,6.632c3.526,0,6.577-3.05,6.583-6.601c0.019-3.521-3.094-6.663-6.57-6.663
		C250.47,168.072,247.457,171.134,247.451,174.704z"/>
	<path d="M157.958,174.777c-0.525-7.885,6.706-15.88,15.739-15.819c8.497,0.067,15.673,7.22,15.703,15.715
		c0.031,8.638-7.127,15.716-15.892,15.716C164.822,190.383,157.97,183.506,157.958,174.777z M167.035,174.515
		c-0.104,3.526,2.849,6.692,6.351,6.82c3.533,0.128,6.62-2.769,6.815-6.387c0.178-3.411-2.866-6.675-6.399-6.846
		C170.336,167.932,167.133,170.969,167.035,174.515z"/>
	<path d="M309.811,174.777c0.336,8.918-8.025,16.033-16.101,15.685c-8.252-0.354-15.416-7.407-15.373-15.788
		c0.037-8.569,7.341-15.752,15.983-15.696C302.891,159.025,309.828,166.104,309.811,174.777z M300.696,174.729
		c0-3.569-3.001-6.645-6.51-6.656c-3.447-0.006-6.626,3.172-6.626,6.644c0,3.539,3.051,6.614,6.59,6.62
		C297.677,181.354,300.696,178.304,300.696,174.729z"/>
	<path d="M193.777,306.306c0-2.995,0-5.788,0-8.734c22.316,0,44.529,0,66.858,0c0,2.934,0,5.727,0,8.734
		C238.417,306.306,216.216,306.306,193.777,306.306z"/>
	<path d="M158.056,150.187c0-3.038,0-5.868,0-8.912c16.247,0,32.427,0,48.784,0c0,2.934,0,5.825,0,8.912
		C190.672,150.187,174.492,150.187,158.056,150.187z"/>
	<path d="M184.535,306.36c-8.809,0-17.52,0-26.395,0c0-2.935,0-5.794,0-8.796c8.796,0,17.512,0,26.395,0
		C184.535,300.505,184.535,303.354,184.535,306.36z"/>
	<path d="M166.889,368.946c0,2.978,0,5.782,0,8.809c-2.879,0-5.74,0-8.753,0c0-2.892,0-5.765,0-8.809
		C160.978,368.946,163.771,368.946,166.889,368.946z"/>
	<path d="M171.455,368.854c3.007,0,5.739,0,8.686,0c0,2.934,0,5.801,0,8.888c-2.805,0-5.66,0-8.686,0
		C171.455,374.845,171.455,371.972,171.455,368.854z"/>
	<path d="M184.792,368.88c2.988,0,5.721,0,8.661,0c0,2.951,0,5.88,0,8.954c-2.886,0-5.686,0-8.661,0
		C184.792,374.888,184.792,372.021,184.792,368.88z"/>
	<path d="M206.889,369.02c0,2.897,0,5.758,0,8.796c-2.867,0-5.636,0-8.644,0c0-2.879,0-5.728,0-8.796
		C201.008,369.02,203.777,369.02,206.889,369.02z"/>
	<path d="M211.668,377.791c0-2.977,0-5.844,0-8.856c2.902,0,5.672,0,8.619,0c0,2.978,0,5.832,0,8.856
		C217.396,377.791,214.621,377.791,211.668,377.791z"/>
	<path d="M202.793,342.015c0-2.995,0-5.807,0-8.759c19.254,0,38.387,0,57.744,0c0,2.799,0,5.666,0,8.759
		C241.424,342.015,222.23,342.015,202.793,342.015z"/>
	<path d="M175.892,342.033c0-3.051,0-5.844,0-8.79c5.886,0,11.632,0,17.567,0c0,2.854,0,5.715,0,8.79
		C187.701,342.033,181.9,342.033,175.892,342.033z"/>
	<path d="M175.868,248.25c0-2.977,0-5.775,0-8.723c28.313,0,56.479,0,84.768,0c0,2.922,0,5.721,0,8.723
		C232.445,248.25,204.272,248.25,175.868,248.25z"/>
	<path d="M175.837,266.3c0-3.008,0-5.818,0-8.856c20.764,0,41.473,0,62.366,0c0,2.873,0,5.752,0,8.856
		C217.542,266.3,196.84,266.3,175.837,266.3z"/>
</g>
<g>
	<path fill="#FFFFFF" d="M151.005,386.413c-1.65-1.767-2.17-3.825-2.164-6.265c0.037-86.353,0.03-172.685,0.049-259.041
		c0-1.216,0.104-2.477,0.422-3.644c0.489-1.784,1.65-2.671,3.698-2.671c64.321,0.037,128.674,0.031,193.007,0.037
		c2.8,0,4.139,1.455,4.146,4.584c0.023,7.549,0.006,15.085,0.006,22.628c0,21.118,0,42.231,0,63.203
		c3.912,1.603,7.688,3.172,11.491,4.707c0.386,0.147,0.875,0.189,1.283,0.11c7.964-1.424,13.729,2.084,18.074,8.337
		c3.723,5.373,4.848,11.649,5.354,18.032c0.813,10.128-0.238,20.141-1.998,30.115c-0.153,0.868,0.273,2.104,0.867,2.807
		c7.456,8.961,3.605,21.589-7.609,25.018c-0.924,0.281-2.019,1.224-2.317,2.104c-1.833,5.434-4.547,10.336-8.367,14.608
		c-0.953,1.063-0.93,1.943-0.617,3.275c1.368,5.825,6.003,6.009,10.604,6.583c6.485,0.801,12.989,1.571,19.383,2.818
		c12.305,2.408,20.861,13.245,20.941,26.186c0.061,12.157,0.012,24.311,0.012,36.467c-3.02,0-6.039,0-9.053,0
		c-0.049-1.058-0.128-2.12-0.135-3.179c-0.007-10.904,0.036-21.809-0.019-32.72c-0.037-9.205-5.422-16.375-13.582-17.787
		c-7.188-1.241-14.442-2.127-21.698-3.16c-0.429,0.788-0.825,1.467-1.161,2.176c-7.952,16.614-15.917,33.223-23.81,49.865
		c-1.068,2.274-2.438,3.882-5.066,3.961c-2.671,0.08-4.107-1.602-5.257-3.771c-5.813-10.996-11.675-21.962-17.507-32.935
		c-3.429-6.441-6.852-12.885-10.257-19.271c-6.436,0.874-12.634,1.675-18.82,2.573c-11.282,1.632-16.698,8.073-16.681,19.406
		c0.02,11.613-0.134,23.229-0.208,34.842C233.016,386.413,192.007,386.413,151.005,386.413z M158.254,123.455
		c0,84.86,0,169.475,0,254.243c35.63,0,71.063,0,106.521,0c0-8.882,0-17.599,0-26.425c-2.065,0-3.924,0-5.781,0
		c-26.271,0-52.543-0.023-78.803,0.006c-7.995,0.007-13.575-6.338-13.301-13.136c0.27-6.552,0.067-13.142,0.049-19.7
		c-0.012-3.189,1.253-5.794,3.344-8.117c2.988-3.313,6.84-4.063,11.063-4.059c28.845,0.043,57.678,0.043,86.528,0.062
		c2.922,0,5.854-0.062,8.759,0.189c5.435,0.458,9.915,4.755,10.703,10.141c0.324,2.17,0.409,4.376,0.624,6.784
		c6.619-0.99,13.11-2.219,19.676-2.854c4.021-0.386,6.81-1.607,8.038-5.739c0.396-1.382,0.323-2.146-0.587-3.276
		c-3.625-4.499-6.4-9.479-8.179-15.024c-0.287-0.887-1.333-1.877-2.237-2.163c-10.397-3.239-14.518-13.539-8.809-22.989
		c1.474-2.457,1.547-4.651,1.309-7.255c-0.563-6.253-1.363-12.55-1.223-18.81c0.415-18.282,13.888-34.938,31.619-39.357
		c4.334-1.082,8.846-1.406,13.374-2.104c0-26.638,0-53.478,0-80.416C280.015,123.455,219.263,123.455,158.254,123.455z
		 M314.794,263.363c-0.257,1.021-0.617,1.778-0.629,2.536c-0.073,4.835-2.141,7.445-7.312,7.721
		c-2.788,0.158-4.848,3.606-4.542,6.302c0.373,3.19,2.978,5.643,6.217,5.845c4.09,0.25,5.227,1.436,6.497,5.237
		c1.34,3.979,2.659,8.111,4.859,11.627c7.946,12.671,22.897,15.996,34.358,7.885c7.091-5.013,11.26-12.011,13.38-20.336
		c0.954-3.753,1.804-4.354,5.459-4.413c3.765-0.067,6.606-2.537,6.883-5.99c0.263-3.222-2.28-6.021-5.984-6.596
		c-4.277-0.686-5.171-1.517-5.673-5.838c-0.183-1.57-0.635-2.299-2.396-2.401c-3.546-0.202-6.742-1.528-9.126-4.236
		c-1.73-1.968-3.186-4.181-4.892-6.441C340.553,260.845,327.967,262.96,314.794,263.363z M305.369,258.968
		c0.323-0.018,0.646-0.049,0.972-0.065c1.431-4.413,2.487-5.037,7.091-4.935c3.361,0.08,6.76,0.031,10.098-0.348
		c9.657-1.089,18.789-3.809,27.012-9.236c2.793-1.852,6.398-0.94,8.16,1.791c0.702,1.095,1.117,2.385,1.612,3.606
		c1.688,4.169,4.334,6.834,9.255,6.191c2.689-0.349,4.934,0.567,6.827,2.86c0.521-7.17,1.052-14.254,0.813-21.313
		c-0.185-5.264-1.088-10.605-4.555-14.963c-1.877-2.348-4.31-4.225-7.464-3.552c-2.971,0.643-5.501,0.287-8.146-1.075
		c-8.852-4.536-18.186-5.624-27.738-2.935c-13.136,3.692-22.586,14.78-23.857,28.117
		C304.947,248.351,305.369,253.675,305.369,258.968z M227.154,315.552c-15.624,0-31.234-0.006-46.852,0.007
		c-3.252,0-4.254,1.045-4.261,4.303c-0.019,5.766-0.006,11.528-0.006,17.305c0.006,3.717,1.167,4.938,4.878,4.964
		c5.231,0.03,10.471-0.019,15.703-0.019c22.358,0.012,44.719-0.007,67.078,0.073c1.815,0.006,2.652-0.525,3.239-2.25
		c1.467-4.383,4.06-8.252,7.873-10.745c3.038-2.005,4.15-4.23,3.606-7.61c-0.057-0.342,0-0.715-0.008-1.068
		c-0.022-4.255-0.721-4.951-4.943-4.958C258.028,315.552,242.594,315.552,227.154,315.552z M342.618,340.637
		c-3.203,3.899-6.149,7.421-9.017,11.009c-0.409,0.525-0.85,1.528-0.624,1.98c3.032,5.903,6.188,11.734,9.469,17.914
		c3.094-6.49,6.016-12.585,8.882-18.702c0.215-0.459,0.27-1.298-0.007-1.64C348.517,347.703,345.626,344.268,342.618,340.637z
		 M320.668,324.88c-0.537,0.434-1.277,1.032-2.146,1.741c3.123,5.851,6.173,11.56,9.37,17.562c2.592-3.19,4.871-6.032,6.968-8.612
		C329.972,331.879,325.399,328.437,320.668,324.88z M361.806,324.94c-3.919,3.41-7.8,6.815-11.771,10.28
		c1.997,2.415,4.01,4.842,6.196,7.494c2.227-4.664,4.188-9.09,6.455-13.345C363.762,327.318,363.663,325.942,361.806,324.94z
		 M352.734,321.549c-7.329,0.336-13.813,0.642-20.972,0.978c3.526,2.042,6.662,3.906,9.859,5.654
		c0.445,0.244,1.296,0.178,1.724-0.104C346.371,326.053,349.323,323.932,352.734,321.549z"/>
	<path fill="#FFFFFF" d="M227.276,212.452c15.25,0,30.508,0,45.765,0.006c9.607,0,14.676,5.11,14.688,14.792
		c0.019,12.599,0.019,25.184,0,37.781c-0.013,9.591-5.194,14.793-14.75,14.793c-30.599,0.018-61.204,0.018-91.797,0
		c-7.219,0-12.146-3.393-13.863-9.585c-0.36-1.247-0.366-2.616-0.373-3.93c-0.023-13.223,0.264-26.443-0.128-39.646
		c-0.244-8.197,5.74-14.407,14.427-14.272C196.585,212.636,211.934,212.458,227.276,212.452z M227.258,221.731
		c-14.725,0-29.444,0-44.169,0c-6.938,0-7.054,0.116-7.054,6.914c0,12.243,0,24.485,0,36.724c0,4.229,0.867,5.159,5.121,5.159
		c30.686,0.012,61.369,0.012,92.055,0.006c4.42-0.006,5.184-0.819,5.194-5.361c0.008-12.683,0.008-25.359,0-38.043
		c-0.012-4.7-0.684-5.391-5.391-5.391C257.765,221.725,242.515,221.731,227.258,221.731z"/>
	<path fill="#FFFFFF" d="M244.036,138.027c2.268,2.317,4.304,4.383,6.448,6.577c-4.132,4.095-8.324,8.294-12.591,12.42
		c-0.966,0.935-1.137,1.669-0.624,2.952c2.408,6.052,1.027,12.823-3.558,17.036c-4.927,4.522-10.686,5.752-16.907,3.221
		c-6.259-2.543-9.707-7.592-9.761-14.199c-0.116-12.323,12.029-18.704,20.703-15.061c1.962,0.813,3.142,0.409,4.548-1.082
		C236.06,145.894,240.008,142.073,244.036,138.027z M222.539,159.946c-4.169-0.031-6.528,2.628-6.303,6.131
		c0.245,3.557,3.186,6.314,6.663,6.259c3.351-0.055,6.07-2.763,5.74-6.601c-1.564,1.87-3.124,3.741-4.303,5.159
		c-2.488-2.263-4.633-4.205-7.17-6.511C219.006,162.862,220.766,161.407,222.539,159.946z"/>
	<path fill="#FFFFFF" d="M238.242,194.885c0,2.994,0,5.801,0,8.734c-23.698,0-47.263,0-71.052,0c0-2.805,0-5.678,0-8.734
		C190.76,194.885,214.397,194.885,238.242,194.885z"/>
	<path fill="#FFFFFF" d="M247.355,165.741c0-8.802,6.993-15.807,15.758-15.764c8.447,0.03,15.709,7.311,15.686,15.732
		c-0.012,8.662-7.157,15.68-15.941,15.68C254.189,181.383,247.355,174.494,247.355,165.741z M256.451,165.704
		c-0.013,3.545,3.007,6.626,6.504,6.632c3.526,0,6.577-3.05,6.583-6.601c0.019-3.521-3.094-6.663-6.57-6.663
		C259.47,159.072,256.457,162.134,256.451,165.704z"/>
	<path fill="#FFFFFF" d="M166.958,165.777c-0.525-7.885,6.706-15.88,15.739-15.819c8.497,0.067,15.673,7.22,15.703,15.715
		c0.031,8.638-7.127,15.716-15.892,15.716C173.822,181.383,166.97,174.506,166.958,165.777z M176.035,165.515
		c-0.104,3.526,2.849,6.692,6.351,6.82c3.533,0.128,6.62-2.769,6.815-6.387c0.178-3.411-2.866-6.675-6.399-6.846
		C179.336,158.932,176.133,161.969,176.035,165.515z"/>
	<path fill="#FFFFFF" d="M318.811,165.777c0.336,8.918-8.025,16.033-16.101,15.685c-8.252-0.354-15.416-7.407-15.373-15.788
		c0.037-8.569,7.341-15.752,15.983-15.696C311.891,150.025,318.828,157.104,318.811,165.777z M309.696,165.729
		c0-3.569-3.001-6.645-6.51-6.656c-3.447-0.006-6.626,3.172-6.626,6.644c0,3.539,3.051,6.614,6.59,6.62
		C306.677,172.354,309.696,169.304,309.696,165.729z"/>
	<path fill="#FFFFFF" d="M202.777,297.306c0-2.995,0-5.788,0-8.734c22.316,0,44.529,0,66.858,0c0,2.934,0,5.727,0,8.734
		C247.417,297.306,225.216,297.306,202.777,297.306z"/>
	<path fill="#FFFFFF" d="M167.056,141.187c0-3.038,0-5.868,0-8.912c16.247,0,32.427,0,48.784,0c0,2.934,0,5.825,0,8.912
		C199.672,141.187,183.492,141.187,167.056,141.187z"/>
	<path fill="#FFFFFF" d="M193.535,297.36c-8.809,0-17.52,0-26.395,0c0-2.935,0-5.794,0-8.796c8.796,0,17.512,0,26.395,0
		C193.535,291.505,193.535,294.354,193.535,297.36z"/>
	<path fill="#FFFFFF" d="M175.889,359.946c0,2.978,0,5.782,0,8.809c-2.879,0-5.74,0-8.753,0c0-2.892,0-5.765,0-8.809
		C169.978,359.946,172.771,359.946,175.889,359.946z"/>
	<path fill="#FFFFFF" d="M180.455,359.854c3.007,0,5.739,0,8.686,0c0,2.934,0,5.801,0,8.888c-2.805,0-5.66,0-8.686,0
		C180.455,365.845,180.455,362.972,180.455,359.854z"/>
	<path fill="#FFFFFF" d="M193.792,359.88c2.988,0,5.721,0,8.661,0c0,2.951,0,5.88,0,8.954c-2.886,0-5.686,0-8.661,0
		C193.792,365.888,193.792,363.021,193.792,359.88z"/>
	<path fill="#FFFFFF" d="M215.889,360.02c0,2.897,0,5.758,0,8.796c-2.867,0-5.636,0-8.644,0c0-2.879,0-5.728,0-8.796
		C210.008,360.02,212.777,360.02,215.889,360.02z"/>
	<path fill="#FFFFFF" d="M220.668,368.791c0-2.977,0-5.844,0-8.856c2.902,0,5.672,0,8.619,0c0,2.978,0,5.832,0,8.856
		C226.396,368.791,223.621,368.791,220.668,368.791z"/>
	<path fill="#FFFFFF" d="M211.793,333.015c0-2.995,0-5.807,0-8.759c19.254,0,38.387,0,57.744,0c0,2.799,0,5.666,0,8.759
		C250.424,333.015,231.23,333.015,211.793,333.015z"/>
	<path fill="#FFFFFF" d="M184.892,333.033c0-3.051,0-5.844,0-8.79c5.886,0,11.632,0,17.567,0c0,2.854,0,5.715,0,8.79
		C196.701,333.033,190.9,333.033,184.892,333.033z"/>
	<path fill="#FFFFFF" d="M184.868,239.25c0-2.977,0-5.775,0-8.723c28.313,0,56.479,0,84.768,0c0,2.922,0,5.721,0,8.723
		C241.445,239.25,213.272,239.25,184.868,239.25z"/>
	<path fill="#FFFFFF" d="M184.837,257.3c0-3.008,0-5.818,0-8.856c20.764,0,41.473,0,62.366,0c0,2.873,0,5.752,0,8.856
		C226.542,257.3,205.84,257.3,184.837,257.3z"/>
</g>
</svg>
