<?xml version="1.0" encoding="utf-8"?>
<!-- Generator: Adobe Illustrator 16.0.0, SVG Export Plug-In . SVG Version: 6.00 Build 0)  -->
<!DOCTYPE svg PUBLIC "-//W3C//DTD SVG 1.1//EN" "http://www.w3.org/Graphics/SVG/1.1/DTD/svg11.dtd">
<svg version="1.1" id="Layer_1" xmlns="http://www.w3.org/2000/svg" xmlns:xlink="http://www.w3.org/1999/xlink" x="0px" y="0px"
	 width="512px" height="512px" viewBox="0 0 512 512" enable-background="new 0 0 512 512" xml:space="preserve">
<g>
	<g>
		<linearGradient id="SVGID_1_" gradientUnits="userSpaceOnUse" x1="104.0708" y1="103.8188" x2="420.144" y2="419.892">
			<stop  offset="0" style="stop-color:#FF00FF"/>
			<stop  offset="1" style="stop-color:#FF006F"/>
		</linearGradient>
		<path fill="url(#SVGID_1_)" d="M484.706,259.455c0,124.261-100.733,225-225,225s-225-100.739-225-225
			c0-124.267,100.733-225,225-225S484.706,135.188,484.706,259.455z"/>
		<linearGradient id="SVGID_2_" gradientUnits="userSpaceOnUse" x1="153.7598" y1="75.9502" x2="365.6533" y2="442.9606">
			<stop  offset="0" style="stop-color:#FF006F"/>
			<stop  offset="0.6601" style="stop-color:#FF007F"/>
			<stop  offset="1" style="stop-color:#FF00FF"/>
		</linearGradient>
		<circle fill="url(#SVGID_2_)" cx="259.706" cy="259.455" r="211.858"/>
	</g>
</g>
<g>
	<path fill-rule="evenodd" clip-rule="evenodd" fill="#FFFFFF" d="M348.056,137.139c0,33.025,0,65.428,0,98.221
		c-6.534-0.99-12.922-1.748-19.156-3.123c-1.015-0.22-2.005-3.172-2.023-4.872c-0.141-18.74-0.092-37.487-0.092-56.234
		c0-2.207,0-4.401,0-6.932c-9.107,0-17.738,0-27.005,0c0,8.716,0,17.341,0,26.259c-33.02,0-65.409,0-98.472,0
		c0-8.698,0-17.317,0-26.253c-9.297,0-17.928,0-26.944,0c0,62.127,0,124.211,0,186.925c2.005,0.135,3.955,0.373,5.905,0.379
		c15.22,0.03,30.44,0.116,45.66-0.062c3.374-0.036,4.853,1.082,5.898,4.267c1.779,5.397,4.169,10.593,6.491,16.357
		c-28.6,0-56.84,0-85.416,0c0-78.197,0-156.235,0-234.908c15.972,0,31.822,0,47.934,0c0.208-2.781,0.373-4.964,0.587-7.836
		c7.304,0,14.615,0,21.748,0c4.083-16.962,13.19-25.391,26.962-25.52c14.139-0.128,23.496,8.325,27.567,25.306
		c7.018,0,14.181,0,21.724,0c0.189,2.806,0.336,5.11,0.532,8.026C316.094,137.139,331.949,137.139,348.056,137.139z
		 M265.055,129.058c0.006-7.585-6.485-13.857-14.432-13.955c-8.203-0.098-14.847,6.333-14.719,14.206
		c0.122,7.701,6.491,13.569,14.682,13.526C258.697,142.786,265.049,136.735,265.055,129.058z"/>
	<path fill-rule="evenodd" clip-rule="evenodd" fill="#FFFFFF" d="M258.221,326.698c0.092-34.261,27.897-61.729,62.25-61.534
		c33.96,0.184,61.503,27.903,61.46,61.858c-0.042,34.229-27.799,61.883-62.071,61.833
		C285.586,388.795,258.129,361.105,258.221,326.698z M313.789,333.336c-2.549-3.056-4.383-5.385-6.351-7.591
		c-4.805-5.373-10.52-6.241-15.153-2.378c-4.621,3.839-4.926,9.713-0.525,15.379c4.891,6.289,9.891,12.506,15.043,18.582
		c6.094,7.139,14.07,6.388,18.423-1.834c6.51-12.262,12.732-24.682,19.064-37.042c2.109-4.119,4.426-8.147,6.229-12.401
		c2.249-5.251,0.066-10.703-4.854-13.209c-4.554-2.311-9.933-0.697-13.032,4.003c-0.917,1.382-1.607,2.916-2.371,4.396
		C324.859,311.747,319.468,322.267,313.789,333.336z"/>
	<path fill-rule="evenodd" clip-rule="evenodd" fill="#FFFFFF" d="M227.065,214.247c0,7.861,0,15.232,0,22.952
		c-7.732,0-15.226,0-23.081,0c0-7.604,0-15.098,0-22.952C211.589,214.247,219.089,214.247,227.065,214.247z M208.502,232.634
		c4.994,0,9.358,0,13.906,0c0-4.774,0-9.261,0-13.802c-4.816,0-9.303,0-13.906,0C208.502,223.575,208.502,227.921,208.502,232.634z"
		/>
	<path fill-rule="evenodd" clip-rule="evenodd" fill="#FFFFFF" d="M227.102,258.752c0,7.757,0,15.122,0,22.873
		c-7.677,0-15.183,0-23.075,0c0-7.47,0-14.976,0-22.873C211.516,258.752,219.003,258.752,227.102,258.752z M222.292,277.267
		c0-5.085,0-9.578,0-13.967c-4.804,0-9.163,0-13.667,0c0,4.798,0,9.285,0,13.967C213.337,277.267,217.689,277.267,222.292,277.267z"
		/>
	<path fill-rule="evenodd" clip-rule="evenodd" fill="#FFFFFF" d="M227.041,304.516c0,7.88,0,15.232,0,22.929
		c-7.738,0-15.232,0-23.063,0c0-7.635,0-15.122,0-22.929C211.625,304.516,219.113,304.516,227.041,304.516z M208.587,309.033
		c0,5.019,0,9.364,0,13.814c4.817,0,9.297,0,13.729,0c0-4.854,0-9.315,0-13.814C217.548,309.033,213.215,309.033,208.587,309.033z"
		/>
</g>
</svg>
