<?xml version="1.0" encoding="utf-8"?>
<!-- Generator: Adobe Illustrator 16.0.0, SVG Export Plug-In . SVG Version: 6.00 Build 0)  -->
<!DOCTYPE svg PUBLIC "-//W3C//DTD SVG 1.1//EN" "http://www.w3.org/Graphics/SVG/1.1/DTD/svg11.dtd">
<svg version="1.1" id="Layer_1" xmlns="http://www.w3.org/2000/svg" xmlns:xlink="http://www.w3.org/1999/xlink" x="0px" y="0px"
	 width="512px" height="512px" viewBox="0 0 512 512" enable-background="new 0 0 512 512" xml:space="preserve">
<g>
	<g>
		
			<linearGradient id="SVGID_1_" gradientUnits="userSpaceOnUse" x1="76.282" y1="403.4138" x2="392.3553" y2="87.3405" gradientTransform="matrix(1 0 0 -1 24.9448 503.3589)">
			<stop  offset="0" style="stop-color:#FF7601"/>
			<stop  offset="1" style="stop-color:#FF0000"/>
		</linearGradient>
		<path fill="url(#SVGID_1_)" d="M481.863,255.581c0,124.262-100.732,225-225,225c-124.267,0-225-100.738-225-225
			c0-124.264,100.733-225,225-225C381.13,30.581,481.863,131.317,481.863,255.581z"/>
		
			<linearGradient id="SVGID_2_" gradientUnits="userSpaceOnUse" x1="125.9719" y1="431.283" x2="337.8673" y2="64.2694" gradientTransform="matrix(1 0 0 -1 24.9448 503.3589)">
			<stop  offset="0" style="stop-color:#FF0000"/>
			<stop  offset="1" style="stop-color:#FF6301"/>
		</linearGradient>
		<path fill="url(#SVGID_2_)" d="M468.722,255.581c0,117.012-94.854,211.864-211.858,211.864
			c-117.004,0-211.858-94.853-211.858-211.864c0-117.005,94.854-211.857,211.857-211.857
			C373.867,43.723,468.722,138.576,468.722,255.581z"/>
	</g>
</g>
<g opacity="0.3">
	<g>
		<path d="M253.185,153.05c-36.381,0-72.549,0-109.089,0c-0.214,1.853-0.544,3.479-0.55,5.123
			c-0.031,19.298,0.116,38.606-0.104,57.892c-0.061,4.743,1.418,6.216,6.167,6.161c19.512-0.227,39.028-0.33,58.527,0.128
			c3.747,0.086,8.606,1.938,10.88,4.676c5.062,6.106-0.006,14.75-8.576,14.988c-12.286,0.323-24.591,0.128-36.895,0.134
			c-12.72,0.006-25.458,0.092-38.167-0.037c-8.411-0.098-11.98-3.643-12.011-12.127c-0.099-28.423-0.099-56.846,0-85.266
			c0.029-8.387,3.71-12.234,11.999-12.25c42.199-0.096,84.406-0.096,126.602,0.009c7.738,0.023,11.32,3.594,11.778,11.201
			c0.244,4.224,0.251,8.5-0.086,12.711c-0.557,6.62-4.241,10.195-9.95,10.195c-5.41,0-9.035-3.404-10.043-9.492
			C253.466,155.887,253.368,154.64,253.185,153.05z"/>
		<path d="M169.841,197.054c2.738,1.259,4.768,2.512,6.968,3.129c3.411,0.96,6.938,1.926,10.428,1.975
			c1.534,0.012,3.105-2.237,4.664-3.448c-1.191-1.503-2.079-3.63-3.618-4.352c-3.619-1.699-7.586-2.659-11.346-4.04
			c-5.818-2.133-9.859-5.789-10.031-12.463c-0.171-6.418,2.94-10.648,8.559-13.637c1.828-0.979,2.714-3.618,4.192-5.36
			c1.144-1.352,2.409-3.319,3.827-3.521c1.375-0.208,4.304,1.412,4.364,2.385c0.349,5.599,5.02,5.867,8.417,8.038
			c2.061,1.345,3.068,4.314,4.554,6.552c-2.372,1.009-4.805,2.928-7.108,2.788c-3.473-0.238-6.797-2.434-10.281-2.732
			c-1.742-0.159-3.686,2.036-5.526,3.154c1.253,1.663,2.152,4.027,3.827,4.847c3.576,1.748,7.567,2.642,11.352,3.998
			c5.946,2.121,9.725,6.173,9.736,12.671c0.02,6.56-3.3,11.021-9.357,13.814c-2.055,0.954-3.301,3.526-5.037,5.214
			c-1.4,1.363-3.038,3.527-4.499,3.472c-1.485-0.073-4.016-2.329-4.107-3.759c-0.238-3.838-2.543-4.7-5.434-5.825
			c-2.714-1.039-5.464-2.463-7.567-4.389c-1.057-0.959-1.381-3.649-0.837-5.128C166.498,198.992,168.533,198.111,169.841,197.054z"
			/>
	</g>
	<g>
		<path d="M314.676,297.806c-22.151,0-44.297,0.152-66.46-0.056c-13.704-0.122-22.451-9.363-22.451-23.057
			c0-28.337,0.464-56.668-0.256-84.975c-0.245-9.407,10.868-21.132,19.639-21.211c9.083-0.072,18.154-0.537,27.231-0.556
			c32.14-0.08,64.285-0.073,96.418-0.023c4.713,0,9.444,0.214,14.132,0.653c12.83,1.187,20.807,10.179,20.807,23.215
			c0,27.788,0,55.568,0,83.338c0,12.714-9.205,22.438-22.06,22.562c-22.329,0.238-44.663,0.073-66.999,0.073
			C314.676,297.775,314.676,297.794,314.676,297.806z M391.669,215.948c-2.428,0-4.205,0-5.979,0c-37.415,0-74.842,0-112.25,0.024
			c-9.811,0.006-19.621,0.134-29.432,0.171c-2.817,0.006-4.854,0.416-4.812,4.132c0.264,17.977,0.172,35.959,0.532,53.931
			c0.134,7.098,3.166,9.561,10.313,9.578c21.985,0.012,43.967,0.042,65.94-0.019c22.164-0.05,44.315-0.165,66.485-0.336
			c5.538-0.043,9.112-2.959,9.149-7.818C391.755,256.015,391.669,236.394,391.669,215.948z M391.461,193.863
			c0.178-8.02-2.012-10.617-9.06-11.21c-2.176-0.178-4.357-0.257-6.527-0.257c-42.141-0.062-84.272-0.116-126.399-0.142
			c-7.042,0-10.458,4.176-9.651,11.607C290.263,193.863,340.709,193.863,391.461,193.863z"/>
		<path d="M274.75,269.646c-8.095,6.198-16.59,6.088-22.207-0.049c-4.908-5.354-5.122-14.064-0.489-19.413
			c5.984-6.876,13.814-7.183,22.751-0.887c10.024-6.026,17.989-5.715,23.196,0.887c4.64,5.917,4.377,14.07-0.643,19.37
			C291.375,275.868,283.863,275.96,274.75,269.646z"/>
	</g>
	<g>
		<path d="M228.258,316.052c-6.045,0-11.381,0-16.443,0c0.765,3.13,2.194,6.265,2.133,9.357c-0.115,5.373-3.373,9.565-8.189,11.399
			c-5.611,2.134-11.657,3.142-17.531,4.554c-3.631,0.874-7.311,1.583-10.966,2.372c-0.006,0.715-0.012,1.448-0.024,2.176
			c2.312,0.733,4.584,1.639,6.95,2.157c5.8,1.26,11.662,2.227,17.451,3.552c2.084,0.478,4.15,1.389,5.972,2.507
			c6.309,3.888,6.688,10.465,0.409,14.284c-3.733,2.273-8.185,3.79-12.506,4.549c-9.676,1.692-19.407,1.271-28.777-2.023
			c-3.931-1.388-8.545-2.965-8.478-8.123c0.073-5.215,4.908-5.813,8.716-7.018c2.316-0.723,4.731-1.161,7.463-1.811
			c-3.502-2.396-10.104-2.506-8.631-7.73c0.966-3.448,5.898-5.771,9.071-8.602c0.287,0.171-0.465-0.294-1.247-0.728
			c-8.734-4.872-9.749-14.615-2.115-21.234c5.159-4.479,11.314-6.29,18.093-6.277c13.649,0.03,27.305,0.129,40.954-0.043
			c5.336-0.073,10.654-1.052,15.996-1.125c4.896-0.066,9.982-0.208,14.652,0.979c14.052,3.563,19.052,18.093,10.666,30.85
			c-7.354,11.198-18.588,14.004-31.192,13.148c-0.721-0.043-1.424-0.263-2.146-0.373c-16.063-2.506-22.8-16.883-14.432-30.917
			C225.208,320.087,226.577,318.411,228.258,316.052z M233.588,334.102c-0.208,8.16,5.874,13.338,13.826,11.767
			c9.779-1.932,16.521-11.111,15.47-21.052c-0.733-6.906-6.13-11.051-13.123-10.061
			C240.838,316.027,233.833,324.396,233.588,334.102z M190.611,334.615c2.177-0.854,5.393-1.283,7.263-3.099
			c2.035-1.987,4.126-5.453,3.776-7.929c-0.348-2.434-3.337-5.25-5.85-6.461c-4.78-2.322-9.658-1.015-13.802,2.236
			c-5.446,4.291-4.45,11.119,1.999,13.711C185.832,333.82,187.892,334.005,190.611,334.615z M185.868,367.903
			c3.845-0.751,7.694-1.283,11.388-2.365c1.21-0.349,2.579-2.011,2.787-3.252c0.135-0.794-1.571-2.262-2.745-2.842
			c-8.264-4.132-16.528-3.13-24.646,0.478c-1.057,0.477-2.615,2.054-2.433,2.604c0.391,1.168,1.644,2.567,2.799,2.854
			C177.188,366.443,181.461,367.078,185.868,367.903z"/>
		<path d="M135.795,307.854c1.351,0.153,3.533,0.239,5.654,0.667c17.193,3.441,23.104,19.211,12.536,33.331
			c-8.631,11.546-29.676,15.403-41.9,7.684c-9.486-6.003-10.93-20.452-2.892-30.323
			C115.825,311.076,124.805,308.081,135.795,307.854z M146.155,326.95c0.264-8.509-5.622-13.545-14.046-12.011
			c-9.395,1.717-17.011,12.86-15.183,22.225c1.155,5.898,6.491,9.72,12.481,8.949C139.004,344.866,145.838,337.043,146.155,326.95z"
			/>
		<path d="M358.423,330.013c-1.992,6.068-0.104,10.935,5.245,13.845c6.418,3.496,13.146,3.08,19.871,1.155
			c3.711-1.063,7.305-2.506,11.021-3.802c0.085,6.691-0.502,7.75-5.941,9.497c-9.298,2.983-18.754,3.919-28.251,1.059
			c-7.708-2.322-13.57-6.907-15.073-15.244c-1.541-8.569,1.319-15.941,8.209-21.198c10.623-8.099,22.438-9.871,34.821-4.56
			c6.534,2.799,9.977,8.074,10.146,15.409c0.066,3.136-1.118,3.937-4.07,3.888c-10.459-0.141-20.923-0.049-31.382-0.049
			C361.449,330.013,359.878,330.013,358.423,330.013z M385.758,323.968c0.019-5.03-2.402-7.843-7.279-8.723
			c-8.283-1.498-15.317,1.933-17.635,8.723C369.188,323.968,377.47,323.968,385.758,323.968z"/>
		<path d="M292.732,351.65c-4.297,0-8.147,0-12.384,0c2.892-13.521,5.673-26.699,8.606-39.841c0.208-0.917,1.527-2.176,2.42-2.256
			c3.275-0.27,6.602-0.109,10.215-0.109c-0.324,2.371-0.575,4.188-0.937,6.688c1.639-0.979,2.824-1.626,3.955-2.354
			c6.346-4.063,13.245-5.77,20.752-4.926c8.331,0.941,13.479,7.328,11.896,15.531c-1.755,9.096-4.09,18.073-6.217,27.305
			c-4.004,0-7.866,0-12.306,0c1.59-7.555,3.124-14.854,4.664-22.164c0.336-1.564,0.697-3.117,1.009-4.682
			c1.29-6.443-2.45-10.771-8.733-8.814c-5.66,1.754-10.825,5.238-16.07,8.209c-0.88,0.495-1.271,2.182-1.552,3.398
			C296.241,335.545,294.529,343.484,292.732,351.65z"/>
	</g>
</g>
<g>
	<g>
		<path fill="#FFFFFF" d="M263.185,143.05c-36.381,0-72.549,0-109.089,0c-0.214,1.853-0.544,3.479-0.55,5.123
			c-0.031,19.298,0.116,38.606-0.104,57.892c-0.061,4.743,1.418,6.216,6.167,6.161c19.512-0.227,39.028-0.33,58.527,0.128
			c3.747,0.086,8.606,1.938,10.88,4.676c5.062,6.106-0.006,14.75-8.576,14.988c-12.286,0.323-24.591,0.128-36.895,0.134
			c-12.72,0.006-25.458,0.092-38.167-0.037c-8.411-0.098-11.98-3.643-12.011-12.127c-0.099-28.423-0.099-56.846,0-85.266
			c0.029-8.387,3.71-12.234,11.999-12.25c42.199-0.096,84.406-0.096,126.602,0.009c7.738,0.023,11.32,3.594,11.778,11.201
			c0.244,4.224,0.251,8.5-0.086,12.711c-0.557,6.62-4.241,10.195-9.95,10.195c-5.41,0-9.035-3.404-10.043-9.492
			C263.466,145.887,263.368,144.64,263.185,143.05z"/>
		<path fill="#FFFFFF" d="M179.841,187.054c2.738,1.259,4.768,2.512,6.968,3.129c3.411,0.96,6.938,1.926,10.428,1.975
			c1.534,0.012,3.105-2.237,4.664-3.448c-1.191-1.503-2.079-3.63-3.618-4.352c-3.619-1.699-7.586-2.659-11.346-4.04
			c-5.818-2.133-9.859-5.789-10.031-12.463c-0.171-6.418,2.94-10.648,8.559-13.637c1.828-0.979,2.714-3.618,4.192-5.36
			c1.144-1.352,2.409-3.319,3.827-3.521c1.375-0.208,4.304,1.412,4.364,2.385c0.349,5.599,5.02,5.867,8.417,8.038
			c2.061,1.345,3.068,4.314,4.554,6.552c-2.372,1.009-4.805,2.928-7.108,2.788c-3.473-0.238-6.797-2.434-10.281-2.732
			c-1.742-0.159-3.686,2.036-5.526,3.154c1.253,1.663,2.152,4.027,3.827,4.847c3.576,1.748,7.567,2.642,11.352,3.998
			c5.946,2.121,9.725,6.173,9.736,12.671c0.02,6.56-3.3,11.021-9.357,13.814c-2.055,0.954-3.301,3.526-5.037,5.214
			c-1.4,1.363-3.038,3.527-4.499,3.472c-1.485-0.073-4.016-2.329-4.107-3.759c-0.238-3.838-2.543-4.7-5.434-5.825
			c-2.714-1.039-5.464-2.463-7.567-4.389c-1.057-0.959-1.381-3.649-0.837-5.128C176.498,188.992,178.533,188.111,179.841,187.054z"
			/>
	</g>
	<g>
		<path fill="#FFFFFF" d="M324.676,287.806c-22.151,0-44.297,0.152-66.46-0.056c-13.704-0.122-22.451-9.363-22.451-23.057
			c0-28.337,0.464-56.668-0.256-84.975c-0.245-9.407,10.868-21.132,19.639-21.211c9.083-0.072,18.154-0.537,27.231-0.556
			c32.14-0.08,64.285-0.073,96.418-0.023c4.713,0,9.444,0.214,14.132,0.653c12.83,1.187,20.807,10.179,20.807,23.215
			c0,27.788,0,55.568,0,83.338c0,12.714-9.205,22.438-22.06,22.562c-22.329,0.238-44.663,0.073-66.999,0.073
			C324.676,287.775,324.676,287.794,324.676,287.806z M401.669,205.948c-2.428,0-4.205,0-5.979,0c-37.415,0-74.842,0-112.25,0.024
			c-9.811,0.006-19.621,0.134-29.432,0.171c-2.817,0.006-4.854,0.416-4.812,4.132c0.264,17.977,0.172,35.959,0.532,53.931
			c0.134,7.098,3.166,9.561,10.313,9.578c21.985,0.012,43.967,0.042,65.94-0.019c22.164-0.05,44.315-0.165,66.485-0.336
			c5.538-0.043,9.112-2.959,9.149-7.818C401.755,246.015,401.669,226.394,401.669,205.948z M401.461,183.863
			c0.178-8.02-2.012-10.617-9.06-11.21c-2.176-0.178-4.357-0.257-6.527-0.257c-42.141-0.062-84.272-0.116-126.399-0.142
			c-7.042,0-10.458,4.176-9.651,11.607C300.263,183.863,350.709,183.863,401.461,183.863z"/>
		<path fill="#FFFFFF" d="M284.75,259.646c-8.095,6.198-16.59,6.088-22.207-0.049c-4.908-5.354-5.122-14.064-0.489-19.413
			c5.984-6.876,13.814-7.183,22.751-0.887c10.024-6.026,17.989-5.715,23.196,0.887c4.64,5.917,4.377,14.07-0.643,19.37
			C301.375,265.868,293.863,265.96,284.75,259.646z"/>
	</g>
	<g>
		<path fill="#FFFFFF" d="M238.258,306.052c-6.045,0-11.381,0-16.443,0c0.765,3.13,2.194,6.265,2.133,9.357
			c-0.115,5.373-3.373,9.565-8.189,11.399c-5.611,2.134-11.657,3.142-17.531,4.554c-3.631,0.874-7.311,1.583-10.966,2.372
			c-0.006,0.715-0.012,1.448-0.024,2.176c2.312,0.733,4.584,1.639,6.95,2.157c5.8,1.26,11.662,2.227,17.451,3.552
			c2.084,0.478,4.15,1.389,5.972,2.507c6.309,3.888,6.688,10.465,0.409,14.284c-3.733,2.273-8.185,3.79-12.506,4.549
			c-9.676,1.692-19.407,1.271-28.777-2.023c-3.931-1.388-8.545-2.965-8.478-8.123c0.073-5.215,4.908-5.813,8.716-7.018
			c2.316-0.723,4.731-1.161,7.463-1.811c-3.502-2.396-10.104-2.506-8.631-7.73c0.966-3.448,5.898-5.771,9.071-8.602
			c0.287,0.171-0.465-0.294-1.247-0.728c-8.734-4.872-9.749-14.615-2.115-21.234c5.159-4.479,11.314-6.29,18.093-6.277
			c13.649,0.03,27.305,0.129,40.954-0.043c5.336-0.073,10.654-1.052,15.996-1.125c4.896-0.066,9.982-0.208,14.652,0.979
			c14.052,3.563,19.052,18.093,10.666,30.85c-7.354,11.198-18.588,14.004-31.192,13.148c-0.721-0.043-1.424-0.263-2.146-0.373
			c-16.063-2.506-22.8-16.883-14.432-30.917C235.208,310.087,236.577,308.411,238.258,306.052z M243.588,324.102
			c-0.208,8.16,5.874,13.338,13.826,11.767c9.779-1.932,16.521-11.111,15.47-21.052c-0.733-6.906-6.13-11.051-13.123-10.061
			C250.838,306.027,243.833,314.396,243.588,324.102z M200.611,324.615c2.177-0.854,5.393-1.283,7.263-3.099
			c2.035-1.987,4.126-5.453,3.776-7.929c-0.348-2.434-3.337-5.25-5.85-6.461c-4.78-2.322-9.658-1.015-13.802,2.236
			c-5.446,4.291-4.45,11.119,1.999,13.711C195.832,323.82,197.892,324.005,200.611,324.615z M195.868,357.903
			c3.845-0.751,7.694-1.283,11.388-2.365c1.21-0.349,2.579-2.011,2.787-3.252c0.135-0.794-1.571-2.262-2.745-2.842
			c-8.264-4.132-16.528-3.13-24.646,0.478c-1.057,0.477-2.615,2.054-2.433,2.604c0.391,1.168,1.644,2.567,2.799,2.854
			C187.188,356.443,191.461,357.078,195.868,357.903z"/>
		<path fill="#FFFFFF" d="M145.795,297.854c1.351,0.153,3.533,0.239,5.654,0.667c17.193,3.441,23.104,19.211,12.536,33.331
			c-8.631,11.546-29.676,15.403-41.9,7.684c-9.486-6.003-10.93-20.452-2.892-30.323
			C125.825,301.076,134.805,298.081,145.795,297.854z M156.155,316.95c0.264-8.509-5.622-13.545-14.046-12.011
			c-9.395,1.717-17.011,12.86-15.183,22.225c1.155,5.898,6.491,9.72,12.481,8.949C149.004,334.866,155.838,327.043,156.155,316.95z"
			/>
		<path fill="#FFFFFF" d="M368.423,320.013c-1.992,6.068-0.104,10.935,5.245,13.845c6.418,3.496,13.146,3.08,19.871,1.155
			c3.711-1.063,7.305-2.506,11.021-3.802c0.085,6.691-0.502,7.75-5.941,9.497c-9.298,2.983-18.754,3.919-28.251,1.059
			c-7.708-2.322-13.57-6.907-15.073-15.244c-1.541-8.569,1.319-15.941,8.209-21.198c10.623-8.099,22.438-9.871,34.821-4.56
			c6.534,2.799,9.977,8.074,10.146,15.409c0.066,3.136-1.118,3.937-4.07,3.888c-10.459-0.141-20.923-0.049-31.382-0.049
			C371.449,320.013,369.878,320.013,368.423,320.013z M395.758,313.968c0.019-5.03-2.402-7.843-7.279-8.723
			c-8.283-1.498-15.317,1.933-17.635,8.723C379.188,313.968,387.47,313.968,395.758,313.968z"/>
		<path fill="#FFFFFF" d="M302.732,341.65c-4.297,0-8.147,0-12.384,0c2.892-13.521,5.673-26.699,8.606-39.841
			c0.208-0.917,1.527-2.176,2.42-2.256c3.275-0.27,6.602-0.109,10.215-0.109c-0.324,2.371-0.575,4.188-0.937,6.688
			c1.639-0.979,2.824-1.626,3.955-2.354c6.346-4.063,13.245-5.77,20.752-4.926c8.331,0.941,13.479,7.328,11.896,15.531
			c-1.755,9.096-4.09,18.073-6.217,27.305c-4.004,0-7.866,0-12.306,0c1.59-7.555,3.124-14.854,4.664-22.164
			c0.336-1.564,0.697-3.117,1.009-4.682c1.29-6.443-2.45-10.771-8.733-8.814c-5.66,1.754-10.825,5.238-16.07,8.209
			c-0.88,0.495-1.271,2.182-1.552,3.398C306.241,325.545,304.529,333.484,302.732,341.65z"/>
	</g>
</g>
</svg>
