<?xml version="1.0" encoding="utf-8"?>
<!-- Generator: Adobe Illustrator 16.0.0, SVG Export Plug-In . SVG Version: 6.00 Build 0)  -->
<!DOCTYPE svg PUBLIC "-//W3C//DTD SVG 1.1//EN" "http://www.w3.org/Graphics/SVG/1.1/DTD/svg11.dtd">
<svg version="1.1" id="Layer_1" xmlns="http://www.w3.org/2000/svg" xmlns:xlink="http://www.w3.org/1999/xlink" x="0px" y="0px"
	 width="512px" height="512px" viewBox="0 0 512 512" enable-background="new 0 0 512 512" xml:space="preserve">
<g>
	<g>
		
			<linearGradient id="SVGID_1_" gradientUnits="userSpaceOnUse" x1="75.5603" y1="402.6638" x2="391.6334" y2="86.5906" gradientTransform="matrix(1 0 0 -1 24.9448 503.3589)">
			<stop  offset="0" style="stop-color:#FFA300"/>
			<stop  offset="1" style="stop-color:#FF6400"/>
		</linearGradient>
		<path fill="url(#SVGID_1_)" d="M481.141,256.33c0,124.262-100.732,225-225,225c-124.267,0-225-100.738-225-225
			c0-124.267,100.733-225,225-225C380.408,31.33,481.141,132.063,481.141,256.33z"/>
		
			<linearGradient id="SVGID_2_" gradientUnits="userSpaceOnUse" x1="125.2493" y1="430.5339" x2="337.1422" y2="63.5246" gradientTransform="matrix(1 0 0 -1 24.9448 503.3589)">
			<stop  offset="0" style="stop-color:#FF6400"/>
			<stop  offset="1" style="stop-color:#FFA300"/>
		</linearGradient>
		<circle fill="url(#SVGID_2_)" cx="256.141" cy="256.33" r="211.858"/>
	</g>
</g>
<g opacity="0.6">
	<path d="M411.593,151.422c0,62.897,0,125.788,0,188.675c-2.065,2.885-4.321,5.574-8.104,6.104
		c-2.061,0.288-4.163,0.436-6.247,0.436c-35.317-0.03-70.643-0.092-105.966-0.142c-0.789-0.006-1.577,0-2.407,0
		c-0.043,0.703-0.116,1.069-0.093,1.438c0.409,6.174,0.99,12.354,1.204,18.526c0.342,9.628,4.951,16.277,13.404,20.6
		c2.849,1.448,5.532,3.252,8.239,4.97c1.656,1.058,3.489,2.298,2.843,4.578c-0.673,2.371-2.94,1.883-4.743,1.883
		c-28.9,0.019-57.806,0.013-86.699,0.013c-4.707,0-9.419,0.078-14.12-0.067c-0.923-0.03-2.315-0.715-2.609-1.454
		c-0.367-0.898-0.08-2.354,0.471-3.228c0.586-0.948,1.748-1.583,2.75-2.207c3.814-2.354,7.695-4.584,11.485-6.969
		c5.237-3.308,8.361-8.063,8.984-14.241c0.648-6.534,1.052-13.088,1.546-19.635c0.099-1.302,0.142-2.608,0.221-4.175
		c-1.235,0-2.188,0-3.143,0c-35.396,0-70.794,0-106.191-0.012c-1.719,0-3.447-0.006-5.146-0.202
		c-4.713-0.55-7.555-3.404-8.153-8.117c-0.135-1.025-0.184-2.084-0.184-3.123c-0.006-59.743,0-119.48-0.031-179.229
		c0-4.938,1.626-8.741,6.455-10.69c96.503,0,193.007,0,289.511,0C407.747,146.563,410.028,148.604,411.593,151.422z
		 M397.075,324.166c0-52.952,0-105.646,0-158.515c-91.246,0-182.378,0-273.515,0c0,52.928,0,105.679,0,158.515
		C214.784,324.166,305.798,324.166,397.075,324.166z"/>
	<path d="M323.628,197.901c0,0.911,0,1.864,0,2.806c0.023,14.108-0.019,28.215,0.159,42.323c0.023,1.95,0.739,4.132,1.784,5.801
		c7.622,12.121,15.403,24.139,23.137,36.191c0.273,0.435,0.538,0.887,0.801,1.327c-11.138,8.221-32.983,9.829-49.719-1.591
		c-18.735-12.773-26.096-36.546-17.739-57.285C290.597,206.269,311.227,196.929,323.628,197.901z"/>
	<path d="M357.357,286.788c-8.398-13.001-16.564-25.646-24.901-38.557c12.812-9.598,25.567-19.15,38.617-28.931
		c6.406,9.981,8.411,20.739,6.976,32.151C376.227,265.994,369.502,277.772,357.357,286.788z"/>
	<path d="M237.051,200.285c-3.967,0-7.176,0.043-10.379-0.023c-1.101-0.019-2.434,0.023-3.233-0.557
		c-0.88-0.636-1.669-1.932-1.749-2.989c-0.055-0.83,0.862-2.005,1.676-2.535c0.788-0.521,1.986-0.569,3.014-0.581
		c5.672-0.05,11.345-0.05,17.022-0.006c3.479,0.018,4.486,0.972,4.512,4.346c0.049,6.045,0.043,12.091,0.006,18.142
		c-0.013,2.599-1.21,3.955-3.283,3.942c-2.078-0.006-3.233-1.32-3.276-3.955c-0.061-3.186-0.012-6.382-0.012-9.572
		c-0.275-0.202-0.544-0.416-0.819-0.617c-0.451,0.722-0.844,1.503-1.399,2.134c-8.533,9.688-17.096,19.357-25.643,29.033
		c-3.196,3.613-4.138,3.687-7.939,0.648c-7.458-5.966-14.982-11.854-22.359-17.922c-1.871-1.541-2.958-1.571-4.75,0.152
		c-9.701,9.291-19.542,18.441-29.334,27.642c-0.269,0.256-0.524,0.524-0.807,0.782c-1.975,1.767-3.735,2.035-4.92,0.752
		c-1.229-1.314-0.917-4.493,0.593-5.917c10.99-10.324,21.98-20.648,32.977-30.959c2.886-2.702,3.778-2.793,6.896-0.33
		c7.677,6.057,15.293,12.188,22.934,18.281c0.697,0.551,1.425,1.059,2.385,1.768C218.365,221.495,227.498,211.128,237.051,200.285z"
		/>
	<path d="M247.906,263.035c0,8.289,0.019,16.577,0,24.866c-0.012,3.93-1.105,5.061-5.055,5.109
		c-3.435,0.056-6.871,0.086-10.306-0.02c-3.356-0.091-4.444-1.21-4.45-4.521c-0.024-16.805-0.024-33.606,0.006-50.404
		c0.006-3.814,0.96-4.737,4.817-4.812c3.435-0.066,6.864-0.055,10.299-0.012c3.655,0.049,4.67,1.058,4.682,4.701
		C247.932,246.306,247.906,254.667,247.906,263.035z"/>
	<path d="M330.321,241.495c-0.066-0.954-0.146-1.602-0.146-2.25c-0.006-14.254,0.043-28.502-0.055-42.75
		c-0.02-2.273,0.77-2.842,2.859-2.646c9.763,0.917,18.186,5.055,25.795,10.923c2.86,2.207,5.207,5.073,7.764,7.671
		c0.794,0.807,0.972,1.521-0.159,2.366c-11.662,8.686-23.288,17.415-34.927,26.125C331.22,241.11,330.921,241.202,330.321,241.495z"
		/>
	<path d="M190.584,267.919c0,6.64,0.023,13.282-0.006,19.928c-0.024,4.145-1.002,5.122-5.195,5.172
		c-3.362,0.042-6.724,0.079-10.08-0.02c-3.502-0.098-4.56-1.144-4.572-4.64c-0.037-13.502-0.037-27.011,0-40.521
		c0.006-3.618,0.959-4.554,4.499-4.608c3.655-0.056,7.316-0.056,10.973,0.006c3.301,0.055,4.278,0.996,4.314,4.309
		c0.062,6.791,0.019,13.582,0.019,20.373C190.554,267.919,190.566,267.919,190.584,267.919z"/>
	<path d="M219.35,273.182c0.006,5.066,0.02,10.141,0,15.208c-0.019,3.216-1.234,4.528-4.419,4.591
		c-3.655,0.073-7.311,0.061-10.959-0.037c-3.472-0.092-4.486-1.187-4.493-4.639c-0.019-10.215-0.019-20.429,0.006-30.644
		c0.007-3.417,0.751-4.297,4.125-4.407c3.796-0.134,7.604-0.128,11.4-0.018c3.429,0.098,4.321,1.106,4.34,4.511
		C219.368,262.895,219.35,268.035,219.35,273.182z"/>
	<path d="M161.954,278.256c0.006,3.509,0.042,7.012,0,10.521c-0.043,2.823-1.253,4.168-4.06,4.235
		c-3.875,0.098-7.757,0.104-11.632-0.03c-3.074-0.116-4.168-1.277-4.199-4.34c-0.061-7.164-0.079-14.321-0.023-21.479
		c0.019-2.781,1.021-3.863,3.747-3.937c4.175-0.116,8.354-0.116,12.529,0.019c2.586,0.079,3.57,1.204,3.625,3.826
		C162.002,270.798,161.954,274.527,161.954,278.256z"/>
</g>
<g>
	<path fill="#FFFFFF" d="M421.593,141.422c0,62.897,0,125.788,0,188.675c-2.065,2.885-4.321,5.574-8.104,6.104
		c-2.061,0.288-4.163,0.436-6.247,0.436c-35.317-0.03-70.643-0.092-105.966-0.142c-0.789-0.006-1.577,0-2.407,0
		c-0.043,0.703-0.116,1.069-0.093,1.438c0.409,6.174,0.99,12.354,1.204,18.526c0.342,9.628,4.951,16.277,13.404,20.6
		c2.849,1.448,5.532,3.252,8.239,4.97c1.656,1.058,3.489,2.298,2.843,4.578c-0.673,2.371-2.94,1.883-4.743,1.883
		c-28.9,0.019-57.806,0.013-86.699,0.013c-4.707,0-9.419,0.078-14.12-0.067c-0.923-0.03-2.315-0.715-2.609-1.454
		c-0.367-0.898-0.08-2.354,0.471-3.228c0.586-0.948,1.748-1.583,2.75-2.207c3.814-2.354,7.695-4.584,11.485-6.969
		c5.237-3.308,8.361-8.063,8.984-14.241c0.648-6.534,1.052-13.088,1.546-19.635c0.099-1.302,0.142-2.608,0.221-4.175
		c-1.235,0-2.188,0-3.143,0c-35.396,0-70.794,0-106.191-0.012c-1.719,0-3.447-0.006-5.146-0.202
		c-4.713-0.55-7.555-3.404-8.153-8.117c-0.135-1.025-0.184-2.084-0.184-3.123c-0.006-59.743,0-119.48-0.031-179.229
		c0-4.938,1.626-8.741,6.455-10.69c96.503,0,193.007,0,289.511,0C417.747,136.563,420.028,138.604,421.593,141.422z
		 M407.075,314.166c0-52.952,0-105.646,0-158.515c-91.246,0-182.378,0-273.515,0c0,52.928,0,105.679,0,158.515
		C224.784,314.166,315.798,314.166,407.075,314.166z"/>
	<path fill="#FFFFFF" d="M333.628,187.901c0,0.911,0,1.864,0,2.806c0.023,14.108-0.019,28.215,0.159,42.323
		c0.023,1.95,0.739,4.132,1.784,5.801c7.622,12.121,15.403,24.139,23.137,36.191c0.273,0.435,0.538,0.887,0.801,1.327
		c-11.138,8.221-32.983,9.829-49.719-1.591c-18.735-12.773-26.096-36.546-17.739-57.285
		C300.597,196.269,321.227,186.929,333.628,187.901z"/>
	<path fill="#FFFFFF" d="M367.357,276.788c-8.398-13.001-16.564-25.646-24.901-38.557c12.812-9.598,25.567-19.15,38.617-28.931
		c6.406,9.981,8.411,20.739,6.976,32.151C386.227,255.994,379.502,267.772,367.357,276.788z"/>
	<path fill="#FFFFFF" d="M247.051,190.285c-3.967,0-7.176,0.043-10.379-0.023c-1.101-0.019-2.434,0.023-3.233-0.557
		c-0.88-0.636-1.669-1.932-1.749-2.989c-0.055-0.83,0.862-2.005,1.676-2.535c0.788-0.521,1.986-0.569,3.014-0.581
		c5.672-0.05,11.345-0.05,17.022-0.006c3.479,0.018,4.486,0.972,4.512,4.346c0.049,6.045,0.043,12.091,0.006,18.142
		c-0.013,2.599-1.21,3.955-3.283,3.942c-2.078-0.006-3.233-1.32-3.276-3.955c-0.061-3.186-0.012-6.382-0.012-9.572
		c-0.275-0.202-0.544-0.416-0.819-0.617c-0.451,0.722-0.844,1.503-1.399,2.134c-8.533,9.688-17.096,19.357-25.643,29.033
		c-3.196,3.613-4.138,3.687-7.939,0.648c-7.458-5.966-14.982-11.854-22.359-17.922c-1.871-1.541-2.958-1.571-4.75,0.152
		c-9.701,9.291-19.542,18.441-29.334,27.642c-0.269,0.256-0.524,0.524-0.807,0.782c-1.975,1.767-3.735,2.035-4.92,0.752
		c-1.229-1.314-0.917-4.493,0.593-5.917c10.99-10.324,21.98-20.648,32.977-30.959c2.886-2.702,3.778-2.793,6.896-0.33
		c7.677,6.057,15.293,12.188,22.934,18.281c0.697,0.551,1.425,1.059,2.385,1.768C228.365,211.495,237.498,201.128,247.051,190.285z"
		/>
	<path fill="#FFFFFF" d="M257.906,253.035c0,8.289,0.019,16.577,0,24.866c-0.012,3.93-1.105,5.061-5.055,5.109
		c-3.435,0.056-6.871,0.086-10.306-0.02c-3.356-0.091-4.444-1.21-4.45-4.521c-0.024-16.805-0.024-33.606,0.006-50.404
		c0.006-3.814,0.96-4.737,4.817-4.812c3.435-0.066,6.864-0.055,10.299-0.012c3.655,0.049,4.67,1.058,4.682,4.701
		C257.932,236.306,257.906,244.667,257.906,253.035z"/>
	<path fill="#FFFFFF" d="M340.321,231.495c-0.066-0.954-0.146-1.602-0.146-2.25c-0.006-14.254,0.043-28.502-0.055-42.75
		c-0.02-2.273,0.77-2.842,2.859-2.646c9.763,0.917,18.186,5.055,25.795,10.923c2.86,2.207,5.207,5.073,7.764,7.671
		c0.794,0.807,0.972,1.521-0.159,2.366c-11.662,8.686-23.288,17.415-34.927,26.125C341.22,231.11,340.921,231.202,340.321,231.495z"
		/>
	<path fill="#FFFFFF" d="M200.584,257.919c0,6.64,0.023,13.282-0.006,19.928c-0.024,4.145-1.002,5.122-5.195,5.172
		c-3.362,0.042-6.724,0.079-10.08-0.02c-3.502-0.098-4.56-1.144-4.572-4.64c-0.037-13.502-0.037-27.011,0-40.521
		c0.006-3.618,0.959-4.554,4.499-4.608c3.655-0.056,7.316-0.056,10.973,0.006c3.301,0.055,4.278,0.996,4.314,4.309
		c0.062,6.791,0.019,13.582,0.019,20.373C200.554,257.919,200.566,257.919,200.584,257.919z"/>
	<path fill="#FFFFFF" d="M229.35,263.182c0.006,5.066,0.02,10.141,0,15.208c-0.019,3.216-1.234,4.528-4.419,4.591
		c-3.655,0.073-7.311,0.061-10.959-0.037c-3.472-0.092-4.486-1.187-4.493-4.639c-0.019-10.215-0.019-20.429,0.006-30.644
		c0.007-3.417,0.751-4.297,4.125-4.407c3.796-0.134,7.604-0.128,11.4-0.018c3.429,0.098,4.321,1.106,4.34,4.511
		C229.368,252.895,229.35,258.035,229.35,263.182z"/>
	<path fill="#FFFFFF" d="M171.954,268.256c0.006,3.509,0.042,7.012,0,10.521c-0.043,2.823-1.253,4.168-4.06,4.235
		c-3.875,0.098-7.757,0.104-11.632-0.03c-3.074-0.116-4.168-1.277-4.199-4.34c-0.061-7.164-0.079-14.321-0.023-21.479
		c0.019-2.781,1.021-3.863,3.747-3.937c4.175-0.116,8.354-0.116,12.529,0.019c2.586,0.079,3.57,1.204,3.625,3.826
		C172.002,260.798,171.954,264.527,171.954,268.256z"/>
</g>
</svg>
