<?xml version="1.0" encoding="utf-8"?>
<!-- Generator: Adobe Illustrator 16.0.0, SVG Export Plug-In . SVG Version: 6.00 Build 0)  -->
<!DOCTYPE svg PUBLIC "-//W3C//DTD SVG 1.1//EN" "http://www.w3.org/Graphics/SVG/1.1/DTD/svg11.dtd">
<svg version="1.1" id="Layer_1" xmlns="http://www.w3.org/2000/svg" xmlns:xlink="http://www.w3.org/1999/xlink" x="0px" y="0px"
	 width="512px" height="512px" viewBox="0 0 512 512" enable-background="new 0 0 512 512" xml:space="preserve">
<g>
	<g>
		
			<linearGradient id="SVGID_1_" gradientUnits="userSpaceOnUse" x1="79.2913" y1="399.5388" x2="395.3644" y2="83.4656" gradientTransform="matrix(1 0 0 -1 24.9448 503.3589)">
			<stop  offset="0" style="stop-color:#FF00FF"/>
			<stop  offset="1" style="stop-color:#FF006F"/>
		</linearGradient>
		<path fill="url(#SVGID_1_)" d="M484.872,259.455c0,124.262-100.732,225-224.999,225c-124.268,0-225-100.738-225-225
			c0-124.267,100.732-225,225-225C384.14,34.455,484.872,135.188,484.872,259.455z"/>
		
			<linearGradient id="SVGID_2_" gradientUnits="userSpaceOnUse" x1="128.9812" y1="427.4099" x2="340.8744" y2="60.3999" gradientTransform="matrix(1 0 0 -1 24.9448 503.3589)">
			<stop  offset="0" style="stop-color:#FF006F"/>
			<stop  offset="0.6601" style="stop-color:#FF007F"/>
			<stop  offset="1" style="stop-color:#FF00FF"/>
		</linearGradient>
		<circle fill="url(#SVGID_2_)" cx="259.873" cy="259.455" r="211.858"/>
	</g>
</g>
<g opacity="0.4">
	<path d="M357.44,228.336c-12.054-10.495-23.771-20.709-35.893-31.259c5.99-2.372,12.256-3.759,15.739-9.933
		c2.012,1.553,3.925,2.873,5.653,4.395c10.416,9.107,20.776,18.282,31.181,27.402c4.198,3.686,5.91,8.289,5.903,13.833
		c-0.061,45.618-0.029,91.235-0.029,136.846c-0.007,12.018-8.453,20.515-20.386,20.515c-69.713,0.006-139.419,0.006-209.126,0
		c-11.602,0-20.141-8.527-20.141-20.11c0-46.021,0.043-92.048-0.055-138.075c-0.013-6.95,2.916-12.09,8.117-16.302
		c10.802-8.741,21.571-17.524,32.359-26.284c2.054-1.656,4.132-3.289,6.18-4.92c-0.3,4.242-0.672,8.392-0.837,12.549
		c-0.061,1.706,0.049,3.539,0.605,5.122c1.577,4.414-0.96,6.742-3.974,9.157c-6.602,5.281-13.067,10.732-20.061,16.51
		c4.425,3.393,8.569,6.638,12.787,9.792c21.785,16.29,43.582,32.567,65.385,48.833c7.084,5.287,14.248,10.458,21.259,15.843
		c2.177,1.683,3.918,1.657,6.033,0.08c10.201-7.622,20.458-15.188,30.686-22.787c22.077-16.406,44.161-32.817,66.229-49.235
		C355.79,229.754,356.469,229.144,357.44,228.336z M150.344,243.392c0,42.592,0,84.7,0,126.821c70.006,0,139.786,0,209.578,0
		c0-42.041,0-83.932,0-126.352c-4.878,3.704-9.311,7.09-13.767,10.446c-29.01,21.809-58.03,43.611-87.047,65.422
		c-3.307,2.493-4.719,2.42-8.087-0.153c-11.498-8.813-23.001-17.622-34.554-26.363c-16.491-12.486-33.038-24.914-49.56-37.364
		C161.499,251.771,156.077,247.713,150.344,243.392z"/>
	<path d="M273.607,191.387c-0.646-0.691-1.771-1.511-2.414-2.61c-6.956-11.846-13.839-23.734-20.746-35.611
		c-2.011-3.459-3.967-6.95-6.058-10.354c-0.966-1.56-0.905-2.604,0.446-3.997c8.734-9.017,17.323-18.167,26.063-27.17
		c2.012-2.079,2.438-3.938,1.045-6.535c-2.15-4.022-1.516-5.697,2.5-7.935c3.729-2.065,5.887-1.57,8.18,2.28
		c5.128,8.637,10.141,17.341,15.194,26.016c9.799,16.827,19.634,33.637,29.376,50.494c2.689,4.651,1.677,7.286-3.227,9.463
		c-2.52,1.125-4.652,0.788-6.155-1.577c-1.18-1.853-2.586-2.273-4.693-1.754c-12.013,2.958-24.035,5.813-36.064,8.686
		C276.156,190.995,275.24,191.105,273.607,191.387z"/>
	<path d="M237.019,145.262c9.694,16.619,19.188,32.885,28.924,49.565c-3.423,2.061-6.687,4.083-9.994,6.016
		c-9.907,5.801-19.877,11.484-29.736,17.371c-5.104,3.038-9.872,3.644-14.684-0.52c-0.715-0.623-2.156-0.807-3.159-0.623
		c-8.393,1.583-14.077-2.562-18.302-9.01c-4.65-7.091-5.837-14.578-0.562-22.091c1.137-1.626,1.541-3.308,0.923-5.429
		c-1.313-4.528,0.453-8.031,4.419-10.385C208.767,161.912,222.709,153.703,237.019,145.262z M213.748,201.717
		c1.399,1.98,2.812,3.644,3.819,5.514c1.106,2.072,2.226,2.176,4.133,1.033c6.045-3.655,12.188-7.146,18.281-10.716
		c3.674-2.15,7.329-4.34,11.119-6.589c-6.088-10.403-11.956-20.453-17.982-30.746c-10.776,6.29-21.266,12.415-31.828,18.582
		c0.989,1.779,1.791,3.203,2.572,4.634c0.813,1.497,1.614,2.994,2.458,4.554c-2.469,1.546-4.762,2.891-6.949,4.389
		c-2.109,1.438-2.966,3.301-1.511,5.765c1.204,2.022,2.292,4.106,3.496,6.131c1.253,2.103,2.983,2.677,5.202,1.437
		C208.871,204.406,211.193,203.129,213.748,201.717z"/>
	<path d="M246.823,212.872c1.205,4.254,3.051,7.928,3.105,11.62c0.085,6.277,2.628,10.923,6.882,15.116
		c2.629,2.585,4.964,5.464,7.665,8.478c-3.948,2.312-7.731,4.677-11.687,6.705c-0.716,0.367-2.5-0.354-3.197-1.111
		c-5.397-5.917-10.654-11.969-15.947-17.983c-2.849-3.227-5.69-6.473-8.79-9.994c3.545-2.097,7.019-4.157,10.508-6.192
		C238.883,217.45,242.422,215.415,246.823,212.872z"/>
	<path d="M328.675,140.097c8.723,0.667,16.187,1.148,23.631,1.827c3.411,0.313,5.122,2.434,4.676,5.227
		c-0.402,2.513-2.773,3.802-5.91,3.497c-6.319-0.605-12.652-1.076-18.979-1.626c-1.21-0.104-2.433-0.264-3.625-0.521
		c-2.39-0.531-3.49-2.268-3.221-4.517C325.558,141.417,327.373,140.146,328.675,140.097z"/>
	<path d="M321.859,90.079c-0.354,1.167-0.672,2.354-1.051,3.502c-2.134,6.389-4.192,12.787-6.449,19.126
		c-1.18,3.325-3.232,4.358-5.844,3.398c-2.315-0.844-3.129-2.965-2.103-6.174c2.273-7.078,4.614-14.139,7.012-21.174
		c0.733-2.151,2.384-3.759,4.651-2.939c1.645,0.586,2.872,2.315,4.284,3.539C322.189,89.596,322.024,89.84,321.859,90.079z"/>
	<path d="M324.506,127.799c-0.782-0.795-2.646-1.821-2.83-3.087c-0.226-1.51,0.52-4.07,1.676-4.719
		c7.022-3.955,14.254-7.537,21.474-11.144c1.889-0.941,3.625-0.33,4.798,1.442c1.174,1.754,1.553,3.539-0.317,5.146
		c-0.312,0.269-0.557,0.636-0.904,0.825c-7.061,3.697-14.126,7.396-21.217,11.058C326.664,127.591,325.985,127.548,324.506,127.799z
		"/>
	<path d="M316.279,145.598c-4.229-7.244-8.282-14.193-12.354-21.181c5.049-1.681,10.109,0.354,13.509,5.287
		C320.411,134.04,320.051,140.824,316.279,145.598z"/>
	<path d="M293.253,305.61c1.718,0.819,3.483,1.259,4.719,2.316c4.664,4.016,9.182,8.209,13.723,12.378
		c10.215,9.383,20.436,18.759,30.594,28.203c1.564,1.447,2.988,3.116,4.175,4.884c2.305,3.404,1.822,5.801-1.375,8.435
		c-2.922,2.409-5.923,2.323-8.79-0.244c-3.753-3.354-7.53-6.675-11.224-10.092c-11.852-10.946-23.722-21.889-35.464-32.938
		c-3.979-3.754-4.047-7.788-0.459-10.832C290.24,306.79,291.75,306.362,293.253,305.61z"/>
	<path d="M160.662,356.075c0.897-1.607,1.467-3.575,2.75-4.779c8.912-8.339,17.988-16.517,26.992-24.763
		c5.825-5.336,11.614-10.721,17.451-16.045c1.352-1.234,2.764-2.444,4.279-3.447c3.136-2.055,5.678-1.468,8.331,1.748
		c1.938,2.348,1.975,6.246-0.208,8.387c-4.976,4.891-10.043,9.701-15.165,14.443c-6.327,5.855-12.739,11.613-19.12,17.408
		c-4.407,4.004-8.741,8.093-13.264,11.949c-2.408,2.061-5.349,3.038-8.459,1.559C161.731,361.344,161.108,359.01,160.662,356.075z"
		/>
</g>
<g>
	<path fill="#FFFFFF" d="M367.44,218.336c-12.054-10.495-23.771-20.709-35.893-31.259c5.99-2.372,12.256-3.759,15.739-9.933
		c2.012,1.553,3.925,2.873,5.653,4.395c10.416,9.107,20.776,18.282,31.181,27.402c4.198,3.686,5.91,8.289,5.903,13.833
		c-0.061,45.618-0.029,91.235-0.029,136.846c-0.007,12.018-8.453,20.515-20.386,20.515c-69.713,0.006-139.419,0.006-209.126,0
		c-11.602,0-20.141-8.527-20.141-20.11c0-46.021,0.043-92.048-0.055-138.075c-0.013-6.95,2.916-12.09,8.117-16.302
		c10.802-8.741,21.571-17.524,32.359-26.284c2.054-1.656,4.132-3.289,6.18-4.92c-0.3,4.242-0.672,8.392-0.837,12.549
		c-0.061,1.706,0.049,3.539,0.605,5.122c1.577,4.414-0.96,6.742-3.974,9.157c-6.602,5.281-13.067,10.732-20.061,16.51
		c4.425,3.393,8.569,6.638,12.787,9.792c21.785,16.29,43.582,32.567,65.385,48.833c7.084,5.287,14.248,10.458,21.259,15.843
		c2.177,1.683,3.918,1.657,6.033,0.08c10.201-7.622,20.458-15.188,30.686-22.787c22.077-16.406,44.161-32.817,66.229-49.235
		C365.79,219.754,366.469,219.144,367.44,218.336z M160.344,233.392c0,42.592,0,84.7,0,126.821c70.006,0,139.786,0,209.578,0
		c0-42.041,0-83.932,0-126.352c-4.878,3.704-9.311,7.09-13.767,10.446c-29.01,21.809-58.03,43.611-87.047,65.422
		c-3.307,2.493-4.719,2.42-8.087-0.153c-11.498-8.813-23.001-17.622-34.554-26.363c-16.491-12.486-33.038-24.914-49.56-37.364
		C171.499,241.771,166.077,237.713,160.344,233.392z"/>
	<path fill="#FFFFFF" d="M283.607,181.387c-0.646-0.691-1.771-1.511-2.414-2.61c-6.956-11.846-13.839-23.734-20.746-35.611
		c-2.011-3.459-3.967-6.95-6.058-10.354c-0.966-1.56-0.905-2.604,0.446-3.997c8.734-9.017,17.323-18.167,26.063-27.17
		c2.012-2.079,2.438-3.938,1.045-6.535c-2.15-4.022-1.516-5.697,2.5-7.935c3.729-2.065,5.887-1.57,8.18,2.28
		c5.128,8.637,10.141,17.341,15.194,26.016c9.799,16.827,19.634,33.637,29.376,50.494c2.689,4.651,1.677,7.286-3.227,9.463
		c-2.52,1.125-4.652,0.788-6.155-1.577c-1.18-1.853-2.586-2.273-4.693-1.754c-12.013,2.958-24.035,5.813-36.064,8.686
		C286.156,180.995,285.24,181.105,283.607,181.387z"/>
	<path fill="#FFFFFF" d="M247.019,135.262c9.694,16.619,19.188,32.885,28.924,49.565c-3.423,2.061-6.687,4.083-9.994,6.016
		c-9.907,5.801-19.877,11.484-29.736,17.371c-5.104,3.038-9.872,3.644-14.684-0.52c-0.715-0.623-2.156-0.807-3.159-0.623
		c-8.393,1.583-14.077-2.562-18.302-9.01c-4.65-7.091-5.837-14.578-0.562-22.091c1.137-1.626,1.541-3.308,0.923-5.429
		c-1.313-4.528,0.453-8.031,4.419-10.385C218.767,151.912,232.709,143.703,247.019,135.262z M223.748,191.717
		c1.399,1.98,2.812,3.644,3.819,5.514c1.106,2.072,2.226,2.176,4.133,1.033c6.045-3.655,12.188-7.146,18.281-10.716
		c3.674-2.15,7.329-4.34,11.119-6.589c-6.088-10.403-11.956-20.453-17.982-30.746c-10.776,6.29-21.266,12.415-31.828,18.582
		c0.989,1.779,1.791,3.203,2.572,4.634c0.813,1.497,1.614,2.994,2.458,4.554c-2.469,1.546-4.762,2.891-6.949,4.389
		c-2.109,1.438-2.966,3.301-1.511,5.765c1.204,2.022,2.292,4.106,3.496,6.131c1.253,2.103,2.983,2.677,5.202,1.437
		C218.871,194.406,221.193,193.129,223.748,191.717z"/>
	<path fill="#FFFFFF" d="M256.823,202.872c1.205,4.254,3.051,7.928,3.105,11.62c0.085,6.277,2.628,10.923,6.882,15.116
		c2.629,2.585,4.964,5.464,7.665,8.478c-3.948,2.312-7.731,4.677-11.687,6.705c-0.716,0.367-2.5-0.354-3.197-1.111
		c-5.397-5.917-10.654-11.969-15.947-17.983c-2.849-3.227-5.69-6.473-8.79-9.994c3.545-2.097,7.019-4.157,10.508-6.192
		C248.883,207.45,252.422,205.415,256.823,202.872z"/>
	<path fill="#FFFFFF" d="M338.675,130.097c8.723,0.667,16.187,1.148,23.631,1.827c3.411,0.313,5.122,2.434,4.676,5.227
		c-0.402,2.513-2.773,3.802-5.91,3.497c-6.319-0.605-12.652-1.076-18.979-1.626c-1.21-0.104-2.433-0.264-3.625-0.521
		c-2.39-0.531-3.49-2.268-3.221-4.517C335.558,131.417,337.373,130.146,338.675,130.097z"/>
	<path fill="#FFFFFF" d="M331.859,80.079c-0.354,1.167-0.672,2.354-1.051,3.502c-2.134,6.389-4.192,12.787-6.449,19.126
		c-1.18,3.325-3.232,4.358-5.844,3.398c-2.315-0.844-3.129-2.965-2.103-6.174c2.273-7.078,4.614-14.139,7.012-21.174
		c0.733-2.151,2.384-3.759,4.651-2.939c1.645,0.586,2.872,2.315,4.284,3.539C332.189,79.596,332.024,79.84,331.859,80.079z"/>
	<path fill="#FFFFFF" d="M334.506,117.799c-0.782-0.795-2.646-1.821-2.83-3.087c-0.226-1.51,0.52-4.07,1.676-4.719
		c7.022-3.955,14.254-7.537,21.474-11.144c1.889-0.941,3.625-0.33,4.798,1.442c1.174,1.754,1.553,3.539-0.317,5.146
		c-0.312,0.269-0.557,0.636-0.904,0.825c-7.061,3.697-14.126,7.396-21.217,11.058C336.664,117.591,335.985,117.548,334.506,117.799z
		"/>
	<path fill="#FFFFFF" d="M326.279,135.598c-4.229-7.244-8.282-14.193-12.354-21.181c5.049-1.681,10.109,0.354,13.509,5.287
		C330.411,124.04,330.051,130.824,326.279,135.598z"/>
	<path fill="#FFFFFF" d="M303.253,295.61c1.718,0.819,3.483,1.259,4.719,2.316c4.664,4.016,9.182,8.209,13.723,12.378
		c10.215,9.383,20.436,18.759,30.594,28.203c1.564,1.447,2.988,3.116,4.175,4.884c2.305,3.404,1.822,5.801-1.375,8.435
		c-2.922,2.409-5.923,2.323-8.79-0.244c-3.753-3.354-7.53-6.675-11.224-10.092c-11.852-10.946-23.722-21.889-35.464-32.938
		c-3.979-3.754-4.047-7.788-0.459-10.832C300.24,296.79,301.75,296.362,303.253,295.61z"/>
	<path fill="#FFFFFF" d="M170.662,346.075c0.897-1.607,1.467-3.575,2.75-4.779c8.912-8.339,17.988-16.517,26.992-24.763
		c5.825-5.336,11.614-10.721,17.451-16.045c1.352-1.234,2.764-2.444,4.279-3.447c3.136-2.055,5.678-1.468,8.331,1.748
		c1.938,2.348,1.975,6.246-0.208,8.387c-4.976,4.891-10.043,9.701-15.165,14.443c-6.327,5.855-12.739,11.613-19.12,17.408
		c-4.407,4.004-8.741,8.093-13.264,11.949c-2.408,2.061-5.349,3.038-8.459,1.559C171.731,351.344,171.108,349.01,170.662,346.075z"
		/>
</g>
</svg>
