<?xml version="1.0" encoding="utf-8"?>
<!-- Generator: Adobe Illustrator 16.0.0, SVG Export Plug-In . SVG Version: 6.00 Build 0)  -->
<!DOCTYPE svg PUBLIC "-//W3C//DTD SVG 1.1//EN" "http://www.w3.org/Graphics/SVG/1.1/DTD/svg11.dtd">
<svg version="1.1" id="Layer_1" xmlns="http://www.w3.org/2000/svg" xmlns:xlink="http://www.w3.org/1999/xlink" x="0px" y="0px"
	 width="512px" height="512px" viewBox="0 0 512 512" enable-background="new 0 0 512 512" xml:space="preserve">
<linearGradient id="SVGID_1_" gradientUnits="userSpaceOnUse" x1="74.2932" y1="404.0818" x2="390.3666" y2="88.0083" gradientTransform="matrix(1 0 0 -1 24.9448 503.3589)">
	<stop  offset="0" style="stop-color:#E20001"/>
	<stop  offset="1" style="stop-color:#8C0000"/>
</linearGradient>
<path fill="url(#SVGID_1_)" d="M479.872,254.914c0,124.262-100.732,225-224.999,225c-124.268,0-225-100.738-225-225
	c0-124.267,100.732-225,225-225C379.14,29.914,479.872,130.647,479.872,254.914z"/>
<linearGradient id="SVGID_2_" gradientUnits="userSpaceOnUse" x1="123.9807" y1="431.949" x2="335.876" y2="64.9356" gradientTransform="matrix(1 0 0 -1 24.9448 503.3589)">
	<stop  offset="0" style="stop-color:#8C0000"/>
	<stop  offset="1" style="stop-color:#E20001"/>
</linearGradient>
<path fill="url(#SVGID_2_)" d="M466.731,254.914c0,117.012-94.854,211.864-211.857,211.864S43.015,371.926,43.015,254.914
	c0-117.005,94.854-211.857,211.858-211.857S466.731,137.909,466.731,254.914z"/>
<g opacity="0.3">
	<g>
		<path d="M346.743,218.129c-5.323,0-10.135,0-15.231,0c0-7.285,0-14.406,0-21.711c-61.938,0-123.607,0-185.575,0
			c0,48.803,0,97.593,0,146.627c-5.165,0-10.018,0-15.336,0c0-1.139,0-2.243,0-3.362c0-56.589,0.03-113.166-0.037-169.755
			c0-2.151,0.636-3.179,2.671-4.034c30.776-13.007,61.511-26.082,92.226-39.254c3.386-1.468,6.803-1.718,10.385-1.943
			c7.616-0.483,14.536,1.204,21.534,4.248c28.771,12.549,57.688,24.719,86.606,36.932c2.135,0.898,2.801,1.926,2.781,4.229
			c-0.108,14.413-0.042,28.827-0.023,43.232C346.743,214.865,346.743,216.381,346.743,218.129z M145.961,193.71
			c61.975,0,123.611,0,185.3,0c0-3.648,0-7.06,0-10.477c-61.901,0-123.545,0-185.3,0
			C145.961,186.797,145.961,190.146,145.961,193.71z"/>
		<path d="M410.942,238.569c-19.089,12.09-37.816,23.948-57.078,36.155c0-7.391,0-14.268,0-21.375c-23.937,0-47.492,0-71.253,0
			c0-9.878,0-19.505,0-29.499c23.606,0,47.231,0,71.112,0c0-7.17,0-13.991,0-21.511C372.996,214.554,391.774,226.43,410.942,238.569
			z"/>
		<path d="M157.66,287.243c0-17.121,0-34.083,0-51.388c5.354,0,10.544,0,15.745,0c13.899,0,27.824,0.066,41.748-0.037
			c2.616-0.024,3.454,0.642,3.436,3.405c-0.153,14.688-0.067,29.37-0.067,44.063c0,1.247,0,2.494,0,3.955
			C198.204,287.243,178.076,287.243,157.66,287.243z"/>
		<path d="M157.66,231.986c0-10.08,0-20.055,0-30.232c3.147,0,6.21,0,9.254,0c8.179,0,16.375,0.043,24.542-0.019
			c1.553-0.024,2.042,0.379,2.036,1.999c-0.086,8.637-0.043,17.268-0.019,25.923c0,0.722,0,1.467,0,2.329
			C181.505,231.986,169.653,231.986,157.66,231.986z"/>
		<path d="M225.735,285.983c0-10.079,0-20.062,0-30.232c3.173,0,6.217,0,9.268,0c8.185,0,16.369,0.043,24.56-0.018
			c1.546-0.006,2.029,0.379,2.005,1.992c-0.066,8.648-0.023,17.279-0.019,25.936c0,0.729,0,1.461,0,2.322
			C249.598,285.983,237.758,285.983,225.735,285.983z"/>
		<path d="M157.654,341.798c0-17.158,0-34.077,0-51.346c6.498,0,12.86,0,19.219,0c12.866,0.02,25.732,0.03,38.6,0.02
			c1.785,0,3.117-0.043,3.093,2.523c-0.115,15.967-0.049,31.926-0.061,47.892c0,0.27-0.11,0.538-0.185,0.911
			C198.07,341.798,177.832,341.798,157.654,341.798z"/>
		<path d="M286.591,314.438c0,8.808,0.006,17.628,0.006,26.448c0,0.27-0.098,0.538-0.177,0.911c-20.265,0-40.478,0-60.686,0
			c0-17.158,0-34.077,0-51.346c6.528,0,12.873,0,19.219,0c5.55,0.02,11.088,0.02,16.613,0.02c2.463,0,8.147,0,10.605,0l-10.605,7.39
			L286.591,314.438z"/>
		<path d="M346.529,365.642c-4.993,0-9.778,0-14.821,0c0-8.258,0-38.899,0-47.274c4.841,0,9.719,0,14.821,0
			C346.529,326.491,346.529,357.128,346.529,365.642z"/>
	</g>
	<path d="M327.587,261.662c0,7.457,0,14.199,0,21.345c23.826,0,47.451,0,71.174,0c0,10.014,0,19.627,0,29.537
		c-23.723,0-47.268,0-71.095,0c0,7.09,0,13.898,0,21.51c-19.321-12.231-38.068-24.108-57.206-36.224
		C289.573,285.733,308.284,273.875,327.587,261.662z"/>
</g>
<g>
	<g>
		<path fill="#FFFFFF" d="M356.743,208.129c-5.323,0-10.135,0-15.231,0c0-7.285,0-14.406,0-21.711c-61.938,0-123.607,0-185.575,0
			c0,48.803,0,97.593,0,146.627c-5.165,0-10.018,0-15.336,0c0-1.139,0-2.243,0-3.362c0-56.589,0.03-113.166-0.037-169.755
			c0-2.151,0.636-3.179,2.671-4.034c30.776-13.007,61.511-26.082,92.226-39.254c3.386-1.468,6.803-1.718,10.385-1.943
			c7.616-0.483,14.536,1.204,21.534,4.248c28.771,12.549,57.688,24.719,86.606,36.932c2.135,0.898,2.801,1.926,2.781,4.229
			c-0.108,14.413-0.042,28.827-0.023,43.232C356.743,204.865,356.743,206.381,356.743,208.129z M155.961,183.71
			c61.975,0,123.611,0,185.3,0c0-3.648,0-7.06,0-10.477c-61.901,0-123.545,0-185.3,0
			C155.961,176.797,155.961,180.146,155.961,183.71z"/>
		<path fill="#FFFFFF" d="M420.942,228.569c-19.089,12.09-37.816,23.948-57.078,36.155c0-7.391,0-14.268,0-21.375
			c-23.937,0-47.492,0-71.253,0c0-9.878,0-19.505,0-29.499c23.606,0,47.231,0,71.112,0c0-7.17,0-13.991,0-21.511
			C382.996,204.554,401.774,216.43,420.942,228.569z"/>
		<path fill="#FFFFFF" d="M167.66,277.243c0-17.121,0-34.083,0-51.388c5.354,0,10.544,0,15.745,0
			c13.899,0,27.824,0.066,41.748-0.037c2.616-0.024,3.454,0.642,3.436,3.405c-0.153,14.688-0.067,29.37-0.067,44.063
			c0,1.247,0,2.494,0,3.955C208.204,277.243,188.076,277.243,167.66,277.243z"/>
		<path fill="#FFFFFF" d="M167.66,221.986c0-10.08,0-20.055,0-30.232c3.147,0,6.21,0,9.254,0c8.179,0,16.375,0.043,24.542-0.019
			c1.553-0.024,2.042,0.379,2.036,1.999c-0.086,8.637-0.043,17.268-0.019,25.923c0,0.722,0,1.467,0,2.329
			C191.505,221.986,179.653,221.986,167.66,221.986z"/>
		<path fill="#FFFFFF" d="M235.735,275.983c0-10.079,0-20.062,0-30.232c3.173,0,6.217,0,9.268,0c8.185,0,16.369,0.043,24.56-0.018
			c1.546-0.006,2.029,0.379,2.005,1.992c-0.066,8.648-0.023,17.279-0.019,25.936c0,0.729,0,1.461,0,2.322
			C259.598,275.983,247.758,275.983,235.735,275.983z"/>
		<path fill="#FFFFFF" d="M167.654,331.798c0-17.158,0-34.077,0-51.346c6.498,0,12.86,0,19.219,0c12.866,0.02,25.732,0.03,38.6,0.02
			c1.785,0,3.117-0.043,3.093,2.523c-0.115,15.967-0.049,31.926-0.061,47.892c0,0.27-0.11,0.538-0.185,0.911
			C208.07,331.798,187.832,331.798,167.654,331.798z"/>
		<path fill="#FFFFFF" d="M296.591,304.438c0,8.808,0.006,17.628,0.006,26.448c0,0.27-0.098,0.538-0.177,0.911
			c-20.265,0-40.478,0-60.686,0c0-17.158,0-34.077,0-51.346c6.528,0,12.873,0,19.219,0c5.55,0.02,11.088,0.02,16.613,0.02
			c2.463,0,8.147,0,10.605,0l-10.605,7.39L296.591,304.438z"/>
		<path fill="#FFFFFF" d="M356.529,355.642c-4.993,0-9.778,0-14.821,0c0-8.258,0-38.899,0-47.274c4.841,0,9.719,0,14.821,0
			C356.529,316.491,356.529,347.128,356.529,355.642z"/>
	</g>
	<path fill="#FFFFFF" d="M337.587,251.662c0,7.457,0,14.199,0,21.345c23.826,0,47.451,0,71.174,0c0,10.014,0,19.627,0,29.537
		c-23.723,0-47.268,0-71.095,0c0,7.09,0,13.898,0,21.51c-19.321-12.231-38.068-24.108-57.206-36.224
		C299.573,275.733,318.284,263.875,337.587,251.662z"/>
</g>
</svg>
