<?xml version="1.0" encoding="utf-8"?>
<!-- Generator: Adobe Illustrator 16.0.0, SVG Export Plug-In . SVG Version: 6.00 Build 0)  -->
<!DOCTYPE svg PUBLIC "-//W3C//DTD SVG 1.1//EN" "http://www.w3.org/Graphics/SVG/1.1/DTD/svg11.dtd">
<svg version="1.1" id="Layer_1" xmlns="http://www.w3.org/2000/svg" xmlns:xlink="http://www.w3.org/1999/xlink" x="0px" y="0px"
	 width="512px" height="512px" viewBox="0 0 512 512" enable-background="new 0 0 512 512" xml:space="preserve">
<g>
	<g>
		
			<linearGradient id="SVGID_1_" gradientUnits="userSpaceOnUse" x1="74.8181" y1="403.4128" x2="390.8907" y2="87.3401" gradientTransform="matrix(1 0 0 -1 24.9448 503.3589)">
			<stop  offset="0" style="stop-color:#FF7601"/>
			<stop  offset="1" style="stop-color:#FF0000"/>
		</linearGradient>
		<path fill="url(#SVGID_1_)" d="M480.399,255.581c0,124.262-100.732,225-225,225c-124.267,0-225-100.738-225-225
			c0-124.264,100.733-225,225-225C379.666,30.581,480.399,131.317,480.399,255.581z"/>
		
			<linearGradient id="SVGID_2_" gradientUnits="userSpaceOnUse" x1="124.5085" y1="431.283" x2="336.4037" y2="64.2698" gradientTransform="matrix(1 0 0 -1 24.9448 503.3589)">
			<stop  offset="0" style="stop-color:#FF0000"/>
			<stop  offset="1" style="stop-color:#FF6301"/>
		</linearGradient>
		<path fill="url(#SVGID_2_)" d="M467.258,255.581c0,117.012-94.854,211.864-211.858,211.864S43.541,372.593,43.541,255.581
			c0-117.005,94.854-211.857,211.857-211.857S467.258,138.576,467.258,255.581z"/>
	</g>
</g>
<g opacity="0.6">
	<path d="M255.595,231.889c4.347,0,8.692-0.085,13.026,0.049c1.1,0.037,2.407,0.477,3.232,1.18
		c5.091,4.328,10.158,8.687,15.067,13.221c13.581,12.563,17.952,31.729,11.276,48.906c-6.619,17.029-23.025,27.958-41.437,28.453
		c-22.463,0.611-38.454-13.295-44.328-28.814c-6.355-16.777-2.115-35.837,10.966-48.086c5.067-4.742,10.373-9.241,15.648-13.753
		c0.77-0.659,1.985-1.069,3.007-1.094c4.511-0.116,9.028-0.055,13.539-0.055v-0.007H255.595z M251.347,298.655
		c0,2.952,0,5.526,0,8.105c2.818,0,5.453,0,8.246,0c0-2.77,0-5.35,0-7.995c0.471-0.079,0.794-0.146,1.118-0.195
		c7.193-1.168,11.883-6.779,11.319-13.539c-0.563-6.736-6.117-11.455-13.446-11.437c-2.52,0.012-5.043,0.085-7.549-0.05
		c-2.323-0.129-3.985-1.896-3.942-4.053c0.042-2.305,1.283-3.991,3.539-4.12c4.303-0.22,8.624-0.061,13.007-0.061
		c0.092,1.49,0.172,2.744,0.245,3.954c2.823,0,5.385,0,7.989,0c0-4.169,0-8.19,0-12.402c-4.163,0-8.124,0-12.366,0
		c0-2.83,0-5.465,0-8.069c-2.922,0-5.556,0-8.337,0c0,2.801,0,5.393,0,7.965c-0.403,0.085-0.648,0.153-0.898,0.195
		c-7.451,1.18-12.054,6.614-11.492,13.582c0.532,6.681,6.016,11.314,13.473,11.369c2.518,0.024,5.037-0.079,7.549,0.067
		c2.285,0.121,3.948,1.949,3.894,4.102c-0.062,2.311-1.319,3.973-3.575,4.089c-4.297,0.232-8.612,0.073-12.935,0.073
		c-0.109-1.54-0.202-2.793-0.287-3.979c-2.848,0-5.416,0-7.988,0c0,4.176,0,8.19,0,12.396
		C243.052,298.655,247.013,298.655,251.347,298.655z"/>
	<path d="M351.114,269.542c5.281,0,10.723,0,16.175,0c-4.182,49.641-47.249,94.621-99.254,99.321c0-5.452,0-10.893,0-16.223
		C314.317,343.515,341.945,315.85,351.114,269.542z"/>
	<path d="M367.612,244.297c-5.801,0-11.24,0-16.484,0c-9.199-46.247-36.736-73.899-83.111-83.11c0-5.153,0-10.593,0-16.431
		c24.64,2.946,45.99,12.745,64.021,29.535C352.343,193.197,364.049,216.577,367.612,244.297z"/>
	<path d="M242.759,352.641c0,5.33,0,10.765,0,16.217c-51.027-4.676-94.786-48.423-99.285-99.315c5.452,0,10.893,0,16.198,0
		C168.792,315.783,196.42,343.339,242.759,352.641z"/>
	<path d="M255.797,209.059c4.248-5.643,8.38-10.979,12.322-16.455c1.112-1.541,2.157-1.877,3.876-1.333
		c2.212,0.709,4.498,1.21,7.054,1.883c-0.245,0.923-0.416,1.729-0.679,2.512c-2.867,8.631-5.802,17.237-8.582,25.898
		c-0.538,1.681-1.363,2.048-2.978,2.03c-7.72-0.074-15.439,0.006-23.16-0.08c-0.832-0.013-2.17-0.521-2.401-1.144
		c-3.215-8.209-6.277-16.479-9.486-25.043c3.172-0.813,6.131-1.663,9.144-2.255c0.605-0.116,1.534,0.611,2.098,1.161
		C247.196,200.379,251.334,204.579,255.797,209.059z"/>
	<path d="M328.438,160.514c-2.286-1.626-4.462-3.179-7.005-4.994c4.383-4.297,9.034-8.143,12.781-12.724
		c4.541-5.544,9.822-8.025,16.864-6.821c0.929,0.155,1.919-0.042,2.859,0.049c3.729,0.366,6.614-0.07,8.985-3.906
		c2.824-4.566,8.888-5.544,14.016-3.457c4.896,1.993,8.068,7.13,7.685,12.451c-0.392,5.416-4.291,9.933-9.694,11.241
		c-5.159,1.247-10.771-1.002-13.35-5.765c-0.996-1.843-2.078-2.53-4.011-2.247c-0.422,0.062-0.868,0.019-1.302,0.024
		c-3.894,0.067-8.222-0.908-11.553,0.498c-3.344,1.406-5.69,5.184-8.473,7.934C333.706,155.294,331.182,157.8,328.438,160.514z"/>
	<path d="M182.239,353.197c2.457,1.768,4.634,3.319,6.993,5.006c-6.455,6.442-12.745,12.764-19.12,19.004
		c-0.508,0.508-1.576,0.58-2.39,0.594c-5.037,0.055-10.073,0.062-15.11,0.019c-1.399-0.019-2.268,0.227-3.037,1.675
		c-2.837,5.336-8.441,7.714-14.065,6.24c-5.458-1.424-9.333-6.405-9.364-12.041s3.766-10.604,9.254-12.103
		c5.581-1.518,11.29,0.86,14.132,6.124c0.74,1.362,1.505,1.821,2.978,1.784c3.82-0.092,7.646,0.079,11.461-0.098
		c1.222-0.062,2.702-0.617,3.57-1.455C172.465,363.179,177.233,358.246,182.239,353.197z"/>
	<path d="M231.041,146.706c4.132-0.715,7.836-1.363,11.729-2.035c0,5.771,0,11.192,0,16.841c-2.731,0.52-5.482,1.045-8.454,1.613
		C233.229,157.678,232.172,152.384,231.041,146.706z"/>
	<path d="M143.132,244.279c0.689-3.9,1.338-7.61,2.054-11.699c5.514,1.082,10.801,2.121,16.363,3.215
		c-0.514,2.879-1.009,5.643-1.51,8.484C154.452,244.279,148.951,244.279,143.132,244.279z"/>
	<path d="M211.903,152.844c3.723-1.383,7.249-2.685,11.045-4.09c1.125,5.648,2.183,10.959,3.289,16.511
		c-2.628,0.978-5.171,1.925-7.928,2.951C216.164,163.075,214.085,158.087,211.903,152.844z"/>
	<path d="M147.227,224.456c1.412-3.819,2.696-7.28,4.083-11.033c5.196,2.151,10.171,4.218,15.361,6.369
		c-0.984,2.696-1.926,5.25-2.91,7.953C158.303,226.663,152.991,225.6,147.227,224.456z"/>
	<path d="M210.735,171.761c-2.469,1.43-4.693,2.726-7.188,4.169c-3.056-4.561-6.059-9.054-9.218-13.771
		c3.318-1.938,6.504-3.802,9.987-5.838C206.487,161.541,208.56,166.528,210.735,171.761z"/>
	<path d="M160.625,195.825c4.701,3.142,9.144,6.113,13.771,9.2c-1.394,2.433-2.714,4.719-4.138,7.2
		c-5.092-2.097-10.085-4.156-15.452-6.369C156.799,202.427,158.676,199.188,160.625,195.825z"/>
	<path d="M179.159,173.931c2.529-2.127,5.312-4.456,8.324-6.986c3.143,4.688,6.155,9.181,9.248,13.79
		c-2.114,1.797-4.083,3.459-5.843,4.957C187.019,181.822,183.199,177.989,179.159,173.931z"/>
	<path d="M184.256,192.274c-1.467,1.742-3.117,3.722-4.982,5.965c-4.517-3.007-9.016-6.002-13.851-9.217
		c2.494-2.983,4.854-5.801,7.072-8.448C176.451,184.511,180.302,188.338,184.256,192.274z"/>
</g>
<g>
	<path fill="#FFFFFF" d="M265.595,221.889c4.347,0,8.692-0.085,13.026,0.049c1.1,0.037,2.407,0.477,3.232,1.18
		c5.091,4.328,10.158,8.687,15.067,13.221c13.581,12.563,17.952,31.729,11.276,48.906c-6.619,17.029-23.025,27.958-41.437,28.453
		c-22.463,0.611-38.454-13.295-44.328-28.814c-6.355-16.777-2.115-35.837,10.966-48.086c5.067-4.742,10.373-9.241,15.648-13.753
		c0.77-0.659,1.985-1.069,3.007-1.094c4.511-0.116,9.028-0.055,13.539-0.055v-0.007H265.595z M261.347,288.655
		c0,2.952,0,5.526,0,8.105c2.818,0,5.453,0,8.246,0c0-2.77,0-5.35,0-7.995c0.471-0.079,0.794-0.146,1.118-0.195
		c7.193-1.168,11.883-6.779,11.319-13.539c-0.563-6.736-6.117-11.455-13.446-11.437c-2.52,0.012-5.043,0.085-7.549-0.05
		c-2.323-0.129-3.985-1.896-3.942-4.053c0.042-2.305,1.283-3.991,3.539-4.12c4.303-0.22,8.624-0.061,13.007-0.061
		c0.092,1.49,0.172,2.744,0.245,3.954c2.823,0,5.385,0,7.989,0c0-4.169,0-8.19,0-12.402c-4.163,0-8.124,0-12.366,0
		c0-2.83,0-5.465,0-8.069c-2.922,0-5.556,0-8.337,0c0,2.801,0,5.393,0,7.965c-0.403,0.085-0.648,0.153-0.898,0.195
		c-7.451,1.18-12.054,6.614-11.492,13.582c0.532,6.681,6.016,11.314,13.473,11.369c2.518,0.024,5.037-0.079,7.549,0.067
		c2.285,0.121,3.948,1.949,3.894,4.102c-0.062,2.311-1.319,3.973-3.575,4.089c-4.297,0.232-8.612,0.073-12.935,0.073
		c-0.109-1.54-0.202-2.793-0.287-3.979c-2.848,0-5.416,0-7.988,0c0,4.176,0,8.19,0,12.396
		C253.052,288.655,257.013,288.655,261.347,288.655z"/>
	<path fill="#FFFFFF" d="M361.114,259.542c5.281,0,10.723,0,16.175,0c-4.182,49.641-47.249,94.621-99.254,99.321
		c0-5.452,0-10.893,0-16.223C324.317,333.515,351.945,305.85,361.114,259.542z"/>
	<path fill="#FFFFFF" d="M377.612,234.297c-5.801,0-11.24,0-16.484,0c-9.199-46.247-36.736-73.899-83.111-83.11
		c0-5.153,0-10.593,0-16.431c24.64,2.946,45.99,12.745,64.021,29.535C362.343,183.197,374.049,206.577,377.612,234.297z"/>
	<path fill="#FFFFFF" d="M252.759,342.641c0,5.33,0,10.765,0,16.217c-51.027-4.676-94.786-48.423-99.285-99.315
		c5.452,0,10.893,0,16.198,0C178.792,305.783,206.42,333.339,252.759,342.641z"/>
	<path fill="#FFFFFF" d="M265.797,199.059c4.248-5.643,8.38-10.979,12.322-16.455c1.112-1.541,2.157-1.877,3.876-1.333
		c2.212,0.709,4.498,1.21,7.054,1.883c-0.245,0.923-0.416,1.729-0.679,2.512c-2.867,8.631-5.802,17.237-8.582,25.898
		c-0.538,1.681-1.363,2.048-2.978,2.03c-7.72-0.074-15.439,0.006-23.16-0.08c-0.832-0.013-2.17-0.521-2.401-1.144
		c-3.215-8.209-6.277-16.479-9.486-25.043c3.172-0.813,6.131-1.663,9.144-2.255c0.605-0.116,1.534,0.611,2.098,1.161
		C257.196,190.379,261.334,194.579,265.797,199.059z"/>
	<path fill="#FFFFFF" d="M338.438,150.514c-2.286-1.626-4.462-3.179-7.005-4.994c4.383-4.297,9.034-8.143,12.781-12.724
		c4.541-5.544,9.822-8.025,16.864-6.821c0.929,0.155,1.919-0.042,2.859,0.049c3.729,0.366,6.614-0.07,8.985-3.906
		c2.824-4.566,8.888-5.544,14.016-3.457c4.896,1.993,8.068,7.13,7.685,12.451c-0.392,5.416-4.291,9.933-9.694,11.241
		c-5.159,1.247-10.771-1.002-13.35-5.765c-0.996-1.843-2.078-2.53-4.011-2.247c-0.422,0.062-0.868,0.019-1.302,0.024
		c-3.894,0.067-8.222-0.908-11.553,0.498c-3.344,1.406-5.69,5.184-8.473,7.934C343.706,145.294,341.182,147.8,338.438,150.514z"/>
	<path fill="#FFFFFF" d="M192.239,343.197c2.457,1.768,4.634,3.319,6.993,5.006c-6.455,6.442-12.745,12.764-19.12,19.004
		c-0.508,0.508-1.576,0.58-2.39,0.594c-5.037,0.055-10.073,0.062-15.11,0.019c-1.399-0.019-2.268,0.227-3.037,1.675
		c-2.837,5.336-8.441,7.714-14.065,6.24c-5.458-1.424-9.333-6.405-9.364-12.041s3.766-10.604,9.254-12.103
		c5.581-1.518,11.29,0.86,14.132,6.124c0.74,1.362,1.505,1.821,2.978,1.784c3.82-0.092,7.646,0.079,11.461-0.098
		c1.222-0.062,2.702-0.617,3.57-1.455C182.465,353.179,187.233,348.246,192.239,343.197z"/>
	<path fill="#FFFFFF" d="M241.041,136.706c4.132-0.715,7.836-1.363,11.729-2.035c0,5.771,0,11.192,0,16.841
		c-2.731,0.52-5.482,1.045-8.454,1.613C243.229,147.678,242.172,142.384,241.041,136.706z"/>
	<path fill="#FFFFFF" d="M153.132,234.279c0.689-3.9,1.338-7.61,2.054-11.699c5.514,1.082,10.801,2.121,16.363,3.215
		c-0.514,2.879-1.009,5.643-1.51,8.484C164.452,234.279,158.951,234.279,153.132,234.279z"/>
	<path fill="#FFFFFF" d="M221.903,142.844c3.723-1.383,7.249-2.685,11.045-4.09c1.125,5.648,2.183,10.959,3.289,16.511
		c-2.628,0.978-5.171,1.925-7.928,2.951C226.164,153.075,224.085,148.087,221.903,142.844z"/>
	<path fill="#FFFFFF" d="M157.227,214.456c1.412-3.819,2.696-7.28,4.083-11.033c5.196,2.151,10.171,4.218,15.361,6.369
		c-0.984,2.696-1.926,5.25-2.91,7.953C168.303,216.663,162.991,215.6,157.227,214.456z"/>
	<path fill="#FFFFFF" d="M220.735,161.761c-2.469,1.43-4.693,2.726-7.188,4.169c-3.056-4.561-6.059-9.054-9.218-13.771
		c3.318-1.938,6.504-3.802,9.987-5.838C216.487,151.541,218.56,156.528,220.735,161.761z"/>
	<path fill="#FFFFFF" d="M170.625,185.825c4.701,3.142,9.144,6.113,13.771,9.2c-1.394,2.433-2.714,4.719-4.138,7.2
		c-5.092-2.097-10.085-4.156-15.452-6.369C166.799,192.427,168.676,189.188,170.625,185.825z"/>
	<path fill="#FFFFFF" d="M189.159,163.931c2.529-2.127,5.312-4.456,8.324-6.986c3.143,4.688,6.155,9.181,9.248,13.79
		c-2.114,1.797-4.083,3.459-5.843,4.957C197.019,171.822,193.199,167.989,189.159,163.931z"/>
	<path fill="#FFFFFF" d="M194.256,182.274c-1.467,1.742-3.117,3.722-4.982,5.965c-4.517-3.007-9.016-6.002-13.851-9.217
		c2.494-2.983,4.854-5.801,7.072-8.448C186.451,174.511,190.302,178.338,194.256,182.274z"/>
</g>
</svg>
