<?xml version="1.0" encoding="utf-8"?>
<!-- Generator: Adobe Illustrator 16.0.0, SVG Export Plug-In . SVG Version: 6.00 Build 0)  -->
<!DOCTYPE svg PUBLIC "-//W3C//DTD SVG 1.1//EN" "http://www.w3.org/Graphics/SVG/1.1/DTD/svg11.dtd">
<svg version="1.1" id="Layer_1" xmlns="http://www.w3.org/2000/svg" xmlns:xlink="http://www.w3.org/1999/xlink" x="0px" y="0px"
	 width="512px" height="512px" viewBox="0 0 512 512" enable-background="new 0 0 512 512" xml:space="preserve">
<g>
	<g>
		
			<linearGradient id="SVGID_1_" gradientUnits="userSpaceOnUse" x1="76.2166" y1="402.6658" x2="392.2905" y2="86.5918" gradientTransform="matrix(1 0 0 -1 24.9448 503.3589)">
			<stop  offset="0" style="stop-color:#FFA300"/>
			<stop  offset="1" style="stop-color:#FF6400"/>
		</linearGradient>
		<path fill="url(#SVGID_1_)" d="M481.797,256.33c0,124.262-100.733,225-225,225c-124.268,0-225-100.738-225-225
			c0-124.267,100.732-225,225-225C381.064,31.33,481.797,132.063,481.797,256.33z"/>
		
			<linearGradient id="SVGID_2_" gradientUnits="userSpaceOnUse" x1="125.9055" y1="430.5339" x2="337.7985" y2="63.5246" gradientTransform="matrix(1 0 0 -1 24.9448 503.3589)">
			<stop  offset="0" style="stop-color:#FF6400"/>
			<stop  offset="1" style="stop-color:#FFA300"/>
		</linearGradient>
		<circle fill="url(#SVGID_2_)" cx="256.797" cy="256.33" r="211.858"/>
	</g>
</g>
<g opacity="0.5">
	<path d="M176.387,149.02c1.357,14.505,5.752,20.861,14.499,21.284c8.447,0.409,12.634-5.392,15.354-21.517
		c26.198,0,52.451,0,79.133,0c0.194,6.742,0.237,13.724,6.246,18.124c2.401,1.754,5.667,3.118,8.595,3.221
		c8.605,0.313,12.892-6.094,14.772-21.008c18.961-3.563,31.669,6.828,31.682,25.959c0.019,25.782,0.007,51.565,0.007,77.434
		c-6.052,0.092-8.026-2.438-7.806-8.398c0.471-13.325,0.146-26.668,0.146-40.434c-62.229,0-124.077,0-186.412,0
		c-0.122,1.95-0.336,3.74-0.336,5.524c-0.012,38.038-0.012,76.076,0,114.113c0.006,13.625,5.686,19.371,19.218,19.39
		c27.273,0.024,54.547,0.184,81.821-0.146c5.434-0.061,8.344,1.559,9.566,7.237c-1.547,0.135-3.081,0.379-4.609,0.379
		c-29.505,0.019-59.003,0.043-88.508,0c-15.257-0.02-24.92-9.181-24.969-24.419c-0.147-51.033-0.147-102.055,0.042-153.075
		C144.89,155.566,157.341,146.385,176.387,149.02z"/>
	<path d="M320.752,373.629c-32.359,0.099-58.411-25.759-58.576-58.13c-0.159-32.213,25.898-58.625,58.038-58.819
		c32.48-0.202,58.777,25.917,58.924,58.509C379.278,347.271,353.044,373.53,320.752,373.629z M272.011,314.691
		c-0.189,27.164,21.277,49.084,48.222,49.242c26.992,0.159,48.895-21.503,49.017-48.483c0.122-27.085-21.369-48.766-48.51-48.942
		C294.145,266.342,272.194,288.041,272.011,314.691z"/>
	<path d="M313.398,230.816c0,13.393,0,13.393-13.569,13.393c-14.139,0.006-14.218,0.006-14.113-13.99
		c0.11-15.961-2.237-13.559,13.851-13.687C313.398,216.416,313.398,216.507,313.398,230.816z"/>
	<path d="M214.211,230.156c0-13.649,0-13.747,13.819-13.618c15.532,0.142,13.76-2.481,13.796,13.796
		c0.03,13.875-0.007,13.875-13.674,13.875C214.217,244.209,214.217,244.209,214.211,230.156z"/>
	<path d="M265.898,244.209c-13.74-0.012-13.74-0.012-13.74-13.723c0-13.973,0-14.064,14.053-13.955
		c15.349,0.123,13.472-2.286,13.631,13.459c0,0.184,0,0.373,0,0.557C279.841,244.221,279.841,244.221,265.898,244.209z"/>
	<path d="M205.568,309.496c0,13.918,0,13.918-14.033,13.918c-13.602,0-13.692-0.006-13.582-13.851
		c0.128-15.855-2.335-13.638,13.776-13.747C205.568,295.725,205.568,295.798,205.568,309.496z"/>
	<path d="M243.478,309.594c0.014,13.819,0.014,13.819-13.588,13.819c-14.021,0-14.021,0-14.021-14.021
		c0-13.582,0-13.582,13.423-13.596c0.183,0,0.366,0,0.55,0C243.478,295.792,243.478,295.792,243.478,309.594z"/>
	<path d="M190.024,216.514c13.741,0,13.741,0,13.729,13.74c-0.006,13.955-0.006,13.955-14.089,13.955
		c-13.417,0-13.417,0-13.417-13.459c0-0.188,0-0.373,0-0.556C176.241,216.514,176.241,216.514,190.024,216.514z"/>
	<path d="M204.59,269.937c0,13.984,0,14.053-14.145,13.984c-15.336-0.072-13.228,1.791-13.332-13.232
		c-0.098-14.371-0.023-14.371,14.218-14.377C204.59,256.299,204.59,256.299,204.59,269.937z"/>
	<path d="M229.089,256.312c13.478,0,13.478,0,13.49,13.404c0.012,14.212,0.012,14.212-13.955,14.225
		c-13.516,0.012-13.516,0.012-13.516-13.57C215.11,256.312,215.11,256.312,229.089,256.312z"/>
	<path d="M291.015,145.7c0-3.142-0.092-6.283,0.02-9.425c0.207-5.678,3.478-8.747,9.175-8.771c5.728-0.019,9.089,2.94,9.26,8.674
		c0.196,6.644,0.232,13.313-0.036,19.95c-0.238,5.967-3.992,9.188-9.694,8.955c-5.343-0.22-8.515-3.576-8.703-9.4
		C290.929,152.363,291.015,149.032,291.015,145.7z"/>
	<path d="M181.889,145.927c0-3.332-0.116-6.663,0.03-9.977c0.245-5.379,3.448-8.337,8.912-8.46c5.477-0.128,9.192,2.72,9.406,7.91
		c0.287,7.005,0.307,14.041,0.024,21.051c-0.22,5.63-3.985,8.79-9.444,8.649c-5.402-0.142-8.68-3.441-8.918-9.199
		C181.772,152.583,181.882,149.252,181.889,145.927z"/>
	<path d="M253.117,270.047c-0.007-13.734-0.007-13.734,13.66-13.734c3.325,0,6.676-0.165,9.981,0.092
		c1.235,0.098,2.989,0.929,3.417,1.913c0.452,1.021,0.031,2.977-0.745,3.918c-5.611,6.797-11.247,13.601-17.299,20.007
		c-1.271,1.352-4.346,1.559-6.461,1.283c-1.008-0.135-2.255-2.563-2.434-4.064C252.854,276.367,253.123,273.188,253.117,270.047z"/>
	<path d="M325.312,308.801c8.82,0,16.761-0.007,24.706,0c3.998,0,7.94,0.695,7.886,5.646c-0.062,4.927-3.979,5.532-7.994,5.525
		c-9.646-0.03-19.298-0.079-28.938,0.066c-4.31,0.063-6.95-1.826-7.005-6.031c-0.141-10.381,0-20.766,0.263-31.145
		c0.043-1.901,0.723-4.188,1.938-5.525c1.009-1.101,3.974-1.979,4.805-1.333c1.834,1.418,3.875,3.79,4.047,5.917
		c0.537,6.821,0.263,13.71,0.293,20.568C325.317,304.331,325.312,306.165,325.312,308.801z"/>
</g>
<g>
	<path fill="#FFFFFF" d="M184.387,143.02c1.357,14.505,5.752,20.861,14.499,21.284c8.447,0.409,12.634-5.392,15.354-21.517
		c26.198,0,52.451,0,79.133,0c0.194,6.742,0.237,13.724,6.246,18.124c2.401,1.754,5.667,3.118,8.595,3.221
		c8.605,0.313,12.892-6.094,14.772-21.008c18.961-3.563,31.669,6.828,31.682,25.959c0.019,25.782,0.007,51.565,0.007,77.434
		c-6.052,0.092-8.026-2.438-7.806-8.398c0.471-13.325,0.146-26.668,0.146-40.434c-62.229,0-124.077,0-186.412,0
		c-0.122,1.95-0.336,3.74-0.336,5.524c-0.012,38.038-0.012,76.076,0,114.113c0.006,13.625,5.686,19.371,19.218,19.39
		c27.273,0.024,54.547,0.184,81.821-0.146c5.434-0.061,8.344,1.559,9.566,7.237c-1.547,0.135-3.081,0.379-4.609,0.379
		c-29.505,0.019-59.003,0.043-88.508,0c-15.257-0.02-24.92-9.181-24.969-24.419c-0.147-51.033-0.147-102.055,0.042-153.075
		C152.89,149.566,165.341,140.385,184.387,143.02z"/>
	<path fill="#FFFFFF" d="M328.752,367.629c-32.359,0.099-58.411-25.759-58.576-58.13c-0.159-32.213,25.898-58.625,58.038-58.819
		c32.48-0.202,58.777,25.917,58.924,58.509C387.278,341.271,361.044,367.53,328.752,367.629z M280.011,308.691
		c-0.189,27.164,21.277,49.084,48.222,49.242c26.992,0.159,48.895-21.503,49.017-48.483c0.122-27.085-21.369-48.766-48.51-48.942
		C302.145,260.342,280.194,282.041,280.011,308.691z"/>
	<path fill="#FFFFFF" d="M321.398,224.816c0,13.393,0,13.393-13.569,13.393c-14.139,0.006-14.218,0.006-14.113-13.99
		c0.11-15.961-2.237-13.559,13.851-13.687C321.398,210.416,321.398,210.507,321.398,224.816z"/>
	<path fill="#FFFFFF" d="M222.211,224.156c0-13.649,0-13.747,13.819-13.618c15.532,0.142,13.76-2.481,13.796,13.796
		c0.03,13.875-0.007,13.875-13.674,13.875C222.217,238.209,222.217,238.209,222.211,224.156z"/>
	<path fill="#FFFFFF" d="M273.898,238.209c-13.74-0.012-13.74-0.012-13.74-13.723c0-13.973,0-14.064,14.053-13.955
		c15.349,0.123,13.472-2.286,13.631,13.459c0,0.184,0,0.373,0,0.557C287.841,238.221,287.841,238.221,273.898,238.209z"/>
	<path fill="#FFFFFF" d="M213.568,303.496c0,13.918,0,13.918-14.033,13.918c-13.602,0-13.692-0.006-13.582-13.851
		c0.128-15.855-2.335-13.638,13.776-13.747C213.568,289.725,213.568,289.798,213.568,303.496z"/>
	<path fill="#FFFFFF" d="M251.478,303.594c0.014,13.819,0.014,13.819-13.588,13.819c-14.021,0-14.021,0-14.021-14.021
		c0-13.582,0-13.582,13.423-13.596c0.183,0,0.366,0,0.55,0C251.478,289.792,251.478,289.792,251.478,303.594z"/>
	<path fill="#FFFFFF" d="M198.024,210.514c13.741,0,13.741,0,13.729,13.74c-0.006,13.955-0.006,13.955-14.089,13.955
		c-13.417,0-13.417,0-13.417-13.459c0-0.188,0-0.373,0-0.556C184.241,210.514,184.241,210.514,198.024,210.514z"/>
	<path fill="#FFFFFF" d="M212.59,263.937c0,13.984,0,14.053-14.145,13.984c-15.336-0.072-13.228,1.791-13.332-13.232
		c-0.098-14.371-0.023-14.371,14.218-14.377C212.59,250.299,212.59,250.299,212.59,263.937z"/>
	<path fill="#FFFFFF" d="M237.089,250.312c13.478,0,13.478,0,13.49,13.404c0.012,14.212,0.012,14.212-13.955,14.225
		c-13.516,0.012-13.516,0.012-13.516-13.57C223.11,250.312,223.11,250.312,237.089,250.312z"/>
	<path fill="#FFFFFF" d="M299.015,139.7c0-3.142-0.092-6.283,0.02-9.425c0.207-5.678,3.478-8.747,9.175-8.771
		c5.728-0.019,9.089,2.94,9.26,8.674c0.196,6.644,0.232,13.313-0.036,19.95c-0.238,5.967-3.992,9.188-9.694,8.955
		c-5.343-0.22-8.515-3.576-8.703-9.4C298.929,146.363,299.015,143.032,299.015,139.7z"/>
	<path fill="#FFFFFF" d="M189.889,139.927c0-3.332-0.116-6.663,0.03-9.977c0.245-5.379,3.448-8.337,8.912-8.46
		c5.477-0.128,9.192,2.72,9.406,7.91c0.287,7.005,0.307,14.041,0.024,21.051c-0.22,5.63-3.985,8.79-9.444,8.649
		c-5.402-0.142-8.68-3.441-8.918-9.199C189.772,146.583,189.882,143.252,189.889,139.927z"/>
	<path fill="#FFFFFF" d="M261.117,264.047c-0.007-13.734-0.007-13.734,13.66-13.734c3.325,0,6.676-0.165,9.981,0.092
		c1.235,0.098,2.989,0.929,3.417,1.913c0.452,1.021,0.031,2.977-0.745,3.918c-5.611,6.797-11.247,13.601-17.299,20.007
		c-1.271,1.352-4.346,1.559-6.461,1.283c-1.008-0.135-2.255-2.563-2.434-4.064C260.854,270.367,261.123,267.188,261.117,264.047z"/>
	<path fill="#FFFFFF" d="M333.312,302.801c8.82,0,16.761-0.007,24.706,0c3.998,0,7.94,0.695,7.886,5.646
		c-0.062,4.927-3.979,5.532-7.994,5.525c-9.646-0.03-19.298-0.079-28.938,0.066c-4.31,0.063-6.95-1.826-7.005-6.031
		c-0.141-10.381,0-20.766,0.263-31.145c0.043-1.901,0.723-4.188,1.938-5.525c1.009-1.101,3.974-1.979,4.805-1.333
		c1.834,1.418,3.875,3.79,4.047,5.917c0.537,6.821,0.263,13.71,0.293,20.568C333.317,298.331,333.312,300.165,333.312,302.801z"/>
</g>
</svg>
