<?xml version="1.0" encoding="utf-8"?>
<!-- Generator: Adobe Illustrator 16.0.0, SVG Export Plug-In . SVG Version: 6.00 Build 0)  -->
<!DOCTYPE svg PUBLIC "-//W3C//DTD SVG 1.1//EN" "http://www.w3.org/Graphics/SVG/1.1/DTD/svg11.dtd">
<svg version="1.1" id="Layer_1" xmlns="http://www.w3.org/2000/svg" xmlns:xlink="http://www.w3.org/1999/xlink" x="0px" y="0px"
	 width="512px" height="512px" viewBox="0 0 512 512" enable-background="new 0 0 512 512" xml:space="preserve">
<g>
	<g>
		<linearGradient id="SVGID_1_" gradientUnits="userSpaceOnUse" x1="94.4707" y1="94.5264" x2="422.7046" y2="422.7602">
			<stop  offset="0" style="stop-color:#0091FF"/>
			<stop  offset="0.505" style="stop-color:#0087FF"/>
			<stop  offset="1" style="stop-color:#4501EE"/>
		</linearGradient>
		<path fill="url(#SVGID_1_)" d="M489.75,256.148c0,129.043-104.609,233.66-233.656,233.66S22.438,385.191,22.438,256.148
			S127.047,22.492,256.094,22.492S489.75,127.105,489.75,256.148z"/>
		<linearGradient id="SVGID_2_" gradientUnits="userSpaceOnUse" x1="146.0703" y1="65.5859" x2="366.1196" y2="446.7226">
			<stop  offset="0" style="stop-color:#0023FF"/>
			<stop  offset="1" style="stop-color:#007AFF"/>
		</linearGradient>
		<path fill="url(#SVGID_2_)" d="M476.102,256.148c0,121.516-98.5,220.02-220.008,220.02S36.086,377.664,36.086,256.148
			c0-121.504,98.5-220.008,220.008-220.008S476.102,134.645,476.102,256.148z"/>
	</g>
</g>
<g>
	<g>
		<path fill-rule="evenodd" clip-rule="evenodd" fill="#FFFFFF" d="M356.313,300.754c0.074,1.5,0.148,2.195,0.148,2.883
			c0,22.063,0.016,44.137-0.012,66.207c0,6.219-2.336,11.309-7.73,14.605c-1.637,1.008-3.797,1.688-5.711,1.695
			c-61.664,0.082-123.324,0.012-184.973,0.176c-5.027,0.012-12.543-7.336-12.543-12.441c0.164-84.613,0.113-169.223,0.125-253.84
			c0-6.289,6.617-12.398,13.98-12.996c0.977-0.078,1.965-0.055,2.945-0.055c46.707-0.004,93.41,0.016,140.129-0.051
			c2.883-0.004,5.055,0.828,7.086,2.887c14.598,14.715,29.262,29.375,43.961,43.996c1.906,1.891,2.797,3.949,2.758,6.625
			c-0.102,6.582,0,13.168-0.078,19.758c-0.012,1.18-0.242,2.539-0.863,3.512c-5.355,8.496-10.828,16.93-16.273,25.375
			c-0.141,0.219-0.281,0.434-0.926,0.504c0-13.426,0-26.855,0-40.688c-1.387,0-2.414,0-3.441,0c-10.5,0-21.012,0.008-31.496,0
			c-5.219-0.02-7.82-2.641-7.836-7.922c-0.023-10.852-0.012-21.711-0.012-32.559c0-0.957,0-1.91,0-3.047
			c-44.293,0-88.285,0-132.527,0c-0.039,1.043-0.125,1.992-0.125,2.945c-0.016,79.098,0,158.191-0.063,237.289
			c0,2.668,0.848,3.215,3.336,3.215c56.227-0.066,112.457-0.066,168.695,0c2.578,0,3.504-0.496,3.469-3.34
			c-0.191-11.566-0.129-23.133-0.027-34.695c0.027-1.574,0.496-3.371,1.332-4.691c4.965-7.816,10.094-15.516,15.16-23.246
			C355.129,302.355,355.5,301.871,356.313,300.754z"/>
		<path fill-rule="evenodd" clip-rule="evenodd" fill="#FFFFFF" d="M317.387,289.781c2.578,1.68,4.938,3.23,7.566,4.93
			c0.75-1.027,1.422-1.93,2.031-2.863c12.469-19.055,24.934-38.105,37.398-57.156c2.352-3.598,2.984-3.742,6.539-1.453
			c1.348,0.871,2.68,1.758,4.023,2.629c3.621,2.34,3.773,2.996,1.461,6.535c-9.688,14.82-19.371,29.625-29.059,44.445
			c-9.676,14.82-19.324,29.664-29.098,44.414c-1.117,1.684-2.832,3.227-4.621,4.152c-8.277,4.301-16.684,8.379-25.047,12.523
			c-4.027,1.988-5.535,0.957-5.332-3.598c0.43-9.422,0.813-18.844,1.359-28.262c0.102-1.586,0.621-3.363,1.484-4.691
			c19.512-29.969,39.102-59.879,58.676-89.797c2.082-3.188,3.047-3.395,6.223-1.359c1.422,0.91,2.828,1.844,4.238,2.777
			c3.594,2.379,3.734,3.027,1.422,6.559c-12.555,19.215-25.098,38.43-37.652,57.641
			C318.516,287.945,318.059,288.695,317.387,289.781z"/>
		<path fill-rule="evenodd" clip-rule="evenodd" fill="#FFFFFF" d="M382.043,232.406c-1.18-0.582-2.004-0.906-2.73-1.387
			c-8.273-5.375-16.539-10.766-24.793-16.172c-3.25-2.133-3.414-2.926-1.254-6.227c5.531-8.492,11.07-16.973,16.629-25.457
			c1.879-2.863,2.703-3.043,5.613-1.145c8.273,5.375,16.527,10.777,24.781,16.191c2.969,1.941,3.16,2.895,1.242,5.844
			c-5.586,8.574-11.16,17.137-16.809,25.668C384.039,230.758,382.957,231.52,382.043,232.406z"/>
		<path fill-rule="evenodd" clip-rule="evenodd" fill="#FFFFFF" d="M235.59,185.359c14.941,0,29.887-0.012,44.828,0
			c4.734,0,7.68,2.504,7.719,6.535c0.051,4.02-2.957,6.715-7.59,6.723c-30.152,0.012-60.305,0.012-90.445-0.008
			c-3.922,0-6.664-2.113-7.195-5.395c-0.559-3.344,1.078-6.359,4.215-7.434c1.051-0.367,2.246-0.406,3.387-0.406
			C205.539,185.348,220.57,185.359,235.59,185.359z"/>
		<path fill-rule="evenodd" clip-rule="evenodd" fill="#FFFFFF" d="M215.469,252.023c8.188-0.012,16.375-0.063,24.566,0.031
			c1.637,0.02,3.426,0.258,4.863,0.965c2.625,1.297,3.77,4.539,3.031,7.328c-0.785,2.93-3.426,5.012-6.754,5.109
			c-3.375,0.094-6.754,0.016-10.145,0.016c-13.52,0-27.039,0.016-40.57,0c-4.254-0.012-7.25-2.41-7.594-5.961
			c-0.457-4.402,2.387-7.426,7.25-7.473C198.57,251.965,207.027,252.023,215.469,252.023z"/>
		<path fill-rule="evenodd" clip-rule="evenodd" fill="#FFFFFF" d="M215.289,231.949c-8.453,0-16.906,0.043-25.363-0.012
			c-4.023-0.039-6.742-2.371-7.07-5.816c-0.406-4.18,2.426-7.535,6.727-7.551c17.254-0.07,34.52-0.07,51.785,0
			c3.938,0.016,6.781,3.078,6.742,6.805c-0.027,3.66-2.73,6.48-6.664,6.523c-8.723,0.113-17.445,0.039-26.156,0.039
			C215.289,231.938,215.289,231.941,215.289,231.949z"/>
		<path fill-rule="evenodd" clip-rule="evenodd" fill="#FFFFFF" d="M215.52,165.324c-8.633-0.012-17.254,0.031-25.871-0.023
			c-3.316-0.02-5.867-1.965-6.629-4.793c-0.762-2.766,0.215-5.848,2.629-7.266c1.23-0.727,2.816-1.199,4.25-1.203
			c16.988-0.082,33.977-0.09,50.949-0.039c4.469,0.02,7.336,2.828,7.262,6.777c-0.078,3.93-3.008,6.523-7.516,6.535
			C232.227,165.344,223.875,165.324,215.52,165.324z"/>
	</g>
	<path fill="#FFFFFF" d="M191.781,347.027c-0.129,0-0.242-0.012-0.371-0.012c-0.598-0.035-1.09-0.469-1.219-1.059
		c-0.125-0.59,0.168-1.188,0.688-1.461c4.559-2.355,8.023-4.645,11.246-7.496c-1.281-0.434-2.375-1.117-3.121-1.84
		c-3.668-3.594-3.316-8.023-3.113-10.41c0-0.027,0-0.039,0-0.059c-2.777,1.035-6.27,1.734-11.117,1.027
		c-3.656-0.527-10.02-2.633-11.617-10.766c-0.84-4.23,1.016-7.996,4.938-10.086c3.871-2.066,9.738-2.207,13.418,1.5
		c0.52,0.527,0.52,1.371,0,1.891c-0.531,0.52-1.371,0.52-1.891-0.012c-2.742-2.758-7.34-2.578-10.27-1.023
		c-1.359,0.719-4.445,2.875-3.582,7.219c1.219,6.18,5.777,8.109,9.383,8.633c4.902,0.711,8.164-0.152,10.855-1.301
		c0.051-0.832,0.102-1.695,0.164-2.586c0.215-3.16,0.469-6.664-0.113-9.406c-2.59-1.855-5.105-3.832-7.352-6.094
		c-2.426-1.867-2.77-4.328-1.855-5.715c0.75-1.141,2.453-1.75,4.559-0.543c2.539,1.453,4.738,4.707,6.73,9.941
		c0.102,0.25,0.176,0.52,0.266,0.785c1.969,1.371,4,2.68,5.992,3.973c2.184,1.398,4.406,2.832,6.563,4.348
		c-0.203-1.68,0.039-3.285,0.699-4.5c1.23-2.27,3.645-1.953,6.246-0.926c-0.203-0.992-0.141-2.051,0.242-3.109
		c0-0.031,0.012-0.063,0.023-0.09c0.422-0.965,0.941-1.574,1.461-1.957c-0.762-0.551-1.547-1.102-2.324-1.648
		c-2.602-1.816-5.066-3.531-6.664-5.422c-1.348-1.574-3.008-3.07-4.621-4.508c-2.031-1.813-4.125-3.691-5.688-5.836
		c-0.383-0.523-0.344-1.246,0.113-1.703c0.445-0.469,1.156-0.547,1.691-0.203c2.586,1.703,5.063,3.504,7.461,5.238
		c4.547,3.305,8.836,6.43,13.852,8.941c0.902,0.457,1.777,0.945,2.668,1.438c-0.418-1.797-0.191-3.367,0.672-4.402
		c0.926-1.082,2.426-1.148,3.516-1.199c0.242-0.012,0.457-0.012,0.648-0.039c0.457-0.055,0.902-0.102,1.332-0.148
		c2.465-0.258,4.242-0.445,6.156-1.906c1.348-1.039,2.324-2.43,3.352-3.898c1.031-1.461,2.07-2.957,3.57-4.203
		c3.578-2.992,9.203-5.938,14.168-8.531c1.762-0.918,3.441-1.801,4.875-2.602c0.469-0.266,1.066-0.215,1.484,0.129
		c0.418,0.34,0.598,0.914,0.434,1.434c-0.75,2.449-3.898,5.852-6.195,8.352c-0.547,0.594-1.031,1.117-1.398,1.539
		c-1.789,2.07-3.68,3.473-5.523,4.824c-1.574,1.168-3.07,2.27-4.543,3.793c-2.02,2.07-4,4.301-6.094,6.656
		c-3.684,4.125-7.48,8.402-11.488,11.793c-1.156,0.969-2.273,2-3.367,3.047v0.012c-0.938,0.891-1.852,1.805-2.754,2.703
		c-1.727,1.715-3.516,3.484-5.383,5.141c-1.879,1.652-3.77,3.328-5.648,5.043c-0.168,0.684-0.434,1.355-0.813,2.02
		c-0.18,0.32-0.355,0.633-0.547,0.926c9.242-5.715,18.344-11.059,28.957-17.012c4.633-2.59,9.18-5.5,13.57-8.316
		c6.602-4.227,13.422-8.594,20.684-12.012c5.648-2.652,12.324-5.215,18.23-7.488l2.156-0.824c0.688-0.266,1.461,0.074,1.727,0.766
		c0.266,0.688-0.086,1.469-0.773,1.723l-2.156,0.832c-5.855,2.25-12.48,4.805-18.043,7.406c-7.109,3.34-13.863,7.66-20.375,11.844
		c-4.43,2.84-9.012,5.777-13.711,8.406c-12.098,6.777-22.215,12.758-32.816,19.398c-4.316,2.703-9.332,5.793-14.297,8.238
		c-0.266,0.129-0.508,0.262-0.734,0.379C194.129,346.488,193.148,347.027,191.781,347.027z M198.621,323.504
		c0,0.078,0,0.133,0,0.203c0,0.367-0.035,0.773-0.063,1.258c-0.191,2.223-0.469,5.574,2.309,8.285
		c0.563,0.539,1.93,1.426,3.656,1.527c2.289-2.156,4.609-4.297,6.922-6.41c0.063-0.691-0.051-1.395-0.344-2.094
		c-0.789-1.988-2.934-3.836-5.32-4.57c-2.117-0.648-3.844,0.191-6.234,1.363C199.242,323.215,198.938,323.363,198.621,323.504z
		 M204.297,318.801c0.723,0,1.473,0.109,2.273,0.352c3.172,0.98,5.93,3.387,7.02,6.129c0.113,0.293,0.215,0.598,0.293,0.891
		c0.813-0.723,1.609-1.434,2.41-2.145c-0.012-0.016-0.012-0.016-0.023-0.016c-1.461-0.367-2.781-1.461-3.77-3.059
		c-3.012-2.375-6.324-4.508-9.547-6.582c-1.309-0.844-2.617-1.695-3.938-2.566c0.18,2.473-0.012,5.117-0.18,7.563
		c-0.023,0.379-0.047,0.746-0.074,1.105C200.563,319.594,202.316,318.801,204.297,318.801z M214.555,319.164
		c1.027,0.836,2.02,1.688,2.969,2.59c0.23,0.215,0.371,0.508,0.406,0.824c1.781-1.574,3.492-3.277,5.156-4.926
		c0.281-0.293,0.57-0.578,0.852-0.863c-1.133-0.414-2.387-1.043-3.734-1.715c-2.117-1.066-5.648-2.836-6.207-1.813
		c-0.672,1.23-0.559,3.414,0.254,5.305C214.352,318.781,214.441,318.973,214.555,319.164z M220.648,308.859
		c-0.609,1.797,0.383,2.996,1.32,3.691c1.094,0.813,2.359,1.078,3.137,1c-0.762-3.066-2.465-5.367-3.582-5.559
		C221.219,307.926,220.93,308.227,220.648,308.859z M213.172,297.645c1.406,1.445,3.492,2.895,5.66,4.41
		c3.949,2.75,8.035,5.602,9.309,9.262c0.148,0.457,0.238,0.863,0.289,1.219c0.305-0.266,0.609-0.531,0.93-0.797
		c3.871-3.266,7.602-7.469,11.219-11.523c2.02-2.277,4.117-4.625,6.172-6.746c1.625-1.676,3.273-2.895,4.875-4.074
		c1.805-1.336,3.504-2.578,5.09-4.434c0.383-0.43,0.891-0.984,1.461-1.598c0.852-0.914,1.941-2.109,2.957-3.328
		c-0.113,0.063-0.242,0.129-0.355,0.191c-4.848,2.531-10.332,5.41-13.699,8.215c-1.219,1.027-2.133,2.32-3.094,3.695
		c-1.105,1.559-2.234,3.184-3.914,4.48c-2.512,1.918-4.938,2.164-7.5,2.438c-0.422,0.051-0.84,0.09-1.297,0.137
		c-0.242,0.039-0.531,0.055-0.852,0.066c-0.418,0.012-1.406,0.063-1.57,0.254c-0.359,0.41-0.359,1.434,0,2.551
		c0.367,1.18,0.961,2.059,1.406,2.48c0.254,0.133,0.496,0.273,0.75,0.402c0.586,0.316,0.852,1.004,0.633,1.625
		c-0.215,0.621-0.859,0.996-1.508,0.867c-0.508-0.094-0.965-0.336-1.398-0.676c-0.797-0.445-1.598-0.902-2.387-1.359
		c-1.332-0.773-2.715-1.563-4.098-2.262C219.023,301.516,216.039,299.625,213.172,297.645z M189.176,299.434
		c-0.051,0-0.09,0-0.102,0.016c-0.125,0.176,0.012,1.18,1.32,2.164c0.051,0.043,0.102,0.082,0.141,0.133
		c1.168,1.168,2.41,2.273,3.707,3.313c-1.32-2.703-2.719-4.488-4.152-5.305C189.633,299.484,189.328,299.434,189.176,299.434z"/>
</g>
</svg>
