<?xml version="1.0" encoding="utf-8"?>
<!-- Generator: Adobe Illustrator 16.0.0, SVG Export Plug-In . SVG Version: 6.00 Build 0)  -->
<!DOCTYPE svg PUBLIC "-//W3C//DTD SVG 1.1//EN" "http://www.w3.org/Graphics/SVG/1.1/DTD/svg11.dtd">
<svg version="1.1" id="Layer_1" xmlns="http://www.w3.org/2000/svg" xmlns:xlink="http://www.w3.org/1999/xlink" x="0px" y="0px"
	 width="512px" height="512px" viewBox="0 0 512 512" enable-background="new 0 0 512 512" xml:space="preserve">
<g>
	<g>
		
			<linearGradient id="SVGID_1_" gradientUnits="userSpaceOnUse" x1="74.6272" y1="403.6658" x2="390.701" y2="87.5918" gradientTransform="matrix(1 0 0 -1 24.9448 503.3589)">
			<stop  offset="0" style="stop-color:#0000FF"/>
			<stop  offset="1" style="stop-color:#000083"/>
		</linearGradient>
		<path fill="url(#SVGID_1_)" d="M480.207,255.33c0,124.262-100.732,225-224.999,225c-124.268,0-225-100.738-225-225
			c0-124.267,100.732-225,225-225C379.475,30.33,480.207,131.063,480.207,255.33z"/>
		
			<linearGradient id="SVGID_2_" gradientUnits="userSpaceOnUse" x1="124.3162" y1="431.5349" x2="336.2096" y2="64.5247" gradientTransform="matrix(1 0 0 -1 24.9448 503.3589)">
			<stop  offset="0" style="stop-color:#000083"/>
			<stop  offset="1" style="stop-color:#0000FF"/>
		</linearGradient>
		<circle fill="url(#SVGID_2_)" cx="255.208" cy="255.33" r="211.858"/>
	</g>
</g>
<g opacity="0.3">
	<path d="M327.329,392.476c-35.466-10.923-47.274-54.608-22.127-81.864c0.623-0.673,1.229-1.363,1.948-2.164
		c-1.51-2.017-2.945-3.948-4.511-6.045c-13.69,8.025-28.209,10.465-43.49,6.913c-15.201-3.539-26.999-12.207-35.696-25.33
		c-9.218,4.786-18.265,9.486-27.537,14.297c0.52,1.039,0.966,1.919,1.406,2.8c9.505,19.107,8.453,37.665-4.688,54.449
		c-13.215,16.883-31.223,22.979-51.956,17.478c-20.458-5.436-32.83-19.414-36.473-40.344c-3.631-20.873,6.778-41.534,25.317-51.649
		c18.502-10.093,41.224-7.5,57.14,6.681c1.692,1.504,2.806,1.693,4.805,0.611c8.086-4.364,16.29-8.51,24.444-12.75
		c0.818-0.422,1.601-0.911,2.5-1.426c-6.235-17.512-4.982-34.352,4.224-50.752c-6.217-4.835-12.415-9.656-18.759-14.596
		c-10.813,11.094-23.82,16.681-39.199,15.99c-13.014-0.587-24.193-5.654-33.313-14.988c-17.622-18.032-19.065-46.039-3.473-65.825
		c15.464-19.614,43.081-24.688,64.633-12.022c21.059,12.378,32.477,41.137,17.935,68.099c6.143,4.774,12.335,9.584,18.509,14.383
		c18.404-19.915,44.866-23.324,65.911-14.847c1.51-2.83,3.038-5.691,4.633-8.667c-1.015-0.862-1.962-1.614-2.854-2.42
		c-14.683-13.246-20.63-29.695-16.266-48.967c4.438-19.609,17.084-32.023,36.461-37.519c0.874-0.251,8.716-1.596,11.784-1.596
		c3.319,0,11.113,1.204,11.724,1.363c24.902,6.418,40.185,27.708,38.309,53.393c-2.023,27.652-28.955,49.064-56.376,44.688
		c-4.475-0.715-8.856-2.048-13.447-3.137c-1.351,2.562-2.781,5.275-4.205,7.972c31.021,20.575,34.311,65.764,6.846,91.253
		c1.528,1.938,3.075,3.887,4.598,5.813c0.947-0.514,1.602-0.874,2.262-1.223c27.305-14.37,60.91-0.966,70.729,28.266
		c1.031,3.079,1.655,6.302,2.469,9.456c0,4.32,0,8.637,0,12.957c-0.177,0.515-0.415,1.016-0.521,1.54
		c-3.605,18.777-14.327,31.67-32.028,38.797c-1.711,0.689-7.342,3.601-17.866,3.611C333.521,395.159,328.1,392.72,327.329,392.476z
		 M370.941,150.342c-0.072-23.264-18.937-41.992-42.182-41.895c-23.057,0.104-41.847,19.034-41.767,42.072
		c0.078,23.264,18.93,41.943,42.225,41.846C352.354,192.274,371.021,173.472,370.941,150.342z M153.57,282.965
		c-23.232-0.056-41.943,18.473-42.054,41.645c-0.11,23.325,18.539,42.201,41.779,42.28c23.044,0.079,42.022-18.71,42.133-41.725
		C195.544,301.901,176.815,283.02,153.57,282.965z M167.036,132.977c-23.154,0.019-41.896,18.71-41.926,41.828
		c-0.036,23.252,18.79,42.127,41.986,42.103c23.221-0.024,41.968-18.882,41.925-42.158
		C208.973,151.65,190.184,132.958,167.036,132.977z M341.969,302.732c-23.325-0.08-42.17,18.594-42.213,41.84
		c-0.049,23.1,18.686,41.986,41.742,42.078c23.166,0.092,42.071-18.563,42.17-41.606
		C383.766,321.638,365.214,302.818,341.969,302.732z M272.971,227.042c-12.023,0.153-21.925,5.44-30.697,13.265
		c-1.711,1.527-1.724,3.496-0.36,5.312c1.29,1.706,3.569,1.822,5.514,0.385c2.488-1.833,4.841-3.881,7.451-5.507
		c12.586-7.867,25.109-7.628,37.39,0.69c2.557,1.729,4.829,3.856,7.262,5.752c1.95,1.516,4.107,1.418,5.515-0.318
		c1.441-1.797,1.381-3.753-0.271-5.312C295.855,232.897,285.715,227.133,272.971,227.042z M273.185,245.299
		c-6.84,0.123-13.099,2.83-18.605,7.379c-1.883,1.552-2.078,3.833-0.6,5.482c1.552,1.724,3.398,1.803,5.313,0.599
		c0.795-0.501,1.51-1.111,2.286-1.638c4.32-2.946,9.047-4.548,14.326-3.894c4.305,0.524,7.983,2.529,11.396,5.134
		c2.108,1.608,4.352,1.4,5.752-0.336c1.448-1.803,1.167-4.017-0.893-5.672C286.742,248.001,280.654,245.373,273.185,245.299z
		 M281.772,273.099c-0.036-4.598-3.631-8.16-8.238-8.179c-4.731-0.013-8.368,3.655-8.319,8.387c0.049,4.621,3.619,8.166,8.239,8.179
		C278.19,281.498,281.815,277.849,281.772,273.099z"/>
	<path d="M321.4,162.732c-2.666-3.784-5.019-7.127-7.372-10.478c-4.901-6.968-5.904-14.395-1.82-21.974
		c3.568-6.626,9.564-9.627,17.017-9.419c13.325,0.367,22.378,12.94,17.854,25.024c-1.26,3.355-3.882,6.18-5.508,9.425
		c-1.889,3.777-4.511,5.758-8.888,5.904C328.777,161.357,324.896,162.237,321.4,162.732z"/>
	<path d="M339.15,164.254c0,2.28,0.073,4.145-0.019,6.002c-0.238,4.756-3.661,8.154-8.466,8.521
		c-4.522,0.342-7.945-2.39-8.925-7.176c-0.286-1.369-0.465-2.764-0.764-4.591C327.005,166.094,332.959,165.189,339.15,164.254z"/>
	<path d="M172.463,350.502c-12.916,0-25.342,0-38.068,0c0-6.026-0.018-11.913,0.031-17.793c0-0.502,0.312-1.106,0.672-1.468
		c6.052-6.131,12.134-12.226,18.307-18.423c6.192,6.173,12.226,12.176,18.216,18.209c0.422,0.421,0.801,1.112,0.807,1.688
		C172.488,338.589,172.463,344.469,172.463,350.502z M157.476,344.395c-0.165-0.745-0.231-1.381-0.452-1.962
		c-0.85-2.298-1.926-4.297,0.354-6.761c1.394-1.511,0.66-3.991-1.277-5.403c-2.011-1.461-4.071-1.308-5.832,0.446
		c-1.657,1.649-2.146,3.967-0.501,5.52c1.95,1.84,1.259,3.344,0.526,5.153c-0.373,0.917-0.691,1.864-1.106,3.007
		C152.127,344.395,154.719,344.395,157.476,344.395z"/>
	<path d="M179.566,326.169c-1.319,0.709-3.361,1.797-4.994,2.663c-7.322-6.777-14.449-13.38-21.895-20.28
		c-6.198,6.485-12.891,13.483-19.712,20.618c-2.164-1.125-4.206-2.194-5.435-2.83c8.516-9.054,17.072-18.154,26.089-27.732
		C162.494,308.031,171.033,317.103,179.566,326.169z"/>
	<path d="M151.541,168.551c1.326-13.905,5.624-19.693,14.92-19.98c5.214-0.165,9.426,2.066,12.622,6.216
		c3.13,4.071,3.099,8.875,2.903,13.606c4.053,0.513,4.053,0.513,4.053,4.432c0.006,6.754-0.062,13.515,0.037,20.275
		c0.029,2.042-0.569,2.806-2.702,2.787c-11.167-0.086-22.341-0.086-33.516,0c-2.176,0.019-2.971-0.575-2.922-2.861
		c0.129-7.035,0.129-14.083,0-21.118c-0.042-2.335,0.453-3.649,3.075-3.264C150.452,168.71,150.917,168.594,151.541,168.551z
		 M157.885,168.454c6.131,0,12.054,0,18.062,0c0.313-4.854,0.563-9.505-4.033-12.494c-3.068-2.005-6.375-2.114-9.555-0.293
		C157.323,158.539,157.463,163.368,157.885,168.454z"/>
	<path d="M356.106,333.985c-2.372,1.564-4.607,3.032-7.054,4.646c1.112,1.266,1.956,2.213,2.555,2.891
		c3.154-1.442,5.905-3.142,8.9-3.984c5.843-1.645,11.118,1.362,13.227,7.055c3.705,9.98-2.469,18.855-13.135,18.868
		c-12.939,0.019-25.881,0.03-38.82-0.007c-7.018-0.018-11.784-5.151-11.382-12.121c0.27-4.778,3.569-8.446,9.15-9.603
		c2.311-0.482,3.354-1.332,3.918-3.74c1.62-6.864,7.39-11.828,14.181-12.714C345.551,324.248,352.384,327.433,356.106,333.985z"/>
</g>
<g>
	<path fill="#FFFFFF" d="M337.329,382.476c-35.466-10.923-47.274-54.608-22.127-81.864c0.623-0.673,1.229-1.363,1.948-2.164
		c-1.51-2.017-2.945-3.948-4.511-6.045c-13.69,8.025-28.209,10.465-43.49,6.913c-15.201-3.539-26.999-12.207-35.696-25.33
		c-9.218,4.786-18.265,9.486-27.537,14.297c0.52,1.039,0.966,1.919,1.406,2.8c9.505,19.107,8.453,37.665-4.688,54.449
		c-13.215,16.883-31.223,22.979-51.956,17.478c-20.458-5.436-32.83-19.414-36.473-40.344c-3.631-20.873,6.778-41.534,25.317-51.649
		c18.502-10.093,41.224-7.5,57.14,6.681c1.692,1.504,2.806,1.693,4.805,0.611c8.086-4.364,16.29-8.51,24.444-12.75
		c0.818-0.422,1.601-0.911,2.5-1.426c-6.235-17.512-4.982-34.352,4.224-50.752c-6.217-4.835-12.415-9.656-18.759-14.596
		c-10.813,11.094-23.82,16.681-39.199,15.99c-13.014-0.587-24.193-5.654-33.313-14.988c-17.622-18.032-19.065-46.039-3.473-65.825
		c15.464-19.614,43.081-24.688,64.633-12.022c21.059,12.378,32.477,41.137,17.935,68.099c6.143,4.774,12.335,9.584,18.509,14.383
		c18.404-19.915,44.866-23.324,65.911-14.847c1.51-2.83,3.038-5.691,4.633-8.667c-1.015-0.862-1.962-1.614-2.854-2.42
		c-14.683-13.246-20.63-29.695-16.266-48.967c4.438-19.609,17.084-32.023,36.461-37.519c0.874-0.251,8.716-1.596,11.784-1.596
		c3.319,0,11.113,1.204,11.724,1.363c24.902,6.418,40.185,27.708,38.309,53.393c-2.023,27.652-28.955,49.064-56.376,44.688
		c-4.475-0.715-8.856-2.048-13.447-3.137c-1.351,2.562-2.781,5.275-4.205,7.972c31.021,20.575,34.311,65.764,6.846,91.253
		c1.528,1.938,3.075,3.887,4.598,5.813c0.947-0.514,1.602-0.874,2.262-1.223c27.305-14.37,60.91-0.966,70.729,28.266
		c1.031,3.079,1.655,6.302,2.469,9.456c0,4.32,0,8.637,0,12.957c-0.177,0.515-0.415,1.016-0.521,1.54
		c-3.605,18.777-14.327,31.67-32.028,38.797c-1.711,0.689-7.342,3.601-17.866,3.611C343.521,385.159,338.1,382.72,337.329,382.476z
		 M380.941,140.342c-0.072-23.264-18.937-41.992-42.182-41.895c-23.057,0.104-41.847,19.034-41.767,42.072
		c0.078,23.264,18.93,41.943,42.225,41.846C362.354,182.274,381.021,163.472,380.941,140.342z M163.57,272.965
		c-23.232-0.056-41.943,18.473-42.054,41.645c-0.11,23.325,18.539,42.201,41.779,42.28c23.044,0.079,42.022-18.71,42.133-41.725
		C205.544,291.901,186.815,273.02,163.57,272.965z M177.036,122.977c-23.154,0.019-41.896,18.71-41.926,41.828
		c-0.036,23.252,18.79,42.127,41.986,42.103c23.221-0.024,41.968-18.882,41.925-42.158
		C218.973,141.65,200.184,122.958,177.036,122.977z M351.969,292.732c-23.325-0.08-42.17,18.594-42.213,41.84
		c-0.049,23.1,18.686,41.986,41.742,42.078c23.166,0.092,42.071-18.563,42.17-41.606
		C393.766,311.638,375.214,292.818,351.969,292.732z M282.971,217.042c-12.023,0.153-21.925,5.44-30.697,13.265
		c-1.711,1.527-1.724,3.496-0.36,5.312c1.29,1.706,3.569,1.822,5.514,0.385c2.488-1.833,4.841-3.881,7.451-5.507
		c12.586-7.867,25.109-7.628,37.39,0.69c2.557,1.729,4.829,3.856,7.262,5.752c1.95,1.516,4.107,1.418,5.515-0.318
		c1.441-1.797,1.381-3.753-0.271-5.312C305.855,222.897,295.715,217.133,282.971,217.042z M283.185,235.299
		c-6.84,0.123-13.099,2.83-18.605,7.379c-1.883,1.552-2.078,3.833-0.6,5.482c1.552,1.724,3.398,1.803,5.313,0.599
		c0.795-0.501,1.51-1.111,2.286-1.638c4.32-2.946,9.047-4.548,14.326-3.894c4.305,0.524,7.983,2.529,11.396,5.134
		c2.108,1.608,4.352,1.4,5.752-0.336c1.448-1.803,1.167-4.017-0.893-5.672C296.742,238.001,290.654,235.373,283.185,235.299z
		 M291.772,263.099c-0.036-4.598-3.631-8.16-8.238-8.179c-4.731-0.013-8.368,3.655-8.319,8.387c0.049,4.621,3.619,8.166,8.239,8.179
		C288.19,271.498,291.815,267.849,291.772,263.099z"/>
	<path fill="#FFFFFF" d="M331.4,152.732c-2.666-3.784-5.019-7.127-7.372-10.478c-4.901-6.968-5.904-14.395-1.82-21.974
		c3.568-6.626,9.564-9.627,17.017-9.419c13.325,0.367,22.378,12.94,17.854,25.024c-1.26,3.355-3.882,6.18-5.508,9.425
		c-1.889,3.777-4.511,5.758-8.888,5.904C338.777,151.357,334.896,152.237,331.4,152.732z"/>
	<path fill="#FFFFFF" d="M349.15,154.254c0,2.28,0.073,4.145-0.019,6.002c-0.238,4.756-3.661,8.154-8.466,8.521
		c-4.522,0.342-7.945-2.39-8.925-7.176c-0.286-1.369-0.465-2.764-0.764-4.591C337.005,156.094,342.959,155.189,349.15,154.254z"/>
	<path fill="#FFFFFF" d="M182.463,340.502c-12.916,0-25.342,0-38.068,0c0-6.026-0.018-11.913,0.031-17.793
		c0-0.502,0.312-1.106,0.672-1.468c6.052-6.131,12.134-12.226,18.307-18.423c6.192,6.173,12.226,12.176,18.216,18.209
		c0.422,0.421,0.801,1.112,0.807,1.688C182.488,328.589,182.463,334.469,182.463,340.502z M167.476,334.395
		c-0.165-0.745-0.231-1.381-0.452-1.962c-0.85-2.298-1.926-4.297,0.354-6.761c1.394-1.511,0.66-3.991-1.277-5.403
		c-2.011-1.461-4.071-1.308-5.832,0.446c-1.657,1.649-2.146,3.967-0.501,5.52c1.95,1.84,1.259,3.344,0.526,5.153
		c-0.373,0.917-0.691,1.864-1.106,3.007C162.127,334.395,164.719,334.395,167.476,334.395z"/>
	<path fill="#FFFFFF" d="M189.566,316.169c-1.319,0.709-3.361,1.797-4.994,2.663c-7.322-6.777-14.449-13.38-21.895-20.28
		c-6.198,6.485-12.891,13.483-19.712,20.618c-2.164-1.125-4.206-2.194-5.435-2.83c8.516-9.054,17.072-18.154,26.089-27.732
		C172.494,298.031,181.033,307.103,189.566,316.169z"/>
	<path fill="#FFFFFF" d="M161.541,158.551c1.326-13.905,5.624-19.693,14.92-19.98c5.214-0.165,9.426,2.066,12.622,6.216
		c3.13,4.071,3.099,8.875,2.903,13.606c4.053,0.513,4.053,0.513,4.053,4.432c0.006,6.754-0.062,13.515,0.037,20.275
		c0.029,2.042-0.569,2.806-2.702,2.787c-11.167-0.086-22.341-0.086-33.516,0c-2.176,0.019-2.971-0.575-2.922-2.861
		c0.129-7.035,0.129-14.083,0-21.118c-0.042-2.335,0.453-3.649,3.075-3.264C160.452,158.71,160.917,158.594,161.541,158.551z
		 M167.885,158.454c6.131,0,12.054,0,18.062,0c0.313-4.854,0.563-9.505-4.033-12.494c-3.068-2.005-6.375-2.114-9.555-0.293
		C167.323,148.539,167.463,153.368,167.885,158.454z"/>
	<path fill="#FFFFFF" d="M366.106,323.985c-2.372,1.564-4.607,3.032-7.054,4.646c1.112,1.266,1.956,2.213,2.555,2.891
		c3.154-1.442,5.905-3.142,8.9-3.984c5.843-1.645,11.118,1.362,13.227,7.055c3.705,9.98-2.469,18.855-13.135,18.868
		c-12.939,0.019-25.881,0.03-38.82-0.007c-7.018-0.018-11.784-5.151-11.382-12.121c0.27-4.778,3.569-8.446,9.15-9.603
		c2.311-0.482,3.354-1.332,3.918-3.74c1.62-6.864,7.39-11.828,14.181-12.714C355.551,314.248,362.384,317.433,366.106,323.985z"/>
</g>
</svg>
