<?xml version="1.0" encoding="utf-8"?>
<!-- Generator: Adobe Illustrator 16.0.0, SVG Export Plug-In . SVG Version: 6.00 Build 0)  -->
<!DOCTYPE svg PUBLIC "-//W3C//DTD SVG 1.1//EN" "http://www.w3.org/Graphics/SVG/1.1/DTD/svg11.dtd">
<svg version="1.1" id="Layer_1" xmlns="http://www.w3.org/2000/svg" xmlns:xlink="http://www.w3.org/1999/xlink" x="0px" y="0px"
	 width="512px" height="512px" viewBox="0 0 512 512" enable-background="new 0 0 512 512" xml:space="preserve">
<g>
	<g>
		
			<linearGradient id="SVGID_1_" gradientUnits="userSpaceOnUse" x1="75.9509" y1="402.8455" x2="392.0233" y2="86.773" gradientTransform="matrix(1 0 0 -1 24.9448 503.3589)">
			<stop  offset="0" style="stop-color:#0091FF"/>
			<stop  offset="0.505" style="stop-color:#0087FF"/>
			<stop  offset="1" style="stop-color:#4501EE"/>
		</linearGradient>
		<path fill="url(#SVGID_1_)" d="M481.531,256.147c0,124.261-100.732,225-225,225c-124.267,0-225-100.739-225-225
			c0-124.265,100.733-225,225-225C380.798,31.147,481.531,131.884,481.531,256.147z"/>
		
			<linearGradient id="SVGID_2_" gradientUnits="userSpaceOnUse" x1="125.6389" y1="430.7175" x2="337.5349" y2="63.7029" gradientTransform="matrix(1 0 0 -1 24.9448 503.3589)">
			<stop  offset="0" style="stop-color:#0023FF"/>
			<stop  offset="1" style="stop-color:#007AFF"/>
		</linearGradient>
		<path fill="url(#SVGID_2_)" d="M468.39,256.147c0,117.011-94.854,211.864-211.857,211.864
			c-117.005,0-211.859-94.854-211.859-211.864c0-117.005,94.854-211.858,211.857-211.858
			C373.535,44.289,468.39,139.143,468.39,256.147z"/>
	</g>
</g>
<g opacity="0.4">
	<path d="M168.084,227.856c-5-5.979-8.753-12.668-10.795-20.293c-7.824-29.285,12.885-59.444,43.044-62.164
		c20.599-1.864,36.602,6.234,47.873,23.545c1.015,1.564,1.943,2.002,3.802,1.837c3.154-0.278,6.369-0.248,9.522,0.04
		c1.699,0.156,2.471-0.348,3.302-1.699c10.94-17.659,31.186-26.996,50.746-23.486c21.124,3.786,37.028,19.184,41.051,40.141
		c2.812,14.698-0.746,27.999-9.779,39.872c-0.6,0.772-1.174,1.552-1.883,2.483c9.877,4.334,17.896,10.667,23.961,19.364
		c6.356,9.126,9.901,19.251,10.109,30.396c0.184,10.342,0.098,20.695,0.086,31.039c0,5.379-2.2,7.616-7.629,7.641
		c-13.239,0.049-26.468,0.024-39.706,0.024c-1.076,0-2.141,0-3.533,0c0,5.99,0,11.638-0.013,17.279
		c-0.013,5.973-2.14,8.147-8.057,8.147c-42.396,0.006-84.779,0.006-127.176,0c-5.941,0-8.069-2.151-8.081-8.117
		c-0.023-5.647-0.012-11.296-0.012-17.311c-1.479,0-2.628,0-3.802,0c-12.837,0-25.673,0-38.51-0.006
		c-6.589-0.008-8.569-1.976-8.569-8.51c0-9.854-0.307-19.725,0.123-29.554c0.953-22.289,11.809-38.469,31.296-49.031
		c0.696-0.379,1.43-0.703,2.127-1.076C167.741,228.339,167.827,228.149,168.084,227.856z M315.235,329.283
		c0-9.053,0.317-17.702-0.072-26.32c-0.808-17.995-13.068-33.539-30.307-38.796c-1.333-0.409-3.215-0.312-4.426,0.324
		c-15.807,8.307-31.552,8.288-47.408,0.122c-1.259-0.648-3.081-0.953-4.413-0.581c-16.76,4.677-29.646,20.581-30.563,37.965
		c-0.416,7.837-0.073,15.709-0.342,23.559c-0.11,3.02,0.746,3.813,3.79,3.802c36.809-0.11,73.605-0.073,110.416-0.073
		C312.889,329.283,313.866,329.283,315.235,329.283z M293.671,220.448c0.023-20.599-16.357-37.146-36.785-37.158
		c-20.636-0.012-37.323,16.488-37.384,36.986c-0.073,20.563,16.54,37.348,36.993,37.378
		C276.983,257.679,293.671,240.982,293.671,220.448z M236.348,174.531c-8.435-14.752-29.462-20.877-45.782-13.469
		c-17.652,8.007-26.271,27.628-20.122,45.772c5.392,15.905,23.618,28.018,37.396,24.848
		C202.558,207.318,214.942,184.555,236.348,174.531z M277.069,174.39c22.972,12.457,32.86,31.455,28.667,57.447
		c16.296,1.99,33.351-10.619,37.824-27.891c4.548-17.595-4.768-36.397-21.54-43.426C305.406,153.559,285.663,159.653,277.069,174.39
		z M294.221,253.589c20.979,10.218,32.213,26.904,34.169,49.924c12.689,0,25.244,0,37.897,0c0-8.948,0.415-17.701-0.086-26.405
		c-1.039-18.14-13.289-33.451-30.452-38.744c-1.125-0.345-2.689-0.538-3.619-0.021c-9.315,5.202-19.192,7.394-29.828,6.352
		c-0.808-0.08-2.005,0.333-2.482,0.94C297.889,248.131,296.164,250.793,294.221,253.589z M218.952,253.846
		c-1.956-2.821-3.741-5.557-5.722-8.148c-0.402-0.535-1.527-0.844-2.262-0.761c-10.44,1.148-20.134-1.141-29.328-6.042
		c-1.015-0.538-2.506-0.74-3.594-0.452c-15.929,4.181-29.193,19.189-30.623,35.614c-0.844,9.677-0.416,19.469-0.538,29.212
		c0,0.146,0.232,0.306,0.379,0.501c12.457,0,24.939,0,37.52,0C186.825,280.677,198.145,264.112,218.952,253.846z"/>
</g>
<g>
	<path fill="#FFFFFF" d="M178.084,217.856c-5-5.979-8.753-12.668-10.795-20.293c-7.824-29.285,12.885-59.444,43.044-62.164
		c20.599-1.864,36.602,6.234,47.873,23.545c1.015,1.564,1.943,2.002,3.802,1.837c3.154-0.278,6.369-0.248,9.522,0.04
		c1.699,0.156,2.471-0.348,3.302-1.699c10.94-17.659,31.186-26.996,50.746-23.486c21.124,3.786,37.028,19.184,41.051,40.141
		c2.812,14.698-0.746,27.999-9.779,39.872c-0.6,0.772-1.174,1.552-1.883,2.483c9.877,4.334,17.896,10.667,23.961,19.364
		c6.356,9.126,9.901,19.251,10.109,30.396c0.184,10.342,0.098,20.695,0.086,31.039c0,5.379-2.2,7.616-7.629,7.641
		c-13.239,0.049-26.468,0.024-39.706,0.024c-1.076,0-2.141,0-3.533,0c0,5.99,0,11.638-0.013,17.279
		c-0.013,5.973-2.14,8.147-8.057,8.147c-42.396,0.006-84.779,0.006-127.176,0c-5.941,0-8.069-2.151-8.081-8.117
		c-0.023-5.647-0.012-11.296-0.012-17.311c-1.479,0-2.628,0-3.802,0c-12.837,0-25.673,0-38.51-0.006
		c-6.589-0.008-8.569-1.976-8.569-8.51c0-9.854-0.307-19.725,0.123-29.554c0.953-22.289,11.809-38.469,31.296-49.031
		c0.696-0.379,1.43-0.703,2.127-1.076C177.741,218.339,177.827,218.149,178.084,217.856z M325.235,319.283
		c0-9.053,0.317-17.702-0.072-26.32c-0.808-17.995-13.068-33.539-30.307-38.796c-1.333-0.409-3.215-0.312-4.426,0.324
		c-15.807,8.307-31.552,8.288-47.408,0.122c-1.259-0.648-3.081-0.953-4.413-0.581c-16.76,4.677-29.646,20.581-30.563,37.965
		c-0.416,7.837-0.073,15.709-0.342,23.559c-0.11,3.02,0.746,3.813,3.79,3.802c36.809-0.11,73.605-0.073,110.416-0.073
		C322.889,319.283,323.866,319.283,325.235,319.283z M303.671,210.448c0.023-20.599-16.357-37.146-36.785-37.158
		c-20.636-0.012-37.323,16.488-37.384,36.986c-0.073,20.563,16.54,37.348,36.993,37.378
		C286.983,247.679,303.671,230.982,303.671,210.448z M246.348,164.531c-8.435-14.752-29.462-20.877-45.782-13.469
		c-17.652,8.007-26.271,27.628-20.122,45.772c5.392,15.905,23.618,28.018,37.396,24.848
		C212.558,197.318,224.942,174.555,246.348,164.531z M287.069,164.39c22.972,12.457,32.86,31.455,28.667,57.447
		c16.296,1.99,33.351-10.619,37.824-27.891c4.548-17.595-4.768-36.397-21.54-43.426C315.406,143.559,295.663,149.653,287.069,164.39
		z M304.221,243.589c20.979,10.218,32.213,26.904,34.169,49.924c12.689,0,25.244,0,37.897,0c0-8.948,0.415-17.701-0.086-26.405
		c-1.039-18.14-13.289-33.451-30.452-38.744c-1.125-0.345-2.689-0.538-3.619-0.021c-9.315,5.202-19.192,7.394-29.828,6.352
		c-0.808-0.08-2.005,0.333-2.482,0.94C307.889,238.131,306.164,240.793,304.221,243.589z M228.952,243.846
		c-1.956-2.821-3.741-5.557-5.722-8.148c-0.402-0.535-1.527-0.844-2.262-0.761c-10.44,1.148-20.134-1.141-29.328-6.042
		c-1.015-0.538-2.506-0.74-3.594-0.452c-15.929,4.181-29.193,19.189-30.623,35.614c-0.844,9.677-0.416,19.469-0.538,29.212
		c0,0.146,0.232,0.306,0.379,0.501c12.457,0,24.939,0,37.52,0C196.825,270.677,208.145,254.112,228.952,243.846z"/>
</g>
</svg>
