<?xml version="1.0" encoding="utf-8"?>
<!-- Generator: Adobe Illustrator 16.0.0, SVG Export Plug-In . SVG Version: 6.00 Build 0)  -->
<!DOCTYPE svg PUBLIC "-//W3C//DTD SVG 1.1//EN" "http://www.w3.org/Graphics/SVG/1.1/DTD/svg11.dtd">
<svg version="1.1" id="Layer_1" xmlns="http://www.w3.org/2000/svg" xmlns:xlink="http://www.w3.org/1999/xlink" x="0px" y="0px"
	 width="512px" height="512px" viewBox="0 0 512 512" enable-background="new 0 0 512 512" xml:space="preserve">
<g>
	<g>
		
			<linearGradient id="SVGID_1_" gradientUnits="userSpaceOnUse" x1="75.8015" y1="402.6648" x2="391.8752" y2="86.5909" gradientTransform="matrix(1 0 0 -1 24.9448 503.3589)">
			<stop  offset="0" style="stop-color:#0000FF"/>
			<stop  offset="1" style="stop-color:#000083"/>
		</linearGradient>
		<path fill="url(#SVGID_1_)" d="M481.382,256.33c0,124.262-100.733,225-225,225c-124.268,0-225-100.738-225-225
			c0-124.267,100.732-225,225-225C380.649,31.33,481.382,132.063,481.382,256.33z"/>
		
			<linearGradient id="SVGID_2_" gradientUnits="userSpaceOnUse" x1="125.49" y1="430.5349" x2="337.3834" y2="63.5247" gradientTransform="matrix(1 0 0 -1 24.9448 503.3589)">
			<stop  offset="0" style="stop-color:#000083"/>
			<stop  offset="1" style="stop-color:#0000FF"/>
		</linearGradient>
		<circle fill="url(#SVGID_2_)" cx="256.382" cy="256.33" r="211.858"/>
	</g>
</g>
<g opacity="0.4">
	<path d="M232.996,225.462c10.629-21.253,9.534-41.576-3.111-61.583c1.082-0.109,1.95-0.269,2.824-0.269
		c35.428-0.012,70.855,0.031,106.29-0.08c3.344-0.012,4.218,1.101,4.138,4.273c-0.188,7.879,0.02,15.77-0.122,23.654
		c-0.036,1.933-0.452,4.01-1.277,5.74c-4.083,8.606-8.393,17.108-12.536,25.685c-0.91,1.89-1.98,2.916-4.255,2.916
		c-30.019-0.061-60.036-0.043-90.049-0.055C234.438,225.743,233.986,225.615,232.996,225.462z"/>
	<path d="M182.256,245.407c-26.669-0.037-48.233-21.565-48.289-48.203c-0.055-26.595,21.485-48.203,48.167-48.325
		c26.815-0.122,48.466,21.522,48.38,48.38C230.435,224.007,208.943,245.45,182.256,245.407z M174.34,236.336
		c0.299,0.136,0.599,0.275,0.897,0.41c9.584-14.297,19.176-28.594,29.384-43.82c-7.092,0-12.978,0-19.384,0
		c4.06-9.871,7.854-19.106,11.92-28.984c-6.198,0-11.468,0.116-16.73-0.049c-2.5-0.08-3.759,0.752-4.664,3.142
		c-4.646,12.286-9.475,24.505-14.224,36.754c-0.367,0.948-0.605,1.95-1.076,3.49c6.968,0,13.49,0,20.563,0
		C178.711,217.345,176.522,226.844,174.34,236.336z"/>
	<path d="M346.271,210.211c7.471,4.31,14.555,8.398,21.822,12.593c-7.567,13.116-14.958,25.935-22.359,38.753
		c-5.813,10.079-11.602,20.177-17.487,30.214c-1.719,2.934-2.378,5.775-0.924,9.026c0.354,0.795,0.244,2.115-0.188,2.887
		c-10.165,17.744-20.403,35.438-30.905,53.631c-8.729-5.031-17.311-9.982-26.167-15.092
		C295.453,298.243,320.716,254.484,346.271,210.211z"/>
	<path d="M309.42,257.797c-0.44,1.106-0.544,1.438-0.703,1.742c-5.342,10.214-5.342,10.214-16.846,10.214
		c-37.434,0-74.866,0-112.3,0c-1.387,0-2.78,0-4.627,0c0-3.574-0.109-6.846,0.093-10.104c0.043-0.648,1.186-1.461,1.985-1.761
		c0.825-0.313,1.858-0.093,2.8-0.093c41.669,0,83.338,0,125.013,0C306.205,257.797,307.574,257.797,309.42,257.797z"/>
	<path d="M350.116,204.313c2.872-4.908,5.36-9.572,8.265-13.961c1.711-2.585,4.419-3.508,7.402-1.81
		c7.457,4.248,14.938,8.453,22.284,12.873c3.767,2.255,4.188,5.275,1.634,9.744c-7.237,12.652-14.549,25.256-21.834,37.879
		c-8.698,15.062-17.396,30.116-26.102,45.177c-0.171,0.307-0.336,0.617-0.524,0.917c-1.247,2.006-2.477,4.609-5.38,2.818
		c-2.615-1.62-1.191-3.919-0.062-5.881c8.216-14.254,16.443-28.496,24.677-42.744c4.584-7.939,9.199-15.862,13.759-23.813
		c2.537-4.42,2.146-5.984-2.256-8.563C364.896,212.791,357.764,208.72,350.116,204.313z"/>
	<path d="M292.396,287.87c-2.2,3.796-4.027,7.194-6.137,10.416c-0.489,0.752-1.926,1.247-2.928,1.247
		c-35.294,0.062-70.594,0.055-105.888,0.043c-0.689,0-1.368-0.184-2.292-0.306c0-3.796,0-7.5,0-11.4
		C214.151,287.87,252.935,287.87,292.396,287.87z"/>
	<path d="M275.178,317.645c-2.427,4.217-4.218,7.512-6.223,10.672c-0.446,0.709-1.646,1.345-2.5,1.345
		c-30.013,0.057-60.02,0.037-90.03,0.014c-0.33,0-0.66-0.172-1.455-0.387c0-3.172-0.11-6.437,0.098-9.682
		c0.043-0.673,1.175-1.516,1.98-1.84c0.819-0.324,1.853-0.116,2.793-0.116c30.128-0.006,60.263-0.006,90.391-0.006
		C271.596,317.645,272.965,317.645,275.178,317.645z"/>
	<path d="M259.677,347.889c0,3.961,0,7.562,0,11.394c-28.191,0-56.217,0-84.511,0c0-3.759,0-7.457,0-11.394
		C203.356,347.889,231.363,347.889,259.677,347.889z"/>
	<path d="M268.24,346.855c8.394,4.835,16.266,9.377,24.836,14.322c-8.688,5.817-16.858,11.295-25.967,17.408
		C267.5,367.59,267.854,357.613,268.24,346.855z"/>
	<path d="M319.01,347.662c0,4.14,0,7.739,0,11.634c-4.871,0-9.596,0-14.902,0c2.178-3.741,3.961-7.312,6.284-10.483
		c0.696-0.953,2.893-0.904,4.426-1.112C316.076,347.528,317.372,347.662,319.01,347.662z"/>
</g>
<g>
	<path fill="#FFFFFF" d="M242.996,215.462c10.629-21.253,9.534-41.576-3.111-61.583c1.082-0.109,1.95-0.269,2.824-0.269
		c35.428-0.012,70.855,0.031,106.29-0.08c3.344-0.012,4.218,1.101,4.138,4.273c-0.188,7.879,0.02,15.77-0.122,23.654
		c-0.036,1.933-0.452,4.01-1.277,5.74c-4.083,8.606-8.393,17.108-12.536,25.685c-0.91,1.89-1.98,2.916-4.255,2.916
		c-30.019-0.061-60.036-0.043-90.049-0.055C244.438,215.743,243.986,215.615,242.996,215.462z"/>
	<path fill="#FFFFFF" d="M192.256,235.407c-26.669-0.037-48.233-21.565-48.289-48.203c-0.055-26.595,21.485-48.203,48.167-48.325
		c26.815-0.122,48.466,21.522,48.38,48.38C240.435,214.007,218.943,235.45,192.256,235.407z M184.34,226.336
		c0.299,0.136,0.599,0.275,0.897,0.41c9.584-14.297,19.176-28.594,29.384-43.82c-7.092,0-12.978,0-19.384,0
		c4.06-9.871,7.854-19.106,11.92-28.984c-6.198,0-11.468,0.116-16.73-0.049c-2.5-0.08-3.759,0.752-4.664,3.142
		c-4.646,12.286-9.475,24.505-14.224,36.754c-0.367,0.948-0.605,1.95-1.076,3.49c6.968,0,13.49,0,20.563,0
		C188.711,207.345,186.522,216.844,184.34,226.336z"/>
	<path fill="#FFFFFF" d="M356.271,200.211c7.471,4.31,14.555,8.398,21.822,12.593c-7.567,13.116-14.958,25.935-22.359,38.753
		c-5.813,10.079-11.602,20.177-17.487,30.214c-1.719,2.934-2.378,5.775-0.924,9.026c0.354,0.795,0.244,2.115-0.188,2.887
		c-10.165,17.744-20.403,35.438-30.905,53.631c-8.729-5.031-17.311-9.982-26.167-15.092
		C305.453,288.243,330.716,244.484,356.271,200.211z"/>
	<path fill="#FFFFFF" d="M319.42,247.797c-0.44,1.106-0.544,1.438-0.703,1.742c-5.342,10.214-5.342,10.214-16.846,10.214
		c-37.434,0-74.866,0-112.3,0c-1.387,0-2.78,0-4.627,0c0-3.574-0.109-6.846,0.093-10.104c0.043-0.648,1.186-1.461,1.985-1.761
		c0.825-0.313,1.858-0.093,2.8-0.093c41.669,0,83.338,0,125.013,0C316.205,247.797,317.574,247.797,319.42,247.797z"/>
	<path fill="#FFFFFF" d="M360.116,194.313c2.872-4.908,5.36-9.572,8.265-13.961c1.711-2.585,4.419-3.508,7.402-1.81
		c7.457,4.248,14.938,8.453,22.284,12.873c3.767,2.255,4.188,5.275,1.634,9.744c-7.237,12.652-14.549,25.256-21.834,37.879
		c-8.698,15.062-17.396,30.116-26.102,45.177c-0.171,0.307-0.336,0.617-0.524,0.917c-1.247,2.006-2.477,4.609-5.38,2.818
		c-2.615-1.62-1.191-3.919-0.062-5.881c8.216-14.254,16.443-28.496,24.677-42.744c4.584-7.939,9.199-15.862,13.759-23.813
		c2.537-4.42,2.146-5.984-2.256-8.563C374.896,202.791,367.764,198.72,360.116,194.313z"/>
	<path fill="#FFFFFF" d="M302.396,277.87c-2.2,3.796-4.027,7.194-6.137,10.416c-0.489,0.752-1.926,1.247-2.928,1.247
		c-35.294,0.062-70.594,0.055-105.888,0.043c-0.689,0-1.368-0.184-2.292-0.306c0-3.796,0-7.5,0-11.4
		C224.151,277.87,262.935,277.87,302.396,277.87z"/>
	<path fill="#FFFFFF" d="M285.178,307.645c-2.427,4.217-4.218,7.512-6.223,10.672c-0.446,0.709-1.646,1.345-2.5,1.345
		c-30.013,0.057-60.02,0.037-90.03,0.014c-0.33,0-0.66-0.172-1.455-0.387c0-3.172-0.11-6.437,0.098-9.682
		c0.043-0.673,1.175-1.516,1.98-1.84c0.819-0.324,1.853-0.116,2.793-0.116c30.128-0.006,60.263-0.006,90.391-0.006
		C281.596,307.645,282.965,307.645,285.178,307.645z"/>
	<path fill="#FFFFFF" d="M269.677,337.889c0,3.961,0,7.562,0,11.394c-28.191,0-56.217,0-84.511,0c0-3.759,0-7.457,0-11.394
		C213.356,337.889,241.363,337.889,269.677,337.889z"/>
	<path fill="#FFFFFF" d="M278.24,336.855c8.394,4.835,16.266,9.377,24.836,14.322c-8.688,5.817-16.858,11.295-25.967,17.408
		C277.5,357.59,277.854,347.613,278.24,336.855z"/>
	<path fill="#FFFFFF" d="M329.01,337.662c0,4.14,0,7.739,0,11.634c-4.871,0-9.596,0-14.902,0c2.178-3.741,3.961-7.312,6.284-10.483
		c0.696-0.953,2.893-0.904,4.426-1.112C326.076,337.528,327.372,337.662,329.01,337.662z"/>
</g>
</svg>
