<?xml version="1.0" encoding="utf-8"?>
<!-- Generator: Adobe Illustrator 16.0.0, SVG Export Plug-In . SVG Version: 6.00 Build 0)  -->
<!DOCTYPE svg PUBLIC "-//W3C//DTD SVG 1.1//EN" "http://www.w3.org/Graphics/SVG/1.1/DTD/svg11.dtd">
<svg version="1.1" id="Layer_1" xmlns="http://www.w3.org/2000/svg" xmlns:xlink="http://www.w3.org/1999/xlink" x="0px" y="0px"
	 width="512px" height="512px" viewBox="0 0 512 512" enable-background="new 0 0 512 512" xml:space="preserve">
<linearGradient id="SVGID_1_" gradientUnits="userSpaceOnUse" x1="99.2319" y1="99.2778" x2="415.3051" y2="415.351">
	<stop  offset="0" style="stop-color:#E20001"/>
	<stop  offset="1" style="stop-color:#8C0000"/>
</linearGradient>
<path fill="url(#SVGID_1_)" d="M479.867,254.914c0,124.261-100.733,225-225,225s-225-100.739-225-225c0-124.267,100.733-225,225-225
	S479.867,130.647,479.867,254.914z"/>
<linearGradient id="SVGID_2_" gradientUnits="userSpaceOnUse" x1="148.9199" y1="71.4092" x2="360.8159" y2="438.4238">
	<stop  offset="0" style="stop-color:#8C0000"/>
	<stop  offset="1" style="stop-color:#E20001"/>
</linearGradient>
<path fill="url(#SVGID_2_)" d="M466.726,254.914c0,117.011-94.854,211.864-211.858,211.864S43.009,371.925,43.009,254.914
	c0-117.005,94.854-211.858,211.858-211.858S466.726,137.909,466.726,254.914z"/>
<g>
	<g>
		<g>
			<path fill-rule="evenodd" clip-rule="evenodd" fill="#FFFFFF" d="M134.647,326.98c6.174-2.434,12.354-4.878,18.54-7.293
				c26.858-10.471,53.704-20.941,80.568-31.381c16.125-6.271,32.286-12.463,48.41-18.747c18.417-7.183,36.804-14.456,55.221-21.632
				c1.938-0.764,3.35-1.883,4.511-3.649c3.961-6.1,7.641-12.359,8.882-19.615c0.488-2.812,0.372-5.929-0.306-8.698
				c-0.862-3.551-3.576-6.07-7.274-6.442c-6.399-0.624-12.86-0.85-19.297-1.045c-1.943-0.055-3.179-0.532-4.683-1.932
				c-2.469-2.268-5.439-4.181-8.496-5.605c-8.606-4.022-17.86-6.057-27.121-7.958c-9.736-1.986-19.468-4.022-29.193-6.057
				c-13.686-2.861-27.359-5.783-41.057-8.613c-15.795-3.258-31.602-6.442-47.402-9.676c-4.737-0.966-9.456-2.017-14.187-3.032
				c0-0.214,0-0.422,0-0.63c77.402,0,154.816,0,232.31,0c-11.907,54.242-23.894,108.888-35.929,163.699
				c-71.241-0.416-142.311-0.832-213.386-1.247C134.721,327.279,134.684,327.133,134.647,326.98z"/>
			<path fill-rule="evenodd" clip-rule="evenodd" fill="#FFFFFF" d="M117.923,327.427c0.868-4.615,1.614-8.649,2.378-12.69
				c2.182-11.533,4.371-23.068,6.571-34.603c2.365-12.39,4.762-24.768,7.115-37.157c2.286-12.029,4.542-24.059,6.803-36.094
				c0.722-3.845,0.715-3.851,4.554-3.863c38.081-0.08,76.149-0.367,114.218-0.153c14.505,0.092,29.064,0.758,43.264,4.279
				c3.136,0.776,6.198,2.011,9.133,3.386c1.345,0.63,2.286,2.115,3.417,3.209c-0.147,0.232-0.281,0.471-0.422,0.709
				c-33.484,0-66.975,0-100.979,0c5.446,16.045,10.746,31.668,16.143,47.585c3.007-1.326,5.813-2.549,8.606-3.777
				c19.926-8.79,40.318-16.259,61.583-21.119c7.854-1.803,15.837-2.953,23.93-2.647c2.213,0.086,4.426,0.514,6.608,0.936
				c0.764,0.146,1.448,0.739,2.17,1.125c0,0.226,0,0.464,0,0.685c-1.07,0.342-2.109,0.832-3.203,1.027
				c-12.513,2.17-24.921,4.823-37.061,8.594c-17.249,5.342-34.01,11.95-50.293,19.731c-21.919,10.483-43.79,21.088-65.617,31.778
				c-18.924,9.261-37.757,18.698-56.632,28.057C119.653,326.699,119.079,326.925,117.923,327.427z"/>
		</g>
		<path fill-rule="evenodd" clip-rule="evenodd" fill="#FFFFFF" d="M292.306,222.75c1.663-0.256,3.332-0.446,4.964-0.782
			c4.584-0.953,9.181-1.833,13.691-3.025c1.455-0.379,2.953-1.418,3.918-2.586c1.229-1.491,2.586-1.907,4.347-1.876
			c5.91,0.128,11.821,0.196,17.732,0.306c0.623,0.006,1.265,0.128,1.876,0.263c6.112,1.387,7.365,4.529,5.446,10.556
			c-1.485,4.645-4.083,8.936-6.265,13.35c-0.386,0.789-1.138,1.406-1.725,2.096c-0.207-0.098-0.422-0.189-0.642-0.287
			c0.27-1.167,0.465-2.359,0.813-3.496c1.021-3.332,2.353-6.583,3.086-9.97c0.734-3.398-0.177-4.328-3.729-4.328
			c-5.599-0.012-11.191,0.098-16.772,0.288c-7.83,0.257-15.647,0.654-23.466,0.929c-1.088,0.031-2.182-0.33-3.282-0.501
			C292.306,223.374,292.306,223.062,292.306,222.75z"/>
	</g>
</g>
</svg>
