<?xml version="1.0" encoding="utf-8"?>
<!-- Generator: Adobe Illustrator 16.0.0, SVG Export Plug-In . SVG Version: 6.00 Build 0)  -->
<!DOCTYPE svg PUBLIC "-//W3C//DTD SVG 1.1//EN" "http://www.w3.org/Graphics/SVG/1.1/DTD/svg11.dtd">
<svg version="1.1" id="Layer_1" xmlns="http://www.w3.org/2000/svg" xmlns:xlink="http://www.w3.org/1999/xlink" x="0px" y="0px"
	 width="512px" height="512px" viewBox="0 0 512 512" enable-background="new 0 0 512 512" xml:space="preserve">
<g>
	
		<linearGradient id="SVGID_1_" gradientUnits="userSpaceOnUse" x1="74.3074" y1="404.0818" x2="390.3814" y2="88.0077" gradientTransform="matrix(1 0 0 -1 24.9448 503.3589)">
		<stop  offset="0" style="stop-color:#E20001"/>
		<stop  offset="1" style="stop-color:#8C0000"/>
	</linearGradient>
	<path fill="url(#SVGID_1_)" d="M479.889,254.914c0,124.262-100.733,225-225,225s-225-100.738-225-225
		c0-124.267,100.733-225,225-225S479.889,130.647,479.889,254.914z"/>
	
		<linearGradient id="SVGID_2_" gradientUnits="userSpaceOnUse" x1="123.9973" y1="431.949" x2="335.8927" y2="64.9354" gradientTransform="matrix(1 0 0 -1 24.9448 503.3589)">
		<stop  offset="0" style="stop-color:#8C0000"/>
		<stop  offset="1" style="stop-color:#E20001"/>
	</linearGradient>
	<path fill="url(#SVGID_2_)" d="M466.746,254.914c0,117.012-94.854,211.864-211.857,211.864S43.03,371.926,43.03,254.914
		c0-117.005,94.854-211.857,211.858-211.857S466.746,137.909,466.746,254.914z"/>
</g>
<g opacity="0.6">
	<path d="M222.786,253.545c5.604,6.682,10.989,13.111,16.869,20.129c-1.173,1.223-2.262,2.764-3.703,3.803
		c-14.261,10.293-29.928,16.74-47.787,15.599c-27.52-1.748-50.08-21.979-55-48.551c-5.587-30.214,14.32-58.82,42.071-65.563
		c29.555-7.17,57.684,7.958,67.562,37.5c0.477,1.418,0.99,2.818,1.779,5.043c3.386-12.022,8.539-22.207,17.622-30.134
		c12.922-11.278,27.708-15.818,44.756-13.588c26.344,3.448,42.07,18.827,48.116,43.93c6.992,29.034-9.736,63.197-42.114,69.727
		c-13.668,2.757-27.451,0.831-38.411-9.694c-0.521-0.496-1.191-0.826-2.493-1.718c-0.172,2.188-0.397,3.759-0.397,5.336
		c-0.029,16.118-0.141,32.243,0.056,48.362c0.062,4.313-1.381,5.745-5.643,5.574c-7.084-0.281-14.181-0.08-22.028-0.08
		c0-31.332,0-62.464,0-94.017c-27.286,0-53.809,0-80.35,0C168.452,266.962,195.463,270.904,222.786,253.545z M328.036,234.755
		c0.422-21.699-19.31-37.017-38.899-28.497c-17.097,7.439-22.506,32.897-10.557,48.356c5.911,7.647,13.411,12.023,23.393,11.327
		C318.482,264.792,328.758,248.851,328.036,234.755z M214.828,221.601c-3.209-13.558-15.6-20.996-27.317-19.859
		c-14.102,1.375-23.215,8.985-24.199,19.859C180.372,221.601,197.419,221.601,214.828,221.601z"/>
	<path d="M356.655,272.695c0.079-9.664,7.438-17.335,16.791-17.519c9.255-0.184,18.031,8.588,17.929,17.922
		c-0.099,9.395-8.46,17.572-17.745,17.39C363.88,290.299,356.563,282.628,356.655,272.695z"/>
</g>
<g>
	<path fill="#FFFFFF" d="M232.786,243.545c5.604,6.682,10.989,13.111,16.869,20.129c-1.173,1.223-2.262,2.764-3.703,3.803
		c-14.261,10.293-29.928,16.74-47.787,15.599c-27.52-1.748-50.08-21.979-55-48.551c-5.587-30.214,14.32-58.82,42.071-65.563
		c29.555-7.17,57.684,7.958,67.562,37.5c0.477,1.418,0.99,2.818,1.779,5.043c3.386-12.022,8.539-22.207,17.622-30.134
		c12.922-11.278,27.708-15.818,44.756-13.588c26.344,3.448,42.07,18.827,48.116,43.93c6.992,29.034-9.736,63.197-42.114,69.727
		c-13.668,2.757-27.451,0.831-38.411-9.694c-0.521-0.496-1.191-0.826-2.493-1.718c-0.172,2.188-0.397,3.759-0.397,5.336
		c-0.029,16.118-0.141,32.243,0.056,48.362c0.062,4.313-1.381,5.745-5.643,5.574c-7.084-0.281-14.181-0.08-22.028-0.08
		c0-31.332,0-62.464,0-94.017c-27.286,0-53.809,0-80.35,0C178.452,256.962,205.463,260.904,232.786,243.545z M338.036,224.755
		c0.422-21.699-19.31-37.017-38.899-28.497c-17.097,7.439-22.506,32.897-10.557,48.356c5.911,7.647,13.411,12.023,23.393,11.327
		C328.482,254.792,338.758,238.851,338.036,224.755z M224.828,211.601c-3.209-13.558-15.6-20.996-27.317-19.859
		c-14.102,1.375-23.215,8.985-24.199,19.859C190.372,211.601,207.419,211.601,224.828,211.601z"/>
	<path fill="#FFFFFF" d="M366.655,262.695c0.079-9.664,7.438-17.335,16.791-17.519c9.255-0.184,18.031,8.588,17.929,17.922
		c-0.099,9.395-8.46,17.572-17.745,17.39C373.88,280.299,366.563,272.628,366.655,262.695z"/>
</g>
</svg>
