<?xml version="1.0" encoding="utf-8"?>
<!-- Generator: Adobe Illustrator 16.0.0, SVG Export Plug-In . SVG Version: 6.00 Build 0)  -->
<!DOCTYPE svg PUBLIC "-//W3C//DTD SVG 1.1//EN" "http://www.w3.org/Graphics/SVG/1.1/DTD/svg11.dtd">
<svg version="1.1" id="Layer_1" xmlns="http://www.w3.org/2000/svg" xmlns:xlink="http://www.w3.org/1999/xlink" x="0px" y="0px"
	 width="512px" height="512px" viewBox="0 0 512 512" enable-background="new 0 0 512 512" xml:space="preserve">
<g>
	<g>
		
			<linearGradient id="SVGID_1_" gradientUnits="userSpaceOnUse" x1="76.1057" y1="402.6648" x2="392.1795" y2="86.5909" gradientTransform="matrix(1 0 0 -1 24.9448 503.3589)">
			<stop  offset="0" style="stop-color:#DC00FF"/>
			<stop  offset="1" style="stop-color:#9A00FF"/>
		</linearGradient>
		<path fill="url(#SVGID_1_)" d="M481.687,256.33c0,124.262-100.732,225-225,225c-124.267,0-225-100.738-225-225
			c0-124.267,100.733-225,225-225C380.954,31.33,481.687,132.063,481.687,256.33z"/>
		
			<linearGradient id="SVGID_2_" gradientUnits="userSpaceOnUse" x1="125.7961" y1="430.5349" x2="337.6893" y2="63.5251" gradientTransform="matrix(1 0 0 -1 24.9448 503.3589)">
			<stop  offset="0" style="stop-color:#9A00FF"/>
			<stop  offset="1" style="stop-color:#DC00FF"/>
		</linearGradient>
		<circle fill="url(#SVGID_2_)" cx="256.687" cy="256.33" r="211.858"/>
	</g>
</g>
<g opacity="0.4">
	<path d="M202.261,169.105c-7.805-2.023-15.208-0.686-19.315,1.62c-3.991,2.242-7.684,4.864-12.371,5.843
		c-4.499,0.947-7.066,4.389-9.493,8.325c-2.408,3.918-3.942,7.854-3.795,12.292c0.183,5.673,0.861,11.327,1.271,16.993
		c0.055,0.787,0.02,1.771-0.396,2.353c-3.137,4.358-2.335,11.253,1.833,14.694c0.385,0.317,0.936,0.439,1.308,0.758
		c0.899,0.764,1.932,1.455,2.543,2.408c0.636,0.989,0.831,2.242,1.229,3.386c2.567,7.494,6.113,14.193,13.394,18.337
		c7.787,4.432,15.471,8.222,24.712,4.064c6.516-2.935,13.044-5.967,16.98-12.097c2.671-4.149,4.113-9.089,6.21-13.619
		c0.409-0.88,1.186-1.828,2.035-2.207c5.307-2.347,7.365-11.223,3.618-15.587c-0.599-0.685-1.039-1.876-0.923-2.745
		c1.027-7.193,0.844-14.254-0.819-21.388c-2.371-10.226-8.74-16.577-18.288-19.987c-3.692-1.313-7.593-2.022-11.284-2.982
		C201.008,169.484,201.436,169.355,202.261,169.105z M195.091,341.605c-4.908-6.901-9.769-13.674-14.554-20.502
		c-1.027-1.454-2.207-3.007-2.585-4.682c-0.936-4.083-1.517-8.252-2.121-12.402c-1.815-12.488-3.619-24.963-5.299-37.463
		c-0.307-2.274-1.297-2.092-2.75-1.353c-3.467,1.761-6.976,3.466-10.35,5.379c-10.935,6.211-21.857,12.451-32.702,18.804
		c-6.49,3.813-11.058,9.34-13.142,16.655c-1.919,6.755-3.82,13.526-5.385,20.373c-1.492,6.57-2.55,13.245-3.814,19.964
		c41.479,0,82.604,0,124.205,0c-7.243-8.271-11.956-17.434-15.257-27.972C205.617,326.574,200.421,334.009,195.091,341.605z
		 M204.278,284.014c-2.586-2.415-5.036-4.865-7.684-7.066c-0.587-0.495-2.237-0.568-2.781-0.116
		c-2.757,2.317-5.312,4.872-7.902,7.323c1.203,1.907,2.127,3.551,3.221,5.079c1.18,1.649,1.485,3.179,0.88,5.263
		c-1.956,6.755-3.729,13.582-5.306,20.436c-0.318,1.381,0.085,3.288,0.85,4.498c2.494,3.919,5.403,7.562,7.958,11.431
		c1.143,1.725,1.932,1.729,3.026,0.129c2.787-4.035,5.685-8.008,8.307-12.151c0.654-1.052,0.862-2.764,0.556-3.997
		c-1.809-7.227-3.845-14.396-5.739-21.607c-0.195-0.729-0.171-1.718,0.177-2.335C201.075,288.751,202.512,286.715,204.278,284.014z"
		/>
	<path d="M202.261,169.105c-0.825,0.25-1.253,0.379-1.552,0.465c3.691,0.959,7.592,1.668,11.284,2.983
		c9.548,3.41,15.917,9.762,18.289,19.986c1.662,7.134,1.846,14.193,0.818,21.389c-0.116,0.867,0.324,2.06,0.923,2.744
		c3.747,4.364,1.688,13.24-3.618,15.588c-0.85,0.379-1.626,1.325-2.035,2.206c-2.098,4.529-3.539,9.469-6.21,13.619
		c-3.938,6.13-10.465,9.163-16.98,12.097c-9.242,4.156-16.925,0.366-24.712-4.064c-7.28-4.145-10.825-10.844-13.393-18.337
		c-0.397-1.143-0.594-2.396-1.229-3.386c-0.611-0.954-1.644-1.646-2.543-2.408c-0.373-0.318-0.923-0.44-1.308-0.758
		c-4.168-3.441-4.97-10.336-1.833-14.694c0.416-0.581,0.451-1.564,0.396-2.353c-0.409-5.667-1.088-11.32-1.271-16.993
		c-0.147-4.438,1.387-8.374,3.795-12.292c2.427-3.938,4.994-7.378,9.493-8.325c4.688-0.978,8.38-3.6,12.371-5.843
		C187.053,168.42,194.456,167.082,202.261,169.105z"/>
	<path d="M195.091,341.605c5.33-7.598,10.526-15.031,16.247-23.197c3.301,10.538,8.014,19.7,15.257,27.972
		c-41.602,0-82.726,0-124.205,0c1.265-6.719,2.322-13.394,3.814-19.964c1.564-6.847,3.466-13.618,5.385-20.373
		c2.084-7.315,6.649-12.843,13.142-16.655c10.845-6.353,21.768-12.593,32.702-18.804c3.374-1.913,6.883-3.618,10.35-5.379
		c1.454-0.739,2.444-0.923,2.75,1.353c1.681,12.5,3.483,24.975,5.299,37.463c0.604,4.15,1.186,8.319,2.121,12.402
		c0.379,1.675,1.559,3.228,2.585,4.682C185.323,327.932,190.183,334.704,195.091,341.605z"/>
	<path d="M204.278,284.014c-1.767,2.7-3.202,4.736-4.438,6.883c-0.348,0.617-0.373,1.606-0.177,2.335
		c1.895,7.212,3.931,14.382,5.739,21.607c0.307,1.233,0.099,2.945-0.556,3.997c-2.622,4.145-5.52,8.116-8.307,12.151
		c-1.095,1.602-1.883,1.596-3.026-0.129c-2.555-3.869-5.464-7.512-7.958-11.431c-0.764-1.21-1.167-3.117-0.85-4.498
		c1.577-6.854,3.35-13.681,5.306-20.436c0.605-2.084,0.299-3.612-0.88-5.263c-1.094-1.528-2.018-3.172-3.221-5.079
		c2.592-2.451,5.146-5.006,7.902-7.323c0.544-0.452,2.194-0.379,2.781,0.116C199.241,279.148,201.692,281.599,204.278,284.014z"/>
</g>
<g opacity="0.4">
	<path d="M238.869,177.076c1.002-4.132,2.836-7.745,6.319-10.141c1.999-1.375,4.433-2.109,6.675-3.129c43.949,0,87.897,0,131.853,0
		c0.862,0.287,1.742,0.524,2.579,0.874c6.125,2.529,9.443,7.157,10.115,13.71c0.093,0.91,0.063,1.84,0.063,2.756
		c0,18.949,0,37.892,0,56.834c0,0.636,0,1.276,0,2.127c-0.636-0.287-1.058-0.489-1.485-0.666c-3.05-1.241-6.063-2.58-9.162-3.68
		c-1.118-0.393-1.527-0.802-1.517-1.999c0.067-4.598,0.03-9.193,0.03-13.797c0-13.153,0-26.308,0-39.455
		c0-3.453-1.13-4.591-4.541-4.591c-41.406,0-82.813,0-124.218,0c-3.337,0-4.462,1.106-4.462,4.48
		c-0.013,50.336-0.013,100.672,0,151.008c0,3.338,1.154,4.438,4.522,4.438c41.406,0,82.813,0,124.218,0
		c3.228,0,4.255-0.979,4.512-4.169c0.036-0.436,0.342-1.088,0.689-1.229c3.704-1.461,7.451-2.837,11.137-4.218
		c1.198,8.129-0.249,16.516-9.399,20.654c-0.587,0.256-1.188,0.487-1.779,0.738c-44.927,0-89.854,0-134.779,0
		c-2.072-1.233-4.31-2.248-6.162-3.746c-2.873-2.336-4.291-5.654-5.208-9.219L238.869,177.076L238.869,177.076z"/>
	<path d="M352.193,296.043c3.632-0.946,7.019-1.834,10.552-2.757c0.237,0.813,0.438,1.522,0.653,2.219
		c1.725,5.723,7.813,8.521,13.258,6.069c2.299-1.039,3.387-2.946,3.589-5.391c0.184-2.445-0.686-4.427-2.972-5.459
		c-2.849-1.289-5.795-2.396-8.686-3.588c-1.699-0.71-3.405-1.395-5.08-2.151c-9.511-4.285-10.99-14.132-8.147-21.479
		c2.104-5.445,6.132-8.617,11.804-9.804c0.525-0.11,1.052-0.22,1.735-0.367c0-2.065,0-4.095,0-6.229c2.365,0,4.555,0,6.943,0
		c0,1.583,0.073,3.093-0.02,4.584c-0.085,1.253,0.288,1.761,1.608,1.999c6.717,1.216,10.929,5.336,13.05,11.699
		c0.135,0.402,0.03,1.253-0.202,1.356c-2.896,1.277-5.843,2.457-8.686,3.624c-1.082-1.821-1.896-3.545-3.032-5.012
		c-1.962-2.543-4.639-3.454-7.799-2.659c-2.359,0.593-4.139,2.604-4.426,4.865c-0.354,2.837,0.392,4.608,3.014,5.85
		c3.319,1.571,6.772,2.85,10.152,4.285c1.442,0.611,2.879,1.253,4.272,1.969c6.65,3.398,9.854,9.683,8.734,17.078
		c-1.241,8.186-6.198,13.302-14.597,14.743c-1.754,0.307-2.206,0.953-2.078,2.599c0.141,1.925,0.029,3.868,0.029,5.91
		c-2.384,0-4.571,0-6.938,0c0-2.727,0-5.354,0-8.081c-5.178-0.689-9.64-2.519-12.806-6.729
		C354.119,302.516,352.842,299.521,352.193,296.043z"/>
	<path d="M267.731,317.645c0-3.76-0.019-7.427,0.037-11.096c0.006-0.299,0.507-0.709,0.855-0.85c0.373-0.146,0.854-0.036,1.29-0.036
		c18.825,0,37.646,0.012,56.473-0.031c1.425-0.006,2.146,0.44,2.928,1.657c2.274,3.532,4.799,6.907,7.231,10.354
		C313.844,317.645,290.916,317.645,267.731,317.645z"/>
	<path d="M267.793,280.278c0-4.145,0-8.025,0-12.06c19.046,0,38.038,0,57.041,0c-0.557,2.866-1.095,5.665-1.625,8.46
		c-0.05,0.269-0.1,0.537-0.129,0.807c-0.301,2.793-0.301,2.793-3.031,2.793c-16.663,0-33.319,0-49.982,0
		C269.376,280.278,268.686,280.278,267.793,280.278z"/>
	<path d="M267.084,205.004c0-3.766,0.012-7.384-0.014-11.003c0-1.1,0.746-0.989,1.449-0.989c5.195,0,77.787,0,82.982,0
		c6.441,0,12.879,0.03,19.32-0.024c1.284-0.012,1.822,0.263,1.785,1.681c-0.104,3.398-0.037,6.804-0.037,10.336
		C359.847,205.004,279.883,205.004,267.084,205.004z"/>
	<path d="M372.463,230.688c0,0.959,0,1.852,0,2.873c-2.421,0.231-4.829,0.385-7.213,0.703c-7.477,0.972-14.315,3.631-20.6,7.787
		c-0.514,0.342-1.174,0.636-1.767,0.642c-6.003,0.042-68.362,0.03-74.371,0.018c-0.201,0-0.409-0.066-0.721-0.128
		c0-3.949,0-7.867,0-11.895C283.918,230.688,356.308,230.688,372.463,230.688z"/>
</g>
<g>
	<path d="M212.261,159.105c-7.805-2.023-15.208-0.686-19.315,1.62c-3.991,2.242-7.684,4.864-12.371,5.843
		c-4.499,0.947-7.066,4.389-9.493,8.325c-2.408,3.918-3.942,7.854-3.795,12.292c0.183,5.673,0.861,11.327,1.271,16.993
		c0.055,0.787,0.02,1.771-0.396,2.353c-3.137,4.358-2.335,11.253,1.833,14.694c0.385,0.317,0.936,0.439,1.308,0.758
		c0.899,0.764,1.932,1.455,2.543,2.408c0.636,0.989,0.831,2.242,1.229,3.386c2.567,7.494,6.113,14.193,13.394,18.337
		c7.787,4.432,15.471,8.222,24.712,4.064c6.516-2.935,13.044-5.967,16.98-12.097c2.671-4.149,4.113-9.089,6.21-13.619
		c0.409-0.88,1.186-1.828,2.035-2.207c5.307-2.347,7.365-11.223,3.618-15.587c-0.599-0.685-1.039-1.876-0.923-2.745
		c1.027-7.193,0.844-14.254-0.819-21.388c-2.371-10.226-8.74-16.577-18.288-19.987c-3.692-1.313-7.593-2.022-11.284-2.982
		C211.008,159.484,211.436,159.355,212.261,159.105z M205.091,331.605c-4.908-6.901-9.769-13.674-14.554-20.502
		c-1.027-1.454-2.207-3.007-2.585-4.682c-0.936-4.083-1.517-8.252-2.121-12.402c-1.815-12.488-3.619-24.963-5.299-37.463
		c-0.307-2.274-1.297-2.092-2.75-1.353c-3.467,1.761-6.976,3.466-10.35,5.379c-10.935,6.211-21.857,12.451-32.702,18.804
		c-6.49,3.813-11.058,9.34-13.142,16.655c-1.919,6.755-3.82,13.526-5.385,20.373c-1.492,6.57-2.55,13.245-3.814,19.964
		c41.479,0,82.604,0,124.205,0c-7.243-8.271-11.956-17.434-15.257-27.972C215.617,316.574,210.421,324.009,205.091,331.605z
		 M214.278,274.014c-2.586-2.415-5.036-4.865-7.684-7.066c-0.587-0.495-2.237-0.568-2.781-0.116
		c-2.757,2.317-5.312,4.872-7.902,7.323c1.203,1.907,2.127,3.551,3.221,5.079c1.18,1.649,1.485,3.179,0.88,5.263
		c-1.956,6.755-3.729,13.582-5.306,20.436c-0.318,1.381,0.085,3.288,0.85,4.498c2.494,3.919,5.403,7.562,7.958,11.431
		c1.143,1.725,1.932,1.729,3.026,0.129c2.787-4.035,5.685-8.008,8.307-12.151c0.654-1.052,0.862-2.764,0.556-3.997
		c-1.809-7.227-3.845-14.396-5.739-21.607c-0.195-0.729-0.171-1.718,0.177-2.335C211.075,278.751,212.512,276.715,214.278,274.014z"
		/>
	<path fill="#FFFFFF" d="M212.261,159.105c-0.825,0.25-1.253,0.379-1.552,0.465c3.691,0.959,7.592,1.668,11.284,2.983
		c9.548,3.41,15.917,9.762,18.289,19.986c1.662,7.134,1.846,14.193,0.818,21.389c-0.116,0.867,0.324,2.06,0.923,2.744
		c3.747,4.364,1.688,13.24-3.618,15.588c-0.85,0.379-1.626,1.325-2.035,2.206c-2.098,4.529-3.539,9.469-6.21,13.619
		c-3.938,6.13-10.465,9.163-16.98,12.097c-9.242,4.156-16.925,0.366-24.712-4.064c-7.28-4.145-10.825-10.844-13.393-18.337
		c-0.397-1.143-0.594-2.396-1.229-3.386c-0.611-0.954-1.644-1.646-2.543-2.408c-0.373-0.318-0.923-0.44-1.308-0.758
		c-4.168-3.441-4.97-10.336-1.833-14.694c0.416-0.581,0.451-1.564,0.396-2.353c-0.409-5.667-1.088-11.32-1.271-16.993
		c-0.147-4.438,1.387-8.374,3.795-12.292c2.427-3.938,4.994-7.378,9.493-8.325c4.688-0.978,8.38-3.6,12.371-5.843
		C197.053,158.42,204.456,157.082,212.261,159.105z"/>
	<path fill="#FFFFFF" d="M205.091,331.605c5.33-7.598,10.526-15.031,16.247-23.197c3.301,10.538,8.014,19.7,15.257,27.972
		c-41.602,0-82.726,0-124.205,0c1.265-6.719,2.322-13.394,3.814-19.964c1.564-6.847,3.466-13.618,5.385-20.373
		c2.084-7.315,6.649-12.843,13.142-16.655c10.845-6.353,21.768-12.593,32.702-18.804c3.374-1.913,6.883-3.618,10.35-5.379
		c1.454-0.739,2.444-0.923,2.75,1.353c1.681,12.5,3.483,24.975,5.299,37.463c0.604,4.15,1.186,8.319,2.121,12.402
		c0.379,1.675,1.559,3.228,2.585,4.682C195.323,317.932,200.183,324.704,205.091,331.605z"/>
	<path fill="#FFFFFF" d="M214.278,274.014c-1.767,2.7-3.202,4.736-4.438,6.883c-0.348,0.617-0.373,1.606-0.177,2.335
		c1.895,7.212,3.931,14.382,5.739,21.607c0.307,1.233,0.099,2.945-0.556,3.997c-2.622,4.145-5.52,8.116-8.307,12.151
		c-1.095,1.602-1.883,1.596-3.026-0.129c-2.555-3.869-5.464-7.512-7.958-11.431c-0.764-1.21-1.167-3.117-0.85-4.498
		c1.577-6.854,3.35-13.681,5.306-20.436c0.605-2.084,0.299-3.612-0.88-5.263c-1.094-1.528-2.018-3.172-3.221-5.079
		c2.592-2.451,5.146-5.006,7.902-7.323c0.544-0.452,2.194-0.379,2.781,0.116C209.241,269.148,211.692,271.599,214.278,274.014z"/>
</g>
<g>
	<path fill="#FFFFFF" d="M248.869,167.076c1.002-4.132,2.836-7.745,6.319-10.141c1.999-1.375,4.433-2.109,6.675-3.129
		c43.949,0,87.897,0,131.853,0c0.862,0.287,1.742,0.524,2.579,0.874c6.125,2.529,9.443,7.157,10.115,13.71
		c0.093,0.91,0.063,1.84,0.063,2.756c0,18.949,0,37.892,0,56.834c0,0.636,0,1.276,0,2.127c-0.636-0.287-1.058-0.489-1.485-0.666
		c-3.05-1.241-6.063-2.58-9.162-3.68c-1.118-0.393-1.527-0.802-1.517-1.999c0.067-4.598,0.03-9.193,0.03-13.797
		c0-13.153,0-26.308,0-39.455c0-3.453-1.13-4.591-4.541-4.591c-41.406,0-82.813,0-124.218,0c-3.337,0-4.462,1.106-4.462,4.48
		c-0.013,50.336-0.013,100.672,0,151.008c0,3.338,1.154,4.438,4.522,4.438c41.406,0,82.813,0,124.218,0
		c3.228,0,4.255-0.979,4.512-4.169c0.036-0.436,0.342-1.088,0.689-1.229c3.704-1.461,7.451-2.837,11.137-4.218
		c1.198,8.129-0.249,16.516-9.399,20.654c-0.587,0.256-1.188,0.487-1.779,0.738c-44.927,0-89.854,0-134.779,0
		c-2.072-1.233-4.31-2.248-6.162-3.746c-2.873-2.336-4.291-5.654-5.208-9.219L248.869,167.076L248.869,167.076z"/>
	<path fill="#FFFFFF" d="M362.193,286.043c3.632-0.946,7.019-1.834,10.552-2.757c0.237,0.813,0.438,1.522,0.653,2.219
		c1.725,5.723,7.813,8.521,13.258,6.069c2.299-1.039,3.387-2.946,3.589-5.391c0.184-2.445-0.686-4.427-2.972-5.459
		c-2.849-1.289-5.795-2.396-8.686-3.588c-1.699-0.71-3.405-1.395-5.08-2.151c-9.511-4.285-10.99-14.132-8.147-21.479
		c2.104-5.445,6.132-8.617,11.804-9.804c0.525-0.11,1.052-0.22,1.735-0.367c0-2.065,0-4.095,0-6.229c2.365,0,4.555,0,6.943,0
		c0,1.583,0.073,3.093-0.02,4.584c-0.085,1.253,0.288,1.761,1.608,1.999c6.717,1.216,10.929,5.336,13.05,11.699
		c0.135,0.402,0.03,1.253-0.202,1.356c-2.896,1.277-5.843,2.457-8.686,3.624c-1.082-1.821-1.896-3.545-3.032-5.012
		c-1.962-2.543-4.639-3.454-7.799-2.659c-2.359,0.593-4.139,2.604-4.426,4.865c-0.354,2.837,0.392,4.608,3.014,5.85
		c3.319,1.571,6.772,2.85,10.152,4.285c1.442,0.611,2.879,1.253,4.272,1.969c6.65,3.398,9.854,9.683,8.734,17.078
		c-1.241,8.186-6.198,13.302-14.597,14.743c-1.754,0.307-2.206,0.953-2.078,2.599c0.141,1.925,0.029,3.868,0.029,5.91
		c-2.384,0-4.571,0-6.938,0c0-2.727,0-5.354,0-8.081c-5.178-0.689-9.64-2.519-12.806-6.729
		C364.119,292.516,362.842,289.521,362.193,286.043z"/>
	<path fill="#FFFFFF" d="M277.731,307.645c0-3.76-0.019-7.427,0.037-11.096c0.006-0.299,0.507-0.709,0.855-0.85
		c0.373-0.146,0.854-0.036,1.29-0.036c18.825,0,37.646,0.012,56.473-0.031c1.425-0.006,2.146,0.44,2.928,1.657
		c2.274,3.532,4.799,6.907,7.231,10.354C323.844,307.645,300.916,307.645,277.731,307.645z"/>
	<path fill="#FFFFFF" d="M277.793,270.278c0-4.145,0-8.025,0-12.06c19.046,0,38.038,0,57.041,0c-0.557,2.866-1.095,5.665-1.625,8.46
		c-0.05,0.269-0.1,0.537-0.129,0.807c-0.301,2.793-0.301,2.793-3.031,2.793c-16.663,0-33.319,0-49.982,0
		C279.376,270.278,278.686,270.278,277.793,270.278z"/>
	<path fill="#FFFFFF" d="M277.084,195.004c0-3.766,0.012-7.384-0.014-11.003c0-1.1,0.746-0.989,1.449-0.989
		c5.195,0,77.787,0,82.982,0c6.441,0,12.879,0.03,19.32-0.024c1.284-0.012,1.822,0.263,1.785,1.681
		c-0.104,3.398-0.037,6.804-0.037,10.336C369.847,195.004,289.883,195.004,277.084,195.004z"/>
	<path fill="#FFFFFF" d="M382.463,220.688c0,0.959,0,1.852,0,2.873c-2.421,0.231-4.829,0.385-7.213,0.703
		c-7.477,0.972-14.315,3.631-20.6,7.787c-0.514,0.342-1.174,0.636-1.767,0.642c-6.003,0.042-68.362,0.03-74.371,0.018
		c-0.201,0-0.409-0.066-0.721-0.128c0-3.949,0-7.867,0-11.895C293.918,220.688,366.308,220.688,382.463,220.688z"/>
</g>
</svg>
