<?xml version="1.0" encoding="utf-8"?>
<!-- Generator: Adobe Illustrator 24.3.0, SVG Export Plug-In . SVG Version: 6.00 Build 0)  -->
<svg version="1.1" id="Layer_1" xmlns="http://www.w3.org/2000/svg" xmlns:xlink="http://www.w3.org/1999/xlink" x="0px" y="0px"
	 viewBox="0 0 512 512" style="enable-background:new 0 0 512 512;" xml:space="preserve">
<style type="text/css">
	.st0{fill:url(#SVGID_1_);}
	.st1{fill:url(#SVGID_2_);}
	.st2{fill:#FFFFFF;}
	.st3{fill:#FAFBFC;}
	.st4{fill:none;stroke:#F8F7F7;stroke-width:2;stroke-miterlimit:10;}
	.st5{fill:#EDEDED;}
</style>
<linearGradient id="SVGID_1_" gradientUnits="userSpaceOnUse" x1="75.1256" y1="74.0884" x2="391.1994" y2="-241.9853" gradientTransform="matrix(1 0 0 -1 24.9448 173.3588)">
	<stop  offset="0" style="stop-color:#E20001"/>
	<stop  offset="1" style="stop-color:#8C0000"/>
</linearGradient>
<path class="st0" d="M480.7,254.9c0,124.3-100.7,225-225,225s-225-100.7-225-225s100.7-225,225-225
	C380,29.9,480.7,130.6,480.7,254.9z"/>
<linearGradient id="SVGID_2_" gradientUnits="userSpaceOnUse" x1="124.7888" y1="101.9872" x2="336.7122" y2="-265.0749" gradientTransform="matrix(1 0 0 -1 24.9448 173.3588)">
	<stop  offset="0" style="stop-color:#8C0000"/>
	<stop  offset="1" style="stop-color:#E20001"/>
</linearGradient>
<path class="st1" d="M467.6,254.9c0,117-94.9,211.9-211.9,211.9S43.8,371.9,43.8,254.9S138.7,43,255.7,43
	C372.7,43.1,467.6,137.9,467.6,254.9z"/>
<g>
	<g>
		<path class="st2" d="M197.1,387.8c-4,0-7.4,0-10.3,0c1.6-4.9,3.6-9.8,4.8-14.8c1.3-5.2,1.3-10.4-4.3-15.5c5,0.3,8.9-0.2,11.9,0.9
			c3.1,1.2,5.2,4.1,8,6.5c4-4.4,7-9.8,15.6-6.9c-6.2,10.5,1.6,19.7,5.7,29.7c-4.2,0-8,0-12.1,0c0-9.3,0-18.5,0-27.8
			c-0.5-0.1-1-0.2-1.5-0.2c-2.8,4-6.4,7.5-4.4,13c1,2.6,0.4,5.7-0.1,8.6c-0.2,1-2.1,2.4-3.2,2.5c-1.2,0.1-3.4-1.2-3.6-2.1
			c-0.8-2.6-1.9-5.8-0.8-8.1c2.9-5.9-1.5-9.5-5.6-13.5C197.1,369.2,197.1,378.3,197.1,387.8z M206.9,382.8c3.3-3.7,3.3-6.3-0.1-10
			C204.7,376.2,203.3,379.4,206.9,382.8z"/>
		<path class="st2" d="M320.5,370.2c-0.7,7.5-3.6,12.8-10.2,16.4c-4.9,2.7-9.7,2.4-13.8-0.9c-11.5-9.6-11-16.4-1.8-26.7
			c1.1-1.2,4.4-2.4,5.9-1.9c5.5,1.6,13.9-3.5,16.5,4.5C318.3,364.7,319.7,368,320.5,370.2z M315.1,376.3c0.4-7.3-3.4-12.4-9.6-16.3
			c-4.8-3-8-2.1-10.1,2.3c-3.3,6.9-1.5,13,6.3,17.9c2.4,1.5,6.5,2.6,9.5,2.3C315.5,382,315.3,378.5,315.1,376.3z"/>
		<path class="st2" d="M262,357.9c-1,2-1.8,3.4-2.6,4.9c-12-4.5-17.1-2.7-19,8.1c6.1-1.3,11.7-2.4,17.5-3.6c-0.3,2.1-0.7,4.4-1,6.6
			c-5.5-1-10.8-2-16.1-3c-2.1,5.8,3.6,14.6,10,15.8c1.8,0.3,4.2-0.5,5.8-1.4c1.6-0.8,2.7-2.4,4.7-4.3c0.6,3,1,5,1.5,7.8
			c-6.2-0.4-12.3-0.3-18.1-1.3c-7.8-1.3-13.2-7.7-13.9-14.8c-0.5-5.2,5.1-12.7,11.8-14.4C248.5,356.9,255,356.2,262,357.9z"/>
		<path class="st2" d="M138.9,363.6c-1.6-2.2-3.2-4.5-4.9-6.9c12,0,23.8,0,35.9,0c-1.3,2.2-2.4,4.2-3.7,6.5
			c-3.2-1.4-6.3-2.7-10.2-4.4c-0.7,10.5-1.2,20.1,5.6,28.9c-4.4,0-8.3,0-12.2,0c0-9.2,0-18.2,0-27.6
			C144.8,358.7,142.8,362.8,138.9,363.6z"/>
		<path class="st2" d="M368.1,388c-1.9-0.1-3.8-0.3-5.6-0.3c-1.6,0-3.2,0.2-5.1,0.4c4.7-10.3,10.1-20.3,2.1-31c9.6,0,19.5,0,29.5,0
			c-1.3,2.4-2.7,5-3.9,7.2c-4.1-1.6-8.2-3.4-12.4-4.9c-3.3-1.2-4.8,0-4.6,2.7c0.1,2,0,4,0,7.1c5.3-1.1,9.7-2.1,14-3.1
			c-0.3,2.2-0.6,4.5-1,7.4c-2.6-1.1-5-2.2-7.6-3c-3.4-1.1-5.6-0.6-5.4,2.9C368.2,378.4,368.1,383.2,368.1,388z"/>
		<path class="st2" d="M347.6,365.6c-0.4,2.7-0.9,5.1-1.3,7.9c-2.7-1.1-5.1-2.3-7.7-3c-3.1-0.9-5.3-0.3-5.2,2.9
			c0.1,4.8,0,9.6,0,14.6c-2.9,0-6.4,0-9.9,0c1.6-5.1,3.4-10.3,5-15.5c1.6-5.4,1-10.6-4.3-15.3c10.3,0,20.3,0,30.2,0
			c-1.3,2.5-2.7,5.1-3.9,7.2c-4.1-1.6-8.2-3.4-12.4-4.9c-3.1-1.1-4.6-0.3-4.8,2.6c-0.3,7,1.4,8,9.8,5.2
			C344.6,366.8,346,366.2,347.6,365.6z"/>
		<path class="st2" d="M172.8,357.4c2.9,0,5.7,0,8.7,0c-3.4,10.2-1.5,20.3,1.7,30.3c-3.5,0.1-6.9,0.3-11.1,0.4
			C173.6,378.2,178.7,367.9,172.8,357.4z"/>
	</g>
	<path class="st3" d="M366.6,177l-16.1-14.2c-0.7-0.6-0.6-1.6,0.1-2.1l2.6-1.8c0.8-0.6,2-0.5,2.7,0.1l16.1,14.2
		c0.7,0.6,0.6,1.6-0.1,2.1l-2.6,1.8C368.5,177.6,367.3,177.6,366.6,177z"/>
	<path class="st3" d="M194.5,201.1l-18.9-16.6c-0.7-0.6-0.6-1.6,0.1-2.1l5.5-3.9c0.8-0.6,2-0.5,2.7,0.1l18.9,16.6
		c0.7,0.6,0.6,1.6-0.1,2.1l-5.5,3.9C196.4,201.8,195.2,201.7,194.5,201.1z"/>
	<path class="st3" d="M174.3,250.7h-28.3c-1.1,0-1.9-0.7-1.9-1.5v-5.9c0-0.8,0.9-1.5,1.9-1.5h28.3c1.1,0,1.9,0.7,1.9,1.5v5.9
		C176.2,250,175.4,250.7,174.3,250.7z"/>
	<path class="st3" d="M199.9,297.6l-20,15.8c-0.7,0.6-2,0.6-2.7,0l-5.3-4.2c-0.7-0.6-0.7-1.6,0-2.1l20-15.8c0.7-0.6,2-0.6,2.7,0
		l5.3,4.2C200.7,296,200.7,297,199.9,297.6z"/>
	<path class="st3" d="M266,316.2l-1.1,22.3c0,0.8-0.9,1.5-2,1.5l-7.5-0.2c-1.1,0-1.9-0.7-1.8-1.6l1.1-22.3c0-0.8,0.9-1.5,2-1.5
		l7.5,0.2C265.2,314.7,266.1,315.4,266,316.2z"/>
	<path class="st3" d="M324.6,291.9l22.2,13.9c0.8,0.5,1,1.5,0.3,2.1l-4.6,4.6c-0.7,0.6-1.9,0.8-2.7,0.2l-22.2-13.9
		c-0.8-0.5-1-1.5-0.3-2.1l4.6-4.6C322.6,291.5,323.8,291.4,324.6,291.9z"/>
	<path class="st3" d="M347.1,241.8h28.3c1.1,0,1.9,0.7,1.9,1.5v5.9c0,0.8-0.9,1.5-1.9,1.5h-28.3c-1.1,0-1.9-0.7-1.9-1.5v-5.9
		C345.2,242.4,346.1,241.8,347.1,241.8z"/>
	<path class="st3" d="M318.2,194.6l20-15.8c0.7-0.6,2-0.6,2.7,0l5.3,4.2c0.7,0.6,0.7,1.6,0,2.1l-20,15.8c-0.7,0.6-2,0.6-2.7,0
		l-5.3-4.2C317.5,196.1,317.5,195.1,318.2,194.6z"/>
	<path class="st3" d="M257,176.8v-22.3c0-0.8,0.9-1.5,1.9-1.5h7.5c1.1,0,1.9,0.7,1.9,1.5v22.3c0,0.8-0.9,1.5-1.9,1.5h-7.5
		C257.9,178.4,257,177.7,257,176.8z"/>
	<ellipse class="st4" cx="261.5" cy="247.1" rx="119.2" ry="94.1"/>
	<polygon class="st2" points="333.4,182.4 356.5,166.1 363.1,171.9 340,188.3 	"/>
	<g>
		<g>
			<path class="st5" d="M216,263.5c-2.5-1.1-4.4-2.6-5.7-4.5c-1.3-1.9-2-4.2-2-6.8v-9.9c0-2.6,0.7-4.8,2-6.8
				c1.3-1.9,3.2-3.5,5.7-4.5c2.5-1.1,5.3-1.6,8.5-1.6s6.1,0.5,8.5,1.6c2.4,1.1,4.4,2.6,5.7,4.5c1.3,1.9,2,4.2,2,6.8v9.9
				c0,2.6-0.7,4.8-2,6.8c-1.3,1.9-3.2,3.5-5.7,4.5c-2.5,1.1-5.3,1.6-8.5,1.6S218.5,264.6,216,263.5z M228.5,257.8
				c1.2-0.5,2-1.2,2.6-2.2c0.6-0.9,0.9-2,0.9-3.2v-10.3c0-1.2-0.3-2.3-0.9-3.2c-0.6-0.9-1.5-1.6-2.6-2.2c-1.1-0.5-2.5-0.8-4-0.8
				s-2.8,0.3-4,0.8c-1.2,0.5-2,1.2-2.6,2.2c-0.6,0.9-0.9,2-0.9,3.2v10.3c0,1.2,0.3,2.3,0.9,3.2c0.6,0.9,1.5,1.6,2.6,2.2
				c1.2,0.5,2.5,0.8,4,0.8S227.3,258.3,228.5,257.8z"/>
			<path class="st5" d="M249.6,229.7h8.4v35.1h-8.4V229.7z M252.7,229.7h26.1v6.4h-26.1V229.7z M252.7,244.5h22.8v6.4h-22.8V244.5z"
				/>
			<path class="st5" d="M284.6,229.7h8.4v35.1h-8.4V229.7z M287.7,229.7h26.1v6.4h-26.1V229.7z M287.7,244.5h22.8v6.4h-22.8V244.5z"
				/>
		</g>
	</g>
	<g>
		<path class="st2" d="M234.4,120.6v5.1c0,2.6,2.7,4.7,6,4.7H285c3.3,0,6-2.1,6-4.7v-5.1c0-2.6-2.7-4.7-6-4.7h-44.6
			C237.1,115.9,234.4,118,234.4,120.6z"/>
		<rect x="252.6" y="130.4" class="st2" width="20.2" height="23.6"/>
	</g>
</g>
</svg>
