<?xml version="1.0" encoding="utf-8"?>
<!-- Generator: Adobe Illustrator 16.0.0, SVG Export Plug-In . SVG Version: 6.00 Build 0)  -->
<!DOCTYPE svg PUBLIC "-//W3C//DTD SVG 1.1//EN" "http://www.w3.org/Graphics/SVG/1.1/DTD/svg11.dtd">
<svg version="1.1" id="Layer_1" xmlns="http://www.w3.org/2000/svg" xmlns:xlink="http://www.w3.org/1999/xlink" x="0px" y="0px"
	 width="512px" height="512px" viewBox="0 0 512 512" enable-background="new 0 0 512 512" xml:space="preserve">
<g>
	<g>
		
			<linearGradient id="SVGID_1_" gradientUnits="userSpaceOnUse" x1="75.2576" y1="403.5398" x2="391.3313" y2="87.4662" gradientTransform="matrix(1 0 0 -1 24.9448 503.3589)">
			<stop  offset="0" style="stop-color:#00C9FF"/>
			<stop  offset="1" style="stop-color:#0091FF"/>
		</linearGradient>
		<path fill="url(#SVGID_1_)" d="M480.839,255.455c0,124.262-100.733,225-225,225c-124.268,0-225-100.738-225-225
			c0-124.267,100.732-225,225-225C380.106,30.455,480.839,131.188,480.839,255.455z"/>
		
			<linearGradient id="SVGID_2_" gradientUnits="userSpaceOnUse" x1="124.947" y1="431.4089" x2="336.8403" y2="64.3989" gradientTransform="matrix(1 0 0 -1 24.9448 503.3589)">
			<stop  offset="0" style="stop-color:#0091FF"/>
			<stop  offset="0.4483" style="stop-color:#0093FF"/>
			<stop  offset="1" style="stop-color:#00C9FF"/>
		</linearGradient>
		<circle fill="url(#SVGID_2_)" cx="255.839" cy="255.455" r="211.858"/>
	</g>
</g>
<g opacity="0.6">
	<path d="M154.922,133.065c1.516-3.074,2.696-6.387,4.646-9.163c2.646-3.765,6.711-5.642,11.26-6.277
		c1.527-0.22,3.093-0.202,4.639-0.202c39.438-0.012,78.875,0.013,118.307-0.036c6.528-0.007,11.963,2.022,16.059,7.249
		c2.566,3.264,3.809,6.986,3.819,11.081c0.031,16.688,0.014,33.381,0.007,50.067c0,0.214-0.079,0.422-0.152,0.782
		c-4.089,0-8.19,0-12.543,0c0-13.186,0-26.357,0-39.719c-44.499,0-88.753,0-133.123,0c0,69.835,0,139.585,0,209.505
		c44.26,0,88.447,0,132.971,0c0-12.249,0-24.523,0-36.962c4.4,0,8.483,0,12.744,0c0.037,0.795,0.11,1.51,0.11,2.219
		c0.006,16.474,0.023,32.934,0,49.407c-0.007,9.786-5.294,16.938-14.182,19.113c-1.768,0.435-3.655,0.502-5.488,0.502
		c-39.652,0.029-79.311,0-118.968,0.049c-5.312,0.006-10.042-1.254-14.046-4.859c-2.47-2.23-4.089-4.976-5.135-8.104
		c-0.299-0.911-0.617-1.811-0.923-2.714C154.922,294.354,154.922,213.713,154.922,133.065z M225.173,372.332
		c0.018,5.036,4.125,9.192,9.101,9.212c5.006,0.023,9.311-4.304,9.285-9.335c-0.024-5.006-4.114-9.089-9.169-9.138
		C229.194,363.022,225.154,367.068,225.173,372.332z M234.225,135.07c0-0.006,0-0.018,0-0.018c6.345,0,12.685,0,19.028-0.007
		c1.498,0,2.763-0.494,2.714-2.182c-0.049-1.577-1.216-2.243-2.745-2.262c-0.367-0.006-0.739-0.013-1.105-0.013
		c-11.877,0-23.747,0-35.617,0.013c-0.729,0-1.498-0.024-2.188,0.184c-1.687,0.495-2.272,2.702-0.923,3.637
		c0.703,0.501,1.785,0.618,2.702,0.618C222.135,135.095,228.18,135.07,234.225,135.07z"/>
	<path d="M395.704,192.032c-10.947-0.019-21.896-0.019-32.836-0.08c-1.418-0.006-1.333,0.997-1.511,1.81
		c-1.718,7.688-3.393,15.385-5.098,23.074c-3.533,15.99-7.091,31.987-10.624,47.978c-1.405,6.362-2.799,12.726-4.144,19.106
		c-0.238,1.149-0.68,1.546-1.896,1.546c-32.793-0.029-65.58-0.029-98.368,0c-1.161,0-1.681-0.305-1.943-1.503
		c-2.396-10.96-4.859-21.913-7.299-32.86c-3.332-14.939-6.662-29.872-9.987-44.812c-0.324-1.473-0.6-2.958-0.917-4.547
		c38.056,0,75.904,0,113.991,0c-0.983,3.826-1.912,7.494-2.909,11.144c-0.079,0.306-0.6,0.599-0.967,0.69
		c-0.481,0.122-1.015,0.037-1.521,0.037c-30.41,0.006-60.813,0.006-91.217,0.012c-0.776,0-1.546,0.073-2.519,0.128
		c0.837,3.724,1.639,7.25,2.415,10.771c3.49,15.703,6.992,31.418,10.421,47.139c0.313,1.449,0.845,1.913,2.329,1.907
		c26.149-0.043,52.305-0.036,78.454-0.012c1.302,0,2.029-0.208,2.347-1.688c2.372-11.025,4.823-22.028,7.244-33.044
		c3.991-18.099,7.971-36.198,11.969-54.291c0.995-4.529,1.015-4.529,5.63-4.529c12.304,0,24.613,0,36.925,0.007
		c0.673,0,1.351,0.066,2.029,0.104C395.704,184.092,395.704,188.065,395.704,192.032z"/>
</g>
<g>
	<path fill="#FFFFFF" d="M164.922,123.065c1.516-3.074,2.696-6.387,4.646-9.163c2.646-3.765,6.711-5.642,11.26-6.277
		c1.527-0.22,3.093-0.202,4.639-0.202c39.438-0.012,78.875,0.013,118.307-0.036c6.528-0.007,11.963,2.022,16.059,7.249
		c2.566,3.264,3.809,6.986,3.819,11.081c0.031,16.688,0.014,33.381,0.007,50.067c0,0.214-0.079,0.422-0.152,0.782
		c-4.089,0-8.19,0-12.543,0c0-13.186,0-26.357,0-39.719c-44.499,0-88.753,0-133.123,0c0,69.835,0,139.585,0,209.505
		c44.26,0,88.447,0,132.971,0c0-12.249,0-24.523,0-36.962c4.4,0,8.483,0,12.744,0c0.037,0.795,0.11,1.51,0.11,2.219
		c0.006,16.474,0.023,32.934,0,49.407c-0.007,9.786-5.294,16.938-14.182,19.113c-1.768,0.435-3.655,0.502-5.488,0.502
		c-39.652,0.029-79.311,0-118.968,0.049c-5.312,0.006-10.042-1.254-14.046-4.859c-2.47-2.23-4.089-4.976-5.135-8.104
		c-0.299-0.911-0.617-1.811-0.923-2.714C164.922,284.354,164.922,203.713,164.922,123.065z M235.173,362.332
		c0.018,5.036,4.125,9.192,9.101,9.212c5.006,0.023,9.311-4.304,9.285-9.335c-0.024-5.006-4.114-9.089-9.169-9.138
		C239.194,353.022,235.154,357.068,235.173,362.332z M244.225,125.07c0-0.006,0-0.018,0-0.018c6.345,0,12.685,0,19.028-0.007
		c1.498,0,2.763-0.494,2.714-2.182c-0.049-1.577-1.216-2.243-2.745-2.262c-0.367-0.006-0.739-0.013-1.105-0.013
		c-11.877,0-23.747,0-35.617,0.013c-0.729,0-1.498-0.024-2.188,0.184c-1.687,0.495-2.272,2.702-0.923,3.637
		c0.703,0.501,1.785,0.618,2.702,0.618C232.135,125.095,238.18,125.07,244.225,125.07z"/>
	<path fill="#FFFFFF" d="M405.704,182.032c-10.947-0.019-21.896-0.019-32.836-0.08c-1.418-0.006-1.333,0.997-1.511,1.81
		c-1.718,7.688-3.393,15.385-5.098,23.074c-3.533,15.99-7.091,31.987-10.624,47.978c-1.405,6.362-2.799,12.726-4.144,19.106
		c-0.238,1.149-0.68,1.546-1.896,1.546c-32.793-0.029-65.58-0.029-98.368,0c-1.161,0-1.681-0.305-1.943-1.503
		c-2.396-10.96-4.859-21.913-7.299-32.86c-3.332-14.939-6.662-29.872-9.987-44.812c-0.324-1.473-0.6-2.958-0.917-4.547
		c38.056,0,75.904,0,113.991,0c-0.983,3.826-1.912,7.494-2.909,11.144c-0.079,0.306-0.6,0.599-0.967,0.69
		c-0.481,0.122-1.015,0.037-1.521,0.037c-30.41,0.006-60.813,0.006-91.217,0.012c-0.776,0-1.546,0.073-2.519,0.128
		c0.837,3.724,1.639,7.25,2.415,10.771c3.49,15.703,6.992,31.418,10.421,47.139c0.313,1.449,0.845,1.913,2.329,1.907
		c26.149-0.043,52.305-0.036,78.454-0.012c1.302,0,2.029-0.208,2.347-1.688c2.372-11.025,4.823-22.028,7.244-33.044
		c3.991-18.099,7.971-36.198,11.969-54.291c0.995-4.529,1.015-4.529,5.63-4.529c12.304,0,24.613,0,36.925,0.007
		c0.673,0,1.351,0.066,2.029,0.104C405.704,174.092,405.704,178.065,405.704,182.032z"/>
</g>
</svg>
