<?xml version="1.0" encoding="utf-8"?>
<!-- Generator: Adobe Illustrator 16.0.0, SVG Export Plug-In . SVG Version: 6.00 Build 0)  -->
<!DOCTYPE svg PUBLIC "-//W3C//DTD SVG 1.1//EN" "http://www.w3.org/Graphics/SVG/1.1/DTD/svg11.dtd">
<svg version="1.1" id="Layer_1" xmlns="http://www.w3.org/2000/svg" xmlns:xlink="http://www.w3.org/1999/xlink" x="0px" y="0px"
	 width="512px" height="512px" viewBox="0 0 512 512" enable-background="new 0 0 512 512" xml:space="preserve">
<g>
	<g>
		
			<linearGradient id="SVGID_1_" gradientUnits="userSpaceOnUse" x1="78.5876" y1="399.5398" x2="394.6607" y2="83.4667" gradientTransform="matrix(1 0 0 -1 24.9448 503.3589)">
			<stop  offset="0" style="stop-color:#FF00FF"/>
			<stop  offset="1" style="stop-color:#FF006F"/>
		</linearGradient>
		<path fill="url(#SVGID_1_)" d="M484.169,259.455c0,124.262-100.733,225-225,225c-124.268,0-225-100.738-225-225
			c0-124.267,100.732-225,225-225C383.436,34.455,484.169,135.188,484.169,259.455z"/>
		
			<linearGradient id="SVGID_2_" gradientUnits="userSpaceOnUse" x1="128.2771" y1="427.4089" x2="340.1703" y2="60.3989" gradientTransform="matrix(1 0 0 -1 24.9448 503.3589)">
			<stop  offset="0" style="stop-color:#FF006F"/>
			<stop  offset="0.6601" style="stop-color:#FF007F"/>
			<stop  offset="1" style="stop-color:#FF00FF"/>
		</linearGradient>
		<circle fill="url(#SVGID_2_)" cx="259.169" cy="259.455" r="211.858"/>
	</g>
</g>
<g opacity="0.3">
	<path d="M192.042,388.173c0-3.105,0-6.003,0-9.169c10.538,0,20.917,0,31.497,0c0-10.667,0-21.039,0-31.742
		c-1.052-0.043-2.134-0.135-3.209-0.135c-27.312-0.007-54.615-0.221-81.919,0.104c-9.774,0.122-19.396-8.252-21.841-15.813
		c-0.514-1.613-0.801-3.368-0.801-5.067c-0.037-55.979-0.031-111.98-0.049-167.964c0-3.949,1.455-7.226,4.132-9.981
		c3.979-4.108,8.875-6.479,14.555-7.079c2.562-0.269,5.158-0.208,7.744-0.208c78.387-0.006,156.767-0.006,235.153-0.006
		c1.467,0,2.928-0.018,4.396,0.019c7.813,0.185,12.061,3.979,13.074,11.772c0.264,2.048,0.392,4.126,0.392,6.18
		c0.023,55.558,0.072,111.119-0.085,166.676c-0.02,4.548-0.979,9.255-2.396,13.601c-1.735,5.336-5.838,7.842-11.718,7.813
		c-28.942-0.11-57.885-0.05-86.821-0.05c-1.111,0-2.225,0-3.545,0c0,10.647,0,21.082,0,31.772c10.366,0,20.672,0,31.229,0
		c0,3.185,0,6.125,0,9.279C278.655,388.173,235.458,388.173,192.042,388.173z M138.136,163.397c0,42.323,0,84.462,0,126.527
		c78.38,0,156.522,0,234.67,0c0-42.292,0-84.363,0-126.527C294.438,163.397,216.284,163.397,138.136,163.397z"/>
	<path d="M332.207,219.681c7.017,0,13.771,0,20.685,0c0,21.442,0,42.731,0,64.249c-6.896,0-13.704,0-20.685,0
		C332.207,262.535,332.207,241.246,332.207,219.681z"/>
	<path d="M325.984,239.461c0,14.849,0,29.529,0,44.384c-0.63,0.115-1.197,0.286-1.754,0.286c-5.673,0.024-11.352,0-17.028,0.031
		c-1.396,0.006-2.237-0.184-2.231-1.938c0.067-13.931,0.049-27.866,0.063-41.804c0-0.245,0.085-0.501,0.177-0.96
		C312.012,239.461,318.852,239.461,325.984,239.461z"/>
	<path d="M285.557,232.23c-2.47-2.323-4.518-4.254-6.437-6.07c8.691-8.637,17.272-17.176,26.052-25.929
		c2.769,2.598,5.758,5.409,8.997,8.472c8.509-8.203,16.956-16.369,25.587-24.694c-1.119-1.289-2.158-2.476-3.423-3.937
		c5.642-0.966,10.953-1.889,16.767-2.897c-1.076,5.729-2.091,11.053-3.197,16.878c-1.355-1.278-2.384-2.237-3.723-3.484
		c-10.623,10.422-21.223,20.801-31.992,31.369c-3.239-3.068-6.333-6.008-9.554-9.064
		C298.179,219.424,291.846,225.836,285.557,232.23z"/>
	<path d="M298.582,283.99c-6.877,0-13.545,0-20.386,0c0-10.085,0-20.018,0-30.116c6.791,0,13.479,0,20.386,0
		C298.582,263.874,298.582,273.789,298.582,283.99z"/>
	<path d="M161.804,281.796c2.848-0.897,5.495-1.741,8.227-2.609c-2.219-1.674-4.027-3.043-6.253-4.73
		c1.235-0.544,1.73-0.758,1.815-0.795c-1.375-1.889-2.775-3.796-4.175-5.703c0.194-0.194,0.385-0.396,0.581-0.586
		c0.636,0,1.253,0,2.108,0c-1.956-2.58-3.001-5.074-1.319-8.308c3.862,3.771,8.142,6.425,13.716,6.675
		c0.08-0.727,0.141-1.387,0.214-2.047c0.458-4.585,5.153-7.563,9.261-5.496c2.072,1.04,3.838,1.528,6.223,0.728
		c-0.458,0.729-0.924,1.455-1.491,2.354c0.66,0,1.247,0,1.956,0c-0.091,0.367-0.079,0.673-0.227,0.789
		c-1.711,1.362-2.145,3.129-2.451,5.293c-1.999,13.813-15.03,19.872-26.864,15.159C162.678,282.334,162.256,282.053,161.804,281.796
		z"/>
	<path d="M180.813,191.313c-2.286,0-4.334,0-6.639,0c-0.067-1.37-0.122-2.524-0.201-4.114c3.734,0,7.304-0.049,10.874,0.08
		c0.36,0.012,0.979,1.07,1.002,1.65c0.3,6.76-4.59,12.065-11.229,12.292c-6.986,0.243-12.659-4.799-13.025-11.571
		c-0.361-6.833,4.627-12.714,11.112-13.172c3.411-0.232,6.448,0.604,9.113,2.774c-1.589,3.172-2.12,3.398-5.177,2.292
		c-4.149-1.498-8.301,0.379-9.89,4.487c-1.546,3.985,0.367,8.417,4.328,10.042c3.845,1.583,7.867,0.067,9.548-3.612
		C180.734,192.254,180.722,191.985,180.813,191.313z"/>
	<path d="M239.028,270.391c-1.632,0.092-2.812,0.157-4.254,0.237c0,4.376,0,8.648,0,13.104c-2.011,0-3.771,0-5.917,0
		c0-4.268,0-8.594,0-12.964c-1.204-0.172-2.028-0.275-3.025-0.429c0-1.356,0-2.678,0-4.113c0.911-0.146,1.735-0.281,2.042-0.324
		c0.966-2.683,1.174-5.983,2.873-7.212c2.005-1.443,5.312-1.095,8.35-1.565c0,1.883,0,3.186,0,4.48
		c-4.633,0.893-4.633,0.893-4.083,4.242c1.271,0.086,2.616,0.177,4.224,0.28C239.169,267.578,239.096,268.898,239.028,270.391z"/>
	<path d="M189.273,241.558c-1.785,0-3.129,0-4.901,0c0-2.042,0.019-3.979-0.006-5.917c-0.03-1.204-0.043-2.414-0.195-3.606
		c-0.208-1.546-1.125-2.799-2.72-2.365c-1.095,0.293-2.542,1.381-2.77,2.359c-0.477,2.048-0.269,4.267-0.317,6.406
		c-0.023,0.935-0.006,1.871-0.006,3.007c-1.595,0-3.001,0-4.597,0c0-5.202,0-10.403,0-15.587c2.983-0.751,3.802-0.629,4.994,0.893
		c0.709-0.422,1.399-0.917,2.158-1.265c3.667-1.699,7.806,0.354,8.196,4.248c0.287,2.896,0.135,5.837,0.165,8.759
		C189.291,239.418,189.273,240.348,189.273,241.558z"/>
	<path d="M246.754,186.937c0,4.621,0,9.248,0,14.053c-9.92,0-19.847,0-29.957,0c0-7.194,0-14.303,0-21.62c7.115,0,14.229,0,21.345,0
		c0.006,0.313,0.012,0.611,0.019,0.917c-1.858,0.08-3.717,0.189-5.594,0.228c-2.15,0.029-4.303,0.006-6.455,0.006
		c-2.054,0-4.107,0-6.979,0c4.285,4.792,8.124,9.095,12.146,13.594c2.946-2.934,5.794-5.764,8.644-8.6
		c0.274,0.269,0.544,0.538,0.801,0.807c-3.075,3.179-6.155,6.351-9.395,9.688c-4.353-4.835-8.533-9.486-13.1-14.56
		c0,6.326,0,12.139,0,18.178c8.998,0,18.057,0,27.702,0c0-4.235,0-8.483,0-12.726C246.21,186.912,246.479,186.918,246.754,186.937z"
		/>
	<path d="M220.141,230.574c0-1.632-0.079-3.276,0.006-4.909c0.238-3.955,3.38-7.17,7.329-7.341c3.351-0.146,6.712-0.146,10.067,0
		c3.931,0.171,7.14,3.374,7.329,7.341c0.165,3.271,0.158,6.547,0.018,9.806c-0.177,4.155-3.454,7.371-7.731,7.561
		c-3.094,0.141-6.198,0.141-9.285,0c-4.486-0.202-7.635-3.57-7.75-8.068c-0.031-1.461-0.006-2.928-0.006-4.389
		C220.123,230.574,220.135,230.574,220.141,230.574z M222.176,230.562c0,1.369-0.024,2.75,0.012,4.126
		c0.092,3.594,2.316,6.088,5.856,6.271c3.013,0.152,6.039,0.152,9.027-0.006c3.209-0.177,5.581-2.476,5.74-5.593
		c0.165-3.186,0.171-6.375-0.012-9.547c-0.184-3.154-2.646-5.318-5.825-5.453c-1.541-0.079-3.104,0.055-4.646-0.036
		C223.784,219.81,221.657,222.047,222.176,230.562z"/>
	<path d="M170.208,241.49c-0.923,0.086-1.424,0.147-1.919,0.159c-0.851,0.019-1.711,0.006-2.806,0.006c0-5.397,0-10.629,0-15.984
		c0.379-0.072,0.696-0.183,1.021-0.195c3.698-0.171,3.698-0.165,3.704,3.46C170.208,233.037,170.208,237.145,170.208,241.49z"/>
	<path d="M193.594,183.404c1.07,0,2.048,0,3.167,0c0.104,1.1,0.189,2.096,0.299,3.24c1.088,0.116,2.079,0.214,3.24,0.33
		c0,1.045,0,2.028,0,3.209c-0.947,0.109-1.938,0.22-3.172,0.359c-0.123,1.016-0.257,2.066-0.403,3.265c-1.07,0-2.048,0-3.167,0
		c-0.11-1.113-0.202-2.109-0.312-3.252c-1.059-0.104-2.061-0.208-3.24-0.33c0-1.021,0-1.999,0-3.179
		c0.978-0.109,1.962-0.237,3.167-0.385C193.301,185.653,193.441,184.589,193.594,183.404z"/>
	<path d="M248.539,181.087c-0.019,2.556-2.097,4.572-4.621,4.476c-2.445-0.086-4.297-2.055-4.285-4.523
		c0.012-2.48,1.9-4.425,4.346-4.479C246.485,176.497,248.552,178.55,248.539,181.087z M244.206,177.371
		c-0.495,1.51-0.752,2.312-0.984,3.026c-0.819,0.165-1.504,0.306-2.188,0.452c-0.007,0.141-0.007,0.269-0.013,0.416
		c0.765,0.189,1.534,0.391,2.269,0.574c0.231,0.789,0.453,1.522,0.667,2.269c0.122-0.024,0.25-0.042,0.379-0.073
		c0.122-0.732,0.238-1.467,0.354-2.146c0.862-0.25,1.603-0.472,2.329-0.679c-0.023-0.141-0.037-0.28-0.066-0.416
		c-0.703-0.141-1.432-0.27-2.25-0.416C244.572,179.62,244.456,178.88,244.206,177.371z"/>
	<path d="M167.684,217.279c1.828,0.153,2.885,1.088,2.892,2.934c0,1.853-1.07,2.903-2.886,2.897
		c-1.791-0.006-2.854-1.002-2.848-2.897C164.848,218.324,165.899,217.438,167.684,217.279z"/>
	<path d="M232.745,224.516c3.337,0.109,6.009,2.916,5.947,6.229c-0.08,3.399-3.063,6.216-6.418,6.064
		c-3.324-0.159-5.959-2.965-5.911-6.29C226.418,227.071,229.254,224.406,232.745,224.516z M232.439,226.594
		c-2.219,0.043-4.07,1.968-3.998,4.169c0.086,2.09,1.919,3.894,4.017,3.924c2.182,0.029,4.138-1.89,4.12-4.065
		C236.571,228.422,234.64,226.552,232.439,226.594z"/>
	<path d="M239.945,223.129c-1.058,0.722-1.662,1.431-2.164,1.369c-0.544-0.08-0.978-0.887-1.454-1.375
		c0.445-0.428,0.88-1.204,1.345-1.216C238.24,221.875,238.833,222.493,239.945,223.129z"/>
</g>
<g>
	<path fill="#FFFFFF" d="M202.042,378.173c0-3.105,0-6.003,0-9.169c10.538,0,20.917,0,31.497,0c0-10.667,0-21.039,0-31.742
		c-1.052-0.043-2.134-0.135-3.209-0.135c-27.312-0.007-54.615-0.221-81.919,0.104c-9.774,0.122-19.396-8.252-21.841-15.813
		c-0.514-1.613-0.801-3.368-0.801-5.067c-0.037-55.979-0.031-111.98-0.049-167.964c0-3.949,1.455-7.226,4.132-9.981
		c3.979-4.108,8.875-6.479,14.555-7.079c2.562-0.269,5.158-0.208,7.744-0.208c78.387-0.006,156.767-0.006,235.153-0.006
		c1.467,0,2.928-0.018,4.396,0.019c7.813,0.185,12.061,3.979,13.074,11.772c0.264,2.048,0.392,4.126,0.392,6.18
		c0.023,55.558,0.072,111.119-0.085,166.676c-0.02,4.548-0.979,9.255-2.396,13.601c-1.735,5.336-5.838,7.842-11.718,7.813
		c-28.942-0.11-57.885-0.05-86.821-0.05c-1.111,0-2.225,0-3.545,0c0,10.647,0,21.082,0,31.772c10.366,0,20.672,0,31.229,0
		c0,3.185,0,6.125,0,9.279C288.655,378.173,245.458,378.173,202.042,378.173z M148.136,153.397c0,42.323,0,84.462,0,126.527
		c78.38,0,156.522,0,234.67,0c0-42.292,0-84.363,0-126.527C304.438,153.397,226.284,153.397,148.136,153.397z"/>
	<path fill="#FFFFFF" d="M342.207,209.681c7.017,0,13.771,0,20.685,0c0,21.442,0,42.731,0,64.249c-6.896,0-13.704,0-20.685,0
		C342.207,252.535,342.207,231.246,342.207,209.681z"/>
	<path fill="#FFFFFF" d="M335.984,229.461c0,14.849,0,29.529,0,44.384c-0.63,0.115-1.197,0.286-1.754,0.286
		c-5.673,0.024-11.352,0-17.028,0.031c-1.396,0.006-2.237-0.184-2.231-1.938c0.067-13.931,0.049-27.866,0.063-41.804
		c0-0.245,0.085-0.501,0.177-0.96C322.012,229.461,328.852,229.461,335.984,229.461z"/>
	<path fill="#FFFFFF" d="M295.557,222.23c-2.47-2.323-4.518-4.254-6.437-6.07c8.691-8.637,17.272-17.176,26.052-25.929
		c2.769,2.598,5.758,5.409,8.997,8.472c8.509-8.203,16.956-16.369,25.587-24.694c-1.119-1.289-2.158-2.476-3.423-3.937
		c5.642-0.966,10.953-1.889,16.767-2.897c-1.076,5.729-2.091,11.053-3.197,16.878c-1.355-1.278-2.384-2.237-3.723-3.484
		c-10.623,10.422-21.223,20.801-31.992,31.369c-3.239-3.068-6.333-6.008-9.554-9.064
		C308.179,209.424,301.846,215.836,295.557,222.23z"/>
	<path fill="#FFFFFF" d="M308.582,273.99c-6.877,0-13.545,0-20.386,0c0-10.085,0-20.018,0-30.116c6.791,0,13.479,0,20.386,0
		C308.582,253.874,308.582,263.789,308.582,273.99z"/>
	<path fill="#FFFFFF" d="M171.804,271.796c2.848-0.897,5.495-1.741,8.227-2.609c-2.219-1.674-4.027-3.043-6.253-4.73
		c1.235-0.544,1.73-0.758,1.815-0.795c-1.375-1.889-2.775-3.796-4.175-5.703c0.194-0.194,0.385-0.396,0.581-0.586
		c0.636,0,1.253,0,2.108,0c-1.956-2.58-3.001-5.074-1.319-8.308c3.862,3.771,8.142,6.425,13.716,6.675
		c0.08-0.727,0.141-1.387,0.214-2.047c0.458-4.585,5.153-7.563,9.261-5.496c2.072,1.04,3.838,1.528,6.223,0.728
		c-0.458,0.729-0.924,1.455-1.491,2.354c0.66,0,1.247,0,1.956,0c-0.091,0.367-0.079,0.673-0.227,0.789
		c-1.711,1.362-2.145,3.129-2.451,5.293c-1.999,13.813-15.03,19.872-26.864,15.159C172.678,272.334,172.256,272.053,171.804,271.796
		z"/>
	<path fill="#FFFFFF" d="M190.813,181.313c-2.286,0-4.334,0-6.639,0c-0.067-1.37-0.122-2.524-0.201-4.114
		c3.734,0,7.304-0.049,10.874,0.08c0.36,0.012,0.979,1.07,1.002,1.65c0.3,6.76-4.59,12.065-11.229,12.292
		c-6.986,0.243-12.659-4.799-13.025-11.571c-0.361-6.833,4.627-12.714,11.112-13.172c3.411-0.232,6.448,0.604,9.113,2.774
		c-1.589,3.172-2.12,3.398-5.177,2.292c-4.149-1.498-8.301,0.379-9.89,4.487c-1.546,3.985,0.367,8.417,4.328,10.042
		c3.845,1.583,7.867,0.067,9.548-3.612C190.734,182.254,190.722,181.985,190.813,181.313z"/>
	<path fill="#FFFFFF" d="M249.028,260.391c-1.632,0.092-2.812,0.157-4.254,0.237c0,4.376,0,8.648,0,13.104c-2.011,0-3.771,0-5.917,0
		c0-4.268,0-8.594,0-12.964c-1.204-0.172-2.028-0.275-3.025-0.429c0-1.356,0-2.678,0-4.113c0.911-0.146,1.735-0.281,2.042-0.324
		c0.966-2.683,1.174-5.983,2.873-7.212c2.005-1.443,5.312-1.095,8.35-1.565c0,1.883,0,3.186,0,4.48
		c-4.633,0.893-4.633,0.893-4.083,4.242c1.271,0.086,2.616,0.177,4.224,0.28C249.169,257.578,249.096,258.898,249.028,260.391z"/>
	<path fill="#FFFFFF" d="M199.273,231.558c-1.785,0-3.129,0-4.901,0c0-2.042,0.019-3.979-0.006-5.917
		c-0.03-1.204-0.043-2.414-0.195-3.606c-0.208-1.546-1.125-2.799-2.72-2.365c-1.095,0.293-2.542,1.381-2.77,2.359
		c-0.477,2.048-0.269,4.267-0.317,6.406c-0.023,0.935-0.006,1.871-0.006,3.007c-1.595,0-3.001,0-4.597,0c0-5.202,0-10.403,0-15.587
		c2.983-0.751,3.802-0.629,4.994,0.893c0.709-0.422,1.399-0.917,2.158-1.265c3.667-1.699,7.806,0.354,8.196,4.248
		c0.287,2.896,0.135,5.837,0.165,8.759C199.291,229.418,199.273,230.348,199.273,231.558z"/>
	<path fill="#FFFFFF" d="M256.754,176.937c0,4.621,0,9.248,0,14.053c-9.92,0-19.847,0-29.957,0c0-7.194,0-14.303,0-21.62
		c7.115,0,14.229,0,21.345,0c0.006,0.313,0.012,0.611,0.019,0.917c-1.858,0.08-3.717,0.189-5.594,0.228
		c-2.15,0.029-4.303,0.006-6.455,0.006c-2.054,0-4.107,0-6.979,0c4.285,4.792,8.124,9.095,12.146,13.594
		c2.946-2.934,5.794-5.764,8.644-8.6c0.274,0.269,0.544,0.538,0.801,0.807c-3.075,3.179-6.155,6.351-9.395,9.688
		c-4.353-4.835-8.533-9.486-13.1-14.56c0,6.326,0,12.139,0,18.178c8.998,0,18.057,0,27.702,0c0-4.235,0-8.483,0-12.726
		C256.21,176.912,256.479,176.918,256.754,176.937z"/>
	<path fill="#FFFFFF" d="M230.141,220.574c0-1.632-0.079-3.276,0.006-4.909c0.238-3.955,3.38-7.17,7.329-7.341
		c3.351-0.146,6.712-0.146,10.067,0c3.931,0.171,7.14,3.374,7.329,7.341c0.165,3.271,0.158,6.547,0.018,9.806
		c-0.177,4.155-3.454,7.371-7.731,7.561c-3.094,0.141-6.198,0.141-9.285,0c-4.486-0.202-7.635-3.57-7.75-8.068
		c-0.031-1.461-0.006-2.928-0.006-4.389C230.123,220.574,230.135,220.574,230.141,220.574z M232.176,220.562
		c0,1.369-0.024,2.75,0.012,4.126c0.092,3.594,2.316,6.088,5.856,6.271c3.013,0.152,6.039,0.152,9.027-0.006
		c3.209-0.177,5.581-2.476,5.74-5.593c0.165-3.186,0.171-6.375-0.012-9.547c-0.184-3.154-2.646-5.318-5.825-5.453
		c-1.541-0.079-3.104,0.055-4.646-0.036C233.784,209.81,231.657,212.047,232.176,220.562z"/>
	<path fill="#FFFFFF" d="M180.208,231.49c-0.923,0.086-1.424,0.147-1.919,0.159c-0.851,0.019-1.711,0.006-2.806,0.006
		c0-5.397,0-10.629,0-15.984c0.379-0.072,0.696-0.183,1.021-0.195c3.698-0.171,3.698-0.165,3.704,3.46
		C180.208,223.037,180.208,227.145,180.208,231.49z"/>
	<path fill="#FFFFFF" d="M203.594,173.404c1.07,0,2.048,0,3.167,0c0.104,1.1,0.189,2.096,0.299,3.24
		c1.088,0.116,2.079,0.214,3.24,0.33c0,1.045,0,2.028,0,3.209c-0.947,0.109-1.938,0.22-3.172,0.359
		c-0.123,1.016-0.257,2.066-0.403,3.265c-1.07,0-2.048,0-3.167,0c-0.11-1.113-0.202-2.109-0.312-3.252
		c-1.059-0.104-2.061-0.208-3.24-0.33c0-1.021,0-1.999,0-3.179c0.978-0.109,1.962-0.237,3.167-0.385
		C203.301,175.653,203.441,174.589,203.594,173.404z"/>
	<path fill="#FFFFFF" d="M258.539,171.087c-0.019,2.556-2.097,4.572-4.621,4.476c-2.445-0.086-4.297-2.055-4.285-4.523
		c0.012-2.48,1.9-4.425,4.346-4.479C256.485,166.497,258.552,168.55,258.539,171.087z M254.206,167.371
		c-0.495,1.51-0.752,2.312-0.984,3.026c-0.819,0.165-1.504,0.306-2.188,0.452c-0.007,0.141-0.007,0.269-0.013,0.416
		c0.765,0.189,1.534,0.391,2.269,0.574c0.231,0.789,0.453,1.522,0.667,2.269c0.122-0.024,0.25-0.042,0.379-0.073
		c0.122-0.732,0.238-1.467,0.354-2.146c0.862-0.25,1.603-0.472,2.329-0.679c-0.023-0.141-0.037-0.28-0.066-0.416
		c-0.703-0.141-1.432-0.27-2.25-0.416C254.572,169.62,254.456,168.88,254.206,167.371z"/>
	<path fill="#FFFFFF" d="M177.684,207.279c1.828,0.153,2.885,1.088,2.892,2.934c0,1.853-1.07,2.903-2.886,2.897
		c-1.791-0.006-2.854-1.002-2.848-2.897C174.848,208.324,175.899,207.438,177.684,207.279z"/>
	<path fill="#FFFFFF" d="M242.745,214.516c3.337,0.109,6.009,2.916,5.947,6.229c-0.08,3.399-3.063,6.216-6.418,6.064
		c-3.324-0.159-5.959-2.965-5.911-6.29C236.418,217.071,239.254,214.406,242.745,214.516z M242.439,216.594
		c-2.219,0.043-4.07,1.968-3.998,4.169c0.086,2.09,1.919,3.894,4.017,3.924c2.182,0.029,4.138-1.89,4.12-4.065
		C246.571,218.422,244.64,216.552,242.439,216.594z"/>
	<path fill="#FFFFFF" d="M249.945,213.129c-1.058,0.722-1.662,1.431-2.164,1.369c-0.544-0.08-0.978-0.887-1.454-1.375
		c0.445-0.428,0.88-1.204,1.345-1.216C248.24,211.875,248.833,212.493,249.945,213.129z"/>
</g>
</svg>
