<?xml version="1.0" encoding="utf-8"?>
<!-- Generator: Adobe Illustrator 16.0.0, SVG Export Plug-In . SVG Version: 6.00 Build 0)  -->
<!DOCTYPE svg PUBLIC "-//W3C//DTD SVG 1.1//EN" "http://www.w3.org/Graphics/SVG/1.1/DTD/svg11.dtd">
<svg version="1.1" id="Layer_1" xmlns="http://www.w3.org/2000/svg" xmlns:xlink="http://www.w3.org/1999/xlink" x="0px" y="0px"
	 width="512px" height="512px" viewBox="0 0 512 512" enable-background="new 0 0 512 512" xml:space="preserve">
<g>
	<g>
		<linearGradient id="SVGID_1_" gradientUnits="userSpaceOnUse" x1="100.9243" y1="99.9458" x2="416.9968" y2="416.0183">
			<stop  offset="0" style="stop-color:#FF7601"/>
			<stop  offset="1" style="stop-color:#FF0000"/>
		</linearGradient>
		<path fill="url(#SVGID_1_)" d="M481.559,255.581c0,124.261-100.733,225-225,225s-225-100.739-225-225
			c0-124.264,100.733-225,225-225S481.559,131.317,481.559,255.581z"/>
		<linearGradient id="SVGID_2_" gradientUnits="userSpaceOnUse" x1="150.6113" y1="72.0771" x2="362.5068" y2="439.0909">
			<stop  offset="0" style="stop-color:#FF0000"/>
			<stop  offset="1" style="stop-color:#FF6301"/>
		</linearGradient>
		<path fill="url(#SVGID_2_)" d="M468.417,255.581c0,117.011-94.854,211.864-211.858,211.864S44.7,372.592,44.7,255.581
			c0-117.005,94.854-211.858,211.858-211.858S468.417,138.576,468.417,255.581z"/>
	</g>
</g>
<g>
	<path fill-rule="evenodd" clip-rule="evenodd" fill="#FFFFFF" d="M260.88,153.05c-36.381,0-72.549,0-109.089,0
		c-0.214,1.852-0.544,3.478-0.55,5.123c-0.031,19.297,0.116,38.606-0.104,57.891c-0.061,4.743,1.418,6.216,6.167,6.161
		c19.511-0.226,39.028-0.33,58.527,0.128c3.747,0.086,8.606,1.938,10.88,4.676c5.061,6.106-0.006,14.75-8.576,14.988
		c-12.286,0.324-24.591,0.128-36.895,0.134c-12.72,0.006-25.458,0.092-38.167-0.037c-8.411-0.098-11.98-3.643-12.011-12.127
		c-0.098-28.423-0.098-56.846,0-85.266c0.03-8.386,3.71-12.234,11.999-12.25c42.2-0.095,84.407-0.095,126.602,0.009
		c7.738,0.024,11.32,3.594,11.778,11.201c0.244,4.224,0.251,8.5-0.085,12.711c-0.557,6.62-4.242,10.196-9.951,10.196
		c-5.41,0-9.035-3.405-10.043-9.493C261.161,155.887,261.063,154.64,260.88,153.05z"/>
	<path fill-rule="evenodd" clip-rule="evenodd" fill="#FFFFFF" d="M177.537,197.054c2.738,1.259,4.768,2.512,6.968,3.129
		c3.411,0.96,6.938,1.926,10.428,1.975c1.534,0.012,3.105-2.237,4.664-3.448c-1.192-1.503-2.079-3.63-3.619-4.352
		c-3.619-1.699-7.585-2.659-11.345-4.04c-5.819-2.133-9.859-5.789-10.031-12.463c-0.171-6.418,2.94-10.648,8.558-13.637
		c1.828-0.978,2.714-3.618,4.193-5.36c1.143-1.351,2.409-3.319,3.827-3.521c1.375-0.208,4.303,1.412,4.364,2.384
		c0.349,5.599,5.019,5.868,8.417,8.038c2.06,1.345,3.068,4.315,4.554,6.552c-2.372,1.009-4.805,2.928-7.109,2.788
		c-3.472-0.238-6.797-2.433-10.281-2.732c-1.742-0.159-3.686,2.036-5.526,3.154c1.253,1.663,2.152,4.028,3.827,4.847
		c3.576,1.748,7.567,2.641,11.351,3.998c5.947,2.121,9.725,6.173,9.737,12.671c0.019,6.559-3.3,11.021-9.358,13.814
		c-2.054,0.954-3.301,3.527-5.037,5.214c-1.4,1.363-3.038,3.527-4.499,3.472c-1.485-0.073-4.016-2.329-4.107-3.759
		c-0.238-3.838-2.543-4.7-5.434-5.825c-2.714-1.039-5.464-2.463-7.567-4.389c-1.057-0.959-1.381-3.649-0.837-5.128
		C174.193,198.992,176.229,198.111,177.537,197.054z"/>
</g>
<g>
	<path fill-rule="evenodd" clip-rule="evenodd" fill="#FFFFFF" d="M322.371,297.806c-22.151,0-44.297,0.153-66.46-0.055
		c-13.704-0.122-22.451-9.364-22.451-23.057c0-28.337,0.464-56.668-0.256-84.975c-0.245-9.407,10.868-21.131,19.639-21.21
		c9.083-0.073,18.154-0.538,27.231-0.556c32.14-0.08,64.285-0.073,96.418-0.024c4.713,0,9.444,0.214,14.132,0.654
		c12.83,1.186,20.807,10.178,20.807,23.215c0,27.788,0,55.568,0,83.337c0,12.714-9.205,22.438-22.06,22.562
		c-22.329,0.238-44.663,0.073-66.999,0.073C322.371,297.775,322.371,297.794,322.371,297.806z M399.364,215.948
		c-2.427,0-4.205,0-5.978,0c-37.415,0-74.842,0-112.25,0.024c-9.811,0.006-19.621,0.134-29.432,0.171
		c-2.817,0.006-4.853,0.416-4.811,4.132c0.263,17.977,0.171,35.959,0.532,53.931c0.134,7.097,3.166,9.56,10.312,9.578
		c21.986,0.012,43.967,0.042,65.941-0.019c22.164-0.049,44.315-0.165,66.485-0.336c5.538-0.043,9.113-2.959,9.15-7.818
		C399.45,256.015,399.364,236.394,399.364,215.948z M399.156,193.863c0.178-8.02-2.011-10.617-9.059-11.21
		c-2.176-0.178-4.358-0.257-6.528-0.257c-42.14-0.061-84.272-0.116-126.399-0.141c-7.042,0-10.458,4.175-9.652,11.607
		C297.958,193.863,348.404,193.863,399.156,193.863z"/>
	<path fill-rule="evenodd" clip-rule="evenodd" fill="#FFFFFF" d="M282.445,269.646c-8.094,6.198-16.59,6.088-22.207-0.049
		c-4.908-5.354-5.122-14.064-0.489-19.413c5.984-6.876,13.814-7.182,22.751-0.886c10.024-6.027,17.989-5.715,23.197,0.886
		c4.639,5.917,4.376,14.071-0.643,19.37C299.07,275.868,291.559,275.96,282.445,269.646z"/>
</g>
<g>
	<path fill-rule="evenodd" clip-rule="evenodd" fill="#FFFFFF" d="M196.534,294.816c0.116,5.099,0.293,10.19,0.33,15.288
		c0.049,6.919,0.055,13.839-0.049,20.752c-0.214,13.648-7.048,23.44-19.939,27.885c-12.433,4.278-25.196,4.242-37.647,0.428
		c-14.26-4.383-21.094-14.261-21.308-29.859c-0.208-14.908-0.055-29.816,0.024-44.725c0.03-6.18,1.999-8.16,8.074-8.338
		c3.332-0.092,6.699-0.189,10,0.141c4.389,0.44,6.455,2.708,6.479,7.066c0.067,14.676,0.159,29.346-0.08,44.01
		c-0.134,8.02,3.283,12.476,11.271,13.013c3.301,0.221,6.711,0.178,9.945-0.421c6.015-1.119,8.704-4.646,8.716-10.771
		c0.019-13.832,0-27.671-0.037-41.51c-0.03-10.397,1.583-11.962,12.091-11.498l-0.062-0.073c0.128,0.679,0.361,1.369,0.367,2.048
		c0.012,3.888-0.086,7.775-0.024,11.669c0.049,3.111,1.125,5.202,4.865,4.872c2.329-0.215,4.694,0.055,7.042,0.104L196.534,294.816z
		"/>
	<path fill-rule="evenodd" clip-rule="evenodd" fill="#FFFFFF" d="M184.407,276.277c0.122-5.269,0.801-5.935,6.063-5.935
		c4.762,0,9.535,0.085,14.303-0.013c3.142-0.066,4.658,1.314,4.651,4.45c-0.006,5.122,0.08,10.244-0.024,15.373
		c-0.08,3.839-1.149,4.755-5.012,4.743c-2.622-0.006-5.238-0.049-7.854-0.073c0-0.007,0.061,0.073,0.061,0.073
		c0.012-3.698,0.067-7.396,0.012-11.088c-0.055-4.432-1.284-6.088-5.538-6.986c-2.188-0.465-4.48-0.429-6.724-0.618L184.407,276.277
		z"/>
	<path fill-rule="evenodd" clip-rule="evenodd" fill="#FFFFFF" d="M209.333,263.179c0.085-8.209-0.819-7.243,7.158-7.316
		c8.637-0.073,7.164,0.208,7.194,7.041c0.043,7.824,1.063,7.488-7.433,7.524C207.934,270.459,209.548,270.526,209.333,263.179z"/>
	<path fill-rule="evenodd" clip-rule="evenodd" fill="#FFFFFF" d="M199.505,250.972c0.012-4.817,0.012-4.817,4.884-4.798
		c5.055,0.019,5.055,0.019,5.049,5.391c-0.006,4.633-0.024,4.365-6.192,4.719C198.558,256.553,199.578,253.552,199.505,250.972z"/>
</g>
<g>
	<path fill-rule="evenodd" clip-rule="evenodd" fill="#FFFFFF" d="M290.471,327.727c0-2.53,0.227-4.835-0.073-7.084
		c-0.294-2.213-1.327-2.837-3.582-2.837c-7.83-0.006-15.666,0-23.509-0.006c-2.023,0-2.023,0-2.029-2.06c0-2.342,0-4.683,0-7.104
		c0.636-0.03,1.088-0.079,1.54-0.079c8.46-0.006,16.932-0.073,25.386,0.043c3.16,0.036,6.143,0.929,8.404,3.411
		c1.803,1.986,2.702,4.419,2.763,6.986c0.196,8.35,0.257,16.699,0.232,25.055c-0.006,1.791-0.36,3.631-0.898,5.354
		c-1.271,4.096-4.285,6.247-8.447,6.815c-1.736,0.232-3.503,0.33-5.263,0.336c-6.369,0.037-12.751,0.067-19.12-0.024
		c-1.62-0.03-3.271-0.403-4.847-0.843c-3.607-1.003-5.643-3.601-6.522-7.104c-1.076-4.266-1.119-8.6,0.055-12.848
		c1.32-4.762,5.019-7.604,9.976-7.708c8.025-0.159,16.052-0.214,24.083-0.306C289.229,327.721,289.847,327.727,290.471,327.727z
		 M290.776,337.415c-8.631,0-16.926-0.024-25.22,0.019c-1.247,0.006-2.311,0.739-2.451,1.986c-0.202,1.76-0.257,3.594-0.031,5.354
		c0.214,1.638,1.406,2.519,3.075,2.524c7.048,0.043,14.101,0.055,21.143-0.013c1.577-0.012,2.885-0.813,3.057-2.549
		C290.587,342.378,290.636,340,290.776,337.415z"/>
	<path fill-rule="evenodd" clip-rule="evenodd" fill="#FFFFFF" d="M303.637,308.613c3.19,0,5.996,0,8.985,0c0,1.032,0,2.011,0,2.988
		c0,3.967-0.006,7.94,0.006,11.913c0.007,2.903,1.29,4.206,4.126,4.212c7.836,0,15.679,0,23.674,0c0-6.351,0-12.635,0-19.053
		c3.105,0,6.039,0,9.169,0c0,0.574,0,1.131,0,1.688c0,10.715,0.073,21.424-0.056,32.139c-0.024,2.396-0.568,4.823-1.148,7.17
		c-1.027,4.12-4.175,6.101-8.063,6.498c-4.34,0.439-8.741,0.349-13.111,0.397c-5.22,0.049-10.44,0.012-15.795,0.012
		c0-3.025,0-5.972,0-9.132c0.526-0.037,1.125-0.116,1.724-0.122c7.732-0.007,15.471,0,23.203-0.007c2.916,0,4.15-1.234,4.163-4.192
		c0.012-1.669,0-3.344,0-5.019c0-0.146-0.031-0.3-0.08-0.703c-0.525,0-1.075,0-1.619,0c-6.956,0-13.9,0.049-20.856-0.03
		c-1.998-0.03-4.059-0.227-5.99-0.739c-5.018-1.327-7.23-4.01-7.726-8.998C303.612,321.388,303.802,315.056,303.637,308.613z"/>
	<path fill-rule="evenodd" clip-rule="evenodd" fill="#FFFFFF" d="M217.653,337.402c0,6.455,0,12.708,0,19.064
		c-2.977,0-5.825,0-8.796,0c-0.024-0.501-0.067-1.008-0.067-1.51c-0.006-11.711-0.08-23.416,0.043-35.128
		c0.042-3.526,1.045-6.889,4.187-9.083c2.084-1.461,4.517-2.127,7.011-2.151c7.678-0.098,15.379-0.306,23.05,0.042
		c6.962,0.324,10.794,3.436,11.149,11.217c0.129,2.818,0.049,5.685-0.324,8.472c-0.733,5.508-5.012,8.589-10.354,8.747
		c-7.977,0.244-15.966,0.238-23.942,0.33C219.04,337.415,218.459,337.402,217.653,337.402z M217.702,327.537
		c0.238,0.079,0.379,0.165,0.52,0.165c8.099,0.012,16.198,0.024,24.291,0c1.516,0,2.469-0.936,2.653-2.372
		c0.189-1.473,0.232-3.001,0.085-4.48c-0.202-2.114-1.333-3.037-3.435-3.044c-6.791-0.006-13.582-0.006-20.367,0.007
		c-2.237,0.006-3.521,1.008-3.705,3.196C217.561,323.173,217.702,325.367,217.702,327.537z"/>
	<path fill-rule="evenodd" clip-rule="evenodd" fill="#FFFFFF" d="M391.332,308.631c3.02,0,5.776,0,8.625,0
		c0.043,0.281,0.122,0.525,0.122,0.765c-0.012,11.821,0.062,23.631-0.098,35.446c-0.043,3.521-0.898,6.98-3.997,9.297
		c-2.201,1.645-4.805,2.311-7.476,2.347c-7.427,0.099-14.854,0.275-22.269-0.03c-7.151-0.281-11.234-3.374-11.503-11.039
		c-0.349-9.756-0.227-19.535-0.306-29.297c-0.019-2.451,0-4.896,0-7.439c2.958,0,5.758,0,8.766,0
		c0.018,0.575,0.079,1.174,0.079,1.767c0.006,10.563,0,21.125,0.012,31.681c0,0.783,0.067,1.571,0.202,2.336
		c0.336,1.895,1.381,2.909,3.295,2.921c7.011,0.05,14.016,0.05,21.015,0.007c1.962-0.013,3.147-1.198,3.429-3.203
		c0.104-0.728,0.098-1.467,0.098-2.194c0.006-10.452,0.006-20.911,0.006-31.363C391.332,310.013,391.332,309.396,391.332,308.631z"
		/>
</g>
</svg>
