<?xml version="1.0" encoding="utf-8"?>
<!-- Generator: Adobe Illustrator 16.0.0, SVG Export Plug-In . SVG Version: 6.00 Build 0)  -->
<!DOCTYPE svg PUBLIC "-//W3C//DTD SVG 1.1//EN" "http://www.w3.org/Graphics/SVG/1.1/DTD/svg11.dtd">
<svg version="1.1" id="Layer_1" xmlns="http://www.w3.org/2000/svg" xmlns:xlink="http://www.w3.org/1999/xlink" x="0px" y="0px"
	 width="512px" height="512px" viewBox="0 0 512 512" enable-background="new 0 0 512 512" xml:space="preserve">
<g>
	<g>
		
			<linearGradient id="SVGID_1_" gradientUnits="userSpaceOnUse" x1="76.2615" y1="402.6648" x2="392.3347" y2="86.5916" gradientTransform="matrix(1 0 0 -1 24.9448 503.3589)">
			<stop  offset="0" style="stop-color:#DC00FF"/>
			<stop  offset="1" style="stop-color:#9A00FF"/>
		</linearGradient>
		<path fill="url(#SVGID_1_)" d="M481.842,256.33c0,124.262-100.733,225-225,225s-225-100.738-225-225
			c0-124.267,100.733-225,225-225S481.842,132.063,481.842,256.33z"/>
		
			<linearGradient id="SVGID_2_" gradientUnits="userSpaceOnUse" x1="125.95" y1="430.5349" x2="337.8431" y2="63.5251" gradientTransform="matrix(1 0 0 -1 24.9448 503.3589)">
			<stop  offset="0" style="stop-color:#9A00FF"/>
			<stop  offset="1" style="stop-color:#DC00FF"/>
		</linearGradient>
		<circle fill="url(#SVGID_2_)" cx="256.842" cy="256.33" r="211.858"/>
	</g>
</g>
<g opacity="0.5">
	<path d="M377.086,360.059c-2.365,0-4.217,0-6.069,0c-42.054,0-84.106,0.067-126.167-0.135c-3.129-0.013-6.602-1.338-9.314-3.021
		c-16.161-9.993-26.901-23.826-29.376-43.195c-0.116-0.918-0.129-1.848-0.245-3.516c11.381,0,22.494,0,35.428,0
		c-8.766-8.002-16.229-14.812-24.707-22.543c8.606-6.198,15.128-10.894,21.938-15.795c13.081,13.1,28.16,20.471,46.522,20.508
		c18.282,0.036,32.854-8.087,45.489-20.141C364.231,291.758,378.162,321.423,377.086,360.059z"/>
	<path d="M284.458,279.271c-30.189,0.263-54.627-23.992-54.816-54.42c-0.196-30.6,23.729-55.349,53.729-55.574
		c31.197-0.238,56.015,23.435,56.233,53.648C339.837,255.089,316.444,278.995,284.458,279.271z"/>
	<path d="M208.676,135.902c18.557,0.188,34.56,11.271,41.076,28.343c1.467,3.839,1.105,5.936-2.922,8.1
		c-16.833,9.039-25.581,23.845-28.374,42.341c-1.266,8.375-1.296,8.717-9.835,8.283c-22.477-1.125-41.167-17.916-42.75-38.398
		c-1.847-23.9,12.358-43.154,35.445-47.922C203.718,136.153,206.218,136.141,208.676,135.902z"/>
	<path d="M215.998,301.996c-8.129,0-14.657,0-21.553,0c-0.593,23.424,7.006,42.343,25.307,56.907
		c-24.658-1.467-48.655-22.292-55.844-47.995c-2.348-8.393-2.348-8.423-11.155-8.704c-3.374-0.104-6.748-0.019-11.87-0.019
		c13.209-12.665,25.165-24.132,37.537-35.99C190.717,277.913,202.734,289.361,215.998,301.996z"/>
	<path d="M173.07,217.223c13.216,13.281,28.82,18.354,47.854,14.768c1.149,5.27,2.408,10.336,3.271,15.464
		c0.195,1.162-0.647,2.983-1.607,3.784c-6.56,5.446-13.271,10.703-19.934,16.021c-6.223-6.438-12.793-13.228-20.092-20.782
		c-7.714,7.83-15.122,14.145-21.002,21.655c-6.521,8.325-14.858,5.68-22.873,5.674c-0.751,0-2.371-2.824-2.115-4.022
		C141.347,247.455,152.203,229.233,173.07,217.223z"/>
</g>
<g>
	<path fill="#FFFFFF" d="M387.086,350.059c-2.365,0-4.217,0-6.069,0c-42.054,0-84.106,0.067-126.167-0.135
		c-3.129-0.013-6.602-1.338-9.314-3.021c-16.161-9.993-26.901-23.826-29.376-43.195c-0.116-0.918-0.129-1.848-0.245-3.516
		c11.381,0,22.494,0,35.428,0c-8.766-8.002-16.229-14.812-24.707-22.543c8.606-6.198,15.128-10.894,21.938-15.795
		c13.081,13.1,28.16,20.471,46.522,20.508c18.282,0.036,32.854-8.087,45.489-20.141
		C374.231,281.758,388.162,311.423,387.086,350.059z"/>
	<path fill="#FFFFFF" d="M294.458,269.271c-30.189,0.263-54.627-23.992-54.816-54.42c-0.196-30.6,23.729-55.349,53.729-55.574
		c31.197-0.238,56.015,23.435,56.233,53.648C349.837,245.089,326.444,268.995,294.458,269.271z"/>
	<path fill="#FFFFFF" d="M218.676,125.902c18.557,0.188,34.56,11.271,41.076,28.343c1.467,3.839,1.105,5.936-2.922,8.1
		c-16.833,9.039-25.581,23.845-28.374,42.341c-1.266,8.375-1.296,8.717-9.835,8.283c-22.477-1.125-41.167-17.916-42.75-38.398
		c-1.847-23.9,12.358-43.154,35.445-47.922C213.718,126.153,216.218,126.141,218.676,125.902z"/>
	<path fill="#FFFFFF" d="M225.998,291.996c-8.129,0-14.657,0-21.553,0c-0.593,23.424,7.006,42.343,25.307,56.907
		c-24.658-1.467-48.655-22.292-55.844-47.995c-2.348-8.393-2.348-8.423-11.155-8.704c-3.374-0.104-6.748-0.019-11.87-0.019
		c13.209-12.665,25.165-24.132,37.537-35.99C200.717,267.913,212.734,279.361,225.998,291.996z"/>
	<path fill="#FFFFFF" d="M183.07,207.223c13.216,13.281,28.82,18.354,47.854,14.768c1.149,5.27,2.408,10.336,3.271,15.464
		c0.195,1.162-0.647,2.983-1.607,3.784c-6.56,5.446-13.271,10.703-19.934,16.021c-6.223-6.438-12.793-13.228-20.092-20.782
		c-7.714,7.83-15.122,14.145-21.002,21.655c-6.521,8.325-14.858,5.68-22.873,5.674c-0.751,0-2.371-2.824-2.115-4.022
		C151.347,237.455,162.203,219.233,183.07,207.223z"/>
</g>
</svg>
