<?xml version="1.0" encoding="utf-8"?>
<!-- Generator: Adobe Illustrator 16.0.0, SVG Export Plug-In . SVG Version: 6.00 Build 0)  -->
<!DOCTYPE svg PUBLIC "-//W3C//DTD SVG 1.1//EN" "http://www.w3.org/Graphics/SVG/1.1/DTD/svg11.dtd">
<svg version="1.1" id="Layer_1" xmlns="http://www.w3.org/2000/svg" xmlns:xlink="http://www.w3.org/1999/xlink" x="0px" y="0px"
	 width="512px" height="512px" viewBox="0 0 512 512" enable-background="new 0 0 512 512" xml:space="preserve">
<g>
	<g>
		<linearGradient id="SVGID_1_" gradientUnits="userSpaceOnUse" x1="100.082" y1="99.9453" x2="416.1552" y2="416.0185">
			<stop  offset="0" style="stop-color:#FF7601"/>
			<stop  offset="1" style="stop-color:#FF0000"/>
		</linearGradient>
		<path fill="url(#SVGID_1_)" d="M480.717,255.581c0,124.261-100.733,225-225,225s-225-100.739-225-225
			c0-124.264,100.733-225,225-225S480.717,131.317,480.717,255.581z"/>
		<linearGradient id="SVGID_2_" gradientUnits="userSpaceOnUse" x1="149.7695" y1="72.0771" x2="361.665" y2="439.0909">
			<stop  offset="0" style="stop-color:#FF0000"/>
			<stop  offset="1" style="stop-color:#FF6301"/>
		</linearGradient>
		<path fill="url(#SVGID_2_)" d="M467.575,255.581c0,117.011-94.854,211.864-211.858,211.864S43.858,372.592,43.858,255.581
			c0-117.005,94.854-211.858,211.858-211.858S467.575,138.576,467.575,255.581z"/>
	</g>
</g>
<g>
	<path fill-rule="evenodd" clip-rule="evenodd" fill="#FFFFFF" d="M252.703,146.626c-35.189,0-70.177,0-105.532,0
		c-0.202,1.791-0.525,3.365-0.532,4.955c-0.024,18.665,0.116,37.35-0.098,56c-0.061,4.59,1.369,6.021,5.966,5.959
		c18.875-0.208,37.757-0.318,56.62,0.134c3.625,0.08,8.325,1.864,10.526,4.517c4.896,5.911-0.006,14.273-8.301,14.499
		c-11.883,0.318-23.784,0.128-35.691,0.128c-12.304,0.012-24.627,0.098-36.919-0.037c-8.136-0.091-11.589-3.521-11.62-11.729
		c-0.091-27.494-0.091-54.994,0-82.482c0.031-8.114,3.588-11.836,11.608-11.852c40.825-0.088,81.656-0.088,122.476,0.009
		c7.481,0.024,10.947,3.478,11.394,10.837c0.232,4.086,0.238,8.221-0.086,12.295c-0.538,6.406-4.102,9.859-9.627,9.859
		c-5.232,0-8.735-3.289-9.713-9.178C252.979,149.371,252.881,148.164,252.703,146.626z"/>
	<path fill-rule="evenodd" clip-rule="evenodd" fill="#FFFFFF" d="M172.08,189.193c2.646,1.216,4.615,2.433,6.742,3.026
		c3.301,0.935,6.711,1.871,10.085,1.913c1.485,0.012,3.008-2.164,4.511-3.332c-1.149-1.455-2.005-3.515-3.497-4.211
		c-3.502-1.645-7.341-2.58-10.978-3.912c-5.63-2.06-9.536-5.599-9.701-12.054c-0.165-6.21,2.842-10.3,8.276-13.197
		c1.767-0.941,2.628-3.496,4.059-5.183c1.106-1.308,2.329-3.212,3.698-3.405c1.333-0.202,4.163,1.363,4.224,2.305
		c0.336,5.416,4.853,5.678,8.142,7.775c1.993,1.302,2.971,4.175,4.407,6.338c-2.298,0.978-4.646,2.836-6.876,2.696
		c-3.362-0.226-6.577-2.353-9.945-2.641c-1.687-0.153-3.569,1.968-5.348,3.056c1.21,1.607,2.084,3.888,3.704,4.682
		c3.459,1.687,7.317,2.555,10.978,3.863c5.752,2.06,9.407,5.972,9.419,12.268c0.018,6.339-3.191,10.654-9.053,13.362
		c-1.987,0.923-3.191,3.405-4.872,5.037c-1.357,1.326-2.94,3.417-4.352,3.361c-1.437-0.073-3.888-2.249-3.973-3.631
		c-0.232-3.716-2.457-4.554-5.257-5.642c-2.628-1.009-5.287-2.378-7.323-4.248c-1.021-0.923-1.333-3.521-0.807-4.951
		C168.846,191.07,170.814,190.22,172.08,189.193z"/>
</g>
<g>
	<path fill-rule="evenodd" clip-rule="evenodd" fill="#FFFFFF" d="M312.189,286.663c-21.424,0-42.848,0.141-64.291-0.062
		c-13.258-0.116-21.718-9.059-21.718-22.305c0-27.408,0.446-54.81-0.25-82.2c-0.238-9.095,10.514-20.434,18.998-20.52
		c8.79-0.073,17.561-0.52,26.345-0.532c31.094-0.085,62.188-0.073,93.27-0.024c4.561,0,9.139,0.202,13.674,0.629
		c12.414,1.144,20.128,9.848,20.128,22.458c0,26.876,0,53.759,0,80.618c0,12.298-8.905,21.711-21.338,21.833
		c-21.602,0.221-43.209,0.067-64.817,0.067C312.189,286.626,312.189,286.65,312.189,286.663z M386.67,207.476
		c-2.347,0-4.064,0-5.782,0c-36.191,0-72.396,0-108.588,0.025c-9.486,0-18.979,0.128-28.472,0.165c-2.727,0-4.694,0.403-4.652,3.998
		c0.257,17.384,0.165,34.78,0.514,52.163c0.134,6.871,3.062,9.249,9.976,9.273c21.271,0.012,42.531,0.036,63.79-0.024
		c21.442-0.049,42.873-0.153,64.315-0.318c5.36-0.049,8.82-2.86,8.857-7.573C386.756,246.229,386.67,227.25,386.67,207.476z
		 M386.475,186.106c0.171-7.756-1.95-10.269-8.766-10.843c-2.103-0.171-4.217-0.25-6.313-0.25
		c-40.765-0.062-81.528-0.11-122.28-0.128c-6.809,0-10.116,4.028-9.333,11.222C288.577,186.106,337.373,186.106,386.475,186.106z"/>
	<path fill-rule="evenodd" clip-rule="evenodd" fill="#FFFFFF" d="M273.565,259.414c-7.824,5.996-16.046,5.892-21.479-0.043
		c-4.75-5.184-4.957-13.601-0.477-18.784c5.795-6.644,13.368-6.943,22.011-0.85c9.7-5.831,17.402-5.538,22.438,0.85
		c4.487,5.728,4.236,13.613-0.617,18.747C289.653,265.435,282.386,265.532,273.565,259.414z"/>
</g>
<g>
	<path fill-rule="evenodd" clip-rule="evenodd" fill="#FFFFFF" d="M180.631,321.443c-2.42,0-4.841-0.043-7.262,0.018
		c-0.923,0.019-1.229-0.366-1.241-1.197c-0.019-0.887,0.018-1.791-0.153-2.659c-0.422-2.097-2.127-3.356-4.701-3.417
		c-3.063-0.055-6.119-0.129-9.169,0.03c-1.76,0.098-3.704,0.306-4.621,2.226c-1.143,2.353-1.229,4.816-0.049,7.176
		c0.88,1.772,2.745,2.011,4.444,2.146c4.168,0.336,8.355,0.385,12.512,0.813c3.564,0.36,7.152,0.856,10.618,1.699
		c4.719,1.144,7.958,4.126,9.34,8.882c0.324,1.1,0.55,2.286,0.55,3.429c0,3.79,0.012,7.586-0.239,11.363
		c-0.245,3.625-1.436,6.968-4.254,9.499c-2.506,2.243-5.538,3.435-8.79,4.083c-6.094,1.198-12.268,1.118-18.423,0.917
		c-4.034-0.123-8.099-0.514-12.072-1.217c-5.367-0.959-9.364-3.899-11.015-9.352c-1.008-3.374-1.002-6.889-0.892-10.386
		c0-0.274,0.513-0.745,0.794-0.745c4.963-0.049,9.926-0.043,14.896-0.024c0.709,0.006,1.051,0.379,1.045,1.148
		c-0.019,0.917,0.024,1.853,0.195,2.751c0.464,2.635,2.09,3.643,4.817,3.777c3.906,0.189,7.818,0.104,11.742,0.031
		c2.622-0.05,4.327-1.773,4.81-4.334c0.379-1.993,0.269-3.894-0.855-5.52c-0.55-0.801-1.65-1.571-2.585-1.688
		c-3.857-0.477-7.763-0.647-11.639-1.051c-4.052-0.428-8.16-0.679-12.133-1.553c-5.911-1.309-9.676-5.019-10.624-11.229
		c-0.556-3.717-0.758-7.439-0.226-11.162c0.287-2.005,0.574-4.046,1.192-5.965c1.21-3.79,4.095-5.967,7.665-7.402
		c2.983-1.192,6.106-1.547,9.279-1.682c3.203-0.134,6.43-0.495,9.627-0.373c5.122,0.208,10.281-0.104,15.324,1.309
		c5.312,1.485,8.576,4.908,9.951,10.165c0.703,2.732,0.929,5.538,0.697,8.368c-0.073,0.893-0.428,1.155-1.29,1.143
		C185.472,321.406,183.052,321.443,180.631,321.443z"/>
	<path fill-rule="evenodd" clip-rule="evenodd" fill="#FFFFFF" d="M377.013,366.29c-0.532,0.049-0.996,0.116-1.461,0.116
		c-4.957,0.012-9.921-0.03-14.89,0.03c-1.247,0.013-1.901-0.208-2.25-1.602c-0.807-3.239-1.87-6.424-2.866-9.737
		c-0.392,0-0.819,0-1.26,0c-7.188,0-14.37,0.007-21.559-0.018c-0.63,0-0.893,0.116-1.063,0.776c-0.85,3.19-1.729,6.369-2.671,9.522
		c-0.129,0.422-0.697,0.984-1.063,0.984c-5.733,0.067-11.461,0.049-17.194,0.043c-0.11,0-0.214-0.092-0.495-0.232
		c0.293-1.112,0.544-2.268,0.886-3.393c1.864-6.174,3.747-12.341,5.605-18.521c2.023-6.712,3.997-13.436,6.015-20.141
		c1.675-5.568,3.374-11.131,5.067-16.693c0.642-2.097,1.356-4.162,1.901-6.283c0.207-0.831,0.58-1.027,1.313-1.027
		c8.362,0.007,16.712,0.024,25.067-0.012c0.703,0,1.002,0.287,1.186,0.898c1.4,4.657,2.806,9.31,4.212,13.948
		c1.424,4.688,2.866,9.358,4.291,14.047c1.895,6.253,3.765,12.512,5.66,18.753c1.803,5.947,3.631,11.889,5.446,17.836
		C376.951,365.765,376.958,365.96,377.013,366.29z M343.932,314.486c-0.128,0.007-0.25,0.007-0.379,0.013
		c-2.567,9.064-5.141,18.13-7.714,27.225c5.367,0,10.636,0,16.033,0C349.213,332.592,346.572,323.539,343.932,314.486z"/>
	<path fill-rule="evenodd" clip-rule="evenodd" fill="#FFFFFF" d="M261.609,333.246c0-10.482,0-20.979,0.006-31.473
		c0-1.65,0.006-1.65,1.65-1.65c10.904,0,21.803-0.037,32.695,0.023c3.527,0.019,7.042,0.239,10.41,1.535
		c5.801,2.236,9.156,6.503,10.537,12.457c0.893,3.838,0.71,7.75,0.752,11.645c0.037,4.027-0.085,8.031-1.21,11.931
		c-1.699,5.948-5.69,9.579-11.669,10.813c-2.769,0.563-5.66,0.679-8.508,0.746c-5.08,0.115-10.166,0.073-15.251,0.03
		c-1.095-0.013-1.461,0.263-1.448,1.418c0.066,4.841,0.006,9.682,0.049,14.529c0.012,0.972-0.386,1.259-1.26,1.259
		c-5.165-0.006-10.336-0.024-15.501,0.013c-1.204,0.012-1.253-0.642-1.253-1.54c0.006-9.934,0-19.859,0-29.799
		C261.609,334.548,261.609,333.9,261.609,333.246z M279.659,333.558c5.062,0,9.97,0.062,14.878-0.03
		c2.561-0.043,3.961-1.094,4.267-3.644c0.379-3.056,0.366-6.173,0.263-9.254c-0.146-4.468-3.209-5.874-6.84-5.752
		c-3.264,0.11-6.528,0.024-9.792,0.024c-0.911,0-1.828,0-2.775,0C279.659,321.235,279.659,327.434,279.659,333.558z"/>
	<path fill-rule="evenodd" clip-rule="evenodd" fill="#FFFFFF" d="M247.037,336.217c-1.015,2.219-1.913,4.205-2.836,6.18
		c-0.404,0.874-0.966,1.688-1.241,2.598c-0.379,1.266-1.155,1.461-2.329,1.455c-7.152-0.049-14.291-0.037-21.443-0.037
		c-0.183,0-0.379,0.024-0.574,0.043c0.868,4.175,11.051,9.78,17.652,9.848c7.439,0.079,13.601-2.702,18.723-8.375
		c0.067,0.52,0.141,0.819,0.147,1.101c0,3.521,0.03,7.023-0.043,10.538c-0.006,0.482-0.373,1.161-0.782,1.424
		c-5.318,3.344-11.082,5.146-17.415,5.3c-7.146,0.165-13.68-1.681-19.651-5.55c-5.171-3.35-9.071-7.824-11.749-13.368
		c-0.367-0.752-0.807-0.966-1.577-0.966c-3.063,0.03-6.131,0.012-9.206,0.012c-0.501,0-1.008,0-1.711,0
		c1.577-3.355,3.038-6.527,4.572-9.67c0.128-0.281,0.69-0.482,1.063-0.501c1.161-0.067,2.329-0.03,3.588-0.03
		c0-1.705,0-3.325,0-5.067c-3.099,0-6.192,0-9.529,0c0.269-0.679,0.44-1.18,0.666-1.656c1.192-2.573,2.439-5.122,3.563-7.72
		c0.361-0.819,0.862-1.052,1.657-1.052c1.852,0.019,3.71,0.043,5.568-0.006c0.349-0.013,0.868-0.27,1.002-0.551
		c1.993-4.468,4.859-8.282,8.57-11.448c4.676-3.991,10.006-6.559,16.1-7.684c3.362-0.63,6.736-0.715,10.055-0.36
		c5.507,0.587,10.642,2.438,15.232,5.623c1.345,0.941,2.598,2.023,3.833,3.105c0.257,0.226,0.434,0.874,0.293,1.167
		c-1.149,2.629-2.384,5.215-3.6,7.813c-0.055,0.098-0.183,0.152-0.348,0.287c-6.4-7.329-14.407-10.232-23.888-8.001
		c-5.77,1.351-10.354,4.786-13.814,10.171c12.329,0,24.358,0,36.632,0c-1.21,2.579-2.28,4.89-3.356,7.194
		c-0.024,0.043-0.067,0.062-0.067,0.104c-0.55,2.806-2.427,3.1-4.945,3.068c-10.128-0.141-20.263-0.061-30.391-0.061
		c-0.36,0-0.715,0-1.241,0c0,1.577-0.024,3.068,0.031,4.56c0.012,0.189,0.416,0.416,0.685,0.495
		c0.293,0.086,0.636,0.019,0.953,0.019c9.817,0,19.621,0,29.432,0C245.802,336.217,246.279,336.217,247.037,336.217z"/>
	<path fill-rule="evenodd" clip-rule="evenodd" fill="#FFFFFF" d="M207.092,383.704c-3.068,0-6.051,0-9.021-0.006
		c-0.189,0-0.385-0.036-0.654-0.079c0-4.218,0-8.393,0-12.665c3.154,0,6.265,0,9.383,0c0.03,0.085,0.098,0.152,0.098,0.226
		c0.073,2.61,0.122,2.066-1.962,2.104c-1.534,0.03-3.068,0-4.701,0c0,0.788,0,1.527,0,2.433c1.522,0,3.087,0,4.646,0
		c1.583,0,1.583,0,1.565,1.564c-0.006,0.232-0.024,0.471-0.043,0.837c-2.078,0-4.107,0-6.198,0c0,1.089,0,2.029,0,3.167
		c1.626,0,3.264,0,4.896,0C207.294,381.284,207.294,381.284,207.092,383.704z"/>
	<path fill-rule="evenodd" clip-rule="evenodd" fill="#FFFFFF" d="M291.475,383.631c-2.665,0.202-2.665,0.202-2.665-2.249
		c0-1.253-0.006-2.506,0-3.753c0.006-0.691-0.055-1.352-0.923-1.412c-0.838-0.073-1.583,0.263-1.699,1.149
		c-0.189,1.345-0.214,2.707-0.281,4.064c-0.03,0.715-0.006,1.431-0.006,2.206c-0.807,0-1.522,0-2.415,0
		c0-1.124,0.031-2.268-0.006-3.429c-0.043-0.904-0.202-1.81-0.22-2.72c-0.024-0.819-0.263-1.352-1.174-1.296
		c-0.941,0.067-1.448,0.593-1.504,1.528c-0.135,1.949-0.238,3.899-0.366,5.916c-0.697,0-1.406,0-2.311,0c0-1.516,0-3.08,0-4.627
		c0-1.527,0-3.056,0-4.725c0.929,0.201,2.048-0.672,2.549,0.795c2.451-1.309,3.526-1.271,4.847-0.031
		c1.376-0.299,2.507-0.733,3.644-0.745c1.467-0.019,2.463,1.058,2.519,2.5c0.061,1.932,0.012,3.869,0.012,5.807
		C291.475,382.928,291.475,383.246,291.475,383.631z"/>
	<path fill-rule="evenodd" clip-rule="evenodd" fill="#FFFFFF" d="M171.022,375.361c0.043-0.373,0.073-0.697,0.092-1.027
		c2.372-0.214,2.372-0.214,2.372,1.986c0,2.005,0.037,4.022-0.012,6.039c-0.019,0.874-0.135,1.755-0.33,2.598
		c-0.342,1.486-1.51,2.17-2.867,2.329c-1.13,0.129-2.322,0.024-3.441-0.226c-1.565-0.324-2.048-1.039-2.244-2.867
		c1.186,0.073,2.348-0.214,3.38,0.862c0.349,0.366,1.449,0.22,2.097,0.006c0.354-0.11,0.568-0.838,0.733-1.32
		c0.11-0.33,0.019-0.715,0.019-0.862c-1.088,0.245-2.219,0.783-3.252,0.654c-0.868-0.109-1.828-0.837-2.402-1.564
		c-1.442-1.791-1.125-5.195,0.434-6.724C167.074,373.796,168.932,373.82,171.022,375.361z M166.841,378.68
		c0.141,0.624,0.177,1.149,0.367,1.62c0.563,1.431,2.018,1.656,3.032,0.514c0.868-0.96,0.776-3.331-0.147-4.199
		c-0.807-0.746-2.262-0.526-2.732,0.464C167.11,377.598,166.994,378.191,166.841,378.68z"/>
	<path fill-rule="evenodd" clip-rule="evenodd" fill="#FFFFFF" d="M134.904,379.48c1.216-0.165,2.005-0.269,2.775-0.385
		c0.874,2.133,1.455,2.543,3.313,2.433c0.99-0.062,1.785-0.52,1.901-1.504c0.123-0.904-0.66-1.234-1.448-1.424
		c-0.88-0.214-1.761-0.471-2.635-0.722c-2.243-0.678-3.325-2.157-3.105-4.205c0.159-1.497,1.84-2.891,3.845-3.025
		c1.644-0.122,3.289-0.013,4.584,1.266c0.752,0.751,1.167,1.607,0.953,2.763c-0.794,0-1.589,0-2.402,0
		c-0.758-1.583-1.663-2.048-3.405-1.583c-0.354,0.098-0.837,0.52-0.855,0.818c-0.019,0.354,0.312,0.947,0.636,1.07
		c1.112,0.434,2.292,0.666,3.423,1.039c2.653,0.867,3.783,2.86,2.867,5.22c-0.263,0.673-0.807,1.332-1.388,1.761
		c-1.833,1.326-5.874,1.338-7.408-0.545C135.888,381.633,135.503,380.581,134.904,379.48z"/>
	<path fill-rule="evenodd" clip-rule="evenodd" fill="#FFFFFF" d="M336.102,383.704c1.046-2.738,1.993-5.22,2.953-7.701
		c0.482-1.26,1.057-2.5,1.473-3.784c0.317-1.008,0.782-1.595,1.938-1.362c0.428,0.079,0.887,0.012,1.431,0.012
		c1.681,4.193,3.355,8.398,5.122,12.83c-0.979,0-1.803,0.079-2.604-0.036c-0.275-0.049-0.538-0.581-0.679-0.936
		c-0.74-1.92-0.728-1.932-2.757-1.932c-0.195,0-0.392,0-0.593,0c-2.317,0-2.366-0.012-3.13,2.14
		c-0.232,0.647-0.531,0.813-1.125,0.776C337.538,383.68,336.934,383.704,336.102,383.704z M342.44,374.169
		c-0.563,1.553-1.021,2.843-1.497,4.169c1.057,0,2.011,0,2.988,0c-0.073-0.306-0.116-0.581-0.214-0.838
		C343.333,376.467,342.93,375.435,342.44,374.169z"/>
	<path fill-rule="evenodd" clip-rule="evenodd" fill="#FFFFFF" d="M244.959,371.063c2.512,0,4.859-0.231,7.133,0.067
		c2.152,0.294,3.057,2.054,2.8,4.438c-0.189,1.748-1.828,3.209-3.735,3.289c-1.039,0.036-2.09,0-3.294,0
		c0,1.314-0.043,2.543,0.019,3.777c0.049,0.868-0.27,1.18-1.106,1.076c-0.361-0.037-0.764,0.079-1.082-0.031
		c-0.287-0.116-0.697-0.452-0.697-0.696C244.953,379.004,244.959,375.019,244.959,371.063z M247.941,373.283
		c0,1.222,0,2.273,0,3.459c1.076-0.116,2.115-0.061,3.008-0.397c0.495-0.189,1.002-0.996,1.069-1.577
		c0.08-0.745-0.391-1.454-1.345-1.479C249.8,373.271,248.907,373.283,247.941,373.283z"/>
	<path fill-rule="evenodd" clip-rule="evenodd" fill="#FFFFFF" d="M267.251,385.165c0.44,0,0.715,0.007,1.003,0
		c1.375-0.049,1.955-0.947,1.461-2.286c-1.033-2.781-2.079-5.58-3.216-8.612c0.855,0,1.589-0.055,2.323,0.037
		c0.232,0.024,0.525,0.403,0.623,0.69c0.648,1.748,1.234,3.503,1.95,5.581c0.629-1.877,1.229-3.43,1.65-5.019
		c0.269-1.045,0.758-1.479,1.821-1.302c0.342,0.061,0.697,0.006,1.283,0.006c-0.482,1.356-0.91,2.543-1.351,3.723
		c-0.893,2.438-1.767,4.871-2.702,7.286c-0.653,1.687-2.664,2.604-4.352,2.029c-0.22-0.067-0.422-0.44-0.471-0.697
		C267.196,386.174,267.251,385.728,267.251,385.165z"/>
	<path fill-rule="evenodd" clip-rule="evenodd" fill="#FFFFFF" d="M376.34,383.698c-0.898-0.214-2.054,0.587-2.542-0.403
		c-1.419,0.141-2.727,0.459-3.985,0.349c-1.131-0.098-1.877-1.003-2.018-2.213c-0.152-1.412,0.392-2.347,1.712-2.817
		c0.966-0.349,1.998-0.465,2.977-0.776c0.342-0.104,0.593-0.483,0.88-0.746c-0.354-0.294-0.721-0.855-1.051-0.837
		c-0.6,0.023-1.174,0.488-1.791,0.604c-0.789,0.153-1.614,0.141-2.519,0.208c0.728-2.311,2.335-3.271,4.475-2.885
		c0.231,0.049,0.477,0.061,0.715,0.073c1.803,0.079,2.769,1.045,2.83,2.872c0.036,1.168-0.037,2.342,0.019,3.516
		C376.077,381.62,376.23,382.592,376.34,383.698z M373.247,379.358c-0.685,0.165-1.326,0.312-1.98,0.477
		c-0.813,0.208-1.051,0.898-0.728,1.479c0.221,0.373,1.046,0.697,1.479,0.593C373.211,381.602,373.614,380.691,373.247,379.358z"/>
	<path fill-rule="evenodd" clip-rule="evenodd" fill="#FFFFFF" d="M262.575,377.494c-0.27-0.452-0.428-1.088-0.709-1.149
		c-0.618-0.128-1.639-0.238-1.896,0.104c-0.904,1.197-1.833,0.66-2.885,0.373c0.092-1.119,0.739-1.914,1.662-2.28
		c1.51-0.587,3.111-0.587,4.634-0.019c1.271,0.477,1.754,1.754,1.675,3.496c-0.073,1.853-0.019,3.698-0.019,5.6
		c-1.589,0.293-1.883,0.214-2.5-0.771c-1.161,0.825-2.42,1.333-3.863,0.831c-1.002-0.348-1.784-0.898-1.839-2.096
		c-0.098-1.712,0.281-2.519,1.62-2.965C259.721,378.179,261.035,377.903,262.575,377.494z M262.281,379.377
		c-0.458,0.073-0.929,0.141-1.381,0.232c-0.227,0.055-0.508,0.092-0.648,0.244c-0.342,0.397-0.941,0.936-0.855,1.266
		c0.165,0.678,0.813,1.069,1.62,0.837C262.086,381.639,262.502,380.813,262.281,379.377z"/>
	<path fill-rule="evenodd" clip-rule="evenodd" fill="#FFFFFF" d="M365.998,379.835c-2.005,0-3.942,0-5.868,0
		c-0.092,0.104-0.177,0.202-0.269,0.294c0.477,0.544,0.861,1.302,1.454,1.57c0.636,0.275,1.314,0.043,1.969-0.647
		c0.446-0.471,1.65-0.202,2.598-0.281c-0.617,2.268-2.72,3.545-4.608,3.099c-3.008-0.715-4.512-2.922-3.863-5.916
		c0.544-2.574,2.072-4.114,5.269-3.698C364.818,374.536,366.298,376.944,365.998,379.835z M359.989,378.044c1.223,0,2.311,0,3.484,0
		c-0.153-1.051-0.514-1.767-1.583-1.852C360.649,376.113,360.289,376.95,359.989,378.044z"/>
	<path fill-rule="evenodd" clip-rule="evenodd" fill="#FFFFFF" d="M232.544,374.084c3.178,0.244,4.847,2.133,4.835,4.871
		c0,3.02-1.871,4.78-4.884,4.957c-2.665,0.172-4.792-2.115-4.725-4.927C227.844,375.789,229.684,374.377,232.544,374.084z
		 M230.423,379.017c-0.006,1.601,0.941,2.78,2.201,2.744c1.167-0.024,2.188-1.375,2.151-2.83c-0.024-1.382-1.082-2.702-2.188-2.727
		C231.383,376.18,230.423,377.421,230.423,379.017z"/>
	<path fill-rule="evenodd" clip-rule="evenodd" fill="#FFFFFF" d="M189.482,379.829c-1.094,0-2.054,0-3.007,0
		c-0.929,0-1.852,0-2.775,0c-0.116,0.96,0.183,1.656,1.033,1.883c1.021,0.263,1.962,0.11,2.158-1.18
		c0.904,0.165,1.675,0.317,2.451,0.471c-0.532,1.852-2.298,3.081-4.138,2.94c-2.322-0.172-3.997-1.663-4.211-3.692
		c-0.171-1.729-0.159-3.411,1.119-4.798c1.192-1.297,3.081-1.657,4.823-0.967c1.546,0.6,2.519,2.072,2.549,3.827
		C189.482,378.76,189.482,379.206,189.482,379.829z M187.049,378.1c-0.538-1.693-1.143-2.201-2.225-1.864
		c-0.904,0.274-1.265,0.91-1.1,1.864C184.897,378.1,185.931,378.1,187.049,378.1z"/>
	<path fill-rule="evenodd" clip-rule="evenodd" fill="#FFFFFF" d="M296.389,379.829c-0.171,0.966,0.189,1.638,0.99,1.877
		c1.009,0.299,1.92,0.079,2.201-1.168c0.886,0.171,1.687,0.324,2.512,0.489c-0.801,1.968-2.726,3.19-4.443,2.903
		c-2.61-0.44-3.857-1.81-4.004-4.261c-0.116-1.98,0.116-3.826,1.999-4.914c2.463-1.431,6.448-0.403,6.491,3.741
		c0.006,0.403,0,0.8,0,1.332c-1.039,0-1.999,0-2.946,0C298.254,379.829,297.337,379.829,296.389,379.829z M296.347,378.081
		c1.167,0,2.23,0,3.361,0c-0.25-1.106-0.617-2.011-1.913-1.864C296.78,376.32,296.273,376.944,296.347,378.081z"/>
	<path fill-rule="evenodd" clip-rule="evenodd" fill="#FFFFFF" d="M304.556,383.704c0-2.995-0.013-5.818,0.036-8.643
		c0-0.269,0.428-0.673,0.733-0.765c0.446-0.134,0.954-0.036,1.528-0.036c0.062,0.373,0.129,0.709,0.208,1.125
		c0.208-0.159,0.392-0.306,0.563-0.435c1.98-1.491,4.554-0.91,5.257,1.223c0.171,0.52,0.152,1.106,0.152,1.656
		c0.019,1.896,0.006,3.79,0.006,5.874c-0.513,0-0.978-0.042-1.442,0.013c-0.91,0.104-1.296-0.184-1.247-1.198
		c0.086-1.521,0.007-3.068,0.025-4.591c0.012-0.947-0.19-1.692-1.32-1.735c-0.954-0.024-1.785,0.715-1.816,1.711
		c-0.049,1.412-0.012,2.824-0.012,4.242c0,1.571,0,1.571-1.577,1.559C305.325,383.704,305.02,383.704,304.556,383.704z"/>
	<path fill-rule="evenodd" clip-rule="evenodd" fill="#FFFFFF" d="M217.972,383.68c-0.77,0-1.449,0-2.237,0
		c-0.049-0.312-0.11-0.642-0.178-1.015c-0.152,0.08-0.256,0.122-0.342,0.196c-1.217,1.082-2.567,1.345-4.047,0.629
		c-1.357-0.653-1.589-1.883-1.583-3.221c0.006-1.938,0.006-3.869,0.006-6.003c0.728,0,1.412-0.092,2.048,0.049
		c0.251,0.056,0.568,0.593,0.593,0.93c0.049,1.65,0.024,3.301,0.024,4.957c-0.012,0.904,0.232,1.571,1.333,1.571
		c1.057-0.007,1.778-0.594,1.803-1.633c0.037-1.448,0.092-2.915-0.018-4.352c-0.085-1.235,0.306-1.742,1.546-1.534
		c0.306,0.049,0.636,0,1.051,0C217.972,377.415,217.972,380.489,217.972,383.68z"/>
	<path fill-rule="evenodd" clip-rule="evenodd" fill="#FFFFFF" d="M329.813,376.614c-0.752,0.189-1.455,0.379-2.14,0.55
		c-1.406-1.442-2.298-1.57-3.655-0.306c0.782,0.287,1.442,0.563,2.121,0.782c0.642,0.202,1.308,0.318,1.962,0.514
		c1.247,0.343,1.95,1.223,2.108,2.463c0.129,1.021-0.88,2.348-2.084,2.837c-2.249,0.923-5.171,0.306-6.137-1.339
		c-0.221-0.367-0.373-0.758-0.568-1.168c0.647-0.141,1.148-0.36,1.638-0.336c0.392,0.013,0.887,0.214,1.119,0.508
		c0.721,0.88,2.103,1.18,3.007,0.501c0.171-0.116,0.392-0.501,0.343-0.55c-0.245-0.281-0.532-0.605-0.868-0.722
		c-0.936-0.312-1.926-0.471-2.867-0.788c-1.437-0.483-2.194-1.602-2.023-2.879c0.159-1.296,1.363-2.342,2.843-2.421
		c0.739-0.037,1.491-0.024,2.219,0C328.32,374.304,329.299,375.043,329.813,376.614z"/>
	<path fill-rule="evenodd" clip-rule="evenodd" fill="#FFFFFF" d="M153.718,374.255c0.905,0.22,2.084-0.648,2.476,0.953
		c1.32-1.075,2.738-1.326,4.254-0.703c1.461,0.575,1.565,1.938,1.632,3.209c0.091,1.565-0.031,3.143,0.049,4.707
		c0.037,0.984-0.238,1.437-1.278,1.296c-0.421-0.055-0.862-0.013-1.418-0.013c0-1.907-0.006-3.716,0.012-5.52
		c0.006-0.941-0.122-1.84-1.253-1.968c-1.149-0.129-1.84,0.452-1.926,1.62c-0.085,1.313-0.159,2.634-0.22,3.942
		c-0.019,0.599,0,1.197,0,1.857c-0.807,0-1.516,0-2.329,0C153.718,380.587,153.718,377.513,153.718,374.255z"/>
	<path fill-rule="evenodd" clip-rule="evenodd" fill="#FFFFFF" d="M320.203,381.607c0.281,2.213-0.293,2.708-2.445,2.109
		c-1.32-0.36-1.784-0.99-1.809-2.5c-0.013-1.534,0-3.057,0-4.694c-1.021,0.079-1.112-0.575-0.947-1.29
		c0.098-0.446,0.409-0.844,0.788-1.191c-0.3-2.055,1.577-2.078,2.806-2.989c0,1.161,0,2.14,0,3.093
		c1.772,0.227,1.772,0.227,1.662,2.207c-0.482,0.049-0.99,0.098-1.638,0.152c0,1.51-0.073,3.025,0.055,4.529
		c0.031,0.3,0.825,0.538,1.26,0.801C320.02,381.761,320.118,381.682,320.203,381.607z"/>
	<path fill-rule="evenodd" clip-rule="evenodd" fill="#FFFFFF" d="M176.242,370.905c0.856,0,1.645,0,2.506,0
		c0,4.26,0,8.472,0,12.731c-0.819,0-1.62,0-2.506,0C176.242,379.45,176.242,375.245,176.242,370.905z"/>
	<path fill-rule="evenodd" clip-rule="evenodd" fill="#FFFFFF" d="M223.4,383.497c-0.153,0.122-0.184,0.165-0.22,0.171
		c-2.445,0.226-2.445,0.226-2.445-2.207c0-1.889,0.073-3.789-0.031-5.672c-0.061-1.223,0.287-1.748,1.528-1.534
		c0.281,0.049,0.563,0.036,0.868,0.049c0.037,0.306,0.061,0.58,0.061,0.556c0.911-0.189,1.901-0.709,2.757-0.537
		c2.054,0.403,0.061,1.564,0.453,2.536c-1.162-0.452-2.195-0.696-2.647,0.568c-0.238,0.66-0.293,1.399-0.312,2.103
		C223.363,380.887,223.4,382.25,223.4,383.497z"/>
	<path fill-rule="evenodd" clip-rule="evenodd" fill="#FFFFFF" d="M353.125,375.08c1.32-1.082,2.133-1.168,3.533-0.379
		c-0.257,0.702-0.52,1.399-0.782,2.084c-1.804-0.611-2.604-0.024-2.616,1.821c-0.013,1.247-0.067,2.5,0.018,3.747
		c0.062,1.033-0.213,1.54-1.326,1.363c-0.391-0.055-0.794-0.013-1.277-0.013c0-3.136,0-6.21,0-9.407
		C351.548,374.505,352.673,373.588,353.125,375.08z"/>
	<path fill-rule="evenodd" clip-rule="evenodd" fill="#FFFFFF" d="M150.711,383.644c-0.893,0-1.688,0-2.665,0
		c0-1.474,0-2.952,0-4.426c0-1.399,0.024-2.812,0-4.218c-0.006-0.929,0.672-0.782,1.18-0.727c0.544,0.066,1.46-0.459,1.479,0.66
		C150.741,377.818,150.711,380.703,150.711,383.644z"/>
	<path fill-rule="evenodd" clip-rule="evenodd" fill="#FFFFFF" d="M150.674,370.954c0,0.776,0,1.485,0,2.262
		c-0.862,0-1.681,0-2.561,0c0-0.759,0-1.461,0-2.262C148.92,370.954,149.732,370.954,150.674,370.954z"/>
</g>
</svg>
