<?xml version="1.0" encoding="utf-8"?>
<!-- Generator: Adobe Illustrator 16.0.0, SVG Export Plug-In . SVG Version: 6.00 Build 0)  -->
<!DOCTYPE svg PUBLIC "-//W3C//DTD SVG 1.1//EN" "http://www.w3.org/Graphics/SVG/1.1/DTD/svg11.dtd">
<svg version="1.1" id="Layer_1" xmlns="http://www.w3.org/2000/svg" xmlns:xlink="http://www.w3.org/1999/xlink" x="0px" y="0px"
	 width="512px" height="512px" viewBox="0 0 512 512" enable-background="new 0 0 512 512" xml:space="preserve">
<g>
	<g>
		<linearGradient id="SVGID_1_" gradientUnits="userSpaceOnUse" x1="101.0054" y1="100.8647" x2="417.0785" y2="416.9379">
			<stop  offset="0" style="stop-color:#00B100"/>
			<stop  offset="1" style="stop-color:#006700"/>
		</linearGradient>
		<path fill="url(#SVGID_1_)" d="M481.641,256.501c0,124.261-100.733,225-225,225s-225-100.739-225-225
			c0-124.264,100.733-225,225-225S481.641,132.237,481.641,256.501z"/>
		<linearGradient id="SVGID_2_" gradientUnits="userSpaceOnUse" x1="150.6934" y1="72.9971" x2="362.5889" y2="440.0109">
			<stop  offset="0" style="stop-color:#006700"/>
			<stop  offset="1" style="stop-color:#00B100"/>
		</linearGradient>
		<path fill="url(#SVGID_2_)" d="M468.499,256.501c0,117.011-94.854,211.864-211.858,211.864S44.782,373.512,44.782,256.501
			c0-117.005,94.854-211.858,211.858-211.858S468.499,139.496,468.499,256.501z"/>
	</g>
</g>
<g>
	<path fill-rule="evenodd" clip-rule="evenodd" fill="#FFFFFF" d="M211.867,149.729c-0.306-0.526-0.538-1.125-0.947-1.541
		c-8.937-9.019-7.341-19.652,4.456-24.539c2.598-1.085,7.934,0.883,10.171,3.221c4.322,4.511,7.8,2.62,12.274,1.045
		c4.811-1.69,5.764-4.483,5.141-9.089c-0.709-5.223,0.99-9.719,7.268-8.921c6.155,0.78,16.461-5.485,17.365,5.404
		c0.819,9.979,5.526,13.071,14.67,15.137c1.155-1.415,2.61-3.386,4.218-5.226c3.753-4.288,7.732-4.474,11.877-0.479
		c2.433,2.347,5.679,4.257,7.121,7.1c1.375,2.71,2.347,8.135,0.941,9.328c-7.916,6.666-5.452,13.093-0.587,20.317
		c2.689,0,5.978-0.7,8.723,0.208c2.493,0.819,5.807,3.093,6.277,5.269c1.021,4.709,1.668,10.202,0.092,14.514
		c-1.009,2.784-6.229,5.639-9.554,5.633c-5.765-0.013-6.847,3.291-8.845,7.194c-2.25,4.389-1.559,7.154,2.17,10.198
		c8.887,7.222,1.559,12.021-2.854,17.295c-4.364,5.223-9.218,8.093-14.334,1.562c-6.052-7.714-11.357-1.165-17.47,0.091
		c0,9.141,0,18.27,0,28.539c3.228,0.159,6.431,0.45,9.651,0.45c24.279,0.045,48.57-0.016,72.861,0.045
		c11.791,0.037,14.835,3.004,14.914,14.523c0.098,12.299,0.073,24.597,0.013,36.889c-0.049,9.371-3.937,14.872-10.557,14.176
		c-8.674-0.917-10.373-7.006-10.092-14.67c0.349-9.463,0.079-18.949,0.079-29.12c-25.721,0-50.758,0-77.298,0
		c0,8.808,0.073,17.885-0.019,26.956c-0.079,9.621-4.443,15.122-12.041,15.477c-8.014,0.367-12.94-5.184-13.173-15.293
		c-0.208-8.852-0.049-17.708-0.049-27.188c-26.137,0-51.442,0-77.849,0c0,10.403-0.201,20.464,0.074,30.507
		c0.214,7.623-2.561,13.362-10.477,13.252c-7.897-0.109-10.434-6.033-10.287-13.539c0.257-12.604,0.012-25.208,0.092-37.812
		c0.073-10.801,3.374-14.104,14.486-14.147c25.507-0.098,51.021-0.024,76.534-0.046c1.834,0,3.649-0.202,5.434-0.309
		c4.78-19.548,2.231-27.405-10.532-32.916c-0.563,0.226-1.259,0.324-1.65,0.721c-9.713,9.832-17.897,8.878-24.572-3.665
		c-1.229-2.329-0.171-7.57,1.779-9.539c4.358-4.392,4.725-7.747,2.298-13.554c-2.341-5.596-5.66-5.37-10.012-5.153
		c-10.153,0.522-7.72-7.402-8.454-12.955c-0.709-5.554-1.564-12.516,6.645-12.244C207.753,163.173,209.886,156.959,211.867,149.729z
		 M255.828,200.773c14.609,0.135,26.436-11.433,26.492-25.944c0.049-14.074-11.357-25.807-25.397-26.106
		c-14.805-0.314-26.437,10.697-26.846,25.462C229.654,188.717,241.213,200.636,255.828,200.773z"/>
	<path fill-rule="evenodd" clip-rule="evenodd" fill="#FFFFFF" d="M279.709,350.682c0.184,13.117-9.829,23.441-23.001,23.68
		c-13.111,0.238-23.686-9.719-24.059-22.646c-0.379-13.35,10.104-24.169,23.472-24.218
		C269.159,327.448,279.489,337.607,279.709,350.682z"/>
	<path fill-rule="evenodd" clip-rule="evenodd" fill="#FFFFFF" d="M132.888,350.584c0.183-13.123,10.354-23.117,23.521-23.087
		c13.374,0.024,23.448,10.648,23.093,24.347c-0.348,13.086-10.678,22.836-23.93,22.536
		C142.539,374.087,132.692,363.769,132.888,350.584z"/>
	<path fill-rule="evenodd" clip-rule="evenodd" fill="#FFFFFF" d="M356.433,327.504c13.209-0.19,23.631,9.688,23.949,22.683
		c0.323,13.582-9.823,24.145-23.265,24.206c-13.196,0.066-23.313-9.902-23.447-23.087
		C333.548,338.065,343.469,327.687,356.433,327.504z"/>
</g>
</svg>
