<?xml version="1.0" encoding="utf-8"?>
<!-- Generator: Adobe Illustrator 25.4.1, SVG Export Plug-In . SVG Version: 6.00 Build 0)  -->
<svg version="1.1" id="Layer_1" xmlns="http://www.w3.org/2000/svg" xmlns:xlink="http://www.w3.org/1999/xlink" x="0px" y="0px"
	 viewBox="0 0 512 512" style="enable-background:new 0 0 512 512;" xml:space="preserve">
<style type="text/css">
	.st0{fill-rule:evenodd;clip-rule:evenodd;fill:#F6F6FB;}
	.st1{fill-rule:evenodd;clip-rule:evenodd;fill:#5554A3;}
	.st2{fill:#5554A3;}
	.st3{fill:#F6F6FB;}
	.st4{display:none;}
	.st5{display:inline;}
	.st6{fill-rule:evenodd;clip-rule:evenodd;fill:#C0272D;}
	.st7{fill-rule:evenodd;clip-rule:evenodd;fill:none;stroke:#C0272D;stroke-width:7.9297;stroke-miterlimit:10;}
</style>
<ellipse transform="matrix(0.7071 -0.7071 0.7071 0.7071 -106.1627 256.7031)" class="st0" cx="256.79" cy="256.5" rx="225" ry="225"/>
<g>
	<path class="st1" d="M175.97,380.49c6.59,1.58,13.46,2.71,20.2,2.77c36.33,0.32,72.67,0.26,109.02,0.3
		c9.67,0,19.36-0.16,28.86-2.41c13.58-3.23,21.49-10.85,23.03-23.93c1.94-16.43,0.73-32.78-4.6-48.6
		c-4.24-12.62-12.86-20.86-25.98-23.44c-9.64-1.9-19.47-2.74-29.55-4.09c-0.56,4.74-2.13,8.33-5.23,10.84
		c-3.13,2.52-6.44,5.12-10.09,6.63c-16.96,7.01-34.15,7.02-51.12,0.08c-7.65-3.13-14.05-7.87-15.55-17.59
		c-10.1,1.42-20.2,2.39-30.09,4.34c-11.89,2.36-20.19,9.72-24.48,21.04c-6.28,16.55-7.42,33.81-5.38,51.19
		C156.44,369.9,164.05,377.66,175.97,380.49z"/>
	<path class="st1" d="M266.27,253.92c5.35-0.64,10.84-0.33,16.25-0.12c1.82,0.07,3.58,1.29,5.43,1.81c1.52,0.44,3.12,0.93,4.64,0.83
		c2-0.14,4.04-0.62,5.9-1.35c1.22-0.48,2.6-1.45,3.12-2.58c2.03-4.32,4-8.71,5.56-13.23c4.1-11.99,6.42-24.26,3.84-36.94
		c-6.13-30.32-33.73-49.49-64.3-44.79c-25.73,3.96-46.5,27.1-46.58,53.11c-0.09,26.55,10.25,49.08,28.99,67.71
		c6.39,6.36,14.11,10.64,23.27,11.77c8.21,1,15.54-1.37,22.41-5.54c-0.01-0.27-0.05-0.54-0.06-0.82c-2.35,0-4.71,0.15-7.04-0.03
		c-7.49-0.56-13.39-6.82-13.78-14.49C253.55,261.96,258.92,254.8,266.27,253.92z"/>
	<path class="st1" d="M164.72,248.18c0.16,7.84,6.21,13.75,14.01,13.83c7.96,0.1,14.14-5.79,14.25-13.78
		c0.11-9.22,0.03-18.44,0.02-27.66c-0.01-4-1.24-7.78-4.48-9.96c-3.11-2.08-3.07-4.52-2.69-7.51c5.39-41.56,45.37-69.33,86.24-59.92
		c29.73,6.84,52.41,33.15,54.29,63.03c0.04,0.9-0.39,2.24-1.05,2.72c-4.44,3.16-6.42,7.38-6.35,12.78
		c0.11,7.65,0.01,15.32,0.04,22.96c0.01,2.12-0.2,4.32,0.33,6.32c0.53,1.97-0.09,2.81-1.64,3.74c-8.76,5.29-18.3,8.12-28.42,9.1
		c-1.07,0.09-2.25-0.63-3.35-1.03c-2.01-0.75-3.96-2.02-6.02-2.25c-3.36-0.39-6.81-0.13-10.22-0.1c-5.05,0.04-8.66,3.37-8.75,8.03
		c-0.1,4.8,3.44,8.41,8.57,8.56c3.5,0.1,7.05,0.31,10.51-0.11c2.05-0.23,4.4-1.12,5.86-2.51c1.62-1.57,3.23-2.07,5.3-2.31
		c11.58-1.32,22.54-4.56,32.34-11.08c1.29-0.85,2.22-0.99,3.71-0.33c9.49,4.19,19.79-2.12,20.03-12.37
		c0.2-9.3,0.12-18.62,0.01-27.94c-0.06-4.71-2.25-8.42-6.03-11.29c-0.95-0.71-1.72-2.05-1.93-3.22c-0.76-3.97-0.9-8.09-1.9-11.99
		c-8.5-33.48-29.41-55.5-63.01-63.08c-34.19-7.72-62.94,3.42-84.86,30.9c-10.15,12.69-15.47,27.52-16.77,43.75
		c-0.1,1.21-0.7,2.77-1.62,3.42c-4.36,3.09-6.44,7.21-6.45,12.46c0,4.34,0,8.68,0,13.02c0,0,0,0,0.01,0
		C164.7,238.97,164.62,243.57,164.72,248.18z"/>
</g>
</svg>
