<?xml version="1.0" encoding="utf-8"?>
<!-- Generator: Adobe Illustrator 16.0.0, SVG Export Plug-In . SVG Version: 6.00 Build 0)  -->
<!DOCTYPE svg PUBLIC "-//W3C//DTD SVG 1.1//EN" "http://www.w3.org/Graphics/SVG/1.1/DTD/svg11.dtd">
<svg version="1.1" id="Layer_1" xmlns="http://www.w3.org/2000/svg" xmlns:xlink="http://www.w3.org/1999/xlink" x="0px" y="0px"
	 width="512px" height="512px" viewBox="0 0 512 512" enable-background="new 0 0 512 512" xml:space="preserve">
<g>
	<g>
		
			<linearGradient id="SVGID_1_" gradientUnits="userSpaceOnUse" x1="78.8025" y1="399.5408" x2="394.8762" y2="83.4671" gradientTransform="matrix(1 0 0 -1 24.9448 503.3589)">
			<stop  offset="0" style="stop-color:#00C9FF"/>
			<stop  offset="1" style="stop-color:#0091FF"/>
		</linearGradient>
		<path fill="url(#SVGID_1_)" d="M484.384,259.455c0,124.262-100.733,225-225,225s-225-100.738-225-225
			c0-124.267,100.733-225,225-225S484.384,135.188,484.384,259.455z"/>
		
			<linearGradient id="SVGID_2_" gradientUnits="userSpaceOnUse" x1="128.4924" y1="427.4089" x2="340.3855" y2="60.3994" gradientTransform="matrix(1 0 0 -1 24.9448 503.3589)">
			<stop  offset="0" style="stop-color:#0091FF"/>
			<stop  offset="0.4483" style="stop-color:#0093FF"/>
			<stop  offset="1" style="stop-color:#00C9FF"/>
		</linearGradient>
		<circle fill="url(#SVGID_2_)" cx="259.384" cy="259.455" r="211.858"/>
	</g>
</g>
<g opacity="0.3">
	<g>
		<g>
			<path d="M118.986,159.125c0.68-0.989,1.327-1.999,2.036-2.965c3.655-4.994,8.704-6.938,14.75-6.931
				c30.709,0.023,61.424,0,92.133,0c42.312,0.006,84.621-0.006,126.938,0.023c11.382,0.013,18.02,6.748,18.026,18.094
				c0.006,29.406,0.006,58.813,0.006,88.209c0,0.77,0,1.534,0,2.995c-0.782-1.217-1.174-1.926-1.669-2.562
				c-3.387-4.407-6.675-8.918-10.27-13.154c-1.284-1.521-1.9-2.865-1.9-4.829c0.049-23.38,0.019-46.76,0-70.141
				c0-4.358-0.458-4.743-4.812-4.743c-42.311,0.006-84.627,0-126.942,0c-30.446,0-60.888-0.006-91.333,0
				c-3.606,0-4.23,0.648-4.236,4.315c-0.006,43.178-0.006,86.362,0.006,129.554c0,3.258,0.77,3.942,4.328,3.942
				c39.346,0.012,78.686,0.036,118.032-0.024c1.979,0,2.902,0.445,3.44,2.451c2.764,10.313,7.86,19.353,15.397,26.925
				c2.304,2.312,1.198,5.03,1.699,7.801c-19.456,0-38.692,0-58.368,0c0.391-7.665,0.781-15.354,1.197-23.394
				c-1.271,0-2.285,0-3.307,0c-25.568,0-51.13-0.165-76.681,0.104c-8.362,0.086-14.566-2.652-18.473-10.135
				C118.986,256.154,118.986,207.634,118.986,159.125z"/>
			<path d="M282.293,239.754c-3.673,4.512-7.183,8.9-10.808,13.172c-0.438,0.521-1.563,0.637-2.371,0.643
				c-20.838,0.037-47.939,0.042-68.783,0.042c-16.125,0-32.263,0-48.398-0.03c-4.479-0.012-7.616-2.628-7.836-6.375
				c-0.238-4.211,2.952-7.401,7.628-7.433c7.409-0.062,14.823-0.02,22.231-0.02c33.318,0,72.885,0,106.19,0
				C280.894,239.754,281.627,239.754,282.293,239.754z"/>
			<path d="M261.254,284.682c-3.631,0-13.453,0-17.011,0c-30.6,0.006-61.192,0-91.791,0.023c-2.556,0-4.872-0.538-6.607-2.507
				c-1.742-1.979-2.311-4.291-1.302-6.809c1.148-2.844,3.36-4.456,6.418-4.578c3.826-0.142,7.671-0.063,11.498-0.063
				c30.599-0.006,67.457-0.006,98.05-0.006c0.861,0,1.729,0,2.836,0C262.636,275.482,261.957,279.975,261.254,284.682z"/>
			<path d="M245.148,359.591c-12.646,0-25.288,0.018-37.934,0c-6.473-0.014-9.859-5.581-6.889-11.363
				c1.283-2.476,3.575-3.063,6.18-3.063c14.218,0.007,28.429-0.012,42.646-0.012c11.511,0,23.026-0.019,34.536,0.036
				c6.387,0.024,9.633,5.367,6.81,11.192c-1.326,2.726-3.846,3.232-6.619,3.227C270.967,359.577,258.063,359.591,245.148,359.591z"
				/>
			<path d="M299.849,194.235c-12.47,0-24.945,0.023-37.415-0.006c-4.076-0.013-7.127-2.677-7.39-6.271
				c-0.307-4.211,2.702-7.427,7.193-7.458c10.116-0.066,20.238-0.049,30.35-0.055c14.749,0,29.485,0.019,44.229-0.012
				c2.543-0.013,4.892,0.336,6.607,2.415c1.742,2.114,2.415,4.499,1.211,7.06c-1.333,2.836-3.588,4.34-6.84,4.334
				C325.147,194.205,312.501,194.235,299.849,194.235L299.849,194.235z"/>
			<path d="M300.001,223.489c-12.567,0-25.128-0.006-37.689,0.006c-3.104,0-5.391-1.387-6.699-4.138
				c-1.203-2.5-0.788-4.927,0.954-7.097c1.619-1.999,3.783-2.587,6.271-2.573c8.813,0.037,17.622-0.014,26.436-0.014
				c15.697-0.006,31.4,0.014,47.098-0.018c2.714-0.006,5.27,0.269,7.121,2.5c1.761,2.121,2.273,4.548,1.105,7.078
				c-1.29,2.769-3.563,4.236-6.649,4.249c-7.85,0.036-15.703,0.03-23.563,0.03c-4.792,0-9.591,0-14.383,0
				C300.001,223.508,300.001,223.495,300.001,223.489z"/>
		</g>
		<g>
			<path d="M367.141,338.514c5.391,0.728,10.66,1.18,15.813,2.194c7.018,1.375,11.626,5.787,13.899,12.536
				c2.848,8.467,3.49,17.212,2.463,26.002c-0.825,6.999-5.055,11.076-12.321,12.801c-5.08,1.21-10.265,1.296-15.44,1.296
				c-19.438-0.02-38.882,0.006-58.319-0.165c-3.605-0.037-7.278-0.636-10.801-1.479c-6.375-1.521-10.452-5.666-11.223-12.236
				c-1.094-9.298-0.488-18.539,2.873-27.391c2.299-6.046,6.735-9.988,13.1-11.253c5.287-1.046,10.69-1.564,16.094-2.323
				c0.802,5.208,4.23,7.738,8.319,9.413c9.083,3.718,18.276,3.711,27.347-0.043c1.956-0.807,3.724-2.2,5.397-3.551
				C366.004,342.982,366.841,341.057,367.141,338.514z"/>
			<path d="M355.301,340.408c-3.674,2.231-7.598,3.497-11.98,2.959c-4.896-0.604-9.033-2.892-12.45-6.29
				c-10.02-9.97-15.558-22.022-15.509-36.229c0.05-13.912,11.156-26.29,24.922-28.411c16.356-2.513,31.125,7.737,34.4,23.955
				c1.369,6.778,0.134,13.35-2.061,19.768c-0.831,2.415-1.884,4.763-2.972,7.072c-0.28,0.6-1.021,1.125-1.668,1.382
				c-0.997,0.392-2.085,0.647-3.153,0.722c-0.819,0.056-1.676-0.209-2.488-0.439c-0.983-0.281-1.925-0.936-2.909-0.973
				c-2.896-0.122-5.831-0.28-8.691,0.066c-3.937,0.465-6.81,4.297-6.607,8.223c0.208,4.095,3.362,7.45,7.372,7.751
				c1.247,0.091,2.506,0.012,3.766,0.012C355.282,340.115,355.295,340.262,355.301,340.408z"/>
			<path d="M296.395,313.514c0-2.316,0-4.641,0-6.956c0.014-2.813,1.125-5.013,3.454-6.669c0.482-0.349,0.813-1.187,0.868-1.821
				c0.696-8.691,3.545-16.62,8.967-23.417c11.725-14.688,27.108-20.647,45.397-16.521c17.977,4.06,29.168,15.831,33.716,33.747
				c0.532,2.084,0.6,4.29,1.009,6.411c0.122,0.63,0.532,1.347,1.039,1.73c2.023,1.534,3.185,3.521,3.215,6.039
				c0.067,4.98,0.11,9.969,0,14.945c-0.122,5.477-5.642,8.855-10.715,6.612c-0.795-0.354-1.296-0.287-1.986,0.179
				c-5.244,3.488-11.101,5.22-17.305,5.929c-1.101,0.128-1.962,0.396-2.83,1.234c-0.782,0.752-2.042,1.217-3.142,1.345
				c-1.854,0.214-3.741,0.104-5.617,0.055c-2.738-0.085-4.64-2.017-4.585-4.578c0.056-2.493,1.979-4.271,4.683-4.297
				c1.827-0.018,3.667-0.152,5.472,0.049c1.1,0.129,2.139,0.802,3.215,1.204c0.593,0.221,1.223,0.605,1.797,0.551
				c5.41-0.525,10.52-2.035,15.208-4.872c0.819-0.488,1.148-0.94,0.88-1.999c-0.287-1.068-0.177-2.248-0.183-3.38
				c-0.02-4.096,0.036-8.189-0.02-12.279c-0.043-2.892,1.016-5.146,3.394-6.841c0.354-0.257,0.586-0.972,0.556-1.454
				c-0.996-15.983-13.136-30.056-29.04-33.723c-21.864-5.03-43.246,9.822-46.137,32.06c-0.208,1.597-0.222,2.903,1.441,4.018
				c1.742,1.167,2.396,3.189,2.396,5.33c0.007,4.933,0.05,9.865-0.012,14.798c-0.05,4.272-3.368,7.421-7.622,7.372
				c-4.169-0.05-7.402-3.203-7.494-7.396c-0.056-2.471-0.006-4.934-0.006-7.402C296.4,313.514,296.4,313.514,296.395,313.514z"/>
		</g>
	</g>
	<g>
		<path d="M158.876,193.605v3.723h-14.982V177.01h14.774v3.723h-9.713v4.261h9.267v3.722h-9.267v4.891L158.876,193.605
			L158.876,193.605z"/>
		<path d="M181.902,177.01l-9.395,20.58h-2.194l-9.847-20.58h5.513l5.379,11.607l5.092-11.607H181.902z"/>
		<path d="M199.213,193.605v3.723h-14.982V177.01h14.774v3.723h-9.713v4.261h9.267v3.722h-9.267v4.891L199.213,193.605
			L199.213,193.605z"/>
		<path d="M223.656,177.01v20.317h-4.271l-11.216-13.02v13.02h-5.062V177.01h4.64l10.85,12.421V177.01H223.656z"/>
		<path d="M246.566,177.01v3.723h-7.358v16.596h-5.062v-16.596h-7.358v-3.723H246.566z"/>
		<path d="M160.734,204.314v3.723h-6.846v16.595h-4.707v-16.595h-6.846v-3.723H160.734z"/>
		<path d="M168.473,204.314v20.317h-4.707v-20.317H168.473z"/>
		<path d="M190.441,218.434v4.438c-2.365,1.352-4.841,2.023-7.427,2.023c-3.355,0-6.027-0.996-8.02-2.989
			c-1.986-1.993-2.983-4.45-2.983-7.366c0-2.922,1.051-5.396,3.148-7.433c2.097-2.042,4.835-3.056,8.215-3.056
			c2.695,0,4.981,0.593,6.846,1.79v4.523c-2.292-1.387-4.456-2.084-6.503-2.084c-2.011,0-3.655,0.581-4.933,1.742
			c-1.277,1.155-1.913,2.635-1.913,4.425c0,1.803,0.629,3.295,1.889,4.468c1.253,1.174,2.867,1.762,4.835,1.762
			c0.972,0,1.914-0.142,2.812-0.416C187.312,219.987,188.65,219.375,190.441,218.434z"/>
		<path d="M210.05,204.314l-6.155,9.554l8.351,10.764h-5.887l-7.493-9.528v9.528h-4.707v-20.317h4.707v9.145l6.009-9.145H210.05z"/>
		<path d="M228.094,220.91v3.723h-13.93v-20.317h13.739v3.723h-9.033v4.26h8.618v3.723h-8.618v4.89H228.094z"/>
		<path d="M248.754,204.314v3.723h-6.846v16.595h-4.707v-16.595h-6.847v-3.723H248.754z"/>
	</g>
</g>
<g>
	<g>
		<g>
			<path fill="#FFFFFF" d="M128.986,149.125c0.68-0.989,1.327-1.999,2.036-2.965c3.655-4.994,8.704-6.938,14.75-6.931
				c30.709,0.023,61.424,0,92.133,0c42.312,0.006,84.621-0.006,126.938,0.023c11.382,0.013,18.02,6.748,18.026,18.094
				c0.006,29.406,0.006,58.813,0.006,88.209c0,0.77,0,1.534,0,2.995c-0.782-1.217-1.174-1.926-1.669-2.562
				c-3.387-4.407-6.675-8.918-10.27-13.154c-1.284-1.521-1.9-2.865-1.9-4.829c0.049-23.38,0.019-46.76,0-70.141
				c0-4.358-0.458-4.743-4.812-4.743c-42.311,0.006-84.627,0-126.942,0c-30.446,0-60.888-0.006-91.333,0
				c-3.606,0-4.23,0.648-4.236,4.315c-0.006,43.178-0.006,86.362,0.006,129.554c0,3.258,0.77,3.942,4.328,3.942
				c39.346,0.012,78.686,0.036,118.032-0.024c1.979,0,2.902,0.445,3.44,2.451c2.764,10.313,7.86,19.353,15.397,26.925
				c2.304,2.312,1.198,5.03,1.699,7.801c-19.456,0-38.692,0-58.368,0c0.391-7.665,0.781-15.354,1.197-23.394
				c-1.271,0-2.285,0-3.307,0c-25.568,0-51.13-0.165-76.681,0.104c-8.362,0.086-14.566-2.652-18.473-10.135
				C128.986,246.154,128.986,197.634,128.986,149.125z"/>
			<path fill="#FFFFFF" d="M292.293,229.754c-3.673,4.512-7.183,8.9-10.808,13.172c-0.438,0.521-1.563,0.637-2.371,0.643
				c-20.838,0.037-47.939,0.042-68.783,0.042c-16.125,0-32.263,0-48.398-0.03c-4.479-0.012-7.616-2.628-7.836-6.375
				c-0.238-4.211,2.952-7.401,7.628-7.433c7.409-0.062,14.823-0.02,22.231-0.02c33.318,0,72.885,0,106.19,0
				C290.894,229.754,291.627,229.754,292.293,229.754z"/>
			<path fill="#FFFFFF" d="M271.254,274.682c-3.631,0-13.453,0-17.011,0c-30.6,0.006-61.192,0-91.791,0.023
				c-2.556,0-4.872-0.538-6.607-2.507c-1.742-1.979-2.311-4.291-1.302-6.809c1.148-2.844,3.36-4.456,6.418-4.578
				c3.826-0.142,7.671-0.063,11.498-0.063c30.599-0.006,67.457-0.006,98.05-0.006c0.861,0,1.729,0,2.836,0
				C272.636,265.482,271.957,269.975,271.254,274.682z"/>
			<path fill="#FFFFFF" d="M255.148,349.591c-12.646,0-25.288,0.018-37.934,0c-6.473-0.014-9.859-5.581-6.889-11.363
				c1.283-2.476,3.575-3.063,6.18-3.063c14.218,0.007,28.429-0.012,42.646-0.012c11.511,0,23.026-0.019,34.536,0.036
				c6.387,0.024,9.633,5.367,6.81,11.192c-1.326,2.726-3.846,3.232-6.619,3.227C280.967,349.577,268.063,349.591,255.148,349.591z"
				/>
			<path fill="#FFFFFF" d="M309.849,184.235c-12.47,0-24.945,0.023-37.415-0.006c-4.076-0.013-7.127-2.677-7.39-6.271
				c-0.307-4.211,2.702-7.427,7.193-7.458c10.116-0.066,20.238-0.049,30.35-0.055c14.749,0,29.485,0.019,44.229-0.012
				c2.543-0.013,4.892,0.336,6.607,2.415c1.742,2.114,2.415,4.499,1.211,7.06c-1.333,2.836-3.588,4.34-6.84,4.334
				C335.147,184.205,322.501,184.235,309.849,184.235L309.849,184.235z"/>
			<path fill="#FFFFFF" d="M310.001,213.489c-12.567,0-25.128-0.006-37.689,0.006c-3.104,0-5.391-1.387-6.699-4.138
				c-1.203-2.5-0.788-4.927,0.954-7.097c1.619-1.999,3.783-2.587,6.271-2.573c8.813,0.037,17.622-0.014,26.436-0.014
				c15.697-0.006,31.4,0.014,47.098-0.018c2.714-0.006,5.27,0.269,7.121,2.5c1.761,2.121,2.273,4.548,1.105,7.078
				c-1.29,2.769-3.563,4.236-6.649,4.249c-7.85,0.036-15.703,0.03-23.563,0.03c-4.792,0-9.591,0-14.383,0
				C310.001,213.508,310.001,213.495,310.001,213.489z"/>
		</g>
		<g>
			<path fill="#FFFFFF" d="M377.141,328.514c5.391,0.728,10.66,1.18,15.813,2.194c7.018,1.375,11.626,5.787,13.899,12.536
				c2.848,8.467,3.49,17.212,2.463,26.002c-0.825,6.999-5.055,11.076-12.321,12.801c-5.08,1.21-10.265,1.296-15.44,1.296
				c-19.438-0.02-38.882,0.006-58.319-0.165c-3.605-0.037-7.278-0.636-10.801-1.479c-6.375-1.521-10.452-5.666-11.223-12.236
				c-1.094-9.298-0.488-18.539,2.873-27.391c2.299-6.046,6.735-9.988,13.1-11.253c5.287-1.046,10.69-1.564,16.094-2.323
				c0.802,5.208,4.23,7.738,8.319,9.413c9.083,3.718,18.276,3.711,27.347-0.043c1.956-0.807,3.724-2.2,5.397-3.551
				C376.004,332.982,376.841,331.057,377.141,328.514z"/>
			<path fill="#FFFFFF" d="M365.301,330.408c-3.674,2.231-7.598,3.497-11.98,2.959c-4.896-0.604-9.033-2.892-12.45-6.29
				c-10.02-9.97-15.558-22.022-15.509-36.229c0.05-13.912,11.156-26.29,24.922-28.411c16.356-2.513,31.125,7.737,34.4,23.955
				c1.369,6.778,0.134,13.35-2.061,19.768c-0.831,2.415-1.884,4.763-2.972,7.072c-0.28,0.6-1.021,1.125-1.668,1.382
				c-0.997,0.392-2.085,0.647-3.153,0.722c-0.819,0.056-1.676-0.209-2.488-0.439c-0.983-0.281-1.925-0.936-2.909-0.973
				c-2.896-0.122-5.831-0.28-8.691,0.066c-3.937,0.465-6.81,4.297-6.607,8.223c0.208,4.095,3.362,7.45,7.372,7.751
				c1.247,0.091,2.506,0.012,3.766,0.012C365.282,330.115,365.295,330.262,365.301,330.408z"/>
			<path fill="#FFFFFF" d="M306.395,303.514c0-2.316,0-4.641,0-6.956c0.014-2.813,1.125-5.013,3.454-6.669
				c0.482-0.349,0.813-1.187,0.868-1.821c0.696-8.691,3.545-16.62,8.967-23.417c11.725-14.688,27.108-20.647,45.397-16.521
				c17.977,4.06,29.168,15.831,33.716,33.747c0.532,2.084,0.6,4.29,1.009,6.411c0.122,0.63,0.532,1.347,1.039,1.73
				c2.023,1.534,3.185,3.521,3.215,6.039c0.067,4.98,0.11,9.969,0,14.945c-0.122,5.477-5.642,8.855-10.715,6.612
				c-0.795-0.354-1.296-0.287-1.986,0.179c-5.244,3.488-11.101,5.22-17.305,5.929c-1.101,0.128-1.962,0.396-2.83,1.234
				c-0.782,0.752-2.042,1.217-3.142,1.345c-1.854,0.214-3.741,0.104-5.617,0.055c-2.738-0.085-4.64-2.017-4.585-4.578
				c0.056-2.493,1.979-4.271,4.683-4.297c1.827-0.018,3.667-0.152,5.472,0.049c1.1,0.129,2.139,0.802,3.215,1.204
				c0.593,0.221,1.223,0.605,1.797,0.551c5.41-0.525,10.52-2.035,15.208-4.872c0.819-0.488,1.148-0.94,0.88-1.999
				c-0.287-1.068-0.177-2.248-0.183-3.38c-0.02-4.096,0.036-8.189-0.02-12.279c-0.043-2.892,1.016-5.146,3.394-6.841
				c0.354-0.257,0.586-0.972,0.556-1.454c-0.996-15.983-13.136-30.056-29.04-33.723c-21.864-5.03-43.246,9.822-46.137,32.06
				c-0.208,1.597-0.222,2.903,1.441,4.018c1.742,1.167,2.396,3.189,2.396,5.33c0.007,4.933,0.05,9.865-0.012,14.798
				c-0.05,4.272-3.368,7.421-7.622,7.372c-4.169-0.05-7.402-3.203-7.494-7.396c-0.056-2.471-0.006-4.934-0.006-7.402
				C306.4,303.514,306.4,303.514,306.395,303.514z"/>
		</g>
	</g>
	<g>
		<path fill="#FFFFFF" d="M168.876,183.605v3.723h-14.982V167.01h14.774v3.723h-9.713v4.261h9.267v3.722h-9.267v4.891
			L168.876,183.605L168.876,183.605z"/>
		<path fill="#FFFFFF" d="M191.902,167.01l-9.395,20.58h-2.194l-9.847-20.58h5.513l5.379,11.607l5.092-11.607H191.902z"/>
		<path fill="#FFFFFF" d="M209.213,183.605v3.723h-14.982V167.01h14.774v3.723h-9.713v4.261h9.267v3.722h-9.267v4.891
			L209.213,183.605L209.213,183.605z"/>
		<path fill="#FFFFFF" d="M233.656,167.01v20.317h-4.271l-11.216-13.02v13.02h-5.062V167.01h4.64l10.85,12.421V167.01H233.656z"/>
		<path fill="#FFFFFF" d="M256.566,167.01v3.723h-7.358v16.596h-5.062v-16.596h-7.358v-3.723H256.566z"/>
		<path fill="#FFFFFF" d="M170.734,194.314v3.723h-6.846v16.595h-4.707v-16.595h-6.846v-3.723H170.734z"/>
		<path fill="#FFFFFF" d="M178.473,194.314v20.317h-4.707v-20.317H178.473z"/>
		<path fill="#FFFFFF" d="M200.441,208.434v4.438c-2.365,1.352-4.841,2.023-7.427,2.023c-3.355,0-6.027-0.996-8.02-2.989
			c-1.986-1.993-2.983-4.45-2.983-7.366c0-2.922,1.051-5.396,3.148-7.433c2.097-2.042,4.835-3.056,8.215-3.056
			c2.695,0,4.981,0.593,6.846,1.79v4.523c-2.292-1.387-4.456-2.084-6.503-2.084c-2.011,0-3.655,0.581-4.933,1.742
			c-1.277,1.155-1.913,2.635-1.913,4.425c0,1.803,0.629,3.295,1.889,4.468c1.253,1.174,2.867,1.762,4.835,1.762
			c0.972,0,1.914-0.142,2.812-0.416C197.312,209.987,198.65,209.375,200.441,208.434z"/>
		<path fill="#FFFFFF" d="M220.05,194.314l-6.155,9.554l8.351,10.764h-5.887l-7.493-9.528v9.528h-4.707v-20.317h4.707v9.145
			l6.009-9.145H220.05z"/>
		<path fill="#FFFFFF" d="M238.094,210.91v3.723h-13.93v-20.317h13.739v3.723h-9.033v4.26h8.618v3.723h-8.618v4.89H238.094z"/>
		<path fill="#FFFFFF" d="M258.754,194.314v3.723h-6.846v16.595h-4.707v-16.595h-6.847v-3.723H258.754z"/>
	</g>
</g>
</svg>
