<?xml version="1.0" encoding="utf-8"?>
<!-- Generator: Adobe Illustrator 16.0.0, SVG Export Plug-In . SVG Version: 6.00 Build 0)  -->
<!DOCTYPE svg PUBLIC "-//W3C//DTD SVG 1.1//EN" "http://www.w3.org/Graphics/SVG/1.1/DTD/svg11.dtd">
<svg version="1.1" id="Layer_1" xmlns="http://www.w3.org/2000/svg" xmlns:xlink="http://www.w3.org/1999/xlink" x="0px" y="0px"
	 width="358.141px" height="426.257px" viewBox="0 0 358.141 426.257" enable-background="new 0 0 358.141 426.257"
	 xml:space="preserve">
<g>
	<path fill="#F8D8E3" d="M33.844,172.395c0-3.87,0-7.74,0-11.61c0.209-1.095,0.117-2.211,0.131-3.309
		c0.068-5.079,0.793-10.083,1.604-15.074c1.215-7.47,3.054-14.794,5.449-21.971c2.47-7.404,5.497-14.581,9.157-21.477
		c5.252-9.891,11.488-19.117,18.85-27.572c1.913-2.199,3.912-4.315,5.938-6.411c6.151-6.365,12.881-12.046,20.074-17.191
		c1.961-1.403,3.963-2.749,6.008-4.028c0.274-0.171,0.562-0.456,0.925-0.144c0.16,0.489-0.142,0.874-0.313,1.274
		c-1.964,4.546-2.589,9.323-2.315,14.218c0.27,4.792,1.451,9.405,3.104,13.902c0.805,2.188,1.717,4.332,2.668,6.459
		c0.389,0.873,0.361,1.082-0.325,1.751c-0.853,0.83-1.79,1.571-2.617,2.428c-0.913,0.615-1.927,0.441-2.929,0.369
		c-0.92-0.065-1.831-0.271-2.765-0.111c-2.159,0.372-3.373,1.68-3.512,3.87c-0.059,0.924-0.194,1.841-0.198,2.771
		c-0.004,0.832-0.308,1.608-0.62,2.37c-0.11,0.27-0.231,0.536-0.364,0.794c-0.734,1.43-1.127,2.909-0.703,4.517
		c-0.291,1.001-0.879,1.864-1.326,2.792c-2.588,5.355-4.17,10.986-4.733,16.901c-0.359,3.764-0.193,7.511,0.479,11.232
		c0.116,0.64,0.095,1.255-0.058,1.886c-0.985,4.053-1.652,8.169-1.848,12.324c-0.292,6.287,0.056,12.552,1.416,18.728
		c0.275,1.246,0.271,1.267-0.776,1.932c-4.476,2.839-6.519,7.068-7.055,12.19c-0.433,4.148,0.133,8.161,1.729,11.987
		c3.418,8.188,9.656,12.915,18.277,14.648c1.469,0.294,2.944,0.355,4.428,0.299c0.836-0.03,1.354,0.271,1.775,1.03
		c2.975,5.386,6.979,9.905,11.813,13.685c6.006,4.7,12.736,8.07,19.871,10.682c1.768,0.648,3.561,1.213,5.356,1.768
		c0.942,0.291,1.056,0.632,0.332,1.3c-2.102,1.944-4.155,3.937-6.126,6.011c-3.212,3.382-6.008,7.076-7.783,11.434
		c-2.091,5.132-2.66,10.386-1.063,15.78c0.588,1.985,1.578,3.753,2.828,5.388c0.7,0.918,0.713,0.988,0.062,1.946
		c-1.886,2.783-2.607,5.814-1.999,9.144c0.188,1.026,0.544,1.993,1.047,2.902c0.333,0.605,0.275,1.117-0.147,1.682
		c-1.525,2.022-2.705,4.238-3.621,6.601c-0.668,1.727-0.638,1.865,0.805,2.973c0.851,2.006,2.592,3.086,4.334,4.162
		c2.482,1.537,5.211,2.488,8.002,3.25c6.834,1.871,13.769,3.252,20.812,4.035c2.418,0.27,4.849,0.434,7.281,0.58
		c3.522,0.213,7.047,0.17,10.563,0.102c5.191-0.102,10.355-0.619,15.488-1.438c4.979-0.797,9.893-1.873,14.729-3.287
		c6.091-1.783,12.032-3.957,17.715-6.795c2.142-1.07,3.932-2.588,5.271-4.598c0.833-0.755,0.7-1.572,0.293-2.52
		c-3.004-6.994-7-13.367-11.938-19.156c-0.736-0.865-0.729-1.077,0.192-1.768c3.576-2.68,6.043-6.142,7.308-10.425
		c0.633-2.141,0.877-4.332,0.771-6.586c-0.276-5.922-2.885-10.752-6.762-15.042c-2.11-2.334-4.54-4.288-7.08-6.119
		c-0.086-0.062-0.176-0.119-0.26-0.183c-0.711-0.542-0.681-0.829,0.176-1.195c0.805-0.343,1.61-0.686,2.4-1.058
		c5.766-2.705,11.128-6.043,15.93-10.246c3.756-3.288,6.968-7.038,9.481-11.361c0.383-0.656,0.853-0.933,1.599-0.926
		c4.203,0.039,8.248-0.783,12.004-2.651c7.946-3.951,13.158-10.05,14.389-19.078c0.596-4.352-0.051-8.504-2.402-12.301
		c-0.632-1.021-1.389-1.941-2.268-2.754c-0.424-0.394-0.633-0.797-0.559-1.393c0.677-5.481,0.772-10.987,0.677-16.5
		c-0.067-3.817-0.447-7.61-1.007-11.386c-0.53-3.568-1.227-7.103-2.187-10.582c-0.178-0.652-0.178-1.316-0.12-1.973
		c0.313-3.518-0.098-6.983-0.812-10.415c-1.457-7.018-4.623-13.28-8.598-19.173c-0.739-1.095-0.748-1.209,0.237-2.024
		c5.381-4.448,8.188-10.294,8.916-17.108c0.54-5.036-0.329-9.926-2.479-14.561c-2.917-6.279-7.396-11.195-13.073-15.062
		c-5.37-3.659-11.278-5.979-17.739-6.747c-8.684-1.032-16.718,0.723-23.879,5.893c-3.958,2.857-7.05,6.475-9.267,10.829
		c-0.663,1.305-0.682,1.318-2.153,1.075c-2.852-0.469-5.719-0.798-8.6-1.006c-0.779-0.056-0.929-0.203-0.857-0.988
		c0.256-2.83,0.344-5.674,0.161-8.497c-0.43-6.631-2.291-12.733-7.304-17.458c-3.355-3.164-7.287-5.155-11.96-5.51
		c-5.124-0.39-9.614,1.13-13.5,4.464c-4.372,3.751-6.631,8.636-7.565,14.22c-0.088,0.523-0.139,1.051-0.225,1.574
		c-0.044,0.259-0.104,0.585-0.396,0.635c-0.326,0.056-0.4-0.295-0.509-0.52c-1.042-2.126-2.277-4.127-3.772-5.968
		c-2.896-3.565-6.457-6.169-10.851-7.592c-0.298-0.097-0.718-0.086-0.749-0.562c0.209-0.265,0.523-0.354,0.816-0.469
		c7.383-2.923,14.947-5.238,22.715-6.909c4.59-0.988,9.208-1.782,13.871-2.311c2.973-0.336,5.955-0.561,8.941-0.743
		c3.948-0.24,7.895-0.091,11.84-0.127c4.35-0.04,8.676,0.362,12.989,0.857c6.88,0.787,13.672,2.063,20.37,3.833
		c5.053,1.335,10.02,2.932,14.897,4.802c7.688,2.948,15.071,6.53,22.155,10.726c7.153,4.238,13.869,9.09,20.199,14.479
		c3.715,3.162,7.271,6.5,10.634,10.029c5.495,5.762,10.517,11.914,15.017,18.491c4.212,6.158,7.936,12.6,11.166,19.323
		c3.818,7.951,6.864,16.191,9.174,24.707c1.34,4.942,2.422,9.939,3.216,14.994c0.532,3.374,0.958,6.765,1.256,10.172
		c0.283,3.248,0.282,6.502,0.381,9.757c0.088,2.888-0.066,5.769-0.026,8.653c0.006,4.297-0.409,8.563-0.938,12.822
		c-0.684,5.503-1.68,10.948-2.995,16.332c-1.884,7.713-4.393,15.22-7.515,22.524c-2.274,5.32-4.858,10.481-7.746,15.491
		c-4.271,7.413-9.188,14.377-14.683,20.933c-2.963,3.535-6.068,6.946-9.375,10.16c-5.937,5.773-12.267,11.076-19.084,15.793
		c-7.826,5.415-16.098,10.021-24.813,13.846c-8.646,3.795-17.589,6.674-26.801,8.703c-5.281,1.166-10.619,1.996-16.002,2.57
		c-3.586,0.383-7.178,0.488-10.775,0.58c-2.994,0-5.989,0.02-8.983-0.004c-4.874-0.041-9.724-0.381-14.563-1.016
		c-8.009-1.053-15.876-2.734-23.588-5.111c-6.516-2.008-12.87-4.438-19.053-7.332c-6.352-2.973-12.434-6.416-18.291-10.252
		c-5.016-3.285-9.794-6.893-14.354-10.789c-3.55-3.032-6.942-6.226-10.19-9.575c-5.657-5.833-10.785-12.101-15.394-18.796
		c-3.487-5.072-6.621-10.355-9.479-15.806c-0.578-1.102-1.157-2.206-1.67-3.341c-0.18-0.396-0.471-0.787-0.278-1.273
		c0.332-0.18,0.614,0.004,0.9,0.131c0.906,0.4,1.707,0.956,2.407,1.659c0.486,0.487,0.953,0.994,1.502,1.417
		c2.525,1.943,5.494,1.781,7.776-0.458c1.626-1.595,3.185-3.262,5.042-4.603c0.43-0.311,0.869-0.606,1.303-0.911
		c2.788-1.963,3.267-5.598,1.076-8.223c-0.356-0.427-0.703-0.863-1.084-1.269c-0.796-0.844-1.199-1.841-1.215-3.017
		c-0.021-1.456-0.342-2.843-1.198-4.055c-1.357-1.926-3.567-2.738-5.96-2.207c-0.285,0.063-0.574,0.125-0.841,0.241
		c-2.021,0.882-4.108,0.862-6.243,0.551c-3.645-0.531-6.127,1.618-6.236,5.308c-0.054,1.77-0.024,3.562-0.764,5.23
		c-0.13,0.296-0.137,0.787-0.688,0.693c-0.289-0.224-0.396-0.557-0.517-0.877c-2.893-7.702-5.153-15.58-6.725-23.66
		c-0.971-4.997-1.697-10.025-2.101-15.095c-0.159-2.024-0.197-4.066-0.196-6.103C33.92,172.965,34.005,172.667,33.844,172.395z"/>
	<path fill="#5A3A1C" d="M101.931,43.582c1.524-2.814,3.364-5.381,5.866-7.42c4.287-3.494,9.127-5.258,14.711-4.666
		c0.707,0.075,1.407,0.221,2.111,0.333c3.733,1.072,6.985,2.975,9.766,5.688c2.374,2.317,4.246,4.995,5.693,7.975
		c0.125,0.259,0.247,0.52,0.451,0.951c0.267-1.657,0.437-3.162,0.813-4.626c1.501-5.811,4.488-10.599,9.649-13.838
		c6.443-4.045,14.572-3.668,20.911,0.859c5.149,3.678,7.979,8.778,9.209,14.87c0.895,4.43,0.859,8.893,0.396,13.363
		c-0.051,0.489,0.021,0.63,0.531,0.661c3.119,0.187,6.223,0.54,9.298,1.099c0.634,0.115,0.905-0.058,1.191-0.625
		c4.752-9.427,12.477-15.01,22.723-16.973c9.578-1.836,18.528,0.33,26.794,5.298c7.325,4.402,12.991,10.371,15.92,18.539
		c3.301,9.206,2.188,17.904-3.581,25.898c-1.121,1.553-2.47,2.916-4.013,4.047c-0.63,0.461-0.529,0.755-0.156,1.293
		c3.215,4.629,5.854,9.557,7.602,14.934c1.636,5.033,2.445,10.178,2.039,15.479c-0.113,1.5,0.513,2.851,0.836,4.256
		c1.53,6.654,2.361,13.386,2.521,20.211c0.117,5.066-0.084,10.114-0.697,15.141c-0.099,0.807,0.115,1.25,0.673,1.803
		c2.756,2.738,4.21,6.125,4.594,9.958c1.083,10.863-5.238,20.081-14.848,24.515c-3.728,1.721-7.648,2.621-11.765,2.533
		c-0.773-0.018-1.144,0.243-1.521,0.892c-3.688,6.348-8.841,11.317-14.799,15.505c-4.083,2.871-8.442,5.24-13.043,7.175
		c-0.234,0.098-0.521,0.12-0.694,0.405c2.254,1.54,4.413,3.201,6.375,5.105c4.196,4.079,7.366,8.766,8.163,14.702
		c1.052,7.807-1.596,14.19-7.729,19.124c-1.047,0.842-1.063,0.819-0.203,1.83c4.973,5.852,8.961,12.308,11.93,19.392
		c0.479,1.142,0.404,1.49-0.498,2.278c-0.76,0.578-1.59,0.41-2.134-0.452c-0.41-0.651-0.661-1.388-0.974-2.089
		c-2.896-6.484-6.708-12.376-11.367-17.732c-0.416-0.479-0.77-0.479-1.305-0.234c-4.181,1.916-8.597,2.682-13.158,2.399
		c-4.704-0.29-9.091-1.739-13.166-4.098c-0.545-0.316-0.945-0.37-1.4,0.092c-0.277,0.283-0.608,0.528-0.976,0.678
		c-1.856,0.756-3.459,1.938-5.136,2.995c-3.778,2.384-7.826,4.235-11.896,6.045c-0.824,0.366-1.467,0.813-1.954,1.62
		c-0.956,1.583-2.337,2.803-3.804,3.908c-0.428,0.321-0.656,0.692-0.807,1.209c-0.532,1.815-1.609,3.334-2.839,4.733
		c-2.946,3.357-6.608,5.473-11.074,5.967c-5.19,0.574-9.875-0.705-13.905-4.137c-1.201-1.021-2.191-2.219-3.139-3.465
		c-0.546-0.718-0.619-0.707-1.09,0.037c-0.992,1.572-1.812,3.232-2.464,4.977c-0.123,0.322-0.227,0.662-0.442,0.93
		c-0.375,0.461-0.784,0.889-1.472,0.572c-1.305-0.365-1.688-1.057-1.226-2.305c1.034-2.793,2.331-5.449,4.222-7.771
		c0.303-0.371,0.073-0.582-0.06-0.835c-1.018-1.917-1.478-3.955-1.366-6.122c0.129-2.535,1.001-4.799,2.535-6.805
		c0.272-0.358,0.283-0.553-0.014-0.908c-3.478-4.153-4.479-9.029-4.008-14.278c0.62-6.892,3.955-12.519,8.403-17.6
		c2.289-2.616,4.805-5.004,7.369-7.345c0.23-0.21,0.463-0.419,0.772-0.7c-2.279-0.688-4.44-1.359-6.561-2.148
		c-8.018-2.986-15.535-6.857-21.995-12.563c-3.862-3.41-7.101-7.345-9.581-11.871c-0.354-0.65-0.756-0.775-1.421-0.782
		c-7.73-0.064-14.3-2.839-19.271-8.809c-4.384-5.262-6.109-11.46-5.555-18.279c0.337-4.117,1.769-7.767,4.764-10.71
		c0.815-0.802,1.719-1.506,2.729-2.032c0.535-0.277,0.601-0.602,0.482-1.127c-1.164-5.187-1.699-10.442-1.644-15.757
		c0.06-5.314,0.686-10.563,1.983-15.719c0.284-1.124-0.05-2.157-0.194-3.213c-1.22-8.849,0.258-17.287,3.812-25.415
		c0.623-1.425,1.257-2.85,2.087-4.173c0.138,0.012,0.267,0.07,0.335,0.18c0.483,0.791,1.206,1.355,1.865,1.981
		c0.146,0.459-0.115,0.822-0.296,1.198c-1.944,4.083-3.477,8.306-4.274,12.769c-0.396,2.214-0.688,4.446-0.699,6.705
		c-0.002,0.388,0.044,0.789-0.221,1.214c1.006-2.923,2.242-5.661,3.63-8.327c1.788-3.433,3.781-6.744,6.07-9.871
		c0.229-0.315,0.429-0.679,0.843-0.809c0.977,0.398,1.794,1.023,2.539,1.756c-0.03,0.452-0.323,0.775-0.568,1.116
		c-5.57,7.756-9.572,16.238-11.752,25.546c-1.137,4.86-1.817,9.779-1.832,14.795c-0.013,4.705,0.205,9.374,1.195,13.984
		c0.055,0.255,0.06,0.526,0.23,0.825c0.538-0.942,0.991-1.882,1.432-2.824c1.705-3.655,3.667-7.171,5.713-10.641
		c3.938-6.682,8.403-12.993,13.528-18.823c6.386-7.265,13.479-13.719,21.826-18.688c8.472-5.043,17.59-8.368,27.302-10.052
		c4.414-0.765,8.854-1.205,13.347-1.323c5.9-0.154,11.745,0.292,17.556,1.221c8.42,1.347,16.507,3.828,24.287,7.317
		c8.104,3.633,15.618,8.237,22.364,14.006c6.952,5.945,12.923,12.771,17.528,20.714c3.596,6.197,5.771,12.894,6.825,19.966
		c0.087,0.579-0.133,1.16,0.078,1.731c-0.031,0.106,0.131,0.01,0.026,0.023c-0.012,0.001-0.018-0.009-0.02-0.03
		c-0.137-1.05-0.08-2.107,0.013-3.15c0.149-1.716,0.2-3.438,0.243-5.154c0.166-6.588-0.405-13.131-1.616-19.602
		c-2.23-11.915-6.585-22.956-13.925-32.695c-5.86-7.778-13.23-13.83-21.672-18.627c-8.998-5.116-18.627-8.512-28.73-10.646
		c-3.426-0.725-6.876-1.3-10.356-1.654c-1.918-0.195-3.844-0.363-5.78-0.406c-2.38-0.053-4.756-0.328-7.139-0.286
		c-2.937,0.052-5.868,0.226-8.8,0.421c-5.012,0.333-9.949,1.129-14.83,2.278c-5.121,1.207-10.069,2.919-14.843,5.15
		c-5.207,2.434-10.1,5.379-14.706,8.802c-1.511,1.121-2.961,2.321-4.399,3.535c-0.222,0.187-0.419,0.409-0.722,0.472
		c-0.953-0.442-1.568-1.202-1.998-2.135c0.039-0.785,0.717-1.098,1.168-1.578c2.203-1.766,4.42-3.515,6.732-5.138
		c3.245-2.209,6.611-4.221,10.115-5.988c2.53-1.275,5.118-2.437,7.776-3.434c1.11-0.435,2.227-0.854,3.359-1.221
		c0.57-0.185,0.793-0.509,0.794-1.102c0.008-3.045-0.151-6.083-0.287-9.124c-0.061-1.348-0.218-2.704-0.164-4.042
		c0.116-2.953-0.563-5.746-1.521-8.474c-1.802-5.122-4.713-9.468-9.252-12.59c-6.157-4.237-13.044-3.761-18.742,0.66
		c-4.493,3.485-6.916,8.2-7.826,13.747c-0.818,4.995-0.388,9.918,0.897,14.785c1.224,4.629,3.052,9.024,5.086,13.346
		c0.836,1.774,1.726,3.521,2.57,5.287c0.391,0.813,0.509,1.617-0.113,2.387c-0.276,0.239-0.565,0.442-0.961,0.271
		c-0.295-0.271-0.321-0.653-0.41-1.01c-0.766-3.138-3.335-4.556-6.428-3.561c-0.435,0.14-0.876,0.434-1.356,0.111
		c0.965-0.904,1.911-1.828,2.903-2.701c0.345-0.302,0.373-0.521,0.188-0.929c-2.146-4.689-4.035-9.471-5.097-14.543
		c-1.549-7.407-1.358-14.656,1.953-21.625C101.927,43.692,101.924,43.634,101.931,43.582z"/>
	<path fill="#F2A8C1" d="M124.652,295.501c0.872-0.084,1.337-0.592,1.618-1.404c0.768-2.212,1.871-4.259,3.228-6.238
		c0.41,0.293,0.619,0.723,0.889,1.088c3.947,5.334,9.25,7.955,15.854,7.461c6.676-0.5,11.436-4.037,14.436-9.986
		c0.012-0.021,0.032-0.049,0.031-0.071c-0.063-1.301,0.967-1.8,1.784-2.471c1.357-1.118,2.591-2.354,3.417-3.933
		c0.192-0.37,0.502-0.517,0.842-0.668c4.423-1.971,8.853-3.942,12.932-6.577c1.689-1.093,3.535-1.94,5.156-3.085
		c1.208-0.852,1.936-0.721,3.123-0.087c8.18,4.372,16.599,4.982,25.225,1.339c0.171-0.073,0.351-0.131,0.504-0.231
		c0.4-0.254,0.63-0.148,0.949,0.219c5.183,5.897,9.33,12.438,12.344,19.694c0.436,1.046,1.041,1.296,2.167,1
		c-0.835,1.662-2.261,2.758-3.721,3.803c-1.91,1.371-4.118,2.168-6.245,3.104c-3.486,1.533-7.08,2.803-10.713,3.951
		c-4.988,1.576-10.066,2.805-15.218,3.717c-3.138,0.555-6.296,1.006-9.474,1.268c-1.838,0.152-3.686,0.268-5.526,0.385
		c-3.604,0.229-7.201,0.129-10.799,0.096c-2.738-0.029-5.475-0.305-8.206-0.561c-3.863-0.359-7.699-0.902-11.491-1.672
		c-5.431-1.1-10.896-2.141-16.027-4.338c-2.264-0.971-4.404-2.197-6.146-4.002C125.094,296.786,124.746,296.21,124.652,295.501z"/>
	<path fill="#FE7BB0" d="M108.352,250.483c-3.417,0.138-6.647-0.574-9.53-2.429c-3.791-2.439-6.425-5.835-7.168-10.324
		c-0.99-5.964,3.539-9.645,8.036-9.856c1.868-0.087,3.633,0.222,5.289,1.096c0.273,0.145,0.505,0.292,0.609-0.21
		c0.773-3.689,5.369-5.748,9.187-4.111c3.464,1.485,5.779,3.994,6.457,7.755c0.428,2.372-0.134,4.671-1.031,6.892
		c-1.478,3.656-3.635,6.842-6.347,9.702c-1.008,1.063-2.149,1.454-3.514,1.484C109.678,250.496,109.014,250.483,108.352,250.483z"/>
	<path fill="#FECD00" d="M47.68,228.549c-0.543-0.203-1.081-0.416-1.627-0.605c-3.262-1.133-4.58-4.044-3.263-7.224
		c0.241-0.583,0.504-1.16,0.757-1.741c0.959-1.585,0.994-3.366,1.092-5.135c0.033-0.581,0.048-1.166,0.137-1.738
		c0.512-3.334,2.98-5.171,6.334-4.635c2.16,0.345,4.209,0.208,6.313-0.512c4.303-1.47,8.11,1.276,8.178,5.839
		c0.023,1.494,0.523,2.657,1.535,3.683c0.955,0.97,1.785,2.017,2.036,3.422c0.424,2.373-0.167,4.417-2.159,5.823
		c-2.284,1.615-4.308,3.488-6.278,5.458c-2.929,2.925-6.353,2.846-9.306-0.073c-0.282-0.279-0.555-0.569-0.846-0.838
		C49.74,229.488,48.802,228.862,47.68,228.549z"/>
	<path fill="#FECD00" d="M264.758,251.596c-0.084,1.065,0.294,1.977,0.958,2.78c0.42,0.512,0.885,0.985,1.314,1.488
		c2.168,2.534,1.881,6.333-0.779,8.315c-2.26,1.684-4.373,3.494-6.334,5.521c-1.713,1.772-3.834,2.627-6.35,1.918
		c-1.153-0.324-2.113-1.017-2.896-1.888c-1.449-1.614-3.24-2.597-5.298-3.181c-2.094-0.594-3.392-1.996-3.899-4.094
		c-0.338-1.398,0.167-2.682,0.788-3.889c0.987-1.92,1.548-3.924,1.518-6.094c-0.01-0.632,0.067-1.268,0.146-1.897
		c0.354-2.837,2.291-4.569,5.144-4.607c0.743-0.01,1.479,0.04,2.215,0.164c1.655,0.282,3.26,0.104,4.832-0.509
		c1.195-0.465,2.437-0.725,3.73-0.464C262.815,245.752,264.805,248.364,264.758,251.596z"/>
	<path fill="#FECD00" d="M280.46,192.256c0.361,0.039,1.057,0.058,1.727,0.195c1.65,0.338,3.207,0.011,4.742-0.557
		c1.342-0.496,2.697-0.725,4.117-0.329c2.515,0.702,4.407,3.092,4.382,5.876c-0.014,1.682,0.606,2.958,1.75,4.088
		c1.97,1.951,2.493,4.233,1.49,6.834c-0.364,0.942-1.005,1.689-1.835,2.243c-2.305,1.54-4.297,3.426-6.229,5.401
		c-2.775,2.839-6.118,2.952-8.987,0.2c-1.707-1.641-3.597-2.775-5.849-3.495c-3.082-0.981-4.366-3.931-3.192-6.934
		c0.174-0.443,0.355-0.886,0.578-1.306c0.932-1.772,1.354-3.654,1.326-5.656c-0.011-0.736,0.069-1.483,0.188-2.213
		C275.123,193.831,277.17,192.215,280.46,192.256z"/>
	<path fill="#FE7BB0" d="M241.533,223.272c-0.053-2.069,0.503-4.011,1.899-5.667c2.545-3.01,7.438-3.25,9.429,0.359
		c0.194,0.356,0.401,0.35,0.768,0.282c1.551-0.289,3.053-0.155,4.393,0.775c1.536,1.065,2.163,2.624,2.287,4.414
		c0.183,2.657-1.043,4.613-3.246,5.928c-2.735,1.633-5.69,2.666-8.932,2.664c-0.663,0-1.336-0.066-1.842-0.576
		c-0.279-0.28-0.44-0.083-0.667,0.076c-0.813,0.573-1.802,0.362-2.186-0.554C242.414,228.533,241.471,226.061,241.533,223.272z"/>
	<path fill="#FECD00" d="M101.956,83.534c0.507-0.145,1.017-0.277,1.52-0.435c3.081-0.966,5.95,0.756,6.543,3.933
		c0.06,0.312,0.107,0.626,0.16,0.938c0.407,0.671,0.327,1.443,0.449,2.173c0.493,0.788,1.193,1.397,1.785,2.099
		c0.502,0.211,0.639,0.688,0.785,1.133c0.733,2.252,0.007,4.531-1.956,5.863c-1.808,1.227-3.389,2.694-4.886,4.262
		c-0.963,1.008-2.116,1.684-3.488,1.896c-0.761,0.118-1.574,0.209-2.23-0.399c-0.917-0.373-1.672-0.982-2.399-1.632
		c-0.269-0.062-0.476-0.224-0.672-0.4c-1.003-0.896-2.171-1.479-3.45-1.864c-0.429-0.128-0.868-0.249-1.104-0.691
		c-1.001-0.433-1.564-1.285-2.094-2.174c-0.501-1.259-0.418-2.528,0.218-3.676c1.135-2.054,1.438-4.255,1.546-6.548
		c0.146-3.11,2.193-4.748,5.291-4.415C99.298,83.739,100.638,84.113,101.956,83.534z"/>
	<path fill="#FECD00" d="M88.628,261.79c0.116,0.011,0.382,0.022,0.642,0.068c1.329,0.239,2.607,0.121,3.898-0.33
		c2.877-1,5.407,0.736,5.515,3.798c0.035,1.032,0.355,1.838,1.07,2.542c0.924,0.913,1.475,1.98,1.373,3.332
		c-0.092,1.217-0.612,2.182-1.615,2.864c-1.452,0.988-2.729,2.161-3.938,3.435c-1.908,2.013-4.336,2.029-6.275,0.047
		c-0.996-1.017-2.154-1.688-3.502-2.076c-0.787-0.227-1.438-0.639-1.93-1.31c-0.689-0.946-0.994-2.015-0.476-3.063
		c0.986-1.989,1.329-4.076,1.507-6.259C85.059,262.867,86.497,261.767,88.628,261.79z"/>
	<path fill="#FDF7F0" d="M244.575,163.652c0.066,2.688-0.428,5.316-0.866,7.946c-0.478,2.864-1.074,5.708-1.422,8.596
		c-0.177,1.46,0.305,2.044,1.805,2.078c0.345,0.334,0.216,0.741,0.15,1.123c-0.367,2.196-0.177,4.329,0.756,6.364
		c0.621,1.356,1.486,2.526,2.947,3.064c2.202,0.811,4.733-0.172,5.954-2.254c0.652-1.116,1.034-2.321,1.149-3.602
		c0.288-3.176-0.044-6.235-1.767-9.023c-0.281-0.455-0.619-0.857-1.017-1.211c-1.167-1.039-2.525-1.194-3.879-0.401
		c-0.776,0.455-1.506,0.978-2.065,1.709c-0.197,0.256-0.369,0.606-0.795,0.559c0.188-2.112,0.692-4.171,1.029-6.259
		c0.126-0.783,0.268-1.563,0.401-2.346c0.03-0.172-0.014-0.461,0.229-0.435c0.867,0.092,1.414-0.537,2.072-0.883
		c6.304-3.322,12.045-0.26,14.367,5.439c2.412,5.924,1.588,11.677-1.801,16.985c-4.062,6.36-10.024,9.846-17.455,10.896
		c-0.865,0.123-1.732,0.201-2.688,0.134c0.621-1.637,1.237-3.23,1.661-4.891c0.29-1.129,0.516-2.269,0.702-3.417
		c0.143-0.888-0.293-1.605-1.1-1.872c-0.919-0.304-1.582,0.053-1.744,1.02c-0.514,3.07-1.392,6.025-2.728,8.839
		c-2.754,5.804-6.807,10.58-11.771,14.587c-8.617,6.958-18.417,11.435-29.233,13.723c-0.979,0.208-2.086,0.698-2.933,0.428
		c-0.814-0.261-1.111-1.516-1.686-2.302c-2.004-2.748-4.133-5.379-6.877-7.44c-1.687-1.268-3.512-2.251-5.614-2.65
		c-1.847-0.349-3.576-0.079-5.199,0.873c-0.229,0.133-0.408,0.397-0.769,0.161c-3.076-2.037-6.188-1.517-9.272-0.039
		c-3.146,1.506-5.644,3.805-7.783,6.521c-1.114,1.417-2.132,2.901-3.031,4.461c-0.213,0.369-0.428,0.529-0.875,0.448
		c-10.834-1.944-21.171-5.289-30.696-10.903c-6.647-3.918-12.302-8.893-16.319-15.569c-2.706-4.495-4.419-9.352-5.274-14.518
		c-0.182-1.094-0.597-1.505-1.421-1.419c-0.945,0.1-1.593,0.827-1.474,1.816c0.273,2.263,0.816,4.472,1.541,6.633
		c0.427,1.274,0.908,2.53,1.396,3.878c-1.695-0.016-3.324-0.245-4.927-0.651c-8.999-2.285-15.2-9.36-16.316-18.578
		c-0.422-3.479-0.226-6.876,1.347-10.078c1.912-3.899,5.198-5.931,9.352-6.737c1.541-0.299,3.099-0.389,4.664-0.361
		c0.332,0.006,0.538,0.044,0.572,0.453c0.325,3.854,0.824,7.684,1.428,11.502c0.017,0.103,0.008,0.211,0.011,0.317
		c0.086,0.15,0.116,0.33,0,0.442c-0.147,0.143-0.288-0.009-0.404-0.108c-0.159-0.141-0.271-0.323-0.396-0.495
		c-1.637-2.274-3.852-2.718-6.233-1.248c-2.459,1.516-3.42,3.616-2.951,6.466c0.41,2.5,1.334,4.781,2.911,6.783
		c0.741,0.94,1.663,1.643,2.81,1.986c2.019,0.603,4.119-0.454,4.926-2.439c0.771-1.896,0.768-3.872,0.566-5.863
		c-0.039-0.395-0.163-0.782-0.156-1.179c0.005-0.315,0.018-0.679,0.521-0.538c1.371,0.018,1.969-0.607,1.747-1.965
		c-0.667-4.064-1.269-8.137-1.678-12.236c-0.05-0.499-0.071-1-0.106-1.501c-0.175-0.497,0.076-0.686,0.529-0.727
		c0.315-0.029,0.635-0.025,0.952-0.018c4.959,0.116,9.75-0.847,14.445-2.33c6.791-2.144,13.287-5.003,19.59-8.299
		c7.443-3.894,14.429-8.49,20.823-13.95c4.706-4.018,9.049-8.389,12.778-13.337c1.713-2.272,2.896-4.869,4.342-7.305
		c1.207-2.031,2.439-4.039,4.341-5.526c2.159-1.689,4.46-1.927,6.909-0.687c1.759,0.89,3.176,2.192,4.43,3.687
		c1.796,2.139,3.194,4.551,4.688,6.896c1.829,2.871,4.028,5.448,6.294,7.976c2.105,2.35,4.352,4.562,6.69,6.673
		c5.624,5.072,11.136,10.288,17.502,14.456c2.772,1.816,5.692,3.386,8.62,4.935c3.958,2.093,7.934,4.152,11.944,6.14
		C244.058,163.207,244.358,163.372,244.575,163.652z"/>
	<path fill="#F2A8C1" d="M100.637,104.997c2.062,0.566,3.857,0.014,5.315-1.459c1.7-1.719,3.479-3.314,5.439-4.737
		c2.053-1.49,2.371-3.987,1.021-6.559c8.644-7.551,18.378-13.192,29.339-16.646c5.873-1.85,11.895-2.996,18.027-3.572
		c4.273-0.401,8.559-0.657,12.85-0.583c15.014,0.253,29.465,3.13,43.184,9.354c7.056,3.201,13.595,7.229,19.472,12.298
		c8.899,7.679,15.137,17.189,19.291,28.123c2.69,7.087,4.326,14.419,5.146,21.952c0.767,7.032,0.726,14.057,0.058,21.201
		c-0.337-1.969-0.611-3.837-0.979-5.688c-1.718-8.653-5.522-16.338-10.803-23.354c-8.191-10.888-18.505-19.216-30.577-25.424
		c-8.382-4.312-17.217-7.321-26.478-9.067c-5.237-0.987-10.519-1.528-15.853-1.631c-11.822-0.227-23.229,1.748-34.195,6.208
		c-9.44,3.841-17.688,9.479-25.05,16.49c-9.096,8.664-16.44,18.646-22.521,29.598c-1.851,3.333-3.576,6.727-5.16,10.193
		c-0.054,0.116-0.116,0.229-0.233,0.455c-0.415-0.88-0.478-1.741-0.621-2.568c-2.538-14.615-0.501-28.605,5.778-42.008
		C95.173,113.12,97.752,108.967,100.637,104.997z"/>
	<path fill="#B47B48" d="M95.594,160.873c-0.123,0.307-0.364,0.219-0.559,0.224c-0.924,0.024-1.852-0.072-2.771,0.14
		c-0.426,0.098-0.598-0.043-0.358-0.505c1.246-2.396,2.477-4.799,3.713-7.201c0.274-0.534,0.698-0.909,1.201-1.231
		c9.155-5.88,18.051-12.134,26.711-18.721c5.411-4.115,10.707-8.375,15.906-12.756c4.676-3.938,9.239-8.001,13.777-12.093
		c1.337-1.205,2.616-2.473,3.919-3.715c0.189-0.18,0.481-0.362,0.431-0.635c-0.16-0.842,0.426-0.882,0.973-0.969
		c2.764-0.446,5.531-0.843,8.33-1.007c2.164-0.126,4.325-0.288,6.494-0.286c0.254,0,0.521-0.072,0.774,0.072
		c0.007,0.396-0.314,0.605-0.499,0.876c-4.089,5.995-8.489,11.746-13.279,17.203c-4.937,5.624-10.31,10.785-16.053,15.579
		c-5.865,4.897-12.031,9.354-18.718,13.069c-6.699,3.724-13.738,6.577-21.301,7.998c-2.912,0.545-5.861,0.834-8.83,0.834
		c-0.638,0-1.131,0.189-1.424,0.798c-0.295,0.614-0.193,1.18,0.162,1.723C94.521,160.767,95.122,160.682,95.594,160.873z"/>
	<path fill="#FADBBC" d="M244.575,163.652c-2.34-0.994-4.572-2.211-6.837-3.358c-2.433-1.229-4.828-2.527-7.236-3.802
		c-4.818-2.55-9.445-5.389-13.666-8.87c-2.893-2.387-5.697-4.871-8.488-7.376c-2.539-2.279-5.071-4.564-7.45-7.011
		c-3.898-4.007-7.392-8.327-10.267-13.147c-1.641-2.75-3.539-5.323-6.313-7.111c-3.237-2.087-6.36-1.375-8.868,1.489
		c-2.103,2.399-3.498,5.217-5.033,7.955c-1.313,2.34-2.846,4.511-4.615,6.517c-1.469,1.665-2.922,3.346-4.479,4.925
		c-1.559,1.581-3.193,3.09-4.868,4.546c-2.589,2.251-5.28,4.378-8.073,6.377c-3.1,2.217-6.309,4.254-9.604,6.163
		c-3.576,2.071-7.25,3.946-11.012,5.649c-5.979,2.707-12.063,5.147-18.51,6.515c-3.129,0.664-6.31,0.984-9.521,0.857
		c-0.382-0.015-0.838-0.114-0.867,0.502c-0.257-1.242-0.126-2.529-0.457-3.812c2.324-0.229,4.629-0.494,6.911-0.937
		c5.933-1.149,11.573-3.152,16.986-5.799c10.28-5.024,19.427-11.709,27.949-19.279c10.482-9.31,19.265-20.079,27.058-31.687
		c0.377-0.561,0.756-0.743,1.416-0.688c3.166,0.257,6.323,0.569,9.459,1.088c0.366,0.06,0.563,0.216,0.703,0.532
		c3.3,7.4,7.731,14.085,12.893,20.305c4.78,5.761,10.096,10.995,15.695,15.951c7.855,6.955,16.196,13.309,24.508,19.702
		c0.523,0.404,1.005,0.89,1.581,1.196C244.695,161.645,244.799,162.568,244.575,163.652z"/>
	<path fill="#FDF7F0" d="M130.856,247.157c1.656-3.051,3.88-5.671,6.242-8.181c0.473-0.5,0.982-0.962,1.537-1.502
		c0.541,1.066,1.078,2.14,1.632,3.206c0.196,0.38-0.095,0.373-0.31,0.45c-0.494,0.171-0.922,0.445-1.105,0.952
		c-0.205,0.56-0.134,1.105,0.302,1.547c0.418,0.425,0.912,0.609,1.514,0.413c3.281-1.077,6.682-1.588,10.08-2.102
		c0.025-0.004,0.053-0.009,0.078-0.011c2.309-0.281,2.218-0.304,2.797-2.574c1.781-6.976,5.579-12.625,11.449-16.814
		c1.611-1.15,3.438-1.876,5.501-1.646c0.286,0.032,0.564,0.125,0.847,0.19c0.166,0.081,0.227,0.214,0.189,0.39
		c-0.625,2.978-0.355,6.011-0.572,9.014c-0.197,2.719-0.344,5.44-0.582,8.156c-0.176,2.003-0.272,4.017-0.584,6.006
		c-0.698,4.428-2.664,8.261-5.658,11.541c-3.088,3.383-6.571,6.303-10.596,8.547c-2.959,1.65-6.082,2.834-9.474,2.977
		c-4.739,0.199-8.996-1.66-11.582-6.258c-2.166-3.85-2.536-7.93-1.362-12.143C131.435,248.458,131.122,247.848,130.856,247.157z"/>
	<path fill="#FDF7F0" d="M177.581,221.17c1.222-0.425,2.396-0.175,3.533,0.295c2.554,1.058,4.551,2.876,6.391,4.866
		c2.863,3.097,5.168,6.558,6.547,10.577c0.692,2.021,0.976,4.114,0.896,6.25c-0.029,0.729,0.146,1.317,0.889,1.592
		c0.703,0.259,1.477,0.025,1.908-0.699c0.309-0.518,0.537-0.137,0.755-0.021c2.423,1.295,4.837,2.607,7.253,3.913
		c0.209,0.113,0.414,0.236,0.635,0.323c0.758,0.3,1.562,0.02,1.916-0.651c0.377-0.714,0.154-1.575-0.582-1.996
		c-1.123-0.642-2.271-1.241-3.418-1.844c-0.358-0.188-0.477-0.301-0.097-0.65c3.007-2.762,6.21-5.275,9.585-7.571
		c0.288-0.195,0.506-0.29,0.819,0c3.821,3.537,6.844,7.567,7.938,12.791c0.526,2.521,0.565,5.041-0.099,7.548
		c-1.228,3.561-3.627,5.884-7.248,6.974c-3.757,1.129-7.579,1.947-11.504,1.687c-8.366-0.554-15.087-4.128-19.714-11.265
		c-2.5-3.856-3.971-8.124-4.855-12.611c-0.86-4.354-1.145-8.758-1.346-13.184c-0.09-1.979,0.109-3.977-0.285-5.941
		C177.468,221.417,177.52,221.29,177.581,221.17z"/>
	<path fill="#FEFEFE" d="M136.295,74.293c-3.53,1.464-7.024,3.003-10.368,4.867c-2.284,1.272-4.518,2.625-6.688,4.083
		c-0.238,0.16-0.494,0.296-0.742,0.443c-0.693,0.168-1.096-0.294-1.478-0.729c-0.848-0.965-1.378-2.135-1.989-3.245
		c-2.49-4.517-4.5-9.233-5.857-14.221c-0.686-2.521-1.131-5.091-1.104-7.684c0.029-2.811,0.369-5.604,2.023-8.053
		c1.582-2.342,3.684-3.993,6.319-4.979c1.372-0.513,2.783-0.879,4.249-0.946c2.296-0.106,4.329,0.619,6.104,2.064
		c2.22,1.806,3.604,4.205,4.752,6.763c1.374,3.063,2.185,6.299,2.975,9.546c0.87,3.586,1.279,7.25,1.941,10.87
		C136.51,73.491,136.591,73.915,136.295,74.293z"/>
	<path fill="#B47B48" d="M192.384,104.196c4.973,1.021,9.661,2.462,14.27,4.181c0.742,0.276,0.987,1.071,1.445,1.621
		c2.355,2.82,4.758,5.6,7.154,8.383c3.973,4.612,8.117,9.069,12.289,13.5c4.177,4.436,8.47,8.759,12.849,12.996
		c4.659,4.509,9.383,8.95,14.279,13.203c0.06,0.052,0.114,0.148,0.179,0.153c1.168,0.108,1.121,1.068,1.256,1.85
		c0.222,1.274,0.37,2.56,0.554,3.84c0.067,0.477-0.052,0.623-0.596,0.56c-0.962-0.11-1.936-0.308-2.917-0.073
		c-0.274,0.066-0.538,0.02-0.803-0.202c-2.671-2.249-5.479-4.322-8.246-6.449c-6.269-4.819-12.574-9.591-18.663-14.639
		c-3.646-3.023-7.189-6.16-10.63-9.424c-6.527-6.2-12.447-12.906-17.393-20.447c-1.786-2.726-3.39-5.559-4.799-8.499
		C192.544,104.61,192.493,104.464,192.384,104.196z"/>
	<path fill="#F2A8C1" d="M136.295,74.293c-0.136-1.846-0.578-3.646-0.831-5.476c-0.636-4.585-1.684-9.077-3.167-13.46
		c-1.017-3.003-2.341-5.867-4.536-8.206c-2.057-2.188-4.556-3.348-7.664-2.99c-1.705,0.196-3.305,0.667-4.84,1.395
		c-2.854,1.353-4.828,3.549-6.033,6.443c-0.533,1.281-0.68,2.656-0.792,4.024c-0.406,4.964,0.86,9.637,2.537,14.232
		c1.475,4.04,3.378,7.873,5.554,11.578c0.479,0.815,1.025,1.546,1.976,1.852c-2.236,1.688-4.476,3.376-6.711,5.065
		c-0.516-0.206-0.815-0.57-0.84-1.138c0.546-0.741,0.397-1.462,0.015-2.231c-2.513-5.043-4.976-10.107-6.728-15.481
		c-1.633-5.001-2.578-10.1-2.157-15.384c0.475-5.95,2.438-11.257,6.896-15.42c6.724-6.279,15.597-6.357,22.506-0.201
		c4.605,4.104,7.146,9.364,8.437,15.309c0.521,2.402,0.341,4.849,0.482,7.275c0.2,3.437,0.305,6.878,0.366,10.321
		c0.015,0.702-0.106,1.074-0.873,1.273C138.669,73.391,137.492,73.877,136.295,74.293z"/>
	<path fill="#FEFEFE" d="M167.772,68.509c-5.883,0.164-11.727,0.743-17.518,1.809c-0.443-0.054-0.486-0.445-0.597-0.752
		c-0.357-1-0.605-2.03-0.776-3.079c-0.809-4.944-1.515-9.904-1.426-14.93c0.049-2.813,0.351-5.597,1.311-8.282
		c1.381-3.867,5.054-6.689,9.156-6.976c3.018-0.21,5.815,0.378,8.438,1.966c3.063,1.855,4.659,4.613,5.303,8.022
		c0.629,3.33,0.555,6.686,0.396,10.056c-0.172,3.637-0.807,7.208-1.338,10.796c-0.065,0.443-0.091,0.903-0.41,1.266l0.003-0.002
		C169.473,68.567,168.617,68.372,167.772,68.509z"/>
	<path fill="#B47B48" d="M243.94,55.338c0.372,1.163,0.491,2.375,0.601,3.574c0.294,3.253,0.098,6.483-0.613,9.682
		c-0.996,4.492-2.9,8.551-5.794,12.128c-0.229,0.285-0.138,0.969-0.691,0.834c-0.339-0.082-0.597-0.497-0.89-0.763
		c-4.669-4.208-9.668-7.964-15.084-11.165c-3.586-2.118-7.312-3.945-11.166-5.517c-0.168-0.068-0.325-0.159-0.504-0.248
		c0.438-0.813,1.127-1.372,1.712-2.009c3.523-3.841,7.268-7.419,12.026-9.733c3.188-1.55,6.539-2.549,10.063-2.962
		c-0.076,0.229,0.103,0.213,0.238,0.272c3.17,1.363,6.213,2.962,9.025,4.978C243.249,54.687,243.626,54.975,243.94,55.338z"/>
	<path fill="#F2A8C1" d="M170.311,68.403c0.23-1.646,0.488-3.288,0.688-4.938c0.272-2.275,0.694-4.526,0.781-6.833
		c0.078-2.039,0.185-4.078,0.084-6.11c-0.142-2.905-0.397-5.821-1.989-8.386c-1.917-3.089-4.776-4.771-8.3-5.402
		c-1.677-0.301-3.36-0.357-5.025,0.053c-4.688,1.154-7.25,4.285-8.19,8.893c-0.804,3.925-0.747,7.87-0.366,11.839
		c0.313,3.284,0.726,6.55,1.313,9.794c0.188,1.032,0.47,2.055,0.949,3.005c-1.979,0.457-3.979,0.836-5.936,1.402
		c-0.679,0.196-0.444-0.33-0.438-0.598c0.083-2.753,0.105-5.506,0.007-8.259c-0.062-1.746-0.182-3.493-0.469-5.216
		c-0.463-2.77-0.293-5.544-0.142-8.316c0.23-4.235,0.96-8.371,3.046-12.132c2.494-4.496,6.141-7.633,11.252-8.696
		c6.054-1.258,11.122,0.766,15.278,5.163c3.615,3.821,5.29,8.531,5.874,13.68c0.804,7.071-0.484,13.907-2.336,20.679
		c-0.076,0.286-0.104,0.553-0.527,0.537C174.014,68.494,172.163,68.453,170.311,68.403z"/>
	<path fill="#B47B48" d="M155.007,104.198c-14.152,13.381-29.061,25.586-44.857,36.701c-3.823,2.689-7.688,5.32-11.721,7.772
		c0.631-1.021,1.248-2.051,1.898-3.062c3.41-5.304,7.17-10.34,11.354-15.065c6.078-6.864,12.88-12.856,20.791-17.532
		c6.906-4.082,14.279-7.011,22.101-8.811C154.673,104.178,154.781,104.198,155.007,104.198z"/>
	<path fill="#FADBBC" d="M130.856,247.157c0.932,0.565,0.813,1.316,0.574,2.25c-1.395,5.492-0.496,10.512,3.484,14.706
		c1.914,2.018,4.396,2.995,7.203,3.252c4.19,0.384,7.894-0.972,11.465-2.929c3.963-2.171,7.355-5.064,10.385-8.369
		c3.086-3.367,5.105-7.303,5.694-11.886c0.316-2.482,0.478-4.979,0.657-7.477c0.198-2.736,0.332-5.475,0.504-8.212
		c0.124-2.003,0.008-4.012,0.235-6.014c0.058-0.505,0.478-0.877,0.359-1.397c0.818,0.095,1.086,0.528,1.129,1.37
		c0.34,6.802,0.398,13.607,0.365,20.416c-0.01,2.013-0.072,4.025-0.074,6.037c0,0.501-0.325,0.824-0.502,1.222
		c-2.265,5.112-5.1,9.871-8.873,14.025c-3.959,4.36-8.582,7.712-14.393,9.14c-4.904,1.204-9.724,1.092-14.278-1.36
		c-3.994-2.15-6.194-5.615-6.917-10.01C127.008,256.645,128.126,251.728,130.856,247.157z"/>
	<path fill="#B47C48" d="M256.184,116.859c-2.034-4.339-4.231-8.53-6.909-12.453c-4.242-6.209-9.287-11.659-15.292-16.211
		c-7.94-6.021-16.696-10.485-26.092-13.74c-4.477-1.55-9.032-2.798-13.684-3.702c-0.5-0.097-0.709-0.216-0.477-0.813
		c0.836-2.145,1.616-4.311,2.379-6.481c0.17-0.483,0.391-0.589,0.865-0.473c5.374,1.337,10.609,3.077,15.649,5.395
		c5.479,2.52,10.666,5.527,15.453,9.2c5.204,3.994,9.928,8.498,14.249,13.431c4.277,4.884,7.954,10.166,10.691,16.073
		c1.387,2.987,2.398,6.099,3.121,9.308C256.175,116.544,256.17,116.703,256.184,116.859z"/>
	<path fill="#FADBBC" d="M177.581,221.17c0.34,0.684,0.367,1.413,0.357,2.161c-0.031,2.935,0.122,5.868,0.331,8.79
		c0.394,5.463,1.208,10.858,3.306,15.97c1.553,3.786,3.668,7.22,6.738,9.974c3.681,3.301,7.994,5.254,12.897,5.956
		c1.629,0.233,3.26,0.404,4.893,0.282c3.564-0.267,7.069-0.877,10.414-2.191c2.582-1.013,4.198-3.032,5.457-5.398
		c0.148-0.279,0.313-0.548,0.472-0.822c-0.602,2.957-1.983,5.516-4.052,7.684c-4.959,5.2-11.179,7.102-18.172,6.522
		c-9.014-0.747-16.021-5.163-21.369-12.328c-1.482-1.988-2.448-4.25-3.039-6.668c-0.174-0.71-0.317-1.341-0.12-2.138
		c0.27-1.08,0.157-2.26,0.165-3.397c0.039-5.349,0.084-10.699-0.071-16.048c-0.06-2.01-0.119-4.021-0.261-6.026
		c-0.059-0.805,0.144-1.343,0.858-1.723C176.783,221.564,177.128,221.263,177.581,221.17z"/>
	<path fill="#A06E3F" d="M211.018,110.137c4.141,1.875,8.002,3.844,11.692,6.135c6.325,3.929,12.057,8.597,17.176,14.003
		c4.217,4.455,7.903,9.305,10.813,14.73c1.807,3.366,3.246,6.872,4.356,10.572C250.071,152.729,214.427,115.985,211.018,110.137z"/>
	<path fill="#A06E3F" d="M249.652,91.753c-0.427,0.354-0.857,0.699-1.273,1.063c-0.266,0.232-0.451,0.271-0.712-0.047
		c-1.41-1.712-2.794-3.451-4.284-5.091c-1.491-1.643-2.98-3.292-4.672-4.842c0.975-0.438,1.401-1.318,1.938-2.067
		c3.067-4.291,4.954-9.058,5.69-14.29c0.435-3.084,0.408-6.156-0.008-9.233c0.111-0.018,0.21,0.016,0.286,0.097
		c2.917,3.123,5.438,6.5,6.896,10.577c1.775,4.954,1.673,9.927,0.207,14.919c-0.805,2.734-1.954,5.319-3.379,7.787
		C250.121,91.01,249.77,91.311,249.652,91.753z"/>
	<path fill="#F6DB68" d="M129.378,280.255c-0.445-2.479,0.118-4.703,1.639-6.708c0.264-0.348,0.422-0.241,0.683-0.055
		c3.649,2.62,7.787,3.555,12.204,3.473c1.001-0.019,2.001-0.15,2.998-0.26c0.369-0.04,0.656,0.028,0.935,0.287
		c2.301,2.141,4.61,4.273,6.918,6.408c0.268,0.517,0.061,0.987-0.172,1.437c-0.735,1.416-1.857,2.473-3.303,3.093
		c-5.396,2.312-10.703,2.101-15.773-0.899c-2.084-1.234-3.598-3.12-4.684-5.293C130.485,281.059,130.087,280.528,129.378,280.255z"
		/>
	<path fill="#B47C48" d="M229.321,47.886c-2.6,0.716-5.134,1.602-7.522,2.869c-3.393,1.801-6.325,4.204-9.045,6.89
		c-1.617,1.599-3.135,3.291-4.652,4.983c-0.2,0.225-0.369,0.498-0.785,0.343c-3.268-1.216-6.618-2.152-9.996-2.996
		c0.338-1.004,1.087-1.746,1.707-2.552c3.067-3.985,6.773-7.215,11.434-9.224c2.394-1.032,4.899-1.643,7.514-1.88
		c3.624-0.329,7.116,0.297,10.591,1.184C228.84,47.573,229.143,47.609,229.321,47.886z"/>
	<path fill="#FADBBC" d="M245.524,178.599c0.699-0.861,1.419-1.688,2.375-2.294c2.255-1.427,4.099-0.747,5.355,1.142
		c2.318,3.479,2.665,7.365,1.688,11.337c-0.528,2.146-1.816,3.796-4.122,4.41c-2.738,0.729-4.859-0.723-6.037-3.249
		c-1.021-2.194-1.226-4.508-0.731-6.882c0.052-0.255,0.028-0.526,0.04-0.791c0.754-0.334,1.068-0.926,1.137-1.736
		C245.283,179.888,245.301,179.224,245.524,178.599z"/>
	<path fill="#FADBBC" d="M98.904,180.174c-0.513,0.161-0.291,0.519-0.238,0.845c0.356,2.215,0.406,4.409-0.357,6.568
		c-0.682,1.926-2.127,2.968-4.026,3.052c-1.646,0.072-3.021-0.771-4.044-2.029c-2.008-2.467-3.155-5.298-3.268-8.497
		c-0.098-2.852,1.704-4.715,3.95-5.786c2.477-1.181,4.758-0.055,5.932,1.916c0.092,0.151,0.143,0.418,0.422,0.348
		c0.029-0.007,0.026-0.146,0.039-0.225c0.141,0.742,0.333,1.478,0.404,2.225C97.794,179.393,98.183,179.888,98.904,180.174z"/>
	<path fill="#E19F69" d="M229.321,47.886c-1.692-0.26-3.323-0.81-5.028-1.046c-2.49-0.344-4.957-0.478-7.473-0.128
		c-4.888,0.679-9.108,2.71-12.853,5.871c-2.359,1.994-4.321,4.332-6.105,6.831c-0.155,0.218-0.295,0.439-0.543,0.561
		c-0.467-0.1-0.926-0.244-1.396-0.288c-0.745-0.07-0.707-0.374-0.416-0.93c2.759-5.266,6.893-9.126,12.126-11.849
		c5.914-3.076,12.209-3.779,18.742-2.906c3.19,0.427,6.254,1.313,9.213,2.571c0.165,0.07,0.362,0.095,0.494,0.384
		C233.774,47.054,231.537,47.407,229.321,47.886z"/>
	<path fill="#FED110" d="M129.378,280.255c0.731-0.166,1.13,0.207,1.423,0.828c2.199,4.659,5.88,7.27,10.979,7.899
		c3.396,0.418,6.72,0.211,9.782-1.48c1.618-0.893,2.897-2.137,3.188-4.101c0.807,0.723,1.602,1.462,2.425,2.167
		c0.325,0.276,0.356,0.489,0.12,0.854c-2.838,4.354-6.789,6.842-12.025,7.051c-5.486,0.221-9.581-2.344-12.731-6.646
		c-1.269-1.731-2.484-3.501-2.999-5.636C129.468,280.881,129.43,280.566,129.378,280.255z"/>
	<path fill="#FEFEFE" d="M181.433,265.109c0.557,0.436,1.11,0.872,1.69,1.328c-1.279,1.187-2.616,2.182-4.003,3.107
		c-0.147,0.099-0.334,0.169-0.509,0.191c-4.156,0.507-8.293,0.428-12.39-0.494c-0.726-0.165-1.397-0.479-2.025-0.884
		c-0.272-0.177-0.291-0.315-0.046-0.539c1.08-0.98,2.005-2.106,2.981-3.181c0.318-0.058,0.457,0.212,0.654,0.367
		c1.649,1.304,3.83,0.523,4.276-1.534c0.083-0.38,0.041-0.796,0.331-1.116c0.122-0.136,0.28-0.235,0.391-0.385
		c0.201-0.277,0.252-0.578,0.078-0.882c-0.185-0.322-0.488-0.359-0.82-0.298c-0.231,0.041-0.443,0.165-0.687,0.162
		c-0.387-0.139-0.91-0.033-1.059-0.596c0.385-1.06,1.061-1.593,2.263-1.484c0.834,0.077,1.689-0.021,2.529-0.101
		c0.608-0.059,0.998,0.14,1.276,0.681c0.177,0.344,0.438,0.642,0.718,1.037c-0.657-0.038-1.232-0.036-1.39,0.676
		c-0.13,0.588,0.05,1.043,0.641,1.283c0.229,0.215,0.148,0.486,0.131,0.745c-0.068,0.982,0.148,1.865,1.043,2.404
		c0.932,0.562,1.91,0.505,2.879,0.051C180.743,265.478,181.01,265.143,181.433,265.109z"/>
	<path fill="#E19F69" d="M249.652,91.753c-0.296-0.401,0.104-0.639,0.254-0.893c2.006-3.4,3.489-6.998,4.237-10.889
		c1.157-6.029-0.016-11.598-3.227-16.79c-1.146-1.856-2.543-3.507-4.029-5.088c-0.244-0.259-0.382-0.561-0.557-0.85
		c-0.195-1.541-0.578-3.043-1.027-4.774c1.306,1.071,2.367,2.049,3.355,3.109c3.408,3.658,6.086,7.777,7.26,12.671
		c1.829,7.613,0.781,14.756-4.051,21.126C251.213,90.241,250.49,91.055,249.652,91.753z"/>
	<path fill="#B47C48" d="M93.012,100.409c0.666,0.247,1.334,0.496,2.001,0.741c1.264,0.464,2.367,1.159,3.225,2.214
		c-1.943,2.389-3.541,5.005-5.08,7.661c-2.021,3.487-3.741,7.117-5.152,10.894c-0.09,0.236-0.205,0.461-0.387,0.869
		c-0.112-3.496,0.285-6.733,0.979-9.94c0.881-4.081,2.33-7.959,4.185-11.694C92.896,100.917,93.046,100.691,93.012,100.409z"/>
	<path fill="#B47B48" d="M191.151,70.177c-2.22-0.401-4.256-0.698-6.305-0.903c-1.47-0.148-2.941-0.271-4.412-0.431
		c-0.373-0.041-0.919,0.226-1.048-0.402c-0.104-0.501,0.44-1.483,0.86-1.611c1.795-0.544,3.588-1.095,5.391-1.608
		c2.488-0.708,4.996-1.332,7.537-1.828c0.257-0.051,0.553-0.215,0.744,0.013c0.168,0.199-0.061,0.447-0.14,0.663
		c-0.671,1.837-1.354,3.669-2.029,5.505C191.613,69.949,191.452,70.27,191.151,70.177z"/>
	<path fill="#FADBBC" d="M197.374,237.76c-0.498-1.802-1.072-3.472-1.877-5.055c-0.121-0.242-0.19-0.418,0.172-0.527
		c2.369-0.718,4.607-1.864,7.089-2.211c1.306-0.183,2.622-0.293,3.931-0.458c0.404-0.05,0.47,0.219,0.605,0.479
		c0.186,0.354-0.108,0.408-0.294,0.515C203.51,232.488,200.35,234.908,197.374,237.76z"/>
	<path fill="#F6DB68" d="M155.844,280.242c-0.826-0.74-1.644-1.488-2.48-2.215c-0.302-0.261-0.265-0.433,0.022-0.679
		c1.918-1.648,4.004-3.041,6.387-3.912c1.957-0.715,3.418,0.033,3.89,1.869c-1.784,0.997-3.138,2.536-4.74,3.758
		c-0.674,0.514-1.438,0.876-2.24,1.147C156.408,280.303,156.128,280.417,155.844,280.242z"/>
	<path fill="#F2A8C1" d="M211.804,233.298c-2.839,1.961-5.489,3.979-7.991,6.185c-0.772,0.681-1.56,1.354-2.283,2.085
		c-0.379,0.383-0.686,0.402-1.094,0.116c-0.19-0.135-0.414-0.23-0.625-0.342c-1.188-0.637-1.192-0.643-0.188-1.601
		c2.908-2.77,6.121-5.119,9.611-7.109c0.726-0.415,1.272-0.492,1.87,0.113C211.29,232.929,211.513,233.071,211.804,233.298z"/>
	<path fill="#FADBBC" d="M144.822,230.527c1.021-0.777,2.113-0.629,2.854,0.4c0.332,0.466,0.591,0.76,1.285,0.708
		c0.775-0.06,1.563,0.27,2.231,0.724c0.474,0.322,0.939,0.571,1.608,0.418c-0.433,1.019-0.867,1.941-1.215,2.895
		c-0.325,0.893-0.601,1.81-0.815,2.735c-0.102,0.44-0.263,0.608-0.71,0.662c-0.46,0.057-0.657-0.113-0.837-0.504
		c-1.034-2.261-2.182-4.465-3.396-6.635C145.546,231.426,145.299,230.897,144.822,230.527z"/>
	<path fill="#E19F69" d="M243.94,55.338c-0.313,0.157-0.405-0.167-0.566-0.288c-3.124-2.316-6.55-4.092-10.132-5.652
		c0.146-0.098,0.254-0.168,0.358-0.238c1.998-0.268,4.011-0.27,6.014-0.142c1.453,0.092,2.614,0.737,3.134,2.225
		C243.214,52.586,243.704,53.926,243.94,55.338z"/>
	<path fill="#FED110" d="M155.844,280.242c1.757-0.452,3.156-1.47,4.495-2.663c0.998-0.89,1.84-2.069,3.321-2.275
		c0.486,1.35-0.081,2.547-0.673,3.667c-0.885,1.679-2.418,2.75-3.945,3.802c-0.271,0.187-0.428,0.065-0.609-0.105
		C157.572,281.86,156.707,281.051,155.844,280.242z"/>
	<path fill="#F2A8C1" d="M174.62,272.142c-2.488,1.448-5.072,2.634-7.761,3.835c-0.195-1.473-0.618-2.809-1.575-3.911
		c-0.953-1.098-2.145-1.767-3.643-1.89c0.389-0.626,0.762-0.68,1.354-0.268c1.582,1.098,3.42,1.485,5.296,1.725
		C170.388,271.901,172.493,272.056,174.62,272.142z"/>
	<path fill="#B47B48" d="M190.882,61.771c-2.027,0.537-3.835,1.004-5.635,1.498c-1.351,0.371-2.689,0.772-4.029,1.168
		c-0.922,0.272-0.918,0.28-0.751-0.622c0.164-0.881,0.349-1.759,0.479-2.646c0.064-0.437,0.235-0.576,0.678-0.539
		c2.681,0.229,5.354,0.484,8.012,0.916C189.969,61.602,190.304,61.667,190.882,61.771z"/>
	<path fill="#F2A8C1" d="M143.531,240.179c-0.168,0.045-0.266-0.184-0.374-0.4c-0.695-1.366-1.38-2.736-2.096-4.091
		c-0.166-0.316-0.134-0.51,0.132-0.737c0.541-0.466,1.067-0.949,1.577-1.448c0.283-0.278,0.433-0.185,0.588,0.114
		c0.957,1.852,1.916,3.704,2.882,5.552c0.188,0.359,0.11,0.483-0.306,0.541C145.177,239.816,144.43,239.998,143.531,240.179z"/>
	<path fill="#F2A8C1" d="M170.3,260.354c0.376,0.161,0.754,0.323,1.131,0.486c0.041,0.747,0.395,1.285,1.08,1.595
		c-0.244,0.535-0.139,1.133-0.365,1.691c-0.858,2.123-3.772,2.398-5.012,0.511C168.19,263.208,169.245,261.783,170.3,260.354z"/>
	<path fill="#F2A8C1" d="M181.433,265.109c-1.315,1.478-3.486,1.575-4.662,0.187c-0.719-0.85-0.668-1.843-0.437-2.852
		c0.822,0.08,1.212-0.354,1.313-1.254C178.856,262.655,180.147,263.881,181.433,265.109z"/>
	<path fill="#EFA6BE" d="M174.742,256.817c-0.813,0-1.533,0-2.351,0c0.42-0.811,0.812-1.565,1.267-2.448
		C174.046,255.247,174.376,255.993,174.742,256.817z"/>
	<path fill="#B47B47" d="M110.947,87.613c0.278,0.379,0.559,0.758,0.839,1.138c-0.282,0.55-0.999,0.738-1.157,1.392
		c-0.467-0.659-0.504-1.408-0.449-2.173C110.485,87.958,110.697,87.747,110.947,87.613z"/>
	<path fill="#B17946" d="M247.571,164.36c0.175,0,0.207-0.011,0.222,0.001c0.389,0.326,1.127,0.542,1.063,0.994
		c-0.045,0.32-0.803,0.541-1.299,0.842C247.296,165.523,247.7,164.964,247.571,164.36z"/>
	<path fill="#F2A8C1" d="M167.772,68.509c0.841-0.227,1.695-0.073,2.543-0.108C169.477,68.667,168.622,68.526,167.772,68.509z"/>
	<path fill="#F2A8C1" d="M108.451,247.62c-3.479-0.048-6.718-0.94-9.466-3.094c-2.693-2.108-4.389-4.845-4.388-8.408
		c0-2.35,1.873-4.688,4.167-5.171c2.93-0.614,5.298,0.366,7.151,2.645c0.392,0.482,0.63,1.089,0.936,1.641
		c0.369,0.666,0.92,0.981,1.692,0.939c1.015-0.056,1.524-0.738,1.247-1.726c-0.129-0.46-0.353-0.878-0.605-1.288
		c-0.682-1.1-0.927-2.312-0.691-3.576c0.379-2.045,2.534-2.69,4.224-2.442c3.076,0.45,5.689,3.739,5.627,6.641
		c-0.061,2.687-1.055,4.992-2.268,7.254c-1.089,2.031-2.479,3.851-4.08,5.527c-0.754,0.79-1.592,1.043-2.594,1.055
		C109.087,247.624,108.768,247.62,108.451,247.62z"/>
	<path fill="#F6DB68" d="M56.09,230.94c-0.881,0.055-1.602-0.312-2.214-0.897c-0.611-0.586-1.24-1.164-1.779-1.815
		c-1.124-1.359-2.584-1.932-4.293-2.081c-2.196-0.191-3.485-2.006-3.014-4.14c0.168-0.758,0.444-1.466,0.793-2.153
		c0.804-1.585,1.254-3.25,1.158-5.044c-0.054-0.957,0.074-1.903,0.312-2.828c0.33-1.287,1.145-1.882,2.46-1.921
		c1.097-0.034,2.162,0.144,3.227,0.349c1.701,0.328,3.294-0.141,4.896-0.603c0.965-0.278,1.924-0.568,2.952-0.543
		c1.37,0.035,2.259,0.719,2.503,2.061c0.107,0.594,0.234,1.194,0.18,1.811c-0.127,1.487,0.453,2.743,1.313,3.896
		c0.696,0.933,1.419,1.844,1.887,2.928c0.594,1.373,0.312,2.434-0.858,3.362c-0.712,0.564-1.505,0.987-2.272,1.45
		c-1.183,0.712-2.089,1.681-2.878,2.8c-0.683,0.967-1.334,1.965-2.309,2.7C57.524,230.74,56.865,230.989,56.09,230.94z"/>
	<path fill="#F6DB68" d="M262.378,251.471c-0.15,1.853,0.699,3.316,1.789,4.699c0.523,0.664,1.012,1.354,1.354,2.139
		c0.706,1.607,0.429,2.707-0.991,3.722c-0.364,0.262-0.739,0.521-1.144,0.714c-2.145,1.028-3.477,2.873-4.801,4.727
		c-0.358,0.5-0.791,0.933-1.26,1.316c-1.567,1.285-3.575,0.92-5.135-0.951c-0.492-0.593-1.038-1.126-1.565-1.685
		c-0.825-0.876-1.863-1.27-3.039-1.356c-0.91-0.067-1.778-0.263-2.514-0.843c-1.304-1.028-1.451-2.362-1.032-3.855
		c0.224-0.798,0.593-1.531,0.966-2.261c0.914-1.786,0.854-3.739,0.963-5.657c0.046-0.8,0.129-1.569,0.478-2.308
		c0.408-0.868,1.104-1.237,2.016-1.302c1.041-0.073,2.063,0.108,3.064,0.331c2.034,0.454,3.922-0.183,5.83-0.704
		c0.434-0.118,0.868-0.229,1.309-0.32c2.263-0.471,3.597,0.565,3.713,2.877C262.389,250.994,262.378,251.233,262.378,251.471z"/>
	<path fill="#F6DB68" d="M286.036,215.827c-1.523-0.02-2.517-0.962-3.417-2.03c-0.53-0.629-1.099-1.217-1.72-1.753
		c-0.828-0.71-1.855-0.873-2.883-0.979c-3.268-0.342-4.078-2.729-2.984-5.459c0.5-1.248,1.252-2.41,1.41-3.772
		c0.137-1.179,0.188-2.369,0.233-3.556c0.025-0.618,0.135-1.208,0.339-1.781c0.361-1.018,1.205-1.653,2.286-1.65
		c0.685,0.001,1.381,0.051,2.045,0.2c2.017,0.452,3.979,0.347,5.931-0.327c0.72-0.249,1.478-0.408,2.227-0.547
		c2.21-0.411,3.471,0.606,3.572,2.848c0.025,0.581,0.024,1.163,0.063,1.743c0.108,1.69,1.186,2.896,2.096,4.19
		c0.65,0.927,1.321,1.848,1.367,3.063c0.03,0.85-0.337,1.473-0.956,1.987c-0.799,0.662-1.688,1.192-2.581,1.702
		c-1.313,0.747-2.153,1.924-3.023,3.093c-0.692,0.929-1.323,1.918-2.352,2.545C287.178,215.653,286.654,215.868,286.036,215.827z"/>
	<path fill="#F2A8C1" d="M246.1,229.617c-0.955-2.218-1.766-4.399-1.67-6.764c0.092-2.213,1.269-4.085,3.361-4.542
		c1.354-0.294,2.785,0.749,2.806,2.151c0.012,0.738-0.043,1.505,0.781,1.805c0.759,0.274,1.382-0.026,1.963-0.633
		c0.743-0.777,1.727-0.747,2.65-0.327c0.831,0.377,1.255,1.066,1.311,2.006c0.147,2.519-1.142,3.328-3.097,4.247
		c-2.096,0.984-4.299,1.607-6.656,1.45C246.981,228.97,246.516,229.155,246.1,229.617z"/>
	<path fill="#F6DB68" d="M97.199,85.723c0.479,0.076,1.241,0.164,1.988,0.32c1.624,0.339,3.139-0.126,4.657-0.578
		c0.278-0.083,0.559-0.163,0.841-0.229c2.309-0.536,3.436,0.302,3.43,2.645c-0.003,1.584,0.479,2.95,1.477,4.162
		c0.386,0.47,0.742,0.961,1.023,1.506c0.879,1.702,0.594,2.695-1.068,3.709c-0.586,0.358-1.162,0.733-1.744,1.101
		c-1.295,0.819-1.99,2.165-2.91,3.315c-0.602,0.752-1.266,1.434-2.305,1.547c-0.933,0.102-1.727-0.203-2.382-0.849
		c-0.526-0.519-1.032-1.063-1.52-1.62c-0.896-1.027-2.075-1.369-3.373-1.52c-2.032-0.235-3.081-1.868-2.476-3.826
		c0.194-0.629,0.425-1.259,0.733-1.838c0.697-1.308,0.789-2.725,0.853-4.152c0.027-0.607,0.021-1.208,0.155-1.811
		C94.87,86.308,95.581,85.711,97.199,85.723z"/>
	<path fill="#F6DB68" d="M84.876,271.932c-0.039-0.535,0.145-1.059,0.396-1.558c0.619-1.225,0.976-2.502,0.907-3.893
		c-0.021-0.442,0.068-0.896,0.146-1.335c0.219-1.223,1.01-1.832,2.208-1.58c1.83,0.384,3.613,0.378,5.371-0.313
		c0.072-0.029,0.154-0.032,0.231-0.051c2.114-0.51,3.02,0.183,2.989,2.366c-0.013,0.976,0.264,1.8,0.844,2.575
		c0.457,0.611,0.949,1.208,1.251,1.926c0.406,0.967,0.239,1.826-0.665,2.35c-1.682,0.975-3.011,2.254-4.135,3.849
		c-1.124,1.595-2.754,1.626-3.992,0.117c-1.01-1.232-2.125-2.028-3.757-2.208C85.404,274.038,84.86,273.214,84.876,271.932z"/>
	<path fill="#FEAEA3" d="M204.391,177.953c1.187-0.442,2.301-1.058,3.529-1.379c5-1.308,9.749-0.852,14.096,2.113
		c2.518,1.716,4.081,4.076,4.221,7.172c0.087,1.955-0.555,3.762-1.797,5.295c-2.529,3.125-5.936,4.521-9.844,4.96
		c-3.586,0.403-6.967-0.212-10.074-2.025c-2.395-1.397-4.272-3.307-4.955-6.115c-0.651-2.674,0.027-5.046,1.691-7.206
		c0.59-0.762,1.414-1.268,1.984-2.031C203.391,178.132,203.797,177.903,204.391,177.953z"/>
	<path fill="#FEAEA3" d="M127.865,195.964c-3.933-0.156-7.672-1.206-10.646-4.21c-3.724-3.761-3.354-9.491,0.809-12.765
		c3.532-2.778,7.555-3.741,11.981-3.278c2.883,0.302,5.479,1.268,7.812,3.01c4.903,3.665,4.928,10.34,0.061,14.04
		C134.952,194.983,131.63,195.872,127.865,195.964z"/>
	<path fill="#5A3A1C" d="M154.74,169.268c-0.035,2.159-0.994,5.609-3.716,8.37c-3.463,3.514-8.394,3.412-11.709-0.253
		c-2.945-3.256-3.913-7.178-3.606-11.466c0.201-2.831,1.078-5.436,2.825-7.705c3.464-4.497,9.097-4.667,12.839-0.398
		C153.57,160.322,154.74,163.739,154.74,169.268z"/>
	<path fill="#5A3A1C" d="M204.391,177.953c-0.415,0.213-0.823,0.438-1.146,0.785c-1.334,0.503-2.668,0.987-4.135,0.911
		c-3.229-0.167-5.509-1.854-7.115-4.521c-2.867-4.75-2.245-11.634,1.375-15.834c4.521-5.248,11.604-4.254,14.664,2.04
		C210.546,166.497,209.471,174.043,204.391,177.953z"/>
	<path fill="#5A3A1C" d="M171.921,177.244c5.471-0.153,10.08,0.043,14.684-0.209c0.08-0.004,0.158-0.001,0.238-0.001
		c1.951,0.012,2.379,0.369,2.391,2.287c0.021,3.176-0.09,6.348-0.795,9.467c-1.102,4.877-4.009,8.228-8.711,9.874
		c-5.584,1.955-11.008,1.458-16.072-1.655c-3.901-2.397-5.794-6.094-6.402-10.54c-0.372-2.716-0.313-5.436-0.152-8.16
		c0.047-0.78,0.43-1.135,1.313-1.133c1.35,0.002,2.699,0.063,4.049,0.068C165.903,177.25,169.344,177.244,171.921,177.244z"/>
	<path fill="#FE8685" d="M171.348,171.761c-1.399,0.01-2.731-0.27-3.962-0.958c-2.008-1.124-2.127-3.157-0.151-4.304
		c2.677-1.555,5.476-1.531,8.154-0.007c1.892,1.074,1.853,2.987,0.041,4.183C174.379,171.368,172.913,171.758,171.348,171.761z"/>
	<path fill="#5B3C1E" d="M172.51,262.436c-1.088-0.048-1.373-0.47-1.08-1.595c0.671-0.499,1.289-0.492,1.627,0.014
		C173.43,261.417,173.214,262.043,172.51,262.436z"/>
	<path fill="#FEFEFE" d="M61.325,214.168c-0.301,1.115,0.077,2.196,0.59,3.271c0.274,0.578,0.525,1.265-0.176,1.711
		c-0.641,0.406-1.284,0.15-1.825-0.304c-1.48-1.243-1.744-4.008-0.553-5.509c0.375-0.477,0.854-0.519,1.354-0.348
		C61.204,213.157,61.367,213.576,61.325,214.168z"/>
	<path fill="#FEFEFE" d="M260.447,253.397c-0.152,0.956,0.275,1.833,0.67,2.735c0.457,1.05-0.009,1.856-0.975,1.756
		c-0.48-0.05-0.894-0.282-1.243-0.639c-1.247-1.278-1.534-3.445-0.641-4.99c0.325-0.562,0.733-1,1.463-0.788
		c0.705,0.204,0.816,0.743,0.729,1.381C260.429,253.01,260.447,253.17,260.447,253.397z"/>
	<path fill="#FEFEFE" d="M291.157,199.463c-0.085,1,0.105,1.8,0.506,2.574c0.327,0.637,0.657,1.343-0.042,1.938
		c-0.537,0.455-1.435,0.191-2.1-0.535c-1.245-1.359-1.417-3.541-0.417-5.063c0.319-0.486,0.703-0.804,1.31-0.63
		c0.651,0.186,0.82,0.674,0.747,1.297C291.137,199.226,291.157,199.413,291.157,199.463z"/>
	<path fill="#FEFEFE" d="M106.522,89.661c-0.082,0.787,0.132,1.479,0.478,2.151c0.274,0.538,0.467,1.168-0.132,1.561
		c-0.588,0.386-1.159,0.075-1.624-0.39c-1.035-1.042-1.281-2.813-0.554-4.1c0.267-0.471,0.574-0.925,1.236-0.728
		c0.624,0.186,0.645,0.687,0.6,1.214C106.514,89.475,106.522,89.58,106.522,89.661z"/>
	<path fill="#FEFEFD" d="M95.82,266.936c-0.031,0.36,0.103,0.912,0.377,1.443c0.212,0.413,0.358,0.92-0.076,1.225
		c-0.479,0.335-0.965,0.076-1.344-0.304c-0.828-0.831-0.992-2.279-0.399-3.3c0.214-0.369,0.473-0.661,0.943-0.543
		c0.48,0.12,0.566,0.496,0.525,0.929C95.837,266.488,95.835,266.597,95.82,266.936z"/>
	<path fill="#FDF7F0" d="M138.173,163.139c0.004-1.15,0.793-1.916,1.961-1.902c1.096,0.011,1.865,0.853,1.855,2.028
		c-0.011,1.119-0.856,1.958-1.965,1.944C138.981,165.196,138.169,164.288,138.173,163.139z"/>
	<path fill="#FDF7F0" d="M203.463,163.912c-0.015-1.137,0.79-2.025,1.854-2.039c1.155-0.014,1.981,0.761,2.004,1.88
		c0.02,1.082-0.858,2.056-1.871,2.077C204.341,165.85,203.479,165.018,203.463,163.912z"/>
	<path fill="#FE5A72" d="M177.988,179.164c2.114-0.152,4.231-0.022,6.348-0.066c0.345-0.008,0.689-0.009,1.033,0
		c1.86,0.048,1.994-0.428,1.914,1.933c-0.091,2.641-0.136,5.295-0.914,7.86c-0.138,0.454-0.234,0.923-0.5,1.328
		c-0.32,0.254-0.658,0.128-0.981,0.023c-2.599-0.854-5.261-1.433-7.974-1.736c-2.396-0.267-4.795-0.263-7.2-0.042
		c-2.882,0.266-5.706,0.809-8.491,1.578c-0.305,0.084-0.614,0.179-0.926,0.011c-0.834-1.747-1.127-3.628-1.248-5.525
		c-0.099-1.553-0.022-3.118-0.042-4.677c-0.006-0.458,0.139-0.662,0.64-0.646c1.32,0.042,2.643,0.039,3.964,0.054
		c1.098,1.018,2.479,1.38,3.889,1.653c4.375,0.85,8.729,0.708,13.06-0.313c0.518-0.122,1.021-0.283,1.486-0.544
		c0.14-0.08,0.302-0.183,0.261-0.356c-0.042-0.185-0.248-0.174-0.399-0.178c-0.979-0.027-1.957,0.009-2.937-0.021
		C178.617,179.489,178.208,179.582,177.988,179.164z"/>
	<path fill="#FE919C" d="M160.296,190.053c2.828-0.877,5.699-1.533,8.659-1.758c1.262-0.097,2.521-0.298,3.784-0.292
		c4.168,0.021,8.248,0.653,12.215,1.972c0.299,0.099,0.608,0.165,0.914,0.245c-0.903,2.563-2.587,4.459-4.953,5.76
		c-5.483,3.019-13.237,2.178-17.935-1.963C161.754,192.932,160.846,191.604,160.296,190.053z"/>
	<path fill="#FEFEFE" d="M177.988,179.164c1.429,0.013,2.854,0.021,4.282,0.044c0.19,0.003,0.455-0.113,0.561,0.145
		c0.091,0.221-0.081,0.401-0.193,0.576c-0.213,0.334-0.562,0.463-0.913,0.59c-1.627,0.59-3.322,0.863-5.032,1.022
		c-3.603,0.337-7.183,0.254-10.695-0.721c-0.53-0.148-1.045-0.366-1.552-0.588c-0.424-0.184-0.771-0.468-0.835-0.975
		c4.477-0.016,8.952-0.033,13.432-0.051C177.354,179.205,177.671,179.179,177.988,179.164z"/>
</g>
</svg>
