<?xml version="1.0" encoding="utf-8"?>
<!-- Generator: Adobe Illustrator 16.0.0, SVG Export Plug-In . SVG Version: 6.00 Build 0)  -->
<!DOCTYPE svg PUBLIC "-//W3C//DTD SVG 1.1//EN" "http://www.w3.org/Graphics/SVG/1.1/DTD/svg11.dtd">
<svg version="1.1" id="Layer_1" xmlns="http://www.w3.org/2000/svg" xmlns:xlink="http://www.w3.org/1999/xlink" x="0px" y="0px"
	 width="512px" height="512px" viewBox="0 0 512 512" enable-background="new 0 0 512 512" xml:space="preserve">
<g>
	<g>
		
			<linearGradient id="SVGID_1_" gradientUnits="userSpaceOnUse" x1="75.4529" y1="402.5398" x2="391.5262" y2="86.4665" gradientTransform="matrix(1 0 0 -1 24.9448 503.3589)">
			<stop  offset="0" style="stop-color:#FF00FF"/>
			<stop  offset="1" style="stop-color:#FF006F"/>
		</linearGradient>
		<path fill="url(#SVGID_1_)" d="M481.032,256.455c0,124.262-100.732,225-224.999,225c-124.268,0-225-100.738-225-225
			c0-124.267,100.732-225,225-225C380.3,31.455,481.032,132.188,481.032,256.455z"/>
		
			<linearGradient id="SVGID_2_" gradientUnits="userSpaceOnUse" x1="125.1418" y1="430.4099" x2="337.0352" y2="63.3999" gradientTransform="matrix(1 0 0 -1 24.9448 503.3589)">
			<stop  offset="0" style="stop-color:#FF006F"/>
			<stop  offset="0.6601" style="stop-color:#FF007F"/>
			<stop  offset="1" style="stop-color:#FF00FF"/>
		</linearGradient>
		<circle fill="url(#SVGID_2_)" cx="256.033" cy="256.455" r="211.858"/>
	</g>
</g>
<g opacity="0.3">
	<path d="M398.528,193.01c-91.844,0-182.752,0-274.302,0c-0.096,2.307-0.262,4.374-0.262,6.442
		c-0.025,47.059-0.025,94.117-0.015,141.176c0,14.691,5.143,19.852,19.73,19.852c29.215-0.009,58.43-0.017,87.645-0.017
		c1.758,0,3.795-0.39,5.198,0.363c1.474,0.777,3.2,2.693,3.215,4.129c0.017,1.435-1.663,3.399-3.121,4.199
		c-1.378,0.769-3.424,0.444-5.183,0.444c-29.801,0.016-59.603,0.03-89.412,0c-17.257-0.025-26.932-9.683-26.942-27.005
		c-0.038-60.196-0.038-120.392-0.007-180.589c0-16.917,9.674-26.41,26.774-26.458c7.053-0.023,14.096-0.007,21.314-0.007
		c3.866-10.958,10.911-17.859,22.978-17.589c11.332,0.251,17.717,7.155,21.426,17.361c35.687,0,71.328,0,107.222,0
		c0.596-1.339,1.174-2.766,1.854-4.145c4.074-8.24,10.522-13.09,19.873-13.248c9.611-0.166,16.695,4.381,20.515,13.034
		c1.641,3.741,3.55,4.874,7.393,4.651c5.673-0.315,11.363-0.094,17.052-0.055c16.124,0.104,25.895,9.866,25.926,26.141
		c0.047,46.655,0.017,93.326,0.017,139.996c0,14.121,0.167,28.24-0.222,42.346c-0.048,1.869-2.9,3.668-4.455,5.497
		c-1.402-1.789-2.986-3.47-4.104-5.419c-0.523-0.889-0.103-2.298-0.103-3.48c-0.009-26.67-0.009-53.333-0.009-79.997
		c0-20.198,0-40.396,0-60.601C398.528,197.916,398.528,195.793,398.528,193.01z M398.417,183.597c0-8.684,0.372-16.71-0.097-24.698
		c-0.491-8.503-6.464-14.002-14.99-14.342c-6.656-0.252-13.343-0.316-19.975,0.056c-1.791,0.095-4.327,1.672-5.063,3.249
		c-4.238,9.065-10.975,14.287-21.062,14.224c-9.825-0.056-16.418-5.222-20.642-13.992c-0.775-1.617-3.231-3.439-4.921-3.447
		c-33.509-0.199-67.033-0.19-100.552-0.015c-1.6,0.008-4.009,1.537-4.674,2.979c-4.105,9.103-10.768,14.452-20.87,14.476
		c-10.087,0.016-16.815-5.255-20.983-14.335c-0.69-1.489-2.971-3.075-4.572-3.145c-7.044-0.325-14.121-0.293-21.163-0.048
		c-6.728,0.239-12.544,3.59-13.605,10.072c-1.554,9.46-1.196,19.238-1.657,28.968C215.902,183.597,306.787,183.597,398.417,183.597z
		 M185.221,153.161c7.257,0.167,13.136-5.332,13.462-12.599c0.332-7.441-5.429-13.596-12.9-13.772
		c-7.258-0.166-13.105,5.341-13.431,12.63C172.029,146.942,177.694,152.995,185.221,153.161z M336.754,153.219
		c7.25,0.078,13.146-5.579,13.406-12.861c0.27-7.44-5.768-13.629-13.24-13.573c-7.101,0.054-13.104,6.07-13.153,13.192
		C323.704,147.172,329.551,153.131,336.754,153.219z"/>
	<path d="M318.909,265.703c40.197,0.475,72.161,33.104,71.742,73.238c-0.411,39.771-33.105,71.647-73.056,71.242
		c-39.896-0.41-72.138-33.523-71.543-73.501C246.63,297.335,279.585,265.235,318.909,265.703z M381.516,338.158
		c0.063-34.802-27.986-63.302-62.392-63.404c-35.783-0.097-63.826,27.843-63.881,63.657c-0.072,34.452,28.28,62.764,62.969,62.874
		C353.108,401.388,381.444,373.149,381.516,338.158z"/>
	<path d="M295.645,224.088c0.081-17.473-2.013-15.982,16.141-15.943c3.915,0.009,7.965-0.521,11.703,0.278
		c1.957,0.412,4.707,3.105,4.841,4.944c0.556,7.4,0.547,14.904,0,22.306c-0.135,1.878-2.907,4.945-4.652,5.079
		c-7.597,0.554-15.292,0.563-22.891,0.015c-1.821-0.134-4.501-2.979-4.911-4.969C295.076,232.043,295.645,228.002,295.645,224.088z
		 M318.737,217.131c-4.913,0-9.295,0-13.931,0c0,4.865,0,9.38,0,14.08c4.835,0,9.207,0,13.931,0
		C318.737,226.473,318.737,222.092,318.737,217.131z"/>
	<path d="M380.437,225.165c-0.189,17.789,2.099,15.808-16.014,15.862c-3.71,0.016-7.433-0.063-11.144,0.032
		c-3.914,0.095-5.799-1.783-5.814-5.626c-0.031-7.228-0.031-14.453-0.015-21.672c0-3.866,1.924-5.674,5.814-5.642
		c7.028,0.063,14.057,0.063,21.093-0.023c4.515-0.056,6.314,2.138,6.109,6.521C380.312,218.128,380.437,221.656,380.437,225.165z
		 M370.589,217.162c-5.008,0-9.382,0-13.923,0c0,4.882,0,9.406,0,14.003c4.85,0,9.224,0,13.923,0
		C370.589,226.401,370.589,222.012,370.589,217.162z"/>
	<path d="M260.283,208.161c3.312,0,6.64,0.086,9.943-0.024c4.515-0.142,6.339,2.045,6.268,6.426
		c-0.119,6.831-0.111,13.661-0.048,20.492c0.031,4.184-1.926,6.037-6.078,5.99c-7.021-0.087-14.049-0.072-21.077,0.008
		c-4.224,0.031-5.935-1.989-5.855-6.141c0.127-6.839,0.16-13.668-0.024-20.491c-0.119-4.557,1.941-6.418,6.322-6.299
		c3.519,0.095,7.029,0.017,10.547,0.017C260.283,208.145,260.283,208.154,260.283,208.161z M266.923,231.282
		c0-5.079,0-9.478,0-14.025c-4.913,0-9.463,0-14.114,0c0,4.896,0,9.326,0,14.025C257.564,231.282,261.993,231.282,266.923,231.282z"
		/>
	<path d="M224.635,224.032c0,19.255,1.521,16.528-16.561,16.552c-19.002,0.032-16.393,2.076-16.386-16.608
		c0.015-18.09-2.709-16.276,16.726-16.354c2.742-0.007,5.476,0.008,8.201,0.015c7.084,0.023,7.965,0.912,8.003,8.193
		C224.642,218.573,224.627,221.307,224.635,224.032z M215.006,231.829c0-5.214,0-9.771,0-14.454c-4.856,0-9.239,0-13.937,0
		c0,4.953,0,9.659,0,14.454C205.918,231.829,210.299,231.829,215.006,231.829z"/>
	<path d="M172.812,224.181c-0.048,18.717,1.704,16.276-16.117,16.418c-3.709,0.032-7.426-0.063-11.133,0.008
		c-3.89,0.072-5.761-1.688-5.729-5.633c0.063-7.228,0.056-14.452,0-21.67c-0.025-3.946,1.901-5.689,5.752-5.667
		c7.038,0.04,14.058,0.055,21.093-0.015c4.144-0.048,6.164,1.869,6.132,6.013C172.789,217.155,172.812,220.665,172.812,224.181z
		 M149.239,217.392c0,5.245,0,9.826,0,14.341c4.913,0,9.343,0,14.048,0c0-4.929,0-9.494,0-14.341
		C158.494,217.392,154.065,217.392,149.239,217.392z"/>
	<path d="M207.763,287.961c-18.652-0.031-16.076,1.568-16.061-15.744c0.022-19.121-2.828-17.156,17.019-17.197
		c17.599-0.03,15.912-1.695,15.904,16.111c0,3.706-0.016,7.417-0.016,11.123c0.007,3.819-1.775,5.793-5.722,5.721
		C215.182,287.913,211.472,287.961,207.763,287.961z M215.03,278.825c0-5.19,0-9.771,0-14.485c-4.88,0-9.318,0-13.897,0
		c0,4.991,0,9.73,0,14.485C205.934,278.825,210.205,278.825,215.03,278.825z"/>
	<path d="M207.835,334.9c-3.527-0.008-7.06-0.063-10.585,0.009c-3.971,0.063-5.65-1.869-5.611-5.785
		c0.086-7.044,0.104-14.104-0.007-21.164c-0.055-3.873,1.577-5.958,5.499-5.974c7.25-0.039,14.508-0.047,21.758-0.008
		c4.264,0.024,5.793,2.527,5.746,6.489c-0.055,6.67-0.11,13.336,0.03,19.999c0.11,4.851-2.156,6.728-6.83,6.475
		C214.507,334.759,211.17,334.909,207.835,334.9z M201.021,325.931c4.984,0,9.548,0,14.143,0c0-4.874,0-9.304,0-14.105
		c-4.849,0-9.38,0-14.143,0C201.021,316.786,201.021,321.368,201.021,325.931z"/>
	<path d="M154.921,334.909c-17.164-0.293-14.952,2.662-15.086-16.743c-0.016-2.749,0-5.482,0.016-8.233
		c0.022-7.107,0.746-7.899,7.592-7.971c6.084-0.056,12.162,0.11,18.239-0.056c4.913-0.134,7.291,1.87,7.179,6.926
		c-0.15,6.466-0.142,12.947-0.015,19.414c0.096,4.636-1.704,6.99-6.599,6.695C162.924,334.751,159.579,334.909,154.921,334.909z
		 M163.233,326.081c0-5.023,0-9.589,0-14.325c-4.841,0-9.231,0-14.048,0c0,4.881,0,9.452,0,14.325
		C153.883,326.081,158.312,326.081,163.233,326.081z"/>
	<path d="M139.85,271.671c-0.008-0.976-0.016-1.951-0.008-2.934c0.063-14.151-1.814-13.81,14.096-13.746
		c4.294,0.024,8.589,0.056,12.883,0.024c4.152-0.024,6.039,2.037,5.998,6.141c-0.056,7.036-0.024,14.057-0.015,21.084
		c0.008,3.836-1.782,5.754-5.704,5.722c-7.038-0.056-14.066-0.118-21.087,0.024c-4.516,0.095-6.418-1.902-6.197-6.362
		C139.985,278.318,139.85,274.989,139.85,271.671z M149.185,264.27c0,5.054,0,9.642,0,14.348c4.984,0,9.539,0,13.977,0
		c0-5.039,0-9.61,0-14.348C158.383,264.27,154.113,264.27,149.185,264.27z"/>
	<path d="M313.966,372.815c-15.595-3.288-25.309-12.288-29.365-27.415c-0.325-1.165-2.234-2.48-3.566-2.662
		c-3.288-0.475-7.314,0.119-7.226-4.738c0.103-5.254,4.429-4.421,7.876-4.58c0.577-0.023,1.156-0.149,0.856-0.103
		c3.39-6.261,5.506-12.995,9.896-17.488c4.857-4.952,11.854-7.789,17.82-11.703c1.521-0.99,3.55-2.367,3.811-3.843
		c0.578-3.279-0.094-7.314,4.669-7.32c5.182-0.017,4.555,4.302,4.737,7.781c0.039,0.745,0.253,1.498,0.411,2.448
		c16.323,3.407,26.055,13.447,29.635,29.668c3.651,1.561,10.412-1.348,10.222,5.721c-0.175,6.456-6.252,3.397-10.096,4.881
		c-2.329,11.693-8.729,20.839-19.816,26.307c-2.267,1.108-4.913,1.482-7.092,2.702c-1.378,0.776-2.986,2.4-3.169,3.811
		c-0.419,3.416-0.19,7.336-4.818,7.233c-5.103-0.101-4.485-4.39-4.516-7.914C314.235,374.829,314.093,374.059,313.966,372.815z
		 M293.57,331.201c3.542,2.449,8.502,4.112,8.852,6.457c0.99,6.64-6.016,3.826-9.199,5.627
		c2.614,11.148,10.435,18.637,18.461,19.302c2.457-3.486,4.159-8.399,6.498-8.716c6.361-0.88,3.629,5.76,5.276,8.875
		c10.459-0.967,19.049-9.644,19.493-17.694c-3.574-2.766-8.329-4.634-8.591-6.995c-0.713-6.442,5.808-3.581,9.019-5.143
		c-1.696-10.57-9.978-18.709-18.321-19.557c-2.457,3.502-4.185,8.48-6.481,8.757c-6.362,0.769-3.715-5.73-5.221-8.972
		C303.173,314.323,295.995,321.216,293.57,331.201z"/>
</g>
<g>
	<path fill="#FFFFFF" d="M407.602,181.344c-91.844,0-182.752,0-274.302,0c-0.096,2.307-0.262,4.374-0.262,6.442
		c-0.025,47.059-0.025,94.117-0.015,141.176c0,14.691,5.143,19.852,19.73,19.852c29.215-0.009,58.43-0.017,87.645-0.017
		c1.758,0,3.795-0.39,5.198,0.363c1.474,0.777,3.2,2.694,3.215,4.13c0.017,1.434-1.663,3.398-3.121,4.198
		c-1.378,0.769-3.424,0.444-5.183,0.444c-29.801,0.016-59.603,0.031-89.412,0c-17.257-0.024-26.932-9.683-26.942-27.005
		c-0.038-60.196-0.038-120.392-0.007-180.589c0-16.917,9.674-26.41,26.774-26.458c7.053-0.022,14.096-0.007,21.314-0.007
		c3.866-10.958,10.911-17.858,22.978-17.589c11.332,0.252,17.717,7.155,21.426,17.361c35.687,0,71.328,0,107.222,0
		c0.596-1.339,1.174-2.766,1.854-4.145c4.074-8.24,10.522-13.09,19.873-13.248c9.611-0.166,16.695,4.381,20.515,13.034
		c1.641,3.741,3.55,4.874,7.393,4.651c5.673-0.315,11.363-0.094,17.052-0.055c16.124,0.104,25.895,9.866,25.926,26.141
		c0.047,46.655,0.017,93.326,0.017,139.996c0,14.121,0.167,28.24-0.222,42.346c-0.048,1.869-2.9,3.668-4.455,5.498
		c-1.402-1.79-2.986-3.471-4.104-5.42c-0.523-0.889-0.103-2.298-0.103-3.48c-0.009-26.67-0.009-53.333-0.009-79.997
		c0-20.198,0-40.396,0-60.602C407.602,186.249,407.602,184.126,407.602,181.344z M407.491,171.93c0-8.684,0.372-16.71-0.097-24.698
		c-0.491-8.503-6.464-14.002-14.99-14.342c-6.656-0.252-13.343-0.316-19.975,0.056c-1.791,0.095-4.327,1.672-5.063,3.249
		c-4.238,9.065-10.975,14.287-21.062,14.224c-9.825-0.056-16.418-5.222-20.642-13.993c-0.775-1.616-3.231-3.439-4.921-3.447
		c-33.509-0.199-67.033-0.19-100.552-0.015c-1.6,0.007-4.009,1.537-4.673,2.979c-4.105,9.104-10.768,14.452-20.871,14.476
		c-10.087,0.015-16.815-5.255-20.983-14.335c-0.69-1.489-2.971-3.075-4.572-3.145c-7.044-0.326-14.121-0.294-21.163-0.048
		c-6.728,0.239-12.544,3.59-13.605,10.072c-1.554,9.46-1.196,19.238-1.657,28.968C224.976,171.93,315.862,171.93,407.491,171.93z
		 M194.295,141.494c7.257,0.167,13.136-5.332,13.462-12.599c0.332-7.441-5.429-13.596-12.9-13.772
		c-7.258-0.166-13.105,5.341-13.431,12.63C181.103,135.275,186.768,141.329,194.295,141.494z M345.828,141.552
		c7.25,0.079,13.146-5.579,13.406-12.861c0.27-7.44-5.768-13.629-13.24-13.573c-7.101,0.055-13.104,6.07-13.153,13.192
		C332.779,135.506,338.625,141.464,345.828,141.552z"/>
	<path fill="#FFFFFF" d="M327.985,254.036c40.196,0.475,72.16,33.104,71.741,73.238c-0.411,39.771-33.105,71.647-73.056,71.242
		c-39.896-0.41-72.138-33.523-71.543-73.5C255.704,285.668,288.659,253.568,327.985,254.036z M390.59,326.491
		c0.063-34.802-27.986-63.302-62.392-63.404c-35.783-0.097-63.826,27.843-63.881,63.657c-0.072,34.452,28.28,62.764,62.969,62.874
		C362.182,389.721,390.518,361.482,390.59,326.491z"/>
	<path fill="#FFFFFF" d="M304.719,212.421c0.081-17.473-2.013-15.982,16.141-15.943c3.915,0.009,7.965-0.521,11.703,0.279
		c1.957,0.411,4.707,3.105,4.841,4.943c0.556,7.4,0.547,14.904,0,22.306c-0.135,1.879-2.907,4.945-4.652,5.079
		c-7.597,0.554-15.292,0.563-22.891,0.015c-1.821-0.134-4.501-2.979-4.911-4.969C304.151,220.376,304.719,216.335,304.719,212.421z
		 M327.811,205.464c-4.913,0-9.295,0-13.931,0c0,4.865,0,9.38,0,14.08c4.835,0,9.207,0,13.931,0
		C327.811,214.806,327.811,210.425,327.811,205.464z"/>
	<path fill="#FFFFFF" d="M389.511,213.498c-0.189,17.789,2.099,15.808-16.014,15.862c-3.71,0.017-7.433-0.063-11.144,0.032
		c-3.914,0.095-5.799-1.783-5.814-5.626c-0.031-7.227-0.031-14.453-0.015-21.671c0-3.866,1.924-5.674,5.814-5.643
		c7.028,0.063,14.057,0.063,21.093-0.022c4.515-0.056,6.314,2.138,6.109,6.521C389.386,206.461,389.511,209.989,389.511,213.498z
		 M379.663,205.495c-5.008,0-9.382,0-13.923,0c0,4.881,0,9.406,0,14.002c4.85,0,9.224,0,13.923,0
		C379.663,214.734,379.663,210.345,379.663,205.495z"/>
	<path fill="#FFFFFF" d="M269.358,196.494c3.312,0,6.64,0.086,9.943-0.024c4.515-0.142,6.339,2.044,6.268,6.426
		c-0.119,6.831-0.111,13.661-0.048,20.492c0.032,4.184-1.926,6.037-6.078,5.99c-7.021-0.087-14.049-0.072-21.077,0.008
		c-4.224,0.032-5.935-1.989-5.855-6.141c0.127-6.838,0.16-13.668-0.024-20.49c-0.119-4.558,1.941-6.418,6.322-6.299
		c3.52,0.095,7.029,0.016,10.548,0.016C269.358,196.478,269.358,196.487,269.358,196.494z M275.997,219.615
		c0-5.079,0-9.478,0-14.025c-4.913,0-9.463,0-14.114,0c0,4.896,0,9.326,0,14.025C266.638,219.615,271.068,219.615,275.997,219.615z"
		/>
	<path fill="#FFFFFF" d="M233.709,212.365c0,19.255,1.521,16.528-16.561,16.552c-19.002,0.031-16.393,2.076-16.386-16.608
		c0.015-18.09-2.709-16.276,16.726-16.355c2.742-0.007,5.476,0.008,8.201,0.016c7.084,0.022,7.965,0.911,8.003,8.193
		C233.716,206.906,233.701,209.64,233.709,212.365z M224.08,220.162c0-5.214,0-9.771,0-14.453c-4.856,0-9.239,0-13.937,0
		c0,4.952,0,9.659,0,14.453C214.992,220.162,219.373,220.162,224.08,220.162z"/>
	<path fill="#FFFFFF" d="M181.886,212.515c-0.048,18.717,1.704,16.276-16.117,16.418c-3.709,0.032-7.426-0.063-11.133,0.007
		c-3.89,0.072-5.761-1.688-5.729-5.633c0.063-7.227,0.056-14.452,0-21.67c-0.025-3.946,1.901-5.689,5.752-5.666
		c7.038,0.039,14.059,0.054,21.093-0.016c4.144-0.048,6.164,1.869,6.132,6.014C181.864,205.488,181.886,208.998,181.886,212.515z
		 M158.313,205.725c0,5.245,0,9.826,0,14.341c4.913,0,9.343,0,14.048,0c0-4.928,0-9.493,0-14.341
		C167.569,205.725,163.139,205.725,158.313,205.725z"/>
	<path fill="#FFFFFF" d="M216.838,276.294c-18.652-0.031-16.076,1.568-16.061-15.744c0.023-19.121-2.828-17.156,17.019-17.197
		c17.599-0.03,15.912-1.695,15.904,16.111c0,3.706-0.017,7.417-0.017,11.123c0.007,3.819-1.775,5.793-5.722,5.721
		C224.256,276.246,220.547,276.294,216.838,276.294z M224.104,267.158c0-5.19,0-9.771,0-14.485c-4.88,0-9.318,0-13.897,0
		c0,4.992,0,9.73,0,14.485C215.008,267.158,219.28,267.158,224.104,267.158z"/>
	<path fill="#FFFFFF" d="M216.909,323.233c-3.527-0.007-7.06-0.063-10.585,0.009c-3.971,0.063-5.65-1.869-5.611-5.785
		c0.086-7.043,0.104-14.104-0.007-21.164c-0.055-3.873,1.577-5.958,5.499-5.974c7.25-0.039,14.508-0.047,21.758-0.008
		c4.264,0.024,5.793,2.527,5.746,6.489c-0.055,6.671-0.11,13.336,0.03,20c0.11,4.85-2.156,6.727-6.83,6.474
		C223.581,323.092,220.244,323.242,216.909,323.233z M210.095,314.264c4.984,0,9.548,0,14.143,0c0-4.874,0-9.304,0-14.105
		c-4.849,0-9.38,0-14.143,0C210.095,305.119,210.095,309.701,210.095,314.264z"/>
	<path fill="#FFFFFF" d="M163.995,323.242c-17.164-0.293-14.952,2.663-15.086-16.743c-0.016-2.749,0-5.482,0.016-8.233
		c0.022-7.106,0.746-7.899,7.592-7.971c6.084-0.056,12.162,0.11,18.239-0.056c4.913-0.134,7.291,1.87,7.179,6.927
		c-0.15,6.465-0.142,12.946-0.015,19.413c0.096,4.636-1.704,6.99-6.599,6.695C171.998,323.084,168.654,323.242,163.995,323.242z
		 M172.307,314.414c0-5.023,0-9.588,0-14.325c-4.841,0-9.231,0-14.048,0c0,4.881,0,9.452,0,14.325
		C162.957,314.414,167.386,314.414,172.307,314.414z"/>
	<path fill="#FFFFFF" d="M148.924,260.004c-0.008-0.976-0.016-1.95-0.008-2.933c0.063-14.152-1.814-13.811,14.096-13.747
		c4.294,0.024,8.589,0.056,12.883,0.024c4.152-0.024,6.039,2.037,5.998,6.141c-0.056,7.036-0.024,14.057-0.015,21.084
		c0.008,3.836-1.782,5.754-5.704,5.722c-7.038-0.056-14.066-0.118-21.087,0.024c-4.516,0.095-6.418-1.902-6.197-6.362
		C149.059,266.651,148.924,263.322,148.924,260.004z M158.259,252.603c0,5.054,0,9.642,0,14.348c4.984,0,9.539,0,13.977,0
		c0-5.039,0-9.61,0-14.348C167.457,252.603,163.187,252.603,158.259,252.603z"/>
	<path fill="#FFFFFF" d="M323.04,361.148c-15.595-3.287-25.309-12.288-29.365-27.415c-0.325-1.165-2.234-2.479-3.566-2.662
		c-3.288-0.475-7.314,0.119-7.226-4.738c0.103-5.254,4.429-4.421,7.876-4.58c0.577-0.023,1.156-0.149,0.856-0.103
		c3.39-6.261,5.506-12.995,9.896-17.488c4.857-4.952,11.854-7.789,17.82-11.703c1.521-0.99,3.55-2.367,3.811-3.842
		c0.579-3.28-0.094-7.315,4.669-7.321c5.182-0.017,4.555,4.302,4.737,7.781c0.039,0.745,0.253,1.498,0.411,2.448
		c16.323,3.407,26.055,13.447,29.635,29.668c3.651,1.561,10.412-1.348,10.222,5.721c-0.175,6.456-6.252,3.397-10.096,4.881
		c-2.329,11.693-8.729,20.839-19.816,26.307c-2.267,1.108-4.913,1.482-7.092,2.703c-1.378,0.775-2.986,2.399-3.169,3.81
		c-0.419,3.416-0.189,7.337-4.818,7.234c-5.103-0.102-4.485-4.391-4.516-7.915C323.309,363.163,323.167,362.392,323.04,361.148z
		 M302.644,319.535c3.542,2.448,8.502,4.111,8.852,6.456c0.99,6.64-6.016,3.827-9.199,5.627
		c2.614,11.149,10.435,18.637,18.461,19.302c2.457-3.486,4.159-8.399,6.498-8.716c6.361-0.88,3.629,5.76,5.276,8.875
		c10.459-0.967,19.049-9.644,19.493-17.693c-3.574-2.767-8.329-4.635-8.591-6.996c-0.713-6.442,5.808-3.581,9.019-5.143
		c-1.696-10.57-9.978-18.709-18.321-19.557c-2.457,3.503-4.185,8.48-6.481,8.758c-6.362,0.768-3.715-5.731-5.221-8.972
		C312.247,302.656,305.07,309.549,302.644,319.535z"/>
</g>
</svg>
