<?xml version="1.0" encoding="utf-8"?>
<!-- Generator: Adobe Illustrator 16.0.0, SVG Export Plug-In . SVG Version: 6.00 Build 0)  -->
<!DOCTYPE svg PUBLIC "-//W3C//DTD SVG 1.1//EN" "http://www.w3.org/Graphics/SVG/1.1/DTD/svg11.dtd">
<svg version="1.1" id="Layer_1" xmlns="http://www.w3.org/2000/svg" xmlns:xlink="http://www.w3.org/1999/xlink" x="0px" y="0px"
	 width="512px" height="512px" viewBox="0 0 512 512" enable-background="new 0 0 512 512" xml:space="preserve">
<g>
	<g>
		
			<linearGradient id="SVGID_1_" gradientUnits="userSpaceOnUse" x1="79.2239" y1="399.5408" x2="395.2974" y2="83.4673" gradientTransform="matrix(1 0 0 -1 24.9448 503.3589)">
			<stop  offset="0" style="stop-color:#FF00FF"/>
			<stop  offset="1" style="stop-color:#FF006F"/>
		</linearGradient>
		<path fill="url(#SVGID_1_)" d="M484.805,259.455c0,124.262-100.733,225-225,225s-225-100.738-225-225
			c0-124.267,100.733-225,225-225S484.805,135.188,484.805,259.455z"/>
		
			<linearGradient id="SVGID_2_" gradientUnits="userSpaceOnUse" x1="128.9138" y1="427.4099" x2="340.807" y2="60.4001" gradientTransform="matrix(1 0 0 -1 24.9448 503.3589)">
			<stop  offset="0" style="stop-color:#FF006F"/>
			<stop  offset="0.6601" style="stop-color:#FF007F"/>
			<stop  offset="1" style="stop-color:#FF00FF"/>
		</linearGradient>
		<circle fill="url(#SVGID_2_)" cx="259.805" cy="259.455" r="211.858"/>
	</g>
</g>
<g opacity="0.3">
	<path d="M181.223,315.422c3.802,4.798,7.598,9.597,11.395,14.4c3.355,4.267,6.735,8.521,10.062,12.813
		c2.011,2.598,1.925,3.722-0.746,5.66c-3.618,2.641-7.268,5.28-11.094,7.604c-6.791,4.126-12.922,2.936-17.978-3.142
		c-8.6-10.344-17.25-20.654-25.832-31.021c-0.909-1.112-1.777-1.59-3.195-1.241c-14.182,3.479-23.595-5.257-26.938-17.243
		c-1.943-6.985-2.139-14.04,0.593-20.868c2.592-6.484,7.273-10.867,14.347-11.991c12.042-1.907,24.145-3.405,36.161-5.446
		c7.268-1.235,14.522-2.806,21.596-4.866c13.808-4.028,23.563-12.854,29.211-26.148c0.733-1.73,1.657-3.417,2.708-4.964
		c2.311-3.386,6.516-5.072,10.343-4.027c4.089,1.111,7.035,3.611,7.702,8.02c2.359,15.709,4.639,31.437,6.956,47.158
		c2.17,14.713,4.315,29.426,6.535,44.126c0.764,4.994-0.929,9.126-4.988,11.521c-3.613,2.14-8.209,1.504-11.979-1.76
		c-1.241-1.082-2.359-2.312-3.424-3.576c-8.532-10.146-19.413-15.604-32.641-16.088c-6.168-0.221-12.348,0.098-18.533,0.171
		C181.394,314.815,181.309,315.115,181.223,315.422z M247.665,327.615c-0.538-3.937-0.936-7.06-1.395-10.171
		c-2.48-16.896-4.976-33.79-7.463-50.679c-1.571-10.667-3.154-21.327-4.683-31.999c-0.313-2.207-1.369-3.687-3.516-4.218
		c-2.236-0.568-3.802,0.557-4.901,2.396c-0.643,1.076-1.21,2.207-1.749,3.344c-3.479,7.408-7.695,14.26-14.225,19.45
		c-7.414,5.892-15.903,9.487-25.036,11.674c-2.164,0.515-2.861,1.204-2.464,3.606c1.884,11.729,3.582,23.489,5.232,35.257
		c0.245,1.772,0.789,2.249,2.616,2.312c6.197,0.201,12.463,0.184,18.563,1.168c11.688,1.882,20.905,8.288,28.545,17.15
		c1.125,1.303,2.28,2.775,3.747,3.516c1.224,0.604,3.148,0.732,4.347,0.165C246.467,330.029,247.121,328.344,247.665,327.615z
		 M176.339,269.455c-2.94,0.482-5.483,0.953-8.038,1.314c-11.296,1.612-22.591,3.209-33.894,4.786
		c-6.498,0.903-10.686,4.56-12.243,10.831c-2.072,8.344-0.954,16.302,4.163,23.386c3.099,4.285,7.469,6.394,12.726,5.667
		c11.296-1.565,22.562-3.417,33.833-5.146c3.001-0.452,6.009-0.867,9.254-1.346C180.202,295.714,178.289,282.743,176.339,269.455z
		 M152.623,319.377c0.727,0.972,1.191,1.661,1.729,2.304c7.807,9.353,15.611,18.698,23.436,28.032
		c2.372,2.836,5.158,3.813,8.361,2.14c3.784-1.98,7.269-4.555,10.923-6.889c-0.408-0.618-0.567-0.894-0.758-1.139
		c-5.775-7.353-11.828-14.511-17.219-22.14c-3.063-4.327-6.235-6.253-11.449-4.541c-2.054,0.672-4.346,0.636-6.521,0.947
		C158.423,318.489,155.722,318.905,152.623,319.377z"/>
	<path d="M393.619,334.383c-0.723,1.84-1.656,4.406-2.738,6.913c-7.983,18.483-16.003,36.949-23.992,55.428
		c-1.906,4.413-5.152,5.746-9.498,3.863c-19.921-8.645-39.835-17.269-59.75-25.898c-4.352-1.877-5.642-4.921-3.759-9.291
		c8.601-20.013,17.237-40.013,25.868-60.014c1.814-4.198,4.938-5.501,9.224-3.667c16.332,7.006,32.641,14.07,48.954,21.112
		c3.974,1.719,7.935,3.467,11.901,5.189C392.243,329.076,393.417,330.96,393.619,334.383z M361.039,395.837
		c9.033-20.904,17.977-41.57,26.938-62.312c-1.068-0.513-1.827-0.91-2.622-1.253c-19.052-8.239-38.129-16.43-57.15-24.761
		c-2.104-0.917-2.923-0.624-3.814,1.467c-8.264,19.303-16.606,38.575-24.987,57.836c-0.696,1.607-0.465,2.256,1.187,2.958
		c17.579,7.52,35.116,15.123,52.665,22.702C355.758,393.557,358.265,394.639,361.039,395.837z"/>
	<path d="M365.502,245.623c-0.275-0.061-0.984-0.159-1.646-0.367c-21.052-6.748-42.103-13.489-63.142-20.28
		c-4.519-1.455-5.917-4.23-4.469-8.753c6.649-20.832,13.324-41.657,20.006-62.477c1.313-4.089,4.34-5.746,8.454-4.443
		c14.541,4.614,29.059,9.309,43.594,13.967c6.137,1.962,12.28,3.942,18.436,5.88c5.185,1.638,6.607,4.376,4.885,9.755
		c-5.874,18.35-11.772,36.693-17.653,55.043c-0.794,2.469-1.546,4.951-2.377,7.415C370.746,243.887,368.447,245.58,365.502,245.623z
		 M366.039,239.98c6.979-21.767,13.856-43.209,20.782-64.78c-21.784-6.993-43.173-13.856-64.769-20.789
		c-6.968,21.681-13.832,43.075-20.813,64.78C322.879,226.136,344.261,232.994,366.039,239.98z"/>
	<path d="M160.917,158.673c-0.568-9.578-1.173-19.162-1.705-28.746c-0.293-5.337,1.968-7.728,7.219-8.015
		c21.137-1.148,42.274-2.347,63.411-3.526c0.862-0.05,1.736-0.146,2.598-0.099c3.473,0.177,5.887,2.5,6.095,5.996
		c1.101,19.175,2.163,38.344,3.232,57.52c0.165,2.988,0.403,5.972,0.489,8.961c0.134,4.083-2.121,6.576-6.167,6.814
		c-21.681,1.247-43.368,2.494-65.055,3.68c-5.808,0.324-7.818-1.619-8.148-7.458c-0.666-11.704-1.338-23.417-2.005-35.121
		C160.893,158.679,160.905,158.679,160.917,158.673z M236.62,191.796c-1.284-22.763-2.55-45.183-3.833-67.873
		c-22.764,1.277-45.264,2.542-67.861,3.809c0,0.94-0.037,1.552,0,2.17c1.204,21.131,2.445,42.262,3.588,63.393
		c0.104,2.055,0.844,2.434,2.708,2.322c13.9-0.854,27.813-1.595,41.706-2.396C220.697,192.774,228.46,192.291,236.62,191.796z"/>
	<path d="M301.92,278.544c-0.074,13.032-4.348,24.505-12.861,34.39c-0.415,0.471-0.831,0.948-1.302,1.37
		c-1.283,1.153-2.708,1.381-4.01,0.158c-1.296-1.217-1.217-2.642-0.122-4.011c1.521-1.913,3.142-3.753,4.535-5.739
		c14.848-21.174,8.483-52.384-13.441-66.063c-0.672-0.416-1.356-0.795-2.011-1.235c-1.511-1.009-2.164-2.354-1.167-4.027
		c0.996-1.688,2.641-1.89,4.059-0.802c4.193,3.167,8.655,6.119,12.286,9.859C297.048,251.894,302.005,265.305,301.92,278.544z"/>
	<path d="M277.959,275.085c-0.202,11.24-3.655,18.673-9.097,25.299c-1.411,1.725-3.202,2.098-4.505,1.053
		c-1.394-1.119-1.355-2.903,0.179-4.78c4.554-5.568,7.549-11.772,7.634-19.107c0.135-10.544-5.366-17.922-13.496-23.783
		c-0.446-0.318-0.96-0.557-1.388-0.905c-1.332-1.082-1.798-2.433-0.782-3.93c1.002-1.468,2.427-1.699,3.924-0.765
		c5.844,3.649,10.605,8.338,13.882,14.47C276.81,267.315,277.953,272.315,277.959,275.085z"/>
	<path d="M137.971,303.758c-2.683,0.288-4.016-0.458-4.254-2.321c-0.238-1.877,0.917-2.94,2.72-3.203
		c6.682-1.009,13.368-2.005,20.067-2.935c1.779-0.244,3.172,0.508,3.405,2.428c0.214,1.74-0.771,2.934-2.464,3.195
		C150.685,301.955,143.906,302.896,137.971,303.758z"/>
	<path d="M154.78,281.539c1.485-0.128,2.837,0.544,3.13,2.421c0.274,1.778-0.771,2.897-2.451,3.166
		c-6.754,1.046-13.521,2.036-20.294,2.989c-1.772,0.257-3.179-0.36-3.423-2.341c-0.232-1.913,0.861-2.989,2.646-3.266
		C141.07,283.502,147.763,282.554,154.78,281.539z"/>
	<path d="M351.418,369.137c-2.097-0.851-5.006-1.975-7.879-3.196c-5.653-2.402-11.26-4.878-16.906-7.286
		c-5.746-2.451-7.231-5.972-4.823-11.662c1.56-3.697,3.154-7.378,4.749-11.058c1.718-3.968,5.379-5.716,9.505-4.182
		c4.126,1.527,8.118,3.41,12.17,5.152c3.975,1.705,7.972,3.374,11.913,5.152c4.652,2.091,6.064,5.679,4.12,10.435
		c-1.632,4.011-3.331,7.995-5.092,11.949C357.886,367.353,355.611,368.954,351.418,369.137z M341.009,342.432
		c-1.729,3.985-3.288,7.573-5.049,11.639c4.762-0.422,8.937-0.789,13.545-1.198C346.583,349.29,343.942,346.038,341.009,342.432z"/>
	<path d="M322.194,204.528c3.539,0.99,7.066,1.449,10.979-0.085c-2.689-1.876-4.805-3.895-4.774-7.415
		c0.819,0.135,1.541,0.245,2.659,0.428c-2.604-2.812-4.456-5.544-3.038-9.364c0.789,0.423,1.498,0.813,2.696,1.455
		c-1.901-4.053-2.085-7.506,1.479-10.702c2.343,6.448,7.078,10.22,13.26,12.891c0.866-3.57,2.787-6.015,6.196-6.98
		c3.137-0.886,6.162-0.33,8.18,2.188c1.698,2.127,3.509,2.634,5.929,2.146c0.27-0.049,0.563,0.042,1.425,0.135
		c-1.406,1.174-2.438,2.042-3.637,3.044c0.996,0.109,1.814,0.208,2.714,0.306c-0.086,0.238-0.11,0.581-0.232,0.617
		c-3.344,1.04-4.377,3.899-5.867,6.681c-7.226,13.559-24.354,16.876-36.033,7.194c-0.782-0.643-1.564-1.271-2.354-1.907
		C321.913,204.95,322.054,204.736,322.194,204.528z"/>
	<path d="M223.912,142.059c-6.89,1.362-8.638,3.557-7.61,9.242c1.791,0,3.625,0,5.746,0c0.153,2.622,0.3,5.079,0.452,7.738
		c-1.369,0.099-2.451,0.27-3.526,0.221c-1.81-0.073-2.47,0.556-2.329,2.481c0.435,5.729,0.69,11.461,0.984,17.194
		c0.066,1.161,0.012,2.329,0.012,3.729c-2.958,0.165-5.819,0.33-9.016,0.507c-0.472-7.72-0.937-15.286-1.4-22.982
		c-2.15,0-4.156,0-6.394,0c-0.178-2.562-0.349-5.037-0.532-7.708c2.207-0.195,4.218-0.36,6.418-0.557
		c-0.214-5.672,0.128-11.051,4.963-14.864c3.466-2.739,7.585-1.933,11.822-2.384C223.649,137.285,223.778,139.663,223.912,142.059z"
		/>
</g>
<g>
	<path fill="#FFFFFF" d="M188.223,308.422c3.802,4.798,7.598,9.597,11.395,14.4c3.355,4.267,6.735,8.521,10.062,12.813
		c2.011,2.598,1.925,3.722-0.746,5.66c-3.618,2.641-7.268,5.28-11.094,7.604c-6.791,4.126-12.922,2.936-17.978-3.142
		c-8.6-10.344-17.25-20.654-25.832-31.021c-0.909-1.112-1.777-1.59-3.195-1.241c-14.182,3.479-23.595-5.257-26.938-17.243
		c-1.943-6.985-2.139-14.04,0.593-20.868c2.592-6.484,7.273-10.867,14.347-11.991c12.042-1.907,24.145-3.405,36.161-5.446
		c7.268-1.235,14.522-2.806,21.596-4.866c13.808-4.028,23.563-12.854,29.211-26.148c0.733-1.73,1.657-3.417,2.708-4.964
		c2.311-3.386,6.516-5.072,10.343-4.027c4.089,1.111,7.035,3.611,7.702,8.02c2.359,15.709,4.639,31.437,6.956,47.158
		c2.17,14.713,4.315,29.426,6.535,44.126c0.764,4.994-0.929,9.126-4.988,11.521c-3.613,2.14-8.209,1.504-11.979-1.76
		c-1.241-1.082-2.359-2.312-3.424-3.576c-8.532-10.146-19.413-15.604-32.641-16.088c-6.168-0.221-12.348,0.098-18.533,0.171
		C188.394,307.815,188.309,308.115,188.223,308.422z M254.665,320.615c-0.538-3.937-0.936-7.06-1.395-10.171
		c-2.48-16.896-4.976-33.79-7.463-50.679c-1.571-10.667-3.154-21.327-4.683-31.999c-0.313-2.207-1.369-3.687-3.516-4.218
		c-2.236-0.568-3.802,0.557-4.901,2.396c-0.643,1.076-1.21,2.207-1.749,3.344c-3.479,7.408-7.695,14.26-14.225,19.45
		c-7.414,5.892-15.903,9.487-25.036,11.674c-2.164,0.515-2.861,1.204-2.464,3.606c1.884,11.729,3.582,23.489,5.232,35.257
		c0.245,1.772,0.789,2.249,2.616,2.312c6.197,0.201,12.463,0.184,18.563,1.168c11.688,1.882,20.905,8.288,28.545,17.15
		c1.125,1.303,2.28,2.775,3.747,3.516c1.224,0.604,3.148,0.732,4.347,0.165C253.467,323.029,254.121,321.344,254.665,320.615z
		 M183.339,262.455c-2.94,0.482-5.483,0.953-8.038,1.314c-11.296,1.612-22.591,3.209-33.894,4.786
		c-6.498,0.903-10.686,4.56-12.243,10.831c-2.072,8.344-0.954,16.302,4.163,23.386c3.099,4.285,7.469,6.394,12.726,5.667
		c11.296-1.565,22.562-3.417,33.833-5.146c3.001-0.452,6.009-0.867,9.254-1.346C187.202,288.714,185.289,275.743,183.339,262.455z
		 M159.623,312.377c0.727,0.972,1.191,1.661,1.729,2.304c7.807,9.353,15.611,18.698,23.436,28.032
		c2.372,2.836,5.158,3.813,8.361,2.14c3.784-1.98,7.269-4.555,10.923-6.889c-0.408-0.618-0.567-0.894-0.758-1.139
		c-5.775-7.353-11.828-14.511-17.219-22.14c-3.063-4.327-6.235-6.253-11.449-4.541c-2.054,0.672-4.346,0.636-6.521,0.947
		C165.423,311.489,162.722,311.905,159.623,312.377z"/>
	<path fill="#FFFFFF" d="M400.619,327.383c-0.723,1.84-1.656,4.406-2.738,6.913c-7.983,18.483-16.003,36.949-23.992,55.428
		c-1.906,4.413-5.152,5.746-9.498,3.863c-19.921-8.645-39.835-17.269-59.75-25.898c-4.352-1.877-5.642-4.921-3.759-9.291
		c8.601-20.013,17.237-40.013,25.868-60.014c1.814-4.198,4.938-5.501,9.224-3.667c16.332,7.006,32.641,14.07,48.954,21.112
		c3.974,1.719,7.935,3.467,11.901,5.189C399.243,322.076,400.417,323.96,400.619,327.383z M368.039,388.837
		c9.033-20.904,17.977-41.57,26.938-62.312c-1.068-0.513-1.827-0.91-2.622-1.253c-19.052-8.239-38.129-16.43-57.15-24.761
		c-2.104-0.917-2.923-0.624-3.814,1.467c-8.264,19.303-16.606,38.575-24.987,57.836c-0.696,1.607-0.465,2.256,1.187,2.958
		c17.579,7.52,35.116,15.123,52.665,22.702C362.758,386.557,365.265,387.639,368.039,388.837z"/>
	<path fill="#FFFFFF" d="M372.502,238.623c-0.275-0.061-0.984-0.159-1.646-0.367c-21.052-6.748-42.103-13.489-63.142-20.28
		c-4.519-1.455-5.917-4.23-4.469-8.753c6.649-20.832,13.324-41.657,20.006-62.477c1.313-4.089,4.34-5.746,8.454-4.443
		c14.541,4.614,29.059,9.309,43.594,13.967c6.137,1.962,12.28,3.942,18.436,5.88c5.185,1.638,6.607,4.376,4.885,9.755
		c-5.874,18.35-11.772,36.693-17.653,55.043c-0.794,2.469-1.546,4.951-2.377,7.415C377.746,236.887,375.447,238.58,372.502,238.623z
		 M373.039,232.98c6.979-21.767,13.856-43.209,20.782-64.78c-21.784-6.993-43.173-13.856-64.769-20.789
		c-6.968,21.681-13.832,43.075-20.813,64.78C329.879,219.136,351.261,225.994,373.039,232.98z"/>
	<path fill="#FFFFFF" d="M167.917,151.673c-0.568-9.578-1.173-19.162-1.705-28.746c-0.293-5.337,1.968-7.728,7.219-8.015
		c21.137-1.148,42.274-2.347,63.411-3.526c0.862-0.05,1.736-0.146,2.598-0.099c3.473,0.177,5.887,2.5,6.095,5.996
		c1.101,19.175,2.163,38.344,3.232,57.52c0.165,2.988,0.403,5.972,0.489,8.961c0.134,4.083-2.121,6.576-6.167,6.814
		c-21.681,1.247-43.368,2.494-65.055,3.68c-5.808,0.324-7.818-1.619-8.148-7.458c-0.666-11.704-1.338-23.417-2.005-35.121
		C167.893,151.679,167.905,151.679,167.917,151.673z M243.62,184.796c-1.284-22.763-2.55-45.183-3.833-67.873
		c-22.764,1.277-45.264,2.542-67.861,3.809c0,0.94-0.037,1.552,0,2.17c1.204,21.131,2.445,42.262,3.588,63.393
		c0.104,2.055,0.844,2.434,2.708,2.322c13.9-0.854,27.813-1.595,41.706-2.396C227.697,185.774,235.46,185.291,243.62,184.796z"/>
	<path fill="#FFFFFF" d="M308.92,271.544c-0.074,13.032-4.348,24.505-12.861,34.39c-0.415,0.471-0.831,0.948-1.302,1.37
		c-1.283,1.153-2.708,1.381-4.01,0.158c-1.296-1.217-1.217-2.642-0.122-4.011c1.521-1.913,3.142-3.753,4.535-5.739
		c14.848-21.174,8.483-52.384-13.441-66.063c-0.672-0.416-1.356-0.795-2.011-1.235c-1.511-1.009-2.164-2.354-1.167-4.027
		c0.996-1.688,2.641-1.89,4.059-0.802c4.193,3.167,8.655,6.119,12.286,9.859C304.048,244.894,309.005,258.305,308.92,271.544z"/>
	<path fill="#FFFFFF" d="M284.959,268.085c-0.202,11.24-3.655,18.673-9.097,25.299c-1.411,1.725-3.202,2.098-4.505,1.053
		c-1.394-1.119-1.355-2.903,0.179-4.78c4.554-5.568,7.549-11.772,7.634-19.107c0.135-10.544-5.366-17.922-13.496-23.783
		c-0.446-0.318-0.96-0.557-1.388-0.905c-1.332-1.082-1.798-2.433-0.782-3.93c1.002-1.468,2.427-1.699,3.924-0.765
		c5.844,3.649,10.605,8.338,13.882,14.47C283.81,260.315,284.953,265.315,284.959,268.085z"/>
	<path fill="#FFFFFF" d="M144.971,296.758c-2.683,0.288-4.016-0.458-4.254-2.321c-0.238-1.877,0.917-2.94,2.72-3.203
		c6.682-1.009,13.368-2.005,20.067-2.935c1.779-0.244,3.172,0.508,3.405,2.428c0.214,1.74-0.771,2.934-2.464,3.195
		C157.685,294.955,150.906,295.896,144.971,296.758z"/>
	<path fill="#FFFFFF" d="M161.78,274.539c1.485-0.128,2.837,0.544,3.13,2.421c0.274,1.778-0.771,2.897-2.451,3.166
		c-6.754,1.046-13.521,2.036-20.294,2.989c-1.772,0.257-3.179-0.36-3.423-2.341c-0.232-1.913,0.861-2.989,2.646-3.266
		C148.07,276.502,154.763,275.554,161.78,274.539z"/>
	<path fill="#FFFFFF" d="M358.418,362.137c-2.097-0.851-5.006-1.975-7.879-3.196c-5.653-2.402-11.26-4.878-16.906-7.286
		c-5.746-2.451-7.231-5.972-4.823-11.662c1.56-3.697,3.154-7.378,4.749-11.058c1.718-3.968,5.379-5.716,9.505-4.182
		c4.126,1.527,8.118,3.41,12.17,5.152c3.975,1.705,7.972,3.374,11.913,5.152c4.652,2.091,6.064,5.679,4.12,10.435
		c-1.632,4.011-3.331,7.995-5.092,11.949C364.886,360.353,362.611,361.954,358.418,362.137z M348.009,335.432
		c-1.729,3.985-3.288,7.573-5.049,11.639c4.762-0.422,8.937-0.789,13.545-1.198C353.583,342.29,350.942,339.038,348.009,335.432z"/>
	<path fill="#FFFFFF" d="M329.194,197.528c3.539,0.99,7.066,1.449,10.979-0.085c-2.689-1.876-4.805-3.895-4.774-7.415
		c0.819,0.135,1.541,0.245,2.659,0.428c-2.604-2.812-4.456-5.544-3.038-9.364c0.789,0.423,1.498,0.813,2.696,1.455
		c-1.901-4.053-2.085-7.506,1.479-10.702c2.343,6.448,7.078,10.22,13.26,12.891c0.866-3.57,2.787-6.015,6.196-6.98
		c3.137-0.886,6.162-0.33,8.18,2.188c1.698,2.127,3.509,2.634,5.929,2.146c0.27-0.049,0.563,0.042,1.425,0.135
		c-1.406,1.174-2.438,2.042-3.637,3.044c0.996,0.109,1.814,0.208,2.714,0.306c-0.086,0.238-0.11,0.581-0.232,0.617
		c-3.344,1.04-4.377,3.899-5.867,6.681c-7.226,13.559-24.354,16.876-36.033,7.194c-0.782-0.643-1.564-1.271-2.354-1.907
		C328.913,197.95,329.054,197.736,329.194,197.528z"/>
	<path fill="#FFFFFF" d="M230.912,135.059c-6.89,1.362-8.638,3.557-7.61,9.242c1.791,0,3.625,0,5.746,0
		c0.153,2.622,0.3,5.079,0.452,7.738c-1.369,0.099-2.451,0.27-3.526,0.221c-1.81-0.073-2.47,0.556-2.329,2.481
		c0.435,5.729,0.69,11.461,0.984,17.194c0.066,1.161,0.012,2.329,0.012,3.729c-2.958,0.165-5.819,0.33-9.016,0.507
		c-0.472-7.72-0.937-15.286-1.4-22.982c-2.15,0-4.156,0-6.394,0c-0.178-2.562-0.349-5.037-0.532-7.708
		c2.207-0.195,4.218-0.36,6.418-0.557c-0.214-5.672,0.128-11.051,4.963-14.864c3.466-2.739,7.585-1.933,11.822-2.384
		C230.649,130.285,230.778,132.663,230.912,135.059z"/>
</g>
</svg>
