<?xml version="1.0" encoding="utf-8"?>
<!-- Generator: Adobe Illustrator 16.0.0, SVG Export Plug-In . SVG Version: 6.00 Build 0)  -->
<!DOCTYPE svg PUBLIC "-//W3C//DTD SVG 1.1//EN" "http://www.w3.org/Graphics/SVG/1.1/DTD/svg11.dtd">
<svg version="1.1" id="Layer_1" xmlns="http://www.w3.org/2000/svg" xmlns:xlink="http://www.w3.org/1999/xlink" x="0px" y="0px"
	 width="512px" height="512px" viewBox="0 0 512 512" enable-background="new 0 0 512 512" xml:space="preserve">
<g>
	<g>
		
			<linearGradient id="SVGID_1_" gradientUnits="userSpaceOnUse" x1="75.3406" y1="402.6648" x2="391.4146" y2="86.5909" gradientTransform="matrix(1 0 0 -1 24.9448 503.3589)">
			<stop  offset="0" style="stop-color:#FFA300"/>
			<stop  offset="1" style="stop-color:#FF6400"/>
		</linearGradient>
		<path fill="url(#SVGID_1_)" d="M480.922,256.33c0,124.262-100.733,225-225,225c-124.268,0-225-100.738-225-225
			c0-124.267,100.732-225,225-225C380.189,31.33,480.922,132.063,480.922,256.33z"/>
		
			<linearGradient id="SVGID_2_" gradientUnits="userSpaceOnUse" x1="125.0305" y1="430.5339" x2="336.9235" y2="63.5246" gradientTransform="matrix(1 0 0 -1 24.9448 503.3589)">
			<stop  offset="0" style="stop-color:#FF6400"/>
			<stop  offset="1" style="stop-color:#FFA300"/>
		</linearGradient>
		<circle fill="url(#SVGID_2_)" cx="255.922" cy="256.33" r="211.858"/>
	</g>
</g>
<g opacity="0.4">
	<g>
		<path d="M246.038,304.912c-16.29,0.006-32.573-0.006-48.857-0.006c-14.811,0-29.627-0.025-44.438,0.006
			c-8.166,0.012-12.897-4.426-12.903-12.609c-0.055-31.521-0.012-63.045,0.006-94.566c0-3.887,0.062-3.814,3.912-3.808
			c23.57,0.023,47.14,0.012,70.703,0.012c0,0.012,0,0.031,0,0.043c20.685,0,41.363,0,62.048,0c3.154,0,6.32,0.134,9.468-0.02
			c2.164-0.104,2.818,0.66,2.807,2.781c-0.067,13.735-0.03,27.463-0.042,41.187c0,5.818-0.008,11.644-0.008,17.463
			c0.746-0.19,1.498-0.355,2.257-0.501c4.927-0.984,9.603-1.284,14.132-0.979c0.023-28.894,0.049-57.787,0.029-86.675
			c-0.012-14.272-10.636-26.1-24.89-27.366c-6.18-0.55-12.445-0.171-18.668-0.256c-2.053-0.023-2.022,1.32-2.017,2.738
			c0.006,6.058-0.036,12.108,0.019,18.154c0.079,8.361-6.229,15.129-14.353,15.287c-8.129,0.165-14.756-6.613-14.773-15.115
			c0-5.868,0.012-11.748,0.012-17.616c0-3.459-0.049-3.447-3.435-3.423c-9.572,0.042-19.139,0.122-28.71-0.013
			c-2.341-0.03-3.186,0.472-3.143,2.929c0.116,6.504,0.196,13.014-0.141,19.499c-0.416,8.142-7.268,14.138-15.202,13.722
			c-7.787-0.397-13.887-7.268-13.759-15.324c0.104-6.045-0.042-12.097,0.074-18.147c0.049-2.226-0.93-2.788-2.935-2.727
			c-4.328,0.122-8.66,0.073-12.988,0.171c-14.561,0.301-26.571,12.078-26.729,26.626c-0.196,18.777-0.08,37.562-0.092,56.346
			c-0.006,20.679-0.098,41.356,0.023,62.035c0.024,5.478-0.188,11.191,1.267,16.362c3.661,13.1,14.333,20.202,28.031,20.116
			c20.587-0.122,41.174-0.029,61.767-0.029c0-0.02,0-0.03,0-0.057c10.819,0,21.638,0.037,32.458,0.049
			c-0.349-1.681-0.624-3.397-0.807-5.14C245.738,312.247,245.72,308.524,246.038,304.912z"/>
		<path d="M180.329,169.393c4.736,0.042,8.429-3.588,8.446-8.319c0.02-4.878,0-9.749,0-14.615c0,0,0,0-0.006,0
			c0-4.786,0.024-9.565-0.006-14.346c-0.023-4.829-3.662-8.417-8.392-8.343c-4.371,0.061-7.886,3.729-7.893,8.307
			c-0.018,9.652-0.023,19.303-0.018,28.955C172.462,165.566,176.044,169.362,180.329,169.393z"/>
		<path d="M236.875,160.75c-0.006,4.884,3.489,8.601,8.129,8.644c4.597,0.049,8.179-3.724,8.172-8.588
			c-0.006-9.566,0.006-19.125,0.006-28.698c0-4.641-3.576-8.325-8.124-8.351c-4.536-0.023-8.136,3.606-8.167,8.302
			c-0.03,4.786-0.006,9.56-0.012,14.346C236.875,151.184,236.882,155.969,236.875,160.75z"/>
		<path d="M242.646,241.825c-0.018-0.691-1.148-1.925-1.791-1.938c-6.204-0.136-12.42-0.063-18.631-0.063
			c-1.644,0-2.164,0.856-2.151,2.39c0.044,4.774,0.067,9.542-0.019,14.315c-0.03,1.779,0.734,2.409,2.409,2.378
			c2.977-0.042,5.94-0.006,8.912-0.006c0,0,0,0.019,0,0.03c3.063,0,6.131-0.024,9.192,0.013c1.389,0.012,2.194-0.416,2.183-1.993
			C242.701,251.905,242.805,246.855,242.646,241.825z"/>
		<path d="M208.538,242.002c0.019-1.62-0.643-2.262-2.263-2.219c-2.971,0.073-5.946,0.019-8.924,0.019c0,0.023,0,0.043,0,0.066
			c-3.056,0-6.119,0.037-9.187-0.012c-1.725-0.031-2.396,0.69-2.377,2.427c0.066,4.688,0.091,9.371-0.006,14.059
			c-0.044,1.871,0.642,2.567,2.506,2.55c6.032-0.051,12.071-0.02,18.11,0.042c1.669,0.013,2.177-0.771,2.152-2.328
			C208.495,251.74,208.495,246.874,208.538,242.002z"/>
		<path d="M225.867,226.391c5.471,0.019,10.947,0,16.852,0c0-6.144,0.049-11.81-0.085-17.47c-0.012-0.557-1.187-1.541-1.833-1.559
			c-6.119-0.104-12.243,0-18.362-0.037c-1.717-0.012-2.426,0.624-2.396,2.372c0.061,3.6-0.006,7.207-0.014,10.807
			C220.017,226.354,220.023,226.367,225.867,226.391z"/>
		<path d="M206.637,207.4c-6.216-0.116-12.427-0.006-18.643-0.037c-1.657-0.006-2.214,0.678-2.194,2.268
			c0.055,4.865,0.067,9.731,0,14.604c-0.024,1.638,0.599,2.25,2.207,2.213c3.068-0.073,6.131-0.019,9.199-0.019
			c0-0.013,0-0.013,0-0.019c2.971,0,5.946-0.043,8.918,0.012c1.632,0.03,2.481-0.422,2.444-2.292
			c-0.104-4.957,0.024-9.915-0.134-14.864C208.416,208.598,207.272,207.412,206.637,207.4z"/>
		<path d="M274.302,258.958c1.913,0.063,2.77-0.53,2.721-2.604c-0.109-4.604-0.104-9.199,0.013-13.79
			c0.056-2.133-0.759-2.842-2.843-2.807c-5.679,0.086-11.352,0.08-17.028-0.012c-1.97-0.023-2.788,0.69-2.771,2.665
			c0.049,4.683,0.043,9.37-0.037,14.052c-0.029,1.926,0.862,2.531,2.642,2.488c2.879-0.079,5.764-0.023,8.654-0.019
			C268.532,258.934,271.417,258.867,274.302,258.958z"/>
		<path d="M153.929,258.909c5.948-0.085,11.901-0.073,17.854-0.012c1.705,0.012,2.481-0.532,2.45-2.329
			c-0.061-4.872-0.037-9.737,0-14.609c0.007-1.455-0.513-2.15-2.065-2.114c-3.075,0.079-6.144,0.023-9.206,0.029
			c-2.978,0.006-5.954,0.086-8.93-0.036c-1.841-0.066-2.593,0.495-2.556,2.445c0.11,4.682,0.092,9.376-0.006,14.071
			C151.436,258.188,151.998,258.94,153.929,258.909z"/>
		<path d="M256.582,226.41c3.063-0.043,6.125-0.012,9.188-0.012c2.972-0.006,5.941-0.049,8.918,0.018
			c1.503,0.037,2.341-0.299,2.322-2.071c-0.086-4.859-0.079-9.726,0.013-14.584c0.036-1.884-0.696-2.52-2.53-2.494
			c-5.851,0.073-11.699,0.08-17.556-0.006c-1.889-0.02-2.592,0.751-2.566,2.542c0.049,4.858,0.072,9.725,0.062,14.584
			C254.424,225.915,255.14,226.434,256.582,226.41z"/>
		<path d="M242.646,274.19c-0.012-0.611-1.082-1.711-1.687-1.725c-6.303-0.115-12.604-0.104-18.912,0.056
			c-0.667,0.013-1.854,1.198-1.871,1.865c-0.165,4.95-0.062,9.907-0.104,14.858c-0.012,1.638,0.729,2.262,2.299,2.249
			c3.062-0.043,6.125-0.013,9.187-0.013c0,0.013,0,0.024,0,0.031c2.971,0,5.947-0.02,8.912,0.018c1.369,0.019,2.28-0.33,2.273-1.931
			C242.719,284.46,242.786,279.325,242.646,274.19z"/>
		<path d="M171.729,272.442c-5.946,0.073-11.889,0.062-17.83-0.006c-1.711-0.02-2.438,0.524-2.407,2.315
			c0.079,4.774,0.092,9.542-0.007,14.321c-0.037,1.95,0.794,2.476,2.599,2.421c2.879-0.104,5.764-0.03,8.648-0.03
			c0-0.007,0-0.013,0-0.013c2.972,0,5.941-0.079,8.912,0.024c1.84,0.072,2.616-0.563,2.58-2.47
			c-0.066-4.683-0.061-9.371,0.03-14.047C174.29,273.078,173.593,272.418,171.729,272.442z"/>
		<path d="M206.282,272.424c-2.971,0.063-5.941,0.02-8.919,0.02c0,0.006,0,0.013,0,0.019c-2.971,0-5.94,0.067-8.911-0.029
			c-1.956-0.063-2.727,0.636-2.672,2.665c0.11,4.59,0.073,9.181,0.007,13.776c-0.031,1.791,0.531,2.628,2.463,2.616
			c6.033-0.056,12.06-0.031,18.099,0.03c1.669,0.019,2.194-0.739,2.182-2.299c-0.042-4.865-0.042-9.726,0.013-14.591
			C208.568,272.992,207.878,272.388,206.282,272.424z"/>
	</g>
	<g>
		<path d="M254.975,367.67c0-32.471,0-64.945,0-97.416c0.936-1.791,2.279-2.944,4.548-3.337c24.407-4.192,48.796-8.46,73.186-12.695
			c3.961-0.686,6.308,1.118,6.313,4.847c0.007,6.449,0,12.896,0,19.353c0,0.478,0,0.967,0,1.56c0.733,0,1.314,0,1.883,0
			c19.256,0,38.516,0.023,57.775-0.037c2.378-0.012,4.132,0.647,5.396,2.488c0,24.352,0,48.704,0,73.062
			c-1.382,1.884-3.275,2.494-5.722,2.482c-19.199-0.056-38.411-0.037-57.609-0.037c-0.563,0-1.118,0-1.725,0
			c0,0.764,0,1.302,0,1.846c0,6.498,0.024,12.989-0.006,19.48c-0.012,3.104-2.555,5.098-5.752,4.542
			c-24.34-4.229-48.673-8.479-73.02-12.653C257.792,370.731,255.977,369.809,254.975,367.67z M264.4,362.986
			c21.741,3.777,43.436,7.543,65.189,11.326c0-36.986,0-73.766,0-110.715c-21.773,3.782-43.46,7.562-65.189,11.333
			C264.4,304.325,264.4,333.622,264.4,362.986z M394.92,349.221c0-18.667,0-37.2,0-55.916c-0.563,0.396-0.99,0.672-1.406,0.972
			c-10.697,7.72-21.406,15.446-32.115,23.16c-2.714,1.956-4.267,2.023-7.146,0.324c-4.59-2.708-9.188-5.416-13.771-8.124
			c-0.428-0.25-0.868-0.465-1.345-0.729c0,13.553,0,26.92,0,40.313C357.773,349.221,376.282,349.221,394.92,349.221z
			 M339.021,288.701c0,2.965,0.057,5.795-0.023,8.619c-0.024,0.897,0.349,1.363,1.119,1.821c5.385,3.136,10.758,6.283,16.088,9.499
			c0.96,0.58,1.527,0.465,2.378-0.152c8.68-6.309,17.39-12.567,26.1-18.839c0.349-0.257,0.667-0.551,1.145-0.948
			C370.121,288.701,354.675,288.701,339.021,288.701z"/>
		<path d="M320.348,324.661c-0.245,6.712-2.843,13.833-9.377,19.37c-8.704,7.396-21.161,6.95-29.211-1.118
			c-7.354-7.378-9.396-16.186-7.402-25.854c1.32-6.399,4.608-11.854,10.33-15.808c8.789-6.076,20.049-5.05,27.556,2.396
			C317.523,308.885,320.365,315.805,320.348,324.661z M310.971,324.063c0-5.092-1.32-9.12-3.918-12.738
			c-5.043-7.029-15.024-7.048-20.092-0.043c-5.287,7.286-5.275,16.768,0.013,24.021c4.688,6.437,13.143,7.104,18.789,1.382
			C309.479,332.92,310.818,328.273,310.971,324.063z"/>
	</g>
</g>
<g>
	<g>
		<path fill="#FFFFFF" d="M256.038,294.912c-16.29,0.006-32.573-0.006-48.857-0.006c-14.811,0-29.627-0.025-44.438,0.006
			c-8.166,0.012-12.897-4.426-12.903-12.609c-0.055-31.521-0.012-63.045,0.006-94.566c0-3.887,0.062-3.814,3.912-3.808
			c23.57,0.023,47.14,0.012,70.703,0.012c0,0.012,0,0.031,0,0.043c20.685,0,41.363,0,62.048,0c3.154,0,6.32,0.134,9.468-0.02
			c2.164-0.104,2.818,0.66,2.807,2.781c-0.067,13.735-0.03,27.463-0.042,41.187c0,5.818-0.008,11.644-0.008,17.463
			c0.746-0.19,1.498-0.355,2.257-0.501c4.927-0.984,9.603-1.284,14.132-0.979c0.023-28.894,0.049-57.787,0.029-86.675
			c-0.012-14.272-10.636-26.1-24.89-27.366c-6.18-0.55-12.445-0.171-18.668-0.256c-2.053-0.023-2.022,1.32-2.017,2.738
			c0.006,6.058-0.036,12.108,0.019,18.154c0.079,8.361-6.229,15.129-14.353,15.287c-8.129,0.165-14.756-6.613-14.773-15.115
			c0-5.868,0.012-11.748,0.012-17.616c0-3.459-0.049-3.447-3.435-3.423c-9.572,0.042-19.139,0.122-28.71-0.013
			c-2.341-0.03-3.186,0.472-3.143,2.929c0.116,6.504,0.196,13.014-0.141,19.499c-0.416,8.142-7.268,14.138-15.202,13.722
			c-7.787-0.397-13.887-7.268-13.759-15.324c0.104-6.045-0.042-12.097,0.074-18.147c0.049-2.226-0.93-2.788-2.935-2.727
			c-4.328,0.122-8.66,0.073-12.988,0.171c-14.561,0.301-26.571,12.078-26.729,26.626c-0.196,18.777-0.08,37.562-0.092,56.346
			c-0.006,20.679-0.098,41.356,0.023,62.035c0.024,5.478-0.188,11.191,1.267,16.362c3.661,13.1,14.333,20.202,28.031,20.116
			c20.587-0.122,41.174-0.029,61.767-0.029c0-0.02,0-0.03,0-0.057c10.819,0,21.638,0.037,32.458,0.049
			c-0.349-1.681-0.624-3.397-0.807-5.14C255.738,302.247,255.72,298.524,256.038,294.912z"/>
		<path fill="#FFFFFF" d="M190.329,159.393c4.736,0.042,8.429-3.588,8.446-8.319c0.02-4.878,0-9.749,0-14.615c0,0,0,0-0.006,0
			c0-4.786,0.024-9.565-0.006-14.346c-0.023-4.829-3.662-8.417-8.392-8.343c-4.371,0.061-7.886,3.729-7.893,8.307
			c-0.018,9.652-0.023,19.303-0.018,28.955C182.462,155.566,186.044,159.362,190.329,159.393z"/>
		<path fill="#FFFFFF" d="M246.875,150.75c-0.006,4.884,3.489,8.601,8.129,8.644c4.597,0.049,8.179-3.724,8.172-8.588
			c-0.006-9.566,0.006-19.125,0.006-28.698c0-4.641-3.576-8.325-8.124-8.351c-4.536-0.023-8.136,3.606-8.167,8.302
			c-0.03,4.786-0.006,9.56-0.012,14.346C246.875,141.184,246.882,145.969,246.875,150.75z"/>
		<path fill="#FFFFFF" d="M252.646,231.825c-0.018-0.691-1.148-1.925-1.791-1.938c-6.204-0.136-12.42-0.063-18.631-0.063
			c-1.644,0-2.164,0.856-2.151,2.39c0.044,4.774,0.067,9.542-0.019,14.315c-0.03,1.779,0.734,2.409,2.409,2.378
			c2.977-0.042,5.94-0.006,8.912-0.006c0,0,0,0.019,0,0.03c3.063,0,6.131-0.024,9.192,0.013c1.389,0.012,2.194-0.416,2.183-1.993
			C252.701,241.905,252.805,236.855,252.646,231.825z"/>
		<path fill="#FFFFFF" d="M218.538,232.002c0.019-1.62-0.643-2.262-2.263-2.219c-2.971,0.073-5.946,0.019-8.924,0.019
			c0,0.023,0,0.043,0,0.066c-3.056,0-6.119,0.037-9.187-0.012c-1.725-0.031-2.396,0.69-2.377,2.427
			c0.066,4.688,0.091,9.371-0.006,14.059c-0.044,1.871,0.642,2.567,2.506,2.55c6.032-0.051,12.071-0.02,18.11,0.042
			c1.669,0.013,2.177-0.771,2.152-2.328C218.495,241.74,218.495,236.874,218.538,232.002z"/>
		<path fill="#FFFFFF" d="M235.867,216.391c5.471,0.019,10.947,0,16.852,0c0-6.144,0.049-11.81-0.085-17.47
			c-0.012-0.557-1.187-1.541-1.833-1.559c-6.119-0.104-12.243,0-18.362-0.037c-1.717-0.012-2.426,0.624-2.396,2.372
			c0.061,3.6-0.006,7.207-0.014,10.807C230.017,216.354,230.023,216.367,235.867,216.391z"/>
		<path fill="#FFFFFF" d="M216.637,197.4c-6.216-0.116-12.427-0.006-18.643-0.037c-1.657-0.006-2.214,0.678-2.194,2.268
			c0.055,4.865,0.067,9.731,0,14.604c-0.024,1.638,0.599,2.25,2.207,2.213c3.068-0.073,6.131-0.019,9.199-0.019
			c0-0.013,0-0.013,0-0.019c2.971,0,5.946-0.043,8.918,0.012c1.632,0.03,2.481-0.422,2.444-2.292
			c-0.104-4.957,0.024-9.915-0.134-14.864C218.416,198.598,217.272,197.412,216.637,197.4z"/>
		<path fill="#FFFFFF" d="M284.302,248.958c1.913,0.063,2.77-0.53,2.721-2.604c-0.109-4.604-0.104-9.199,0.013-13.79
			c0.056-2.133-0.759-2.842-2.843-2.807c-5.679,0.086-11.352,0.08-17.028-0.012c-1.97-0.023-2.788,0.69-2.771,2.665
			c0.049,4.683,0.043,9.37-0.037,14.052c-0.029,1.926,0.862,2.531,2.642,2.488c2.879-0.079,5.764-0.023,8.654-0.019
			C278.532,248.934,281.417,248.867,284.302,248.958z"/>
		<path fill="#FFFFFF" d="M163.929,248.909c5.948-0.085,11.901-0.073,17.854-0.012c1.705,0.012,2.481-0.532,2.45-2.329
			c-0.061-4.872-0.037-9.737,0-14.609c0.007-1.455-0.513-2.15-2.065-2.114c-3.075,0.079-6.144,0.023-9.206,0.029
			c-2.978,0.006-5.954,0.086-8.93-0.036c-1.841-0.066-2.593,0.495-2.556,2.445c0.11,4.682,0.092,9.376-0.006,14.071
			C161.436,248.188,161.998,248.94,163.929,248.909z"/>
		<path fill="#FFFFFF" d="M266.582,216.41c3.063-0.043,6.125-0.012,9.188-0.012c2.972-0.006,5.941-0.049,8.918,0.018
			c1.503,0.037,2.341-0.299,2.322-2.071c-0.086-4.859-0.079-9.726,0.013-14.584c0.036-1.884-0.696-2.52-2.53-2.494
			c-5.851,0.073-11.699,0.08-17.556-0.006c-1.889-0.02-2.592,0.751-2.566,2.542c0.049,4.858,0.072,9.725,0.062,14.584
			C264.424,215.915,265.14,216.434,266.582,216.41z"/>
		<path fill="#FFFFFF" d="M252.646,264.19c-0.012-0.611-1.082-1.711-1.687-1.725c-6.303-0.115-12.604-0.104-18.912,0.056
			c-0.667,0.013-1.854,1.198-1.871,1.865c-0.165,4.95-0.062,9.907-0.104,14.858c-0.012,1.638,0.729,2.262,2.299,2.249
			c3.062-0.043,6.125-0.013,9.187-0.013c0,0.013,0,0.024,0,0.031c2.971,0,5.947-0.02,8.912,0.018c1.369,0.019,2.28-0.33,2.273-1.931
			C252.719,274.46,252.786,269.325,252.646,264.19z"/>
		<path fill="#FFFFFF" d="M181.729,262.442c-5.946,0.073-11.889,0.062-17.83-0.006c-1.711-0.02-2.438,0.524-2.407,2.315
			c0.079,4.774,0.092,9.542-0.007,14.321c-0.037,1.95,0.794,2.476,2.599,2.421c2.879-0.104,5.764-0.03,8.648-0.03
			c0-0.007,0-0.013,0-0.013c2.972,0,5.941-0.079,8.912,0.024c1.84,0.072,2.616-0.563,2.58-2.47
			c-0.066-4.683-0.061-9.371,0.03-14.047C184.29,263.078,183.593,262.418,181.729,262.442z"/>
		<path fill="#FFFFFF" d="M216.282,262.424c-2.971,0.063-5.941,0.02-8.919,0.02c0,0.006,0,0.013,0,0.019
			c-2.971,0-5.94,0.067-8.911-0.029c-1.956-0.063-2.727,0.636-2.672,2.665c0.11,4.59,0.073,9.181,0.007,13.776
			c-0.031,1.791,0.531,2.628,2.463,2.616c6.033-0.056,12.06-0.031,18.099,0.03c1.669,0.019,2.194-0.739,2.182-2.299
			c-0.042-4.865-0.042-9.726,0.013-14.591C218.568,262.992,217.878,262.388,216.282,262.424z"/>
	</g>
	<g>
		<path fill="#FFFFFF" d="M264.975,357.67c0-32.471,0-64.945,0-97.416c0.936-1.791,2.279-2.944,4.548-3.337
			c24.407-4.192,48.796-8.46,73.186-12.695c3.961-0.686,6.308,1.118,6.313,4.847c0.007,6.449,0,12.896,0,19.353
			c0,0.478,0,0.967,0,1.56c0.733,0,1.314,0,1.883,0c19.256,0,38.516,0.023,57.775-0.037c2.378-0.012,4.132,0.647,5.396,2.488
			c0,24.352,0,48.704,0,73.062c-1.382,1.884-3.275,2.494-5.722,2.482c-19.199-0.056-38.411-0.037-57.609-0.037
			c-0.563,0-1.118,0-1.725,0c0,0.764,0,1.302,0,1.846c0,6.498,0.024,12.989-0.006,19.48c-0.012,3.104-2.555,5.098-5.752,4.542
			c-24.34-4.229-48.673-8.479-73.02-12.653C267.792,360.731,265.977,359.809,264.975,357.67z M274.4,352.986
			c21.741,3.777,43.436,7.543,65.189,11.326c0-36.986,0-73.766,0-110.715c-21.773,3.782-43.46,7.562-65.189,11.333
			C274.4,294.325,274.4,323.622,274.4,352.986z M404.92,339.221c0-18.667,0-37.2,0-55.916c-0.563,0.396-0.99,0.672-1.406,0.972
			c-10.697,7.72-21.406,15.446-32.115,23.16c-2.714,1.956-4.267,2.023-7.146,0.324c-4.59-2.708-9.188-5.416-13.771-8.124
			c-0.428-0.25-0.868-0.465-1.345-0.729c0,13.553,0,26.92,0,40.313C367.773,339.221,386.282,339.221,404.92,339.221z
			 M349.021,278.701c0,2.965,0.057,5.795-0.023,8.619c-0.024,0.897,0.349,1.363,1.119,1.821c5.385,3.136,10.758,6.283,16.088,9.499
			c0.96,0.58,1.527,0.465,2.378-0.152c8.68-6.309,17.39-12.567,26.1-18.839c0.349-0.257,0.667-0.551,1.145-0.948
			C380.121,278.701,364.675,278.701,349.021,278.701z"/>
		<path fill="#FFFFFF" d="M330.348,314.661c-0.245,6.712-2.843,13.833-9.377,19.37c-8.704,7.396-21.161,6.95-29.211-1.118
			c-7.354-7.378-9.396-16.186-7.402-25.854c1.32-6.399,4.608-11.854,10.33-15.808c8.789-6.076,20.049-5.05,27.556,2.396
			C327.523,298.885,330.365,305.805,330.348,314.661z M320.971,314.063c0-5.092-1.32-9.12-3.918-12.738
			c-5.043-7.029-15.024-7.048-20.092-0.043c-5.287,7.286-5.275,16.768,0.013,24.021c4.688,6.437,13.143,7.104,18.789,1.382
			C319.479,322.92,320.818,318.273,320.971,314.063z"/>
	</g>
</g>
</svg>
