<?xml version="1.0" encoding="utf-8"?>
<!-- Generator: Adobe Illustrator 16.0.0, SVG Export Plug-In . SVG Version: 6.00 Build 0)  -->
<!DOCTYPE svg PUBLIC "-//W3C//DTD SVG 1.1//EN" "http://www.w3.org/Graphics/SVG/1.1/DTD/svg11.dtd">
<svg version="1.1" id="Layer_1" xmlns="http://www.w3.org/2000/svg" xmlns:xlink="http://www.w3.org/1999/xlink" x="0px" y="0px"
	 width="512px" height="512px" viewBox="0 0 512 512" enable-background="new 0 0 512 512" xml:space="preserve">
<g>
	<g>
		
			<linearGradient id="SVGID_1_" gradientUnits="userSpaceOnUse" x1="76.2913" y1="403.4148" x2="392.3646" y2="87.3414" gradientTransform="matrix(1 0 0 -1 24.9448 503.3589)">
			<stop  offset="0" style="stop-color:#FF5901"/>
			<stop  offset="1" style="stop-color:#CE0000"/>
		</linearGradient>
		<path fill="url(#SVGID_1_)" d="M481.872,255.581c0,124.262-100.732,225-224.999,225c-124.268,0-225-100.738-225-225
			c0-124.264,100.732-225,225-225C381.14,30.581,481.872,131.317,481.872,255.581z"/>
		
			<linearGradient id="SVGID_2_" gradientUnits="userSpaceOnUse" x1="125.9812" y1="431.282" x2="337.8763" y2="64.2688" gradientTransform="matrix(1 0 0 -1 24.9448 503.3589)">
			<stop  offset="0" style="stop-color:#C30000"/>
			<stop  offset="1" style="stop-color:#FF6401"/>
		</linearGradient>
		<path fill="url(#SVGID_2_)" d="M468.731,255.581c0,117.012-94.854,211.864-211.857,211.864S45.015,372.593,45.015,255.581
			c0-117.005,94.854-211.857,211.858-211.857S468.731,138.576,468.731,255.581z"/>
	</g>
</g>
<g opacity="0.3">
	<path d="M313.688,207.629c-51.351,0-102.408,0-154.004,0c-0.287,2.592-0.752,4.902-0.764,7.22
		c-0.049,27.242,0.151,54.491-0.159,81.729c-0.08,6.693,2.011,8.777,8.716,8.698c27.543-0.324,55.099-0.471,82.623,0.171
		c5.281,0.129,12.146,2.732,15.36,6.614c7.14,8.612-0.013,20.825-12.104,21.155c-17.354,0.464-34.725,0.171-52.091,0.183
		c-17.958,0.013-35.929,0.135-53.887-0.061c-11.871-0.129-16.901-5.136-16.944-17.115c-0.134-40.122-0.134-80.238,0-120.354
		c0.037-11.846,5.232-17.272,16.933-17.298c59.571-0.134,119.155-0.134,178.729,0.012c10.917,0.024,15.979,5.08,16.614,15.819
		c0.348,5.959,0.359,11.993-0.123,17.939c-0.771,9.341-5.979,14.39-14.046,14.396c-7.629,0-12.738-4.812-14.175-13.398
		C314.08,211.614,313.951,209.86,313.688,207.629z"/>
	<path d="M328.945,262.531c-12.555,0.006-25.104,0.115-37.652-0.024c-11.277-0.122-17.921-5.733-17.714-14.597
		c0.194-8.605,6.576-13.985,17.315-14.034c25.1-0.122,50.202-0.122,75.3,0c10.637,0.049,17.066,5.532,17.214,14.096
		c0.141,8.558-6.356,14.357-16.821,14.512C354.043,262.678,341.488,262.531,328.945,262.531z"/>
	<path d="M328.615,269.554c12.837,0,25.68-0.146,38.516,0.043c10.079,0.146,16.155,5.581,16.265,13.984
		c0.1,8.223-6.124,14.268-16.014,14.364c-25.979,0.245-51.957,0.257-77.929-0.012c-9.92-0.099-16.095-6.267-15.861-14.548
		c0.232-8.447,6.223-13.645,16.503-13.79C302.931,269.414,315.779,269.554,328.615,269.554z"/>
	<path d="M328.432,305.165c12.873-0.006,25.746-0.158,38.619,0.049c10.158,0.165,16.295,5.618,16.344,13.969
		c0.049,8.386-6.088,14.07-16.167,14.132c-25.752,0.184-51.497,0.171-77.243,0.012c-10.28-0.066-16.319-5.524-16.382-13.967
		c-0.061-8.441,6.003-13.967,16.198-14.138C302.674,305,315.553,305.172,328.432,305.165z"/>
	<path d="M196.036,269.737c3.868,1.779,6.729,3.546,9.841,4.419c4.815,1.346,9.792,2.721,14.719,2.781
		c2.17,0.031,4.382-3.147,6.577-4.859c-1.675-2.114-2.921-5.122-5.11-6.143c-5.104-2.402-10.689-3.76-16.015-5.709
		c-8.215-3.009-13.912-8.172-14.156-17.593c-0.239-9.064,4.156-15.029,12.09-19.254c2.58-1.375,3.833-5.104,5.911-7.572
		c1.607-1.907,3.394-4.683,5.397-4.963c1.956-0.281,6.076,2.005,6.161,3.355c0.488,7.916,7.091,8.289,11.883,11.363
		c2.922,1.883,4.34,6.094,6.441,9.254c-3.361,1.406-6.797,4.126-10.049,3.918c-4.896-0.318-9.597-3.423-14.511-3.857
		c-2.451-0.214-5.196,2.873-7.8,4.462c1.767,2.348,3.044,5.686,5.396,6.833c5.056,2.471,10.678,3.741,16.021,5.648
		c8.397,2.995,13.723,8.722,13.753,17.891c0.031,9.254-4.657,15.558-13.221,19.512c-2.88,1.333-4.641,4.97-7.098,7.354
		c-1.979,1.92-4.291,4.97-6.351,4.89c-2.104-0.085-5.672-3.281-5.801-5.293c-0.33-5.422-3.582-6.645-7.678-8.221
		c-3.826-1.474-7.694-3.479-10.685-6.205c-1.479-1.345-1.933-5.151-1.174-7.235C191.329,272.482,194.202,271.235,196.036,269.737z"
		/>
</g>
<g>
	<path fill="#FFFFFF" d="M323.688,197.629c-51.351,0-102.408,0-154.004,0c-0.287,2.592-0.752,4.902-0.764,7.22
		c-0.049,27.242,0.151,54.491-0.159,81.729c-0.08,6.693,2.011,8.777,8.716,8.698c27.543-0.324,55.099-0.471,82.623,0.171
		c5.281,0.129,12.146,2.732,15.36,6.614c7.14,8.612-0.013,20.825-12.104,21.155c-17.354,0.464-34.725,0.171-52.091,0.183
		c-17.958,0.013-35.929,0.135-53.887-0.061c-11.871-0.129-16.901-5.136-16.944-17.115c-0.134-40.122-0.134-80.238,0-120.354
		c0.037-11.846,5.232-17.272,16.933-17.298c59.571-0.134,119.155-0.134,178.729,0.012c10.917,0.024,15.979,5.08,16.614,15.819
		c0.348,5.959,0.359,11.993-0.123,17.939c-0.771,9.341-5.979,14.39-14.046,14.396c-7.629,0-12.738-4.812-14.175-13.398
		C324.08,201.614,323.951,199.86,323.688,197.629z"/>
	<path fill="#FFFFFF" d="M338.945,252.531c-12.555,0.006-25.104,0.115-37.652-0.024c-11.277-0.122-17.921-5.733-17.714-14.597
		c0.194-8.605,6.576-13.985,17.315-14.034c25.1-0.122,50.202-0.122,75.3,0c10.637,0.049,17.066,5.532,17.214,14.096
		c0.141,8.558-6.356,14.357-16.821,14.512C364.043,252.678,351.488,252.531,338.945,252.531z"/>
	<path fill="#FFFFFF" d="M338.615,259.554c12.837,0,25.68-0.146,38.516,0.043c10.079,0.146,16.155,5.581,16.265,13.984
		c0.1,8.223-6.124,14.268-16.014,14.364c-25.979,0.245-51.957,0.257-77.929-0.012c-9.92-0.099-16.095-6.267-15.861-14.548
		c0.232-8.447,6.223-13.645,16.503-13.79C312.931,259.414,325.779,259.554,338.615,259.554z"/>
	<path fill="#FFFFFF" d="M338.432,295.165c12.873-0.006,25.746-0.158,38.619,0.049c10.158,0.165,16.295,5.618,16.344,13.969
		c0.049,8.386-6.088,14.07-16.167,14.132c-25.752,0.184-51.497,0.171-77.243,0.012c-10.28-0.066-16.319-5.524-16.382-13.967
		c-0.061-8.441,6.003-13.967,16.198-14.138C312.674,295,325.553,295.172,338.432,295.165z"/>
	<path fill="#FFFFFF" d="M206.036,259.737c3.868,1.779,6.729,3.546,9.841,4.419c4.815,1.346,9.792,2.721,14.719,2.781
		c2.17,0.031,4.382-3.147,6.577-4.859c-1.675-2.114-2.921-5.122-5.11-6.143c-5.104-2.402-10.689-3.76-16.015-5.709
		c-8.215-3.009-13.912-8.172-14.156-17.593c-0.239-9.064,4.156-15.029,12.09-19.254c2.58-1.375,3.833-5.104,5.911-7.572
		c1.607-1.907,3.394-4.683,5.397-4.963c1.956-0.281,6.076,2.005,6.161,3.355c0.488,7.916,7.091,8.289,11.883,11.363
		c2.922,1.883,4.34,6.094,6.441,9.254c-3.361,1.406-6.797,4.126-10.049,3.918c-4.896-0.318-9.597-3.423-14.511-3.857
		c-2.451-0.214-5.196,2.873-7.8,4.462c1.767,2.348,3.044,5.686,5.396,6.833c5.056,2.471,10.678,3.741,16.021,5.648
		c8.397,2.995,13.723,8.722,13.753,17.891c0.031,9.254-4.657,15.558-13.221,19.512c-2.88,1.333-4.641,4.97-7.098,7.354
		c-1.979,1.92-4.291,4.97-6.351,4.89c-2.104-0.085-5.672-3.281-5.801-5.293c-0.33-5.422-3.582-6.645-7.678-8.221
		c-3.826-1.474-7.694-3.479-10.685-6.205c-1.479-1.345-1.933-5.151-1.174-7.235C201.329,262.482,204.202,261.235,206.036,259.737z"
		/>
</g>
</svg>
