<?xml version="1.0" encoding="utf-8"?>
<!-- Generator: Adobe Illustrator 16.0.0, SVG Export Plug-In . SVG Version: 6.00 Build 0)  -->
<!DOCTYPE svg PUBLIC "-//W3C//DTD SVG 1.1//EN" "http://www.w3.org/Graphics/SVG/1.1/DTD/svg11.dtd">
<svg version="1.1" id="Layer_1" xmlns="http://www.w3.org/2000/svg" xmlns:xlink="http://www.w3.org/1999/xlink" x="0px" y="0px"
	 width="512px" height="512px" viewBox="0 0 512 512" enable-background="new 0 0 512 512" xml:space="preserve">
<g>
	<g>
		
			<linearGradient id="SVGID_1_" gradientUnits="userSpaceOnUse" x1="75.6985" y1="402.6697" x2="391.7719" y2="86.5963" gradientTransform="matrix(1 0 0 -1 24.9448 503.3589)">
			<stop  offset="0" style="stop-color:#0091FF"/>
			<stop  offset="0.505" style="stop-color:#0087FF"/>
			<stop  offset="1" style="stop-color:#4501EE"/>
		</linearGradient>
		<path fill="url(#SVGID_1_)" d="M481.279,256.326c0,124.258-100.732,225.003-225,225.003c-124.267,0-225-100.746-225-225.003
			c0-124.267,100.733-225,225-225C380.546,31.326,481.279,132.059,481.279,256.326z"/>
		
			<linearGradient id="SVGID_2_" gradientUnits="userSpaceOnUse" x1="125.3884" y1="430.5378" x2="337.2829" y2="63.526" gradientTransform="matrix(1 0 0 -1 24.9448 503.3589)">
			<stop  offset="0" style="stop-color:#0023FF"/>
			<stop  offset="1" style="stop-color:#007AFF"/>
		</linearGradient>
		<path fill="url(#SVGID_2_)" d="M468.138,256.326c0,117.008-94.854,211.862-211.858,211.862
			c-117.004,0-211.858-94.854-211.858-211.862c0-117.005,94.854-211.857,211.857-211.857
			C373.283,44.469,468.138,139.321,468.138,256.326z"/>
	</g>
</g>
<g opacity="0.6">
	<path d="M434.658,267.696c0,5.088-0.167,10.182,0.057,15.266c0.179,4.232-2.412,4.331-5.426,4.271
		c-2.97-0.073-6.063,0.506-5.994-4.214c0.167-10.172,0.178-20.341,0-30.516c-0.079-4.719,2.936-4.15,5.928-4.181
		c2.97-0.048,5.672-0.209,5.493,4.122C434.502,257.518,434.658,262.615,434.658,267.696z"/>
	<path d="M429.267,235.516c-11.657,15.667-27.33,24.816-46.893,27.339c-0.647,0.089-1.373,0.386-1.93,0.189
		c-1.419-0.5-2.735-1.217-4.099-1.847c1.206-0.719,2.356-1.932,3.617-2.065c18.992-1.979,34.287-10.437,45.775-25.71
		c0.28-0.36,0.38-0.856,0.559-1.292c-0.358-0.201-0.604-0.474-0.86-0.474c-2.075-0.062-4.152-0.079-6.229-0.098
		c1.742-1.259,3.306-3.008,5.236-3.682c8.373-2.841,8.418-2.727,9.568,5.975c0.022,0.163,0.1,0.332,0.078,0.483
		c-0.357,2.065-0.714,4.119-1.083,6.188C431.823,238.925,430.629,237.333,429.267,235.516z"/>
	<path d="M407.585,272.685c0-2.29,0-4.586,0-6.883c0.011-6.426,3.048-8.703,9.133-6.549c0.982,0.352,2.043,2.13,2.065,3.267
		c0.202,7.036,0.067,14.09,0.134,21.139c0.033,4.165-2.87,3.669-5.482,3.533c-2.59-0.13-5.984,0.932-5.872-3.683
		C407.64,279.9,407.573,276.296,407.585,272.685z"/>
	<path d="M403.119,276.505c-0.012,1.302-0.012,2.618-0.012,3.93c0,6.53-2.301,8.397-8.663,6.569
		c-1.105-0.325-2.423-2.186-2.501-3.411c-0.279-4.744-0.189-9.513-0.09-14.271c0.1-4.903,3.952-3.251,6.576-3.479
		c2.635-0.239,5.023,0.039,4.722,3.769C402.963,271.902,403.119,274.202,403.119,276.505z"/>
	<path d="M387.354,277.648c-0.011,0.986-0.011,1.962-0.011,2.948c0.022,6.33-2.579,8.341-8.798,6.388
		c-1.094-0.348-2.267-2.218-2.389-3.489c-0.336-3.401-0.336-6.867-0.034-10.274c0.156-1.707,1.016-4.554,2.01-4.771
		c2.579-0.551,5.426-0.089,8.105,0.358c0.524,0.09,0.982,1.912,1.071,2.967C387.478,273.723,387.354,275.687,387.354,277.648z"/>
</g>
<g opacity="0.6">
	<path d="M266.55,89.853c7.639,2.561,15.408,4.796,22.784,7.951c1.395,0.593,1.223,4.869,1.787,7.442
		c-2.104,0.083-4.635,0.971-6.237,0.134c-17.282-9.036-36.924-5.195-48.448,9.733c-11.09,14.403-10.167,35.39,2.129,48.261
		c13.545,14.164,33.325,16.125,49.602,4.906c14.836-10.218,19.65-30.345,11.493-47.542c-1.161-2.446-5.387-5.348-0.326-7.77
		c4.411-2.117,6.905,0.441,8.917,4.489c10.936,22.042,2.692,48.552-19.286,61.381c-20.417,11.914-48.394,5.196-61.589-14.791
		c-13.908-21.073-9.21-48.386,10.695-63.314C246.414,94.473,255.623,91.358,266.55,89.853z"/>
	<path d="M282.479,113.846c-3.111,3.662-4.906,6.884-10.757,5.023c-9.723-3.097-18.591,1.212-23.158,9.685
		c-4.396,8.146-3.003,17.193,3.63,23.822c5.92,5.92,16.329,7.414,23.318,3.334c8.9-5.204,12.831-13.794,9.489-23.805
		c-1.958-5.87,2.236-6.907,4.751-9.679c9.55,9.458,5.495,28.083-1.95,35.609c-11.375,11.516-28.619,12.747-40.7,2.5
		c-11.571-9.797-13.566-26.537-4.698-39.416C251.073,108.346,267.836,105.127,282.479,113.846z"/>
	<path d="M264.044,139.187c0.96-1.864,1.561-4.09,2.955-5.545c5.463-5.738,11.346-11.099,16.755-16.879
		c4.668-4.988,10.41-8.87,11.525-16.918c0.557-3.956,5.463-7.309,9.256-11.977c1.617,6.528,1.872,13.339,11.578,9.79
		c-0.061,0.948-0.116,1.908-0.179,2.857c-4.807,3.13-9.542,6.345-14.419,9.363c-2.568,1.599-5.805,2.4-7.939,4.401
		c-7.764,7.281-15.155,14.958-22.77,22.399c-1.484,1.466-3.327,2.577-5.007,3.854C265.204,140.085,264.63,139.636,264.044,139.187z"
		/>
	<path d="M270.636,129.441c-2.554,1.505-5.719,2.5-7.468,4.65c-1.284,1.595-0.718,4.683-0.981,7.109
		c2.646,0.043,5.618,0.841,7.839-0.104c2.477-1.071,4.258-3.73,6.951-6.288c1.88,6.08-0.125,9.979-4.221,12.89
		c-4.611,3.277-9.557,3.05-13.868-0.479c-4.226-3.467-5.797-8.196-3.639-13.444c2.338-5.668,6.728-8.238,12.817-7.39
		C268.925,127.4,269.785,128.423,270.636,129.441z"/>
</g>
<g opacity="0.6">
	<path d="M114.155,263.563c-2.016,9.295-1.022,10.774,6.733,14.118c5.203,2.244,10.238,4.974,15.117,7.868
		c1.228,0.731,1.575,2.952,2.328,4.495c-1.557,0.613-3.115,1.78-4.672,1.785c-19.349,0.134-38.708,0.129-58.062,0.021
		c-1.602-0.021-3.198-1.066-4.794-1.636c0.787-1.662,1.117-4.063,2.439-4.862c4.711-2.832,9.551-5.713,14.721-7.489
		c7.636-2.622,9.88-7.3,5.671-15.438c-4.444-8.588-4.984-18.273-2.083-27.668c1.586-5.157,7.586-7.96,14.196-7.523
		c6.437,0.417,11.109,3.617,12.327,9.411c0.899,4.271,1.25,8.787,0.949,13.143c-0.491,6.979-5.136,9.986-12.219,9.139
		c-1.591-0.196-3.924,0.596-4.873,1.77c-0.725,0.904-0.392,3.908,0.525,4.601c1.194,0.887,3.46,0.769,5.173,0.49
		C109.622,265.449,111.515,264.5,114.155,263.563z"/>
	<path d="M127.464,247.908c-0.849,9.571-8.062,11.077-13.253,14.36c-2.254,1.439-5.168,1.942-7.859,2.524
		c-1.055,0.229-2.456-0.291-3.406-0.917c-0.391-0.257-0.385-2.11,0.067-2.478c0.848-0.705,2.245-1.353,3.238-1.172
		c8.105,1.573,14.156-3.01,14.453-11.021c0.095-2.603,0.692-5.182,0.676-7.772c-0.067-9.39-8.44-17.01-17.83-16.389
		c-9.69,0.643-16.702,8.731-15.82,18.278c0.29,3.091,0.793,6.184,0.815,9.265c0.011,1.194-0.988,3.395-1.552,3.407
		c-1.384,0.017-3.796-0.76-3.985-1.608c-0.636-2.914-0.927-6.064-0.547-9c0.335-2.568,1.987-4.934,2.651-7.502
		c1.977-7.636,6.648-12.706,14.14-14.938c7.872-2.356,15.34-0.38,19.817,6.097C123.143,234.925,125.074,242.304,127.464,247.908z"/>
</g>
<g opacity="0.6">
	<path d="M210.71,419.393c0-2.39,0.333-4.861-0.118-7.168c-0.302-1.595-1.487-4.061-2.623-4.288
		c-6.51-1.268-7.086-5.705-7.001-11.053c0.147-9.558,0.147-19.125,0.008-28.698c-0.092-6.776,2.923-9.816,9.782-9.741
		c16.208,0.142,32.383-0.075,48.575,0.009c7.938,0.05,10.277,2.322,10.377,9.948c0.133,9.816,0.149,19.628,0,29.451
		c-0.1,7.819-2.255,9.844-10.259,9.942c-7.604,0.083-15.257,0.542-22.811-0.117c-8.07-0.711-14.237,1.671-19.116,8.046
		c-1.387,1.798-3.258,3.201-4.896,4.806C211.979,420.145,211.344,419.761,210.71,419.393z"/>
	<path d="M295.143,388.716c0,4.411,0,7.987,0,13.458c-4.046-3.685-6.834-6.198-9.606-8.762c-1.624-1.506-3.192-4.413-4.73-4.378
		c-8.906,0.149-7.001-6.065-7.117-11.146c-0.069-2.951-0.018-5.897,0-8.824c0.05-11.511-3.143-14.67-14.905-14.686
		c-6.132-0.018-12.268-0.018-18.38-0.018c-3.508,0-7.019,0.353-6.968-4.987c0.032-4.771,0.433-9.182,6.266-9.883
		c4.11-0.483,8.306-0.252,12.482-0.252c14.471-0.007,28.958,0.134,43.445-0.066c6.834-0.085,9.875,2.79,9.726,9.691
		c-0.218,9.558-0.268,19.132,0.016,28.689C305.569,384.271,303.565,388.622,295.143,388.716z"/>
</g>
<g opacity="0.6">
	<path d="M211.063,251.201h-23.187v-15.518c0-4.505-0.253-7.318-0.75-8.438c-0.504-1.113-1.591-1.674-3.286-1.674
		c-1.909,0-3.114,0.679-3.639,2.04c-0.515,1.357-0.767,4.306-0.767,8.823v41.432c0,4.361,0.252,7.169,0.767,8.496
		c0.524,1.329,1.675,1.983,3.482,1.983c1.721,0,2.854-0.654,3.368-1.992c0.542-1.318,0.824-4.427,0.824-9.34v-11.209h23.187v3.472
		c0,9.245-0.656,15.778-1.946,19.671c-1.309,3.854-4.191,7.242-8.646,10.152c-4.481,2.892-9.975,4.351-16.525,4.351
		c-6.793,0-12.397-1.235-16.805-3.687c-4.399-2.469-7.328-5.876-8.76-10.237c-1.439-4.341-2.151-10.891-2.151-19.631v-26.071
		c0-6.433,0.223-11.26,0.664-14.476c0.44-3.214,1.75-6.313,3.94-9.286c2.188-2.977,5.222-5.321,9.093-7.022
		c3.874-1.713,8.329-2.57,13.364-2.57c6.831,0,12.473,1.32,16.918,3.963c4.455,2.639,7.374,5.928,8.768,9.881
		c1.395,3.944,2.087,10.073,2.087,18.425L211.063,251.201L211.063,251.201z"/>
	<path d="M219.391,212.349h16.421c10.959,0,18.37,0.411,22.245,1.263c3.873,0.842,7.037,3.004,9.469,6.475
		c2.453,3.473,3.669,9.01,3.669,16.616c0,6.937-0.862,11.608-2.593,13.998c-1.73,2.393-5.118,3.832-10.191,4.301
		c4.587,1.146,7.676,2.681,9.267,4.573c1.571,1.914,2.563,3.662,2.948,5.264c0.382,1.591,0.571,5.999,0.571,13.214v23.524h-21.543
		v-29.653c0-4.782-0.376-7.734-1.144-8.876c-0.757-1.132-2.722-1.701-5.924-1.701v40.23h-23.195V212.349z M242.586,227.61v19.834
		c2.612,0,4.436-0.354,5.492-1.058c1.05-0.715,1.573-3.055,1.573-6.99v-4.895c0-2.839-0.515-4.688-1.516-5.563
		C247.115,228.051,245.273,227.61,242.586,227.61z"/>
	<path d="M351.781,212.349v89.229h-20.286l-0.035-60.239l-8.069,60.239h-14.382l-8.524-58.864l-0.02,58.864h-20.287v-89.229h30.038
		c0.879,5.358,1.797,11.677,2.741,18.967l3.303,22.692l5.325-41.66H351.781z"/>
</g>
<g>
	<path fill="#FFFFFF" d="M443.658,259.696c0,5.088-0.167,10.182,0.057,15.266c0.179,4.232-2.412,4.331-5.426,4.271
		c-2.97-0.073-6.063,0.506-5.994-4.214c0.167-10.172,0.178-20.341,0-30.516c-0.079-4.719,2.936-4.15,5.928-4.181
		c2.97-0.048,5.672-0.209,5.493,4.122C443.502,249.518,443.658,254.615,443.658,259.696z"/>
	<path fill="#FFFFFF" d="M438.267,227.516c-11.657,15.667-27.33,24.816-46.893,27.339c-0.647,0.089-1.373,0.386-1.93,0.189
		c-1.419-0.5-2.735-1.217-4.099-1.847c1.206-0.719,2.356-1.932,3.617-2.065c18.992-1.979,34.287-10.437,45.775-25.71
		c0.28-0.36,0.38-0.856,0.559-1.292c-0.358-0.201-0.604-0.474-0.86-0.474c-2.075-0.062-4.152-0.079-6.229-0.098
		c1.742-1.259,3.306-3.008,5.236-3.682c8.373-2.841,8.418-2.727,9.568,5.975c0.022,0.163,0.1,0.332,0.078,0.483
		c-0.357,2.065-0.714,4.119-1.083,6.188C440.823,230.925,439.629,229.333,438.267,227.516z"/>
	<path fill="#FFFFFF" d="M416.585,264.685c0-2.29,0-4.586,0-6.883c0.011-6.426,3.048-8.703,9.133-6.549
		c0.982,0.352,2.043,2.13,2.065,3.267c0.202,7.036,0.067,14.09,0.134,21.139c0.033,4.165-2.87,3.669-5.482,3.533
		c-2.59-0.13-5.984,0.932-5.872-3.683C416.64,271.9,416.573,268.296,416.585,264.685z"/>
	<path fill="#FFFFFF" d="M412.119,268.505c-0.012,1.302-0.012,2.618-0.012,3.93c0,6.53-2.301,8.397-8.663,6.569
		c-1.105-0.325-2.423-2.186-2.501-3.411c-0.279-4.744-0.189-9.513-0.09-14.271c0.1-4.903,3.952-3.251,6.576-3.479
		c2.635-0.239,5.023,0.039,4.722,3.769C411.963,263.902,412.119,266.202,412.119,268.505z"/>
	<path fill="#FFFFFF" d="M396.354,269.648c-0.011,0.986-0.011,1.962-0.011,2.948c0.022,6.33-2.579,8.341-8.798,6.388
		c-1.094-0.348-2.267-2.218-2.389-3.489c-0.336-3.401-0.336-6.867-0.034-10.274c0.156-1.707,1.016-4.554,2.01-4.771
		c2.579-0.551,5.426-0.089,8.105,0.358c0.524,0.09,0.982,1.912,1.071,2.967C396.478,265.723,396.354,267.687,396.354,269.648z"/>
</g>
<g>
	<path fill="#FFFFFF" d="M275.55,81.853c7.639,2.561,15.408,4.796,22.784,7.951c1.395,0.593,1.223,4.869,1.787,7.442
		c-2.104,0.083-4.635,0.971-6.237,0.134c-17.282-9.036-36.925-5.195-48.448,9.733c-11.09,14.403-10.167,35.39,2.129,48.261
		c13.545,14.164,33.325,16.125,49.602,4.906c14.836-10.218,19.65-30.345,11.493-47.542c-1.161-2.446-5.387-5.348-0.326-7.77
		c4.411-2.117,6.905,0.441,8.917,4.489c10.936,22.042,2.692,48.552-19.286,61.381c-20.417,11.914-48.394,5.196-61.589-14.791
		c-13.908-21.073-9.21-48.386,10.695-63.314C255.414,86.473,264.623,83.358,275.55,81.853z"/>
	<path fill="#FFFFFF" d="M291.479,105.846c-3.111,3.662-4.906,6.884-10.757,5.023c-9.723-3.097-18.591,1.212-23.157,9.685
		c-4.396,8.146-3.004,17.193,3.63,23.822c5.92,5.92,16.329,7.414,23.318,3.334c8.9-5.204,12.831-13.794,9.489-23.805
		c-1.958-5.87,2.236-6.907,4.751-9.679c9.55,9.458,5.495,28.083-1.95,35.609c-11.375,11.516-28.619,12.747-40.7,2.5
		c-11.571-9.797-13.566-26.537-4.698-39.416C260.073,100.346,276.836,97.127,291.479,105.846z"/>
	<path fill="#FFFFFF" d="M273.044,131.187c0.96-1.864,1.561-4.09,2.955-5.545c5.463-5.738,11.346-11.099,16.755-16.879
		c4.668-4.988,10.41-8.87,11.525-16.918c0.557-3.956,5.463-7.309,9.256-11.977c1.617,6.528,1.872,13.339,11.578,9.79
		c-0.061,0.948-0.116,1.908-0.179,2.857c-4.807,3.13-9.542,6.345-14.419,9.363c-2.568,1.599-5.805,2.4-7.939,4.401
		c-7.764,7.281-15.155,14.958-22.77,22.399c-1.484,1.466-3.327,2.577-5.007,3.854C274.204,132.085,273.63,131.636,273.044,131.187z"
		/>
	<path fill="#FFFFFF" d="M279.636,121.441c-2.554,1.505-5.719,2.5-7.468,4.65c-1.284,1.595-0.718,4.683-0.981,7.109
		c2.646,0.043,5.618,0.841,7.839-0.104c2.477-1.071,4.258-3.73,6.951-6.288c1.88,6.08-0.125,9.979-4.221,12.89
		c-4.611,3.277-9.557,3.05-13.868-0.479c-4.226-3.467-5.797-8.196-3.639-13.444c2.338-5.668,6.728-8.238,12.817-7.39
		C277.925,119.4,278.785,120.423,279.636,121.441z"/>
</g>
<g>
	<path fill="#FFFFFF" d="M123.155,255.563c-2.016,9.295-1.022,10.774,6.733,14.118c5.203,2.244,10.238,4.974,15.117,7.868
		c1.228,0.731,1.575,2.952,2.328,4.495c-1.557,0.613-3.115,1.78-4.672,1.785c-19.349,0.134-38.708,0.129-58.062,0.021
		c-1.602-0.021-3.198-1.066-4.794-1.636c0.787-1.662,1.117-4.063,2.439-4.862c4.711-2.832,9.551-5.713,14.721-7.489
		c7.636-2.622,9.88-7.3,5.671-15.438c-4.444-8.588-4.984-18.273-2.083-27.668c1.586-5.157,7.586-7.96,14.196-7.523
		c6.437,0.417,11.109,3.617,12.327,9.411c0.899,4.271,1.25,8.787,0.949,13.143c-0.491,6.979-5.136,9.986-12.219,9.139
		c-1.591-0.196-3.924,0.596-4.873,1.77c-0.725,0.904-0.392,3.908,0.525,4.601c1.194,0.887,3.46,0.769,5.173,0.49
		C118.622,257.449,120.515,256.5,123.155,255.563z"/>
	<path fill="#FFFFFF" d="M136.464,239.908c-0.849,9.571-8.062,11.077-13.253,14.36c-2.254,1.439-5.168,1.942-7.859,2.524
		c-1.055,0.229-2.456-0.291-3.406-0.917c-0.391-0.257-0.385-2.11,0.067-2.478c0.848-0.705,2.245-1.353,3.238-1.172
		c8.105,1.573,14.156-3.01,14.453-11.021c0.095-2.603,0.692-5.182,0.676-7.772c-0.067-9.39-8.44-17.01-17.83-16.389
		c-9.69,0.643-16.702,8.731-15.82,18.278c0.29,3.091,0.793,6.184,0.815,9.265c0.011,1.194-0.988,3.395-1.552,3.407
		c-1.384,0.017-3.796-0.76-3.985-1.608c-0.636-2.914-0.927-6.064-0.547-9c0.335-2.568,1.987-4.934,2.651-7.502
		c1.977-7.636,6.648-12.706,14.14-14.938c7.872-2.356,15.34-0.38,19.817,6.097C132.143,226.925,134.074,234.304,136.464,239.908z"/>
</g>
<g>
	<path fill="#FFFFFF" d="M219.71,411.393c0-2.39,0.333-4.861-0.118-7.168c-0.302-1.595-1.487-4.061-2.623-4.288
		c-6.51-1.268-7.086-5.705-7.001-11.053c0.147-9.558,0.147-19.125,0.008-28.698c-0.092-6.776,2.923-9.816,9.782-9.741
		c16.208,0.142,32.383-0.075,48.575,0.009c7.938,0.05,10.277,2.322,10.377,9.948c0.133,9.816,0.149,19.628,0,29.451
		c-0.1,7.819-2.255,9.844-10.259,9.942c-7.604,0.083-15.257,0.542-22.811-0.117c-8.07-0.711-14.237,1.671-19.116,8.046
		c-1.387,1.798-3.258,3.201-4.896,4.806C220.979,412.145,220.344,411.761,219.71,411.393z"/>
	<path fill="#FFFFFF" d="M304.143,380.716c0,4.411,0,7.987,0,13.458c-4.046-3.685-6.834-6.198-9.606-8.762
		c-1.624-1.506-3.192-4.413-4.73-4.378c-8.906,0.149-7.001-6.065-7.117-11.146c-0.069-2.951-0.018-5.897,0-8.824
		c0.05-11.511-3.143-14.67-14.905-14.686c-6.132-0.018-12.268-0.018-18.38-0.018c-3.508,0-7.019,0.353-6.968-4.987
		c0.032-4.771,0.433-9.182,6.266-9.883c4.11-0.483,8.306-0.252,12.482-0.252c14.471-0.007,28.958,0.134,43.445-0.066
		c6.834-0.085,9.875,2.79,9.726,9.691c-0.218,9.558-0.268,19.132,0.016,28.689C314.569,376.271,312.565,380.622,304.143,380.716z"/>
</g>
<g>
	<path fill="#FFFFFF" d="M220.063,243.201h-23.187v-15.518c0-4.505-0.253-7.318-0.75-8.438c-0.504-1.113-1.591-1.674-3.286-1.674
		c-1.909,0-3.114,0.679-3.639,2.04c-0.515,1.357-0.767,4.306-0.767,8.823v41.432c0,4.361,0.252,7.169,0.767,8.496
		c0.524,1.329,1.675,1.983,3.482,1.983c1.721,0,2.854-0.654,3.368-1.992c0.542-1.318,0.824-4.427,0.824-9.34v-11.209h23.187v3.472
		c0,9.245-0.656,15.778-1.946,19.671c-1.309,3.854-4.191,7.242-8.646,10.152c-4.481,2.892-9.975,4.351-16.525,4.351
		c-6.793,0-12.397-1.235-16.805-3.687c-4.399-2.469-7.328-5.876-8.76-10.237c-1.439-4.341-2.151-10.891-2.151-19.631v-26.071
		c0-6.433,0.223-11.26,0.664-14.476c0.44-3.214,1.75-6.313,3.94-9.286c2.188-2.977,5.222-5.321,9.093-7.022
		c3.874-1.713,8.329-2.57,13.364-2.57c6.831,0,12.473,1.32,16.918,3.963c4.455,2.639,7.374,5.928,8.768,9.881
		c1.395,3.944,2.087,10.073,2.087,18.425L220.063,243.201L220.063,243.201z"/>
	<path fill="#FFFFFF" d="M228.391,204.349h16.421c10.96,0,18.37,0.411,22.245,1.263c3.873,0.842,7.037,3.004,9.469,6.475
		c2.453,3.473,3.669,9.01,3.669,16.616c0,6.937-0.862,11.608-2.593,13.998c-1.73,2.393-5.118,3.832-10.191,4.301
		c4.587,1.146,7.676,2.681,9.267,4.573c1.571,1.914,2.563,3.662,2.948,5.264c0.382,1.591,0.571,5.999,0.571,13.214v23.524h-21.543
		v-29.653c0-4.782-0.376-7.734-1.144-8.876c-0.757-1.132-2.722-1.701-5.924-1.701v40.23h-23.195V204.349z M251.586,219.61v19.834
		c2.611,0,4.436-0.354,5.492-1.058c1.05-0.715,1.573-3.055,1.573-6.99v-4.895c0-2.839-0.515-4.688-1.517-5.563
		C256.115,220.051,254.273,219.61,251.586,219.61z"/>
	<path fill="#FFFFFF" d="M360.781,204.349v89.229h-20.286l-0.035-60.239l-8.069,60.239h-14.382l-8.524-58.864l-0.02,58.864h-20.287
		v-89.229h30.038c0.879,5.358,1.797,11.677,2.741,18.967l3.303,22.692l5.325-41.66H360.781z"/>
</g>
</svg>
