<?xml version="1.0" encoding="utf-8"?>
<!-- Generator: Adobe Illustrator 16.0.0, SVG Export Plug-In . SVG Version: 6.00 Build 0)  -->
<!DOCTYPE svg PUBLIC "-//W3C//DTD SVG 1.1//EN" "http://www.w3.org/Graphics/SVG/1.1/DTD/svg11.dtd">
<svg version="1.1" id="Layer_1" xmlns="http://www.w3.org/2000/svg" xmlns:xlink="http://www.w3.org/1999/xlink" x="0px" y="0px"
	 width="512px" height="512px" viewBox="0 0 512 512" enable-background="new 0 0 512 512" xml:space="preserve">
<g>
	<g>
		<linearGradient id="SVGID_1_" gradientUnits="userSpaceOnUse" x1="100.46" y1="100.6934" x2="416.5338" y2="416.7672">
			<stop  offset="0" style="stop-color:#0091FF"/>
			<stop  offset="0.505" style="stop-color:#0087FF"/>
			<stop  offset="1" style="stop-color:#4501EE"/>
		</linearGradient>
		<circle fill="url(#SVGID_1_)" cx="256.096" cy="256.328" r="225"/>
		<linearGradient id="SVGID_2_" gradientUnits="userSpaceOnUse" x1="150.1494" y1="72.8232" x2="362.043" y2="439.8336">
			<stop  offset="0" style="stop-color:#0023FF"/>
			<stop  offset="1" style="stop-color:#007AFF"/>
		</linearGradient>
		<circle fill="url(#SVGID_2_)" cx="256.096" cy="256.328" r="211.858"/>
	</g>
</g>
<g>
	<path fill-rule="evenodd" clip-rule="evenodd" fill="#FFFFFF" d="M235.057,120.396c14.438,11.913,28.252,23.322,42.348,34.957
		c-14.096,11.706-27.874,23.148-42.213,35.052c0-5.755,0-10.73,0-16.36c-24.877,6.259-43.521,20.009-55.624,42.091
		c-12.115,22.121-13.741,45.352-5.403,69.825c-8.851-3.264-17.225-6.356-26.039-9.608c-1.809,10.696-3.582,21.149-5.44,32.188
		c-0.611-0.966-1.039-1.467-1.271-2.042c-17.91-43.558-13.533-84.877,13.924-123.041c18.838-26.188,45.024-41.681,76.748-47.622
		c2.457-0.464,3.166-1.342,3.032-3.734C234.91,128.51,235.057,124.895,235.057,120.396z"/>
	<path fill-rule="evenodd" clip-rule="evenodd" fill="#FFFFFF" d="M330.216,327.862c-3.105-18.063-6.138-35.703-9.291-54.064
		c5.012,2.836,9.352,5.293,14.156,8.02c7.017-24.536,4.304-47.577-8.655-69.129c-13.044-21.668-32.678-34.266-57.763-39.578
		c7.237-6.051,14.107-11.779,21.283-17.781c-8.374-6.938-16.552-13.707-24.719-20.477c0.073-0.229,0.135-0.453,0.208-0.679
		c4.768,0.786,9.609,1.314,14.315,2.402c38.105,8.814,66.65,30.394,84.218,65.345c15.721,31.305,17.311,63.906,5.525,96.999
		c-0.636,1.76-0.514,2.604,1.223,3.509c3.484,1.821,6.821,3.924,10.807,6.24C364.177,315.16,347.44,321.414,330.216,327.862z"/>
	<path fill-rule="evenodd" clip-rule="evenodd" fill="#FFFFFF" d="M354.188,328.382c-24.107,32.103-56.124,50.037-96.479,51.296
		c-40.391,1.259-73.435-14.908-99.743-45.538c-4.059,2.305-8.069,4.585-12.628,7.176c3.056-18.276,5.99-35.892,9.034-54.089
		c17.139,6.351,33.985,12.586,51.418,19.04c-4.927,2.897-9.291,5.465-13.68,8.038c25.733,31.352,87.481,42.391,127.018-2.879
		c1.626,9.267,3.202,18.179,4.804,27.359c10.196-3.814,19.988-7.481,29.768-11.137C353.858,327.893,354.029,328.138,354.188,328.382
		z"/>
	<path fill-rule="evenodd" clip-rule="evenodd" fill="#FFFFFF" d="M234.971,273.296c0.085,0,0.183,0,0.269,0
		c7.273-0.024,7.311-0.024,9.021,6.871c0.648,2.641,2.054,4.688,4.462,5.929c4.951,2.555,10.085,2.665,15.049,0.281
		c5.464-2.628,6.503-11.051,1.564-14.682c-3.325-2.445-7.433-3.857-11.235-5.66c-4.915-2.336-10.134-4.157-14.755-6.978
		c-9.254-5.642-11.883-14.518-10.306-24.747c1.553-10.168,7.971-16.259,17.567-19.028c2.567-0.74,3.753-1.583,3.374-4.374
		c-0.257-2.078-0.049-4.224-0.012-6.338c0.037-1.925,1.088-2.974,2.958-3.007c3.276-0.061,6.54-0.055,9.792,0.003
		c1.932,0.031,2.897,1.152,2.934,3.038c0.037,2.649,0.099,5.296,0,7.943c-0.061,1.507,0.489,2.127,1.944,2.546
		c11.442,3.325,17.873,11.507,18.447,23.294c0.184,3.649-1.027,4.997-4.719,5.083c-2.91,0.067-5.831,0.067-8.741,0
		c-2.958-0.067-4.267-1.333-4.646-4.31c-1.075-8.27-7.885-12.268-15.685-9.208c-5.819,2.28-7.396,11.7-2.249,15.388
		c3.228,2.323,7.14,3.741,10.782,5.452c4.938,2.308,10.184,4.086,14.841,6.84c9.731,5.749,12.445,14.905,10.746,25.535
		c-1.59,10.012-8.179,15.752-17.519,18.393c-2.726,0.77-3.558,1.883-3.276,4.505c0.208,1.913,0.049,3.881,0.024,5.819
		c-0.024,2.035-1.088,3.123-3.117,3.147c-3.166,0.037-6.345,0.049-9.523-0.013c-2.03-0.049-3.02-1.197-3.02-3.233
		c0.013-1.938-0.134-3.894,0.025-5.825c0.183-2.2-0.416-3.202-2.836-3.661c-6.87-1.29-12.775-4.505-17.054-10.214
		c-3.19-4.267-4.303-9.242-4.425-14.438c-0.074-2.72,1.54-4.199,4.291-4.328c1.675-0.073,3.35-0.012,5.025-0.012V273.296z"/>
</g>
</svg>
