<?xml version="1.0" encoding="utf-8"?>
<!-- Generator: Adobe Illustrator 16.0.0, SVG Export Plug-In . SVG Version: 6.00 Build 0)  -->
<!DOCTYPE svg PUBLIC "-//W3C//DTD SVG 1.1//EN" "http://www.w3.org/Graphics/SVG/1.1/DTD/svg11.dtd">
<svg version="1.1" id="Layer_1" xmlns="http://www.w3.org/2000/svg" xmlns:xlink="http://www.w3.org/1999/xlink" x="0px" y="0px"
	 width="512px" height="512px" viewBox="0 0 512 512" enable-background="new 0 0 512 512" xml:space="preserve">
<g>
	<g>
		
			<linearGradient id="SVGID_1_" gradientUnits="userSpaceOnUse" x1="75.8533" y1="403.4138" x2="391.9269" y2="87.3401" gradientTransform="matrix(1 0 0 -1 24.9448 503.3589)">
			<stop  offset="0" style="stop-color:#FF7601"/>
			<stop  offset="1" style="stop-color:#FF0000"/>
		</linearGradient>
		<path fill="url(#SVGID_1_)" d="M481.435,255.581c0,124.262-100.732,225-225,225c-124.267,0-225-100.738-225-225
			c0-124.264,100.733-225,225-225C380.702,30.581,481.435,131.317,481.435,255.581z"/>
		
			<linearGradient id="SVGID_2_" gradientUnits="userSpaceOnUse" x1="125.5437" y1="431.283" x2="337.4388" y2="64.2698" gradientTransform="matrix(1 0 0 -1 24.9448 503.3589)">
			<stop  offset="0" style="stop-color:#FF0000"/>
			<stop  offset="1" style="stop-color:#FF6301"/>
		</linearGradient>
		<path fill="url(#SVGID_2_)" d="M468.293,255.581c0,117.012-94.854,211.864-211.858,211.864S44.576,372.593,44.576,255.581
			c0-117.005,94.854-211.857,211.857-211.857S468.293,138.576,468.293,255.581z"/>
	</g>
</g>
<g opacity="0.3">
	<g>
		<path d="M260.756,153.05c-36.381,0-72.549,0-109.089,0c-0.214,1.853-0.544,3.479-0.55,5.123
			c-0.031,19.298,0.115,38.606-0.104,57.892c-0.061,4.743,1.418,6.216,6.167,6.161c19.511-0.227,39.028-0.33,58.527,0.128
			c3.747,0.086,8.605,1.938,10.88,4.676c5.061,6.106-0.006,14.75-8.576,14.988c-12.286,0.323-24.591,0.128-36.895,0.134
			c-12.721,0.006-25.458,0.092-38.167-0.037c-8.411-0.098-11.98-3.643-12.012-12.127c-0.098-28.423-0.098-56.846,0-85.266
			c0.03-8.387,3.71-12.234,11.999-12.25c42.2-0.096,84.407-0.096,126.603,0.009c7.737,0.023,11.319,3.594,11.777,11.201
			c0.244,4.224,0.251,8.5-0.086,12.711c-0.556,6.62-4.242,10.195-9.951,10.195c-5.408,0-9.033-3.404-10.042-9.492
			C261.037,155.887,260.939,154.64,260.756,153.05z"/>
		<path d="M177.413,197.054c2.737,1.259,4.768,2.512,6.968,3.129c3.411,0.96,6.938,1.926,10.428,1.975
			c1.534,0.012,3.105-2.237,4.664-3.448c-1.192-1.503-2.079-3.63-3.619-4.352c-3.619-1.699-7.585-2.659-11.345-4.04
			c-5.819-2.133-9.86-5.789-10.031-12.463c-0.171-6.418,2.94-10.648,8.559-13.637c1.827-0.979,2.714-3.618,4.192-5.36
			c1.144-1.352,2.409-3.319,3.827-3.521c1.375-0.208,4.303,1.412,4.364,2.385c0.349,5.599,5.019,5.867,8.417,8.038
			c2.06,1.345,3.067,4.314,4.554,6.552c-2.372,1.009-4.805,2.928-7.109,2.788c-3.472-0.238-6.797-2.434-10.28-2.732
			c-1.742-0.159-3.687,2.036-5.526,3.154c1.253,1.663,2.152,4.027,3.827,4.847c3.576,1.748,7.567,2.642,11.351,3.998
			c5.947,2.121,9.726,6.173,9.737,12.671c0.02,6.56-3.301,11.021-9.358,13.814c-2.054,0.954-3.301,3.526-5.036,5.214
			c-1.399,1.363-3.038,3.527-4.499,3.472c-1.485-0.073-4.017-2.329-4.107-3.759c-0.239-3.838-2.543-4.7-5.434-5.825
			c-2.715-1.039-5.466-2.463-7.567-4.389c-1.058-0.959-1.381-3.649-0.837-5.128C174.069,198.992,176.104,198.111,177.413,197.054z"
			/>
	</g>
	<g>
		<path d="M322.247,297.806c-22.151,0-44.297,0.152-66.46-0.056c-13.704-0.122-22.451-9.363-22.451-23.057
			c0-28.337,0.464-56.668-0.257-84.975c-0.245-9.407,10.867-21.132,19.64-21.211c9.083-0.072,18.154-0.537,27.231-0.556
			c32.14-0.08,64.284-0.073,96.418-0.023c4.713,0,9.442,0.214,14.132,0.653c12.829,1.187,20.808,10.179,20.808,23.215
			c0,27.788,0,55.568,0,83.338c0,12.714-9.206,22.438-22.061,22.562c-22.329,0.238-44.664,0.073-66.999,0.073
			C322.247,297.775,322.247,297.794,322.247,297.806z M399.24,215.948c-2.427,0-4.204,0-5.979,0c-37.414,0-74.841,0-112.249,0.024
			c-9.811,0.006-19.621,0.134-29.432,0.171c-2.817,0.006-4.854,0.416-4.812,4.132c0.263,17.977,0.171,35.959,0.532,53.931
			c0.134,7.098,3.166,9.561,10.312,9.578c21.986,0.012,43.968,0.042,65.941-0.019c22.164-0.05,44.315-0.165,66.485-0.336
			c5.538-0.043,9.112-2.959,9.149-7.818C399.325,256.015,399.24,236.394,399.24,215.948z M399.031,193.863
			c0.179-8.02-2.011-10.617-9.059-11.21c-2.176-0.178-4.357-0.257-6.528-0.257c-42.139-0.062-84.271-0.116-126.398-0.142
			c-7.042,0-10.458,4.176-9.652,11.607C297.834,193.863,348.28,193.863,399.031,193.863z"/>
		<path d="M282.32,269.646c-8.093,6.198-16.589,6.088-22.206-0.049c-4.907-5.354-5.121-14.064-0.488-19.413
			c5.983-6.876,13.813-7.183,22.751-0.887c10.023-6.026,17.989-5.715,23.195,0.887c4.641,5.917,4.378,14.07-0.642,19.37
			C298.947,275.868,291.435,275.96,282.32,269.646z"/>
	</g>
	<g>
		<path d="M330.523,318.9c3.975,1.559,8.588-1.979,10.611,2.493c5.146-1.032,10.221-2.658,15.354-2.952
			c5.905-0.342,9.272,3.57,9.328,9.505c0.056,6.009-0.013,12.011,0.036,18.021c0.043,5.818,2.807,7.507,8.441,5.098
			c-2.727-6.277-3.222-12.799-1.289-19.346c4.547-15.379,23.337-16.039,30.972-9.45c5.85,5.056,6.216,11.95,5.782,19.529
			c-4.328,0-8.545,0-12.775,0c-4.241,0-8.472,0-12.677,0c-0.716,9.182,7.041,11.131,15.061,8.937
			c2.818-0.77,5.509-2.005,8.454-3.099c1.008,9.994,1.191,8.888-6.564,11.233c-7.065,2.141-14.113,1.896-20.855-1.754
			c-0.983-0.531-2.615,0-3.918,0.251c-4.511,0.813-9.016,2.457-13.503,2.384c-4.877-0.066-7.328-3.228-7.579-8.153
			c-0.306-5.855-0.257-11.736-0.33-17.599c-0.061-5.573-1.595-6.943-7.017-6.148c-6.339,0.923-6.339,0.923-6.345,7.256
			c0,7.854,0,15.721,0,23.502c-5.38,1.779-10.3,1.112-11.854-1.577c-5.477,1.511-10.978,3.137-16.49-0.151
			c-0.581-0.344-1.821,0.481-2.775,0.642c-4.492,0.776-9.028,2.256-13.483,2.035c-4.842-0.238-7.256-3.143-7.329-7.909
			c-0.251-13.747-0.109-27.494-0.109-41.241c0-1.173,0-2.347,0-3.325c0.593-0.293,0.813-0.487,1.039-0.501
			c9.676-0.336,9.67-0.336,9.676,9.272c0.013,9.475,0.043,18.949,0.043,28.424c0.006,7.793,2.164,9.346,9.731,6.645
			c0-10.25,0-20.617,0-31.57c2.786,0,5.273-0.172,7.737,0.042c2.836,0.245,3.063,2.494,3.068,4.73
			c0.006,6.805-0.013,13.612,0.013,20.423c0.012,5.359,1.118,6.265,6.313,6.117c2.731-0.065,3.308-1.229,3.275-3.686
			C330.457,337.923,330.523,328.869,330.523,318.9z M384.417,334.371c4.743,0,9.218,0,13.711,0
			c-0.601-6.095-2.549-8.601-6.479-8.575C387.395,325.807,384.863,328.718,384.417,334.371z"/>
		<path d="M228.519,306.822c10.697-1.052,10.721-1.021,10.721,8.918c0,10.134-0.023,20.27,0.007,30.409
			c0.019,5.422,2.58,7.023,7.72,4.854c-3.038-10.208-3.698-20.271,4.267-28.668c4.707-4.964,11.797-5.238,21.352-1.772
			c0-2.371,0-4.578,0-6.778c0-2.268,0-4.522,0-6.84c0.396-0.153,0.758-0.403,1.118-0.41c10.465-0.012,9.62-1.155,9.603,9.206
			c-0.018,14.383-0.006,28.766-0.006,43.1c-6.699,1.467-8.447,0.96-10.88-2.989c-6.253,4.73-12.8,5.196-19.786,1.626
			c-0.941-0.478-2.409-0.073-3.606,0.116c-4.027,0.66-8.02,1.906-12.054,1.985c-5.062,0.1-7.8-2.7-8.197-7.842
			c-0.366-4.768-0.237-9.584-0.244-14.377C228.5,327.25,228.519,317.128,228.519,306.822z M272.608,338.814
			c-0.007,0-0.013,0-0.019,0c0-2.133-0.214-4.291,0.055-6.388c0.446-3.649-1.675-4.683-4.614-5.024
			c-6.021-0.715-9.608,1.412-10.574,7.427c-0.637,3.938-0.238,8.203,0.538,12.146c0.722,3.655,4.357,5.116,8.667,4.377
			c4.199-0.716,5.936-2.732,5.947-6.938C272.614,342.55,272.608,340.679,272.608,338.814z"/>
		<path d="M99.094,326.479c0-2.536,0-4.529,0-6.84c5.941,0,11.852,0,18.031,0c0,2.065,0,4.138,0,6.491
			c-1.112,0.263-2.329,0.544-3.729,0.874c1.485,5.422,2.935,10.685,4.377,15.94c0.27,0.02,0.531,0.043,0.788,0.063
			c1.772-6.155,3.79-12.263,5.228-18.496c0.923-4.035,2.598-6.125,6.942-5.208c0.898,0.183,1.858,0.019,3.265,0.019
			c2.322,7.879,4.664,15.794,7.365,24.926c1.748-6.302,3.209-11.552,4.78-17.205c-1.754-0.275-2.995-0.472-4.468-0.703
			c0-2.164,0-4.364,0-6.797c5.63,0,11.18,0,17.054,0c0,2.133,0,4.31,0,6.479c-0.324-0.202-0.647-0.396-0.972-0.605
			c-1.388,1.847-3.374,3.496-4.053,5.568c-2.635,8.038-5.056,16.174-7.108,24.377c-0.801,3.196-1.938,4.633-5.281,4.107
			c-1.559-0.245-3.19-0.043-5.178-0.043c-2.316-7.824-4.633-15.643-7.243-24.462c-1.791,5.818-3.319,10.794-4.847,15.77
			c-0.073,0.251-0.085,0.521-0.165,0.776c-2.426,8.648-2.426,8.648-11.717,7.604c-2.728-9.443-5.581-18.931-8.148-28.483
			C103.299,327.966,102.388,326.169,99.094,326.479z"/>
		<path d="M183.213,350.159c-7.72-4.627-11.956-10.85-12.09-19.462c-0.02-1.309,0.208-2.652,0.524-3.931
			c2.164-8.753,3.539-10.385,13.601-7.018c9.859,3.308,15.055,13.606,13.068,24.133c-1.681,8.904-10.789,16.308-20.141,16.351
			c-10.446,0.067-19.358-6.949-21.363-16.809c-2.065-10.153,4.242-20.905,14.34-23.883c-1.553,5.307-3.05,10.429-4.542,15.551
			c-1.546,5.317-0.581,10.129,3.612,13.796C173.916,352.128,178.231,352.806,183.213,350.159z M181.129,327.427
			c-1.235,8.136,1.43,13.209,7.549,14.768C190.738,336.528,187.914,330.813,181.129,327.427z"/>
		<path d="M212.003,359.213c-3.857,0-7.243,0-10.923,0c0-13.203,0-26.204,0-39.205c5.666-1.712,8.955-1.016,10.653,1.895
			c4.315-1.394,8.552-2.769,13.484-4.377c0,4.218,0,7.072,0,10.214c-2.983,0.416-6.088,0.851-9.181,1.29
			c-2.879,0.416-4.229,1.712-4.126,4.994C212.18,342.268,212.003,350.52,212.003,359.213z"/>
		<path d="M321.752,311.247c0.019,3.345-2.988,6.363-6.356,6.389c-3.282,0.029-6.498-3.154-6.425-6.363
			c0.063-2.971,3.191-6.106,6.223-6.247C318.329,304.884,321.734,308.117,321.752,311.247z"/>
	</g>
</g>
<g>
	<g>
		<path fill="#FFFFFF" d="M270.756,143.05c-36.381,0-72.549,0-109.089,0c-0.214,1.853-0.544,3.479-0.55,5.123
			c-0.031,19.298,0.115,38.606-0.104,57.892c-0.061,4.743,1.418,6.216,6.167,6.161c19.511-0.227,39.028-0.33,58.527,0.128
			c3.747,0.086,8.605,1.938,10.88,4.676c5.061,6.106-0.006,14.75-8.576,14.988c-12.286,0.323-24.591,0.128-36.895,0.134
			c-12.721,0.006-25.458,0.092-38.167-0.037c-8.411-0.098-11.98-3.643-12.012-12.127c-0.098-28.423-0.098-56.846,0-85.266
			c0.03-8.387,3.71-12.234,11.999-12.25c42.2-0.096,84.407-0.096,126.603,0.009c7.737,0.023,11.319,3.594,11.777,11.201
			c0.244,4.224,0.251,8.5-0.086,12.711c-0.556,6.62-4.242,10.195-9.951,10.195c-5.408,0-9.033-3.404-10.042-9.492
			C271.037,145.887,270.939,144.64,270.756,143.05z"/>
		<path fill="#FFFFFF" d="M187.413,187.054c2.737,1.259,4.768,2.512,6.968,3.129c3.411,0.96,6.938,1.926,10.428,1.975
			c1.534,0.012,3.105-2.237,4.664-3.448c-1.192-1.503-2.079-3.63-3.619-4.352c-3.619-1.699-7.585-2.659-11.345-4.04
			c-5.819-2.133-9.86-5.789-10.031-12.463c-0.171-6.418,2.94-10.648,8.559-13.637c1.827-0.979,2.714-3.618,4.192-5.36
			c1.144-1.352,2.409-3.319,3.827-3.521c1.375-0.208,4.303,1.412,4.364,2.385c0.349,5.599,5.019,5.867,8.417,8.038
			c2.06,1.345,3.067,4.314,4.554,6.552c-2.372,1.009-4.805,2.928-7.109,2.788c-3.472-0.238-6.797-2.434-10.28-2.732
			c-1.742-0.159-3.687,2.036-5.526,3.154c1.253,1.663,2.152,4.027,3.827,4.847c3.576,1.748,7.567,2.642,11.351,3.998
			c5.947,2.121,9.726,6.173,9.737,12.671c0.02,6.56-3.301,11.021-9.358,13.814c-2.054,0.954-3.301,3.526-5.036,5.214
			c-1.399,1.363-3.038,3.527-4.499,3.472c-1.485-0.073-4.017-2.329-4.107-3.759c-0.239-3.838-2.543-4.7-5.434-5.825
			c-2.715-1.039-5.466-2.463-7.567-4.389c-1.058-0.959-1.381-3.649-0.837-5.128C184.069,188.992,186.104,188.111,187.413,187.054z"
			/>
	</g>
	<g>
		<path fill="#FFFFFF" d="M332.247,287.806c-22.151,0-44.297,0.152-66.46-0.056c-13.704-0.122-22.451-9.363-22.451-23.057
			c0-28.337,0.464-56.668-0.257-84.975c-0.245-9.407,10.867-21.132,19.64-21.211c9.083-0.072,18.154-0.537,27.231-0.556
			c32.14-0.08,64.284-0.073,96.418-0.023c4.713,0,9.442,0.214,14.132,0.653c12.829,1.187,20.808,10.179,20.808,23.215
			c0,27.788,0,55.568,0,83.338c0,12.714-9.206,22.438-22.061,22.562c-22.329,0.238-44.664,0.073-66.999,0.073
			C332.247,287.775,332.247,287.794,332.247,287.806z M409.24,205.948c-2.427,0-4.204,0-5.979,0c-37.414,0-74.841,0-112.249,0.024
			c-9.811,0.006-19.621,0.134-29.432,0.171c-2.817,0.006-4.854,0.416-4.812,4.132c0.263,17.977,0.171,35.959,0.532,53.931
			c0.134,7.098,3.166,9.561,10.312,9.578c21.986,0.012,43.968,0.042,65.941-0.019c22.164-0.05,44.315-0.165,66.485-0.336
			c5.538-0.043,9.112-2.959,9.149-7.818C409.325,246.015,409.24,226.394,409.24,205.948z M409.031,183.863
			c0.179-8.02-2.011-10.617-9.059-11.21c-2.176-0.178-4.357-0.257-6.528-0.257c-42.139-0.062-84.271-0.116-126.398-0.142
			c-7.042,0-10.458,4.176-9.652,11.607C307.834,183.863,358.28,183.863,409.031,183.863z"/>
		<path fill="#FFFFFF" d="M292.32,259.646c-8.093,6.198-16.589,6.088-22.206-0.049c-4.907-5.354-5.121-14.064-0.488-19.413
			c5.983-6.876,13.813-7.183,22.751-0.887c10.023-6.026,17.989-5.715,23.195,0.887c4.641,5.917,4.378,14.07-0.642,19.37
			C308.947,265.868,301.435,265.96,292.32,259.646z"/>
	</g>
	<g>
		<path fill="#FFFFFF" d="M340.523,308.9c3.975,1.559,8.588-1.979,10.611,2.493c5.146-1.032,10.221-2.658,15.354-2.952
			c5.905-0.342,9.272,3.57,9.328,9.505c0.056,6.009-0.013,12.011,0.036,18.021c0.043,5.818,2.807,7.507,8.441,5.098
			c-2.727-6.277-3.222-12.799-1.289-19.346c4.547-15.379,23.337-16.039,30.972-9.45c5.85,5.056,6.216,11.95,5.782,19.529
			c-4.328,0-8.545,0-12.775,0c-4.241,0-8.472,0-12.677,0c-0.716,9.182,7.041,11.131,15.061,8.937
			c2.818-0.77,5.509-2.005,8.454-3.099c1.008,9.994,1.191,8.888-6.564,11.233c-7.065,2.141-14.113,1.896-20.855-1.754
			c-0.983-0.531-2.615,0-3.918,0.251c-4.511,0.813-9.016,2.457-13.503,2.384c-4.877-0.066-7.328-3.228-7.579-8.153
			c-0.306-5.855-0.257-11.736-0.33-17.599c-0.061-5.573-1.595-6.943-7.017-6.148c-6.339,0.923-6.339,0.923-6.345,7.256
			c0,7.854,0,15.721,0,23.502c-5.38,1.779-10.3,1.112-11.854-1.577c-5.477,1.511-10.978,3.137-16.49-0.151
			c-0.581-0.344-1.821,0.481-2.775,0.642c-4.492,0.776-9.028,2.256-13.483,2.035c-4.842-0.238-7.256-3.143-7.329-7.909
			c-0.251-13.747-0.109-27.494-0.109-41.241c0-1.173,0-2.347,0-3.325c0.593-0.293,0.813-0.487,1.039-0.501
			c9.676-0.336,9.67-0.336,9.676,9.272c0.013,9.475,0.043,18.949,0.043,28.424c0.006,7.793,2.164,9.346,9.731,6.645
			c0-10.25,0-20.617,0-31.57c2.786,0,5.273-0.172,7.737,0.042c2.836,0.245,3.063,2.494,3.068,4.73
			c0.006,6.805-0.013,13.612,0.013,20.423c0.012,5.359,1.118,6.265,6.313,6.117c2.731-0.065,3.308-1.229,3.275-3.686
			C340.457,327.923,340.523,318.869,340.523,308.9z M394.417,324.371c4.743,0,9.218,0,13.711,0
			c-0.601-6.095-2.549-8.601-6.479-8.575C397.395,315.807,394.863,318.718,394.417,324.371z"/>
		<path fill="#FFFFFF" d="M238.519,296.822c10.697-1.052,10.721-1.021,10.721,8.918c0,10.134-0.023,20.27,0.007,30.409
			c0.019,5.422,2.58,7.023,7.72,4.854c-3.038-10.208-3.698-20.271,4.267-28.668c4.707-4.964,11.797-5.238,21.352-1.772
			c0-2.371,0-4.578,0-6.778c0-2.268,0-4.522,0-6.84c0.396-0.153,0.758-0.403,1.118-0.41c10.465-0.012,9.62-1.155,9.603,9.206
			c-0.018,14.383-0.006,28.766-0.006,43.1c-6.699,1.467-8.447,0.96-10.88-2.989c-6.253,4.73-12.8,5.196-19.786,1.626
			c-0.941-0.478-2.409-0.073-3.606,0.116c-4.027,0.66-8.02,1.906-12.054,1.985c-5.062,0.1-7.8-2.7-8.197-7.842
			c-0.366-4.768-0.237-9.584-0.244-14.377C238.5,317.25,238.519,307.128,238.519,296.822z M282.608,328.814
			c-0.007,0-0.013,0-0.019,0c0-2.133-0.214-4.291,0.055-6.388c0.446-3.649-1.675-4.683-4.614-5.024
			c-6.021-0.715-9.608,1.412-10.574,7.427c-0.637,3.938-0.238,8.203,0.538,12.146c0.722,3.655,4.357,5.116,8.667,4.377
			c4.199-0.716,5.936-2.732,5.947-6.938C282.614,332.55,282.608,330.679,282.608,328.814z"/>
		<path fill="#FFFFFF" d="M109.094,316.479c0-2.536,0-4.529,0-6.84c5.941,0,11.852,0,18.031,0c0,2.065,0,4.138,0,6.491
			c-1.112,0.263-2.329,0.544-3.729,0.874c1.485,5.422,2.935,10.685,4.377,15.94c0.27,0.02,0.531,0.043,0.788,0.063
			c1.772-6.155,3.79-12.263,5.228-18.496c0.923-4.035,2.598-6.125,6.942-5.208c0.898,0.183,1.858,0.019,3.265,0.019
			c2.322,7.879,4.664,15.794,7.365,24.926c1.748-6.302,3.209-11.552,4.78-17.205c-1.754-0.275-2.995-0.472-4.468-0.703
			c0-2.164,0-4.364,0-6.797c5.63,0,11.18,0,17.054,0c0,2.133,0,4.31,0,6.479c-0.324-0.202-0.647-0.396-0.972-0.605
			c-1.388,1.847-3.374,3.496-4.053,5.568c-2.635,8.038-5.056,16.174-7.108,24.377c-0.801,3.196-1.938,4.633-5.281,4.107
			c-1.559-0.245-3.19-0.043-5.178-0.043c-2.316-7.824-4.633-15.643-7.243-24.462c-1.791,5.818-3.319,10.794-4.847,15.77
			c-0.073,0.251-0.085,0.521-0.165,0.776c-2.426,8.648-2.426,8.648-11.717,7.604c-2.728-9.443-5.581-18.931-8.148-28.483
			C113.299,317.966,112.388,316.169,109.094,316.479z"/>
		<path fill="#FFFFFF" d="M193.213,340.159c-7.72-4.627-11.956-10.85-12.09-19.462c-0.02-1.309,0.208-2.652,0.524-3.931
			c2.164-8.753,3.539-10.385,13.601-7.018c9.859,3.308,15.055,13.606,13.068,24.133c-1.681,8.904-10.789,16.308-20.141,16.351
			c-10.446,0.067-19.358-6.949-21.363-16.809c-2.065-10.153,4.242-20.905,14.34-23.883c-1.553,5.307-3.05,10.429-4.542,15.551
			c-1.546,5.317-0.581,10.129,3.612,13.796C183.916,342.128,188.231,342.806,193.213,340.159z M191.129,317.427
			c-1.235,8.136,1.43,13.209,7.549,14.768C200.738,326.528,197.914,320.813,191.129,317.427z"/>
		<path fill="#FFFFFF" d="M222.003,349.213c-3.857,0-7.243,0-10.923,0c0-13.203,0-26.204,0-39.205
			c5.666-1.712,8.955-1.016,10.653,1.895c4.315-1.394,8.552-2.769,13.484-4.377c0,4.218,0,7.072,0,10.214
			c-2.983,0.416-6.088,0.851-9.181,1.29c-2.879,0.416-4.229,1.712-4.126,4.994C222.18,332.268,222.003,340.52,222.003,349.213z"/>
		<path fill="#FFFFFF" d="M331.752,301.247c0.019,3.345-2.988,6.363-6.356,6.389c-3.282,0.029-6.498-3.154-6.425-6.363
			c0.063-2.971,3.191-6.106,6.223-6.247C328.329,294.884,331.734,298.117,331.752,301.247z"/>
	</g>
</g>
</svg>
