<?xml version="1.0" encoding="utf-8"?>
<!-- Generator: Adobe Illustrator 16.0.0, SVG Export Plug-In . SVG Version: 6.00 Build 0)  -->
<!DOCTYPE svg PUBLIC "-//W3C//DTD SVG 1.1//EN" "http://www.w3.org/Graphics/SVG/1.1/DTD/svg11.dtd">
<svg version="1.1" id="Layer_1" xmlns="http://www.w3.org/2000/svg" xmlns:xlink="http://www.w3.org/1999/xlink" x="0px" y="0px"
	 width="512px" height="512px" viewBox="0 0 512 512" enable-background="new 0 0 512 512" xml:space="preserve">
<g>
	<g>
		
			<linearGradient id="SVGID_1_" gradientUnits="userSpaceOnUse" x1="75.572" y1="402.6648" x2="391.6458" y2="86.5909" gradientTransform="matrix(1 0 0 -1 24.9448 503.3589)">
			<stop  offset="0" style="stop-color:#FFA300"/>
			<stop  offset="1" style="stop-color:#FF6400"/>
		</linearGradient>
		<path fill="url(#SVGID_1_)" d="M481.153,256.33c0,124.262-100.732,225-225,225c-124.267,0-225-100.738-225-225
			c0-124.267,100.733-225,225-225C380.42,31.33,481.153,132.063,481.153,256.33z"/>
		
			<linearGradient id="SVGID_2_" gradientUnits="userSpaceOnUse" x1="125.262" y1="430.5349" x2="337.1549" y2="63.5255" gradientTransform="matrix(1 0 0 -1 24.9448 503.3589)">
			<stop  offset="0" style="stop-color:#FF6400"/>
			<stop  offset="1" style="stop-color:#FFA300"/>
		</linearGradient>
		<circle fill="url(#SVGID_2_)" cx="256.153" cy="256.33" r="211.858"/>
	</g>
</g>
<g opacity="0.6">
	<g>
		<path d="M278.989,332.521c-3.558-11.369,3.239-24.309,14.688-28.373c3.404-1.224,6.95-1.742,10.563-1.188
			c1.352,0.228,2.365-0.128,3.467-0.972c15.452-11.913,29.878-24.878,42.543-39.768c3.818-4.519,7.304-9.354,10.996-13.998
			c0.886-1.106,1.088-2.263,0.96-3.705c-1.504-15.703,12.664-28.473,28.116-25.386c0.501,0.11,1.009,0.324,1.834,0.563
			c-2.12,2.157-4.047,4.101-6.016,6.051c-2.769,2.793-5.599,5.525-8.374,8.331c-1.852,1.858-1.852,3.454,0,5.35
			c3.576,3.625,7.177,7.225,10.795,10.781c2.151,2.14,3.625,2.14,5.766,0c3.91-3.875,7.792-7.793,11.674-11.687
			c0.728-0.733,1.382-1.517,2.078-2.28c0.227,0.049,0.465,0.091,0.69,0.122c0.227,2.231,0.69,4.462,0.58,6.657
			c-0.745,13.991-11.479,23.6-25.477,22.866c-1.632-0.093-2.83,0.306-4.139,1.277c-17.908,13.558-33.539,29.486-47.935,46.662
			c-1.742,2.098-3.392,4.272-5.214,6.29c-1.124,1.283-1.517,2.549-1.381,4.272c0.837,9.858-4.065,18.661-12.873,23.142
			c-5.336,2.728-10.96,3.239-17.121,1.639c0.604-0.653,0.99-1.118,1.424-1.547c4.236-4.255,8.484-8.489,12.721-12.737
			c2.114-2.098,2.084-3.729-0.056-5.888c-3.185-3.215-6.412-6.424-9.608-9.646c-3.202-3.239-4.277-3.239-7.438-0.055
			c-3.747,3.782-7.513,7.566-11.26,11.339C280.396,331.232,279.778,331.796,278.989,332.521z"/>
		<path d="M382.357,348.108c-4.083-4.119-8.166-8.245-12.097-12.194c-4.016,1.554-7.781,2.979-11.51,4.536
			c-0.393,0.171-0.709,1.032-0.709,1.577c-0.036,4.901-0.056,9.812-0.02,14.726c0.02,1.154-0.184,1.76-1.559,1.741
			c-9.138-0.043-18.295-0.023-27.457-0.023c-0.342,0-0.709-0.092-1.253-0.153c0-2.506,0-4.963,0-7.433
			c0-2.85,0.049-5.696-0.043-8.539c-0.036-0.831-0.538-1.632-0.819-2.438c-0.244,0-0.488,0-0.732,0
			c0.396-0.844,0.838-1.669,1.197-2.53c1.688-4.103,2.384-8.355,2.213-12.793c-0.135-2.903,2.188-4.707,4.945-4.028
			c18.275,4.607,36.974-6.485,41.583-24.561c1.632-6.345,1.467-12.586-0.337-18.809c-0.299-0.984-0.092-1.554,0.679-2.133
			c1.89-1.426,3.704-2.903,5.637-4.291c0.481-0.336,1.223-0.429,1.857-0.501c3.325-0.43,6.688-0.789,10.012-1.297
			c0.984-0.165,1.603-0.072,1.712,0.936c0.208,1.969,1.352,2.269,3.111,2.237c5.019-0.122,10.036-0.043,15.36-0.043
			c0,3.521,0,6.896,0,10.264c-0.02,5.996-0.079,12.011,0,18.001c0.036,1.559-0.337,2.097-2.006,2.078
			c-4.772-0.122-9.571-0.02-14.352-0.073c-1.07,0-1.553,0.342-1.969,1.363c-1.18,3.172-2.494,6.302-3.875,9.389
			c-0.428,0.941-0.354,1.448,0.379,2.151c3.46,3.38,6.87,6.821,10.3,10.251c0.434,0.409,0.801,0.861,1.143,1.222
			C396.6,333.873,389.533,340.951,382.357,348.108z"/>
		<path d="M271.74,302.363c0-10.208,0-20.116,0-30.27c0.771,0,1.405,0,2.041,0c4.737,0,9.456-0.044,14.183,0.019
			c1.033,0,1.441-0.336,1.821-1.29c1.197-3.172,2.47-6.313,3.868-9.389c0.515-1.105,0.36-1.688-0.465-2.477
			c-3.855-3.667-7.677-7.377-11.54-11.124c7.384-7.358,14.462-14.406,21.956-21.883c1.725,1.876,3.423,3.82,5.208,5.697
			c1.986,2.065,3.974,4.064,6.069,6.015c0.396,0.373,1.313,0.581,1.804,0.392c3.386-1.29,6.735-2.678,10.036-4.176
			c0.501-0.226,0.972-1.16,0.99-1.76c0.079-4.608,0.043-9.218,0.043-13.827c0-0.653,0-1.308,0-2.17
			c0.685-0.061,1.271-0.152,1.852-0.152c8.839-0.019,17.685,0.036,26.522-0.037c1.577-0.019,1.95,0.525,1.913,1.986
			c-0.073,4.664-0.036,9.321,0,13.991c0,0.654,0.416,1.29,0.581,1.95c0.115,0.416,0.171,0.855,0.128,1.29
			c-0.257,3.111-0.544,6.241-0.898,9.346c-0.073,0.734-0.316,1.541-0.728,2.141c-1.425,2.042-2.982,3.973-4.4,6.015
			c-0.697,0.972-1.425,1.155-2.604,0.929c-13.771-2.598-25.307,1.485-34.193,12.311c-6.57,8.038-8.631,17.444-6.853,27.672
			c0.227,1.326-0.109,2.041-1.105,2.902c-1.815,1.607-3.692,2.322-6.217,2.134c-4.627-0.336-8.974,0.989-13.1,3.13
			c-0.477,0.244-0.989,0.599-1.474,0.617C282.101,302.388,277.003,302.363,271.74,302.363z"/>
	</g>
	<g>
		<path d="M288.916,305.773c3.001-1.051,6.052-1.607,9.181-1.497c0.862-1.614,1.724-3.222,2.604-4.829
			c-0.898,0.221-1.854,0.336-2.923,0.257c-5.079-0.373-9.854,1.088-14.363,3.411c-0.526,0.281-1.088,0.672-1.614,0.69
			c-5.586,0.043-11.167,0.023-16.932,0.023c0-11.186,0-22.048,0-33.197c0.818,0,1.534,0,2.243,0c5.189,0,10.379-0.035,15.551,0.02
			c1.117,0,1.57-0.36,1.985-1.424c1.314-3.466,2.714-6.913,4.268-10.281c0.416-0.941,0.416-1.522-0.037-2.14
			c-29.785,0.019-59.565,0.036-89.333,0c-1.485,0-2.286,0.392-3.021,1.688c-10.96,19.027-21.956,38.044-32.934,57.061
			c-0.33,0.581-0.611,1.161-1.045,1.926c0.88,0.061,1.516,0.092,2.17,0.092c36.797,0,73.625,0,110.434,0.042
			C278.152,312.297,282.92,307.913,288.916,305.773z"/>
		<path d="M207.938,211.134c-10.789-18.575-21.521-37.182-32.279-55.781c-0.281-0.489-0.637-0.941-1.119-1.626
			c-20.832,36.039-41.534,71.797-62.231,107.573c0,1.089,0,2.177,0,3.245c0.409,0.752,0.819,1.518,1.234,2.286
			c8.393,15.526,16.785,31.039,25.141,46.583c1.271,2.349,2.904,4.065,5.709,4.146c2.904,0.092,4.67-1.577,6.052-3.973
			c19.126-33.137,38.259-66.254,57.438-99.358C208.537,213.103,208.629,212.32,207.938,211.134z"/>
		<path d="M297.18,222.656c-16.051-27.744-32.145-55.507-48.203-83.264c-1.571-2.738-3.686-4.011-6.87-3.992
			c-17.329,0.055-34.657,0.019-51.986,0.037c-6.253,0-8.968,4.682-5.844,10.098c18.771,32.464,37.542,64.945,56.271,97.464
			c0.789,1.369,1.649,1.785,3.173,1.785c10.917-0.043,21.834-0.019,32.757-0.019c-0.263-0.245-0.502-0.495-0.746-0.733
			C282.963,236.837,289.925,229.888,297.18,222.656z"/>
	</g>
</g>
<g>
	<g>
		<path fill="#FFFFFF" d="M288.989,322.521c-3.558-11.369,3.239-24.309,14.688-28.373c3.404-1.224,6.95-1.742,10.563-1.188
			c1.352,0.228,2.365-0.128,3.467-0.972c15.452-11.913,29.878-24.878,42.543-39.768c3.818-4.519,7.304-9.354,10.996-13.998
			c0.886-1.106,1.088-2.263,0.96-3.705c-1.504-15.703,12.664-28.473,28.116-25.386c0.501,0.11,1.009,0.324,1.834,0.563
			c-2.12,2.157-4.047,4.101-6.016,6.051c-2.769,2.793-5.599,5.525-8.374,8.331c-1.852,1.858-1.852,3.454,0,5.35
			c3.576,3.625,7.177,7.225,10.795,10.781c2.151,2.14,3.625,2.14,5.766,0c3.91-3.875,7.792-7.793,11.674-11.687
			c0.728-0.733,1.382-1.517,2.078-2.28c0.227,0.049,0.465,0.091,0.69,0.122c0.227,2.231,0.69,4.462,0.58,6.657
			c-0.745,13.991-11.479,23.6-25.477,22.866c-1.632-0.093-2.83,0.306-4.139,1.277c-17.908,13.558-33.539,29.486-47.935,46.662
			c-1.742,2.098-3.392,4.272-5.214,6.29c-1.124,1.283-1.517,2.549-1.381,4.272c0.837,9.858-4.065,18.661-12.873,23.142
			c-5.336,2.728-10.96,3.239-17.121,1.639c0.604-0.653,0.99-1.118,1.424-1.547c4.236-4.255,8.484-8.489,12.721-12.737
			c2.114-2.098,2.084-3.729-0.056-5.888c-3.185-3.215-6.412-6.424-9.608-9.646c-3.202-3.239-4.277-3.239-7.438-0.055
			c-3.747,3.782-7.513,7.566-11.26,11.339C290.396,321.232,289.778,321.796,288.989,322.521z"/>
		<path fill="#FFFFFF" d="M392.357,338.108c-4.083-4.119-8.166-8.245-12.097-12.194c-4.016,1.554-7.781,2.979-11.51,4.536
			c-0.393,0.171-0.709,1.032-0.709,1.577c-0.036,4.901-0.056,9.812-0.02,14.726c0.02,1.154-0.184,1.76-1.559,1.741
			c-9.138-0.043-18.295-0.023-27.457-0.023c-0.342,0-0.709-0.092-1.253-0.153c0-2.506,0-4.963,0-7.433
			c0-2.85,0.049-5.696-0.043-8.539c-0.036-0.831-0.538-1.632-0.819-2.438c-0.244,0-0.488,0-0.732,0
			c0.396-0.844,0.838-1.669,1.197-2.53c1.688-4.103,2.384-8.355,2.213-12.793c-0.135-2.903,2.188-4.707,4.945-4.028
			c18.275,4.607,36.974-6.485,41.583-24.561c1.632-6.345,1.467-12.586-0.337-18.809c-0.299-0.984-0.092-1.554,0.679-2.133
			c1.89-1.426,3.704-2.903,5.637-4.291c0.481-0.336,1.223-0.429,1.857-0.501c3.325-0.43,6.688-0.789,10.012-1.297
			c0.984-0.165,1.603-0.072,1.712,0.936c0.208,1.969,1.352,2.269,3.111,2.237c5.019-0.122,10.036-0.043,15.36-0.043
			c0,3.521,0,6.896,0,10.264c-0.02,5.996-0.079,12.011,0,18.001c0.036,1.559-0.337,2.097-2.006,2.078
			c-4.772-0.122-9.571-0.02-14.352-0.073c-1.07,0-1.553,0.342-1.969,1.363c-1.18,3.172-2.494,6.302-3.875,9.389
			c-0.428,0.941-0.354,1.448,0.379,2.151c3.46,3.38,6.87,6.821,10.3,10.251c0.434,0.409,0.801,0.861,1.143,1.222
			C406.6,323.873,399.533,330.951,392.357,338.108z"/>
		<path fill="#FFFFFF" d="M281.74,292.363c0-10.208,0-20.116,0-30.27c0.771,0,1.405,0,2.041,0c4.737,0,9.456-0.044,14.183,0.019
			c1.033,0,1.441-0.336,1.821-1.29c1.197-3.172,2.47-6.313,3.868-9.389c0.515-1.105,0.36-1.688-0.465-2.477
			c-3.855-3.667-7.677-7.377-11.54-11.124c7.384-7.358,14.462-14.406,21.956-21.883c1.725,1.876,3.423,3.82,5.208,5.697
			c1.986,2.065,3.974,4.064,6.069,6.015c0.396,0.373,1.313,0.581,1.804,0.392c3.386-1.29,6.735-2.678,10.036-4.176
			c0.501-0.226,0.972-1.16,0.99-1.76c0.079-4.608,0.043-9.218,0.043-13.827c0-0.653,0-1.308,0-2.17
			c0.685-0.061,1.271-0.152,1.852-0.152c8.839-0.019,17.685,0.036,26.522-0.037c1.577-0.019,1.95,0.525,1.913,1.986
			c-0.073,4.664-0.036,9.321,0,13.991c0,0.654,0.416,1.29,0.581,1.95c0.115,0.416,0.171,0.855,0.128,1.29
			c-0.257,3.111-0.544,6.241-0.898,9.346c-0.073,0.734-0.316,1.541-0.728,2.141c-1.425,2.042-2.982,3.973-4.4,6.015
			c-0.697,0.972-1.425,1.155-2.604,0.929c-13.771-2.598-25.307,1.485-34.193,12.311c-6.57,8.038-8.631,17.444-6.853,27.672
			c0.227,1.326-0.109,2.041-1.105,2.902c-1.815,1.607-3.692,2.322-6.217,2.134c-4.627-0.336-8.974,0.989-13.1,3.13
			c-0.477,0.244-0.989,0.599-1.474,0.617C292.101,292.388,287.003,292.363,281.74,292.363z"/>
	</g>
	<g>
		<path fill="#FFFFFF" d="M298.916,295.773c3.001-1.051,6.052-1.607,9.181-1.497c0.862-1.614,1.724-3.222,2.604-4.829
			c-0.898,0.221-1.854,0.336-2.923,0.257c-5.079-0.373-9.854,1.088-14.363,3.411c-0.526,0.281-1.088,0.672-1.614,0.69
			c-5.586,0.043-11.167,0.023-16.932,0.023c0-11.186,0-22.048,0-33.197c0.818,0,1.534,0,2.243,0c5.189,0,10.379-0.035,15.551,0.02
			c1.117,0,1.57-0.36,1.985-1.424c1.314-3.466,2.714-6.913,4.268-10.281c0.416-0.941,0.416-1.522-0.037-2.14
			c-29.785,0.019-59.565,0.036-89.333,0c-1.485,0-2.286,0.392-3.021,1.688c-10.96,19.027-21.956,38.044-32.934,57.061
			c-0.33,0.581-0.611,1.161-1.045,1.926c0.88,0.061,1.516,0.092,2.17,0.092c36.797,0,73.625,0,110.434,0.042
			C288.152,302.297,292.92,297.913,298.916,295.773z"/>
		<path fill="#FFFFFF" d="M217.938,201.134c-10.789-18.575-21.521-37.182-32.279-55.781c-0.281-0.489-0.637-0.941-1.119-1.626
			c-20.832,36.039-41.534,71.797-62.231,107.573c0,1.089,0,2.177,0,3.245c0.409,0.752,0.819,1.518,1.234,2.286
			c8.393,15.526,16.785,31.039,25.141,46.583c1.271,2.349,2.904,4.065,5.709,4.146c2.904,0.092,4.67-1.577,6.052-3.973
			c19.126-33.137,38.259-66.254,57.438-99.358C218.537,203.103,218.629,202.32,217.938,201.134z"/>
		<path fill="#FFFFFF" d="M307.18,212.656c-16.051-27.744-32.145-55.507-48.203-83.264c-1.571-2.738-3.686-4.011-6.87-3.992
			c-17.329,0.055-34.657,0.019-51.986,0.037c-6.253,0-8.968,4.682-5.844,10.098c18.771,32.464,37.542,64.945,56.271,97.464
			c0.789,1.369,1.649,1.785,3.173,1.785c10.917-0.043,21.834-0.019,32.757-0.019c-0.263-0.245-0.502-0.495-0.746-0.733
			C292.963,226.837,299.925,219.888,307.18,212.656z"/>
	</g>
</g>
</svg>
