<?xml version="1.0" encoding="utf-8"?>
<!-- Generator: Adobe Illustrator 16.0.0, SVG Export Plug-In . SVG Version: 6.00 Build 0)  -->
<!DOCTYPE svg PUBLIC "-//W3C//DTD SVG 1.1//EN" "http://www.w3.org/Graphics/SVG/1.1/DTD/svg11.dtd">
<svg version="1.1" id="Layer_1" xmlns="http://www.w3.org/2000/svg" xmlns:xlink="http://www.w3.org/1999/xlink" x="0px" y="0px"
	 width="512px" height="512px" viewBox="0 0 512 512" enable-background="new 0 0 512 512" xml:space="preserve">
<linearGradient id="SVGID_1_" gradientUnits="userSpaceOnUse" x1="99.21" y1="99.2773" x2="415.2838" y2="415.3512">
	<stop  offset="0" style="stop-color:#E20001"/>
	<stop  offset="1" style="stop-color:#8C0000"/>
</linearGradient>
<path fill="url(#SVGID_1_)" d="M479.846,254.914c0,124.261-100.733,225-225,225s-225-100.739-225-225c0-124.267,100.733-225,225-225
	S479.846,130.647,479.846,254.914z"/>
<linearGradient id="SVGID_2_" gradientUnits="userSpaceOnUse" x1="148.8989" y1="71.4106" x2="360.7939" y2="438.4236">
	<stop  offset="0" style="stop-color:#8C0000"/>
	<stop  offset="1" style="stop-color:#E20001"/>
</linearGradient>
<path fill="url(#SVGID_2_)" d="M466.704,254.914c0,117.011-94.854,211.864-211.858,211.864S42.987,371.925,42.987,254.914
	c0-117.005,94.854-211.858,211.858-211.858S466.704,137.909,466.704,254.914z"/>
<g>
	<path fill-rule="evenodd" clip-rule="evenodd" fill="#FFFFFF" d="M134.95,336.155c-6.363-20.27,5.764-43.325,26.192-50.575
		c6.07-2.164,12.359-3.104,18.796-2.103c2.427,0.379,4.236-0.244,6.192-1.754c27.512-21.229,53.264-44.334,75.8-70.856
		c6.84-8.05,13.051-16.644,19.604-24.945c1.57-1.993,1.943-4.059,1.699-6.602c-2.678-27.995,22.598-50.758,50.122-45.232
		c0.917,0.184,1.797,0.538,3.288,0.99c-3.789,3.814-7.237,7.311-10.715,10.782c-4.97,4.951-9.994,9.854-14.933,14.841
		c-3.308,3.325-3.313,6.162,0.012,9.536c6.369,6.455,12.788,12.86,19.23,19.242c3.808,3.778,6.448,3.778,10.257-0.006
		c6.974-6.925,13.905-13.894,20.831-20.862c1.283-1.296,2.457-2.702,3.686-4.047c0.409,0.074,0.825,0.153,1.241,0.232
		c0.366,3.949,1.234,7.922,1.026,11.846c-1.332,24.939-20.44,42.054-45.403,40.746c-2.897-0.146-5.043,0.55-7.359,2.298
		c-31.95,24.168-59.786,52.548-85.446,83.167c-3.123,3.722-6.063,7.604-9.291,11.222c-2.005,2.25-2.726,4.512-2.463,7.592
		c1.479,17.58-7.262,33.252-22.953,41.247c-9.511,4.854-19.511,5.759-30.501,2.929c1.057-1.168,1.76-2.012,2.53-2.781
		c7.555-7.567,15.128-15.116,22.677-22.689c3.759-3.76,3.71-6.663-0.098-10.478c-5.715-5.733-11.442-11.454-17.14-17.212
		c-5.696-5.752-7.604-5.783-13.246-0.11c-6.693,6.748-13.38,13.496-20.08,20.232C137.456,333.856,136.343,334.847,134.95,336.155z"
		/>
	<path fill-rule="evenodd" clip-rule="evenodd" fill="#FFFFFF" d="M319.18,363.948c-7.28-7.341-14.572-14.694-21.564-21.742
		c-7.14,2.775-13.863,5.324-20.508,8.081c-0.703,0.293-1.253,1.834-1.266,2.806c-0.098,8.747-0.104,17.493-0.03,26.24
		c0.019,2.066-0.343,3.13-2.8,3.118c-16.308-0.086-32.616-0.049-48.924-0.062c-0.624,0-1.253-0.141-2.237-0.263
		c0-4.456,0-8.845,0-13.233c-0.006-5.08,0.11-10.159-0.073-15.232c-0.055-1.467-0.96-2.903-1.473-4.353
		c-0.44,0.007-0.874,0.013-1.314,0.024c0.721-1.503,1.521-2.982,2.157-4.529c3.001-7.298,4.242-14.89,3.924-22.787
		c-0.214-5.177,3.912-8.404,8.839-7.17c32.58,8.203,65.875-11.577,74.114-43.783c2.891-11.314,2.616-22.427-0.617-33.527
		c-0.52-1.785-0.153-2.781,1.216-3.802c3.368-2.53,6.632-5.195,10.055-7.641c0.868-0.624,2.158-0.758,3.283-0.911
		c5.953-0.789,11.938-1.406,17.873-2.323c1.741-0.275,2.83-0.104,3.031,1.687c0.385,3.502,2.414,4.046,5.563,3.967
		c8.937-0.208,17.879-0.074,27.354-0.074c0,6.308,0.006,12.311,0,18.319c-0.013,10.691-0.116,21.375,0.018,32.066
		c0.037,2.769-0.617,3.759-3.569,3.698c-8.526-0.202-17.06-0.024-25.593-0.11c-1.907-0.019-2.781,0.587-3.479,2.433
		c-2.133,5.648-4.449,11.223-6.938,16.712c-0.758,1.687-0.642,2.579,0.667,3.851c6.197,6.027,12.273,12.164,18.386,18.265
		c0.746,0.745,1.437,1.552,2.005,2.163C344.54,338.588,331.961,351.161,319.18,363.948z"/>
	<path fill-rule="evenodd" clip-rule="evenodd" fill="#FFFFFF" d="M122.021,282.402c0-18.179,0-35.844,0-53.961
		c1.357,0,2.5,0,3.649,0c8.429,0,16.852-0.049,25.275,0.037c1.803,0.012,2.573-0.574,3.221-2.298
		c2.14-5.642,4.414-11.247,6.919-16.73c0.893-1.95,0.636-3.001-0.843-4.395c-6.895-6.528-13.686-13.154-20.575-19.816
		c13.185-13.136,25.783-25.685,39.157-39.01c3.044,3.337,6.088,6.809,9.278,10.146c3.509,3.661,7.091,7.262,10.801,10.728
		c0.709,0.666,2.341,1.039,3.222,0.703c6.026-2.329,12.011-4.792,17.897-7.457c0.898-0.403,1.724-2.06,1.742-3.154
		c0.146-8.203,0.08-16.418,0.08-24.621c0-1.174,0-2.348,0-3.875c1.247-0.104,2.268-0.269,3.288-0.275
		c15.771-0.019,31.541,0.055,47.311-0.067c2.794-0.024,3.436,0.941,3.393,3.533c-0.141,8.313-0.092,16.638,0,24.951
		c0.012,1.155,0.739,2.298,1.033,3.465c0.184,0.74,0.306,1.535,0.238,2.292c-0.489,5.562-0.979,11.125-1.607,16.675
		c-0.146,1.314-0.563,2.75-1.302,3.814c-2.524,3.637-5.318,7.078-7.854,10.709c-1.229,1.749-2.519,2.066-4.615,1.675
		c-24.584-4.646-45.123,2.628-60.936,21.925c-11.748,14.334-15.421,31.106-12.249,49.31c0.416,2.402-0.202,3.661-1.95,5.195
		c-3.246,2.849-6.602,4.133-11.082,3.803c-8.258-0.6-16.015,1.778-23.337,5.562c-0.856,0.44-1.767,1.076-2.659,1.089
		C140.469,282.438,131.417,282.402,122.021,282.402z"/>
</g>
</svg>
