<?xml version="1.0" encoding="utf-8"?>
<!-- Generator: Adobe Illustrator 24.3.0, SVG Export Plug-In . SVG Version: 6.00 Build 0)  -->
<svg version="1.1" id="Layer_1" xmlns="http://www.w3.org/2000/svg" xmlns:xlink="http://www.w3.org/1999/xlink" x="0px" y="0px"
	 viewBox="0 0 512 512" style="enable-background:new 0 0 512 512;" xml:space="preserve">
<style type="text/css">
	.st0{fill:url(#SVGID_1_);}
	.st1{fill:url(#SVGID_2_);}
	.st2{fill:#FFFFFF;}
</style>
<linearGradient id="SVGID_1_" gradientUnits="userSpaceOnUse" x1="75.1256" y1="74.0884" x2="391.1994" y2="-241.9853" gradientTransform="matrix(1 0 0 -1 24.9448 173.3588)">
	<stop  offset="0" style="stop-color:#E20001"/>
	<stop  offset="1" style="stop-color:#8C0000"/>
</linearGradient>
<path class="st0" d="M480.7,254.9c0,124.3-100.7,225-225,225s-225-100.7-225-225s100.7-225,225-225
	C380,29.9,480.7,130.6,480.7,254.9z"/>
<linearGradient id="SVGID_2_" gradientUnits="userSpaceOnUse" x1="124.7888" y1="101.9872" x2="336.7122" y2="-265.0749" gradientTransform="matrix(1 0 0 -1 24.9448 173.3588)">
	<stop  offset="0" style="stop-color:#8C0000"/>
	<stop  offset="1" style="stop-color:#E20001"/>
</linearGradient>
<path class="st1" d="M467.6,254.9c0,117-94.9,211.9-211.9,211.9S43.8,371.9,43.8,254.9S138.7,43,255.7,43
	C372.7,43.1,467.6,137.9,467.6,254.9z"/>
<g>
	<path class="st2" d="M366.5,276.4c-3.4-18-10.7-33.5-21.9-46.1c-13.3-15.1-32.5-26.2-49.6-35c2.4-0.8,4.1-2.1,5-3.7
		c0.8-1.5,0.8-3.3-0.2-5.1c-0.8-1.6-2.3-2.9-4.4-3.9c2.1-2.1,4-4.2,6-6.4c3.7-4,7.4-8.2,12.1-11.7c4.4-3.3,8.4-7,12.2-10.5
		c3.6-3.2,7.3-6.6,11.3-9.7c0.8-0.7,1.1-1.5,0.7-2.4c-0.4-0.9-1.5-1.5-2.8-1.6c-3.3-0.1-6.3-0.4-9.2-0.6c-3.7-0.3-7.1-0.6-10.6-0.6
		c-6.5,0-11.7,1.1-17,3.6c-1.7,0.8-3.2,1.8-4.6,2.8c-2.7,1.8-5.2,3.5-8.3,3.5c-1.1,0-2.2-0.2-3.4-0.6c-2.6-0.9-4.6-2.4-6.8-3.9
		c-2.3-1.7-4.8-3.4-7.9-4.4c-2.9-0.9-6.2-1.4-9.3-1.4c-2.3,0-4.5,0.2-6.5,0.7c-3.4,0.8-6.5,2.3-9.4,3.7c-3.9,1.9-7.6,3.7-11.7,3.7
		c-3.1,0-6.1-1-9.4-3.1c-6.9-4.4-11.3-5.9-17-5.9c-3.6,0-7.5,0.6-12.3,1.6c-0.9,0.2-1.6,0.7-2,1.3s-0.3,1.5,0.2,2.1
		c4,5.2,9.2,10.2,14.2,14.9c7.6,7.2,15.6,14.7,19.3,23.4c-1.7,0.5-3,1.1-4.1,1.8c-3.8,2.3-4.3,4.5-4.1,6c0.3,2.1,2.3,4,5.4,5.3
		c-16.3,6.7-28.6,17.8-40.5,28.4l-3.5,3.1c-10.1,9-17.4,21.7-21.9,38c-3.1,11.3-7,33,2.1,51.8c6.9,14.1,21.9,27.1,42.3,36.6
		c16.9,7.9,34.3,11.8,54.8,12.4c4.1,0.1,8.2,0.2,12.3,0.2l0,0c12.5,0,29-0.7,45-6.6c20.7-7.6,39-21.1,49-36.3
		C368,310.1,370,295.2,366.5,276.4z M158.4,275.5c1.3-10.1,5.4-29,18.2-42.6c18.4-19.6,35.9-31.7,53.4-37c0.4-0.1,0.7-0.3,0.7-0.4
		c3.3-0.3,6.9-0.5,10.9-0.5c4.1,0,8.1,0.2,12.2,0.3c3.4,0.1,6.7,0.3,10.1,0.3c2.5,0,5.3,0.2,8.4,0.4c3.8,0.3,7.7,0.5,11.5,0.5
		c1.1,0,2.3,0,3.1-0.1c28.3,14.3,58.8,33.4,70.2,66.5c4.5,13.1,6.1,25.5,4.8,36.9c-1.9,17.1-14.6,33.4-35.8,45.9
		c-16.1,9.5-34.4,14.3-54.4,14.4l-4.6,0c-17.4,0-35.9-0.5-52.4-6.7c-18.5-6.9-32.4-15.5-42.7-26.3
		C156.1,310.5,156.4,290.8,158.4,275.5z M219.2,148.9c3.6,2.1,6.9,3.5,10.9,3.8c0.5,0,0.9,0.1,1.3,0.1c3.6,0,6.5-0.9,10-2.5
		c2.3-1,4.2-2.1,5.9-3.2c3.3-2,6.1-3.7,10.6-3.7c1.3,0,2.7,0.1,4.2,0.4c4.7,0.9,7.9,3.1,11.3,5.5l1.7,1.2c3.8,2.6,7.1,3.8,10.4,3.8
		c3,0,6.1-1,9.4-3.2c0.8-0.5,1.6-1.1,2.4-1.6c3.2-2.2,6.2-4.2,10.6-5.3c1.7-0.4,3.8-0.6,6.5-0.6c3.8,0,8.1,0.4,12.2,0.9l1.9,0.2
		c-2.4,2-4.7,4.2-7.1,6.2c-3.9,3.5-7.9,7.1-12.3,10.5c-4.7,3.6-8.4,7.7-12.1,11.8c-2.4,2.6-4.8,5.3-7.4,7.8c-2.3-0.4-4.8-0.7-7-0.9
		l-2.3-0.2c-5.2-0.6-10.8-0.9-17.2-0.9c-5.6,0-11.2,0.2-16.6,0.4c-1.7,0.1-3.5,0.1-5.4,0.1c-3.9,0-8.2,0.1-12.2,0.6
		c-4-9.3-12.1-17-19.9-24.4c-4.2-4-8.6-8.1-12.2-12.5c2.6-0.6,5.2-1.2,7.6-1.2l0.6,0c4.6,0.2,7.4,2.3,10.5,4.5
		C216.7,147.2,217.9,148.1,219.2,148.9z M249.7,183.7c2-0.1,4-0.1,5.9-0.2c2.8-0.1,5.6-0.2,8.4-0.2c3.4,0,6.4,0.1,9.3,0.3
		c3.7,0.3,7.6,0.7,12.1,1.3l0.6,0.1c1.8,0.2,6.7,0.9,7.2,2.5c0.3,1-1,2.3-3.6,3.9c-0.7,0.4-2,0.6-4.1,0.6c-2.7,0-6-0.3-8.7-0.6
		c-1.9-0.2-3.5-0.3-4.5-0.4c-1.9,0-3.7,0-5.6-0.1c-3.2,0-6.4,0-9.7-0.2l-1,0c-4.5-0.2-9.2-0.4-13.8-0.4c-4.7,0-8.9,0.2-12.8,0.6
		l-0.5,0c-1.8,0-3.8-0.9-4.8-2.1c-0.5-0.6-1-1.6-0.4-2.8c0.6-1.2,8.3-1.7,11.1-1.8l1.6-0.1C240.6,183.9,245.2,183.8,249.7,183.7z"/>
	<path class="st2" d="M246.6,309.4l0,17c0,0.6,0.3,1.2,0.8,1.6c0.5,0.4,1.3,0.7,2.2,0.7c1.5,0,3-0.8,3-2.3l0-16.4
		c1.2,0.1,2.4,0.1,3.6,0.1l1.6,0c2.8-0.1,5.7-0.3,8.5-0.6l0,0.5c0.3,5.3,0.5,10.6,0.9,15.9c0.1,1.5,1.6,2.2,3.1,2.2
		c0.8,0,1.6-0.2,2.1-0.7c0.5-0.4,0.8-1,0.7-1.6c-0.4-5.8-0.7-11.5-0.9-17.3c9.8-2,21.1-6.5,20.7-17.1c-0.4-10.9-12.6-14.7-21.9-16.6
		c-0.2-9.7-0.3-19.7-0.3-30.7c5.3,0.6,12.2,2.3,16.3,7.2c0.6,0.7,1.4,1.1,2.5,1.1c1.2,0,2.3-0.5,2.8-1.3c0.5-0.7,0.4-1.5-0.2-2.2
		c-3.8-4.6-11.4-7.8-21.4-8.9c0,0,0-6.5,0-8.2c0-0.6-0.3-1.2-0.8-1.6c-0.5-0.4-1.3-0.7-2.2-0.7c-1.5,0-3,0.8-3,2.3
		c0,1.6,0,7.8,0,7.8c-0.6,0-1.2,0-1.9,0c-3.4,0-6.8,0.2-10.1,0.7l0-7.9c0-0.6-0.3-1.2-0.8-1.6c-0.5-0.4-1.3-0.7-2.2-0.7
		c-1.5,0-3,0.8-3,2.3l0,9c-15.6,3.7-23,11.5-19.7,20.9c2.9,8.4,12,11.4,19.6,13.1l-0.1,29.1c-8.8-1.8-14.7-6.2-17.8-13.6
		c-0.4-1-1.5-1.6-2.9-1.6c-1,0-2,0.4-2.5,1c-0.5,0.5-0.6,1.2-0.3,1.9C227.3,302.1,234.8,307.6,246.6,309.4z M233.5,256.8
		c1.2-3.6,5.4-7,11.8-9.5c0.5-0.2,1-0.4,1.5-0.5l-0.1,23.9c-5.1-1.3-8.5-3-10.7-5.5C233.4,262.4,232.6,259.6,233.5,256.8z
		 M258.9,272.9l-2.4-0.3c-1.3-0.2-2.6-0.4-3.9-0.6l0.1-26.8c3.9-0.8,8-1.3,12-1.3c0,10.6,0.1,20.5,0.3,30
		C262.9,273.5,260.9,273.2,258.9,272.9z M263.9,305.1c-2.5,0.2-4.9,0.3-7.1,0.3c-1.4,0-2.8,0-4.2-0.1l0.1-28.8
		c2.2,0.3,4.4,0.6,6.5,0.9c2,0.3,4,0.6,5.9,0.8c0.2,8.9,0.6,17.8,1,26.6C265.3,305,264.6,305.1,263.9,305.1z M271.9,303.9
		c-0.4-8.1-0.7-16.3-0.9-24.5c6.5,1.5,13.7,4.2,14.9,11.2C287.3,298.6,279.2,302.2,271.9,303.9z"/>
	<path class="st2" d="M173.4,277.4c3.9-15,11.8-28.8,23.4-41.2c0.6-0.7,0.8-1.4,0.3-2.1c-0.5-0.8-1.7-1.3-2.9-1.3
		c-1,0-1.9,0.4-2.5,1c-11.9,12.7-20,27-24.1,42.4c-0.2,0.7,0,1.4,0.6,2c0.6,0.6,1.6,0.9,2.5,0.9
		C172.1,279.1,173.1,278.5,173.4,277.4z"/>
	<path class="st2" d="M202.7,228.6c1.9,0,2.9-1.2,2.9-2.3c0-0.6-0.3-1.2-0.7-1.6c-0.5-0.5-1.3-0.7-2.2-0.7s-1.6,0.2-2.2,0.7
		c-0.5,0.4-0.7,1-0.7,1.6C199.8,227.4,200.8,228.6,202.7,228.6z"/>
</g>
</svg>
