<?xml version="1.0" encoding="utf-8"?>
<!-- Generator: Adobe Illustrator 16.0.0, SVG Export Plug-In . SVG Version: 6.00 Build 0)  -->
<!DOCTYPE svg PUBLIC "-//W3C//DTD SVG 1.1//EN" "http://www.w3.org/Graphics/SVG/1.1/DTD/svg11.dtd">
<svg version="1.1" id="Layer_1" xmlns="http://www.w3.org/2000/svg" xmlns:xlink="http://www.w3.org/1999/xlink" x="0px" y="0px"
	 width="512px" height="512px" viewBox="0 0 512 512" enable-background="new 0 0 512 512" xml:space="preserve">
<g>
	<g>
		
			<linearGradient id="SVGID_1_" gradientUnits="userSpaceOnUse" x1="74.9285" y1="403.4138" x2="391.0014" y2="87.3409" gradientTransform="matrix(1 0 0 -1 24.9448 503.3589)">
			<stop  offset="0" style="stop-color:#FF7601"/>
			<stop  offset="1" style="stop-color:#FF0000"/>
		</linearGradient>
		<path fill="url(#SVGID_1_)" d="M480.509,255.581c0,124.262-100.733,225-225,225s-225-100.738-225-225
			c0-124.264,100.733-225,225-225S480.509,131.317,480.509,255.581z"/>
		
			<linearGradient id="SVGID_2_" gradientUnits="userSpaceOnUse" x1="124.6165" y1="431.282" x2="336.5116" y2="64.2688" gradientTransform="matrix(1 0 0 -1 24.9448 503.3589)">
			<stop  offset="0" style="stop-color:#FF0000"/>
			<stop  offset="1" style="stop-color:#FF6301"/>
		</linearGradient>
		<path fill="url(#SVGID_2_)" d="M467.366,255.581c0,117.012-94.854,211.864-211.857,211.864S43.65,372.593,43.65,255.581
			c0-117.005,94.854-211.857,211.858-211.857S467.366,138.576,467.366,255.581z"/>
	</g>
</g>
<g opacity="0.4">
	<g>
		<path d="M129.213,250.771c0.721-2.573,1.259-5.196,2.176-7.689c5.855-16.021,16.944-26.284,33.869-29.32
			c6.082-1.102,12.426-0.746,18.649-1.053c0.072,0.214,0.135,0.435,0.195,0.654c-0.342,0.532-0.672,1.088-1.033,1.613
			c-6.319,9.083-11.711,18.662-15.739,28.992c-0.293,0.732-0.874,1.454-1.497,1.962c-4.14,3.275-6.253,7.48-6.253,12.799
			c0.023,24.981,0,49.951,0.012,74.945c0,9.102,6.296,15.373,15.428,15.385c48.191,0.007,96.395,0.007,144.585-0.012
			c6.234,0,11.395-2.023,14.113-8.111c0.593-1.32,0.911-2.781,1.155-4.205c0.151-0.874,0.795-2.134-0.947-2.408
			c-0.153-0.019-0.287-0.722-0.287-1.125c-0.031-11.938-0.031-23.882,0.012-35.825c0-0.508,0.318-1.21,0.733-1.516
			c9.229-6.98,18.497-13.906,27.757-20.844c0.135-0.099,0.324-0.116,0.643-0.228c0.05,0.601,0.129,1.106,0.129,1.626
			c0,19.433,0.165,38.869-0.067,58.302c-0.178,15.844-6.705,28.605-19.792,37.757c-5.856,4.083-12.445,6.326-19.548,7.072
			c-0.531,0.043-1.063,0.194-1.589,0.306c-50.703,0-101.412,0-152.115,0c-0.336-0.092-0.685-0.228-1.027-0.275
			c-17.512-2.078-29.565-11.437-36.467-27.5c-1.394-3.258-2.084-6.827-3.093-10.257
			C129.213,311.468,129.213,281.113,129.213,250.771z"/>
		<path d="M391.694,157.164c-1.21-0.03-2.42,0.006-3.643-0.085c-14.304-1.076-27.897,1.736-40.765,7.897
			c-18.905,9.059-32.915,23.147-42.183,41.956c-0.231,0.488-0.445,1.003-0.746,1.681c3.479,1.553,6.938,3.02,10.324,4.627
			c2.078,0.984,4.229,1.956,6.063,3.307c5.746,4.248,7.121,12.524,3.868,18.899c-2.071,4.028-5.078,6.596-8.953,8.686
			c-19.727,10.63-39.371,21.395-59.028,32.14c-10.894,5.96-22.152,0.604-24.519-11.51c-3.856-19.769-7.945-39.492-11.846-59.255
			c-0.911-4.584-1.913-9.205-2.127-13.845c-0.129-2.922,0.782-6.045,1.87-8.813c1.143-2.922,4.248-4.126,6.907-5.336
			c3.819-1.725,7.72-1.614,11.612,0.354c4.182,2.097,8.54,3.852,12.995,5.825c0.35-0.643,0.654-1.204,0.948-1.785
			c13.276-26.516,34.425-42.799,63.465-48.829c1.353-0.281,2.728-0.525,4.077-0.789c7.806,0,15.605,0,23.411,0
			c0.22,0.091,0.428,0.235,0.654,0.264c10.817,1.442,20.886,5.138,30.487,10.187c6.663,3.493,12.194,8.414,17.121,14.046
			C391.694,156.907,391.694,157.036,391.694,157.164z"/>
	</g>
	<g>
		<path d="M223.119,313.84c0,8.605-2.377,14.768-7.146,18.478c-3.875,2.996-9.522,4.493-16.944,4.493
			c-8.215,0-14.291-1.724-18.209-5.189c-4.297-3.796-6.447-9.896-6.447-18.301c0-6.87,1.925-12.237,5.758-16.076
			c4.175-4.175,10.409-6.265,18.716-6.265c9.145,0,15.593,2.005,19.346,6.021C221.475,300.538,223.119,306.149,223.119,313.84z
			 M211.866,313.582c0-4.357-1.039-7.816-3.1-10.391c-2.315-2.879-5.752-4.315-10.299-4.315c-4.468,0-7.849,1.553-10.116,4.633
			c-1.9,2.573-2.848,5.937-2.848,10.073c0,4.769,0.764,8.296,2.28,10.574c2.103,3.167,5.995,4.75,11.687,4.75
			c4.804,0,8.179-1.534,10.122-4.621C211.108,321.878,211.866,318.313,211.866,313.582z"/>
		<path d="M269.586,317.593h-30.538v18.404h-10.874v-27.151c0-1.682,0.318-3.532,0.954-5.557c1.216-3.655,3.496-6.399,6.828-8.203
			c3.955-2.188,10.385-3.289,19.278-3.289h14.353v7.396h-14.988c-4.004,0-6.828,0.208-8.466,0.636
			c-2.781,0.709-4.786,2.243-6.015,4.585c-0.881,1.717-1.32,3.648-1.32,5.782h30.789L269.586,317.593L269.586,317.593z"/>
		<path d="M322.941,336.125h-12.896l-11.309-14.799l-10.494,14.799H275.02l17.269-22.041l-16.883-22.287h13.271l10.122,14.67
			l10.813-14.67h12.893l-17.006,22.165L322.941,336.125z"/>
	</g>
</g>
<g>
	<g>
		<path fill="#FFFFFF" d="M139.213,240.771c0.721-2.573,1.259-5.196,2.176-7.689c5.855-16.021,16.944-26.284,33.869-29.32
			c6.082-1.102,12.426-0.746,18.649-1.053c0.072,0.214,0.135,0.435,0.195,0.654c-0.342,0.532-0.672,1.088-1.033,1.613
			c-6.319,9.083-11.711,18.662-15.739,28.992c-0.293,0.732-0.874,1.454-1.497,1.962c-4.14,3.275-6.253,7.48-6.253,12.799
			c0.023,24.981,0,49.951,0.012,74.945c0,9.102,6.296,15.373,15.428,15.385c48.191,0.007,96.395,0.007,144.585-0.012
			c6.234,0,11.395-2.023,14.113-8.111c0.593-1.32,0.911-2.781,1.155-4.205c0.151-0.874,0.795-2.134-0.947-2.408
			c-0.153-0.019-0.287-0.722-0.287-1.125c-0.031-11.938-0.031-23.882,0.012-35.825c0-0.508,0.318-1.21,0.733-1.516
			c9.229-6.98,18.497-13.906,27.757-20.844c0.135-0.099,0.324-0.116,0.643-0.228c0.05,0.601,0.129,1.106,0.129,1.626
			c0,19.433,0.165,38.869-0.067,58.302c-0.178,15.844-6.705,28.605-19.792,37.757c-5.856,4.083-12.445,6.326-19.548,7.072
			c-0.531,0.043-1.063,0.194-1.589,0.306c-50.703,0-101.412,0-152.115,0c-0.336-0.092-0.685-0.228-1.027-0.275
			c-17.512-2.078-29.565-11.437-36.467-27.5c-1.394-3.258-2.084-6.827-3.093-10.257
			C139.213,301.468,139.213,271.113,139.213,240.771z"/>
		<path fill="#FFFFFF" d="M401.694,147.164c-1.21-0.03-2.42,0.006-3.643-0.085c-14.304-1.076-27.897,1.736-40.765,7.897
			c-18.905,9.059-32.915,23.147-42.183,41.956c-0.231,0.488-0.445,1.003-0.746,1.681c3.479,1.553,6.938,3.02,10.324,4.627
			c2.078,0.984,4.229,1.956,6.063,3.307c5.746,4.248,7.121,12.524,3.868,18.899c-2.071,4.028-5.078,6.596-8.953,8.686
			c-19.727,10.63-39.371,21.395-59.028,32.14c-10.894,5.96-22.152,0.604-24.519-11.51c-3.856-19.769-7.945-39.492-11.846-59.255
			c-0.911-4.584-1.913-9.205-2.127-13.845c-0.129-2.922,0.782-6.045,1.87-8.813c1.143-2.922,4.248-4.126,6.907-5.336
			c3.819-1.725,7.72-1.614,11.612,0.354c4.182,2.097,8.54,3.852,12.995,5.825c0.35-0.643,0.654-1.204,0.948-1.785
			c13.276-26.516,34.425-42.799,63.465-48.829c1.353-0.281,2.728-0.525,4.077-0.789c7.806,0,15.605,0,23.411,0
			c0.22,0.091,0.428,0.235,0.654,0.264c10.817,1.442,20.886,5.138,30.487,10.187c6.663,3.493,12.194,8.414,17.121,14.046
			C401.694,146.907,401.694,147.036,401.694,147.164z"/>
	</g>
	<g>
		<path fill="#FFFFFF" d="M233.119,303.84c0,8.605-2.377,14.768-7.146,18.478c-3.875,2.996-9.522,4.493-16.944,4.493
			c-8.215,0-14.291-1.724-18.209-5.189c-4.297-3.796-6.447-9.896-6.447-18.301c0-6.87,1.925-12.237,5.758-16.076
			c4.175-4.175,10.409-6.265,18.716-6.265c9.145,0,15.593,2.005,19.346,6.021C231.475,290.538,233.119,296.149,233.119,303.84z
			 M221.866,303.582c0-4.357-1.039-7.816-3.1-10.391c-2.315-2.879-5.752-4.315-10.299-4.315c-4.468,0-7.849,1.553-10.116,4.633
			c-1.9,2.573-2.848,5.937-2.848,10.073c0,4.769,0.764,8.296,2.28,10.574c2.103,3.167,5.995,4.75,11.687,4.75
			c4.804,0,8.179-1.534,10.122-4.621C221.108,311.878,221.866,308.313,221.866,303.582z"/>
		<path fill="#FFFFFF" d="M279.586,307.593h-30.538v18.404h-10.874v-27.151c0-1.682,0.318-3.532,0.954-5.557
			c1.216-3.655,3.496-6.399,6.828-8.203c3.955-2.188,10.385-3.289,19.278-3.289h14.353v7.396h-14.988
			c-4.004,0-6.828,0.208-8.466,0.636c-2.781,0.709-4.786,2.243-6.015,4.585c-0.881,1.717-1.32,3.648-1.32,5.782h30.789
			L279.586,307.593L279.586,307.593z"/>
		<path fill="#FFFFFF" d="M332.941,326.125h-12.896l-11.309-14.799l-10.494,14.799H285.02l17.269-22.041l-16.883-22.287h13.271
			l10.122,14.67l10.813-14.67h12.893l-17.006,22.165L332.941,326.125z"/>
	</g>
</g>
</svg>
