<?xml version="1.0" encoding="utf-8"?>
<!-- Generator: Adobe Illustrator 16.0.0, SVG Export Plug-In . SVG Version: 6.00 Build 0)  -->
<!DOCTYPE svg PUBLIC "-//W3C//DTD SVG 1.1//EN" "http://www.w3.org/Graphics/SVG/1.1/DTD/svg11.dtd">
<svg version="1.1" id="Layer_1" xmlns="http://www.w3.org/2000/svg" xmlns:xlink="http://www.w3.org/1999/xlink" x="0px" y="0px"
	 width="512px" height="512px" viewBox="0 0 512 512" enable-background="new 0 0 512 512" xml:space="preserve">
<g>
	<g>
		
			<linearGradient id="SVGID_1_" gradientUnits="userSpaceOnUse" x1="74.7595" y1="403.4138" x2="390.8327" y2="87.3405" gradientTransform="matrix(1 0 0 -1 24.9448 503.3589)">
			<stop  offset="0" style="stop-color:#FF7601"/>
			<stop  offset="1" style="stop-color:#FF0000"/>
		</linearGradient>
		<path fill="url(#SVGID_1_)" d="M480.341,255.581c0,124.262-100.733,225-225,225s-225-100.738-225-225
			c0-124.264,100.733-225,225-225S480.341,131.317,480.341,255.581z"/>
		
			<linearGradient id="SVGID_2_" gradientUnits="userSpaceOnUse" x1="124.4485" y1="431.283" x2="336.3436" y2="64.2698" gradientTransform="matrix(1 0 0 -1 24.9448 503.3589)">
			<stop  offset="0" style="stop-color:#FF0000"/>
			<stop  offset="1" style="stop-color:#FF6301"/>
		</linearGradient>
		<path fill="url(#SVGID_2_)" d="M467.198,255.581c0,117.012-94.854,211.864-211.857,211.864S43.482,372.593,43.482,255.581
			c0-117.005,94.854-211.857,211.858-211.857S467.198,138.576,467.198,255.581z"/>
	</g>
</g>
<g opacity="0.4">
	<g>
		<path d="M136.948,246.559c0.691-2.458,1.211-4.977,2.092-7.372c5.623-15.373,16.259-25.221,32.5-28.143
			c5.837-1.051,11.925-0.709,17.891-1.002c0.067,0.202,0.128,0.41,0.189,0.617c-0.33,0.521-0.637,1.052-0.99,1.553
			c-6.059,8.724-11.235,17.916-15.104,27.824c-0.274,0.709-0.831,1.399-1.441,1.883c-3.967,3.147-5.997,7.177-5.997,12.28
			c0.024,23.973,0,47.94,0.019,71.919c0,8.74,6.033,14.756,14.798,14.763c46.247,0.012,92.5,0.012,138.747-0.007
			c5.979,0,10.936-1.938,13.545-7.787c0.568-1.26,0.868-2.659,1.106-4.034c0.141-0.831,0.771-2.048-0.904-2.306
			c-0.152-0.018-0.28-0.701-0.28-1.08c-0.02-11.461-0.024-22.917,0.019-34.378c0-0.495,0.305-1.161,0.696-1.455
			c8.856-6.698,17.751-13.35,26.638-20.006c0.129-0.098,0.313-0.109,0.624-0.214c0.036,0.568,0.11,1.063,0.11,1.553
			c0,18.655,0.157,37.306-0.05,55.953c-0.172,15.195-6.448,27.445-19.004,36.224c-5.616,3.924-11.938,6.082-18.753,6.785
			c-0.514,0.055-1.015,0.2-1.521,0.306c-48.661,0-97.316,0-145.979,0c-0.33-0.086-0.653-0.221-0.989-0.263
			c-16.798-1.999-28.374-10.979-34.988-26.396c-1.345-3.129-1.999-6.552-2.971-9.841
			C136.948,304.816,136.948,275.685,136.948,246.559z"/>
		<path d="M388.831,156.736c-1.161-0.024-2.329,0.012-3.49-0.073c-13.734-1.039-26.778,1.662-39.12,7.579
			c-18.146,8.687-31.589,22.207-40.477,40.257c-0.227,0.472-0.429,0.954-0.722,1.614c3.337,1.485,6.656,2.897,9.901,4.438
			c1.999,0.941,4.06,1.877,5.825,3.18c5.514,4.077,6.84,12.017,3.711,18.129c-1.993,3.869-4.865,6.333-8.595,8.337
			c-18.925,10.202-37.774,20.532-56.645,30.843c-10.453,5.716-21.247,0.581-23.527-11.045c-3.704-18.967-7.615-37.896-11.368-56.864
			c-0.874-4.395-1.841-8.825-2.042-13.281c-0.123-2.801,0.752-5.802,1.797-8.46c1.105-2.807,4.083-3.968,6.632-5.122
			c3.661-1.656,7.401-1.546,11.143,0.342c4.01,2.017,8.19,3.691,12.476,5.587c0.323-0.618,0.63-1.155,0.904-1.711
			c12.745-25.446,33.039-41.07,60.899-46.858c1.302-0.269,2.616-0.504,3.918-0.755c7.487,0,14.97,0,22.457,0
			c0.214,0.085,0.416,0.224,0.636,0.254c10.379,1.381,20.037,4.926,29.254,9.769c6.4,3.361,11.706,8.078,16.432,13.483
			C388.831,156.492,388.831,156.614,388.831,156.736z"/>
	</g>
	<g>
		<path d="M239.84,334.794h-15.031l-2.207-2.751c-2.922,1.197-5.532,2.084-7.836,2.658c-2.311,0.574-4.816,0.861-7.537,0.861
			c-9.217,0-16.362-2.225-21.437-6.675c-5.33-4.7-7.995-11.607-7.995-20.709c0-9.255,2.427-16.26,7.273-21.016
			c4.854-4.756,12.263-7.127,22.214-7.127c9.651,0,17.005,2.549,22.06,7.652c4.34,4.396,6.51,10.086,6.51,17.078
			c0,5.062-0.231,8.76-0.69,11.113c-0.716,3.568-2.22,6.968-4.518,10.183L239.84,334.794z M222.603,307.678
			c0-4.896-1.021-8.883-3.063-11.95c-2.653-3.932-6.791-5.887-12.408-5.887c-5.306,0-9.279,1.504-11.907,4.512
			c-2.628,3.014-3.941,7.354-3.941,13.025c0,6.382,1.527,11.052,4.597,14.016c2.75,2.659,6.84,3.979,12.249,3.979
			c4.901,0,8.539-1.49,10.917-4.479C221.417,317.91,222.603,313.504,222.603,307.678z"/>
		<path d="M256.38,334.566h-14.321v-53.539h14.321V334.566z"/>
		<path d="M314.283,312.274h-36.998v22.292h-13.167v-32.893c0-2.034,0.379-4.277,1.148-6.729c1.473-4.432,4.236-7.744,8.264-9.938
			c4.806-2.652,12.587-3.979,23.368-3.979h17.385v8.961h-18.154c-4.854,0-8.271,0.25-10.263,0.764
			c-3.374,0.862-5.802,2.714-7.273,5.558c-1.076,2.084-1.614,4.419-1.614,7.011h37.306L314.283,312.274L314.283,312.274z"/>
	</g>
</g>
<g>
	<g>
		<path fill="#FFFFFF" d="M146.948,236.559c0.691-2.458,1.211-4.977,2.092-7.372c5.623-15.373,16.259-25.221,32.5-28.143
			c5.837-1.051,11.925-0.709,17.891-1.002c0.067,0.202,0.128,0.41,0.189,0.617c-0.33,0.521-0.637,1.052-0.99,1.553
			c-6.059,8.724-11.235,17.916-15.104,27.824c-0.274,0.709-0.831,1.399-1.441,1.883c-3.967,3.147-5.997,7.177-5.997,12.28
			c0.024,23.973,0,47.94,0.019,71.919c0,8.74,6.033,14.756,14.798,14.763c46.247,0.012,92.5,0.012,138.747-0.007
			c5.979,0,10.936-1.938,13.545-7.787c0.568-1.26,0.868-2.659,1.106-4.034c0.141-0.831,0.771-2.048-0.904-2.306
			c-0.152-0.018-0.28-0.701-0.28-1.08c-0.02-11.461-0.024-22.917,0.019-34.378c0-0.495,0.305-1.161,0.696-1.455
			c8.856-6.698,17.751-13.35,26.638-20.006c0.129-0.098,0.313-0.109,0.624-0.214c0.036,0.568,0.11,1.063,0.11,1.553
			c0,18.655,0.157,37.306-0.05,55.953c-0.172,15.195-6.448,27.445-19.004,36.224c-5.616,3.924-11.938,6.082-18.753,6.785
			c-0.514,0.055-1.015,0.2-1.521,0.306c-48.661,0-97.316,0-145.979,0c-0.33-0.086-0.653-0.221-0.989-0.263
			c-16.798-1.999-28.374-10.979-34.988-26.396c-1.345-3.129-1.999-6.552-2.971-9.841
			C146.948,294.816,146.948,265.685,146.948,236.559z"/>
		<path fill="#FFFFFF" d="M398.831,146.736c-1.161-0.024-2.329,0.012-3.49-0.073c-13.734-1.039-26.778,1.662-39.12,7.579
			c-18.146,8.687-31.589,22.207-40.477,40.257c-0.227,0.472-0.429,0.954-0.722,1.614c3.337,1.485,6.656,2.897,9.901,4.438
			c1.999,0.941,4.06,1.877,5.825,3.18c5.514,4.077,6.84,12.017,3.711,18.129c-1.993,3.869-4.865,6.333-8.595,8.337
			c-18.925,10.202-37.774,20.532-56.645,30.843c-10.453,5.716-21.247,0.581-23.527-11.045c-3.704-18.967-7.615-37.896-11.368-56.864
			c-0.874-4.395-1.841-8.825-2.042-13.281c-0.123-2.801,0.752-5.802,1.797-8.46c1.105-2.807,4.083-3.968,6.632-5.122
			c3.661-1.656,7.401-1.546,11.143,0.342c4.01,2.017,8.19,3.691,12.476,5.587c0.323-0.618,0.63-1.155,0.904-1.711
			c12.745-25.446,33.039-41.07,60.899-46.858c1.302-0.269,2.616-0.504,3.918-0.755c7.487,0,14.97,0,22.457,0
			c0.214,0.085,0.416,0.224,0.636,0.254c10.379,1.381,20.037,4.926,29.254,9.769c6.4,3.361,11.706,8.078,16.432,13.483
			C398.831,146.492,398.831,146.614,398.831,146.736z"/>
	</g>
	<g>
		<path fill="#FFFFFF" d="M249.84,324.794h-15.031l-2.207-2.751c-2.922,1.197-5.532,2.084-7.836,2.658
			c-2.311,0.574-4.816,0.861-7.537,0.861c-9.217,0-16.362-2.225-21.437-6.675c-5.33-4.7-7.995-11.607-7.995-20.709
			c0-9.255,2.427-16.26,7.273-21.016c4.854-4.756,12.263-7.127,22.214-7.127c9.651,0,17.005,2.549,22.06,7.652
			c4.34,4.396,6.51,10.086,6.51,17.078c0,5.062-0.231,8.76-0.69,11.113c-0.716,3.568-2.22,6.968-4.518,10.183L249.84,324.794z
			 M232.603,297.678c0-4.896-1.021-8.883-3.063-11.95c-2.653-3.932-6.791-5.887-12.408-5.887c-5.306,0-9.279,1.504-11.907,4.512
			c-2.628,3.014-3.941,7.354-3.941,13.025c0,6.382,1.527,11.052,4.597,14.016c2.75,2.659,6.84,3.979,12.249,3.979
			c4.901,0,8.539-1.49,10.917-4.479C231.417,307.91,232.603,303.504,232.603,297.678z"/>
		<path fill="#FFFFFF" d="M266.38,324.566h-14.321v-53.539h14.321V324.566z"/>
		<path fill="#FFFFFF" d="M324.283,302.274h-36.998v22.292h-13.167v-32.893c0-2.034,0.379-4.277,1.148-6.729
			c1.473-4.432,4.236-7.744,8.264-9.938c4.806-2.652,12.587-3.979,23.368-3.979h17.385v8.961h-18.154
			c-4.854,0-8.271,0.25-10.263,0.764c-3.374,0.862-5.802,2.714-7.273,5.558c-1.076,2.084-1.614,4.419-1.614,7.011h37.306
			L324.283,302.274L324.283,302.274z"/>
	</g>
</g>
</svg>
