<?xml version="1.0" encoding="utf-8"?>
<!-- Generator: Adobe Illustrator 16.0.0, SVG Export Plug-In . SVG Version: 6.00 Build 0)  -->
<!DOCTYPE svg PUBLIC "-//W3C//DTD SVG 1.1//EN" "http://www.w3.org/Graphics/SVG/1.1/DTD/svg11.dtd">
<svg version="1.1" id="Layer_1" xmlns="http://www.w3.org/2000/svg" xmlns:xlink="http://www.w3.org/1999/xlink" x="0px" y="0px"
	 width="512px" height="512px" viewBox="0 0 512 512" enable-background="new 0 0 512 512" xml:space="preserve">
<g>
	<g>
		
			<linearGradient id="SVGID_1_" gradientUnits="userSpaceOnUse" x1="78.5637" y1="399.5408" x2="394.6368" y2="83.4676" gradientTransform="matrix(1 0 0 -1 24.9448 503.3589)">
			<stop  offset="0" style="stop-color:#FF00FF"/>
			<stop  offset="1" style="stop-color:#FF006F"/>
		</linearGradient>
		<path fill="url(#SVGID_1_)" d="M484.145,259.455c0,124.262-100.732,225-225,225c-124.267,0-225-100.738-225-225
			c0-124.267,100.733-225,225-225C383.412,34.455,484.145,135.188,484.145,259.455z"/>
		
			<linearGradient id="SVGID_2_" gradientUnits="userSpaceOnUse" x1="128.2546" y1="427.4099" x2="340.1479" y2="60.3999" gradientTransform="matrix(1 0 0 -1 24.9448 503.3589)">
			<stop  offset="0" style="stop-color:#FF006F"/>
			<stop  offset="0.6601" style="stop-color:#FF007F"/>
			<stop  offset="1" style="stop-color:#FF00FF"/>
		</linearGradient>
		<circle fill="url(#SVGID_2_)" cx="259.145" cy="259.455" r="211.858"/>
	</g>
</g>
<g opacity="0.6">
	<g>
		<path d="M177.69,135.14c3.148-3.345,6.388-9.572,9.432-9.476c7.903,0.245,5.066,7.751,5.403,12.659
			c0.293,4.272,0.373,8.637-0.195,12.86c-0.733,5.336-6.271,7.091-10.221,3.582c-5.317-4.726-19.927-8.044-23.44-3.595
			c-3.563,4.492-3.833,11.602-5.838,18.595c49.206,0,95.813,0,142.378,0c4.192-15.214,1.84-18.704-14.262-20.697
			c0-3.307,0-6.668,0-10.012c17.83-4.022,28.003,3.601,28.167,21.369c0.189,19.297,0.042,38.601,0.042,59.053
			c-4.369-0.88-7.914-1.596-12.469-2.513c0-11.827,0-23.74,0-36.088c-47.623,0-94.212,0-141.516,0
			c-0.227,2.316-0.629,4.609-0.629,6.896c-0.043,26.852-0.063,53.698-0.02,80.55c0.02,10.128,1.395,11.455,11.768,11.467
			c22.8,0.037,45.61,0.014,68.912,0.014c1.253,3.93,2.42,7.622,3.845,12.071c-2.097,0.201-3.576,0.464-5.067,0.464
			c-23.35,0.024-46.711,0.13-70.072-0.012c-15.153-0.098-22.061-7.14-22.084-22.358c-0.067-36.511-0.056-73.026-0.007-109.542
			c0.025-15.788,6.749-22.402,22.629-22.524c4.799-0.037,9.604-0.012,14.401-0.012C178.46,136.974,178.075,136.057,177.69,135.14z"
			/>
		<path d="M203.509,149.754c0-4.198,0-7.353,0-11.51c17.873,0,35.672,0,52.824,0c0.935-1.406,1.404-1.809,1.461-2.261
			c0.513-4.676-0.318-10.862,6.577-10.758c7.311,0.104,6.559,6.362,6.602,11.448c0.023,4.285,0.525,8.667-0.231,12.824
			c-0.453,2.451-2.567,5.782-4.635,6.412c-1.974,0.599-4.864-1.779-7.335-2.896c-2.364-1.059-4.707-3.069-7.078-3.111
			C235.923,149.614,220.153,149.754,203.509,149.754z"/>
		<path d="M182.494,264.07c-0.802,0-1.607,0-2.402,0c-10.574-0.013-16.357-9.774-11.187-19.114c0.66-1.191,2.391-2.48,3.668-2.529
			c6.662-0.27,13.367-0.446,19.993,0.055c1.608,0.123,3.026,2.922,4.493,4.518c0.147,0.152,0.043,0.521,0.074,0.782
			C199.041,262.713,197.83,264.058,182.494,264.07z"/>
		<path d="M182.183,225.812c-2.133,0-4.285-0.147-6.399,0.018c-5.489,0.44-7.946-1.985-7.58-7.48
			c0.152-2.396,0.104-4.805,0.006-7.207c-0.202-4.958,1.82-7.549,7.071-7.194c2.659,0.177,5.337,0.024,8.009,0.024
			c14.04,0,16.729,3.159,13.618,16.992c-0.429,1.89-3.13,4.06-5.178,4.584c-2.995,0.789-6.345,0.208-9.547,0.208
			C182.183,225.775,182.183,225.788,182.183,225.812z"/>
		<path d="M225.569,203.997c0.802,0,1.602-0.006,2.402,0c11.271,0.056,16.247,7.323,11.632,18.021
			c-0.874,2.005-5.134,3.723-7.726,3.576c-6.822-0.373-14.285-0.508-20-3.539c-2.194-1.167-0.581-9.97-0.135-15.232
			c0.086-1.045,2.665-2.463,4.235-2.671c3.143-0.422,6.387-0.128,9.59-0.128C225.569,204.015,225.569,204.009,225.569,203.997z"/>
		<path d="M235.086,264.07c-3.295,0-6.485,0-9.683,0c-14.933-0.013-16.546-1.748-14.053-16.657c0.318-1.95,2.922-4.805,4.707-4.988
			c6.094-0.636,12.305-0.465,18.454-0.22c5,0.202,6.345,3.423,5.08,7.824C238.265,254.62,236.681,259.137,235.086,264.07z"/>
		<path d="M281.926,216.319c-6.992,2.891-13.441,5.452-19.792,8.24c-5.428,2.372-8.283,0.897-8.472-5.123
			c-0.073-2.42,0.158-4.854-0.062-7.243c-0.587-6.345,2.207-8.899,8.479-8.271c2.929,0.293,5.897,0.05,8.856,0.067
			C283.008,204.027,283.014,204.04,281.926,216.319z"/>
	</g>
	<g>
		<path d="M330.11,221.545c0.99,0.746,2.035,1.412,2.94,2.244c4.04,3.704,4.144,9.854,0.273,13.625
			c-3.788,3.704-9.699,3.588-13.386-0.263c-3.729-3.899-3.387-10.062,0.771-13.618c0.844-0.722,1.785-1.327,2.678-1.987
			C325.624,221.545,327.867,221.545,330.11,221.545z"/>
		<path d="M326.993,298.568c10.579,0,21.167,0.086,31.748-0.055c2.896-0.037,3.918,0.818,3.875,3.813
			c-0.165,10.207-0.03,20.422-0.079,30.637c-0.024,4.992-2.066,7.077-7.042,7.09c-19.176,0.037-38.355,0.037-57.53-0.013
			c-4.854-0.007-6.853-2.048-6.87-6.804c-0.037-10.458,0.067-20.916-0.067-31.381c-0.036-2.695,0.941-3.355,3.467-3.332
			C305.324,298.63,316.155,298.568,326.993,298.568z M335.471,307.139c-4.175,4.584-8.063,8.851-12.072,13.252
			c-2.353-2.231-4.297-4.077-6.418-6.088c-1.271,1.387-2.304,2.518-2.615,2.854c3.344,3.645,6.326,6.896,8.605,9.377
			c5.386-5.194,10.801-10.416,16.32-15.738C338.436,309.969,337.457,309.039,335.471,307.139z"/>
		<path d="M291.113,294.626c0-4.271-0.152-8.36,0.05-12.433c0.171-3.551,2.512-5.33,6.74-5.336
			c13.186-0.043,26.376-0.024,39.562-0.024c5.85,0,11.691-0.019,17.536,0.013c5.274,0.03,7.286,1.975,7.372,7.134
			c0.062,3.453,0.012,6.913,0.012,10.646C338.558,294.626,315.123,294.626,291.113,294.626z M311.963,286.093
			c-2.17-1.576-3.473-3.258-4.628-3.159c-1.21,0.099-2.273,1.9-3.404,2.959c1.069,1.111,2.042,2.964,3.233,3.116
			C308.313,289.155,309.701,287.561,311.963,286.093z M350.936,286.051c-2.207-1.57-3.515-3.228-4.65-3.11
			c-1.218,0.122-2.274,1.899-3.398,2.952c1.069,1.105,2.035,2.958,3.228,3.104C347.268,289.144,348.644,287.542,350.936,286.051z"/>
		<path d="M396.363,334.67c-5.52-3.216-5.77-3.767-4.517-9.047c7.146-30.245-7.226-61.339-35.031-75.771
			c-5.085-2.642-5.141-2.764-4.126-9.322c17.936,7.231,31.389,19.071,39.971,36.186C402.029,295.408,402.813,314.699,396.363,334.67
			z"/>
		<path d="M255.355,334.565c-14.615-36.253,6.32-81.583,43.081-93.405c1.352,5.293,1.002,6.131-3.552,8.46
			c-27.977,14.321-42.5,44.798-35.482,75.429C260.465,329.713,259.45,332.335,255.355,334.565z"/>
		<path d="M271.088,373.386c-4.726,0-9.462-0.185-14.168,0.061c-3.209,0.165-4.23-1.063-3.888-4.069
			c0.177-1.597-0.031-3.24,0.085-4.849c0.312-4.633,3.478-7.981,8.129-8.117c6.583-0.194,13.179-0.194,19.762-0.006
			c4.896,0.142,8.032,3.63,8.387,8.759c0.574,8.223,0.574,8.223-7.5,8.223C278.295,373.386,274.688,373.386,271.088,373.386z"/>
		<path d="M381.369,373.221c-4.964,0-9.934-0.08-14.896,0.03c-2.183,0.049-3.246-0.605-3.075-2.946
			c0.147-1.98-0.065-3.979,0.099-5.953c0.354-4.444,3.503-7.788,7.916-7.922c6.692-0.208,13.403-0.222,20.104,0
			c4.564,0.151,7.457,3.508,7.872,8.36c0.722,8.431,0.722,8.431-7.592,8.431C388.325,373.221,384.848,373.221,381.369,373.221z"/>
		<path d="M308.833,260.274c0-3.332-0.343-6.443,0.079-9.444c0.624-4.425,3.771-6.968,8.258-7.041
			c6.333-0.109,12.672-0.123,18.998,0c4.938,0.085,8.104,3.245,8.337,8.166c0.129,2.689,0.023,5.397,0.023,8.319
			C332.513,260.274,320.893,260.274,308.833,260.274z"/>
		<path d="M356.913,376.43c-20.116,9.113-39.885,9.205-59.95,1.015c2.859-5.202,3.776-5.563,8.68-4.053
			c13.852,4.254,27.695,4.224,41.467-0.343C352.732,371.191,352.714,371.143,356.913,376.43z"/>
		<path d="M280.758,343.452c-0.036,5.185-4.291,9.456-9.48,9.519c-5.269,0.066-9.804-4.426-9.749-9.67
			c0.05-5.104,4.39-9.438,9.529-9.519C276.369,333.703,280.795,338.116,280.758,343.452z"/>
		<path d="M390.887,343.403c-0.013,5.33-4.139,9.391-9.475,9.315c-5.178-0.073-9.193-4.046-9.278-9.188
			c-0.086-5.281,4.016-9.456,9.333-9.505C386.797,333.984,390.893,338.067,390.887,343.403z"/>
	</g>
</g>
<g>
	<g>
		<path fill="#FFFFFF" d="M185.69,128.14c3.148-3.345,6.388-9.572,9.432-9.476c7.903,0.245,5.066,7.751,5.403,12.659
			c0.293,4.272,0.373,8.637-0.195,12.86c-0.733,5.336-6.271,7.091-10.221,3.582c-5.317-4.726-19.927-8.044-23.44-3.595
			c-3.563,4.492-3.833,11.602-5.838,18.595c49.206,0,95.813,0,142.378,0c4.192-15.214,1.84-18.704-14.262-20.697
			c0-3.307,0-6.668,0-10.012c17.83-4.022,28.003,3.601,28.167,21.369c0.189,19.297,0.042,38.601,0.042,59.053
			c-4.369-0.88-7.914-1.596-12.469-2.513c0-11.827,0-23.74,0-36.088c-47.623,0-94.212,0-141.516,0
			c-0.227,2.316-0.629,4.609-0.629,6.896c-0.043,26.852-0.063,53.698-0.02,80.55c0.02,10.128,1.395,11.455,11.768,11.467
			c22.8,0.037,45.61,0.014,68.912,0.014c1.253,3.93,2.42,7.622,3.845,12.071c-2.097,0.201-3.576,0.464-5.067,0.464
			c-23.35,0.024-46.711,0.13-70.072-0.012c-15.153-0.098-22.061-7.14-22.084-22.358c-0.067-36.511-0.056-73.026-0.007-109.542
			c0.025-15.788,6.749-22.402,22.629-22.524c4.799-0.037,9.604-0.012,14.401-0.012C186.46,129.974,186.075,129.057,185.69,128.14z"
			/>
		<path fill="#FFFFFF" d="M211.509,142.754c0-4.198,0-7.353,0-11.51c17.873,0,35.672,0,52.824,0
			c0.935-1.406,1.404-1.809,1.461-2.261c0.513-4.676-0.318-10.862,6.577-10.758c7.311,0.104,6.559,6.362,6.602,11.448
			c0.023,4.285,0.525,8.667-0.231,12.824c-0.453,2.451-2.567,5.782-4.635,6.412c-1.974,0.599-4.864-1.779-7.335-2.896
			c-2.364-1.059-4.707-3.069-7.078-3.111C243.923,142.614,228.153,142.754,211.509,142.754z"/>
		<path fill="#FFFFFF" d="M190.494,257.07c-0.802,0-1.607,0-2.402,0c-10.574-0.013-16.357-9.774-11.187-19.114
			c0.66-1.191,2.391-2.48,3.668-2.529c6.662-0.27,13.367-0.446,19.993,0.055c1.608,0.123,3.026,2.922,4.493,4.518
			c0.147,0.152,0.043,0.521,0.074,0.782C207.041,255.713,205.83,257.058,190.494,257.07z"/>
		<path fill="#FFFFFF" d="M190.183,218.812c-2.133,0-4.285-0.147-6.399,0.018c-5.489,0.44-7.946-1.985-7.58-7.48
			c0.152-2.396,0.104-4.805,0.006-7.207c-0.202-4.958,1.82-7.549,7.071-7.194c2.659,0.177,5.337,0.024,8.009,0.024
			c14.04,0,16.729,3.159,13.618,16.992c-0.429,1.89-3.13,4.06-5.178,4.584c-2.995,0.789-6.345,0.208-9.547,0.208
			C190.183,218.775,190.183,218.788,190.183,218.812z"/>
		<path fill="#FFFFFF" d="M233.569,196.997c0.802,0,1.602-0.006,2.402,0c11.271,0.056,16.247,7.323,11.632,18.021
			c-0.874,2.005-5.134,3.723-7.726,3.576c-6.822-0.373-14.285-0.508-20-3.539c-2.194-1.167-0.581-9.97-0.135-15.232
			c0.086-1.045,2.665-2.463,4.235-2.671c3.143-0.422,6.387-0.128,9.59-0.128C233.569,197.015,233.569,197.009,233.569,196.997z"/>
		<path fill="#FFFFFF" d="M243.086,257.07c-3.295,0-6.485,0-9.683,0c-14.933-0.013-16.546-1.748-14.053-16.657
			c0.318-1.95,2.922-4.805,4.707-4.988c6.094-0.636,12.305-0.465,18.454-0.22c5,0.202,6.345,3.423,5.08,7.824
			C246.265,247.62,244.681,252.137,243.086,257.07z"/>
		<path fill="#FFFFFF" d="M289.926,209.319c-6.992,2.891-13.441,5.452-19.792,8.24c-5.428,2.372-8.283,0.897-8.472-5.123
			c-0.073-2.42,0.158-4.854-0.062-7.243c-0.587-6.345,2.207-8.899,8.479-8.271c2.929,0.293,5.897,0.05,8.856,0.067
			C291.008,197.027,291.014,197.04,289.926,209.319z"/>
	</g>
	<g>
		<path fill="#FFFFFF" d="M338.11,214.545c0.99,0.746,2.035,1.412,2.94,2.244c4.04,3.704,4.144,9.854,0.273,13.625
			c-3.788,3.704-9.699,3.588-13.386-0.263c-3.729-3.899-3.387-10.062,0.771-13.618c0.844-0.722,1.785-1.327,2.678-1.987
			C333.624,214.545,335.867,214.545,338.11,214.545z"/>
		<path fill="#FFFFFF" d="M334.993,291.568c10.579,0,21.167,0.086,31.748-0.055c2.896-0.037,3.918,0.818,3.875,3.813
			c-0.165,10.207-0.03,20.422-0.079,30.637c-0.024,4.992-2.066,7.077-7.042,7.09c-19.176,0.037-38.355,0.037-57.53-0.013
			c-4.854-0.007-6.853-2.048-6.87-6.804c-0.037-10.458,0.067-20.916-0.067-31.381c-0.036-2.695,0.941-3.355,3.467-3.332
			C313.324,291.63,324.155,291.568,334.993,291.568z M343.471,300.139c-4.175,4.584-8.063,8.851-12.072,13.252
			c-2.353-2.231-4.297-4.077-6.418-6.088c-1.271,1.387-2.304,2.518-2.615,2.854c3.344,3.645,6.326,6.896,8.605,9.377
			c5.386-5.194,10.801-10.416,16.32-15.738C346.436,302.969,345.457,302.039,343.471,300.139z"/>
		<path fill="#FFFFFF" d="M299.113,287.626c0-4.271-0.152-8.36,0.05-12.433c0.171-3.551,2.512-5.33,6.74-5.336
			c13.186-0.043,26.376-0.024,39.562-0.024c5.85,0,11.691-0.019,17.536,0.013c5.274,0.03,7.286,1.975,7.372,7.134
			c0.062,3.453,0.012,6.913,0.012,10.646C346.558,287.626,323.123,287.626,299.113,287.626z M319.963,279.093
			c-2.17-1.576-3.473-3.258-4.628-3.159c-1.21,0.099-2.273,1.9-3.404,2.959c1.069,1.111,2.042,2.964,3.233,3.116
			C316.313,282.155,317.701,280.561,319.963,279.093z M358.936,279.051c-2.207-1.57-3.515-3.228-4.65-3.11
			c-1.218,0.122-2.274,1.899-3.398,2.952c1.069,1.105,2.035,2.958,3.228,3.104C355.268,282.144,356.644,280.542,358.936,279.051z"/>
		<path fill="#FFFFFF" d="M404.363,327.67c-5.52-3.216-5.77-3.767-4.517-9.047c7.146-30.245-7.226-61.339-35.031-75.771
			c-5.085-2.642-5.141-2.764-4.126-9.322c17.936,7.231,31.389,19.071,39.971,36.186C410.029,288.408,410.813,307.699,404.363,327.67
			z"/>
		<path fill="#FFFFFF" d="M263.355,327.565c-14.615-36.253,6.32-81.583,43.081-93.405c1.352,5.293,1.002,6.131-3.552,8.46
			c-27.977,14.321-42.5,44.798-35.482,75.429C268.465,322.713,267.45,325.335,263.355,327.565z"/>
		<path fill="#FFFFFF" d="M279.088,366.386c-4.726,0-9.462-0.185-14.168,0.061c-3.209,0.165-4.23-1.063-3.888-4.069
			c0.177-1.597-0.031-3.24,0.085-4.849c0.312-4.633,3.478-7.981,8.129-8.117c6.583-0.194,13.179-0.194,19.762-0.006
			c4.896,0.142,8.032,3.63,8.387,8.759c0.574,8.223,0.574,8.223-7.5,8.223C286.295,366.386,282.688,366.386,279.088,366.386z"/>
		<path fill="#FFFFFF" d="M389.369,366.221c-4.964,0-9.934-0.08-14.896,0.03c-2.183,0.049-3.246-0.605-3.075-2.946
			c0.147-1.98-0.065-3.979,0.099-5.953c0.354-4.444,3.503-7.788,7.916-7.922c6.692-0.208,13.403-0.222,20.104,0
			c4.564,0.151,7.457,3.508,7.872,8.36c0.722,8.431,0.722,8.431-7.592,8.431C396.325,366.221,392.848,366.221,389.369,366.221z"/>
		<path fill="#FFFFFF" d="M316.833,253.274c0-3.332-0.343-6.443,0.079-9.444c0.624-4.425,3.771-6.968,8.258-7.041
			c6.333-0.109,12.672-0.123,18.998,0c4.938,0.085,8.104,3.245,8.337,8.166c0.129,2.689,0.023,5.397,0.023,8.319
			C340.513,253.274,328.893,253.274,316.833,253.274z"/>
		<path fill="#FFFFFF" d="M364.913,369.43c-20.116,9.113-39.885,9.205-59.95,1.015c2.859-5.202,3.776-5.563,8.68-4.053
			c13.852,4.254,27.695,4.224,41.467-0.343C360.732,364.191,360.714,364.143,364.913,369.43z"/>
		<path fill="#FFFFFF" d="M288.758,336.452c-0.036,5.185-4.291,9.456-9.48,9.519c-5.269,0.066-9.804-4.426-9.749-9.67
			c0.05-5.104,4.39-9.438,9.529-9.519C284.369,326.703,288.795,331.116,288.758,336.452z"/>
		<path fill="#FFFFFF" d="M398.887,336.403c-0.013,5.33-4.139,9.391-9.475,9.315c-5.178-0.073-9.193-4.046-9.278-9.188
			c-0.086-5.281,4.016-9.456,9.333-9.505C394.797,326.984,398.893,331.067,398.887,336.403z"/>
	</g>
</g>
</svg>
