<?xml version="1.0" encoding="utf-8"?>
<!-- Generator: Adobe Illustrator 16.0.0, SVG Export Plug-In . SVG Version: 6.00 Build 0)  -->
<!DOCTYPE svg PUBLIC "-//W3C//DTD SVG 1.1//EN" "http://www.w3.org/Graphics/SVG/1.1/DTD/svg11.dtd">
<svg version="1.1" id="Layer_1" xmlns="http://www.w3.org/2000/svg" xmlns:xlink="http://www.w3.org/1999/xlink" x="0px" y="0px"
	 width="512px" height="512px" viewBox="0 0 512 512" enable-background="new 0 0 512 512" xml:space="preserve">
<g>
	<g>
		
			<linearGradient id="SVGID_1_" gradientUnits="userSpaceOnUse" x1="76.2786" y1="403.4128" x2="392.351" y2="87.3404" gradientTransform="matrix(1 0 0 -1 24.9448 503.3589)">
			<stop  offset="0" style="stop-color:#FF7601"/>
			<stop  offset="1" style="stop-color:#FF0000"/>
		</linearGradient>
		<path fill="url(#SVGID_1_)" d="M481.859,255.581c0,124.262-100.732,225-225,225c-124.267,0-225-100.738-225-225
			c0-124.264,100.733-225,225-225C381.126,30.581,481.859,131.317,481.859,255.581z"/>
		
			<linearGradient id="SVGID_2_" gradientUnits="userSpaceOnUse" x1="125.967" y1="431.283" x2="337.8624" y2="64.2694" gradientTransform="matrix(1 0 0 -1 24.9448 503.3589)">
			<stop  offset="0" style="stop-color:#FF0000"/>
			<stop  offset="1" style="stop-color:#FF6301"/>
		</linearGradient>
		<path fill="url(#SVGID_2_)" d="M468.718,255.581c0,117.012-94.854,211.864-211.858,211.864S45.001,372.593,45.001,255.581
			c0-117.005,94.854-211.857,211.857-211.857S468.718,138.576,468.718,255.581z"/>
	</g>
</g>
<g opacity="0.6">
	<g>
		<path d="M255.845,153.05c-36.381,0-72.549,0-109.089,0c-0.214,1.853-0.544,3.479-0.55,5.123
			c-0.03,19.298,0.115,38.606-0.104,57.892c-0.062,4.743,1.418,6.216,6.167,6.161c19.511-0.227,39.028-0.33,58.527,0.128
			c3.747,0.086,8.605,1.938,10.88,4.676c5.062,6.106-0.006,14.75-8.576,14.988c-12.286,0.323-24.59,0.128-36.895,0.134
			c-12.721,0.006-25.458,0.092-38.166-0.037c-8.411-0.098-11.98-3.643-12.012-12.127c-0.098-28.423-0.098-56.846,0-85.266
			c0.03-8.387,3.71-12.234,11.999-12.25c42.201-0.096,84.407-0.096,126.602,0.009c7.739,0.023,11.319,3.594,11.778,11.201
			c0.244,4.224,0.25,8.5-0.086,12.711c-0.556,6.62-4.241,10.195-9.95,10.195c-5.409,0-9.034-3.404-10.042-9.492
			C256.126,155.887,256.028,154.64,255.845,153.05z"/>
		<path d="M172.501,197.054c2.737,1.259,4.768,2.512,6.968,3.129c3.411,0.96,6.938,1.926,10.428,1.975
			c1.534,0.012,3.105-2.237,4.664-3.448c-1.191-1.503-2.078-3.63-3.619-4.352c-3.619-1.699-7.585-2.659-11.345-4.04
			c-5.819-2.133-9.859-5.789-10.03-12.463c-0.171-6.418,2.94-10.648,8.558-13.637c1.828-0.979,2.714-3.618,4.192-5.36
			c1.144-1.352,2.408-3.319,3.826-3.521c1.375-0.208,4.303,1.412,4.364,2.385c0.349,5.599,5.019,5.867,8.417,8.038
			c2.06,1.345,3.068,4.314,4.554,6.552c-2.372,1.009-4.804,2.928-7.108,2.788c-3.473-0.238-6.798-2.434-10.281-2.732
			c-1.742-0.159-3.687,2.036-5.525,3.154c1.253,1.663,2.151,4.027,3.826,4.847c3.576,1.748,7.567,2.642,11.352,3.998
			c5.946,2.121,9.725,6.173,9.736,12.671c0.019,6.56-3.301,11.021-9.357,13.814c-2.055,0.954-3.302,3.526-5.037,5.214
			c-1.4,1.363-3.038,3.527-4.499,3.472c-1.485-0.073-4.017-2.329-4.107-3.759c-0.238-3.838-2.543-4.7-5.434-5.825
			c-2.714-1.039-5.465-2.463-7.567-4.389c-1.058-0.959-1.382-3.649-0.837-5.128C169.158,198.992,171.193,198.111,172.501,197.054z"
			/>
	</g>
	<g>
		<path d="M397.269,359.396c-7.193,0-14.205,0-21.681,0c0-7.689,0-14.896,0-22.097c0-3.49,0-6.97,0-10.465
			c0-6.896-0.63-7.434-8.437-6.485c0,12.812,0,25.715,0,38.79c-7.304,0-13.99,0-21.025,0c0-17.207,0-34.389,0-52.104
			c2.902,0,5.801,0,8.71,0c10.194,0.007,20.396-0.023,30.593,0.007c6.333,0.019,9.182,2.107,11.84,8.153V359.396L397.269,359.396z"
			/>
		<path d="M226.584,378.766c0-4.12,0-8.246,0-12.751c10,0,19.462,0,29.192,0c0-2.341,0-4.278,0-6.705
			c-6.026,0-11.883,0.019-17.737,0c-7.09-0.036-11.646-3.466-11.84-10.33c-0.416-13.771-0.122-27.573-0.122-41.645
			c7.127,0,14.01,0,21.387,0c0,6.889,0,13.687,0,20.482c0,3.753,0,7.512,0,11.267c0,7.096,0.74,7.694,8.509,6.453
			c0-12.592,0-25.269,0-38.228c7.25,0,14.016,0,21.338,0c0,1.474,0,2.886,0,4.31c0,18.655-0.073,37.28,0.079,55.937
			c0.031,4.191-0.751,7.896-3.301,11.21C258.247,378.766,242.416,378.766,226.584,378.766z"/>
		<path d="M108.223,307.097c12.989-0.012,25.959-0.067,38.948-0.036c5.775,0.024,10.306,3.301,10.471,8.912
			c0.422,14.278,0.147,28.563,0.147,43.337c-4.358,0-8.46,0-12.567,0c-7.896,0-15.807-0.214-23.698,0.079
			c-4.994,0.184-9.438-0.696-13.301-3.979c0-8.324,0-16.633,0-24.957c5.776-5.435,12.77-3.813,19.92-3.766
			c0,5.477,0.037,10.544-0.019,15.617c-0.031,2.476,0.959,3.783,3.551,3.704c1.521-0.05,3.057-0.006,4.817-0.006
			c0-7.893,0.018-15.116,0-22.335c-0.013-3.038-1.926-3.747-4.542-3.729c-7.91,0.055-15.825,0.036-23.729,0.055
			C108.223,315.697,108.223,311.412,108.223,307.097z"/>
		<path d="M217.379,359.31c-4.835,0-9.493,0-14.15,0c-8.582,0-17.164,0.055-25.758-0.024c-6.541-0.055-11.027-4.277-11.101-10.672
			c-0.128-10.33-0.128-20.66,0-30.979c0.073-6.381,4.321-10.458,10.647-10.581c3.448-0.067,6.907-0.012,10.776-0.012
			c0,9.004,0,17.535,0,26.088c0,1.87,0,3.753,0,5.642c0,7.506,0.146,7.653,8.197,6.986c0-19.97,0-39.987,0-60.306
			c7.378,0,14.261,0,21.388,0C217.379,309.976,217.379,334.427,217.379,359.31z"/>
		<path d="M286.096,307.164c14.522,0,28.581-0.135,42.622,0.079c4.089,0.067,7.774,3.955,8.063,8.229
			c0.349,5.073,0.349,10.184,0.024,15.245c-0.3,4.639-3.576,8.08-8.173,8.551c-3.967,0.416-8.007,0.086-12.714,0.086
			c0-4.034,0-8.124,0-12.207c-0.006-7.182-1.149-8.087-8.724-6.626c0,7.378-0.092,14.854,0.05,22.311
			c0.043,2.5,1.896,3.217,4.229,3.191c6.705-0.056,13.41-0.013,20.115-0.013c1.431,0,2.873,0,4.572,0c0,4.578,0,8.668,0,13.301
			c-3.1,0-6.016,0-8.905,0c-10.189,0-20.393,0.055-30.581-0.03c-5.88-0.049-10.385-3.776-10.495-9.438
			C285.906,335.783,286.096,321.719,286.096,307.164z"/>
	</g>
	<g>
		<path d="M317.336,297.806c-22.151,0-44.297,0.152-66.461-0.056c-13.704-0.122-22.451-9.363-22.451-23.057
			c0-28.337,0.465-56.668-0.256-84.975c-0.245-9.407,10.868-21.132,19.639-21.211c9.083-0.072,18.154-0.537,27.231-0.556
			c32.139-0.08,64.283-0.073,96.418-0.023c4.713,0,9.442,0.214,14.132,0.653c12.83,1.187,20.807,10.179,20.807,23.215
			c0,27.788,0,55.568,0,83.338c0,12.714-9.205,22.438-22.06,22.562c-22.329,0.238-44.664,0.073-66.999,0.073
			C317.336,297.775,317.336,297.794,317.336,297.806z M394.329,215.948c-2.428,0-4.206,0-5.979,0c-37.414,0-74.841,0-112.249,0.024
			c-9.811,0.006-19.621,0.134-29.432,0.171c-2.818,0.006-4.854,0.416-4.812,4.132c0.264,17.977,0.171,35.959,0.532,53.931
			c0.134,7.098,3.167,9.561,10.313,9.578c21.985,0.012,43.967,0.042,65.94-0.019c22.163-0.05,44.315-0.165,66.485-0.336
			c5.537-0.043,9.113-2.959,9.149-7.818C394.414,256.015,394.329,236.394,394.329,215.948z M394.121,193.863
			c0.177-8.02-2.012-10.617-9.06-11.21c-2.176-0.178-4.357-0.257-6.527-0.257c-42.141-0.062-84.272-0.116-126.4-0.142
			c-7.042,0-10.458,4.176-9.651,11.607C292.923,193.863,343.369,193.863,394.121,193.863z"/>
		<path d="M277.409,269.646c-8.094,6.198-16.59,6.088-22.206-0.049c-4.909-5.354-5.123-14.064-0.489-19.413
			c5.983-6.876,13.813-7.183,22.751-0.887c10.023-6.026,17.988-5.715,23.196,0.887c4.64,5.917,4.377,14.07-0.643,19.37
			C294.035,275.868,286.523,275.96,277.409,269.646z"/>
	</g>
</g>
<g>
	<g>
		<path fill="#FFFFFF" d="M265.845,143.05c-36.381,0-72.549,0-109.089,0c-0.214,1.853-0.544,3.479-0.55,5.123
			c-0.03,19.298,0.115,38.606-0.104,57.892c-0.062,4.743,1.418,6.216,6.167,6.161c19.511-0.227,39.028-0.33,58.527,0.128
			c3.747,0.086,8.605,1.938,10.88,4.676c5.062,6.106-0.006,14.75-8.576,14.988c-12.286,0.323-24.59,0.128-36.895,0.134
			c-12.721,0.006-25.458,0.092-38.166-0.037c-8.411-0.098-11.98-3.643-12.012-12.127c-0.098-28.423-0.098-56.846,0-85.266
			c0.03-8.387,3.71-12.234,11.999-12.25c42.201-0.096,84.407-0.096,126.602,0.009c7.739,0.023,11.319,3.594,11.778,11.201
			c0.244,4.224,0.25,8.5-0.086,12.711c-0.556,6.62-4.241,10.195-9.95,10.195c-5.409,0-9.034-3.404-10.042-9.492
			C266.126,145.887,266.028,144.64,265.845,143.05z"/>
		<path fill="#FFFFFF" d="M182.501,187.054c2.737,1.259,4.768,2.512,6.968,3.129c3.411,0.96,6.938,1.926,10.428,1.975
			c1.534,0.012,3.105-2.237,4.664-3.448c-1.191-1.503-2.078-3.63-3.619-4.352c-3.619-1.699-7.585-2.659-11.345-4.04
			c-5.819-2.133-9.859-5.789-10.03-12.463c-0.171-6.418,2.94-10.648,8.558-13.637c1.828-0.979,2.714-3.618,4.192-5.36
			c1.144-1.352,2.408-3.319,3.826-3.521c1.375-0.208,4.303,1.412,4.364,2.385c0.349,5.599,5.019,5.867,8.417,8.038
			c2.06,1.345,3.068,4.314,4.554,6.552c-2.372,1.009-4.804,2.928-7.108,2.788c-3.473-0.238-6.798-2.434-10.281-2.732
			c-1.742-0.159-3.687,2.036-5.525,3.154c1.253,1.663,2.151,4.027,3.826,4.847c3.576,1.748,7.567,2.642,11.352,3.998
			c5.946,2.121,9.725,6.173,9.736,12.671c0.019,6.56-3.301,11.021-9.357,13.814c-2.055,0.954-3.302,3.526-5.037,5.214
			c-1.4,1.363-3.038,3.527-4.499,3.472c-1.485-0.073-4.017-2.329-4.107-3.759c-0.238-3.838-2.543-4.7-5.434-5.825
			c-2.714-1.039-5.465-2.463-7.567-4.389c-1.058-0.959-1.382-3.649-0.837-5.128C179.158,188.992,181.193,188.111,182.501,187.054z"
			/>
	</g>
	<g>
		<path fill="#FFFFFF" d="M407.269,349.396c-7.193,0-14.205,0-21.681,0c0-7.689,0-14.896,0-22.097c0-3.49,0-6.97,0-10.465
			c0-6.896-0.63-7.434-8.437-6.485c0,12.812,0,25.715,0,38.79c-7.304,0-13.99,0-21.025,0c0-17.207,0-34.389,0-52.104
			c2.902,0,5.801,0,8.71,0c10.194,0.007,20.396-0.023,30.593,0.007c6.333,0.019,9.182,2.107,11.84,8.153V349.396L407.269,349.396z"
			/>
		<path fill="#FFFFFF" d="M236.584,368.766c0-4.12,0-8.246,0-12.751c10,0,19.462,0,29.192,0c0-2.341,0-4.278,0-6.705
			c-6.026,0-11.883,0.019-17.737,0c-7.09-0.036-11.646-3.466-11.84-10.33c-0.416-13.771-0.122-27.573-0.122-41.645
			c7.127,0,14.01,0,21.387,0c0,6.889,0,13.687,0,20.482c0,3.753,0,7.512,0,11.267c0,7.096,0.74,7.694,8.509,6.453
			c0-12.592,0-25.269,0-38.228c7.25,0,14.016,0,21.338,0c0,1.474,0,2.886,0,4.31c0,18.655-0.073,37.28,0.079,55.937
			c0.031,4.191-0.751,7.896-3.301,11.21C268.247,368.766,252.416,368.766,236.584,368.766z"/>
		<path fill="#FFFFFF" d="M118.223,297.097c12.989-0.012,25.959-0.067,38.948-0.036c5.775,0.024,10.306,3.301,10.471,8.912
			c0.422,14.278,0.147,28.563,0.147,43.337c-4.358,0-8.46,0-12.567,0c-7.896,0-15.807-0.214-23.698,0.079
			c-4.994,0.184-9.438-0.696-13.301-3.979c0-8.324,0-16.633,0-24.957c5.776-5.435,12.77-3.813,19.92-3.766
			c0,5.477,0.037,10.544-0.019,15.617c-0.031,2.476,0.959,3.783,3.551,3.704c1.521-0.05,3.057-0.006,4.817-0.006
			c0-7.893,0.018-15.116,0-22.335c-0.013-3.038-1.926-3.747-4.542-3.729c-7.91,0.055-15.825,0.036-23.729,0.055
			C118.223,305.697,118.223,301.412,118.223,297.097z"/>
		<path fill="#FFFFFF" d="M227.379,349.31c-4.835,0-9.493,0-14.15,0c-8.582,0-17.164,0.055-25.758-0.024
			c-6.541-0.055-11.027-4.277-11.101-10.672c-0.128-10.33-0.128-20.66,0-30.979c0.073-6.381,4.321-10.458,10.647-10.581
			c3.448-0.067,6.907-0.012,10.776-0.012c0,9.004,0,17.535,0,26.088c0,1.87,0,3.753,0,5.642c0,7.506,0.146,7.653,8.197,6.986
			c0-19.97,0-39.987,0-60.306c7.378,0,14.261,0,21.388,0C227.379,299.976,227.379,324.427,227.379,349.31z"/>
		<path fill="#FFFFFF" d="M296.096,297.164c14.522,0,28.581-0.135,42.622,0.079c4.089,0.067,7.774,3.955,8.063,8.229
			c0.349,5.073,0.349,10.184,0.024,15.245c-0.3,4.639-3.576,8.08-8.173,8.551c-3.967,0.416-8.007,0.086-12.714,0.086
			c0-4.034,0-8.124,0-12.207c-0.006-7.182-1.149-8.087-8.724-6.626c0,7.378-0.092,14.854,0.05,22.311
			c0.043,2.5,1.896,3.217,4.229,3.191c6.705-0.056,13.41-0.013,20.115-0.013c1.431,0,2.873,0,4.572,0c0,4.578,0,8.668,0,13.301
			c-3.1,0-6.016,0-8.905,0c-10.189,0-20.393,0.055-30.581-0.03c-5.88-0.049-10.385-3.776-10.495-9.438
			C295.906,325.783,296.096,311.719,296.096,297.164z"/>
	</g>
	<g>
		<path fill="#FFFFFF" d="M327.336,287.806c-22.151,0-44.297,0.152-66.461-0.056c-13.704-0.122-22.451-9.363-22.451-23.057
			c0-28.337,0.465-56.668-0.256-84.975c-0.245-9.407,10.868-21.132,19.639-21.211c9.083-0.072,18.154-0.537,27.231-0.556
			c32.139-0.08,64.283-0.073,96.418-0.023c4.713,0,9.442,0.214,14.132,0.653c12.83,1.187,20.807,10.179,20.807,23.215
			c0,27.788,0,55.568,0,83.338c0,12.714-9.205,22.438-22.06,22.562c-22.329,0.238-44.664,0.073-66.999,0.073
			C327.336,287.775,327.336,287.794,327.336,287.806z M404.329,205.948c-2.428,0-4.206,0-5.979,0c-37.414,0-74.841,0-112.249,0.024
			c-9.811,0.006-19.621,0.134-29.432,0.171c-2.818,0.006-4.854,0.416-4.812,4.132c0.264,17.977,0.171,35.959,0.532,53.931
			c0.134,7.098,3.167,9.561,10.313,9.578c21.985,0.012,43.967,0.042,65.94-0.019c22.163-0.05,44.315-0.165,66.485-0.336
			c5.537-0.043,9.113-2.959,9.149-7.818C404.414,246.015,404.329,226.394,404.329,205.948z M404.121,183.863
			c0.177-8.02-2.012-10.617-9.06-11.21c-2.176-0.178-4.357-0.257-6.527-0.257c-42.141-0.062-84.272-0.116-126.4-0.142
			c-7.042,0-10.458,4.176-9.651,11.607C302.923,183.863,353.369,183.863,404.121,183.863z"/>
		<path fill="#FFFFFF" d="M287.409,259.646c-8.094,6.198-16.59,6.088-22.206-0.049c-4.909-5.354-5.123-14.064-0.489-19.413
			c5.983-6.876,13.813-7.183,22.751-0.887c10.023-6.026,17.988-5.715,23.196,0.887c4.64,5.917,4.377,14.07-0.643,19.37
			C304.035,265.868,296.523,265.96,287.409,259.646z"/>
	</g>
</g>
</svg>
