<?xml version="1.0" encoding="utf-8"?>
<!-- Generator: Adobe Illustrator 16.0.0, SVG Export Plug-In . SVG Version: 6.00 Build 0)  -->
<!DOCTYPE svg PUBLIC "-//W3C//DTD SVG 1.1//EN" "http://www.w3.org/Graphics/SVG/1.1/DTD/svg11.dtd">
<svg version="1.1" id="Layer_1" xmlns="http://www.w3.org/2000/svg" xmlns:xlink="http://www.w3.org/1999/xlink" x="0px" y="0px"
	 width="512px" height="512px" viewBox="0 0 512 512" enable-background="new 0 0 512 512" xml:space="preserve">
<g>
	<g>
		
			<linearGradient id="SVGID_1_" gradientUnits="userSpaceOnUse" x1="75.4729" y1="402.6658" x2="391.5461" y2="86.5925" gradientTransform="matrix(1 0 0 -1 24.9448 503.3589)">
			<stop  offset="0" style="stop-color:#DC00FF"/>
			<stop  offset="1" style="stop-color:#9A00FF"/>
		</linearGradient>
		<path fill="url(#SVGID_1_)" d="M481.053,256.33c0,124.262-100.733,225-225,225s-225-100.738-225-225
			c0-124.267,100.733-225,225-225S481.053,132.063,481.053,256.33z"/>
		
			<linearGradient id="SVGID_2_" gradientUnits="userSpaceOnUse" x1="125.1624" y1="430.5349" x2="337.0554" y2="63.5251" gradientTransform="matrix(1 0 0 -1 24.9448 503.3589)">
			<stop  offset="0" style="stop-color:#9A00FF"/>
			<stop  offset="1" style="stop-color:#DC00FF"/>
		</linearGradient>
		<circle fill="url(#SVGID_2_)" cx="256.053" cy="256.33" r="211.858"/>
	</g>
</g>
<g opacity="0.4">
	<g>
		<path d="M251.725,101.226c-6.876-1.785-13.397-0.605-17.017,1.424c-3.521,1.979-6.772,4.291-10.905,5.153
			c-3.967,0.83-6.229,3.862-8.368,7.335c-2.121,3.453-3.472,6.919-3.344,10.831c0.159,5,0.758,9.981,1.119,14.976
			c0.049,0.697,0.018,1.565-0.349,2.072c-2.763,3.845-2.06,9.92,1.613,12.952c0.342,0.28,0.825,0.385,1.155,0.667
			c0.789,0.672,1.706,1.283,2.243,2.12c0.557,0.874,0.728,1.98,1.082,2.989c2.262,6.603,5.385,12.506,11.803,16.155
			c6.858,3.906,13.631,7.25,21.772,3.582c5.745-2.585,11.497-5.257,14.964-10.66c2.358-3.655,3.631-8.007,5.477-11.999
			c0.361-0.776,1.046-1.614,1.791-1.944c4.677-2.071,6.491-9.89,3.191-13.733c-0.526-0.605-0.917-1.656-0.813-2.42
			c0.904-6.339,0.746-12.562-0.721-18.852c-2.091-9.01-7.702-14.603-16.119-17.609c-3.252-1.162-6.688-1.785-9.945-2.628
			C250.625,101.556,250.998,101.446,251.725,101.226z M245.405,253.237c-4.321-6.082-8.605-12.048-12.823-18.063
			c-0.905-1.283-1.944-2.652-2.274-4.126c-0.825-3.6-1.339-7.273-1.871-10.929c-1.602-11.008-3.189-21.999-4.67-33.02
			c-0.269-1.999-1.143-1.841-2.427-1.187c-3.056,1.546-6.144,3.05-9.12,4.737c-9.633,5.471-19.26,10.972-28.82,16.571
			c-5.715,3.361-9.743,8.227-11.577,14.676c-1.692,5.954-3.367,11.919-4.742,17.952c-1.32,5.795-2.25,11.675-3.362,17.598
			c36.553,0,72.793,0,109.45,0c-6.382-7.292-10.532-15.366-13.441-24.651C254.684,239.991,250.105,246.544,245.405,253.237z
			 M351.707,172.54c-17.415-13.539-46.528-15.324-67.557,3.588c-21.552,19.407-23.502,52.286-5.709,74.017
			c18.589,22.714,49.628,25.629,71.522,11.161c25.281-16.706,28.313-45.795,21.009-63.111c-0.324,0.202-0.697,0.336-0.923,0.599
			c-2.25,2.678-4.225,5.643-6.773,7.989c-3.354,3.081-3.617,6.742-3.71,10.911c-0.323,13.924-7.022,24.486-18.503,31.87
			c-7.443,4.786-15.794,6.718-24.804,5.653c-8.344-0.989-15.789-3.997-21.913-9.651c-10.514-9.701-14.842-21.797-12.702-36.027
			c1.096-7.237,4.175-13.643,9.028-19.063c6.675-7.445,14.848-12.084,24.963-13.283c8.992-1.076,17.244,0.685,24.927,5.288
			c1.583,0.953,2.593,1.008,3.497-0.686c0.238-0.464,0.672-0.818,1.015-1.229C347.287,177.889,349.494,175.219,351.707,172.54z
			 M322.893,219.368c-1.326-1.094-2.543-2.109-3.766-3.118c-4.614-3.813-9.182-7.683-13.856-11.418
			c-3.79-3.038-9.407-1.351-11.033,3.186c-1.276,3.563-0.329,6.412,3.374,9.505c7.115,5.947,14.262,11.846,21.425,17.738
			c2.599,2.133,6.187,2.523,8.803,0.349c2.469-2.048,4.462-4.701,6.559-7.182c7.988-9.444,15.917-18.949,23.912-28.394
			c7.562-8.93,15.189-17.787,22.72-26.729c2.817-3.338,2.556-7.897-0.171-10.501c-2.836-2.696-8.202-2.464-10.666,0.562
			c-3.147,3.882-6.56,7.563-9.779,11.394c-6.896,8.19-13.724,16.431-20.617,24.634C334.225,206.019,328.614,212.602,322.893,219.368
			z M253.504,202.485c-2.28-2.127-4.438-4.285-6.772-6.223c-0.514-0.44-1.969-0.501-2.451-0.104
			c-2.427,2.041-4.682,4.291-6.962,6.455c1.059,1.675,1.876,3.129,2.836,4.474c1.039,1.455,1.309,2.801,0.776,4.641
			c-1.724,5.946-3.283,11.968-4.676,18.007c-0.275,1.216,0.08,2.896,0.752,3.96c2.194,3.454,4.762,6.663,7.011,10.074
			c1.008,1.521,1.705,1.521,2.665,0.115c2.457-3.557,5.012-7.06,7.322-10.709c0.575-0.929,0.758-2.438,0.489-3.525
			c-1.597-6.363-3.387-12.685-5.056-19.041c-0.171-0.643-0.152-1.51,0.153-2.054C250.68,206.66,251.945,204.869,253.504,202.485z"/>
		<path d="M251.725,101.226c-0.728,0.22-1.1,0.33-1.369,0.41c3.258,0.844,6.693,1.467,9.945,2.628
			c8.417,3.007,14.028,8.6,16.119,17.609c1.467,6.29,1.625,12.513,0.721,18.852c-0.104,0.764,0.287,1.814,0.813,2.42
			c3.3,3.845,1.484,11.663-3.191,13.733c-0.745,0.33-1.43,1.168-1.791,1.944c-1.846,3.991-3.117,8.343-5.477,11.999
			c-3.467,5.403-9.219,8.075-14.964,10.66c-8.142,3.667-14.914,0.324-21.772-3.582c-6.418-3.649-9.542-9.554-11.803-16.155
			c-0.354-1.008-0.525-2.115-1.082-2.989c-0.538-0.837-1.455-1.448-2.243-2.12c-0.33-0.281-0.813-0.386-1.155-0.668
			c-3.673-3.031-4.376-9.106-1.613-12.951c0.366-0.508,0.397-1.375,0.349-2.072c-0.361-4.994-0.959-9.977-1.119-14.977
			c-0.128-3.911,1.223-7.377,3.344-10.83c2.14-3.473,4.401-6.505,8.368-7.335c4.132-0.862,7.384-3.173,10.905-5.153
			C238.327,100.621,244.849,99.441,251.725,101.226z"/>
		<path d="M245.405,253.237c4.701-6.693,9.279-13.246,14.322-20.44c2.909,9.285,7.061,17.359,13.441,24.651
			c-36.657,0-72.897,0-109.45,0c1.112-5.923,2.042-11.803,3.362-17.598c1.375-6.033,3.05-11.999,4.742-17.952
			c1.835-6.449,5.862-11.314,11.577-14.676c9.561-5.6,19.188-11.102,28.82-16.571c2.977-1.688,6.063-3.19,9.12-4.737
			c1.284-0.653,2.158-0.813,2.427,1.187c1.479,11.021,3.068,22.011,4.67,33.02c0.532,3.655,1.045,7.329,1.871,10.929
			c0.33,1.474,1.369,2.843,2.274,4.127C236.798,241.189,241.083,247.155,245.405,253.237z"/>
		<path d="M351.707,172.54c-2.213,2.678-4.42,5.35-6.633,8.026c-0.343,0.41-0.775,0.764-1.015,1.229
			c-0.905,1.693-1.914,1.639-3.497,0.686c-7.683-4.604-15.935-6.363-24.927-5.288c-10.115,1.198-18.288,5.837-24.963,13.283
			c-4.854,5.421-7.935,11.827-9.028,19.063c-2.14,14.23,2.188,26.326,12.702,36.027c6.124,5.654,13.569,8.662,21.913,9.652
			c9.01,1.063,17.359-0.868,24.804-5.654c11.479-7.384,18.18-17.946,18.503-31.87c0.093-4.169,0.354-7.83,3.71-10.911
			c2.55-2.347,4.523-5.312,6.773-7.989c0.226-0.263,0.599-0.396,0.923-0.599c7.304,17.316,4.272,46.406-21.009,63.111
			c-21.896,14.468-52.935,11.553-71.522-11.161c-17.793-21.73-15.843-54.609,5.709-74.017
			C305.179,157.216,334.292,159.001,351.707,172.54z"/>
		<path d="M322.893,219.368c5.722-6.767,11.332-13.35,16.901-19.976c6.895-8.203,13.722-16.443,20.617-24.634
			c3.221-3.832,6.632-7.512,9.779-11.394c2.463-3.025,7.83-3.258,10.666-0.562c2.727,2.604,2.988,7.163,0.171,10.501
			c-7.529,8.942-15.158,17.8-22.72,26.729c-7.995,9.444-15.924,18.949-23.912,28.394c-2.097,2.48-4.09,5.134-6.559,7.182
			c-2.616,2.176-6.204,1.785-8.803-0.349c-7.163-5.893-14.31-11.791-21.425-17.738c-3.704-3.093-4.65-5.941-3.374-9.505
			c1.626-4.536,7.243-6.224,11.033-3.186c4.676,3.735,9.242,7.604,13.856,11.418C320.35,217.259,321.566,218.274,322.893,219.368z"
			/>
		<path d="M253.504,202.485c-1.56,2.384-2.824,4.175-3.912,6.069c-0.306,0.544-0.324,1.411-0.153,2.054
			c1.669,6.356,3.459,12.677,5.056,19.041c0.269,1.088,0.085,2.598-0.489,3.525c-2.312,3.649-4.865,7.152-7.322,10.709
			c-0.96,1.406-1.657,1.406-2.665-0.115c-2.25-3.411-4.816-6.62-7.011-10.074c-0.672-1.063-1.027-2.744-0.752-3.96
			c1.394-6.04,2.953-12.061,4.676-18.007c0.532-1.84,0.263-3.186-0.776-4.641c-0.96-1.345-1.778-2.799-2.836-4.474
			c2.28-2.164,4.536-4.414,6.962-6.455c0.482-0.396,1.938-0.336,2.451,0.104C249.066,198.2,251.224,200.358,253.504,202.485z"/>
	</g>
	<g>
		<path d="M160.674,348.322c7.054,0.1,9.522-5.018,9.333-11.813c-0.245-8.943-0.062-17.91-0.062-27.184c23.533,0,46.089,0,69.384,0
			c0,8.441-0.142,16.346,0.043,24.225c0.208,9.016,4.596,13.967,11.741,13.637c6.773-0.313,10.661-5.22,10.734-13.796
			c0.079-8.08,0.012-16.18,0.012-24.021c23.655,0,45.973,0,68.895,0c0,9.064,0.238,17.52-0.067,25.953
			c-0.25,6.834,1.26,12.256,8.992,13.075c5.898,0.623,9.364-4.279,9.406-12.641c0.056-10.947,0.08-21.907-0.006-32.874
			c-0.073-10.27-2.787-12.909-13.294-12.939c-21.65-0.055-43.302,0-64.939-0.043c-1.485,0-2.964-0.073-4.443-0.158v-32.293h-30.238
			v32.262c-1.144,0.086-2.286,0.196-3.454,0.196c-22.738,0.018-45.478-0.049-68.215,0.042c-9.902,0.037-12.843,2.979-12.91,12.61
			c-0.067,11.234,0.146,22.47-0.08,33.698C151.371,342.95,153.632,348.225,160.674,348.322z"/>
		<path d="M249.836,356.796c-11.914,0.049-21.259,9.688-20.917,21.589c0.33,11.516,9.755,20.396,21.442,20.178
			c11.735-0.208,20.66-9.413,20.501-21.106C270.661,365.811,261.456,356.753,249.836,356.796z"/>
		<path d="M160.967,356.796c-11.736-0.031-20.801,8.881-20.966,20.573c-0.171,11.754,8.605,20.953,20.22,21.218
			c11.809,0.256,21.015-8.425,21.326-20.093C181.866,366.287,172.887,356.819,160.967,356.796z"/>
		<path d="M339.243,356.796c-11.553,0.165-20.397,9.419-20.287,21.216c0.115,11.755,9.132,20.636,20.897,20.581
			c11.98-0.056,21.021-9.47,20.733-21.571C360.307,365.432,351.016,356.636,339.243,356.796z"/>
	</g>
</g>
<g>
	<g>
		<path d="M261.725,91.226c-6.876-1.785-13.397-0.605-17.017,1.424c-3.521,1.979-6.772,4.291-10.905,5.153
			c-3.967,0.83-6.229,3.862-8.368,7.335c-2.121,3.453-3.472,6.919-3.344,10.831c0.159,5,0.758,9.981,1.119,14.976
			c0.049,0.697,0.018,1.565-0.349,2.072c-2.763,3.845-2.06,9.92,1.613,12.952c0.342,0.28,0.825,0.385,1.155,0.667
			c0.789,0.672,1.706,1.283,2.243,2.12c0.557,0.874,0.728,1.98,1.082,2.989c2.262,6.603,5.385,12.506,11.803,16.155
			c6.858,3.906,13.631,7.25,21.772,3.582c5.745-2.585,11.497-5.257,14.964-10.66c2.358-3.655,3.631-8.007,5.477-11.999
			c0.361-0.776,1.046-1.614,1.791-1.944c4.677-2.071,6.491-9.89,3.191-13.733c-0.526-0.605-0.917-1.656-0.813-2.42
			c0.904-6.339,0.746-12.562-0.721-18.852c-2.091-9.01-7.702-14.603-16.119-17.609c-3.252-1.162-6.688-1.785-9.945-2.628
			C260.625,91.556,260.998,91.446,261.725,91.226z M255.405,243.237c-4.321-6.082-8.605-12.048-12.823-18.063
			c-0.905-1.283-1.944-2.652-2.274-4.126c-0.825-3.6-1.339-7.273-1.871-10.929c-1.602-11.008-3.189-21.999-4.67-33.02
			c-0.269-1.999-1.143-1.841-2.427-1.187c-3.056,1.546-6.144,3.05-9.12,4.737c-9.633,5.471-19.26,10.972-28.82,16.571
			c-5.715,3.361-9.743,8.227-11.577,14.676c-1.692,5.954-3.367,11.919-4.742,17.952c-1.32,5.795-2.25,11.675-3.362,17.598
			c36.553,0,72.793,0,109.45,0c-6.382-7.292-10.532-15.366-13.441-24.651C264.684,229.991,260.105,236.544,255.405,243.237z
			 M361.707,162.54c-17.415-13.539-46.528-15.324-67.557,3.588c-21.552,19.407-23.502,52.286-5.709,74.017
			c18.589,22.714,49.628,25.629,71.522,11.161c25.281-16.706,28.313-45.795,21.009-63.111c-0.324,0.202-0.697,0.336-0.923,0.599
			c-2.25,2.678-4.225,5.643-6.773,7.989c-3.354,3.081-3.617,6.742-3.71,10.911c-0.323,13.924-7.022,24.486-18.503,31.87
			c-7.443,4.786-15.794,6.718-24.804,5.653c-8.344-0.989-15.789-3.997-21.913-9.651c-10.514-9.701-14.842-21.797-12.702-36.027
			c1.096-7.237,4.175-13.643,9.028-19.063c6.675-7.445,14.848-12.084,24.963-13.283c8.992-1.076,17.244,0.685,24.927,5.288
			c1.583,0.953,2.593,1.008,3.497-0.686c0.238-0.464,0.672-0.818,1.015-1.229C357.287,167.889,359.494,165.219,361.707,162.54z
			 M332.893,209.368c-1.326-1.094-2.543-2.109-3.766-3.118c-4.614-3.813-9.182-7.683-13.856-11.418
			c-3.79-3.038-9.407-1.351-11.033,3.186c-1.276,3.563-0.329,6.412,3.374,9.505c7.115,5.947,14.262,11.846,21.425,17.738
			c2.599,2.133,6.187,2.523,8.803,0.349c2.469-2.048,4.462-4.701,6.559-7.182c7.988-9.444,15.917-18.949,23.912-28.394
			c7.562-8.93,15.189-17.787,22.72-26.729c2.817-3.338,2.556-7.897-0.171-10.501c-2.836-2.696-8.202-2.464-10.666,0.562
			c-3.147,3.882-6.56,7.563-9.779,11.394c-6.896,8.19-13.724,16.431-20.617,24.634C344.225,196.019,338.614,202.602,332.893,209.368
			z M263.504,192.485c-2.28-2.127-4.438-4.285-6.772-6.223c-0.514-0.44-1.969-0.501-2.451-0.104
			c-2.427,2.041-4.682,4.291-6.962,6.455c1.059,1.675,1.876,3.129,2.836,4.474c1.039,1.455,1.309,2.801,0.776,4.641
			c-1.724,5.946-3.283,11.968-4.676,18.007c-0.275,1.216,0.08,2.896,0.752,3.96c2.194,3.454,4.762,6.663,7.011,10.074
			c1.008,1.521,1.705,1.521,2.665,0.115c2.457-3.557,5.012-7.06,7.322-10.709c0.575-0.929,0.758-2.438,0.489-3.525
			c-1.597-6.363-3.387-12.685-5.056-19.041c-0.171-0.643-0.152-1.51,0.153-2.054C260.68,196.66,261.945,194.869,263.504,192.485z"/>
		<path fill="#FFFFFF" d="M261.725,91.226c-0.728,0.22-1.1,0.33-1.369,0.41c3.258,0.844,6.693,1.467,9.945,2.628
			c8.417,3.007,14.028,8.6,16.119,17.609c1.467,6.29,1.625,12.513,0.721,18.852c-0.104,0.764,0.287,1.814,0.813,2.42
			c3.3,3.845,1.484,11.663-3.191,13.733c-0.745,0.33-1.43,1.168-1.791,1.944c-1.846,3.991-3.117,8.343-5.477,11.999
			c-3.467,5.403-9.219,8.075-14.964,10.66c-8.142,3.667-14.914,0.324-21.772-3.582c-6.418-3.649-9.542-9.554-11.803-16.155
			c-0.354-1.008-0.525-2.115-1.082-2.989c-0.538-0.837-1.455-1.448-2.243-2.12c-0.33-0.281-0.813-0.386-1.155-0.668
			c-3.673-3.031-4.376-9.106-1.613-12.951c0.366-0.508,0.397-1.375,0.349-2.072c-0.361-4.994-0.959-9.977-1.119-14.977
			c-0.128-3.911,1.223-7.377,3.344-10.83c2.14-3.473,4.401-6.505,8.368-7.335c4.132-0.862,7.384-3.173,10.905-5.153
			C248.327,90.621,254.849,89.441,261.725,91.226z"/>
		<path fill="#FFFFFF" d="M255.405,243.237c4.701-6.693,9.279-13.246,14.322-20.44c2.909,9.285,7.061,17.359,13.441,24.651
			c-36.657,0-72.897,0-109.45,0c1.112-5.923,2.042-11.803,3.362-17.598c1.375-6.033,3.05-11.999,4.742-17.952
			c1.835-6.449,5.862-11.314,11.577-14.676c9.561-5.6,19.188-11.102,28.82-16.571c2.977-1.688,6.063-3.19,9.12-4.737
			c1.284-0.653,2.158-0.813,2.427,1.187c1.479,11.021,3.068,22.011,4.67,33.02c0.532,3.655,1.045,7.329,1.871,10.929
			c0.33,1.474,1.369,2.843,2.274,4.127C246.798,231.189,251.083,237.155,255.405,243.237z"/>
		<path fill="#FFFFFF" d="M361.707,162.54c-2.213,2.678-4.42,5.35-6.633,8.026c-0.343,0.41-0.775,0.764-1.015,1.229
			c-0.905,1.693-1.914,1.639-3.497,0.686c-7.683-4.604-15.935-6.363-24.927-5.288c-10.115,1.198-18.288,5.837-24.963,13.283
			c-4.854,5.421-7.935,11.827-9.028,19.063c-2.14,14.23,2.188,26.326,12.702,36.027c6.124,5.654,13.569,8.662,21.913,9.652
			c9.01,1.063,17.359-0.868,24.804-5.654c11.479-7.384,18.18-17.946,18.503-31.87c0.093-4.169,0.354-7.83,3.71-10.911
			c2.55-2.347,4.523-5.312,6.773-7.989c0.226-0.263,0.599-0.396,0.923-0.599c7.304,17.316,4.272,46.406-21.009,63.111
			c-21.896,14.468-52.935,11.553-71.522-11.161c-17.793-21.73-15.843-54.609,5.709-74.017
			C315.179,147.216,344.292,149.001,361.707,162.54z"/>
		<path fill="#FFFFFF" d="M332.893,209.368c5.722-6.767,11.332-13.35,16.901-19.976c6.895-8.203,13.722-16.443,20.617-24.634
			c3.221-3.832,6.632-7.512,9.779-11.394c2.463-3.025,7.83-3.258,10.666-0.562c2.727,2.604,2.988,7.163,0.171,10.501
			c-7.529,8.942-15.158,17.8-22.72,26.729c-7.995,9.444-15.924,18.949-23.912,28.394c-2.097,2.48-4.09,5.134-6.559,7.182
			c-2.616,2.176-6.204,1.785-8.803-0.349c-7.163-5.893-14.31-11.791-21.425-17.738c-3.704-3.093-4.65-5.941-3.374-9.505
			c1.626-4.536,7.243-6.224,11.033-3.186c4.676,3.735,9.242,7.604,13.856,11.418C330.35,207.259,331.566,208.274,332.893,209.368z"
			/>
		<path fill="#FFFFFF" d="M263.504,192.485c-1.56,2.384-2.824,4.175-3.912,6.069c-0.306,0.544-0.324,1.411-0.153,2.054
			c1.669,6.356,3.459,12.677,5.056,19.041c0.269,1.088,0.085,2.598-0.489,3.525c-2.312,3.649-4.865,7.152-7.322,10.709
			c-0.96,1.406-1.657,1.406-2.665-0.115c-2.25-3.411-4.816-6.62-7.011-10.074c-0.672-1.063-1.027-2.744-0.752-3.96
			c1.394-6.04,2.953-12.061,4.676-18.007c0.532-1.84,0.263-3.186-0.776-4.641c-0.96-1.345-1.778-2.799-2.836-4.474
			c2.28-2.164,4.536-4.414,6.962-6.455c0.482-0.396,1.938-0.336,2.451,0.104C259.066,188.2,261.224,190.358,263.504,192.485z"/>
	</g>
	<g>
		<path fill="#FFFFFF" d="M170.674,338.322c7.054,0.1,9.522-5.018,9.333-11.813c-0.245-8.943-0.062-17.91-0.062-27.184
			c23.533,0,46.089,0,69.384,0c0,8.441-0.142,16.346,0.043,24.225c0.208,9.016,4.596,13.967,11.741,13.637
			c6.773-0.313,10.661-5.22,10.734-13.796c0.079-8.08,0.012-16.18,0.012-24.021c23.655,0,45.973,0,68.895,0
			c0,9.064,0.238,17.52-0.067,25.953c-0.25,6.834,1.26,12.256,8.992,13.075c5.898,0.623,9.364-4.279,9.406-12.641
			c0.056-10.947,0.08-21.907-0.006-32.874c-0.073-10.27-2.787-12.909-13.294-12.939c-21.65-0.055-43.302,0-64.939-0.043
			c-1.485,0-2.964-0.073-4.443-0.158v-32.293h-30.238v32.262c-1.144,0.086-2.286,0.196-3.454,0.196
			c-22.738,0.018-45.478-0.049-68.215,0.042c-9.902,0.037-12.843,2.979-12.91,12.61c-0.067,11.234,0.146,22.47-0.08,33.698
			C161.371,332.95,163.632,338.225,170.674,338.322z"/>
		<path fill="#FFFFFF" d="M259.836,346.796c-11.914,0.049-21.259,9.688-20.917,21.589c0.33,11.516,9.755,20.396,21.442,20.178
			c11.735-0.208,20.66-9.413,20.501-21.106C280.661,355.811,271.456,346.753,259.836,346.796z"/>
		<path fill="#FFFFFF" d="M170.967,346.796c-11.736-0.031-20.801,8.881-20.966,20.573c-0.171,11.754,8.605,20.953,20.22,21.218
			c11.809,0.256,21.015-8.425,21.326-20.093C191.866,356.287,182.887,346.819,170.967,346.796z"/>
		<path fill="#FFFFFF" d="M349.243,346.796c-11.553,0.165-20.397,9.419-20.287,21.216c0.115,11.755,9.132,20.636,20.897,20.581
			c11.98-0.056,21.021-9.47,20.733-21.571C370.307,355.432,361.016,346.636,349.243,346.796z"/>
	</g>
</g>
</svg>
