<?xml version="1.0" encoding="utf-8"?>
<!-- Generator: Adobe Illustrator 16.0.0, SVG Export Plug-In . SVG Version: 6.00 Build 0)  -->
<!DOCTYPE svg PUBLIC "-//W3C//DTD SVG 1.1//EN" "http://www.w3.org/Graphics/SVG/1.1/DTD/svg11.dtd">
<svg version="1.1" id="Layer_1" xmlns="http://www.w3.org/2000/svg" xmlns:xlink="http://www.w3.org/1999/xlink" x="0px" y="0px"
	 width="512px" height="512px" viewBox="0 0 512 512" enable-background="new 0 0 512 512" xml:space="preserve">
<g>
	<g>
		
			<linearGradient id="SVGID_1_" gradientUnits="userSpaceOnUse" x1="76.2761" y1="403.4128" x2="392.3492" y2="87.3397" gradientTransform="matrix(1 0 0 -1 24.9448 503.3589)">
			<stop  offset="0" style="stop-color:#FF7601"/>
			<stop  offset="1" style="stop-color:#FF0000"/>
		</linearGradient>
		<path fill="url(#SVGID_1_)" d="M481.857,255.581c0,124.262-100.732,225-225,225c-124.267,0-225-100.738-225-225
			c0-124.264,100.733-225,225-225C381.124,30.581,481.857,131.317,481.857,255.581z"/>
		
			<linearGradient id="SVGID_2_" gradientUnits="userSpaceOnUse" x1="125.9646" y1="431.283" x2="337.86" y2="64.2694" gradientTransform="matrix(1 0 0 -1 24.9448 503.3589)">
			<stop  offset="0" style="stop-color:#FF0000"/>
			<stop  offset="1" style="stop-color:#FF6301"/>
		</linearGradient>
		<path fill="url(#SVGID_2_)" d="M468.716,255.581c0,117.012-94.854,211.864-211.858,211.864S44.999,372.593,44.999,255.581
			c0-117.005,94.854-211.857,211.857-211.857S468.716,138.576,468.716,255.581z"/>
	</g>
</g>
<g opacity="0.6">
	<g>
		<path d="M261.179,153.05c-36.381,0-72.549,0-109.089,0c-0.214,1.853-0.544,3.479-0.55,5.123
			c-0.031,19.298,0.115,38.606-0.104,57.892c-0.061,4.743,1.418,6.216,6.167,6.161c19.511-0.227,39.028-0.33,58.527,0.128
			c3.747,0.086,8.605,1.938,10.88,4.676c5.061,6.106-0.006,14.75-8.576,14.988c-12.286,0.323-24.591,0.128-36.895,0.134
			c-12.721,0.006-25.458,0.092-38.166-0.037c-8.411-0.098-11.98-3.643-12.012-12.127c-0.098-28.423-0.098-56.846,0-85.266
			c0.031-8.387,3.71-12.234,11.999-12.25c42.2-0.096,84.407-0.096,126.603,0.009c7.738,0.023,11.32,3.594,11.777,11.201
			c0.245,4.224,0.252,8.5-0.085,12.711c-0.557,6.62-4.241,10.195-9.95,10.195c-5.41,0-9.035-3.404-10.043-9.492
			C261.46,155.887,261.362,154.64,261.179,153.05z"/>
		<path d="M177.835,197.054c2.738,1.259,4.768,2.512,6.968,3.129c3.411,0.96,6.938,1.926,10.428,1.975
			c1.534,0.012,3.105-2.237,4.664-3.448c-1.191-1.503-2.078-3.63-3.619-4.352c-3.618-1.699-7.585-2.659-11.345-4.04
			c-5.819-2.133-9.859-5.789-10.031-12.463c-0.171-6.418,2.94-10.648,8.559-13.637c1.828-0.979,2.714-3.618,4.192-5.36
			c1.144-1.352,2.408-3.319,3.826-3.521c1.375-0.208,4.303,1.412,4.364,2.385c0.349,5.599,5.019,5.867,8.417,8.038
			c2.06,1.345,3.068,4.314,4.554,6.552c-2.372,1.009-4.805,2.928-7.108,2.788c-3.473-0.238-6.798-2.434-10.281-2.732
			c-1.742-0.159-3.687,2.036-5.525,3.154c1.253,1.663,2.151,4.027,3.826,4.847c3.576,1.748,7.567,2.642,11.352,3.998
			c5.946,2.121,9.725,6.173,9.736,12.671c0.019,6.56-3.301,11.021-9.357,13.814c-2.055,0.954-3.302,3.526-5.037,5.214
			c-1.4,1.363-3.038,3.527-4.499,3.472c-1.485-0.073-4.017-2.329-4.107-3.759c-0.238-3.838-2.543-4.7-5.434-5.825
			c-2.714-1.039-5.464-2.463-7.567-4.389c-1.057-0.959-1.381-3.649-0.837-5.128C174.492,198.992,176.527,198.111,177.835,197.054z"
			/>
	</g>
	<g>
		<path d="M322.67,297.806c-22.151,0-44.297,0.152-66.46-0.056c-13.704-0.122-22.451-9.363-22.451-23.057
			c0-28.337,0.465-56.668-0.256-84.975c-0.245-9.407,10.868-21.132,19.639-21.211c9.083-0.072,18.154-0.537,27.231-0.556
			c32.14-0.08,64.285-0.073,96.418-0.023c4.713,0,9.443,0.214,14.132,0.653c12.83,1.187,20.808,10.179,20.808,23.215
			c0,27.788,0,55.568,0,83.338c0,12.714-9.206,22.438-22.061,22.562c-22.329,0.238-44.663,0.073-66.999,0.073
			C322.67,297.775,322.67,297.794,322.67,297.806z M399.662,215.948c-2.427,0-4.204,0-5.978,0c-37.415,0-74.842,0-112.25,0.024
			c-9.811,0.006-19.621,0.134-29.432,0.171c-2.817,0.006-4.854,0.416-4.812,4.132c0.264,17.977,0.171,35.959,0.532,53.931
			c0.134,7.098,3.166,9.561,10.313,9.578c21.985,0.012,43.967,0.042,65.94-0.019c22.164-0.05,44.315-0.165,66.485-0.336
			c5.538-0.043,9.112-2.959,9.149-7.818C399.748,256.015,399.662,236.394,399.662,215.948z M399.454,193.863
			c0.179-8.02-2.011-10.617-9.059-11.21c-2.176-0.178-4.357-0.257-6.527-0.257c-42.14-0.062-84.272-0.116-126.399-0.142
			c-7.042,0-10.458,4.176-9.651,11.607C298.257,193.863,348.703,193.863,399.454,193.863z"/>
		<path d="M282.744,269.646c-8.095,6.198-16.591,6.088-22.207-0.049c-4.908-5.354-5.122-14.064-0.489-19.413
			c5.983-6.876,13.813-7.183,22.751-0.887c10.023-6.026,17.989-5.715,23.197,0.887c4.639,5.917,4.376,14.07-0.644,19.37
			C299.37,275.868,291.857,275.96,282.744,269.646z"/>
	</g>
	<g>
		<path d="M410.794,340.232c-0.05,11.021-5.574,20.024-13.655,22.787c-13.008,4.444-25.611-4.535-26.791-19.272
			c-0.263-3.232-0.037-6.619,0.697-9.772c2.585-11.102,10.495-17.066,21.283-16.449c9.303,0.544,16.876,8.423,18.165,18.919
			C410.672,337.897,410.727,339.358,410.794,340.232z M405.336,340.691c-0.025-9.45-5.66-16.693-13.441-17.256
			c-9.744-0.709-17.091,7.652-16.241,18.49c0.703,8.894,5.69,15.214,12.721,16.101C398.079,359.256,405.359,351.822,405.336,340.691
			z"/>
		<path d="M364.303,340.722c-0.733,3.295-1.095,6.742-2.25,9.884c-3.325,9.01-9.811,13.466-18.832,13.393
			c-8.612-0.066-15.104-4.799-18.319-13.66c-2.329-6.395-2.347-12.946,0.03-19.328c3.698-9.957,11.742-14.72,22.091-13.362
			c8.479,1.113,15.68,9.457,16.646,19.316c0.122,1.204,0.134,2.433,0.194,3.647C364.009,340.643,364.149,340.685,364.303,340.722z
			 M358.618,340.813c-0.294-1.92-0.423-3.888-0.917-5.758c-2.636-10.129-13.143-14.896-21.375-9.774
			c-10.275,6.369-10.185,24.792,0.2,31.027c1.418,0.844,3.137,1.424,4.773,1.656C350.971,359.358,358.41,351.871,358.618,340.813z"
			/>
		<path d="M109.382,363.307c0-15.293,0-30.128,0-45.647c5.031,0.27,9.97-0.049,14.64,0.917c7.671,1.589,10.478,13.172,4.854,18.724
			c-0.691,0.678-1.474,1.253-2.428,2.06c4.658,1.811,7.678,4.829,8.497,9.749c1.198,7.227-3.38,13.576-10.685,14.133
			C119.437,363.619,114.559,363.307,109.382,363.307z M114.785,357.923c4.805-0.825,10.062,1.692,13.582-3.337
			c1.81-2.6,1.926-5.674-0.024-8.223c-3.594-4.725-8.765-2.677-13.558-3.08C114.785,348.259,114.785,352.818,114.785,357.923z
			 M114.755,337.379c4.083-0.067,8.178,1.003,10.52-3.1c1.564-2.708,1.626-5.732-0.317-8.271c-2.665-3.49-6.503-2.213-10.202-2.2
			C114.755,328.393,114.755,332.709,114.755,337.379z"/>
		<path d="M299.56,363.307c-2.085,0-3.503,0-5.159,0c0-15.104,0-30.03,0-45.629c4.427,0.25,8.809,0.146,13.058,0.837
			c4.155,0.679,6.895,3.546,7.977,7.684c1.302,4.994,0.916,9.7-2.817,13.661c-0.729,0.783-1.607,1.418-1.92,1.699
			c4.162,7.262,8.18,14.272,12.305,21.474c-3.997,1.204-6.46,0.44-8.19-3.313c-1.925-4.188-4.376-8.147-6.827-12.072
			c-1.797-2.879-4.396-4.511-8.423-3.539C299.56,350.367,299.56,356.663,299.56,363.307z M299.639,323.675c0,4.73,0,9.271,0,14.034
			c3.569,0.269,7.108,0.946,9.462-2.312c2.085-2.897,2.237-6.253,0.245-9.235C306.979,322.635,303.281,323.436,299.639,323.675z"/>
		<path d="M228.013,341.999c0,7.019,0,14.04,0,21.271c-1.803,0-3.319,0-5.067,0c0-15.098,0-30.019,0-45.177c1.688,0,3.197,0,5,0
			c0,6.559,0,12.981,0,20.421c1.271-1.405,1.987-2.078,2.567-2.849c3.723-4.828,7.402-9.688,11.112-14.512
			c2.953-3.826,2.971-3.813,8.723-2.773c-5.396,7.084-10.654,13.99-16.07,21.104c6.7,7.861,13.289,15.587,20.159,23.649
			c-4.334,0.765-7.378,0.482-10.074-3.025c-4.901-6.345-10.336-12.256-15.55-18.362
			C228.544,341.835,228.282,341.921,228.013,341.999z"/>
		<path d="M168.086,318.009c1.932,0,3.35,0,5.269,0c0,4.607,0.006,9.069-0.012,13.532c-0.012,5.604,0.196,11.229-0.122,16.815
			c-0.74,13.142-13.698,20.006-24.902,13.38c-4.468-2.646-7.028-6.669-7.176-11.639c-0.324-10.568-0.104-21.154-0.104-31.986
			c1.625,0,3.129,0,5.109,0c0,3.186,0,6.326,0,9.444c0.024,6.589-0.098,13.172,0.085,19.743c0.185,6.632,4.268,10.775,10.343,10.88
			c6.81,0.122,11.088-3.594,11.345-10.587c0.317-8.282,0.135-16.577,0.165-24.865C168.092,321.277,168.086,319.836,168.086,318.009z
			"/>
		<path d="M214.871,327.513c-14.578-5.465-20.288-4.964-25.208,1.767c-4.75,6.479-4.677,17.176,0.135,23.367
			c5.152,6.614,10.959,6.914,24.749,1.266c0.771,6.517,0.593,6.805-5.367,8.912c-10.941,3.882-20.978-0.22-26.051-10.617
			c-6.479-13.258-0.202-30.231,12.659-34.021c6.082-1.784,11.991-0.666,17.212,2.537
			C214.357,321.559,214.205,324.848,214.871,327.513z"/>
		<g>
			<path d="M292.799,318.271l-16.938,44.083h-6.283l-18.038-44.083h6.638l5.146,13.355h18.436l4.835-13.355H292.799z
				 M280.079,336.377h-14.951l4.597,12.205c1.412,3.712,2.444,6.762,3.135,9.14c0.558-2.824,1.353-5.63,2.372-8.411L280.079,336.377
				z"/>
		</g>
	</g>
</g>
<g>
	<g>
		<path fill="#FFFFFF" d="M269.179,146.05c-36.381,0-72.549,0-109.089,0c-0.214,1.853-0.544,3.479-0.55,5.123
			c-0.031,19.298,0.115,38.606-0.104,57.892c-0.061,4.743,1.418,6.216,6.167,6.161c19.511-0.227,39.028-0.33,58.527,0.128
			c3.747,0.086,8.605,1.938,10.88,4.676c5.061,6.106-0.006,14.75-8.576,14.988c-12.286,0.323-24.591,0.128-36.895,0.134
			c-12.721,0.006-25.458,0.092-38.166-0.037c-8.411-0.098-11.98-3.643-12.012-12.127c-0.098-28.423-0.098-56.846,0-85.266
			c0.031-8.387,3.71-12.234,11.999-12.25c42.2-0.096,84.407-0.096,126.603,0.009c7.738,0.023,11.32,3.594,11.777,11.201
			c0.245,4.224,0.252,8.5-0.085,12.711c-0.557,6.62-4.241,10.195-9.95,10.195c-5.41,0-9.035-3.404-10.043-9.492
			C269.46,148.887,269.362,147.64,269.179,146.05z"/>
		<path fill="#FFFFFF" d="M185.835,190.054c2.738,1.259,4.768,2.512,6.968,3.129c3.411,0.96,6.938,1.926,10.428,1.975
			c1.534,0.012,3.105-2.237,4.664-3.448c-1.191-1.503-2.078-3.63-3.619-4.352c-3.618-1.699-7.585-2.659-11.345-4.04
			c-5.819-2.133-9.859-5.789-10.031-12.463c-0.171-6.418,2.94-10.648,8.559-13.637c1.828-0.979,2.714-3.618,4.192-5.36
			c1.144-1.352,2.408-3.319,3.826-3.521c1.375-0.208,4.303,1.412,4.364,2.385c0.349,5.599,5.019,5.867,8.417,8.038
			c2.06,1.345,3.068,4.314,4.554,6.552c-2.372,1.009-4.805,2.928-7.108,2.788c-3.473-0.238-6.798-2.434-10.281-2.732
			c-1.742-0.159-3.687,2.036-5.525,3.154c1.253,1.663,2.151,4.027,3.826,4.847c3.576,1.748,7.567,2.642,11.352,3.998
			c5.946,2.121,9.725,6.173,9.736,12.671c0.019,6.56-3.301,11.021-9.357,13.814c-2.055,0.954-3.302,3.526-5.037,5.214
			c-1.4,1.363-3.038,3.527-4.499,3.472c-1.485-0.073-4.017-2.329-4.107-3.759c-0.238-3.838-2.543-4.7-5.434-5.825
			c-2.714-1.039-5.464-2.463-7.567-4.389c-1.057-0.959-1.381-3.649-0.837-5.128C182.492,191.992,184.527,191.111,185.835,190.054z"
			/>
	</g>
	<g>
		<path fill="#FFFFFF" d="M330.67,290.806c-22.151,0-44.297,0.152-66.46-0.056c-13.704-0.122-22.451-9.363-22.451-23.057
			c0-28.337,0.465-56.668-0.256-84.975c-0.245-9.407,10.868-21.132,19.639-21.211c9.083-0.072,18.154-0.537,27.231-0.556
			c32.14-0.08,64.285-0.073,96.418-0.023c4.713,0,9.443,0.214,14.132,0.653c12.83,1.187,20.808,10.179,20.808,23.215
			c0,27.788,0,55.568,0,83.338c0,12.714-9.206,22.438-22.061,22.562c-22.329,0.238-44.663,0.073-66.999,0.073
			C330.67,290.775,330.67,290.794,330.67,290.806z M407.662,208.948c-2.427,0-4.204,0-5.978,0c-37.415,0-74.842,0-112.25,0.024
			c-9.811,0.006-19.621,0.134-29.432,0.171c-2.817,0.006-4.854,0.416-4.812,4.132c0.264,17.977,0.171,35.959,0.532,53.931
			c0.134,7.098,3.166,9.561,10.313,9.578c21.985,0.012,43.967,0.042,65.94-0.019c22.164-0.05,44.315-0.165,66.485-0.336
			c5.538-0.043,9.112-2.959,9.149-7.818C407.748,249.015,407.662,229.394,407.662,208.948z M407.454,186.863
			c0.179-8.02-2.011-10.617-9.059-11.21c-2.176-0.178-4.357-0.257-6.527-0.257c-42.14-0.062-84.272-0.116-126.399-0.142
			c-7.042,0-10.458,4.176-9.651,11.607C306.257,186.863,356.703,186.863,407.454,186.863z"/>
		<path fill="#FFFFFF" d="M290.744,262.646c-8.095,6.198-16.591,6.088-22.207-0.049c-4.908-5.354-5.122-14.064-0.489-19.413
			c5.983-6.876,13.813-7.183,22.751-0.887c10.023-6.026,17.989-5.715,23.197,0.887c4.639,5.917,4.376,14.07-0.644,19.37
			C307.37,268.868,299.857,268.96,290.744,262.646z"/>
	</g>
	<g>
		<path fill="#FFFFFF" d="M418.794,333.232c-0.05,11.021-5.574,20.024-13.655,22.787c-13.008,4.444-25.611-4.535-26.791-19.272
			c-0.263-3.232-0.037-6.619,0.697-9.772c2.585-11.102,10.495-17.066,21.283-16.449c9.303,0.544,16.876,8.423,18.165,18.919
			C418.672,330.897,418.727,332.358,418.794,333.232z M413.336,333.691c-0.025-9.45-5.66-16.693-13.441-17.256
			c-9.744-0.709-17.091,7.652-16.241,18.49c0.703,8.894,5.69,15.214,12.721,16.101C406.079,352.256,413.359,344.822,413.336,333.691
			z"/>
		<path fill="#FFFFFF" d="M372.303,333.722c-0.733,3.295-1.095,6.742-2.25,9.884c-3.325,9.01-9.811,13.466-18.832,13.393
			c-8.612-0.066-15.104-4.799-18.319-13.66c-2.329-6.395-2.347-12.946,0.03-19.328c3.698-9.957,11.742-14.72,22.091-13.362
			c8.479,1.113,15.68,9.457,16.646,19.316c0.122,1.204,0.134,2.433,0.194,3.647C372.009,333.643,372.149,333.685,372.303,333.722z
			 M366.618,333.813c-0.294-1.92-0.423-3.888-0.917-5.758c-2.636-10.129-13.143-14.896-21.375-9.774
			c-10.275,6.369-10.185,24.792,0.2,31.027c1.418,0.844,3.137,1.424,4.773,1.656C358.971,352.358,366.41,344.871,366.618,333.813z"
			/>
		<path fill="#FFFFFF" d="M117.382,356.307c0-15.293,0-30.128,0-45.647c5.031,0.27,9.97-0.049,14.64,0.917
			c7.671,1.589,10.478,13.172,4.854,18.724c-0.691,0.678-1.474,1.253-2.428,2.06c4.658,1.811,7.678,4.829,8.497,9.749
			c1.198,7.227-3.38,13.576-10.685,14.133C127.437,356.619,122.559,356.307,117.382,356.307z M122.785,350.923
			c4.805-0.825,10.062,1.692,13.582-3.337c1.81-2.6,1.926-5.674-0.024-8.223c-3.594-4.725-8.765-2.677-13.558-3.08
			C122.785,341.259,122.785,345.818,122.785,350.923z M122.755,330.379c4.083-0.067,8.178,1.003,10.52-3.1
			c1.564-2.708,1.626-5.732-0.317-8.271c-2.665-3.49-6.503-2.213-10.202-2.2C122.755,321.393,122.755,325.709,122.755,330.379z"/>
		<path fill="#FFFFFF" d="M307.56,356.307c-2.085,0-3.503,0-5.159,0c0-15.104,0-30.03,0-45.629c4.427,0.25,8.809,0.146,13.058,0.837
			c4.155,0.679,6.895,3.546,7.977,7.684c1.302,4.994,0.916,9.7-2.817,13.661c-0.729,0.783-1.607,1.418-1.92,1.699
			c4.162,7.262,8.18,14.272,12.305,21.474c-3.997,1.204-6.46,0.44-8.19-3.313c-1.925-4.188-4.376-8.147-6.827-12.072
			c-1.797-2.879-4.396-4.511-8.423-3.539C307.56,343.367,307.56,349.663,307.56,356.307z M307.639,316.675c0,4.73,0,9.271,0,14.034
			c3.569,0.269,7.108,0.946,9.462-2.312c2.085-2.897,2.237-6.253,0.245-9.235C314.979,315.635,311.281,316.436,307.639,316.675z"/>
		<path fill="#FFFFFF" d="M236.013,334.999c0,7.019,0,14.04,0,21.271c-1.803,0-3.319,0-5.067,0c0-15.098,0-30.019,0-45.177
			c1.688,0,3.197,0,5,0c0,6.559,0,12.981,0,20.421c1.271-1.405,1.987-2.078,2.567-2.849c3.723-4.828,7.402-9.688,11.112-14.512
			c2.953-3.826,2.971-3.813,8.723-2.773c-5.396,7.084-10.654,13.99-16.07,21.104c6.7,7.861,13.289,15.587,20.159,23.649
			c-4.334,0.765-7.378,0.482-10.074-3.025c-4.901-6.345-10.336-12.256-15.55-18.362
			C236.544,334.835,236.282,334.921,236.013,334.999z"/>
		<path fill="#FFFFFF" d="M176.086,311.009c1.932,0,3.35,0,5.269,0c0,4.607,0.006,9.069-0.012,13.532
			c-0.012,5.604,0.196,11.229-0.122,16.815c-0.74,13.142-13.698,20.006-24.902,13.38c-4.468-2.646-7.028-6.669-7.176-11.639
			c-0.324-10.568-0.104-21.154-0.104-31.986c1.625,0,3.129,0,5.109,0c0,3.186,0,6.326,0,9.444
			c0.024,6.589-0.098,13.172,0.085,19.743c0.185,6.632,4.268,10.775,10.343,10.88c6.81,0.122,11.088-3.594,11.345-10.587
			c0.317-8.282,0.135-16.577,0.165-24.865C176.092,314.277,176.086,312.836,176.086,311.009z"/>
		<path fill="#FFFFFF" d="M222.871,320.513c-14.578-5.465-20.288-4.964-25.208,1.767c-4.75,6.479-4.677,17.176,0.135,23.367
			c5.152,6.614,10.959,6.914,24.749,1.266c0.771,6.517,0.593,6.805-5.367,8.912c-10.941,3.882-20.978-0.22-26.051-10.617
			c-6.479-13.258-0.202-30.231,12.659-34.021c6.082-1.784,11.991-0.666,17.212,2.537
			C222.357,314.559,222.205,317.848,222.871,320.513z"/>
		<g>
			<path fill="#FFFFFF" d="M300.799,311.271l-16.938,44.083h-6.283l-18.038-44.083h6.638l5.146,13.355h18.436l4.835-13.355H300.799z
				 M288.079,329.377h-14.951l4.597,12.205c1.412,3.712,2.444,6.762,3.135,9.14c0.558-2.824,1.353-5.63,2.372-8.411L288.079,329.377
				z"/>
		</g>
	</g>
</g>
</svg>
