<?xml version="1.0" encoding="utf-8"?>
<!-- Generator: Adobe Illustrator 16.0.0, SVG Export Plug-In . SVG Version: 6.00 Build 0)  -->
<!DOCTYPE svg PUBLIC "-//W3C//DTD SVG 1.1//EN" "http://www.w3.org/Graphics/SVG/1.1/DTD/svg11.dtd">
<svg version="1.1" id="Layer_1" xmlns="http://www.w3.org/2000/svg" xmlns:xlink="http://www.w3.org/1999/xlink" x="0px" y="0px"
	 width="512px" height="512px" viewBox="0 0 512 512" enable-background="new 0 0 512 512" xml:space="preserve">
<linearGradient id="SVGID_1_" gradientUnits="userSpaceOnUse" x1="74.281" y1="404.0818" x2="390.3542" y2="88.0085" gradientTransform="matrix(1 0 0 -1 24.9448 503.3589)">
	<stop  offset="0" style="stop-color:#E20001"/>
	<stop  offset="1" style="stop-color:#8C0000"/>
</linearGradient>
<path fill="url(#SVGID_1_)" d="M479.861,254.914c0,124.262-100.732,225-225,225c-124.267,0-225-100.738-225-225
	c0-124.267,100.733-225,225-225C379.128,29.914,479.861,130.647,479.861,254.914z"/>
<linearGradient id="SVGID_2_" gradientUnits="userSpaceOnUse" x1="123.97" y1="431.949" x2="335.8652" y2="64.9356" gradientTransform="matrix(1 0 0 -1 24.9448 503.3589)">
	<stop  offset="0" style="stop-color:#8C0000"/>
	<stop  offset="1" style="stop-color:#E20001"/>
</linearGradient>
<path fill="url(#SVGID_2_)" d="M466.72,254.914c0,117.012-94.854,211.864-211.858,211.864
	c-117.004,0-211.858-94.853-211.858-211.864c0-117.005,94.854-211.857,211.857-211.857S466.72,137.909,466.72,254.914z"/>
<g opacity="0.6">
	<path d="M69.189,253.96c4.193,0.165,8.38,0.453,12.58,0.458c12.757,0.056,25.521,0.02,38.276,0.013c1.394,0,2.774,0,4.413,0
		c-1.346,4.242-3.447,5.152-6.381,5.115c-14.737-0.151-29.476-0.091-44.206-0.049c-1.56,0-3.124,0.3-4.683,0.459
		C69.189,257.958,69.189,255.959,69.189,253.96z"/>
	<path d="M445.453,276.956c-18.146,0-36.302,0-54.785,0c1.046-3.49,2.457-5.092,5.445-5.062c16.442,0.165,32.897,0.066,49.34,0.066
		C445.453,273.624,445.453,275.293,445.453,276.956z"/>
	<path d="M445.453,259.957c-8.417-0.159-16.82-0.354-25.231-0.465c-6.271-0.067-12.542-0.006-19.052-0.006
		c0.689-4.206,2.535-5.128,5.22-5.098c11.595,0.104,23.185,0.066,34.772,0.023c1.432,0,2.86-0.293,4.291-0.453
		C445.453,255.959,445.453,257.958,445.453,259.957z"/>
	<path d="M69.189,262.952c16.517,0,33.032,0,49.548,0c0.184,0.599,0.367,1.187,0.551,1.784c-1.432,1.144-2.867,3.283-4.315,3.308
		c-15.257,0.152-30.52,0-45.783-0.086C69.189,266.289,69.189,264.621,69.189,262.952z"/>
	<path d="M445.453,267.958c-16.424,0-32.842,0-49.399,0c0.636-4.059,2.622-4.943,5.629-4.921
		c14.585,0.116,29.181-0.022,43.771-0.085C445.453,264.621,445.453,266.289,445.453,267.958z"/>
	<path d="M69.189,271.962c14.823,0,29.646,0,44.652,0c-0.593,4.021-2.378,5.116-5.288,5.093
		c-13.117-0.159-26.241-0.093-39.364-0.099C69.189,275.293,69.189,273.624,69.189,271.962z"/>
	<path d="M282.899,209.938c-4.469,7.688-8.46,14.578-13.014,22.421c5.227,0,9.859,0.122,14.475-0.098
		c0.771-0.056,1.613-1.498,2.213-2.507c3.41-5.672,6.705-11.461,10.165-17.084c0.722-1.18,1.949-2.598,2.952-2.609
		c10.887-0.184,21.778-0.116,33.394-0.116c-6.693,11.473-13.144,22.047-19.132,33.038c-2.808,5.153-5.852,7.115-10.954,7.042
		c-25.68-0.41-51.369-0.185-77.972-0.185c2.323-4.218,4.219-7.829,6.235-11.308c5.055-8.68,10.11-17.366,15.324-25.893
		c0.813-1.333,2.47-2.567,3.759-2.592C260.876,209.841,271.408,209.938,282.899,209.938z"/>
	<path d="M182.447,248.612c3.338-6.198,6.138-11.4,9.48-17.592c-23.649,0-46.088,0-69.547,0c4.314-7.323,8.044-13.802,11.942-20.104
		c0.483-0.782,1.884-0.94,2.854-0.946c23.441-0.031,46.883-0.104,70.324,0.042c8.264,0.049,15.653,7.916,15.874,16.906
		c0.066,3.111-0.587,6.73-1.883,9.328c-6.864,13.674-6.975,13.588-19.891,13.594c-4.479,0-8.955,0.085-13.429-0.049
		C186.536,249.743,184.91,249.144,182.447,248.612z"/>
	<path d="M117.942,276.986c4.701-8.136,8.974-15.581,13.283-22.983c2.573-4.413,5.397-8.605,7.738-13.196
		c1.962-3.857,4.224-5.563,8.001-5.373c7.628,0.391,15.274,0.092,22.91,0.146c1.657,0.02,3.313,0.343,5.978,0.643
		c-3.331,6.088-6.223,11.338-9.811,17.873c15.563,0,29.798,0,45.066,0c-7.042,11.46-14.854,18.881-25.055,21.79
		c-2.531,0.729-5.189,1.01-7.787,1.033c-18.833,0.092-37.671,0.063-56.504,0.067C120.748,276.986,119.733,276.986,117.942,276.986z"
		/>
	<path d="M397.129,254.431c-4.584,7.831-8.539,14.73-12.665,21.479c-0.482,0.801-1.846,1.027-2.806,1.027
		c-19.083,0.055-38.179,0.079-57.269-0.056c-2.022-0.024-4.138-0.808-6.051-1.761c-6.125-3.067-7.091-7.83-3.645-14.858
		c2.146-4.364,4.627-6.059,8.875-5.984c22.385,0.33,44.763,0.153,67.146,0.153C392.423,254.431,394.128,254.431,397.129,254.431z"/>
	<path d="M381.157,209.938c-7.844,13.368-15.056,25.764-22.408,38.032c-0.648,1.075-2.2,1.772-3.338,1.791
		c-11.191,0.128-22.385,0.072-34.407,0.072c2.781-4.908,5.196-9.271,7.684-13.568c4.42-7.61,8.895-15.196,13.319-22.807
		c1.388-2.396,2.916-3.686,5.544-3.625C358.438,210.073,369.336,209.938,381.157,209.938z"/>
	<path d="M306.561,255.287c-4.126,7.066-8.13,13.979-12.207,20.819c-0.312,0.524-1.118,0.831-1.699,0.831
		c-10.897,0.049-21.797,0.036-33.568,0.036c4.426-7.628,8.374-14.512,12.438-21.295c0.453-0.746,1.584-1.198,2.402-1.198
		c10.404-0.062,20.808-0.006,31.211,0.037C305.484,254.517,305.827,254.884,306.561,255.287z"/>
	<path d="M208.841,276.986c4.419-7.481,8.264-14.15,12.268-20.667c0.617-0.996,1.969-1.785,2.983-1.803
		c10.647-0.128,21.296-0.073,32.781-0.073c-4.383,7.53-8.289,14.42-12.385,21.119c-0.567,0.94-2.054,1.355-3.122,1.361
		C230.833,277.023,220.302,276.986,208.841,276.986z"/>
</g>
<g>
	<path fill="#FFFFFF" d="M78.189,245.96c4.193,0.165,8.38,0.453,12.58,0.458c12.757,0.056,25.521,0.02,38.276,0.013
		c1.394,0,2.774,0,4.413,0c-1.346,4.242-3.447,5.152-6.381,5.115c-14.737-0.151-29.476-0.091-44.206-0.049
		c-1.56,0-3.124,0.3-4.683,0.459C78.189,249.958,78.189,247.959,78.189,245.96z"/>
	<path fill="#FFFFFF" d="M454.453,268.956c-18.146,0-36.302,0-54.785,0c1.046-3.49,2.457-5.092,5.445-5.062
		c16.442,0.165,32.897,0.066,49.34,0.066C454.453,265.624,454.453,267.293,454.453,268.956z"/>
	<path fill="#FFFFFF" d="M454.453,251.957c-8.417-0.159-16.82-0.354-25.231-0.465c-6.271-0.067-12.542-0.006-19.052-0.006
		c0.689-4.206,2.535-5.128,5.22-5.098c11.595,0.104,23.185,0.066,34.772,0.023c1.432,0,2.86-0.293,4.291-0.453
		C454.453,247.959,454.453,249.958,454.453,251.957z"/>
	<path fill="#FFFFFF" d="M78.189,254.952c16.517,0,33.032,0,49.548,0c0.184,0.599,0.367,1.187,0.551,1.784
		c-1.432,1.144-2.867,3.283-4.315,3.308c-15.257,0.152-30.52,0-45.783-0.086C78.189,258.289,78.189,256.621,78.189,254.952z"/>
	<path fill="#FFFFFF" d="M454.453,259.958c-16.424,0-32.842,0-49.399,0c0.636-4.059,2.622-4.943,5.629-4.921
		c14.585,0.116,29.181-0.022,43.771-0.085C454.453,256.621,454.453,258.289,454.453,259.958z"/>
	<path fill="#FFFFFF" d="M78.189,263.962c14.823,0,29.646,0,44.652,0c-0.593,4.021-2.378,5.116-5.288,5.093
		c-13.117-0.159-26.241-0.093-39.364-0.099C78.189,267.293,78.189,265.624,78.189,263.962z"/>
	<path fill="#FFFFFF" d="M291.899,201.938c-4.469,7.688-8.46,14.578-13.014,22.421c5.227,0,9.859,0.122,14.475-0.098
		c0.771-0.056,1.613-1.498,2.213-2.507c3.41-5.672,6.705-11.461,10.165-17.084c0.722-1.18,1.949-2.598,2.952-2.609
		c10.887-0.184,21.778-0.116,33.394-0.116c-6.693,11.473-13.144,22.047-19.132,33.038c-2.808,5.153-5.852,7.115-10.954,7.042
		c-25.68-0.41-51.369-0.185-77.972-0.185c2.323-4.218,4.219-7.829,6.235-11.308c5.055-8.68,10.11-17.366,15.324-25.893
		c0.813-1.333,2.47-2.567,3.759-2.592C269.876,201.841,280.408,201.938,291.899,201.938z"/>
	<path fill="#FFFFFF" d="M191.447,240.612c3.338-6.198,6.138-11.4,9.48-17.592c-23.649,0-46.088,0-69.547,0
		c4.314-7.323,8.044-13.802,11.942-20.104c0.483-0.782,1.884-0.94,2.854-0.946c23.441-0.031,46.883-0.104,70.324,0.042
		c8.264,0.049,15.653,7.916,15.874,16.906c0.066,3.111-0.587,6.73-1.883,9.328c-6.864,13.674-6.975,13.588-19.891,13.594
		c-4.479,0-8.955,0.085-13.429-0.049C195.536,241.743,193.91,241.144,191.447,240.612z"/>
	<path fill="#FFFFFF" d="M126.942,268.986c4.701-8.136,8.974-15.581,13.283-22.983c2.573-4.413,5.397-8.605,7.738-13.196
		c1.962-3.857,4.224-5.563,8.001-5.373c7.628,0.391,15.274,0.092,22.91,0.146c1.657,0.02,3.313,0.343,5.978,0.643
		c-3.331,6.088-6.223,11.338-9.811,17.873c15.563,0,29.798,0,45.066,0c-7.042,11.46-14.854,18.881-25.055,21.79
		c-2.531,0.729-5.189,1.01-7.787,1.033c-18.833,0.092-37.671,0.063-56.504,0.067C129.748,268.986,128.733,268.986,126.942,268.986z"
		/>
	<path fill="#FFFFFF" d="M406.129,246.431c-4.584,7.831-8.539,14.73-12.665,21.479c-0.482,0.801-1.846,1.027-2.806,1.027
		c-19.083,0.055-38.179,0.079-57.269-0.056c-2.022-0.024-4.138-0.808-6.051-1.761c-6.125-3.067-7.091-7.83-3.645-14.858
		c2.146-4.364,4.627-6.059,8.875-5.984c22.385,0.33,44.763,0.153,67.146,0.153C401.423,246.431,403.128,246.431,406.129,246.431z"/>
	<path fill="#FFFFFF" d="M390.157,201.938c-7.844,13.368-15.056,25.764-22.408,38.032c-0.648,1.075-2.2,1.772-3.338,1.791
		c-11.191,0.128-22.385,0.072-34.407,0.072c2.781-4.908,5.196-9.271,7.684-13.568c4.42-7.61,8.895-15.196,13.319-22.807
		c1.388-2.396,2.916-3.686,5.544-3.625C367.438,202.073,378.336,201.938,390.157,201.938z"/>
	<path fill="#FFFFFF" d="M315.561,247.287c-4.126,7.066-8.13,13.979-12.207,20.819c-0.312,0.524-1.118,0.831-1.699,0.831
		c-10.897,0.049-21.797,0.036-33.568,0.036c4.426-7.628,8.374-14.512,12.438-21.295c0.453-0.746,1.584-1.198,2.402-1.198
		c10.404-0.062,20.808-0.006,31.211,0.037C314.484,246.517,314.827,246.884,315.561,247.287z"/>
	<path fill="#FFFFFF" d="M217.841,268.986c4.419-7.481,8.264-14.15,12.268-20.667c0.617-0.996,1.969-1.785,2.983-1.803
		c10.647-0.128,21.296-0.073,32.781-0.073c-4.383,7.53-8.289,14.42-12.385,21.119c-0.567,0.94-2.054,1.355-3.122,1.361
		C239.833,269.023,229.302,268.986,217.841,268.986z"/>
</g>
</svg>
