<?xml version="1.0" encoding="utf-8"?>
<!-- Generator: Adobe Illustrator 16.0.0, SVG Export Plug-In . SVG Version: 6.00 Build 0)  -->
<!DOCTYPE svg PUBLIC "-//W3C//DTD SVG 1.1//EN" "http://www.w3.org/Graphics/SVG/1.1/DTD/svg11.dtd">
<svg version="1.1" id="Layer_1" xmlns="http://www.w3.org/2000/svg" xmlns:xlink="http://www.w3.org/1999/xlink" x="0px" y="0px"
	 width="512px" height="512px" viewBox="0 0 512 512" enable-background="new 0 0 512 512" xml:space="preserve">
<g>
	<g>
		
			<linearGradient id="SVGID_1_" gradientUnits="userSpaceOnUse" x1="75.6448" y1="402.6658" x2="391.718" y2="86.5926" gradientTransform="matrix(1 0 0 -1 24.9448 503.3589)">
			<stop  offset="0" style="stop-color:#FFA300"/>
			<stop  offset="1" style="stop-color:#FF6400"/>
		</linearGradient>
		<path fill="url(#SVGID_1_)" d="M481.226,256.33c0,124.262-100.732,225-225,225c-124.267,0-225-100.738-225-225
			c0-124.267,100.733-225,225-225C380.493,31.33,481.226,132.063,481.226,256.33z"/>
		
			<linearGradient id="SVGID_2_" gradientUnits="userSpaceOnUse" x1="125.3352" y1="430.5349" x2="337.2285" y2="63.5249" gradientTransform="matrix(1 0 0 -1 24.9448 503.3589)">
			<stop  offset="0" style="stop-color:#FF6400"/>
			<stop  offset="1" style="stop-color:#FFA300"/>
		</linearGradient>
		<circle fill="url(#SVGID_2_)" cx="256.226" cy="256.33" r="211.858"/>
	</g>
</g>
<g opacity="0.6">
	<g>
		<path d="M377.21,286.807c-5.281,4.779-9.651,8.955-14.34,12.743c-0.937,0.76-3.563,0.648-4.598-0.134
			c-15.257-11.516-40.567-4.271-48.619,14.225c-9.297,21.369,6.663,47.787,29.714,47.17c13.239-0.354,23.483-4.162,29.357-16.632
			c0.452-0.979,0.844-2.011,1.069-3.063c0.146-0.685-0.062-1.447-0.142-2.678c-9.742,0-19.438,0-29.383,0c0-6.687,0-12.885,0-19.413
			c0.997-0.146,2.023-0.438,3.063-0.438c14.555-0.031,29.114,0.042,43.668-0.08c3.337-0.03,4.957,0.666,5.098,4.522
			c0.55,15.336-1.899,29.719-12.176,41.834c-5.765,6.804-13.173,11.21-21.479,14.235c-33.153,12.054-68.918-11.395-72.665-45.686
			c-3.295-30.085,18.46-54.438,43.559-59.438C347.075,270.456,361.488,275.97,377.21,286.807z"/>
	</g>
	<g>
		<path d="M277.43,321.802c-18.276,0.006-36.553-0.006-54.823-0.006c-16.62,0-33.246-0.024-49.865,0.006
			c-9.162,0.019-14.469-4.963-14.475-14.146c-0.061-35.373-0.018-70.746,0.006-106.112c0-4.363,0.067-4.278,4.39-4.271
			c26.448,0.023,52.891,0.012,79.333,0.012c0,0.012,0,0.031,0,0.049c23.209,0,46.413,0,69.622,0c3.545,0,7.096,0.147,10.629-0.023
			c2.427-0.116,3.159,0.746,3.147,3.124c-0.08,15.408-0.037,30.813-0.049,46.216c0,6.528-0.007,13.062-0.007,19.59
			c0.838-0.208,1.682-0.397,2.531-0.563c5.524-1.1,10.775-1.437,15.854-1.094c0.024-32.421,0.055-64.841,0.03-97.256
			c-0.012-16.021-11.933-29.291-27.922-30.709c-6.938-0.617-13.967-0.188-20.953-0.287c-2.299-0.031-2.269,1.479-2.262,3.075
			c0.006,6.797-0.043,13.582,0.023,20.367c0.086,9.383-6.992,16.974-16.105,17.158c-9.119,0.183-16.56-7.428-16.577-16.969
			c0-6.583,0.013-13.179,0.013-19.762c0-3.881-0.055-3.869-3.856-3.845c-10.74,0.049-21.474,0.141-32.214-0.012
			c-2.628-0.037-3.569,0.525-3.526,3.288c0.128,7.292,0.22,14.598-0.153,21.876c-0.471,9.139-8.16,15.862-17.06,15.397
			c-8.741-0.446-15.587-8.154-15.44-17.195c0.116-6.785-0.049-13.575,0.085-20.359c0.049-2.5-1.045-3.13-3.294-3.063
			c-4.854,0.142-9.719,0.086-14.579,0.189c-16.332,0.343-29.81,13.558-29.986,29.878c-0.228,21.069-0.093,42.15-0.104,63.228
			c-0.012,23.203-0.11,46.406,0.024,69.608c0.03,6.144-0.208,12.556,1.418,18.362c4.113,14.693,16.088,22.665,31.455,22.572
			c23.099-0.141,46.204-0.036,69.31-0.036c0-0.019,0-0.036,0-0.062c12.14,0,24.278,0.043,36.418,0.055
			c-0.385-1.889-0.697-3.813-0.904-5.771C277.094,330.034,277.069,325.854,277.43,321.802z"/>
		<path d="M203.695,169.741c5.317,0.043,9.463-4.028,9.48-9.34c0.025-5.471,0-10.936,0-16.4h-0.006
			c0-5.367,0.023-10.732-0.006-16.094c-0.03-5.416-4.107-9.444-9.419-9.364c-4.902,0.073-8.846,4.188-8.852,9.321
			c-0.023,10.831-0.031,21.663-0.023,32.488C194.869,165.444,198.891,169.704,203.695,169.741z"/>
		<path d="M267.148,160.04c-0.006,5.478,3.918,9.652,9.12,9.701c5.159,0.049,9.175-4.181,9.169-9.639
			c-0.007-10.733,0.006-21.461,0.006-32.201c0.007-5.208-4.01-9.34-9.113-9.371c-5.085-0.03-9.126,4.047-9.162,9.315
			c-0.037,5.366-0.006,10.728-0.014,16.094C267.148,149.307,267.154,154.674,267.148,160.04z"/>
		<path d="M273.622,251.012c-0.02-0.776-1.29-2.158-2.013-2.171c-6.962-0.152-13.937-0.072-20.903-0.072
			c-1.847,0-2.428,0.959-2.415,2.683c0.049,5.354,0.074,10.709-0.019,16.063c-0.037,1.999,0.819,2.701,2.702,2.672
			c3.337-0.05,6.668-0.014,10-0.014c0,0.014,0,0.024,0,0.036c3.437,0,6.877-0.022,10.313,0.014c1.559,0.013,2.463-0.466,2.45-2.237
			C273.683,262.326,273.799,256.66,273.622,251.012z"/>
		<path d="M235.352,251.214c0.02-1.814-0.721-2.536-2.537-2.493c-3.337,0.086-6.675,0.024-10.012,0.024c0,0.024,0,0.049,0,0.073
			c-3.436,0-6.871,0.042-10.312-0.012c-1.938-0.037-2.689,0.775-2.665,2.72c0.073,5.263,0.098,10.52-0.013,15.776
			c-0.043,2.103,0.723,2.879,2.813,2.859c6.771-0.055,13.551-0.018,20.324,0.049c1.87,0.014,2.438-0.86,2.415-2.614
			C235.303,262.137,235.303,256.679,235.352,251.214z"/>
		<path d="M254.795,233.695c6.136,0.019,12.28,0,18.906,0c0-6.896,0.061-13.251-0.093-19.604c-0.012-0.623-1.332-1.729-2.06-1.747
			c-6.864-0.116-13.735,0-20.599-0.043c-1.933-0.013-2.727,0.702-2.69,2.664c0.067,4.041-0.012,8.081-0.018,12.121
			C248.23,233.653,248.236,233.671,254.795,233.695z"/>
		<path d="M233.218,212.388c-6.974-0.136-13.949-0.007-20.923-0.043c-1.858-0.007-2.482,0.758-2.458,2.543
			c0.062,5.458,0.073,10.923-0.006,16.387c-0.024,1.84,0.672,2.523,2.48,2.481c3.441-0.079,6.877-0.019,10.318-0.019
			c0-0.012,0-0.019,0-0.019c3.337-0.007,6.675-0.05,10.012,0.013c1.828,0.03,2.781-0.478,2.738-2.573
			c-0.116-5.563,0.031-11.125-0.146-16.681C235.211,213.732,233.934,212.4,233.218,212.388z"/>
		<path d="M309.142,270.242c2.146,0.067,3.11-0.6,3.056-2.928c-0.128-5.159-0.115-10.318,0.014-15.471
			c0.061-2.396-0.851-3.191-3.191-3.148c-6.369,0.098-12.738,0.092-19.106-0.012c-2.206-0.031-3.129,0.77-3.104,2.988
			c0.055,5.257,0.049,10.514-0.043,15.771c-0.037,2.158,0.966,2.836,2.965,2.787c3.228-0.085,6.467-0.024,9.706-0.02
			C302.668,270.211,305.908,270.138,309.142,270.242z"/>
		<path d="M174.074,270.188c6.675-0.1,13.354-0.086,20.036-0.02c1.913,0.02,2.781-0.593,2.75-2.609
			c-0.072-5.465-0.043-10.93-0.006-16.395c0.013-1.632-0.568-2.415-2.316-2.372c-3.448,0.085-6.89,0.024-10.33,0.031
			c-3.337,0.006-6.682,0.098-10.019-0.037c-2.065-0.079-2.91,0.55-2.867,2.738c0.123,5.257,0.104,10.524-0.006,15.789
			C171.274,269.374,171.91,270.218,174.074,270.188z"/>
		<path d="M289.264,233.714c3.437-0.049,6.87-0.012,10.306-0.012c3.331-0.006,6.669-0.055,10.007,0.019
			c1.687,0.043,2.628-0.336,2.604-2.322c-0.091-5.453-0.085-10.911,0.02-16.363c0.043-2.115-0.782-2.824-2.843-2.799
			c-6.564,0.08-13.13,0.091-19.693-0.006c-2.121-0.024-2.91,0.844-2.887,2.854c0.057,5.452,0.086,10.911,0.067,16.363
			C286.837,233.164,287.638,233.745,289.264,233.714z"/>
		<path d="M273.622,287.332c-0.014-0.689-1.218-1.925-1.896-1.938c-7.072-0.128-14.145-0.116-21.222,0.062
			c-0.746,0.02-2.072,1.346-2.097,2.098c-0.184,5.556-0.067,11.117-0.116,16.675c-0.013,1.834,0.818,2.536,2.58,2.519
			c3.435-0.043,6.87-0.013,10.306-0.013c0,0.013,0,0.03,0,0.037c3.337,0,6.675-0.024,10.006,0.018
			c1.534,0.02,2.556-0.366,2.549-2.17C273.701,298.854,273.78,293.091,273.622,287.332z"/>
		<path d="M194.043,285.37c-6.668,0.08-13.337,0.067-20.006-0.006c-1.919-0.024-2.732,0.587-2.702,2.598
			c0.092,5.354,0.104,10.709-0.006,16.069c-0.043,2.188,0.892,2.781,2.916,2.715c3.232-0.116,6.467-0.03,9.707-0.03v-0.019
			c3.332,0,6.669-0.086,10,0.03c2.065,0.079,2.934-0.63,2.896-2.771c-0.08-5.257-0.073-10.513,0.031-15.764
			C196.922,286.086,196.14,285.34,194.043,285.37z"/>
		<path d="M232.821,285.346c-3.337,0.072-6.668,0.023-10.006,0.023c0,0.007,0,0.013,0,0.02c-3.337,0-6.669,0.072-10-0.03
			c-2.193-0.073-3.063,0.709-3.001,2.989c0.122,5.146,0.086,10.299,0.006,15.458c-0.03,2.011,0.6,2.952,2.77,2.934
			c6.767-0.061,13.533-0.029,20.306,0.037c1.87,0.02,2.463-0.831,2.451-2.579c-0.049-5.459-0.049-10.911,0.012-16.369
			C235.382,285.988,234.606,285.31,232.821,285.346z"/>
	</g>
</g>
<g>
	<g>
		<path fill="#FFFFFF" d="M386.21,277.807c-5.281,4.779-9.651,8.955-14.34,12.743c-0.937,0.76-3.563,0.648-4.598-0.134
			c-15.257-11.516-40.567-4.271-48.619,14.225c-9.297,21.369,6.663,47.787,29.714,47.17c13.239-0.354,23.483-4.162,29.357-16.632
			c0.452-0.979,0.844-2.011,1.069-3.063c0.146-0.685-0.062-1.447-0.142-2.678c-9.742,0-19.438,0-29.383,0c0-6.687,0-12.885,0-19.413
			c0.997-0.146,2.023-0.438,3.063-0.438c14.555-0.031,29.114,0.042,43.668-0.08c3.337-0.03,4.957,0.666,5.098,4.522
			c0.55,15.336-1.899,29.719-12.176,41.834c-5.765,6.804-13.173,11.21-21.479,14.235c-33.153,12.054-68.918-11.395-72.665-45.686
			c-3.295-30.085,18.46-54.438,43.559-59.438C356.075,261.456,370.488,266.97,386.21,277.807z"/>
	</g>
	<g>
		<path fill="#FFFFFF" d="M286.43,312.802c-18.276,0.006-36.553-0.006-54.823-0.006c-16.62,0-33.246-0.024-49.865,0.006
			c-9.162,0.019-14.469-4.963-14.475-14.146c-0.061-35.373-0.018-70.746,0.006-106.112c0-4.363,0.067-4.278,4.39-4.271
			c26.448,0.023,52.891,0.012,79.333,0.012c0,0.012,0,0.031,0,0.049c23.209,0,46.413,0,69.622,0c3.545,0,7.096,0.147,10.629-0.023
			c2.427-0.116,3.159,0.746,3.147,3.124c-0.08,15.408-0.037,30.813-0.049,46.216c0,6.528-0.007,13.062-0.007,19.59
			c0.838-0.208,1.682-0.397,2.531-0.563c5.524-1.1,10.775-1.437,15.854-1.094c0.024-32.421,0.055-64.841,0.03-97.256
			c-0.012-16.021-11.933-29.291-27.922-30.709c-6.938-0.617-13.967-0.188-20.953-0.287c-2.299-0.031-2.269,1.479-2.262,3.075
			c0.006,6.797-0.043,13.582,0.023,20.367c0.086,9.383-6.992,16.974-16.105,17.158c-9.119,0.183-16.56-7.428-16.577-16.969
			c0-6.583,0.013-13.179,0.013-19.762c0-3.881-0.055-3.869-3.856-3.845c-10.74,0.049-21.474,0.141-32.214-0.012
			c-2.628-0.037-3.569,0.525-3.526,3.288c0.128,7.292,0.22,14.598-0.153,21.876c-0.471,9.139-8.16,15.862-17.06,15.397
			c-8.741-0.446-15.587-8.154-15.44-17.195c0.116-6.785-0.049-13.575,0.085-20.359c0.049-2.5-1.045-3.13-3.294-3.063
			c-4.854,0.142-9.719,0.086-14.579,0.189c-16.332,0.343-29.81,13.558-29.986,29.878c-0.228,21.069-0.093,42.15-0.104,63.228
			c-0.012,23.203-0.11,46.406,0.024,69.608c0.03,6.144-0.208,12.556,1.418,18.362c4.113,14.693,16.088,22.665,31.455,22.572
			c23.099-0.141,46.204-0.036,69.31-0.036c0-0.019,0-0.036,0-0.062c12.14,0,24.278,0.043,36.418,0.055
			c-0.385-1.889-0.697-3.813-0.904-5.771C286.094,321.034,286.069,316.854,286.43,312.802z"/>
		<path fill="#FFFFFF" d="M212.695,160.741c5.317,0.043,9.463-4.028,9.48-9.34c0.025-5.471,0-10.936,0-16.4h-0.006
			c0-5.367,0.023-10.732-0.006-16.094c-0.03-5.416-4.107-9.444-9.419-9.364c-4.902,0.073-8.846,4.188-8.852,9.321
			c-0.023,10.831-0.031,21.663-0.023,32.488C203.869,156.444,207.891,160.704,212.695,160.741z"/>
		<path fill="#FFFFFF" d="M276.148,151.04c-0.006,5.478,3.918,9.652,9.12,9.701c5.159,0.049,9.175-4.181,9.169-9.639
			c-0.007-10.733,0.006-21.461,0.006-32.201c0.007-5.208-4.01-9.34-9.113-9.371c-5.085-0.03-9.126,4.047-9.162,9.315
			c-0.037,5.366-0.006,10.728-0.014,16.094C276.148,140.307,276.154,145.674,276.148,151.04z"/>
		<path fill="#FFFFFF" d="M282.622,242.012c-0.02-0.776-1.29-2.158-2.013-2.171c-6.962-0.152-13.937-0.072-20.903-0.072
			c-1.847,0-2.428,0.959-2.415,2.683c0.049,5.354,0.074,10.709-0.019,16.063c-0.037,1.999,0.819,2.701,2.702,2.672
			c3.337-0.05,6.668-0.014,10-0.014c0,0.014,0,0.024,0,0.036c3.437,0,6.877-0.022,10.313,0.014c1.559,0.013,2.463-0.466,2.45-2.237
			C282.683,253.326,282.799,247.66,282.622,242.012z"/>
		<path fill="#FFFFFF" d="M244.352,242.214c0.02-1.814-0.721-2.536-2.537-2.493c-3.337,0.086-6.675,0.024-10.012,0.024
			c0,0.024,0,0.049,0,0.073c-3.436,0-6.871,0.042-10.312-0.012c-1.938-0.037-2.689,0.775-2.665,2.72
			c0.073,5.263,0.098,10.52-0.013,15.776c-0.043,2.103,0.723,2.879,2.813,2.859c6.771-0.055,13.551-0.018,20.324,0.049
			c1.87,0.014,2.438-0.86,2.415-2.614C244.303,253.137,244.303,247.679,244.352,242.214z"/>
		<path fill="#FFFFFF" d="M263.795,224.695c6.136,0.019,12.28,0,18.906,0c0-6.896,0.061-13.251-0.093-19.604
			c-0.012-0.623-1.332-1.729-2.06-1.747c-6.864-0.116-13.735,0-20.599-0.043c-1.933-0.013-2.727,0.702-2.69,2.664
			c0.067,4.041-0.012,8.081-0.018,12.121C257.23,224.653,257.236,224.671,263.795,224.695z"/>
		<path fill="#FFFFFF" d="M242.218,203.388c-6.974-0.136-13.949-0.007-20.923-0.043c-1.858-0.007-2.482,0.758-2.458,2.543
			c0.062,5.458,0.073,10.923-0.006,16.387c-0.024,1.84,0.672,2.523,2.48,2.481c3.441-0.079,6.877-0.019,10.318-0.019
			c0-0.012,0-0.019,0-0.019c3.337-0.007,6.675-0.05,10.012,0.013c1.828,0.03,2.781-0.478,2.738-2.573
			c-0.116-5.563,0.031-11.125-0.146-16.681C244.211,204.732,242.934,203.4,242.218,203.388z"/>
		<path fill="#FFFFFF" d="M318.142,261.242c2.146,0.067,3.11-0.6,3.056-2.928c-0.128-5.159-0.115-10.318,0.014-15.471
			c0.061-2.396-0.851-3.191-3.191-3.148c-6.369,0.098-12.738,0.092-19.106-0.012c-2.206-0.031-3.129,0.77-3.104,2.988
			c0.055,5.257,0.049,10.514-0.043,15.771c-0.037,2.158,0.966,2.836,2.965,2.787c3.228-0.085,6.467-0.024,9.706-0.02
			C311.668,261.211,314.908,261.138,318.142,261.242z"/>
		<path fill="#FFFFFF" d="M183.074,261.188c6.675-0.1,13.354-0.086,20.036-0.02c1.913,0.02,2.781-0.593,2.75-2.609
			c-0.072-5.465-0.043-10.93-0.006-16.395c0.013-1.632-0.568-2.415-2.316-2.372c-3.448,0.085-6.89,0.024-10.33,0.031
			c-3.337,0.006-6.682,0.098-10.019-0.037c-2.065-0.079-2.91,0.55-2.867,2.738c0.123,5.257,0.104,10.524-0.006,15.789
			C180.274,260.374,180.91,261.218,183.074,261.188z"/>
		<path fill="#FFFFFF" d="M298.264,224.714c3.437-0.049,6.87-0.012,10.306-0.012c3.331-0.006,6.669-0.055,10.007,0.019
			c1.687,0.043,2.628-0.336,2.604-2.322c-0.091-5.453-0.085-10.911,0.02-16.363c0.043-2.115-0.782-2.824-2.843-2.799
			c-6.564,0.08-13.13,0.091-19.693-0.006c-2.121-0.024-2.91,0.844-2.887,2.854c0.057,5.452,0.086,10.911,0.067,16.363
			C295.837,224.164,296.638,224.745,298.264,224.714z"/>
		<path fill="#FFFFFF" d="M282.622,278.332c-0.014-0.689-1.218-1.925-1.896-1.938c-7.072-0.128-14.145-0.116-21.222,0.062
			c-0.746,0.02-2.072,1.346-2.097,2.098c-0.184,5.556-0.067,11.117-0.116,16.675c-0.013,1.834,0.818,2.536,2.58,2.519
			c3.435-0.043,6.87-0.013,10.306-0.013c0,0.013,0,0.03,0,0.037c3.337,0,6.675-0.024,10.006,0.018
			c1.534,0.02,2.556-0.366,2.549-2.17C282.701,289.854,282.78,284.091,282.622,278.332z"/>
		<path fill="#FFFFFF" d="M203.043,276.37c-6.668,0.08-13.337,0.067-20.006-0.006c-1.919-0.024-2.732,0.587-2.702,2.598
			c0.092,5.354,0.104,10.709-0.006,16.069c-0.043,2.188,0.892,2.781,2.916,2.715c3.232-0.116,6.467-0.03,9.707-0.03v-0.019
			c3.332,0,6.669-0.086,10,0.03c2.065,0.079,2.934-0.63,2.896-2.771c-0.08-5.257-0.073-10.513,0.031-15.764
			C205.922,277.086,205.14,276.34,203.043,276.37z"/>
		<path fill="#FFFFFF" d="M241.821,276.346c-3.337,0.072-6.668,0.023-10.006,0.023c0,0.007,0,0.013,0,0.02
			c-3.337,0-6.669,0.072-10-0.03c-2.193-0.073-3.063,0.709-3.001,2.989c0.122,5.146,0.086,10.299,0.006,15.458
			c-0.03,2.011,0.6,2.952,2.77,2.934c6.767-0.061,13.533-0.029,20.306,0.037c1.87,0.02,2.463-0.831,2.451-2.579
			c-0.049-5.459-0.049-10.911,0.012-16.369C244.382,276.988,243.606,276.31,241.821,276.346z"/>
	</g>
</g>
</svg>
