<?xml version="1.0" encoding="utf-8"?>
<!-- Generator: Adobe Illustrator 16.0.0, SVG Export Plug-In . SVG Version: 6.00 Build 0)  -->
<!DOCTYPE svg PUBLIC "-//W3C//DTD SVG 1.1//EN" "http://www.w3.org/Graphics/SVG/1.1/DTD/svg11.dtd">
<svg version="1.1" id="Layer_1" xmlns="http://www.w3.org/2000/svg" xmlns:xlink="http://www.w3.org/1999/xlink" x="0px" y="0px"
	 width="512px" height="512px" viewBox="0 0 512 512" enable-background="new 0 0 512 512" xml:space="preserve">
<g>
	<g>
		
			<linearGradient id="SVGID_1_" gradientUnits="userSpaceOnUse" x1="76.2654" y1="403.4138" x2="392.3385" y2="87.3407" gradientTransform="matrix(1 0 0 -1 24.9448 503.3589)">
			<stop  offset="0" style="stop-color:#FF7601"/>
			<stop  offset="1" style="stop-color:#FF0000"/>
		</linearGradient>
		<path fill="url(#SVGID_1_)" d="M481.846,255.581c0,124.262-100.733,225-225,225s-225-100.738-225-225
			c0-124.264,100.733-225,225-225S481.846,131.317,481.846,255.581z"/>
		
			<linearGradient id="SVGID_2_" gradientUnits="userSpaceOnUse" x1="125.9539" y1="431.283" x2="337.8492" y2="64.2694" gradientTransform="matrix(1 0 0 -1 24.9448 503.3589)">
			<stop  offset="0" style="stop-color:#FF0000"/>
			<stop  offset="1" style="stop-color:#FF6301"/>
		</linearGradient>
		<path fill="url(#SVGID_2_)" d="M468.703,255.581c0,117.012-94.854,211.864-211.857,211.864S44.987,372.593,44.987,255.581
			c0-117.005,94.854-211.857,211.858-211.857S468.703,138.576,468.703,255.581z"/>
	</g>
</g>
<g opacity="0.6">
	<g>
		<path d="M255.379,153.05c-36.382,0-72.549,0-109.089,0c-0.214,1.853-0.544,3.479-0.55,5.123
			c-0.03,19.298,0.115,38.606-0.104,57.892c-0.061,4.743,1.418,6.216,6.167,6.161c19.511-0.227,39.028-0.33,58.527,0.128
			c3.747,0.086,8.605,1.938,10.88,4.676c5.061,6.106-0.006,14.75-8.576,14.988c-12.286,0.323-24.59,0.128-36.896,0.134
			c-12.72,0.006-25.458,0.092-38.165-0.037c-8.411-0.098-11.98-3.643-12.012-12.127c-0.098-28.423-0.098-56.846,0-85.266
			c0.031-8.387,3.71-12.234,11.999-12.25c42.201-0.096,84.407-0.096,126.603,0.009c7.737,0.023,11.319,3.594,11.778,11.201
			c0.244,4.224,0.25,8.5-0.086,12.711c-0.557,6.62-4.242,10.195-9.951,10.195c-5.408,0-9.033-3.404-10.043-9.492
			C255.66,155.887,255.562,154.64,255.379,153.05z"/>
		<path d="M172.035,197.054c2.737,1.259,4.768,2.512,6.968,3.129c3.411,0.96,6.938,1.926,10.428,1.975
			c1.534,0.012,3.105-2.237,4.664-3.448c-1.192-1.503-2.079-3.63-3.619-4.352c-3.619-1.699-7.586-2.659-11.345-4.04
			c-5.819-2.133-9.859-5.789-10.031-12.463c-0.171-6.418,2.94-10.648,8.559-13.637c1.827-0.979,2.714-3.618,4.192-5.36
			c1.144-1.352,2.409-3.319,3.827-3.521c1.375-0.208,4.303,1.412,4.364,2.385c0.348,5.599,5.018,5.867,8.417,8.038
			c2.06,1.345,3.067,4.314,4.554,6.552c-2.372,1.009-4.804,2.928-7.109,2.788c-3.472-0.238-6.797-2.434-10.28-2.732
			c-1.742-0.159-3.687,2.036-5.525,3.154c1.253,1.663,2.151,4.027,3.826,4.847c3.576,1.748,7.567,2.642,11.351,3.998
			c5.947,2.121,9.726,6.173,9.737,12.671c0.019,6.56-3.301,11.021-9.358,13.814c-2.054,0.954-3.301,3.526-5.036,5.214
			c-1.4,1.363-3.038,3.527-4.499,3.472c-1.485-0.073-4.017-2.329-4.107-3.759c-0.238-3.838-2.543-4.7-5.434-5.825
			c-2.715-1.039-5.465-2.463-7.567-4.389c-1.057-0.959-1.381-3.649-0.837-5.128C168.691,198.992,170.727,198.111,172.035,197.054z"
			/>
	</g>
	<g>
		<path d="M316.87,297.806c-22.151,0-44.298,0.152-66.461-0.056c-13.704-0.122-22.451-9.363-22.451-23.057
			c0-28.337,0.465-56.668-0.257-84.975c-0.244-9.407,10.867-21.132,19.64-21.211c9.083-0.072,18.154-0.537,27.23-0.556
			c32.14-0.08,64.284-0.073,96.418-0.023c4.714,0,9.443,0.214,14.133,0.653c12.829,1.187,20.807,10.179,20.807,23.215
			c0,27.788,0,55.568,0,83.338c0,12.714-9.205,22.438-22.06,22.562c-22.329,0.238-44.664,0.073-66.999,0.073
			C316.87,297.775,316.87,297.794,316.87,297.806z M393.863,215.948c-2.427,0-4.205,0-5.979,0c-37.414,0-74.841,0-112.249,0.024
			c-9.811,0.006-19.621,0.134-29.432,0.171c-2.818,0.006-4.854,0.416-4.812,4.132c0.263,17.977,0.171,35.959,0.531,53.931
			c0.135,7.098,3.167,9.561,10.312,9.578c21.987,0.012,43.968,0.042,65.941-0.019c22.164-0.05,44.315-0.165,66.485-0.336
			c5.538-0.043,9.113-2.959,9.149-7.818C393.948,256.015,393.863,236.394,393.863,215.948z M393.655,193.863
			c0.178-8.02-2.012-10.617-9.059-11.21c-2.177-0.178-4.358-0.257-6.528-0.257c-42.14-0.062-84.271-0.116-126.399-0.142
			c-7.042,0-10.458,4.176-9.652,11.607C292.457,193.863,342.903,193.863,393.655,193.863z"/>
		<path d="M276.943,269.646c-8.093,6.198-16.589,6.088-22.207-0.049c-4.907-5.354-5.122-14.064-0.488-19.413
			c5.983-6.876,13.813-7.183,22.75-0.887c10.024-6.026,17.988-5.715,23.196,0.887c4.641,5.917,4.377,14.07-0.642,19.37
			C293.569,275.868,286.057,275.96,276.943,269.646z"/>
	</g>
	<g>
		<path d="M133.875,348.784c-5.521,4.859-2.22,13.729,8.949,13.729c6.49,0,12.982-4.188,18.074-10.887
			c-7.244-3.563-13.387-6.118-20.023-5.458C139.083,346.345,135.715,347.146,133.875,348.784z"/>
		<path d="M144.162,367.354c-14.321,0-19.188-12.641-12.402-20.966c1.473-1.815,3.991-3.545,7.897-4.518
			c6.101-1.51,15.824,0.947,24.933,3.979c1.7-3.166,3.05-6.51,4.047-9.963h-28.075v-2.873h14.475v-5.142h-17.53v-2.865h17.53v-7.335
			c0,0,0-1.235,1.24-1.235h7.072v8.57h17.335v2.865H163.35v5.142h14.15c-1.352,5.593-3.411,10.74-5.99,15.263
			c4.291,1.565,8.148,3.05,11.021,4.022c10.27,3.466,12.646,3.68,12.678,3.68v-37.543c0-6.406-5.142-11.596-11.492-11.596h-48.79
			c-6.351,0-11.498,5.188-11.498,11.596v49.205c0,6.4,5.146,11.596,11.498,11.596h48.79c6.351,0,11.492-5.194,11.492-11.596v-0.478
			c-0.067-0.029-18.687-7.854-28.093-12.427C160.788,362.593,152.628,367.354,144.162,367.354z"/>
		<rect x="195.208" y="355.979" width="0.006" height="11.186"/>
	</g>
	<g>
		<path d="M279.303,317.439c0,3.747,2.732,6.265,6.553,6.265c3.821,0,6.554-2.518,6.554-6.265c0-3.674-2.738-6.266-6.554-6.266
			C282.035,311.175,279.303,313.766,279.303,317.439"/>
		<path d="M261.002,365.338h11.382v-52.58h-11.382V365.338z M224.486,347.115l6.768-23.411h0.293l6.406,23.411H224.486z
			 M241.051,314.561h-15.269l-17.072,50.776h10.52l2.879-9.939h18.081l2.732,9.939h13.472L241.051,314.561z M280.158,365.338h11.382
			V326.73h-11.382V365.338z M410.464,326.798l0.072-0.066h-10.732l-6.767,23.478h-0.36l-7.781-23.478h-12.75l15.342,38.746
			l-6.411,11.816v0.286h10.019L410.464,326.798z M312.646,358.712c-1.313,0.018-2.629-0.179-3.888-0.575V337.25
			c2.378-1.662,4.321-2.45,6.771-2.45c4.248,0,7.636,3.38,7.636,10.587C323.166,354.604,318.196,358.712,312.646,358.712
			 M319.854,325.941c-4.182,0-7.421,1.577-11.095,4.609v-3.82h-11.382v50.85h11.382v-12.604c2.164,0.575,4.175,0.868,6.626,0.868
			c10.152,0,19.303-7.494,19.303-20.819C334.688,333.068,328.063,325.941,319.854,325.941 M358.533,355.973
			c-3.026,1.656-4.757,2.304-6.768,2.304c-2.739,0-4.469-1.797-4.469-4.676c0-1.082,0.214-2.164,1.076-3.032
			c1.375-1.369,4.04-2.371,10.158-3.813v9.217H358.533z M369.908,355.685v-16.137c0-8.783-5.179-13.606-14.328-13.606
			c-5.831,0-9.871,1.003-17.213,3.24l2.012,8.855c6.699-3.024,9.657-4.32,12.75-4.32c3.747,0,5.403,2.665,5.403,6.767v0.293
			c-13.037,2.445-17.071,3.814-19.591,6.339c-1.877,1.87-2.665,4.535-2.665,7.628c0,7.421,5.765,11.389,11.167,11.389
			c4.028,0,7.274-1.517,11.663-4.828l0.795,4.034h11.381L369.908,355.685z"/>
	</g>
</g>
<g>
	<g>
		<path fill="#FFFFFF" d="M265.379,143.05c-36.382,0-72.549,0-109.089,0c-0.214,1.853-0.544,3.479-0.55,5.123
			c-0.03,19.298,0.115,38.606-0.104,57.892c-0.061,4.743,1.418,6.216,6.167,6.161c19.511-0.227,39.028-0.33,58.527,0.128
			c3.747,0.086,8.605,1.938,10.88,4.676c5.061,6.106-0.006,14.75-8.576,14.988c-12.286,0.323-24.59,0.128-36.896,0.134
			c-12.72,0.006-25.458,0.092-38.165-0.037c-8.411-0.098-11.98-3.643-12.012-12.127c-0.098-28.423-0.098-56.846,0-85.266
			c0.031-8.387,3.71-12.234,11.999-12.25c42.201-0.096,84.407-0.096,126.603,0.009c7.737,0.023,11.319,3.594,11.778,11.201
			c0.244,4.224,0.25,8.5-0.086,12.711c-0.557,6.62-4.242,10.195-9.951,10.195c-5.408,0-9.033-3.404-10.043-9.492
			C265.66,145.887,265.562,144.64,265.379,143.05z"/>
		<path fill="#FFFFFF" d="M182.035,187.054c2.737,1.259,4.768,2.512,6.968,3.129c3.411,0.96,6.938,1.926,10.428,1.975
			c1.534,0.012,3.105-2.237,4.664-3.448c-1.192-1.503-2.079-3.63-3.619-4.352c-3.619-1.699-7.586-2.659-11.345-4.04
			c-5.819-2.133-9.859-5.789-10.031-12.463c-0.171-6.418,2.94-10.648,8.559-13.637c1.827-0.979,2.714-3.618,4.192-5.36
			c1.144-1.352,2.409-3.319,3.827-3.521c1.375-0.208,4.303,1.412,4.364,2.385c0.348,5.599,5.018,5.867,8.417,8.038
			c2.06,1.345,3.067,4.314,4.554,6.552c-2.372,1.009-4.804,2.928-7.109,2.788c-3.472-0.238-6.797-2.434-10.28-2.732
			c-1.742-0.159-3.687,2.036-5.525,3.154c1.253,1.663,2.151,4.027,3.826,4.847c3.576,1.748,7.567,2.642,11.351,3.998
			c5.947,2.121,9.726,6.173,9.737,12.671c0.019,6.56-3.301,11.021-9.358,13.814c-2.054,0.954-3.301,3.526-5.036,5.214
			c-1.4,1.363-3.038,3.527-4.499,3.472c-1.485-0.073-4.017-2.329-4.107-3.759c-0.238-3.838-2.543-4.7-5.434-5.825
			c-2.715-1.039-5.465-2.463-7.567-4.389c-1.057-0.959-1.381-3.649-0.837-5.128C178.691,188.992,180.727,188.111,182.035,187.054z"
			/>
	</g>
	<g>
		<path fill="#FFFFFF" d="M326.87,287.806c-22.151,0-44.298,0.152-66.461-0.056c-13.704-0.122-22.451-9.363-22.451-23.057
			c0-28.337,0.465-56.668-0.257-84.975c-0.244-9.407,10.867-21.132,19.64-21.211c9.083-0.072,18.154-0.537,27.23-0.556
			c32.14-0.08,64.284-0.073,96.418-0.023c4.714,0,9.443,0.214,14.133,0.653c12.829,1.187,20.807,10.179,20.807,23.215
			c0,27.788,0,55.568,0,83.338c0,12.714-9.205,22.438-22.06,22.562c-22.329,0.238-44.664,0.073-66.999,0.073
			C326.87,287.775,326.87,287.794,326.87,287.806z M403.863,205.948c-2.427,0-4.205,0-5.979,0c-37.414,0-74.841,0-112.249,0.024
			c-9.811,0.006-19.621,0.134-29.432,0.171c-2.818,0.006-4.854,0.416-4.812,4.132c0.263,17.977,0.171,35.959,0.531,53.931
			c0.135,7.098,3.167,9.561,10.312,9.578c21.987,0.012,43.968,0.042,65.941-0.019c22.164-0.05,44.315-0.165,66.485-0.336
			c5.538-0.043,9.113-2.959,9.149-7.818C403.948,246.015,403.863,226.394,403.863,205.948z M403.655,183.863
			c0.178-8.02-2.012-10.617-9.059-11.21c-2.177-0.178-4.358-0.257-6.528-0.257c-42.14-0.062-84.271-0.116-126.399-0.142
			c-7.042,0-10.458,4.176-9.652,11.607C302.457,183.863,352.903,183.863,403.655,183.863z"/>
		<path fill="#FFFFFF" d="M286.943,259.646c-8.093,6.198-16.589,6.088-22.207-0.049c-4.907-5.354-5.122-14.064-0.488-19.413
			c5.983-6.876,13.813-7.183,22.75-0.887c10.024-6.026,17.988-5.715,23.196,0.887c4.641,5.917,4.377,14.07-0.642,19.37
			C303.569,265.868,296.057,265.96,286.943,259.646z"/>
	</g>
	<g>
		<path fill="#FFFFFF" d="M143.875,338.784c-5.521,4.859-2.22,13.729,8.949,13.729c6.49,0,12.982-4.188,18.074-10.887
			c-7.244-3.563-13.387-6.118-20.023-5.458C149.083,336.345,145.715,337.146,143.875,338.784z"/>
		<path fill="#FFFFFF" d="M154.162,357.354c-14.321,0-19.188-12.641-12.402-20.966c1.473-1.815,3.991-3.545,7.897-4.518
			c6.101-1.51,15.824,0.947,24.933,3.979c1.7-3.166,3.05-6.51,4.047-9.963h-28.075v-2.873h14.475v-5.142h-17.53v-2.865h17.53v-7.335
			c0,0,0-1.235,1.24-1.235h7.072v8.57h17.335v2.865H173.35v5.142h14.15c-1.352,5.593-3.411,10.74-5.99,15.263
			c4.291,1.565,8.148,3.05,11.021,4.022c10.27,3.466,12.646,3.68,12.678,3.68v-37.543c0-6.406-5.142-11.596-11.492-11.596h-48.79
			c-6.351,0-11.498,5.188-11.498,11.596v49.205c0,6.4,5.146,11.596,11.498,11.596h48.79c6.351,0,11.492-5.194,11.492-11.596v-0.478
			c-0.067-0.029-18.687-7.854-28.093-12.427C170.788,352.593,162.628,357.354,154.162,357.354z"/>
		<rect x="205.208" y="345.979" fill="#FFFFFF" width="0.006" height="11.186"/>
	</g>
	<g>
		<path fill="#FFFFFF" d="M289.303,307.439c0,3.747,2.732,6.265,6.553,6.265c3.821,0,6.554-2.518,6.554-6.265
			c0-3.674-2.738-6.266-6.554-6.266C292.035,301.175,289.303,303.766,289.303,307.439"/>
		<path fill="#FFFFFF" d="M271.002,355.338h11.382v-52.58h-11.382V355.338z M234.486,337.115l6.768-23.411h0.293l6.406,23.411
			H234.486z M251.051,304.561h-15.269l-17.072,50.776h10.52l2.879-9.939h18.081l2.732,9.939h13.472L251.051,304.561z
			 M290.158,355.338h11.382V316.73h-11.382V355.338z M420.464,316.798l0.072-0.066h-10.732l-6.767,23.478h-0.36l-7.781-23.478
			h-12.75l15.342,38.746l-6.411,11.816v0.286h10.019L420.464,316.798z M322.646,348.712c-1.313,0.018-2.629-0.179-3.888-0.575
			V327.25c2.378-1.662,4.321-2.45,6.771-2.45c4.248,0,7.636,3.38,7.636,10.587C333.166,344.604,328.196,348.712,322.646,348.712
			 M329.854,315.941c-4.182,0-7.421,1.577-11.095,4.609v-3.82h-11.382v50.85h11.382v-12.604c2.164,0.575,4.175,0.868,6.626,0.868
			c10.152,0,19.303-7.494,19.303-20.819C344.688,323.068,338.063,315.941,329.854,315.941 M368.533,345.973
			c-3.026,1.656-4.757,2.304-6.768,2.304c-2.739,0-4.469-1.797-4.469-4.676c0-1.082,0.214-2.164,1.076-3.032
			c1.375-1.369,4.04-2.371,10.158-3.813v9.217H368.533z M379.908,345.685v-16.137c0-8.783-5.179-13.606-14.328-13.606
			c-5.831,0-9.871,1.003-17.213,3.24l2.012,8.855c6.699-3.024,9.657-4.32,12.75-4.32c3.747,0,5.403,2.665,5.403,6.767v0.293
			c-13.037,2.445-17.071,3.814-19.591,6.339c-1.877,1.87-2.665,4.535-2.665,7.628c0,7.421,5.765,11.389,11.167,11.389
			c4.028,0,7.274-1.517,11.663-4.828l0.795,4.034h11.381L379.908,345.685z"/>
	</g>
</g>
</svg>
