<?xml version="1.0" encoding="utf-8"?>
<!-- Generator: Adobe Illustrator 16.0.0, SVG Export Plug-In . SVG Version: 6.00 Build 0)  -->
<!DOCTYPE svg PUBLIC "-//W3C//DTD SVG 1.1//EN" "http://www.w3.org/Graphics/SVG/1.1/DTD/svg11.dtd">
<svg version="1.1" id="Layer_1" xmlns="http://www.w3.org/2000/svg" xmlns:xlink="http://www.w3.org/1999/xlink" x="0px" y="0px"
	 width="512px" height="512px" viewBox="0 0 512 512" enable-background="new 0 0 512 512" xml:space="preserve">
<g>
	<g>
		<linearGradient id="SVGID_1_" gradientUnits="userSpaceOnUse" x1="100.7202" y1="100.6938" x2="416.7934" y2="416.767">
			<stop  offset="0" style="stop-color:#0000FF"/>
			<stop  offset="1" style="stop-color:#000083"/>
		</linearGradient>
		<path fill="url(#SVGID_1_)" d="M481.355,256.33c0,124.261-100.733,225-225,225s-225-100.739-225-225
			c0-124.267,100.733-225,225-225S481.355,132.063,481.355,256.33z"/>
		<linearGradient id="SVGID_2_" gradientUnits="userSpaceOnUse" x1="150.4092" y1="72.8257" x2="362.3022" y2="439.8353">
			<stop  offset="0" style="stop-color:#000083"/>
			<stop  offset="1" style="stop-color:#0000FF"/>
		</linearGradient>
		<circle fill="url(#SVGID_2_)" cx="256.355" cy="256.33" r="211.858"/>
	</g>
</g>
<g>
	<path fill-rule="evenodd" clip-rule="evenodd" fill="#FFFFFF" d="M376.233,347.021c-0.135-2.5-0.287-4.199-0.294-5.917
		c-0.024-13.258-0.165-26.516,0.019-39.779c0.275-20.544-15.563-32.457-31.846-32.005c-23.595,0.647-47.213,0.067-70.813,0.257
		c-4.021,0.036-6.234-1.425-7.952-4.817c-3.863-7.658-3.19-17.047,3.057-23.49c14.267-14.744,28.729-29.322,43.533-43.521
		c8.056-7.714,20.61-7.158,28.545,0.728c25.978,25.844,51.889,51.772,77.695,77.8c8.239,8.313,8.368,20.947,0.275,29.266
		c-13.19,13.546-26.675,26.822-40.049,40.202C378.079,346.055,377.597,346.232,376.233,347.021z M350.384,231.941
		c-0.99-1.803-1.742-3.979-3.16-5.568c-3.117-3.49-6.73-6.541-9.848-10.043c-11.002-12.323-14.126-7.793-22.378,0.794
		c-4.266,4.438-4.229,8.271,0,12.726c3.998,4.224,8.179,8.295,12.317,12.39c2.872,2.836,5.904,6.626,10.348,4.211
		C343.317,243.378,348.152,239.068,350.384,231.941z"/>
	<path fill-rule="evenodd" clip-rule="evenodd" fill="#FFFFFF" d="M292.064,277.791c18.117,0,36.223-0.03,54.34,0.006
		c11.895,0.024,20.789,8.313,20.947,20.195c0.245,20.215,0.263,40.44-0.019,60.648c-0.146,11.051-8.202,18.985-19.241,19.933
		c-1.608,0.135-3.234,0.195-4.842,0.195c-34.443,0.019-68.899-0.061-103.355,0.056c-9.878,0.036-17.854-2.989-22.072-12.476
		c-1.204-2.708-1.748-5.923-1.767-8.912c-0.159-19.407-0.171-38.82-0.055-58.233c0.073-12.995,8.716-21.4,21.718-21.412
		C255.83,277.778,273.953,277.791,292.064,277.791z M291.557,316.024c-20.873,0-41.729,0.092-62.585-0.073
		c-4.272-0.043-6.119,0.984-5.99,5.654c0.293,10.996,0.03,21.998,0.11,32.988c0.098,11.883,5.116,16.828,16.864,16.828
		c34.457,0.006,68.9,0,103.343,0c11.779,0,17.085-5.263,17.17-17.183c0.08-10.831-0.158-21.668,0.104-32.5
		c0.116-4.548-1.583-5.831-5.941-5.788C333.604,316.116,312.584,316.024,291.557,316.024z M291.441,297.399
		c21.167,0,42.341,0.019,63.508-0.055c1.474-0.006,3.796-0.385,4.199-1.29c0.489-1.082-0.323-3.093-1.1-4.383
		c-2.732-4.455-6.846-6.803-12.091-6.803c-36.204-0.037-72.414-0.024-108.612-0.024c-4.915,0-8.747,2.243-11.553,6.063
		c-1.051,1.437-1.241,3.509-1.821,5.293c1.644,0.397,3.276,1.138,4.92,1.144C249.735,297.424,270.592,297.399,291.441,297.399z"/>
	<path fill-rule="evenodd" clip-rule="evenodd" fill="#FFFFFF" d="M232.046,333.916c2.47-0.116,4.364-0.275,6.266-0.275
		c35.581-0.013,71.161-0.03,106.735,0.037c1.95,0.012,5.478,0.507,5.594,1.222c0.563,3.417,0.439,7.023-0.049,10.471
		c-0.092,0.636-3.051,1.204-4.695,1.217c-20.049,0.079-40.104,0.049-60.164,0.049c-15.844,0-31.693-0.178-47.537,0.104
		c-4.878,0.092-6.919-1.253-6.198-6.229C232.285,338.488,232.046,336.397,232.046,333.916z"/>
</g>
<g>
	<path fill-rule="evenodd" clip-rule="evenodd" fill="#FFFFFF" d="M120.549,250.425c-3.558-11.369,3.239-24.309,14.688-28.374
		c3.405-1.222,6.95-1.742,10.563-1.186c1.351,0.227,2.365-0.128,3.466-0.972c15.452-11.913,29.877-24.878,42.542-39.768
		c3.82-4.517,7.305-9.352,10.997-13.998c0.886-1.106,1.088-2.262,0.959-3.704c-1.503-15.703,12.665-28.472,28.117-25.385
		c0.501,0.11,1.009,0.324,1.834,0.563c-2.121,2.158-4.046,4.102-6.015,6.051c-2.769,2.793-5.599,5.526-8.374,8.332
		c-1.852,1.858-1.852,3.453,0,5.348c3.576,3.625,7.176,7.225,10.794,10.782c2.152,2.14,3.625,2.14,5.764,0
		c3.912-3.875,7.793-7.793,11.675-11.687c0.728-0.733,1.381-1.516,2.078-2.28c0.227,0.049,0.465,0.092,0.691,0.122
		c0.226,2.231,0.691,4.462,0.581,6.657c-0.746,13.991-11.479,23.6-25.477,22.867c-1.632-0.092-2.83,0.306-4.138,1.277
		c-17.91,13.558-33.539,29.487-47.934,46.663c-1.742,2.097-3.393,4.272-5.214,6.29c-1.125,1.283-1.516,2.549-1.381,4.272
		c0.837,9.859-4.065,18.661-12.873,23.142c-5.336,2.727-10.959,3.24-17.121,1.639c0.605-0.654,0.99-1.119,1.424-1.547
		c4.236-4.254,8.484-8.49,12.72-12.738c2.115-2.097,2.084-3.729-0.055-5.886c-3.185-3.215-6.412-6.424-9.609-9.646
		c-3.203-3.24-4.279-3.24-7.439-0.055c-3.747,3.784-7.512,7.567-11.259,11.339C121.955,249.136,121.337,249.698,120.549,250.425z"/>
	<path fill-rule="evenodd" clip-rule="evenodd" fill="#FFFFFF" d="M223.917,266.012c-4.083-4.119-8.167-8.245-12.097-12.194
		c-4.016,1.552-7.781,2.977-11.51,4.536c-0.391,0.171-0.709,1.033-0.709,1.577c-0.037,4.901-0.055,9.811-0.018,14.725
		c0.018,1.155-0.184,1.761-1.559,1.742c-9.139-0.043-18.295-0.024-27.458-0.024c-0.342,0-0.709-0.092-1.253-0.153
		c0-2.506,0-4.963,0-7.433c0-2.849,0.049-5.696-0.043-8.539c-0.037-0.831-0.538-1.632-0.819-2.438c-0.245,0-0.489,0-0.733,0
		c0.397-0.844,0.837-1.669,1.198-2.531c1.687-4.102,2.384-8.356,2.213-12.793c-0.135-2.903,2.188-4.707,4.945-4.028
		c18.276,4.609,36.975-6.485,41.583-24.56c1.632-6.345,1.467-12.586-0.336-18.808c-0.3-0.984-0.092-1.553,0.678-2.133
		c1.889-1.424,3.705-2.903,5.636-4.291c0.483-0.336,1.223-0.428,1.858-0.501c3.325-0.428,6.687-0.789,10.012-1.296
		c0.984-0.165,1.602-0.074,1.711,0.935c0.208,1.968,1.351,2.268,3.111,2.237c5.018-0.122,10.037-0.042,15.361-0.042
		c0,3.521,0,6.895,0,10.263c-0.019,5.997-0.08,12.011,0,18.001c0.036,1.559-0.336,2.097-2.005,2.078
		c-4.774-0.122-9.572-0.019-14.353-0.073c-1.069,0-1.552,0.342-1.968,1.363c-1.18,3.172-2.494,6.302-3.875,9.389
		c-0.428,0.941-0.354,1.448,0.379,2.151c3.459,3.38,6.871,6.821,10.299,10.25c0.434,0.41,0.801,0.862,1.143,1.223
		C238.159,251.776,231.093,258.854,223.917,266.012z"/>
	<path fill-rule="evenodd" clip-rule="evenodd" fill="#FFFFFF" d="M113.299,220.267c0-10.208,0-20.116,0-30.269
		c0.77,0,1.406,0,2.042,0c4.737,0,9.456-0.043,14.181,0.018c1.033,0,1.443-0.336,1.822-1.29c1.198-3.172,2.469-6.314,3.869-9.389
		c0.513-1.106,0.361-1.687-0.464-2.476c-3.857-3.667-7.678-7.377-11.541-11.125c7.384-7.359,14.462-14.407,21.956-21.883
		c1.724,1.876,3.423,3.82,5.208,5.697c1.987,2.066,3.974,4.065,6.07,6.015c0.397,0.373,1.314,0.581,1.803,0.391
		c3.386-1.29,6.736-2.677,10.037-4.175c0.501-0.226,0.972-1.161,0.99-1.76c0.08-4.609,0.043-9.218,0.043-13.827
		c0-0.654,0-1.308,0-2.17c0.685-0.061,1.271-0.152,1.852-0.152c8.838-0.019,17.684,0.037,26.522-0.037
		c1.577-0.018,1.95,0.526,1.913,1.987c-0.073,4.664-0.037,9.322,0,13.992c0,0.654,0.416,1.29,0.581,1.95
		c0.116,0.416,0.171,0.855,0.128,1.29c-0.256,3.111-0.544,6.241-0.898,9.346c-0.073,0.733-0.318,1.54-0.727,2.139
		c-1.424,2.042-2.983,3.973-4.401,6.015c-0.697,0.972-1.424,1.155-2.604,0.929c-13.771-2.598-25.306,1.485-34.193,12.311
		c-6.571,8.038-8.631,17.445-6.852,27.671c0.226,1.327-0.11,2.042-1.106,2.904c-1.815,1.607-3.692,2.322-6.216,2.133
		c-4.627-0.336-8.973,0.99-13.099,3.13c-0.477,0.244-0.99,0.599-1.473,0.617C123.66,220.291,118.562,220.267,113.299,220.267z"/>
</g>
</svg>
