<?xml version="1.0" encoding="utf-8"?>
<!-- Generator: Adobe Illustrator 16.0.0, SVG Export Plug-In . SVG Version: 6.00 Build 0)  -->
<!DOCTYPE svg PUBLIC "-//W3C//DTD SVG 1.1//EN" "http://www.w3.org/Graphics/SVG/1.1/DTD/svg11.dtd">
<svg version="1.1" id="Layer_1" xmlns="http://www.w3.org/2000/svg" xmlns:xlink="http://www.w3.org/1999/xlink" x="0px" y="0px"
	 width="512px" height="512px" viewBox="0 0 512 512" enable-background="new 0 0 512 512" xml:space="preserve">
<g>
	<g>
		
			<linearGradient id="SVGID_1_" gradientUnits="userSpaceOnUse" x1="76.2375" y1="403.4128" x2="392.31" y2="87.3404" gradientTransform="matrix(1 0 0 -1 24.9448 503.3589)">
			<stop  offset="0" style="stop-color:#FF7601"/>
			<stop  offset="1" style="stop-color:#FF0000"/>
		</linearGradient>
		<path fill="url(#SVGID_1_)" d="M481.818,255.581c0,124.262-100.732,225-225,225c-124.267,0-225-100.738-225-225
			c0-124.264,100.733-225,225-225C381.085,30.581,481.818,131.317,481.818,255.581z"/>
		
			<linearGradient id="SVGID_2_" gradientUnits="userSpaceOnUse" x1="125.9265" y1="431.283" x2="337.8219" y2="64.2694" gradientTransform="matrix(1 0 0 -1 24.9448 503.3589)">
			<stop  offset="0" style="stop-color:#FF0000"/>
			<stop  offset="1" style="stop-color:#FF6301"/>
		</linearGradient>
		<path fill="url(#SVGID_2_)" d="M468.677,255.581c0,117.012-94.854,211.864-211.858,211.864S44.96,372.593,44.96,255.581
			c0-117.005,94.854-211.857,211.857-211.857S468.677,138.576,468.677,255.581z"/>
	</g>
</g>
<g opacity="0.6">
	<path d="M368.951,246.437c-8.123,0-16.246,0.171-24.363-0.085c-2.8-0.085-4.77-1.969-5.783-4.866
		c-1.247-3.533-2.757-6.992-4.425-10.342c-1.211-2.445-1.235-4.641-0.043-7.048c1.992-4.041,3.997-8.088,5.689-12.256
		c0.452-1.101,0.275-3.087-0.465-3.931c-2.384-2.731-5.098-5.202-7.854-7.573c-0.563-0.482-2.029-0.428-2.807-0.055
		c-3.855,1.864-7.657,3.857-11.418,5.929c-3.152,1.736-6.088,1.969-9.389,0.074c-2.573-1.479-5.482-2.5-8.355-3.289
		c-3.147-0.862-4.913-2.689-5.893-5.721c-1.326-4.077-3.02-8.032-4.291-12.127c-0.593-1.907-1.563-2.555-3.441-2.488
		c-3.209,0.128-6.43,0.202-9.646,0.142c-1.833-0.037-2.665,0.77-3.185,2.444c-1.399,4.499-2.685,9.07-4.541,13.393
		c-0.789,1.821-2.679,3.489-4.476,4.479c-3.172,1.76-6.748,2.763-9.976,4.425c-2.659,1.363-5.037,1.352-7.646,0.049
		c-3.839-1.919-7.817-3.563-11.607-5.562c-1.81-0.954-2.972-0.837-4.499,0.525c-8.044,7.194-8.075,7.151-2.77,16.473
		c0.373,0.654,0.66,1.357,1.106,1.956c2.958,4.046,3.44,7.891,0.421,12.39c-1.853,2.764-2.695,6.29-3.625,9.578
		c-0.886,3.148-2.738,4.884-5.825,5.752c-3.924,1.101-7.738,2.58-11.675,3.637c-2.292,0.618-2.983,1.907-3.124,4.114
		c-0.666,10.868-0.728,11.345,9.597,14.218c6.811,1.9,10.746,5.221,13.735,12.061c3.05,6.975,3.227,12.47-0.783,18.49
		c-0.061,0.086-0.079,0.201-0.122,0.3c-1.105,2.731-3.888,6.381-2.989,8.007c2.029,3.681,5.819,6.425,9.034,9.396
		c0.429,0.391,1.815,0.092,2.567-0.271c4.249-2.06,8.472-4.175,12.641-6.388c2.306-1.222,4.39-1.094,6.736-0.006
		c3.294,1.534,6.699,2.892,10.152,4.016c2.829,0.917,4.479,2.629,5.396,5.41c1.369,4.175,3.038,8.258,4.383,12.438
		c0.563,1.756,1.534,2.243,3.246,2.372c11.814,0.861,11.814,0.894,15.488-10.416c0.135-0.408,0.33-0.807,0.403-1.223
		c0.973-5.642,4.01-9.26,9.822-10.323c1.033-0.184,2.104-0.647,2.939-1.266c4.896-3.594,9.688-3.16,14.591,0.013
		c1.607,1.039,3.472,1.674,5.214,2.5c5.795,2.77,5.795,2.77,10.067-1.89c5.703-6.204,5.703-6.204,1.62-13.661
		c-0.257-0.472-0.483-0.959-0.789-1.399c-3.697-5.359-4.957-10.831-0.801-16.577c0.184-0.251,0.317-0.573,0.36-0.887
		c1.026-7.433,5.794-10.897,12.701-12.408c2.794-0.61,5.446-1.899,9.022-3.189c-1.449-0.35-2.062-0.624-2.665-0.624
		c-10.947-0.023-21.901,0.019-32.85-0.066c-1.877-0.013-2.523,0.643-2.928,2.463c-4.163,18.582-19.676,31.253-38.173,31.296
		c-18.624,0.05-34.193-12.384-38.612-30.818c-4.646-19.4,6.968-39.443,26.577-45.886c18.734-6.145,40.11,3.478,47.688,21.496
		c0.318,0.752,0.472,1.583,0.851,2.88c-3.832,0-7.329,0.121-10.801-0.099c-0.771-0.049-1.613-1.222-2.177-2.042
		c-6.467-9.603-15.52-14.138-26.969-12.824c-11.448,1.309-19.241,7.8-23.392,18.576c-0.41,1.07-0.6,2.226-0.984,3.692
		c47.642,0,94.914,0,142.701,0c-0.647-0.88-1.039-1.553-1.564-2.084c-3.782-3.814-7.628-7.556-11.362-11.406
		c-2.678-2.757-2.781-5.972-0.446-8.239c2.335-2.262,5.557-2.14,8.283,0.557c7.628,7.549,15.22,15.135,22.763,22.769
		c2.536,2.562,2.549,5.721,0.023,8.283c-7.615,7.708-15.274,15.385-22.994,22.995c-2.647,2.608-6.016,2.561-8.276,0.171
		c-2.103-2.237-1.975-5.44,0.605-8.014c4.303-4.304,8.729-8.473,13.104-12.695c-0.146-0.257-0.3-0.507-0.446-0.765
		c-8.808,0-17.615,0-26.602,0c-0.104,0.317-0.348,0.71-0.336,1.089c0.281,5.818-2.738,8.753-8.197,10.061
		c-3.416,0.819-6.625,2.482-10.006,3.497c-2.084,0.629-2.824,2.022-3.832,3.777c-2.537,4.442-2.078,8.307,0.686,12.433
		c1.833,2.744,3.067,5.894,4.59,8.852c1.296,2.513,1.455,5.062-0.557,7.183c-5.221,5.521-10.52,10.959-15.903,16.326
		c-2.056,2.048-4.556,2.066-7.146,0.764c-3.93-1.968-7.945-3.776-11.852-5.801c-2.354-1.222-4.321-1.021-6.901-0.146
		c-4.267,1.441-6.43,3.948-7.378,8.202c-0.764,3.447-2.206,6.729-3.196,10.129c-0.887,3.025-2.694,4.934-5.893,5.019
		c-7.384,0.196-14.769,0.306-22.151,0.337c-3.05,0.012-4.908-1.718-5.893-4.579c-1.528-4.468-3.282-8.855-4.719-13.35
		c-0.631-1.962-1.762-2.836-3.606-3.618c-8.404-3.588-7.744-3.38-12.512,4.554c-4.145,6.896-8.337,13.767-12.384,20.729
		c-1.571,2.7-3.595,3.875-6.785,3.851c-12.879-0.085-25.758,0.104-38.638,0.013c-2.836-0.019-4.175,0.514-5.085,3.618
		c-4.248,14.493-17.487,23.345-32.609,22.263c-13.87-0.99-26.095-12.146-28.319-25.831c-2.738-16.871,7.763-32.445,24.462-36.267
		c15.703-3.601,31.754,6.033,36.662,21.992c0.306,1.016,0.575,2.048,0.954,3.394c1.247,0,2.506,0,3.771,0
		c11.375,0,22.758-0.05,34.133,0.043c1.938,0.013,3.146-0.472,4.106-2.237c1.772-3.294,3.802-6.454,5.654-9.554
		c-3.82-3.441-7.653-6.668-11.223-10.172c-2.593-2.535-4.866-5.408-7.226-8.179c-1.717-2.011-1.833-4.205-0.678-6.589
		c2.151-4.438,4.34-8.869,6.229-13.417c0.525-1.271,0.3-3.001,0.013-4.45c-1.027-5.263-4.584-7.683-9.658-8.71
		c-3.233-0.654-6.309-2.066-9.48-3.063c-2.512-0.787-4.021-2.438-4.413-5.006c-1.131-7.45-1.761-14.891-0.574-22.433
		c0.567-3.637,2.182-5.801,5.77-6.791c4.225-1.174,8.437-2.494,12.512-4.108c1.346-0.531,2.329-2.114,3.319-3.337
		c0.446-0.544,0.354-1.498,0.751-2.103c3.026-4.664,2.084-8.918-0.953-13.203c-1.657-2.354-2.849-5.037-4.235-7.579
		c-1.485-2.72-1.571-5.349,0.732-7.684c5.478-5.544,10.99-11.063,16.871-16.976c-2.854-4.327-6.021-9.248-9.358-14.059
		c-0.409-0.586-1.692-0.801-2.572-0.808c-10.202-0.049-20.397,0.037-30.594-0.08c-2.225-0.023-2.872,0.875-3.301,2.88
		c-3.16,14.761-15.77,25.029-30.581,25.042c-14.815,0.018-27.555-10.245-30.837-24.835c-3.6-16.016,6.181-32.256,22.158-36.81
		c15.807-4.511,32.684,4.022,37.958,19.401c0.935,2.745,2.212,3.539,5.031,3.49c11.051-0.172,22.107,0.049,33.166-0.135
		c3.776-0.062,6.154,1.32,8.153,4.48c5.617,8.894,11.485,17.623,17.262,26.412c2.573,3.924,3.252,3.802,7.53,2.415
		c4.364-1.418,6.662-3.949,7.567-8.398c0.721-3.558,2.164-6.962,3.288-10.428c0.844-2.585,2.476-4.346,5.3-4.431
		c7.378-0.232,14.762-0.404,22.141-0.478c3.27-0.031,5.371,1.742,6.43,4.859c1.491,4.363,2.916,8.771,4.726,13.007
		c0.617,1.449,2.14,2.684,3.521,3.605c4.284,2.873,8.435,2.385,12.714-0.451c2.836-1.884,6.125-3.075,9.156-4.684
		c2.378-1.259,4.634-1.186,6.553,0.63c5.538,5.202,11.009,10.472,16.424,15.802c2.184,2.15,2.17,4.699,0.832,7.407
		c-2.134,4.321-4.279,8.655-6.144,13.105c-0.531,1.271-0.35,3.001-0.067,4.431c1.052,5.385,4.694,7.85,9.872,8.888
		c3.233,0.648,6.399,1.841,9.432,3.173c1.65,0.721,2.952,2.255,4.413,3.423C369.44,245.605,369.196,246.021,368.951,246.437z
		 M173.42,169.982c0.043-11.412-8.9-20.435-20.324-20.507c-11.069-0.073-20.354,8.894-20.434,19.75
		c-0.093,11.724,8.733,20.935,20.165,21.057C164.141,190.397,173.377,181.296,173.42,169.982z M132.656,349.347
		c-0.018,11.19,9.005,20.257,20.196,20.293c11.474,0.043,20.521-8.852,20.568-20.227c0.049-11.346-9.083-20.563-20.35-20.545
		C141.696,328.888,132.668,337.94,132.656,349.347z M255.174,265.251c1.521,13.308,15.177,23.51,29.572,22.494
		c12.433-0.874,25.086-12.256,24.835-22.494C291.519,265.251,273.457,265.251,255.174,265.251z"/>
</g>
<g>
	<path fill="#FFFFFF" d="M376.951,239.437c-8.123,0-16.246,0.171-24.363-0.085c-2.8-0.085-4.77-1.969-5.783-4.866
		c-1.247-3.533-2.757-6.992-4.425-10.342c-1.211-2.445-1.235-4.641-0.043-7.048c1.992-4.041,3.997-8.088,5.689-12.256
		c0.452-1.101,0.275-3.087-0.465-3.931c-2.384-2.731-5.098-5.202-7.854-7.573c-0.563-0.482-2.029-0.428-2.807-0.055
		c-3.855,1.864-7.657,3.857-11.418,5.929c-3.152,1.736-6.088,1.969-9.389,0.074c-2.573-1.479-5.482-2.5-8.355-3.289
		c-3.147-0.862-4.913-2.689-5.893-5.721c-1.326-4.077-3.02-8.032-4.291-12.127c-0.593-1.907-1.563-2.555-3.441-2.488
		c-3.209,0.128-6.43,0.202-9.646,0.142c-1.833-0.037-2.665,0.77-3.185,2.444c-1.399,4.499-2.685,9.07-4.541,13.393
		c-0.789,1.821-2.679,3.489-4.476,4.479c-3.172,1.76-6.748,2.763-9.976,4.425c-2.659,1.363-5.037,1.352-7.646,0.049
		c-3.839-1.919-7.817-3.563-11.607-5.562c-1.81-0.954-2.972-0.837-4.499,0.525c-8.044,7.194-8.075,7.151-2.77,16.473
		c0.373,0.654,0.66,1.357,1.106,1.956c2.958,4.046,3.44,7.891,0.421,12.39c-1.853,2.764-2.695,6.29-3.625,9.578
		c-0.886,3.148-2.738,4.884-5.825,5.752c-3.924,1.101-7.738,2.58-11.675,3.637c-2.292,0.618-2.983,1.907-3.124,4.114
		c-0.666,10.868-0.728,11.345,9.597,14.218c6.811,1.9,10.746,5.221,13.735,12.061c3.05,6.975,3.227,12.47-0.783,18.49
		c-0.061,0.086-0.079,0.201-0.122,0.3c-1.105,2.731-3.888,6.381-2.989,8.007c2.029,3.681,5.819,6.425,9.034,9.396
		c0.429,0.391,1.815,0.092,2.567-0.271c4.249-2.06,8.472-4.175,12.641-6.388c2.306-1.222,4.39-1.094,6.736-0.006
		c3.294,1.534,6.699,2.892,10.152,4.016c2.829,0.917,4.479,2.629,5.396,5.41c1.369,4.175,3.038,8.258,4.383,12.438
		c0.563,1.756,1.534,2.243,3.246,2.372c11.814,0.861,11.814,0.894,15.488-10.416c0.135-0.408,0.33-0.807,0.403-1.223
		c0.973-5.642,4.01-9.26,9.822-10.323c1.033-0.184,2.104-0.647,2.939-1.266c4.896-3.594,9.688-3.16,14.591,0.013
		c1.607,1.039,3.472,1.674,5.214,2.5c5.795,2.77,5.795,2.77,10.067-1.89c5.703-6.204,5.703-6.204,1.62-13.661
		c-0.257-0.472-0.483-0.959-0.789-1.399c-3.697-5.359-4.957-10.831-0.801-16.577c0.184-0.251,0.317-0.573,0.36-0.887
		c1.026-7.433,5.794-10.897,12.701-12.408c2.794-0.61,5.446-1.899,9.022-3.189c-1.449-0.35-2.062-0.624-2.665-0.624
		c-10.947-0.023-21.901,0.019-32.85-0.066c-1.877-0.013-2.523,0.643-2.928,2.463c-4.163,18.582-19.676,31.253-38.173,31.296
		c-18.624,0.05-34.193-12.384-38.612-30.818c-4.646-19.4,6.968-39.443,26.577-45.886c18.734-6.145,40.11,3.478,47.688,21.496
		c0.318,0.752,0.472,1.583,0.851,2.88c-3.832,0-7.329,0.121-10.801-0.099c-0.771-0.049-1.613-1.222-2.177-2.042
		c-6.467-9.603-15.52-14.138-26.969-12.824c-11.448,1.309-19.241,7.8-23.392,18.576c-0.41,1.07-0.6,2.226-0.984,3.692
		c47.642,0,94.914,0,142.701,0c-0.647-0.88-1.039-1.553-1.564-2.084c-3.782-3.814-7.628-7.556-11.362-11.406
		c-2.678-2.757-2.781-5.972-0.446-8.239c2.335-2.262,5.557-2.14,8.283,0.557c7.628,7.549,15.22,15.135,22.763,22.769
		c2.536,2.562,2.549,5.721,0.023,8.283c-7.615,7.708-15.274,15.385-22.994,22.995c-2.647,2.608-6.016,2.561-8.276,0.171
		c-2.103-2.237-1.975-5.44,0.605-8.014c4.303-4.304,8.729-8.473,13.104-12.695c-0.146-0.257-0.3-0.507-0.446-0.765
		c-8.808,0-17.615,0-26.602,0c-0.104,0.317-0.348,0.71-0.336,1.089c0.281,5.818-2.738,8.753-8.197,10.061
		c-3.416,0.819-6.625,2.482-10.006,3.497c-2.084,0.629-2.824,2.022-3.832,3.777c-2.537,4.442-2.078,8.307,0.686,12.433
		c1.833,2.744,3.067,5.894,4.59,8.852c1.296,2.513,1.455,5.062-0.557,7.183c-5.221,5.521-10.52,10.959-15.903,16.326
		c-2.056,2.048-4.556,2.066-7.146,0.764c-3.93-1.968-7.945-3.776-11.852-5.801c-2.354-1.222-4.321-1.021-6.901-0.146
		c-4.267,1.441-6.43,3.948-7.378,8.202c-0.764,3.447-2.206,6.729-3.196,10.129c-0.887,3.025-2.694,4.934-5.893,5.019
		c-7.384,0.196-14.769,0.306-22.151,0.337c-3.05,0.012-4.908-1.718-5.893-4.579c-1.528-4.468-3.282-8.855-4.719-13.35
		c-0.631-1.962-1.762-2.836-3.606-3.618c-8.404-3.588-7.744-3.38-12.512,4.554c-4.145,6.896-8.337,13.767-12.384,20.729
		c-1.571,2.7-3.595,3.875-6.785,3.851c-12.879-0.085-25.758,0.104-38.638,0.013c-2.836-0.019-4.175,0.514-5.085,3.618
		c-4.248,14.493-17.487,23.345-32.609,22.263c-13.87-0.99-26.095-12.146-28.319-25.831c-2.738-16.871,7.763-32.445,24.462-36.267
		c15.703-3.601,31.754,6.033,36.662,21.992c0.306,1.016,0.575,2.048,0.954,3.394c1.247,0,2.506,0,3.771,0
		c11.375,0,22.758-0.05,34.133,0.043c1.938,0.013,3.146-0.472,4.106-2.237c1.772-3.294,3.802-6.454,5.654-9.554
		c-3.82-3.441-7.653-6.668-11.223-10.172c-2.593-2.535-4.866-5.408-7.226-8.179c-1.717-2.011-1.833-4.205-0.678-6.589
		c2.151-4.438,4.34-8.869,6.229-13.417c0.525-1.271,0.3-3.001,0.013-4.45c-1.027-5.263-4.584-7.683-9.658-8.71
		c-3.233-0.654-6.309-2.066-9.48-3.063c-2.512-0.787-4.021-2.438-4.413-5.006c-1.131-7.45-1.761-14.891-0.574-22.433
		c0.567-3.637,2.182-5.801,5.77-6.791c4.225-1.174,8.437-2.494,12.512-4.108c1.346-0.531,2.329-2.114,3.319-3.337
		c0.446-0.544,0.354-1.498,0.751-2.103c3.026-4.664,2.084-8.918-0.953-13.203c-1.657-2.354-2.849-5.037-4.235-7.579
		c-1.485-2.72-1.571-5.349,0.732-7.684c5.478-5.544,10.99-11.063,16.871-16.976c-2.854-4.327-6.021-9.248-9.358-14.059
		c-0.409-0.586-1.692-0.801-2.572-0.808c-10.202-0.049-20.397,0.037-30.594-0.08c-2.225-0.023-2.872,0.875-3.301,2.88
		c-3.16,14.761-15.77,25.029-30.581,25.042c-14.815,0.018-27.555-10.245-30.837-24.835c-3.6-16.016,6.181-32.256,22.158-36.81
		c15.807-4.511,32.684,4.022,37.958,19.401c0.935,2.745,2.212,3.539,5.031,3.49c11.051-0.172,22.107,0.049,33.166-0.135
		c3.776-0.062,6.154,1.32,8.153,4.48c5.617,8.894,11.485,17.623,17.262,26.412c2.573,3.924,3.252,3.802,7.53,2.415
		c4.364-1.418,6.662-3.949,7.567-8.398c0.721-3.558,2.164-6.962,3.288-10.428c0.844-2.585,2.476-4.346,5.3-4.431
		c7.378-0.232,14.762-0.404,22.141-0.478c3.27-0.031,5.371,1.742,6.43,4.859c1.491,4.363,2.916,8.771,4.726,13.007
		c0.617,1.449,2.14,2.684,3.521,3.605c4.284,2.873,8.435,2.385,12.714-0.451c2.836-1.884,6.125-3.075,9.156-4.684
		c2.378-1.259,4.634-1.186,6.553,0.63c5.538,5.202,11.009,10.472,16.424,15.802c2.184,2.15,2.17,4.699,0.832,7.407
		c-2.134,4.321-4.279,8.655-6.144,13.105c-0.531,1.271-0.35,3.001-0.067,4.431c1.052,5.385,4.694,7.85,9.872,8.888
		c3.233,0.648,6.399,1.841,9.432,3.173c1.65,0.721,2.952,2.255,4.413,3.423C377.44,238.605,377.196,239.021,376.951,239.437z
		 M181.42,162.982c0.043-11.412-8.9-20.435-20.324-20.507c-11.069-0.073-20.354,8.894-20.434,19.75
		c-0.093,11.724,8.733,20.935,20.165,21.057C172.141,183.397,181.377,174.296,181.42,162.982z M140.656,342.347
		c-0.018,11.19,9.005,20.257,20.196,20.293c11.474,0.043,20.521-8.852,20.568-20.227c0.049-11.346-9.083-20.563-20.35-20.545
		C149.696,321.888,140.668,330.94,140.656,342.347z M263.174,258.251c1.521,13.308,15.177,23.51,29.572,22.494
		c12.433-0.874,25.086-12.256,24.835-22.494C299.519,258.251,281.457,258.251,263.174,258.251z"/>
</g>
</svg>
