<?xml version="1.0" encoding="utf-8"?>
<!-- Generator: Adobe Illustrator 16.0.0, SVG Export Plug-In . SVG Version: 6.00 Build 0)  -->
<!DOCTYPE svg PUBLIC "-//W3C//DTD SVG 1.1//EN" "http://www.w3.org/Graphics/SVG/1.1/DTD/svg11.dtd">
<svg version="1.1" id="Layer_1" xmlns="http://www.w3.org/2000/svg" xmlns:xlink="http://www.w3.org/1999/xlink" x="0px" y="0px"
	 width="512px" height="512px" viewBox="0 0 512 512" enable-background="new 0 0 512 512" xml:space="preserve">
<g>
	<g>
		<linearGradient id="SVGID_1_" gradientUnits="userSpaceOnUse" x1="100.6782" y1="100.5122" x2="416.7507" y2="416.5847">
			<stop  offset="0" style="stop-color:#0091FF"/>
			<stop  offset="0.505" style="stop-color:#0087FF"/>
			<stop  offset="1" style="stop-color:#4501EE"/>
		</linearGradient>
		<path fill="url(#SVGID_1_)" d="M481.313,256.147c0,124.26-100.733,225-225,225s-225-100.74-225-225c0-124.264,100.733-225,225-225
			S481.313,131.883,481.313,256.147z"/>
		<linearGradient id="SVGID_2_" gradientUnits="userSpaceOnUse" x1="150.3657" y1="72.6445" x2="362.2607" y2="439.6575">
			<stop  offset="0" style="stop-color:#0023FF"/>
			<stop  offset="1" style="stop-color:#007AFF"/>
		</linearGradient>
		<path fill="url(#SVGID_2_)" d="M468.171,256.147c0,117.011-94.854,211.864-211.858,211.864
			c-117.004,0-211.858-94.854-211.858-211.864c0-117.004,94.854-211.858,211.858-211.858
			C373.316,44.289,468.171,139.143,468.171,256.147z"/>
	</g>
</g>
<g>
	<path fill-rule="evenodd" clip-rule="evenodd" fill="#FFFFFF" d="M295.762,291.409c0.367,8.925-8.068,13.81-15.512,8.534
		c-0.147,4.315-1.993,7.481-5.99,9.084c-3.948,1.595-7.409,0.439-10.514-2.336c-1.688,8.068-6.102,11.529-12.886,9.914
		c0.403-0.745,0.758-1.441,1.137-2.127c5.538-10.062,0.44-22.463-10.563-25.759c-0.868-0.255-1.588-1.009-2.359-1.534
		c-0.061-0.041-0.098-0.127-0.146-0.176c-2.458-1.871-5.171-3.484-7.286-5.673c-2.053-2.127-3.204-5.146-5.293-7.214
		c-1.651-1.626-4.169-2.377-6.26-3.592c-0.696-0.404-1.527-0.919-1.87-1.596c-5.844-11.736-20.636-13.891-29.523-4.201
		c-2.261,2.459-4.23,5.196-6.442,7.703c-0.563,0.636-1.577,1.246-2.384,1.246c-16.369,0.068-32.738,0.1-49.107,0.024
		c-5.771-0.024-10.037-4.131-10.636-9.866c-3.325-31.289,3.093-60.436,19.768-87.104c17.212-27.531,41.443-46.485,72.114-57.072
		c18.387-6.348,37.347-8.567,56.688-6.803c23.008,2.093,44.193,9.559,63.483,22.316c1.382,0.919,2.775,1.831,4.291,2.833
		c2.312-3.167,4.512-6.25,6.785-9.281c0.416-0.544,1.149-1.208,1.688-1.177c0.49,0.031,1.112,0.871,1.345,1.482
		c4.327,11.207,8.618,22.433,12.874,33.658c0.281,0.725,0.316,1.538,0.536,2.708c-12.493-0.623-24.609-1.223-37.261-1.849
		c2.627-3.604,4.987-6.834,7.58-10.386c-2.312-1.9-4.476-4.058-6.957-5.688c-15.611-10.158-32.615-16.653-51.16-18.737
		c-39.059-4.382-72.923,6.983-101.26,34.227c-11.993,11.524-21.137,25.11-27.152,40.7c-0.195,0.498-0.391,0.99-0.563,1.494
		c-0.061,0.206-0.048,0.44-0.098,0.941c0.868,0,1.675,0,2.482,0c18.802,0,37.616-0.009,56.418,0.016
		c1.137,0.005,2.25,0.299,3.791,0.523c-3.497,4.36-4.769,8.801-3.814,13.707c1.356,7.036,6.65,11.547,14.939,13.044
		c7.115,1.281,13.777,0.05,20.036-3.499c6.797-3.86,13.595-7.735,20.563-11.696c2.419,2.934,4.792,5.789,7.152,8.659
		c15.06,18.358,30.061,36.766,45.243,55.03c1.979,2.373,2.971,4.4,1.626,7.306c-1.479,3.173-3.825,5.047-7.311,5.427
		C300.873,294.955,298.305,293.782,295.762,291.409z"/>
	<path fill-rule="evenodd" clip-rule="evenodd" fill="#FFFFFF" d="M375.211,272.987c-0.67-0.035-1.318-0.116-1.99-0.116
		c-15.074,0.006-30.146,0.03-45.221,0.023c-2.458-0.004-4.596,0.576-6.479,2.268c-1.993,1.798-2.714,1.65-4.476-0.47
		c-17.835-21.399-35.67-42.803-53.508-64.208c-2.615-3.142-4.803-3.576-8.362-1.626c-7.811,4.271-15.61,8.545-23.411,12.824
		c-4.449,2.439-9.107,2.702-13.924,1.375c-0.722-0.202-1.431-0.571-2.165-0.666c-2.188-0.267-3.458-1.444-3.875-3.567
		c-0.427-2.237,0.331-4.056,2.115-5.415c6.003-4.569,12.005-9.111,18.008-13.662c3.582-2.711,7.139-5.449,10.746-8.118
		c8.851-6.552,18.568-8.23,28.911-4.417c15.392,5.701,30.685,11.663,46.002,17.598c4.034,1.565,8.144,2.317,12.47,2.302
		c15.381-0.07,30.76,0.024,46.139-0.095c8.178-0.062,11.883,3.631,13.484,10.993c9.828,44.938,0.011,85.465-29.744,120.477
		c-22.092,26.009-50.746,41.163-84.608,45.709c-37.019,4.964-70.625-4.034-100.759-26.074c-0.672-0.49-1.345-0.991-2.078-1.383
		c-0.66-0.354-1.394-0.549-2.25-0.881c-2.408,2.984-4.743,5.973-7.212,8.851c-0.563,0.65-1.577,1.125-2.434,1.2
		c-0.342,0.035-0.954-1.163-1.197-1.884c-3.717-11.015-7.396-22.054-11.101-33.082c-0.844-2.528-0.587-2.841,1.969-2.628
		c11.76,0.979,23.508,1.945,35.268,2.923c0.893,0.072,1.773,0.268,2.971,0.466c-2.824,4.094-5.477,7.932-8.398,12.186
		c36.748,27.178,76.516,34.44,119.45,18.559C344.662,345.763,369.797,305.727,375.211,272.987z"/>
	<path fill-rule="evenodd" clip-rule="evenodd" fill="#FFFFFF" d="M225.506,307.943c-6.724,2.672-12.238-1.691-11.43-9.076
		c-5.367,1.48-11.675-1.185-11.821-8.313c-0.588,0.171-1.15,0.343-1.7,0.514c-3.362,1.02-6.528-0.134-8.777-3.24
		c-1.883-2.58-2.079-6.175-0.147-8.752c2.188-2.93,4.499-5.76,6.969-8.449c2.58-2.81,6.748-3.313,9.829-1.461
		c3.214,1.928,4.205,5.729,2.616,10.508c3.13-0.525,6.32-1.773,8.961,0.949c2.494,2.56,3.007,5.53,1.736,8.844
		c7.458,0.745,9.511,2.322,10.574,8.253c2.714-0.575,5.539-0.747,7.677,1.276c1.149,1.081,2.042,2.707,2.446,4.234
		c1.026,3.927-1.957,9.141-5.771,10.589C232.291,315.482,228.672,313.575,225.506,307.943z"/>
</g>
</svg>
