<?xml version="1.0" encoding="utf-8"?>
<!-- Generator: Adobe Illustrator 16.0.0, SVG Export Plug-In . SVG Version: 6.00 Build 0)  -->
<!DOCTYPE svg PUBLIC "-//W3C//DTD SVG 1.1//EN" "http://www.w3.org/Graphics/SVG/1.1/DTD/svg11.dtd">
<svg version="1.1" id="Layer_1" xmlns="http://www.w3.org/2000/svg" xmlns:xlink="http://www.w3.org/1999/xlink" x="0px" y="0px"
	 width="512px" height="512px" viewBox="0 0 512 512" enable-background="new 0 0 512 512" xml:space="preserve">
<g>
	<g>
		
			<linearGradient id="SVGID_1_" gradientUnits="userSpaceOnUse" x1="74.4246" y1="403.5398" x2="390.4984" y2="87.4659" gradientTransform="matrix(1 0 0 -1 24.9448 503.3589)">
			<stop  offset="0" style="stop-color:#00C9FF"/>
			<stop  offset="1" style="stop-color:#0091FF"/>
		</linearGradient>
		<path fill="url(#SVGID_1_)" d="M480.006,255.455c0,124.262-100.733,225-225,225c-124.268,0-225-100.738-225-225
			c0-124.267,100.732-225,225-225C379.273,30.455,480.006,131.188,480.006,255.455z"/>
		
			<linearGradient id="SVGID_2_" gradientUnits="userSpaceOnUse" x1="124.1145" y1="431.4099" x2="336.0078" y2="64.3999" gradientTransform="matrix(1 0 0 -1 24.9448 503.3589)">
			<stop  offset="0" style="stop-color:#0091FF"/>
			<stop  offset="0.4483" style="stop-color:#0093FF"/>
			<stop  offset="1" style="stop-color:#00C9FF"/>
		</linearGradient>
		<circle fill="url(#SVGID_2_)" cx="255.006" cy="255.455" r="211.858"/>
	</g>
</g>
<g opacity="0.6">
	<path d="M337.536,229.954c5.152-5.251,10.158-10.647,15.471-15.728c10.435-9.988,22.427-10.605,30.85-1.811
		c8.276,8.649,7.616,20.043-2.243,30.185c-12.456,12.787-24.858,25.673-37.951,37.787c-6.528,6.026-8.875,12.415-8.516,21.075
		c0.6,13.955,0.281,27.965,0.129,41.95c-0.195,18.057-7.599,25.354-25.653,25.38c-41.076,0.035-82.141,0.035-123.203,0
		c-18.087-0.025-25.472-7.409-25.483-25.479c-0.037-59.225-0.037-118.441,0-177.665c0.006-18.1,7.408-25.556,25.379-25.581
		c34.812-0.049,69.633,0.135,104.45-0.116c9.242-0.066,16.102,3.526,23.24,9.193c16.864,13.386,24.321,29.762,21.51,51.345
		c-1.217,9.322-0.202,18.943-0.202,28.423C336.058,229.263,336.803,229.605,337.536,229.954z M281.351,154.55
		c-2.494-0.359-3.905-0.739-5.316-0.739c-30.637-0.042-61.278,0.073-91.907-0.116c-8.429-0.049-9.572,4.798-9.561,11.577
		c0.085,59.486,0.153,118.979-0.061,178.466c-0.031,8.484,3.111,11.62,11.552,11.491c22.312-0.348,44.615-0.115,66.933-0.115
		c19.327,0,38.667-0.05,57.995,0.012c6.002,0.02,10.702-1.143,10.647-8.631c-0.092-13.937-0.024-27.873-0.024-42.47
		c-10.251,3.362-19.73,6.699-29.353,9.562c-8.563,2.535-12.328-1.511-10.042-10.258c4.321-16.583,10.128-32.213,24.608-43.1
		c4.241-3.179,7.731-7.396,11.388-11.295c1.355-1.455,3.154-3.351,3.185-5.062c0.238-16.521,0.142-33.05,0.142-50.055
		c-10.354,0-19.566-0.385-28.729,0.104c-8.704,0.478-11.767-3.44-11.521-11.638C281.57,173.163,281.351,164.025,281.351,154.55z
		 M324.578,278.236c11.276-10.844,21.669-20.85,32.321-31.094c-2.683-2.995-5.342-5.967-6.809-7.593
		c-11.284,11.016-21.736,21.217-31.736,30.984C320.348,272.998,322.738,275.95,324.578,278.236z M295.348,179.275
		c9.133,0,17.409,0,25.679,0c0.393-0.703,0.771-1.406,1.168-2.104c-8.232-8.044-16.474-16.088-24.699-24.132
		c-0.717,0.643-1.432,1.284-2.146,1.933C295.348,162.87,295.348,170.755,295.348,179.275z M368.136,240.235
		c3.179-7.061,5.477-11.412,6.87-16.045c0.214-0.703-4.486-4.279-5.63-3.753c-4.034,1.871-7.513,4.944-9.749,6.534
		C362.592,231.592,364.517,234.594,368.136,240.235z M305.837,278.065c-2.799,7.335-4.755,12.463-7.5,19.676
		c7.372-3.025,12.348-5.062,18.258-7.476C312.646,285.785,309.981,282.766,305.837,278.065z"/>
	<path d="M241.406,220.59c-14.548,0-29.119,0.409-43.643-0.294c-3.386-0.165-8.863-3.588-9.426-6.319
		c-1.149-5.611,4.089-7.005,8.918-7.018c29.395-0.037,58.796-0.043,88.19,0c4.779,0.013,10.093,1.303,8.968,6.962
		c-0.551,2.738-5.996,6.21-9.364,6.369C270.525,220.999,255.953,220.59,241.406,220.59z"/>
	<path d="M227.555,247.375c-10.085,0-20.183-0.049-30.269,0.024c-4.982,0.037-9.849-1.357-8.955-6.933
		c0.416-2.628,5.458-6.351,8.489-6.437c20.759-0.562,41.541-0.562,62.299,0c3.045,0.085,8.087,3.784,8.521,6.412
		c0.923,5.587-3.955,6.987-8.931,6.95C248.331,247.332,237.946,247.375,227.555,247.375z"/>
	<path d="M227.555,274.159c-10.085,0-20.177-0.049-30.263,0.024c-4.981,0.029-9.848-1.352-8.961-6.927
		c0.41-2.634,5.452-6.361,8.489-6.441c20.752-0.563,41.534-0.563,62.299-0.006c3.037,0.086,8.081,3.776,8.521,6.405
		c0.923,5.594-3.949,6.992-8.918,6.969C248.331,274.116,237.946,274.159,227.555,274.159z"/>
	<path d="M227.537,300.944c-10.085,0-20.178-0.049-30.264,0.019c-4.986,0.036-9.841-1.368-8.941-6.943
		c0.422-2.628,5.465-6.339,8.509-6.418c20.758-0.568,41.54-0.568,62.298,0c3.038,0.079,8.081,3.796,8.503,6.418
		c0.904,5.593-3.967,6.979-8.941,6.943C248.313,300.901,237.921,300.944,227.537,300.944z"/>
	<path d="M267.622,341.983c-6.224,0-12.573,0.715-18.612-0.324c-2.824-0.481-5.055-4.383-7.549-6.734
		c2.408-2.146,4.743-6.027,7.249-6.145c13.008-0.617,26.076-0.61,39.083,0.03c2.457,0.129,4.719,4.102,7.071,6.303
		c-2.561,2.285-4.878,6.112-7.727,6.564C280.776,342.669,274.138,341.983,267.622,341.983z"/>
</g>
<g>
	<path fill="#FFFFFF" d="M347.536,219.954c5.152-5.251,10.158-10.647,15.471-15.728c10.435-9.988,22.427-10.605,30.85-1.811
		c8.276,8.649,7.616,20.043-2.243,30.185c-12.456,12.787-24.858,25.673-37.951,37.787c-6.528,6.026-8.875,12.415-8.516,21.075
		c0.6,13.955,0.281,27.965,0.129,41.95c-0.195,18.057-7.599,25.354-25.653,25.38c-41.076,0.035-82.141,0.035-123.203,0
		c-18.087-0.025-25.472-7.409-25.483-25.479c-0.037-59.225-0.037-118.441,0-177.665c0.006-18.1,7.408-25.556,25.379-25.581
		c34.812-0.049,69.633,0.135,104.45-0.116c9.242-0.066,16.102,3.526,23.24,9.193c16.864,13.386,24.321,29.762,21.51,51.345
		c-1.217,9.322-0.202,18.943-0.202,28.423C346.058,219.263,346.803,219.605,347.536,219.954z M291.351,144.55
		c-2.494-0.359-3.905-0.739-5.316-0.739c-30.637-0.042-61.278,0.073-91.907-0.116c-8.429-0.049-9.572,4.798-9.561,11.577
		c0.085,59.486,0.153,118.979-0.061,178.466c-0.031,8.484,3.111,11.62,11.552,11.491c22.312-0.348,44.615-0.115,66.933-0.115
		c19.327,0,38.667-0.05,57.995,0.012c6.002,0.02,10.702-1.143,10.647-8.631c-0.092-13.937-0.024-27.873-0.024-42.47
		c-10.251,3.362-19.73,6.699-29.353,9.562c-8.563,2.535-12.328-1.511-10.042-10.258c4.321-16.583,10.128-32.213,24.608-43.1
		c4.241-3.179,7.731-7.396,11.388-11.295c1.355-1.455,3.154-3.351,3.185-5.062c0.238-16.521,0.142-33.05,0.142-50.055
		c-10.354,0-19.566-0.385-28.729,0.104c-8.704,0.478-11.767-3.44-11.521-11.638C291.57,163.163,291.351,154.025,291.351,144.55z
		 M334.578,268.236c11.276-10.844,21.669-20.85,32.321-31.094c-2.683-2.995-5.342-5.967-6.809-7.593
		c-11.284,11.016-21.736,21.217-31.736,30.984C330.348,262.998,332.738,265.95,334.578,268.236z M305.348,169.275
		c9.133,0,17.409,0,25.679,0c0.393-0.703,0.771-1.406,1.168-2.104c-8.232-8.044-16.474-16.088-24.699-24.132
		c-0.717,0.643-1.432,1.284-2.146,1.933C305.348,152.87,305.348,160.755,305.348,169.275z M378.136,230.235
		c3.179-7.061,5.477-11.412,6.87-16.045c0.214-0.703-4.486-4.279-5.63-3.753c-4.034,1.871-7.513,4.944-9.749,6.534
		C372.592,221.592,374.517,224.594,378.136,230.235z M315.837,268.065c-2.799,7.335-4.755,12.463-7.5,19.676
		c7.372-3.025,12.348-5.062,18.258-7.476C322.646,275.785,319.981,272.766,315.837,268.065z"/>
	<path fill="#FFFFFF" d="M251.406,210.59c-14.548,0-29.119,0.409-43.643-0.294c-3.386-0.165-8.863-3.588-9.426-6.319
		c-1.149-5.611,4.089-7.005,8.918-7.018c29.395-0.037,58.796-0.043,88.19,0c4.779,0.013,10.093,1.303,8.968,6.962
		c-0.551,2.738-5.996,6.21-9.364,6.369C280.525,210.999,265.953,210.59,251.406,210.59z"/>
	<path fill="#FFFFFF" d="M237.555,237.375c-10.085,0-20.183-0.049-30.269,0.024c-4.982,0.037-9.849-1.357-8.955-6.933
		c0.416-2.628,5.458-6.351,8.489-6.437c20.759-0.562,41.541-0.562,62.299,0c3.045,0.085,8.087,3.784,8.521,6.412
		c0.923,5.587-3.955,6.987-8.931,6.95C258.331,237.332,247.946,237.375,237.555,237.375z"/>
	<path fill="#FFFFFF" d="M237.555,264.159c-10.085,0-20.177-0.049-30.263,0.024c-4.981,0.029-9.848-1.352-8.961-6.927
		c0.41-2.634,5.452-6.361,8.489-6.441c20.752-0.563,41.534-0.563,62.299-0.006c3.037,0.086,8.081,3.776,8.521,6.405
		c0.923,5.594-3.949,6.992-8.918,6.969C258.331,264.116,247.946,264.159,237.555,264.159z"/>
	<path fill="#FFFFFF" d="M237.537,290.944c-10.085,0-20.178-0.049-30.264,0.019c-4.986,0.036-9.841-1.368-8.941-6.943
		c0.422-2.628,5.465-6.339,8.509-6.418c20.758-0.568,41.54-0.568,62.298,0c3.038,0.079,8.081,3.796,8.503,6.418
		c0.904,5.593-3.967,6.979-8.941,6.943C258.313,290.901,247.921,290.944,237.537,290.944z"/>
	<path fill="#FFFFFF" d="M277.622,331.983c-6.224,0-12.573,0.715-18.612-0.324c-2.824-0.481-5.055-4.383-7.549-6.734
		c2.408-2.146,4.743-6.027,7.249-6.145c13.008-0.617,26.076-0.61,39.083,0.03c2.457,0.129,4.719,4.102,7.071,6.303
		c-2.561,2.285-4.878,6.112-7.727,6.564C290.776,332.669,284.138,331.983,277.622,331.983z"/>
</g>
</svg>
